<?xml version="1.0" encoding="iso-8859-1"?>
<!-- Generator: Adobe Illustrator 25.2.3, SVG Export Plug-In . SVG Version: 6.00 Build 0)  -->
<svg version="1.1" baseProfile="basic" id="Layer_8"
	 xmlns="http://www.w3.org/2000/svg" xmlns:xlink="http://www.w3.org/1999/xlink" x="0px" y="0px" viewBox="0 0 48 48"
	 xml:space="preserve">
<path style="fill:#03A9F4;" d="M16,9C7.168,9,0,16.168,0,25s7.168,16,16,16s16-7.168,16-16C32,16.168,24.832,9,16,9z M16,29.8
	c-2.656,0-4.8-2.144-4.8-4.8c0-2.656,2.144-4.8,4.8-4.8c2.656,0,4.8,2.144,4.8,4.8C20.8,27.656,18.656,29.8,16,29.8z"/>
<path style="fill:#0288D1;" d="M33.984,21c4.065,1.17,8.864,0,8.864,0c-1.392,6.08-5.808,9.888-12.176,10.352
	C28.224,37.032,22.576,41,16,41l4.8-15.256C25.734,10.062,28.263,9,39.965,9L48,9C46.656,14.92,42.024,19.443,33.984,21z"/>
</svg>