<?xml version="1.0" encoding="utf-8"?>
<!-- Generator: Adobe Illustrator 23.1.0, SVG Export Plug-In . SVG Version: 6.00 Build 0)  -->
<!DOCTYPE svg PUBLIC "-//W3C//DTD SVG 1.1//EN" "http://www.w3.org/Graphics/SVG/1.1/DTD/svg11.dtd" [
	<!ENTITY ns_extend "http://ns.adobe.com/Extensibility/1.0/">
	<!ENTITY ns_ai "http://ns.adobe.com/AdobeIllustrator/10.0/">
	<!ENTITY ns_graphs "http://ns.adobe.com/Graphs/1.0/">
	<!ENTITY ns_vars "http://ns.adobe.com/Variables/1.0/">
	<!ENTITY ns_imrep "http://ns.adobe.com/ImageReplacement/1.0/">
	<!ENTITY ns_sfw "http://ns.adobe.com/SaveForWeb/1.0/">
	<!ENTITY ns_custom "http://ns.adobe.com/GenericCustomNamespace/1.0/">
	<!ENTITY ns_adobe_xpath "http://ns.adobe.com/XPath/1.0/">
]>
<svg version="1.1" id="Слой_1" xmlns:x="&ns_extend;" xmlns:i="&ns_ai;" xmlns:graph="&ns_graphs;"
	 xmlns="http://www.w3.org/2000/svg" xmlns:xlink="http://www.w3.org/1999/xlink" x="0px" y="0px" viewBox="0 0 2377.8 468"
	 style="enable-background:new 0 0 2377.8 468;" xml:space="preserve">
<style type="text/css">
	.st0{fill:#0099FE;}
</style>

<g transform="matrix(2.9722 0 0 2.9722 -.00020806 .011235)">
	<path class="st0" d="M84,79.9c-8.7,0-15.7,5.1-15.7,15.7c0,0.3,0,0.6,0.1,0.9v14.8h16.1v0c8.5-0.2,15.3-7.1,15.3-15.7
		C99.7,87,92.7,79.9,84,79.9 M38,0C17,0,0,17,0,38v119.5h119.5c21,0,38-17,38-38V0L38,0z M82.9,134.7h-0.2c0,0-22.8,0.1-33.5,0.1
		h-0.2c-5.9,0-5.3-6.4-5.3-6.4v-0.2c0-11.3-0.1-105.8-0.1-105.8h24.3l0,3.7v32.3c4.6-1.6,9.7-2.3,15-2.3c21.7,0,39.3,17.6,39.3,39.3
		C122.2,117.1,104.6,134.7,82.9,134.7"/>
	<path class="st0" d="M273.5,130.1l-0.9-13.8h-35.8l-7.7,13.8h-35.3l61.9-103.9h38.6l10.9,103.9H273.5z M248.9,91.5h22.3l-1.2-26.2
		c-0.1-3.2,0.2-7.5,0.4-11c-0.7,2-3.7,8.2-5.4,11L248.9,91.5z"/>
	<path class="st0" d="M555.4,26.2l-21.7,103.9h-34.3l21.8-103.9L555.4,26.2z"/>
	<path class="st0" d="M506.5,26.2l-5.6,27.4h-25.4l-16.1,76.5h-34.2l11.6-56.8l33.3-19.7H410l6-27.4L506.5,26.2z"/>
	<path class="st0" d="M376.4,23.4c11.9,0.3,23.6,3.8,32,8.3L402.6,59c-4.6-3.7-11.6-7-21.9-8.3c-14.8-1.8-30.2,5-33.3,23.6
		c-2.5,15.9,2.5,26.6,21.3,28.5c10.8,1.1,20.7-3.7,27.8-8l-7.5,32.9c-9,4.1-25.3,6.4-36.3,4.2c-25.3-5.1-47.9-24.2-39.3-60.2
		C322.7,32.2,351.4,22.9,376.4,23.4L376.4,23.4z"/>
	<path class="st0" d="M602.7,132.5c-34.5-3.4-52.3-31.6-42.8-65.2c9-31.9,35.5-46.7,66.6-43.4c31.1,3.3,49,28.9,41.5,59.6
		C660.2,114.6,636.9,135.9,602.7,132.5L602.7,132.5z M606.4,103.2c12,1.7,23.4-4.5,27-22.2c2.7-12.9,0.6-25.1-12.3-27.4
		c-13.8-2.4-25,6.4-28.8,22.9C589.6,87.8,593.9,101.3,606.4,103.2L606.4,103.2z"/>
	<path class="st0" d="M669.1,130.1l21.4-103.9h28.7l37.2,51.5l11.7-51.5H800l-23.3,103.9h-26.2l-37.9-55l-10.9,55H669.1z"/>
</g>
</svg>
