<svg version="1.1" xmlns="http://www.w3.org/2000/svg" xmlns:xlink="http://www.w3.org/1999/xlink" width="533.52813" height="263.47068" viewBox="-103.01496,324.0607,533.52813,263.47068"><defs><linearGradient x1="213.54506" y1="469.36478" x2="287.58032" y2="469.36478" gradientUnits="userSpaceOnUse" id="color-1"><stop offset="0" stop-color="#007f6a"/><stop offset="0.19" stop-color="#007f6a" stop-opacity="0.99"/><stop offset="0.35" stop-color="#007f6a" stop-opacity="0.95"/><stop offset="0.48" stop-color="#007f6a" stop-opacity="0.88"/><stop offset="0.61" stop-color="#007f6a" stop-opacity="0.79"/><stop offset="0.73" stop-color="#007f6a" stop-opacity="0.67"/><stop offset="0.85" stop-color="#007f6a" stop-opacity="0.53"/><stop offset="0.96" stop-color="#007f6a" stop-opacity="0.36"/><stop offset="1" stop-color="#007f6a" stop-opacity="0.3"/></linearGradient><linearGradient x1="241.07775" y1="438.40698" x2="320.11895" y2="438.40698" gradientUnits="userSpaceOnUse" id="color-2"><stop offset="0" stop-color="#007f6a" stop-opacity="0.3"/><stop offset="0.08" stop-color="#007f6a" stop-opacity="0.41"/><stop offset="0.24" stop-color="#007f6a" stop-opacity="0.59"/><stop offset="0.4" stop-color="#007f6a" stop-opacity="0.74"/><stop offset="0.55" stop-color="#007f6a" stop-opacity="0.85"/><stop offset="0.71" stop-color="#007f6a" stop-opacity="0.93"/><stop offset="0.86" stop-color="#007f6a" stop-opacity="0.98"/><stop offset="1" stop-color="#007f6a"/></linearGradient><linearGradient x1="297.98741" y1="485.8317" x2="377.95077" y2="485.8317" gradientUnits="userSpaceOnUse" id="color-3"><stop offset="0" stop-color="#007f6a" stop-opacity="0.3"/><stop offset="0.06" stop-color="#007f6a" stop-opacity="0.42"/><stop offset="0.16" stop-color="#007f6a" stop-opacity="0.57"/><stop offset="0.26" stop-color="#007f6a" stop-opacity="0.7"/><stop offset="0.37" stop-color="#007f6a" stop-opacity="0.81"/><stop offset="0.49" stop-color="#007f6a" stop-opacity="0.9"/><stop offset="0.62" stop-color="#007f6a" stop-opacity="0.95"/><stop offset="0.77" stop-color="#007f6a" stop-opacity="0.99"/><stop offset="1" stop-color="#007f6a"/></linearGradient></defs><g fill="none" fill-rule="nonzero" stroke="none" stroke-width="1" stroke-linecap="butt" stroke-linejoin="miter" stroke-miterlimit="10" stroke-dasharray="" stroke-dashoffset="0" font-family="none" font-weight="none" font-size="none" text-anchor="none" style="mix-blend-mode: normal"><g><g id="Group 1"><path d="M37.28318,457.24513c-14.62262,0 -26.61054,8.69453 -26.61054,26.61054v26.61054h27.26922c14.35915,-0.39521 25.82013,-12.11965 25.82013,-26.61054c0,-14.49089 -11.98792,-26.61054 -26.61054,-26.61054zM-39.51853,324.0607c-35.0416,0 -63.49643,28.45483 -63.49643,63.62817v199.84251h199.97425c35.0416,0 63.49643,-28.45483 63.49643,-63.49643v-199.97425zM42.02565,549.1964h-72.19097v-187.59112h40.44275v60.33479v-0.65868l0.13174,0.52694c7.77239,-2.63471 16.20345,-3.95206 25.16145,-3.95206c36.35895,0 65.73593,29.50872 65.73593,65.73593c0,34.11945 -26.0836,62.31082 -59.41264,65.47246" id="CompoundPath 1" fill="#007f6a"/><path d="M252.40699,421.80832v-33.98772h-38.73019v125.14857c0,24.37104 17.12559,38.20325 43.07746,38.20325c9.08974,0 22.26327,-0.79041 30.82607,-3.95206v-32.40689c-3.42512,3.16165 -12.64659,3.68859 -16.73039,3.68859c-16.86212,0 -18.44295,-9.88015 -18.44295,-23.44889v-39.91581" id="Path 1" fill="url(#color-1)"/><path d="M252.40699,455.13737h79.0412l-13.17353,-33.32904h-25.95186v0h-39.91581" id="Path 1" fill="url(#color-2)"/><path d="M331.44819,455.13737l21.9998,55.46058l34.90987,-88.52615c0,0 0.13174,-0.13174 0.26347,-0.13174h41.89184l-56.25099,127.91502h-41.49663l-41.62837,-94.71771h40.44275z" id="Path 1" fill="url(#color-3)"/></g></g></g></svg>