<?xml version="1.0" encoding="UTF-8" standalone="no"?>
<svg
   id="Layer_15"
   data-name="Layer 15"
   width="500"
   height="186"
   viewBox="0 0 500 186"
   version="1.1"
   xmlns="http://www.w3.org/2000/svg"
   xmlns:svg="http://www.w3.org/2000/svg">
  <defs
     id="defs2">
    <style
       id="style1">
      .cls-1 {
        fill: #fff;
      }

      .cls-2 {
        fill: #82dc14;
      }

      .cls-3 {
        fill: url(#_Безымянный_градиент_2);
      }
    </style>
    <radialGradient
       id="_Безымянный_градиент_2"
       data-name="Безымянный градиент 2"
       cx="94.690002"
       cy="93"
       fx="94.690002"
       fy="93"
       r="92.5"
       gradientTransform="translate(0,0.25)"
       gradientUnits="userSpaceOnUse">
      <stop
         offset="0"
         stop-color="#5d5d5d"
         id="stop1" />
      <stop
         offset="1"
         stop-color="#151515"
         id="stop2" />
    </radialGradient>
  </defs>
  <path
     id="Path_111"
     data-name="Path 111"
     class="cls-3"
     d="M 11.61,104.76 H 8.17 V 80.43 h 3.53 c 6.74,-0.35 12.49,4.82 12.85,11.54 0.35,6.72 -4.83,12.46 -11.57,12.81 -0.27,0.01 -0.53,0.02 -0.8,0.02 h -0.56 v -0.04 z m 171.28,13.72 C 168.76,167.87 117.16,196.49 67.64,182.4 35.86,173.36 11.25,148.22 2.95,116.31 h 8.68 c 13.15,0 23.82,-10.63 23.82,-23.75 0,-13.12 -10.66,-23.75 -23.82,-23.75 H 3.18 c 13.4,-49.58 64.56,-78.95 114.28,-65.58 40.7,10.94 68.98,47.76 68.98,89.8 0,2.02 0,4.03 -0.21,6.03 L 173.21,68.9 h -4.59 l -20.18,47.42 h 11.68 l 10.81,-26.65 11.96,28.82 z M 51.16,68.82 H 39.55 v 47.5 h 11.61 z m 37.23,0 H 57.48 v 47.5 h 30.98 v -11.54 h -19.3 v -6.44 h 19.3 V 86.8 h -19.3 v -6.4 h 19.3 z m 57.74,0 H 133.31 L 120.47,104.71 107.63,68.82 H 94.75 v 47.5 h 11.68 V 89.67 l 8.06,26.65 h 11.96 l 8.08,-26.64 v 26.64 h 11.68 l -0.07,-47.5 z"
     style="fill:url(#_%D0%91%D0%B5%D0%B7%D1%8B%D0%BC%D1%8F%D0%BD%D0%BD%D1%8B%D0%B9_%D0%B3%D1%80%D0%B0%D0%B4%D0%B8%D0%B5%D0%BD%D1%82_2)" />
  <path
     id="Path_112"
     data-name="Path 112"
     class="cls-2"
     d="M 106.42,116.32 H 94.74 v -47.5 h 12.88 l 12.86,35.91 12.84,-35.91 h 12.88 v 47.5 H 134.52 V 89.61 l -8.08,26.71 H 114.5 l -8.08,-26.65 z m 66.78,-47.5 h -4.59 l -20.18,47.5 h 11.68 l 10.81,-26.65 11.96,28.82 c 1.79,-6.32 2.91,-12.8 3.33,-19.35 L 173.19,68.83 Z M 11.61,116.32 H 2.95 C -1.07,100.73 -0.98,84.37 3.2,68.82 h 8.43 c 13.15,0 23.82,10.63 23.82,23.75 0,13.12 -10.66,23.75 -23.82,23.75 z m 0,-11.52 C 18.36,104.94 23.95,99.59 24.08,92.85 24.22,86.12 18.85,80.55 12.1,80.41 H 8.13 v 24.33 l 3.48,0.05 z m 45.87,11.48 h 30.98 v -11.52 h -19.3 v -6.44 h 19.3 V 86.83 h -19.3 v -6.44 h 19.3 V 68.81 H 57.48 Z M 39.56,68.82 v 47.5 h 11.61 v -47.5 z" />
  <g
     id="Group_3144"
     data-name="Group 3144">
    <path
       id="Path_113"
       data-name="Path 113"
       d="m 412.54,68.82 -1.5,10.91 h 19.4 l -5.29,36.6 h 12.35 l 5.29,-36.6 h 16.69 l 1.55,-10.96 z"
       style="fill:#ffffff" />
  </g>
  <g
     id="Group_3145"
     data-name="Group 3145"
     style="fill:#ffffff">
    <path
       id="Path_114"
       data-name="Path 114"
       d="m 246.38,89.93 c -0.86,-1.04 -1.98,-1.83 -3.25,-2.3 -1.62,-0.58 -3.33,-0.85 -5.05,-0.79 h -23.53 l 1.02,-7.3 h 22.58 l -0.58,4.15 12.68,-2.04 0.3,-2.13 c 0.23,-1.48 0.26,-2.98 0.09,-4.47 -0.14,-1.28 -0.63,-2.5 -1.41,-3.52 -0.88,-1.05 -2.04,-1.82 -3.35,-2.23 -1.81,-0.56 -3.7,-0.82 -5.59,-0.77 h -24.15 c -1.67,-0.02 -3.33,0.16 -4.96,0.55 -2.94,0.66 -5.39,2.69 -6.58,5.45 -0.76,1.74 -1.27,3.57 -1.5,5.45 l -0.99,7.16 c -0.21,1.38 -0.21,2.78 0,4.15 0.16,1.29 0.67,2.5 1.48,3.52 0.86,1.02 1.97,1.81 3.21,2.3 1.61,0.61 3.32,0.9 5.05,0.84 h 23.67 l -1.06,7.42 h -23.57 l 0.62,-4.45 -12.68,1.95 -0.34,2.34 c -0.54,2.8 0.09,5.69 1.76,8.01 2.11,2.27 5.17,3.41 8.26,3.1 h 25.4 c 1.88,0.04 3.76,-0.23 5.56,-0.81 1.46,-0.46 2.79,-1.25 3.9,-2.3 1.03,-1.03 1.84,-2.26 2.36,-3.62 0.58,-1.5 0.99,-3.07 1.2,-4.66 l 0.99,-7.04 c 0.23,-1.45 0.23,-2.93 0,-4.38 -0.19,-1.31 -0.73,-2.54 -1.55,-3.57 z"
       style="fill:#ffffff" />
    <path
       id="Path_115"
       data-name="Path 115"
       d="m 293.11,68.64 h -36.43 l -6.7,47.68 h 12.35 l 2.13,-15.24 h 24.15 c 2.81,0.05 5.56,-0.83 7.81,-2.52 2.37,-1.97 3.84,-4.81 4.08,-7.88 l 1.64,-11.52 c 0.61,-2.71 0,-5.56 -1.68,-7.78 -1.92,-1.96 -4.62,-2.97 -7.36,-2.74 z m -25.56,10.94 h 20 c 0.64,0 1.45,0.11 1.76,0.55 0.27,0.61 0.33,1.29 0.19,1.94 l -0.83,5.82 c -0.04,0.66 -0.32,1.28 -0.78,1.76 -0.56,0.4 -1.24,0.6 -1.92,0.55 h -19.92 l 1.48,-10.61 z"
       style="fill:#ffffff" />
    <path
       id="Path_116"
       data-name="Path 116"
       d="m 357.3,75.4 c -0.34,-1.35 -0.98,-2.6 -1.89,-3.66 -0.93,-1.02 -2.08,-1.82 -3.37,-2.34 -1.43,-0.54 -2.95,-0.8 -4.48,-0.79 h -27.94 c -3.23,-0.11 -6.37,1 -8.82,3.1 -2.4,2.15 -3.91,5.1 -4.27,8.29 L 303,104.81 c -0.25,1.54 -0.19,3.12 0.18,4.64 0.33,1.34 0.96,2.6 1.85,3.66 0.91,1.03 2.05,1.84 3.33,2.36 1.45,0.58 2.99,0.86 4.55,0.84 h 27.96 c 1.6,0 3.19,-0.28 4.69,-0.84 1.45,-0.54 2.8,-1.33 3.99,-2.32 1.16,-0.99 2.13,-2.18 2.86,-3.52 0.78,-1.45 1.29,-3.02 1.5,-4.64 l 3.53,-24.79 c 0.27,-1.59 0.22,-3.22 -0.14,-4.79 z m -12.15,4.17 -3.63,25.76 h -26.11 l 3.62,-25.76 h 26.13 z"
       style="fill:#ffffff" />
    <path
       id="Path_117"
       data-name="Path 117"
       d="m 395.67,99.25 c 2.81,0.05 5.56,-0.83 7.81,-2.5 2.37,-2 3.84,-4.85 4.09,-7.93 l 1.36,-9.69 c 0.62,-2.71 0.01,-5.55 -1.66,-7.78 -1.94,-1.97 -4.65,-2.97 -7.41,-2.74 H 363.4 l -6.67,47.72 h 12.35 l 2.4,-17.07 h 5.65 l 16.26,17.07 h 16.09 L 393.43,99.26 h 2.24 z M 374.31,79.58 h 19.92 c 0.92,0 1.5,0.18 1.76,0.49 0.27,0.59 0.33,1.25 0.18,1.88 l -0.55,4.03 c -0.05,0.66 -0.33,1.28 -0.79,1.76 -0.54,0.44 -1.23,0.65 -1.92,0.6 H 373.1 l 1.22,-8.76 z"
       style="fill:#ffffff" />
  </g>
  <g
     id="Group_3147"
     data-name="Group 3147">
    <path
       id="Path_118"
       data-name="Path 118"
       class="cls-2"
       d="m 286.41,168.35 h -71.18 l 6.28,-44.53 h 71.2 z" />
    <g
       id="Group_3146"
       data-name="Group 3146">
      <path
         id="Path_119"
         data-name="Path 119"
         class="cls-1"
         d="m 243.29,159 1.16,-8.27 h -10.5 l -1.18,8.27 h -6.63 l 3.07,-21.71 h 6.63 l -1.08,7.67 h 10.44 l 1.08,-7.67 h 6.63 L 249.84,159 h -6.56 z" />
      <path
         id="Path_120"
         data-name="Path 120"
         class="cls-1"
         d="m 279.23,152.37 c -0.25,3.93 -3.66,6.92 -7.6,6.67 H 253.6 l 3.07,-21.71 h 18.01 c 2.79,-0.48 5.45,1.39 5.93,4.18 0.14,0.8 0.08,1.63 -0.16,2.4 z m -5.3,-9.29 H 262.5 l -1.41,10.19 h 11.43 z" />
    </g>
  </g>
  <path
     id="Path_121"
     data-name="Path 121"
     class="cls-2"
     d="m 498.48,70.94 c -1.7,-1.57 -3.99,-2.35 -6.3,-2.13 h -31.31 l -1.53,10.96 h 26.16 c 1.04,0 1.76,0.18 1.96,0.55 0.28,0.6 0.35,1.29 0.19,1.94 l -0.49,3.03 c -0.06,0.5 -0.18,1 -0.35,1.48 -0.23,0.58 -1.13,0.84 -1.13,0.84 h -14.02 l -1.27,9.5 h 14.31 c 1.29,0 1.39,1.09 1.25,2.09 l -0.49,3.52 c -0.07,0.73 -0.3,1.44 -0.67,2.08 -0.32,0.46 -1.04,0.69 -2.21,0.69 H 462.2 l 0.62,-4.26 -11.22,1.76 -0.72,5.12 c -0.26,1.35 -0.26,2.73 0,4.08 0.23,0.96 0.72,1.84 1.43,2.53 0.72,0.65 1.59,1.1 2.54,1.32 1.1,0.27 2.23,0.41 3.37,0.4 h 27.93 c 1.52,0.04 3.03,-0.21 4.46,-0.72 2.29,-0.82 4.08,-2.62 4.89,-4.91 0.44,-1.2 0.75,-2.45 0.92,-3.71 l 1.22,-8.8 c 0.23,-1.14 0.12,-2.33 -0.32,-3.41 -0.34,-0.76 -0.85,-1.44 -1.48,-1.99 -0.51,-0.44 -1.12,-0.76 -1.76,-0.95 -0.36,-0.12 -0.73,-0.21 -1.11,-0.26 0.41,-0.11 0.8,-0.25 1.18,-0.42 0.64,-0.28 1.23,-0.66 1.76,-1.11 0.7,-0.57 1.3,-1.25 1.76,-2.02 0.6,-1 0.98,-2.12 1.11,-3.27 l 0.92,-6.79 c 0.69,-2.43 0.25,-5.05 -1.2,-7.13 z" />
</svg>
