<?xml version="1.0" encoding="UTF-8" standalone="no"?>
<svg
   id="Layer_15"
   data-name="Layer 15"
   width="500"
   height="187"
   viewBox="0 0 500 187"
   version="1.1"
   xmlns="http://www.w3.org/2000/svg"
   xmlns:svg="http://www.w3.org/2000/svg">
  <defs
     id="defs2">
    <style
       id="style1">
      .cls-1 {
        fill: #1e8be6;
      }

      .cls-2 {
        fill: #fff;
      }

      .cls-3 {
        fill: url(#_Безымянный_градиент_2);
      }
    </style>
    <radialGradient
       id="_Безымянный_градиент_2"
       data-name="Безымянный градиент 2"
       cx="93.43"
       cy="93.5"
       fx="93.43"
       fy="93.5"
       r="93.43"
       gradientTransform="translate(0,-0.07)"
       gradientUnits="userSpaceOnUse">
      <stop
         offset="0"
         stop-color="#5d5d5d"
         id="stop1" />
      <stop
         offset="1"
         stop-color="#151515"
         id="stop2" />
    </radialGradient>
    <filter
       style="color-interpolation-filters:sRGB"
       id="filter3"
       x="0"
       y="0"
       width="1"
       height="1">
      <feColorMatrix
         values="1 0 0 0 0 0 1 0 0 0 0 0 1 0 0 -0.21 -0.72 -0.07 2 0 "
         result="fbSourceGraphic"
         id="feColorMatrix3" />
      <feColorMatrix
         result="fbSourceGraphicAlpha"
         in="fbSourceGraphic"
         values="0 0 0 -1 0 0 0 0 -1 0 0 0 0 -1 0 0 0 0 1 0"
         id="feColorMatrix5" />
      <feColorMatrix
         id="feColorMatrix6"
         values="1 0 0 0 0 0 1 0 0 0 0 0 1 0 0 -0.21 -0.72 -0.07 2 0 "
         result="color2"
         in="fbSourceGraphic" />
    </filter>
    <filter
       style="color-interpolation-filters:sRGB"
       id="filter4"
       x="0"
       y="0"
       width="1"
       height="1">
      <feColorMatrix
         values="1 0 0 0 0 0 1 0 0 0 0 0 1 0 0 -0.21 -0.72 -0.07 2 0 "
         result="fbSourceGraphic"
         id="feColorMatrix4" />
      <feColorMatrix
         result="fbSourceGraphicAlpha"
         in="fbSourceGraphic"
         values="0 0 0 -1 0 0 0 0 -1 0 0 0 0 -1 0 0 0 0 1 0"
         id="feColorMatrix7" />
      <feColorMatrix
         id="feColorMatrix8"
         values="1 0 0 0 0 0 1 0 0 0 0 0 1 0 0 -0.21 -0.72 -0.07 2 0 "
         result="color2"
         in="fbSourceGraphic" />
    </filter>
  </defs>
  <g
     id="Group_103"
     data-name="Group 103"
     style="fill:#ffffff;filter:url(#filter4)">
    <path
       id="Path_64"
       data-name="Path 64"
       d="m 247.23,90.45 c -0.88,-1.03 -2,-1.82 -3.26,-2.31 -1.62,-0.57 -3.33,-0.85 -5.04,-0.81 h -23.58 l 1.02,-7.32 h 22.58 l -0.58,4.17 12.72,-2.04 0.3,-2.13 c 0.23,-1.47 0.26,-2.97 0.09,-4.45 -0.27,-2.71 -2.15,-4.98 -4.76,-5.76 -1.82,-0.57 -3.72,-0.82 -5.63,-0.76 h -24.11 c -1.67,-0.03 -3.34,0.15 -4.97,0.53 -1.42,0.34 -2.75,0.98 -3.9,1.88 -1.16,0.95 -2.09,2.16 -2.72,3.52 -0.76,1.73 -1.26,3.56 -1.48,5.44 l -1.04,7.22 c -0.21,1.39 -0.21,2.8 0,4.19 0.18,1.29 0.69,2.5 1.5,3.52 0.87,1.02 1.98,1.82 3.23,2.31 1.61,0.61 3.34,0.9 5.06,0.85 h 23.72 l -1.06,7.47 h -23.64 l 0.62,-4.44 -12.7,1.94 -0.34,2.34 c -0.55,2.81 0.09,5.72 1.76,8.05 2.12,2.27 5.18,3.41 8.27,3.08 h 25.54 c 1.89,0.04 3.77,-0.23 5.57,-0.79 1.46,-0.47 2.79,-1.27 3.9,-2.32 1.04,-1.03 1.85,-2.27 2.38,-3.63 0.6,-1.51 1.01,-3.08 1.22,-4.68 l 0.97,-7.04 c 0.21,-1.45 0.21,-2.93 0,-4.38 -0.22,-1.33 -0.79,-2.58 -1.64,-3.63 z"
       style="fill:#ffffff" />
    <path
       id="Path_65"
       data-name="Path 65"
       d="m 294.08,69.02 h -36.55 l -6.7,47.84 h 12.35 l 2.15,-15.28 h 24.2 c 2.82,0.06 5.58,-0.83 7.83,-2.52 2.38,-1.98 3.86,-4.84 4.09,-7.92 l 1.64,-11.55 c 0.59,-2.74 -0.06,-5.6 -1.76,-7.82 -1.9,-1.93 -4.55,-2.93 -7.25,-2.75 z m -25.63,10.99 h 19.95 c 0.64,0 1.46,0.11 1.76,0.55 0.28,0.6 0.35,1.29 0.19,1.94 l -0.83,5.83 c -0.03,0.66 -0.3,1.28 -0.76,1.76 -0.56,0.43 -1.26,0.63 -1.96,0.56 h -19.88 l 1.52,-10.63 z"
       style="fill:#ffffff" />
    <path
       id="Path_66"
       data-name="Path 66"
       d="m 358.41,75.82 c -0.34,-1.35 -0.99,-2.61 -1.91,-3.66 -0.92,-1.03 -2.07,-1.83 -3.37,-2.32 -1.43,-0.56 -2.96,-0.83 -4.5,-0.81 H 320.6 c -3.23,-0.11 -6.37,1 -8.82,3.1 -2.4,2.16 -3.92,5.12 -4.27,8.33 l -3.53,24.86 c -0.24,1.56 -0.17,3.15 0.19,4.68 0.3,1.34 0.9,2.59 1.76,3.66 0.91,1.04 2.05,1.84 3.33,2.36 1.45,0.58 3,0.87 4.57,0.85 H 342 c 1.61,0 3.21,-0.28 4.73,-0.83 1.45,-0.55 2.79,-1.34 3.97,-2.34 1.18,-1.01 2.16,-2.23 2.88,-3.61 0.78,-1.45 1.29,-3.02 1.5,-4.65 l 3.53,-24.88 c 0.24,-1.58 0.17,-3.19 -0.21,-4.74 z m -12.17,4.19 -3.65,25.87 h -26.18 l 3.63,-25.87 h 26.19 z"
       style="fill:#ffffff" />
    <path
       id="Path_67"
       data-name="Path 67"
       d="m 396.88,99.75 c 2.82,0.05 5.57,-0.83 7.83,-2.52 2.37,-1.99 3.84,-4.84 4.09,-7.92 l 1.38,-9.72 c 0.61,-2.72 0,-5.57 -1.68,-7.8 -1.94,-1.98 -4.66,-2.99 -7.43,-2.76 h -36.51 l -6.72,47.84 h 12.35 l 2.43,-17.11 h 5.66 l 16.23,17.11 h 16.12 L 394.56,99.76 h 2.31 z M 375.45,80.01 h 19.97 c 0.9,0 1.5,0.18 1.76,0.53 0.28,0.59 0.35,1.25 0.19,1.88 l -0.56,4.01 c -0.06,0.66 -0.34,1.28 -0.79,1.76 -0.55,0.44 -1.24,0.65 -1.94,0.58 h -19.9 L 375.45,80 Z"
       style="fill:#ffffff" />
    <path
       id="Path_68"
       data-name="Path 68"
       d="m 413.6,69.02 -1.53,10.99 h 19.4 l -5.19,36.85 h 12.44 l 5.19,-36.85 h 16.77 l 1.53,-10.99 z"
       style="fill:#ffffff" />
  </g>
  <g
     id="Group_105"
     data-name="Group 105">
    <path
       id="Path_69"
       data-name="Path 69"
       class="cls-1"
       d="m 287.34,169.05 h -71.35 l 6.26,-44.71 H 293 Z" />
    <g
       id="Group_104"
       data-name="Group 104">
      <path
         id="Path_70"
         data-name="Path 70"
         class="cls-2"
         d="m 244.12,159.68 1.16,-8.29 H 234.7 l -1.16,8.29 h -6.65 l 3.07,-21.78 h 6.65 l -1.09,7.69 h 10.58 l 1.09,-7.69 h 6.65 l -3.07,21.78 z" />
      <path
         id="Path_71"
         data-name="Path 71"
         class="cls-2"
         d="m 280.13,152.99 c -0.18,1.91 -1.07,3.68 -2.5,4.97 -1.44,1.18 -3.25,1.81 -5.12,1.76 h -18.08 l 3.1,-21.82 h 18.06 c 1.74,-0.16 3.47,0.45 4.73,1.67 1.06,1.4 1.44,3.2 1.04,4.91 l -1.23,8.5 z m -5.3,-9.31 h -11.48 l -1.46,10.21 h 11.52 l 1.43,-10.21 z" />
    </g>
  </g>
  <path
     class="cls-1"
     d="m 468.74,106.67 v -3.29 c 0,-2.85 0.92,-3.63 4.29,-3.63 h 12.17 c 4.56,0.03 7.97,-0.72 10.94,-3.4 2.41,-2.6 3.6,-6.1 3.28,-9.63 v -4.54 c 0.35,-3.56 -0.84,-7.1 -3.28,-9.72 -3.01,-2.6 -6.62,-3.39 -10.94,-3.4 l -23.05,-0.04 -1.55,10.99 23.67,0.04 c 3.4,0 4.29,0.72 4.29,3.52 v 1.85 c 0,2.78 -0.93,3.82 -4.29,3.82 h -13 c -4.12,0 -7.89,0.74 -10.87,3.36 -2.42,2.63 -3.31,6.12 -3.3,9.7 v 14.56 h 41.45 L 500,106.65 Z"
     id="path2" />
  <path
     class="cls-3"
     d="M 186.87,93.49 C 186.87,145.13 145.04,187 93.43,187 41.82,187 0,145.13 0,93.49 0,41.85 41.83,0 93.43,0 c 51.6,0 93.44,41.86 93.44,93.49 z"
     id="path3"
     style="fill:url(#_%D0%91%D0%B5%D0%B7%D1%8B%D0%BC%D1%8F%D0%BD%D0%BD%D1%8B%D0%B9_%D0%B3%D1%80%D0%B0%D0%B4%D0%B8%D0%B5%D0%BD%D1%82_2);filter:url(#filter3)" />
  <path
     id="_DIEMA_"
     data-name=" DIEMA "
     class="cls-1"
     d="M 106.66,116.68 H 94.98 V 69.14 h 12.89 l 12.88,36.01 12.88,-36.01 h 12.91 v 47.54 H 134.85 V 89.92 l -8.11,26.76 h -11.96 l -8.1,-26.76 z m 67.03,-47.54 h -4.67 l -20.23,47.54 h 11.73 l 10.83,-26.73 11.99,28.91 c 1.8,-6.37 2.93,-12.91 3.35,-19.51 z M 11.66,116.68 H 2.94 C -1.07,101.07 -0.98,84.7 3.19,69.14 h 8.45 c 13.13,-1.01 24.6,8.8 25.61,21.91 1.01,13.11 -8.81,24.55 -21.95,25.56 -0.63,0.05 -1.27,0.07 -1.9,0.07 h -1.76 z m 0,-11.58 C 18.42,105.24 24.01,99.88 24.15,93.13 24.29,86.38 18.92,80.8 12.16,80.66 H 8.17 v 24.4 z m 45.96,11.58 h 31.05 v -11.57 h -19.4 v -6.44 h 19.4 V 87.08 h -19.4 v -6.41 h 19.4 V 69.14 H 57.62 Z M 39.67,69.14 v 47.54 H 51.35 V 69.14 Z" />
</svg>
