<?xml version="1.0" encoding="UTF-8" standalone="no"?>
<svg
   width="500"
   height="200"
   viewBox="0 0 500 200"
   version="1.1"
   id="svg2"
   xmlns="http://www.w3.org/2000/svg"
   xmlns:svg="http://www.w3.org/2000/svg">
  <defs
     id="defs2">
    <style
       id="style1">
      .cls-1 {
        fill: #fff;
      }

      .cls-2 {
        fill: #ee2e24;
      }

      .cls-3 {
        fill: url(#_Безымянный_градиент_2);
      }
    </style>
    <radialGradient
       id="_Безымянный_градиент_2"
       data-name="Безымянный градиент 2"
       cx="100"
       cy="100"
       fx="100"
       fy="100"
       r="100"
       gradientUnits="userSpaceOnUse">
      <stop
         offset="0"
         stop-color="#5d5d5d"
         id="stop1" />
      <stop
         offset="1"
         stop-color="#151515"
         id="stop2" />
    </radialGradient>
  </defs>
  <g
     id="Group_83"
     data-name="Group 83"
     style="fill:#ffffff">
    <path
       id="Path_45"
       data-name="Path 45"
       d="m 265.89,96.95 c -0.93,-1.13 -2.15,-1.99 -3.53,-2.49 -1.74,-0.63 -3.59,-0.93 -5.45,-0.88 h -25.33 l 1.11,-7.88 h 24.29 l -0.64,4.5 13.69,-2.2 0.32,-2.31 c 0.22,-1.59 0.22,-3.21 0,-4.8 -0.27,-2.93 -2.3,-5.4 -5.13,-6.23 -1.95,-0.61 -3.99,-0.89 -6.03,-0.83 h -25.88 c -1.78,-0.01 -3.56,0.18 -5.29,0.58 -1.52,0.37 -2.94,1.06 -4.16,2.03 -1.26,1.04 -2.25,2.35 -2.91,3.85 -0.82,1.86 -1.36,3.84 -1.61,5.86 l -1.09,7.74 c -0.23,1.49 -0.23,3.01 0,4.5 0.21,1.36 0.77,2.64 1.62,3.72 0.95,1.11 2.16,1.97 3.53,2.49 1.74,0.65 3.58,0.96 5.43,0.9 h 25.51 l -1.15,8.04 h -25.56 l 0.67,-4.8 -13.67,2.13 -0.35,2.52 c -0.64,3.01 0,6.14 1.76,8.66 2.26,2.43 5.52,3.67 8.82,3.33 h 27.5 c 2.03,0.04 4.06,-0.25 6,-0.86 1.57,-0.5 3,-1.36 4.18,-2.5 1.12,-1.11 2,-2.44 2.58,-3.92 0.63,-1.62 1.06,-3.31 1.29,-5.03 l 1.06,-7.6 c 0.25,-1.57 0.25,-3.16 0,-4.73 -0.18,-1.38 -0.72,-2.69 -1.57,-3.79 z"
       style="fill:#ffffff" />
    <path
       id="Path_46"
       data-name="Path 46"
       d="m 316.29,73.84 h -39.26 l -7.25,51.56 h 13.37 l 2.33,-16.48 h 26.02 c 3.03,0.06 6,-0.9 8.43,-2.72 2.56,-2.13 4.15,-5.21 4.41,-8.54 l 1.76,-12.45 c 0.68,-2.92 0.03,-5.99 -1.76,-8.4 -2.1,-2.15 -5.05,-3.24 -8.04,-2.98 z m -27.55,11.85 h 21.48 c 0.67,0 1.55,0.11 1.76,0.58 0.3,0.65 0.37,1.38 0.21,2.08 l -0.9,6.3 c -0.07,0.67 -0.36,1.29 -0.83,1.76 -0.6,0.45 -1.34,0.66 -2.08,0.6 h -21.22 l 1.57,-11.32 z"
       style="fill:#ffffff" />
    <path
       id="Path_47"
       data-name="Path 47"
       d="m 385.49,81.18 c -0.69,-2.97 -2.82,-5.39 -5.66,-6.47 -1.54,-0.58 -3.18,-0.88 -4.83,-0.86 h -30.16 c -3.46,-0.1 -6.83,1.09 -9.45,3.33 -2.58,2.33 -4.22,5.52 -4.59,8.98 l -3.77,26.81 c -0.27,1.67 -0.19,3.38 0.21,5.03 0.68,2.95 2.76,5.38 5.57,6.49 1.56,0.63 3.24,0.94 4.92,0.92 h 30.15 c 1.73,0 3.46,-0.31 5.08,-0.92 1.56,-0.58 3,-1.42 4.27,-2.5 1.27,-1.09 2.33,-2.41 3.12,-3.88 0.83,-1.57 1.37,-3.27 1.61,-5.03 l 3.77,-26.71 c 0.26,-1.73 0.18,-3.49 -0.23,-5.19 z m -13.11,4.51 -3.9,27.87 h -28.22 l 3.92,-27.87 h 28.21 z"
       style="fill:#ffffff" />
    <path
       id="Path_48"
       data-name="Path 48"
       d="m 426.87,106.95 c 3.03,0.05 6,-0.9 8.43,-2.72 2.56,-2.13 4.15,-5.21 4.41,-8.54 l 1.46,-10.48 c 0.68,-2.92 0.03,-5.99 -1.76,-8.4 -2.09,-2.13 -5.02,-3.23 -7.99,-2.98 H 392.1 l -7.23,51.56 h 13.37 l 2.59,-18.45 h 6.09 l 17.46,18.45 h 17.34 l -17.3,-18.45 h 2.45 z M 403.83,85.78 h 21.48 c 0.97,0 1.62,0.19 1.76,0.55 0.31,0.64 0.38,1.36 0.21,2.05 l -0.6,4.32 c -0.07,0.7 -0.37,1.36 -0.85,1.87 -0.59,0.47 -1.33,0.69 -2.08,0.64 h -21.34 l 1.41,-9.42 z"
       style="fill:#ffffff" />
    <path
       id="Path_49"
       data-name="Path 49"
       d="m 444.88,73.84 -1.66,11.85 h 20.87 l -5.57,39.71 h 13.37 l 5.57,-39.71 h 20.88 L 500,73.84 Z"
       style="fill:#ffffff" />
  </g>
  <g
     id="Group_85"
     data-name="Group 85">
    <path
       id="Path_50"
       data-name="Path 50"
       class="cls-2"
       d="m 309.06,181.62 h -76.77 l 6.77,-48.16 h 76.68 l -6.69,48.16 z" />
    <g
       id="Group_84"
       data-name="Group 84">
      <path
         id="Path_51"
         data-name="Path 51"
         class="cls-1"
         d="m 262.56,171.53 1.25,-8.93 h -11.32 l -1.25,8.93 h -7.14 l 3.3,-23.46 h 7.14 l -1.16,8.33 h 11.32 l 1.16,-8.33 H 273 l -3.3,23.46 z" />
      <path
         id="Path_52"
         data-name="Path 52"
         class="cls-1"
         d="m 301.29,164.35 c -0.2,2.04 -1.16,3.93 -2.7,5.29 -1.55,1.26 -3.5,1.92 -5.5,1.85 h -19.4 l 3.25,-23.39 h 19.4 c 3.27,-0.08 5.87,1.54 6.37,4.56 0.14,0.83 0.08,1.69 -0.16,2.5 l -1.25,9.19 z m -5.71,-10.05 h -12.35 l -1.57,11.01 h 12.35 z" />
    </g>
  </g>
  <circle
     class="cls-3"
     cx="100"
     cy="100"
     r="100"
     id="circle2"
     style="fill:url(#_%D0%91%D0%B5%D0%B7%D1%8B%D0%BC%D1%8F%D0%BD%D0%BD%D1%8B%D0%B9_%D0%B3%D1%80%D0%B0%D0%B4%D0%B8%D0%B5%D0%BD%D1%82_2)" />
  <path
     id="_DIEMA_"
     data-name=" DIEMA "
     class="cls-2"
     d="m 114.14,125.01 h -12.51 v -51 h 13.79 l 13.79,38.6 13.78,-38.6 h 13.81 v 51 H 144.28 V 96.38 l -8.66,28.65 h -12.81 l -8.66,-28.65 -0.02,28.63 z m 71.65,-50.99 h -4.92 l -21.66,51.16 h 12.54 l 11.59,-28.66 12.82,30.99 c 1.92,-6.82 3.11,-13.83 3.53,-20.9 L 185.79,74.03 Z M 12.49,125.05 H 3.19 C -1.08,108.29 -0.97,90.72 3.53,74.02 h 8.96 c 14.09,0 25.51,11.41 25.52,25.5 0,14.09 -11.41,25.51 -25.5,25.52 h -0.02 v 0.02 z m 0,-12.35 c 7.24,0 13.11,-5.87 13.11,-13.11 0,-7.24 -5.87,-13.11 -13.11,-13.11 H 8.82 v 26.16 l 3.67,0.05 z m 49.19,12.35 H 94.89 V 112.7 H 74.18 v -6.93 H 94.89 V 93.42 H 74.18 V 86.36 H 94.89 V 74.01 H 61.73 l -0.05,51.03 z M 42.46,74.02 v 51 h 12.52 v -51 z" />
</svg>
