<?xml version="1.0" encoding="utf-8"?>
<!-- Generator: Adobe Illustrator 23.0.3, SVG Export Plug-In . SVG Version: 6.00 Build 0)  -->
<svg version="1.1"
	 id="svg12723" xmlns:cc="http://creativecommons.org/ns#" xmlns:dc="http://purl.org/dc/elements/1.1/" xmlns:inkscape="http://www.inkscape.org/namespaces/inkscape" xmlns:rdf="http://www.w3.org/1999/02/22-rdf-syntax-ns#" xmlns:sodipodi="http://sodipodi.sourceforge.net/DTD/sodipodi-0.dtd" xmlns:svg="http://www.w3.org/2000/svg"
	 xmlns="http://www.w3.org/2000/svg" xmlns:xlink="http://www.w3.org/1999/xlink" x="0px" y="0px" viewBox="0 0 1000 1000"
	 style="enable-background:new 0 0 1000 1000;" xml:space="preserve">
<style type="text/css">
	.st0{fill:#ee0000;}
</style>
<g>
	<path class="st0" d="M678.5,500c0-98.8-80.1-178.6-178.6-178.6c-98.6,0-178.6,79.8-178.6,178.6c0,98.6,80.1,178.5,178.6,178.5
		C598.4,678.5,678.5,598.7,678.5,500z"/>
	<path class="st0" d="M114.9,500c0,98.6,80.1,178.5,178.9,178.5V321.2C194.9,321.2,114.9,401.2,114.9,500z"/>
	<path class="st0" d="M706.3,875.8c93.7,0,169.6-75.8,169.6-169.5l-169.6-0.2V875.8z"/>
	<path class="st0" d="M123.9,293.8h169.9V124.1C199.8,124.1,123.9,200.1,123.9,293.8z"/>
	<path class="st0" d="M293.7,875.8V706.1l-169.9,0.2C123.9,799.9,199.8,875.8,293.7,875.8z"/>
	<path class="st0" d="M912.6,346.4v307.1c52.1-31.3,87.4-88.3,87.4-153.5C1000,434.6,964.7,377.5,912.6,346.4z"/>
	<path class="st0" d="M500.1,0c-65.5,0-122.7,35.1-153.8,87.3h307.1C622.3,35.1,565.3,0,500.1,0z"/>
	<path class="st0" d="M497.7,999.9c65.2,0,122.4-34.9,153.6-87.3H344.1C375.3,964.8,432.5,999.9,497.7,999.9z"/>
	<path class="st0" d="M499.9,885c98.5,0,178.6-80.1,178.6-178.7H321.2C321.2,804.9,401.3,885,499.9,885z"/>
	<path class="st0" d="M706.3,321.2v357.3c98.6,0,178.6-79.8,178.6-178.5C884.9,401.2,804.8,321.2,706.3,321.2z"/>
	<path class="st0" d="M499.9,115.2c-98.6,0-178.6,80.1-178.6,178.7h357.3C678.5,195.3,598.4,115.2,499.9,115.2z"/>
	<path class="st0" d="M0,500c0,65.2,35.1,122.2,87.4,153.5V346.4C35.1,377.5,0,434.6,0,500z"/>
	<path class="st0" d="M706.2,124.1v169.6l169.6,0.1C875.9,200.1,799.9,124.1,706.2,124.1z"/>
</g>
</svg>
