<?xml version="1.0" encoding="UTF-8" standalone="no"?>
<svg
   xmlns:dc="http://purl.org/dc/elements/1.1/"
   xmlns:cc="http://creativecommons.org/ns#"
   xmlns:rdf="http://www.w3.org/1999/02/22-rdf-syntax-ns#"
   xmlns:svg="http://www.w3.org/2000/svg"
   xmlns="http://www.w3.org/2000/svg"
   xmlns:sodipodi="http://sodipodi.sourceforge.net/DTD/sodipodi-0.dtd"
   xmlns:inkscape="http://www.inkscape.org/namespaces/inkscape"
   id="Layer_1"
   data-name="Layer 1"
   viewBox="0 0 964.46 365.1"
   version="1.1"
   sodipodi:docname="Global TV 2019.svg"
   inkscape:version="0.92.3 (2405546, 2018-03-11)">
  <metadata
     id="metadata58">
    <rdf:RDF>
      <cc:Work
         rdf:about="">
        <dc:format>image/svg+xml</dc:format>
        <dc:type
           rdf:resource="http://purl.org/dc/dcmitype/StillImage" />
      </cc:Work>
    </rdf:RDF>
  </metadata>
  <sodipodi:namedview
     pagecolor="#ffffff"
     bordercolor="#666666"
     borderopacity="1"
     objecttolerance="10"
     gridtolerance="10"
     guidetolerance="10"
     inkscape:pageopacity="0"
     inkscape:pageshadow="2"
     inkscape:window-width="1920"
     inkscape:window-height="1017"
     id="namedview56"
     showgrid="false"
     inkscape:zoom="1.8300396"
     inkscape:cx="484.7678"
     inkscape:cy="182.55"
     inkscape:window-x="-8"
     inkscape:window-y="-8"
     inkscape:window-maximized="1"
     inkscape:current-layer="Layer_1" />
  <defs
     id="defs37">
    <style
       id="style35">.cls-1{fill:#fff;}.cls-2{fill:#ef2601;}</style>
  </defs>
  <title
     id="title39">01-2019_Global-logo-1COLOUR-red</title>
  <rect
     class="cls-1"
     x="201.38"
     y="171.22"
     width="43.68"
     height="189.97"
     id="rect41"
     style="fill:#000000" />
  <path
     class="cls-1"
     d="M204.63,351.7a84.71,84.71,0,0,0-29.31,21.38,95.34,95.34,0,0,0-18.25,31.79A118.75,118.75,0,0,0,150.78,444a115.31,115.31,0,0,0,6.28,38.42,92.67,92.67,0,0,0,18.21,31.27,83.86,83.86,0,0,0,29.23,21c11.47,5,24.52,7.58,38.79,7.58a69.93,69.93,0,0,0,27.52-5.78,57.29,57.29,0,0,0,18.26-12.72v14.63h37V435.76l-84.08,0v37.8h42.52a61,61,0,0,1-8.79,13.62,52.29,52.29,0,0,1-4.6,4.84,29.33,29.33,0,0,1-3.51,2.75A42.51,42.51,0,0,1,242,503.56c-27.05,0-49-26.65-49-59.53s21.93-59.51,49-59.51c17.51,0,34.45,9.21,42.52,27.88h40.7c-1.74-12.71-7.41-24.15-13.4-33.87a71.55,71.55,0,0,0-15.6-17,80.5,80.5,0,0,0-24.67-13.08A90.76,90.76,0,0,0,243.44,344c-14.27,0-27.34,2.62-38.81,7.74"
     transform="translate(-150.78 -177.18)"
     id="path43"
     style="fill:#000000" />
  <path
     class="cls-1"
     d="M473.49,503.92a24,24,0,0,1-8.34-8.22,37.44,37.44,0,0,1-4.65-12.26,73.78,73.78,0,0,1-1.44-14.66A75.91,75.91,0,0,1,460.5,454a36,36,0,0,1,4.63-12.2,25.7,25.7,0,0,1,8.41-8.31c3.38-2.05,7.77-3.11,13.08-3.11s9.74,1.06,13.23,3.15a24.79,24.79,0,0,1,8.48,8.27A36.23,36.23,0,0,1,513,454a75.73,75.73,0,0,1,1.43,14.79A73.52,73.52,0,0,1,513,483.43a38.08,38.08,0,0,1-4.64,12.27,23.72,23.72,0,0,1-8.43,8.19c-3.48,2-8,3.06-13.27,3.06s-9.73-1-13.13-3M457.42,400.28a65.24,65.24,0,0,0-22.51,14.93,66.09,66.09,0,0,0-14.51,23.35,92.13,92.13,0,0,0,0,60.11,66.36,66.36,0,0,0,14.51,23.18,63.58,63.58,0,0,0,22.54,14.82,79.17,79.17,0,0,0,29.17,5.13,80.51,80.51,0,0,0,29.25-5.11,63.53,63.53,0,0,0,22.69-14.84,66.11,66.11,0,0,0,14.5-23.18,92.31,92.31,0,0,0,0-60.11,63.68,63.68,0,0,0-37.14-38.28,84,84,0,0,0-58.5,0"
     transform="translate(-150.78 -177.18)"
     id="path45"
     style="fill:#000000" />
  <rect
     class="cls-1"
     x="737.58"
     y="171.22"
     width="43.68"
     height="189.97"
     id="rect47"
     style="fill:#000000" />
  <path
     class="cls-1"
     d="M788.16,509.21a16.19,16.19,0,0,1-5.62-2.16,9.73,9.73,0,0,1-3.4-3.77,13.53,13.53,0,0,1-1.28-6.31,14.35,14.35,0,0,1,1.27-6.56,12.65,12.65,0,0,1,3.55-4.21,19.19,19.19,0,0,1,5.61-2.84,55.43,55.43,0,0,1,7.39-1.92c2.76-.5,5.54-.91,8.22-1.23,2.83-.35,5.67-.79,8.43-1.33a58.92,58.92,0,0,0,7.76-2.05,4.84,4.84,0,0,1,.49-.18v6.79a70.38,70.38,0,0,1-.61,7.69,23.57,23.57,0,0,1-2.91,8.65,19.59,19.59,0,0,1-7.14,7.11c-3.2,2-8,3-14.19,3a41,41,0,0,1-7.57-.69m-7.3-111.93A65.25,65.25,0,0,0,760.37,405,47.45,47.45,0,0,0,745,419.76c-4.09,6.17-6.42,14-7,23.14l-.08,2.91h43.59l.15-2.3c.57-6.08,2.42-10.35,5.52-12.75,3.29-2.55,8-3.83,14.17-3.83a56.94,56.94,0,0,1,8.32.59,16.35,16.35,0,0,1,5.85,2.05,10,10,0,0,1,3.59,3.91,15.76,15.76,0,0,1,1.42,7.44c.16,3.48-1,4.8-1.86,5.55a20.45,20.45,0,0,1-8,3.67,88.23,88.23,0,0,1-13.27,2.21c-5.25.5-10.65,1.21-16,2.07A152.53,152.53,0,0,0,765,458a48.65,48.65,0,0,0-15.28,7.09,36.52,36.52,0,0,0-11.23,13c-2.9,5.44-4.37,12.3-4.37,20.39a45.93,45.93,0,0,0,3.76,19.32,36.91,36.91,0,0,0,10.52,13.69,43.26,43.26,0,0,0,15.4,7.89,67.18,67.18,0,0,0,18.4,2.45A83.69,83.69,0,0,0,807,538a49,49,0,0,0,16.14-8.51c0,.25.1.5.17.74v8.14h41l-.08-101.91c0-8.81-2-16.08-6-21.62a40.07,40.07,0,0,0-15-12.55,65.19,65.19,0,0,0-19.58-5.88A149.52,149.52,0,0,0,803.16,395a113.77,113.77,0,0,0-22.3,2.26"
     transform="translate(-150.78 -177.18)"
     id="path49"
     style="fill:#000000" />
  <path
     class="cls-1"
     d="M635.66,504a25.2,25.2,0,0,1-8.33-8.08,38.62,38.62,0,0,1-5-12.25,66,66,0,0,1-1.68-14.93,66.76,66.76,0,0,1,1.68-15.16,38.45,38.45,0,0,1,5-12.27,24.88,24.88,0,0,1,8.34-8.09,22.74,22.74,0,0,1,11.67-2.89,22.5,22.5,0,0,1,11.78,2.88,25.22,25.22,0,0,1,8.22,8.1,39.42,39.42,0,0,1,5,12.27A67.87,67.87,0,0,1,674,468.78a66.34,66.34,0,0,1-1.66,14.93,39.18,39.18,0,0,1-5,12.25,25.57,25.57,0,0,1-8.24,8.1A22.39,22.39,0,0,1,647.34,507,22.74,22.74,0,0,1,635.66,504M578.42,348.4v190h41.74v-9.68a36.75,36.75,0,0,0,12.47,8.23,72.79,72.79,0,0,0,27.17,4.86,53.32,53.32,0,0,0,39.61-17.88c5.45-5.94,9.91-13.65,13.29-22.88s5-20.12,5-32.62-1.69-23.47-5-32.66a68.81,68.81,0,0,0-13.3-22.88,54.09,54.09,0,0,0-18.65-13.46,53.09,53.09,0,0,0-20.92-4.4A63.23,63.23,0,0,0,635,400.09a42.58,42.58,0,0,0-12.9,8.42V348.4Z"
     transform="translate(-150.78 -177.18)"
     id="path51"
     style="fill:#000000" />
  <path
     class="cls-2"
     d="M900.18,178.46V283.4a1.26,1.26,0,0,0,.57,1.06l132.86,96.82a6,6,0,0,1,2.45,4.91,7.19,7.19,0,0,1-3.39,6.4L973.29,436.4a1.26,1.26,0,0,0-.51,1V537.51a1.27,1.27,0,0,0,1.26,1.28,1.36,1.36,0,0,0,.74-.24L1114.7,435.61a1.28,1.28,0,0,0,.54-1.05V334a1.3,1.3,0,0,0-.62-1.1L902.15,177.4a1.26,1.26,0,0,0-2,1.06"
     transform="translate(-150.78 -177.18)"
     id="path53" />
</svg>
