<?xml version="1.0" encoding="utf-8"?>
<!-- Generator: Adobe Illustrator 26.0.1, SVG Export Plug-In . SVG Version: 6.00 Build 0)  -->
<svg version="1.1" id="Слой_1" xmlns="http://www.w3.org/2000/svg" xmlns:xlink="http://www.w3.org/1999/xlink" x="0px" y="0px"
	 width="500px" height="96.6px" viewBox="0 0 500 96.6" style="enable-background:new 0 0 500 96.6;" xml:space="preserve">
<style type="text/css">
	.st0{fill:url(#SVGID_1_);}
	.st1{fill:url(#SVGID_00000107577810058352093470000004126143085351851431_);}
	.st2{fill:url(#SVGID_00000152229953845598465940000009190990724894732950_);}
	.st3{fill:url(#SVGID_00000121986033052102261100000016534876050332824473_);}
	.st4{fill:url(#SVGID_00000075122466106695535890000007477279077204678044_);}
</style>
<g>
	<linearGradient id="SVGID_1_" gradientUnits="userSpaceOnUse" x1="0" y1="48.3409" x2="500" y2="48.3409">
		<stop  offset="0" style="stop-color:#082E93"/>
		<stop  offset="1" style="stop-color:#343BFF"/>
	</linearGradient>
	<path class="st0" d="M25.9,24.4h17c16.1,0,18.4,14.4,18.4,24.5l0,44.8h25.3l0-40.3C86.6,19.4,71.9,3,39.3,3L0,3v90.7h25.9V24.4z"/>
	
		<linearGradient id="SVGID_00000175302349694847421390000013088738698559693963_" gradientUnits="userSpaceOnUse" x1="0" y1="48.3168" x2="500" y2="48.3168">
		<stop  offset="0" style="stop-color:#082E93"/>
		<stop  offset="1" style="stop-color:#343BFF"/>
	</linearGradient>
	<path style="fill:url(#SVGID_00000175302349694847421390000013088738698559693963_);" d="M148.7,0c-26.7,0-48.3,21.6-48.3,48.3
		s21.6,48.3,48.3,48.3S197,75,197,48.3S175.4,0,148.7,0z M148.7,73.9c-14.1,0-25.6-11.5-25.6-25.6c0-14.1,11.5-25.6,25.6-25.6
		c14.1,0,25.6,11.5,25.6,25.6C174.3,62.4,162.8,73.9,148.7,73.9z"/>
	
		<linearGradient id="SVGID_00000152977851516260092450000005066205339190260139_" gradientUnits="userSpaceOnUse" x1="1.818989e-12" y1="48.3168" x2="500" y2="48.3168">
		<stop  offset="0" style="stop-color:#082E93"/>
		<stop  offset="1" style="stop-color:#343BFF"/>
	</linearGradient>
	<path style="fill:url(#SVGID_00000152977851516260092450000005066205339190260139_);" d="M258.9,0c-26.7,0-48.3,21.6-48.3,48.3
		s21.6,48.3,48.3,48.3c26.7,0,48.3-21.6,48.3-48.3S285.6,0,258.9,0z M258.9,73.9c-14.1,0-25.6-11.5-25.6-25.6
		c0-14.1,11.5-25.6,25.6-25.6c14.1,0,25.6,11.5,25.6,25.6C284.5,62.4,273,73.9,258.9,73.9z"/>
	
		<linearGradient id="SVGID_00000057113730276356096110000003195480616595506049_" gradientUnits="userSpaceOnUse" x1="0" y1="48.3168" x2="500" y2="48.3168">
		<stop  offset="0" style="stop-color:#082E93"/>
		<stop  offset="1" style="stop-color:#343BFF"/>
	</linearGradient>
	<path style="fill:url(#SVGID_00000057113730276356096110000003195480616595506049_);" d="M451.7,0c-26.7,0-48.3,21.6-48.3,48.3
		s21.6,48.3,48.3,48.3S500,75,500,48.3S478.4,0,451.7,0z M451.7,73.9c-14.1,0-25.6-11.5-25.6-25.6c0-14.1,11.5-25.6,25.6-25.6
		c14.1,0,25.6,11.5,25.6,25.6C477.3,62.4,465.8,73.9,451.7,73.9z"/>
	
		<linearGradient id="SVGID_00000088814398903697265040000008673401058504657538_" gradientUnits="userSpaceOnUse" x1="-9.094947e-13" y1="48.3409" x2="500" y2="48.3409">
		<stop  offset="0" style="stop-color:#082E93"/>
		<stop  offset="1" style="stop-color:#343BFF"/>
	</linearGradient>
	<polygon style="fill:url(#SVGID_00000088814398903697265040000008673401058504657538_);" points="355.1,61.8 335.3,3 309.5,3 
		344.6,93.7 365.6,93.7 400.8,3 374.9,3 	"/>
</g>
</svg>
