<?xml version="1.0" encoding="UTF-8" standalone="no"?>
<!-- Created with Inkscape (http://www.inkscape.org/) -->

<svg
   xmlns:dc="http://purl.org/dc/elements/1.1/"
   xmlns:cc="http://creativecommons.org/ns#"
   xmlns:rdf="http://www.w3.org/1999/02/22-rdf-syntax-ns#"
   xmlns:svg="http://www.w3.org/2000/svg"
   xmlns="http://www.w3.org/2000/svg"
   xmlns:sodipodi="http://sodipodi.sourceforge.net/DTD/sodipodi-0.dtd"
   xmlns:inkscape="http://www.inkscape.org/namespaces/inkscape"
   width="268.29999"
   height="110.794"
   id="svg159542"
   version="1.1"
   inkscape:version="0.48.2 r9819"
   sodipodi:docname="New document 11">
  <defs
     id="defs159544">
    <clipPath
       clipPathUnits="userSpaceOnUse"
       id="clipPath10272">
      <path
         inkscape:connector-curvature="0"
         d="m 893.25,383.058 26,0 0,10.586 -26,0 0,-10.586 z"
         id="path10274" />
    </clipPath>
  </defs>
  <sodipodi:namedview
     id="base"
     pagecolor="#ffffff"
     bordercolor="#666666"
     borderopacity="1.0"
     inkscape:pageopacity="0.0"
     inkscape:pageshadow="2"
     inkscape:zoom="1"
     inkscape:cx="89.650382"
     inkscape:cy="36.876794"
     inkscape:document-units="px"
     inkscape:current-layer="g68368"
     showgrid="false"
     fit-margin-top="1.4"
     fit-margin-left="1.4"
     fit-margin-right="1.4"
     fit-margin-bottom="1.4"
     inkscape:window-width="1920"
     inkscape:window-height="1018"
     inkscape:window-x="-8"
     inkscape:window-y="-8"
     inkscape:window-maximized="1" />
  <metadata
     id="metadata159547">
    <rdf:RDF>
      <cc:Work
         rdf:about="">
        <dc:format>image/svg+xml</dc:format>
        <dc:type
           rdf:resource="http://purl.org/dc/dcmitype/StillImage" />
        <dc:title></dc:title>
      </cc:Work>
    </rdf:RDF>
  </metadata>
  <g
     inkscape:label="Layer 1"
     inkscape:groupmode="layer"
     id="layer1"
     transform="translate(-285.34962,-418.44498)">
    <g
       transform="matrix(10.211538,0,0,-10.211538,-8834.7067,4439.4503)"
       id="g68366">
      <g
         clip-path="url(#clipPath10272)"
         id="g68368">
        <path
           d="m 893.25,383.0579 1.527,3.319 c 0,0 0.331,0.841 1.785,0.841 l 19.879,0 -1.546,-3.366 c 0,0 -0.346,-0.794 -1.625,-0.794 l -20.02,0 z"
           style="fill:#b92025;fill-opacity:1;fill-rule:nonzero;stroke:none"
           id="path68370"
           inkscape:connector-curvature="0" />
        <path
           d="m 894.8605,383.3467 1.315,2.858 c 0,0 0.285,0.724 1.537,0.724 l 17.118,0 -1.331,-2.899 c 0,0 -0.298,-0.683 -1.399,-0.683 l -17.24,0 z"
           style="fill:#ffffff;fill-opacity:1;fill-rule:nonzero;stroke:none"
           id="path68372"
           inkscape:connector-curvature="0" />
        <path
           d="m 898.9872,386.481 -1.342,-2.803 1.007,0 1.342,2.803 -1.007,0 z"
           style="fill:#000000;fill-opacity:1;fill-rule:nonzero;stroke:none"
           id="path68374"
           inkscape:connector-curvature="0" />
        <path
           d="m 903.4506,386.481 -0.879,-1.837 -0.528,1.525 c -0.101,0.291 -0.193,0.312 -0.716,0.312 l -0.906,0 -1.341,-2.803 1.007,0 0.926,1.935 0.528,-1.484 c 0.022,-0.079 0.056,-0.194 0.088,-0.294 l 0.006,-0.013 c 0.071,-0.121 0.189,-0.144 0.382,-0.144 l 1.081,0 1.342,2.803 -0.99,0 z"
           style="fill:#000000;fill-opacity:1;fill-rule:nonzero;stroke:none"
           id="path68376"
           inkscape:connector-curvature="0" />
        <path
           d="m 905.5672,385.7475 1.908,0 0.351,0.733 -2.202,0 c -0.555,0 -0.829,-0.161 -1.047,-0.617 l -1.046,-2.186 1.046,0 0.437,0.915 1.513,0 0.326,0.749 -1.48,0 0.194,0.406 z"
           style="fill:#000000;fill-opacity:1;fill-rule:nonzero;stroke:none"
           id="path68378"
           inkscape:connector-curvature="0" />
        <path
           d="m 910.6138,385.3737 -0.247,-0.517 c -0.158,-0.329 -0.275,-0.405 -0.625,-0.405 l -1.032,0 c -0.273,0 -0.315,0.038 -0.316,0.038 -0.029,0.053 -0.025,0.174 0.036,0.303 l 0.244,0.51 c 0.084,0.175 0.149,0.25 0.279,0.324 0.103,0.057 0.18,0.073 0.342,0.073 l 1.071,0 c 0.066,0 0.268,0 0.308,-0.064 0.025,-0.039 0.005,-0.127 -0.06,-0.262 m 0.98,0.979 c -0.137,0.1 -0.292,0.128 -0.688,0.128 l -1.538,0 c -0.501,0 -0.754,-0.065 -1.042,-0.268 -0.252,-0.174 -0.433,-0.404 -0.607,-0.767 l -0.332,-0.694 c -0.152,-0.317 -0.195,-0.572 -0.129,-0.757 0.041,-0.113 0.12,-0.197 0.237,-0.251 0.119,-0.052 0.277,-0.066 0.768,-0.066 l 1.328,0 c 0.588,0 0.813,0.05 1.094,0.244 0.227,0.155 0.414,0.397 0.587,0.759 l 0.384,0.802 c 0.191,0.399 0.168,0.717 -0.062,0.87"
           style="fill:#010101;fill-opacity:1;fill-rule:nonzero;stroke:none"
           id="path68380"
           inkscape:connector-curvature="0" />
        <path
           d="m 895.4222,388.0466 1.657,3.497 6.413,0 c -0.036,-0.074 -0.185,-0.349 -0.488,-0.512 -0.284,-0.153 -0.681,-0.148 -0.661,-0.157 0.113,-0.049 0.265,-0.11 0.369,-0.278 0.118,-0.188 0.128,-0.38 0.045,-0.592 -0.082,-0.211 -0.909,-1.958 -0.909,-1.958 l -1.954,0 1.052,2.227 -2.573,0 -1.057,-2.227 -1.894,0 z"
           style="fill:#b92025;fill-opacity:1;fill-rule:nonzero;stroke:none"
           id="path68382"
           inkscape:connector-curvature="0" />
        <path
           d="m 897.398,392.2083 0.674,1.425 5.084,0 c 0,0 0.403,0.011 0.647,-0.163 0.23,-0.164 0.249,-0.398 0.238,-0.546 -0.023,-0.296 -0.224,-0.716 -0.224,-0.716 l -6.419,0 z"
           style="fill:#b92025;fill-opacity:1;fill-rule:nonzero;stroke:none"
           id="path68384"
           inkscape:connector-curvature="0" />
        <path
           d="m 905.2809,393.6329 -0.675,-1.425 6.444,0 c 0,0 0.267,0.538 0.192,0.878 -0.084,0.374 -0.357,0.47 -0.589,0.513 -0.229,0.043 -0.867,0.034 -0.867,0.034 l -4.505,0 z"
           style="fill:#b92025;fill-opacity:1;fill-rule:nonzero;stroke:none"
           id="path68386"
           inkscape:connector-curvature="0" />
        <path
           d="m 908.8081,391.5436 1.934,0 -0.978,-2.058 c 0,0 -0.235,-0.494 -0.413,-0.705 -0.179,-0.21 -0.346,-0.407 -0.735,-0.567 -0.524,-0.216 -1.375,-0.169 -1.48,-0.167 -0.106,0.002 -4.51,0 -4.51,0 l 1.661,3.497 1.966,0 -0.966,-2.076 2.536,0 0.985,2.076 z"
           style="fill:#b92025;fill-opacity:1;fill-rule:nonzero;stroke:none"
           id="path68388"
           inkscape:connector-curvature="0" />
        <path
           d="m 918.579,392.2083 0.671,1.425 -4.877,0 c 0,0 -0.986,-0.018 -1.481,-0.191 -0.434,-0.152 -0.712,-0.379 -0.894,-0.657 -0.121,-0.185 -0.293,-0.577 -0.293,-0.577 l 6.874,0 z"
           style="fill:#b92025;fill-opacity:1;fill-rule:nonzero;stroke:none"
           id="path68390"
           inkscape:connector-curvature="0" />
        <path
           d="m 911.389,391.5436 5.683,0 c 0,0 0.304,-0.009 0.476,-0.08 0.177,-0.074 0.295,-0.186 0.347,-0.341 0.055,-0.162 0.089,-0.337 -0.148,-0.849 -0.238,-0.511 -0.413,-0.896 -0.553,-1.177 -0.135,-0.272 -0.302,-0.469 -0.611,-0.676 -0.347,-0.231 -0.948,-0.374 -1.421,-0.374 l -5.476,0 0.657,1.421 5.056,0 0.412,0.806 -3.37,0.003 c 0,0 -0.629,-0.015 -0.918,0.11 -0.206,0.089 -0.3,0.228 -0.331,0.383 -0.063,0.304 0.197,0.774 0.197,0.774"
           style="fill:#b92025;fill-opacity:1;fill-rule:nonzero;stroke:none"
           id="path68392"
           inkscape:connector-curvature="0" />
      </g>
    </g>
  </g>
</svg>
