<?xml version="1.0" encoding="utf-8"?>
<!-- Generator: Adobe Illustrator 26.0.1, SVG Export Plug-In . SVG Version: 6.00 Build 0)  -->
<svg version="1.1" id="Слой_1" xmlns="http://www.w3.org/2000/svg" xmlns:xlink="http://www.w3.org/1999/xlink" x="0px" y="0px"
	 width="500px" height="82.4px" viewBox="0 0 500 82.4" style="enable-background:new 0 0 500 82.4;" xml:space="preserve">
<style type="text/css">
	.st0{fill:#E30613;}
	.st1{fill:#4A4745;}
	.st2{fill:#FFFFFF;}
</style>
<g>
	<path class="st0" d="M489.7,0H389.4l32.1,32.1l-32.1,32.1h100.3c5.7,0,10.3-4.6,10.3-10.3V10.3C500,4.7,495.4,0,489.7,0"/>
	<polyline class="st1" points="348,0 380.1,32.1 348,64.2 373.9,64.2 406,32.1 373.9,0 348,0 	"/>
	<path class="st2" d="M481.2,34.5h-5.7V7.6h-14.5l-29.6,20.2v17h32.4l0,11.8h11.6l0-11.8h5.8V34.5 M463.8,34.5h-23l23-16.2V34.5z"/>
	<polyline class="st0" points="106.3,20.7 116.2,0 9.9,0 0,20.7 106.3,20.7 	"/>
	<polyline class="st0" points="38.3,30.9 67.4,30.9 42.8,82.3 13.6,82.3 38.3,30.9 	"/>
	<path class="st0" d="M87.6,82.3l10-21.1h74.8l6.2-12c0,0-40,0-45,0c-6.1,0-19.8,0.4-23.2-6.3c-2.2-4.5,2.1-12.1,2.1-12.1
		s78.3,0,83.7,0c5.3,0,9.8,1.1,12.3,4.3c2.4,3,2.2,7.2-1.4,14.1c-2,3.9-7.4,15.9-8.6,18.5c-1.3,2.5-3.9,6.9-10.6,10.1
		c-6.7,3.1-12.2,4.5-21,4.5C158,82.3,87.6,82.3,87.6,82.3"/>
	<path class="st0" d="M117.2,20.7c0,0,4.2-11.2,13.6-16.2c9-4.7,27.3-4.5,28.9-4.5h69.5l-9.8,20.7H117.2"/>
	<g>
		<path class="st0" d="M233.7,20.7L243,0h65.6c0,0,26.6-1.5,31.4,20.7c2.2,10-2.6,18.4-2.7,18.7c-0.2,0.3-20.4,42.9-20.4,42.9h-29.3
			l22.7-46.9c0,0,3.5-5.6,1.1-10.4c-2.3-4.8-9.3-4.4-9.9-4.4C300.9,20.7,233.7,20.7,233.7,20.7"/>
	</g>
	<polyline class="st0" points="229,30.9 258.1,30.9 233.5,82.3 204.4,82.3 229,30.9 	"/>
</g>
</svg>
