<?xml version="1.0" encoding="UTF-8" standalone="no"?>
<!-- Created with Inkscape (http://www.inkscape.org/) -->

<svg
   width="204.02049mm"
   height="101.80622mm"
   viewBox="0 0 204.02049 101.80622"
   version="1.1"
   id="svg5"
   inkscape:version="1.1.2 (b8e25be833, 2022-02-05)"
   sodipodi:docname="TVOntario 2022.svg"
   xmlns:inkscape="http://www.inkscape.org/namespaces/inkscape"
   xmlns:sodipodi="http://sodipodi.sourceforge.net/DTD/sodipodi-0.dtd"
   xmlns="http://www.w3.org/2000/svg"
   xmlns:svg="http://www.w3.org/2000/svg">
  <sodipodi:namedview
     id="namedview7"
     pagecolor="#ffffff"
     bordercolor="#666666"
     borderopacity="1.0"
     inkscape:pageshadow="2"
     inkscape:pageopacity="0.0"
     inkscape:pagecheckerboard="0"
     inkscape:document-units="mm"
     showgrid="false"
     inkscape:zoom="0.64052329"
     inkscape:cx="422.31095"
     inkscape:cy="251.35698"
     inkscape:window-width="1920"
     inkscape:window-height="1017"
     inkscape:window-x="-8"
     inkscape:window-y="-8"
     inkscape:window-maximized="1"
     inkscape:current-layer="layer1" />
  <defs
     id="defs2" />
  <g
     inkscape:label="Layer 1"
     inkscape:groupmode="layer"
     id="layer1"
     transform="translate(6.4825978,-16.145765)">
    <g
       id="g864"
       transform="matrix(2.7795708,0,0,2.7795708,-6.4825978,-36.31419)"
       style="fill:#e7131a;fill-opacity:1">
      <g
         id="g846"
         style="fill:#e7131a;fill-opacity:1">
        <g
           id="g844"
           style="fill:#e7131a;fill-opacity:1">
          <path
             class="st1"
             d="m 18.7,49 c 0.3,0 0.5,0.3 0.4,0.6 l -2,5.1 c -0.2,0.3 -0.5,0.4 -0.7,0.4 H 15.5 C 4.2,55.4 4,48 4,43.9 v -9 C 4,34.7 3.8,34.5 3.6,34.5 H 0.4 C 0.2,34.5 0,34.3 0,34.1 V 28.8 C 0,28.6 0.2,28.4 0.4,28.4 H 3.6 C 3.8,28.4 4,28.2 4,28 v -4.7 c 0,-1.2 0.7,-1.8 1.2,-2 l 5,-2.4 c 0.2,-0.1 0.5,0.1 0.5,0.3 V 28 c 0,0.2 0.2,0.4 0.4,0.4 h 5.5 c 0.2,0 0.3,0.1 0.3,0.2 L 19,34 c 0.1,0.2 -0.1,0.5 -0.3,0.5 H 11 c -0.2,0 -0.4,0.2 -0.4,0.4 v 8.8 c 0,0.8 -0.2,3 1.4,4.4 2.2,1.9 6.7,0.9 6.7,0.9 z"
             id="path838"
             style="fill:#e7131a;fill-opacity:1" />
          <path
             class="st1"
             d="M 38.8,29.9 33.6,44 c -0.1,0.3 -0.5,0.3 -0.7,0 L 27.7,29.9 c -0.3,-0.8 -1.2,-1.4 -2.2,-1.4 h -5.3 c -0.3,0 -0.4,0.3 -0.3,0.5 l 10.3,25.9 c 0.1,0.1 0.2,0.2 0.3,0.2 h 5.3 c 0.2,0 0.3,-0.1 0.3,-0.2 L 46.5,29 c 0.1,-0.2 -0.1,-0.5 -0.3,-0.5 H 41 c -0.9,0 -1.8,0.5 -2.2,1.4 z"
             id="path840"
             style="fill:#e7131a;fill-opacity:1" />
          <path
             class="st1"
             d="m 73.4,41.8 c 0,7.6 -6.2,13.7 -13.9,13.7 -7.7,0 -13.9,-6.1 -13.9,-13.7 0,-7.6 6.2,-13.7 13.9,-13.7 7.7,0 13.9,6.2 13.9,13.7 z m -13.9,-7 c -3.8,0 -6.7,3.3 -6.7,7 0,3.7 2.9,7 6.7,7 3.8,0 6.7,-3.3 6.7,-7 0,-3.7 -2.9,-7 -6.7,-7 z"
             id="path842"
             style="fill:#e7131a;fill-opacity:1" />
        </g>
      </g>
    </g>
  </g>
  <style
     type="text/css"
     id="style824"> .st0{fill:#C83AA2;} .st1{fill:#E7131A;} .st2{fill:#041652;} </style>
</svg>
