<?xml version="1.0" encoding="UTF-8"?>
<svg id="Calque_1" data-name="Calque 1" xmlns="http://www.w3.org/2000/svg" xmlns:xlink="http://www.w3.org/1999/xlink" viewBox="0 0 307.9 145.88">
  <defs>
    <style>
      .cls-1 {
        fill: url(#Dégradé_sans_nom_740);
      }

      .cls-2 {
        fill: #fff;
      }

      .cls-3 {
        fill: #a046c1;
      }
    </style>
    <linearGradient id="Dégradé_sans_nom_740" data-name="Dégradé sans nom 740" x1="154.26" y1="53.89" x2="176.46" y2="53.89" gradientUnits="userSpaceOnUse">
      <stop offset="0" stop-color="#5e88c3"/>
      <stop offset="0" stop-color="#99529b"/>
      <stop offset="1" stop-color="#532b86"/>
    </linearGradient>
  </defs>
  <g>
    <g>
      <path class="cls-2" d="M193.7,91.95v-33.92h5.9v15.22c.55-.97,1.42-1.7,2.59-2.19,1.17-.5,2.51-.74,4.02-.74,2.84,0,5.09.79,6.74,2.36,1.66,1.58,2.49,3.69,2.49,6.34v12.94h-5.9v-11.38c0-1.46-.4-2.6-1.19-3.43-.79-.83-1.95-1.24-3.48-1.24-.9,0-1.75.17-2.52.51-.78.34-1.41.87-1.9,1.6-.49.73-.77,1.67-.85,2.83v11.11h-5.9Z"/>
      <path class="cls-2" d="M59.23,92.38c-2,0-3.76-.46-5.28-1.39-1.53-.93-2.72-2.22-3.57-3.88-.85-1.66-1.28-3.58-1.28-5.76s.43-4.12,1.28-5.78c.85-1.66,2.04-2.95,3.57-3.88,1.53-.93,3.29-1.39,5.28-1.39,1.83,0,3.36.41,4.58,1.24,1.22.83,2.13,2.06,2.73,3.7.6,1.64.9,3.68.9,6.11s-.3,4.47-.9,6.11c-.6,1.64-1.51,2.87-2.73,3.69-1.22.82-2.74,1.23-4.58,1.23ZM60.27,86.83c1.57,0,2.83-.5,3.79-1.51.95-1,1.43-2.33,1.43-3.97,0-1.12-.22-2.08-.65-2.9s-1.04-1.45-1.82-1.9c-.78-.45-1.7-.68-2.75-.68s-1.97.23-2.76.68c-.79.45-1.39,1.09-1.83,1.91-.43.82-.65,1.79-.65,2.89s.22,2.05.65,2.87c.43.82,1.05,1.46,1.84,1.92.79.46,1.71.69,2.75.69ZM65.48,91.95v-21.17h5.84v21.17h-5.84Z"/>
      <path class="cls-2" d="M81.49,91.95v-15.6h-8.16v-5.57h8.16v-11.68h5.9v11.68h8.16v5.57h-8.16v15.6h-5.9Z"/>
      <path class="cls-2" d="M108.26,92.38c-2.32,0-4.34-.46-6.06-1.37s-3.05-2.19-3.99-3.82c-.94-1.63-1.41-3.52-1.41-5.65,0-2.26.5-4.23,1.51-5.92,1-1.69,2.37-3,4.1-3.94,1.73-.94,3.66-1.4,5.79-1.4,2.26,0,4.22.49,5.87,1.48,1.65.99,2.93,2.33,3.83,4.03.9,1.7,1.36,3.63,1.36,5.77v1.53h-18.08v-3.99h14.5l-1.83.94c-.3-1.41-.92-2.53-1.86-3.38s-2.22-1.27-3.82-1.27c-1.17,0-2.19.25-3.07.74-.88.5-1.56,1.2-2.04,2.1-.48.9-.73,1.98-.73,3.22s.24,2.26.73,3.14c.48.87,1.16,1.54,2.04,2.01.88.46,1.91.7,3.11.7,1.12,0,2.08-.21,2.88-.62s1.34-1.02,1.6-1.81h6.46c-.72,2.46-2.04,4.33-3.97,5.61-1.93,1.28-4.23,1.92-6.89,1.92Z"/>
      <path class="cls-2" d="M131.71,92.38c-2,0-3.76-.46-5.28-1.39s-2.72-2.22-3.57-3.88c-.85-1.66-1.28-3.58-1.28-5.76s.43-4.12,1.28-5.78c.85-1.66,2.04-2.95,3.57-3.88s3.29-1.39,5.28-1.39c1.83,0,3.36.41,4.58,1.24,1.22.83,2.13,2.06,2.73,3.7.6,1.64.9,3.68.9,6.11s-.3,4.47-.9,6.11c-.6,1.64-1.51,2.87-2.73,3.69-1.22.82-2.74,1.23-4.58,1.23ZM132.75,86.83c1.57,0,2.83-.5,3.79-1.51.95-1,1.43-2.33,1.43-3.97,0-1.12-.22-2.08-.65-2.9s-1.04-1.45-1.82-1.9c-.78-.45-1.7-.68-2.75-.68s-1.97.23-2.76.68c-.79.45-1.39,1.09-1.83,1.91-.43.82-.65,1.79-.65,2.89s.22,2.05.65,2.87c.43.82,1.05,1.46,1.84,1.92.79.46,1.71.69,2.75.69ZM137.96,91.95v-21.17h5.84v21.17h-5.84Z"/>
      <path class="cls-2" d="M154.81,91.95v-15.6h-8.16v-5.57h14.05v15.6h8.16v5.57h-14.05Z"/>
      <path class="cls-2" d="M181.4,92.38c-1.97,0-3.75-.3-5.33-.91-1.58-.61-2.85-1.48-3.8-2.62s-1.48-2.5-1.56-4.08h6.46c.14.94.59,1.64,1.36,2.08.77.45,1.75.67,2.96.67.9,0,1.68-.16,2.33-.47.65-.31.97-.78.97-1.39,0-.54-.24-.92-.72-1.15-.48-.23-.98-.38-1.51-.47l-4.28-.7c-2.1-.34-3.73-1.07-4.91-2.19-1.17-1.12-1.76-2.52-1.76-4.17,0-2.02.84-3.64,2.53-4.87,1.69-1.22,3.86-1.84,6.53-1.84,1.75,0,3.34.28,4.77.83s2.6,1.35,3.49,2.4c.89,1.05,1.39,2.31,1.49,3.8h-6.46c-.09-.72-.47-1.26-1.14-1.62-.67-.36-1.44-.55-2.31-.55s-1.54.16-2.08.47c-.55.31-.82.73-.82,1.24,0,.39.18.72.54,1,.36.28.91.48,1.67.62l4.28.75c2.25.39,3.93,1.11,5.04,2.17,1.11,1.05,1.67,2.39,1.67,3.99,0,2.12-.86,3.82-2.59,5.09s-4,1.91-6.81,1.91Z"/>
    </g>
    <path class="cls-1" d="M154.26,43.24l.11,21.33c0,1.78,1.96,2.87,3.48,1.95l17.51-10.61c1.47-.89,1.47-3.02,0-3.91l-17.62-10.72c-1.53-.93-3.49.18-3.48,1.97Z"/>
  </g>
  <g>
    <path class="cls-3" d="M237.91,91.95v-16.78h-8.58v-4.8h8.58v-11.88h5.07v11.88h8.58v4.8h-8.58v16.78h-5.07Z"/>
    <path class="cls-3" d="M262.18,91.95l-7.68-21.58h5.76l5.59,17.43-.83-.65h2l-.81.65,5.59-17.43h5.76l-7.68,21.58h-7.7Z"/>
  </g>
</svg>