<?xml version="1.0" encoding="UTF-8" standalone="no"?>
<svg
   width="100%"
   height="100%"
   viewBox="0 0 677 130"
   version="1.1"
   xml:space="preserve"
   style="fill-rule:evenodd;clip-rule:evenodd;stroke-linejoin:round;stroke-miterlimit:2;"
   id="svg20"
   sodipodi:docname="Orange_Sport_4.svg"
   inkscape:version="1.4.2 (ebf0e940d0, 2025-05-08)"
   xmlns:inkscape="http://www.inkscape.org/namespaces/inkscape"
   xmlns:sodipodi="http://sodipodi.sourceforge.net/DTD/sodipodi-0.dtd"
   xmlns="http://www.w3.org/2000/svg"
   xmlns:svg="http://www.w3.org/2000/svg"><defs
   id="defs20" /><sodipodi:namedview
   id="namedview20"
   pagecolor="#ffffff"
   bordercolor="#000000"
   borderopacity="0.25"
   inkscape:showpageshadow="2"
   inkscape:pageopacity="0.0"
   inkscape:pagecheckerboard="0"
   inkscape:deskcolor="#d1d1d1"
   inkscape:zoom="3.5612999"
   inkscape:cx="338.5"
   inkscape:cy="65.004355"
   inkscape:window-width="2560"
   inkscape:window-height="1360"
   inkscape:window-x="0"
   inkscape:window-y="0"
   inkscape:window-maximized="1"
   inkscape:current-layer="g18" />
    <g
   transform="matrix(1,0,0,1,-1015.3,-588.059)"
   id="g20">
        <g
   transform="matrix(0.560139,0,0,0.560139,817.348,350.663)"
   id="g19">
            <g
   transform="matrix(1.09229,0,0,1.09229,47.5253,-210.032)"
   id="g4">
                <g
   transform="matrix(0.950156,0,0,0.950156,83.59,16.4911)"
   id="g1">
                    <rect
   x="1148.55"
   y="593.376"
   width="222.516"
   height="222.516"
   style="fill:rgb(255,121,0);"
   id="rect1" />
                </g>
                <g
   transform="matrix(0.861492,0,0,0.861492,913.504,359.667)"
   id="g3">
                    <g
   transform="matrix(209.031,0,0,209.031,368.01,451.964)"
   id="g2">
                        <path
   d="M0.016,-0.162L0.016,-0.292L0.32,-0.7L0.447,-0.7L0.447,-0.279L0.54,-0.279L0.54,-0.162L0.447,-0.162L0.447,-0L0.312,-0L0.312,-0.162L0.016,-0.162ZM0.128,-0.279L0.312,-0.279L0.312,-0.522L0.309,-0.522L0.128,-0.279Z"
   style="fill:white;fill-rule:nonzero;"
   id="path1" />
                    </g>
                </g>
            </g>
            <g
   transform="matrix(1.49384,0,0,1.49384,-391.471,-484.777)"
   id="g18">
                <g
   transform="matrix(0.461995,0,0,0.461995,324.945,512.285)"
   id="g11">
                    <g
   transform="matrix(209.031,0,0,209.031,368.01,451.964)"
   id="g5">
                        <path
   d="M0.038,-0.354C0.038,-0.463 0.07,-0.553 0.133,-0.624C0.196,-0.695 0.282,-0.731 0.389,-0.731C0.496,-0.731 0.582,-0.695 0.645,-0.624C0.708,-0.553 0.74,-0.463 0.74,-0.354C0.74,-0.248 0.708,-0.16 0.645,-0.089C0.582,-0.018 0.496,0.017 0.389,0.017C0.282,0.017 0.196,-0.018 0.133,-0.089C0.07,-0.16 0.038,-0.248 0.038,-0.354ZM0.195,-0.354C0.195,-0.287 0.211,-0.231 0.243,-0.185C0.275,-0.138 0.324,-0.115 0.389,-0.115C0.454,-0.115 0.503,-0.138 0.535,-0.185C0.567,-0.231 0.583,-0.287 0.583,-0.354C0.583,-0.398 0.577,-0.438 0.565,-0.473C0.552,-0.509 0.531,-0.539 0.501,-0.563C0.471,-0.587 0.434,-0.599 0.389,-0.599C0.344,-0.599 0.307,-0.587 0.277,-0.563C0.247,-0.539 0.226,-0.509 0.214,-0.473C0.201,-0.438 0.195,-0.398 0.195,-0.354Z"
   style="fill:rgb(255,121,0);fill-rule:nonzero;"
   id="path4" />
                    </g>
                    <g
   transform="matrix(209.031,0,0,209.031,530.636,451.964)"
   id="g6">
                        <path
   d="M0.054,-0L0.054,-0.517L0.189,-0.517L0.189,-0.421L0.191,-0.421C0.204,-0.454 0.226,-0.48 0.257,-0.5C0.288,-0.521 0.321,-0.531 0.356,-0.531C0.365,-0.531 0.376,-0.529 0.387,-0.526L0.387,-0.394C0.372,-0.397 0.355,-0.399 0.336,-0.399C0.243,-0.399 0.196,-0.344 0.196,-0.233L0.196,-0L0.054,-0Z"
   style="fill:rgb(255,121,0);fill-rule:nonzero;"
   id="path5" />
                    </g>
                    <g
   transform="matrix(209.031,0,0,209.031,611.949,451.964)"
   id="g7">
                        <path
   d="M0.19,-0.358L0.048,-0.358C0.052,-0.419 0.077,-0.463 0.123,-0.49C0.169,-0.517 0.225,-0.531 0.291,-0.531C0.442,-0.531 0.518,-0.482 0.518,-0.384L0.518,-0.115C0.518,-0.058 0.524,-0.019 0.536,-0L0.392,-0C0.386,-0.019 0.383,-0.035 0.382,-0.05C0.341,-0.007 0.283,0.014 0.208,0.014C0.156,0.014 0.114,0.001 0.081,-0.025C0.048,-0.052 0.032,-0.09 0.032,-0.141C0.032,-0.166 0.037,-0.189 0.046,-0.207C0.055,-0.227 0.065,-0.241 0.078,-0.252C0.09,-0.263 0.107,-0.272 0.128,-0.28C0.149,-0.287 0.168,-0.292 0.184,-0.295C0.199,-0.298 0.219,-0.3 0.244,-0.303C0.295,-0.308 0.329,-0.315 0.348,-0.323C0.367,-0.33 0.376,-0.345 0.376,-0.366C0.376,-0.393 0.368,-0.412 0.352,-0.422C0.336,-0.431 0.313,-0.436 0.284,-0.436C0.226,-0.436 0.195,-0.41 0.19,-0.358ZM0.376,-0.2L0.376,-0.253C0.365,-0.242 0.336,-0.234 0.29,-0.228C0.271,-0.225 0.257,-0.223 0.246,-0.221C0.235,-0.218 0.224,-0.214 0.211,-0.209C0.198,-0.203 0.189,-0.195 0.183,-0.185C0.177,-0.175 0.174,-0.162 0.174,-0.147C0.174,-0.103 0.203,-0.081 0.261,-0.081C0.338,-0.081 0.376,-0.121 0.376,-0.2Z"
   style="fill:rgb(255,121,0);fill-rule:nonzero;"
   id="path6" />
                    </g>
                    <g
   transform="matrix(209.031,0,0,209.031,731.933,451.964)"
   id="g8">
                        <path
   d="M0.054,-0L0.054,-0.517L0.189,-0.517L0.189,-0.445L0.192,-0.445C0.209,-0.473 0.232,-0.494 0.261,-0.509C0.289,-0.524 0.319,-0.531 0.35,-0.531C0.421,-0.531 0.471,-0.513 0.498,-0.477C0.525,-0.441 0.539,-0.388 0.539,-0.318L0.539,-0L0.397,-0L0.397,-0.292C0.397,-0.335 0.39,-0.367 0.376,-0.388C0.362,-0.409 0.339,-0.419 0.306,-0.419C0.267,-0.419 0.239,-0.407 0.222,-0.384C0.205,-0.361 0.196,-0.323 0.196,-0.271L0.196,-0L0.054,-0Z"
   style="fill:rgb(255,121,0);fill-rule:nonzero;"
   id="path7" />
                    </g>
                    <g
   transform="matrix(209.031,0,0,209.031,855.888,451.964)"
   id="g9">
                        <path
   d="M0.551,-0.517L0.551,-0.033C0.551,-0.013 0.549,0.006 0.546,0.024C0.543,0.042 0.536,0.062 0.525,0.084C0.514,0.106 0.499,0.125 0.48,0.14C0.461,0.156 0.435,0.169 0.402,0.18C0.368,0.191 0.328,0.196 0.283,0.196C0.226,0.196 0.174,0.182 0.129,0.153C0.084,0.125 0.059,0.084 0.055,0.03L0.196,0.03C0.207,0.077 0.243,0.101 0.302,0.101C0.34,0.101 0.369,0.089 0.388,0.066C0.407,0.043 0.417,0.012 0.416,-0.027L0.416,-0.095L0.414,-0.095C0.399,-0.068 0.378,-0.048 0.35,-0.035C0.323,-0.022 0.292,-0.015 0.259,-0.015C0.185,-0.015 0.13,-0.039 0.093,-0.087C0.056,-0.136 0.038,-0.198 0.038,-0.275C0.038,-0.346 0.058,-0.406 0.098,-0.456C0.137,-0.506 0.191,-0.531 0.26,-0.531C0.331,-0.531 0.382,-0.503 0.414,-0.448L0.416,-0.448L0.416,-0.517L0.551,-0.517ZM0.295,-0.122C0.334,-0.122 0.364,-0.136 0.385,-0.164C0.406,-0.191 0.416,-0.225 0.416,-0.265C0.416,-0.312 0.406,-0.35 0.388,-0.38C0.369,-0.409 0.338,-0.424 0.295,-0.424C0.257,-0.424 0.228,-0.41 0.209,-0.382C0.19,-0.354 0.18,-0.319 0.18,-0.277C0.18,-0.25 0.183,-0.225 0.19,-0.203C0.197,-0.181 0.209,-0.162 0.227,-0.146C0.245,-0.13 0.268,-0.122 0.295,-0.122Z"
   style="fill:rgb(255,121,0);fill-rule:nonzero;"
   id="path8" />
                    </g>
                    <g
   transform="matrix(209.031,0,0,209.031,983.605,451.964)"
   id="g10">
                        <path
   d="M0.544,-0.224L0.171,-0.224C0.175,-0.137 0.217,-0.093 0.298,-0.093C0.325,-0.093 0.35,-0.1 0.371,-0.114C0.392,-0.127 0.405,-0.143 0.41,-0.16L0.535,-0.16C0.497,-0.044 0.416,0.014 0.293,0.014C0.212,0.014 0.148,-0.011 0.101,-0.062C0.053,-0.112 0.029,-0.177 0.029,-0.258C0.029,-0.337 0.054,-0.402 0.102,-0.454C0.152,-0.505 0.215,-0.531 0.293,-0.531C0.377,-0.531 0.441,-0.501 0.486,-0.441C0.531,-0.381 0.55,-0.309 0.544,-0.224ZM0.171,-0.314L0.402,-0.314C0.395,-0.351 0.383,-0.379 0.366,-0.397C0.348,-0.415 0.322,-0.424 0.289,-0.424C0.248,-0.424 0.219,-0.412 0.201,-0.39C0.183,-0.367 0.173,-0.341 0.171,-0.314Z"
   style="fill:rgb(255,121,0);fill-rule:nonzero;"
   id="path9" />
                    </g>
                </g>
                <g
   transform="matrix(0.463878,0,0,0.463878,688.335,511.722)"
   id="g17"
   style="fill:#ffffff">
                    <g
   transform="matrix(209.031,0,0,209.031,368.01,451.964)"
   id="g12"
   style="fill:#ffffff">
                        <path
   d="M0.024,-0.237L0.176,-0.237C0.176,-0.192 0.191,-0.159 0.221,-0.138C0.25,-0.116 0.288,-0.105 0.334,-0.105C0.356,-0.105 0.377,-0.107 0.396,-0.112C0.414,-0.116 0.432,-0.125 0.449,-0.139C0.465,-0.153 0.473,-0.171 0.473,-0.194C0.473,-0.207 0.47,-0.218 0.464,-0.228C0.457,-0.238 0.45,-0.246 0.442,-0.253C0.434,-0.259 0.422,-0.265 0.406,-0.272C0.389,-0.278 0.375,-0.282 0.363,-0.285C0.351,-0.289 0.334,-0.293 0.312,-0.299C0.29,-0.304 0.273,-0.309 0.261,-0.312C0.231,-0.319 0.205,-0.328 0.183,-0.337C0.16,-0.345 0.138,-0.358 0.116,-0.373C0.094,-0.388 0.077,-0.408 0.066,-0.432C0.054,-0.456 0.048,-0.484 0.048,-0.515C0.048,-0.584 0.075,-0.637 0.128,-0.675C0.181,-0.712 0.244,-0.731 0.315,-0.731C0.368,-0.731 0.415,-0.724 0.456,-0.709C0.497,-0.694 0.532,-0.669 0.56,-0.633C0.587,-0.598 0.601,-0.554 0.601,-0.501L0.449,-0.501C0.445,-0.573 0.398,-0.609 0.308,-0.609C0.279,-0.609 0.254,-0.602 0.233,-0.589C0.211,-0.576 0.2,-0.555 0.2,-0.528C0.2,-0.502 0.212,-0.484 0.235,-0.472C0.258,-0.462 0.318,-0.444 0.413,-0.42C0.554,-0.388 0.625,-0.319 0.625,-0.212C0.625,-0.144 0.599,-0.089 0.548,-0.047C0.496,-0.004 0.423,0.017 0.328,0.017C0.242,0.017 0.17,-0.005 0.111,-0.048C0.051,-0.091 0.023,-0.154 0.024,-0.237Z"
   style="fill-rule:nonzero;fill:#ffffff"
   id="path11" />
                    </g>
                    <g
   transform="matrix(209.031,0,0,209.031,503.671,451.964)"
   id="g13"
   style="fill:#ffffff">
                        <path
   d="M0.054,0.182L0.054,-0.517L0.189,-0.517L0.189,-0.451L0.191,-0.451C0.224,-0.504 0.276,-0.531 0.345,-0.531C0.422,-0.531 0.48,-0.504 0.52,-0.452C0.56,-0.399 0.58,-0.332 0.58,-0.253C0.58,-0.179 0.56,-0.116 0.521,-0.064C0.481,-0.012 0.425,0.014 0.353,0.014C0.286,0.014 0.234,-0.012 0.198,-0.064L0.196,-0.064L0.196,0.182L0.054,0.182ZM0.315,-0.093C0.358,-0.093 0.39,-0.109 0.409,-0.14C0.428,-0.171 0.438,-0.21 0.438,-0.257C0.438,-0.304 0.428,-0.343 0.407,-0.376C0.387,-0.408 0.356,-0.424 0.314,-0.424C0.271,-0.424 0.239,-0.408 0.22,-0.376C0.201,-0.344 0.191,-0.304 0.191,-0.257C0.191,-0.21 0.201,-0.171 0.221,-0.14C0.241,-0.109 0.272,-0.093 0.315,-0.093Z"
   style="fill-rule:nonzero;fill:#ffffff"
   id="path12" />
                    </g>
                    <g
   transform="matrix(209.031,0,0,209.031,631.389,451.964)"
   id="g14"
   style="fill:#ffffff">
                        <path
   d="M0.038,-0.258C0.038,-0.341 0.062,-0.407 0.111,-0.457C0.16,-0.506 0.224,-0.531 0.305,-0.531C0.386,-0.531 0.451,-0.506 0.5,-0.457C0.549,-0.407 0.573,-0.341 0.573,-0.258C0.573,-0.176 0.549,-0.11 0.5,-0.061C0.451,-0.011 0.386,0.014 0.305,0.014C0.224,0.014 0.16,-0.011 0.111,-0.061C0.062,-0.11 0.038,-0.176 0.038,-0.258ZM0.21,-0.377C0.19,-0.345 0.18,-0.305 0.18,-0.258C0.18,-0.211 0.19,-0.171 0.21,-0.14C0.229,-0.109 0.261,-0.093 0.305,-0.093C0.35,-0.093 0.382,-0.109 0.402,-0.14C0.421,-0.171 0.431,-0.211 0.431,-0.258C0.431,-0.305 0.421,-0.345 0.402,-0.377C0.382,-0.408 0.35,-0.424 0.305,-0.424C0.261,-0.424 0.229,-0.408 0.21,-0.377Z"
   style="fill-rule:nonzero;fill:#ffffff"
   id="path13" />
                    </g>
                    <g
   transform="matrix(209.031,0,0,209.031,759.107,451.964)"
   id="g15"
   style="fill:#ffffff">
                        <path
   d="M0.054,-0L0.054,-0.517L0.189,-0.517L0.189,-0.421L0.191,-0.421C0.204,-0.454 0.226,-0.48 0.257,-0.5C0.288,-0.521 0.321,-0.531 0.356,-0.531C0.365,-0.531 0.376,-0.529 0.387,-0.526L0.387,-0.394C0.372,-0.397 0.355,-0.399 0.336,-0.399C0.243,-0.399 0.196,-0.344 0.196,-0.233L0.196,-0L0.054,-0Z"
   style="fill-rule:nonzero;fill:#ffffff"
   id="path14" />
                    </g>
                    <g
   transform="matrix(209.031,0,0,209.031,840.419,451.964)"
   id="g16"
   style="fill:#ffffff">
                        <path
   d="M0.234,-0.672L0.234,-0.517L0.338,-0.517L0.338,-0.422L0.234,-0.422L0.234,-0.166C0.234,-0.142 0.238,-0.126 0.246,-0.118C0.254,-0.11 0.27,-0.106 0.294,-0.106C0.312,-0.106 0.327,-0.107 0.338,-0.11L0.338,0.001C0.318,0.004 0.29,0.006 0.255,0.006C0.231,0.006 0.21,0.004 0.192,0.001C0.174,-0.002 0.157,-0.008 0.141,-0.017C0.125,-0.025 0.113,-0.037 0.105,-0.054C0.096,-0.071 0.092,-0.092 0.092,-0.117L0.092,-0.422L0.006,-0.422L0.006,-0.517L0.092,-0.517L0.092,-0.672L0.234,-0.672Z"
   style="fill-rule:nonzero;fill:#ffffff"
   id="path15" />
                    </g>
                </g>
            </g>
        </g>
    </g>
</svg>
