<?xml version="1.0" encoding="UTF-8"?>
<svg id="_Слой_1" xmlns="http://www.w3.org/2000/svg" version="1.1" viewBox="0 0 1351.3 300.8">
  <!-- Generator: Adobe Illustrator 30.0.0, SVG Export Plug-In . SVG Version: 2.1.1 Build 72)  -->
  <defs>
    <style>
      .st0 {
        fill: #5c2d91;
      }

      .st1 {
        fill: #e51f2b;
      }

      .st2 {
        fill: #fff;
      }

      .st3 {
        fill: #a6a6a5;
      }

      .st4 {
        fill: #1d1d1b;
      }
    </style>
  </defs>
  <path class="st1" d="M40.6,223.4l-14.2-3.5c-5-1.3-7.5-3.7-7.5-7s1.1-4.2,3.2-5.6c2.2-1.4,4.9-2.1,8.1-2.1,4.9,0,10.1,2.1,15.5,6.1,2.3,1.7,4.3,1.7,6-.1l5.2-5.4c1.8-1.8,1.6-3.8-.6-5.8-2.5-2.5-6.1-4.6-10.6-6.3-4.5-1.7-9.6-2.5-15.2-2.5-8.3,0-15.2,2.1-20.6,6.4-5.4,4.3-8.1,9.7-8.1,16.4s1.6,9.6,4.8,13.1c3.2,3.5,7.7,6,13.5,7.4l12.8,3.2c3.6.9,6.3,2,8,3.3s2.6,3.1,2.6,5.4-1.1,4-3.2,5.5c-2.1,1.6-5.1,2.3-8.9,2.3-6.7,0-12.6-2.5-17.8-7.6-1.8-1.8-3.6-2.1-5.4-.9l-6.8,5.3c-1.1,1-1.5,2.1-1.4,3.2.1,1.2.7,2.2,1.6,3.2,2.8,3,6.7,5.6,11.7,7.7,5,2.1,10.8,3.1,17.4,3.1,9.6,0,17-2.3,22.2-7,5.3-4.7,7.9-10.2,7.9-16.6,0-10.5-6.6-17.7-20.2-21.2"/>
  <path class="st1" d="M119.8,199.9c-4.6-4.8-11-7.2-19.1-7.2h-29.1c-.7,0-1.3.2-1.7.7-.4.5-.6,1-.6,1.6v69.5c0,.7.2,1.3.6,1.7.4.5,1,.7,1.7.7h11.2c.6,0,1.2-.2,1.7-.7s.7-1.1.7-1.7v-22.3h15.5c8.1,0,14.4-2.4,19-7.1,4.6-4.7,7-10.6,7-17.7s-2.3-12.7-6.9-17.5M107,225.3c-2.1,2-4.8,3-8.2,3.1h-13.7v-21.6h13.7c3.3,0,6,1,8.2,2.9,2.1,1.9,3.2,4.5,3.2,7.8s-1.1,5.8-3.2,7.8"/>
  <path class="st1" d="M198,202.4c-7.6-7.4-16.9-11.1-27.9-11.1s-20.4,3.7-28,11.2-11.4,16.6-11.4,27.4,3.8,20,11.4,27.4c7.6,7.5,16.9,11.2,28,11.2s20.3-3.7,27.9-11.1c7.6-7.4,11.4-16.6,11.4-27.5s-3.8-20.1-11.4-27.5M186.4,246.8c-4.3,4.6-9.8,6.9-16.3,6.9s-12-2.3-16.3-6.9c-4.3-4.6-6.5-10.3-6.5-17s2.2-12.4,6.5-17,9.8-6.9,16.3-6.9,12,2.3,16.3,6.9c4.3,4.6,6.5,10.2,6.5,17s-2.2,12.4-6.5,17"/>
  <path class="st1" d="M280.8,263.8l-17-27.1c3.6-1.2,6.6-3.1,9-5.7,2.4-2.6,4-5.2,4.8-7.7.8-2.6,1.2-5.1,1.2-7.8,0-6.5-2.3-11.9-7-16.2s-10.9-6.5-18.7-6.5h-33.3c-.7,0-1.3.3-1.7.8s-.6,1-.6,1.6v69.5c0,.7.2,1.3.6,1.7.4.5,1,.7,1.7.7h11.1c.7,0,1.3-.2,1.7-.7.5-.5.7-1.1.7-1.7v-25.3h14.2l15.3,25.3c1,1.6,2.3,2.4,4,2.4h12.3c.9,0,1.6-.3,1.9-1,.4-.9.3-1.6-.2-2.3M259,223.7c-2.1,1.9-4.8,2.8-8,2.8h-17.7v-19.7h17.9c3.2,0,5.8.9,7.9,2.6,2,1.7,3.1,4.1,3.1,7.1s-1.1,5.3-3.2,7.2"/>
  <path class="st1" d="M345.1,193.4c-.5-.5-1-.7-1.6-.7h-58.8c-.6,0-1.2.2-1.7.7s-.7,1-.7,1.8v9.8c0,.7.2,1.3.7,1.8s1,.7,1.7.7h21.2v57.2c0,.7.2,1.3.6,1.7.4.5,1,.7,1.7.7h11.6c.7,0,1.3-.2,1.7-.7.5-.5.7-1.1.7-1.7v-57.2h21.2c.6,0,1.2-.2,1.6-.7.5-.5.7-1.1.7-1.8v-9.8c0-.7-.2-1.3-.6-1.8"/>
  <path class="st2" d="M166.9,85.6l-22.7-9.5c-6.6-2.9-9.2-4.8-8.8-7.1.4-2.2,2.1-4.2,8.4-4.2h46.8c1.2,0,2.2-.8,2.5-2l3.6-17.2c.3-1.6-.9-3-2.5-3h-48.3c-22.9,0-32.2,12.4-35,25.3-3.6,16.3,9.5,23.9,18.8,27.8l24.9,10.1c6.1,2.5,7.1,4.7,6.4,7.2-.7,2.7-2.9,4.5-10.6,4.5h-48c-1.2,0-2.2.8-2.5,2l-3.6,17.2c-.3,1.6.9,3,2.5,3h51.6c23.7-.2,31.9-12.5,34.9-25.9,3.7-16.8-6.8-23.3-18.4-28.2"/>
  <path class="st2" d="M384.6,42.7h-22.1c-.7,0-1.4.3-1.9.9l-35.6,40.2-23.9-39.9c-.5-.8-1.3-1.2-2.2-1.2h-30.8c-.7,0-1.4.3-1.9.9l-41.5,47,28.8,48.1c.5.8,1.3,1.2,2.2,1.2h22.9c2,0,3.2-2.1,2.2-3.8l-27.3-45.5,28.6-32.4,28.4,47.5-13.3,62.7c-.3,1.6.9,3,2.5,3h18.8c1.2,0,2.2-.8,2.5-2l13.6-63.8,52-58.7c1.3-1.6.2-4.2-2-4.2"/>
  <path class="st2" d="M241,0h-19.5c-1.2,0-2.2.8-2.5,2l-28.7,134.8c-.3,1.6.9,3,2.5,3h19.5c1.2,0,2.2-.8,2.5-2L243.4,3c.3-1.5-.8-3-2.4-3"/>
  <path class="st2" d="M359.6,230.6c0-38.8,31.4-70.2,70.2-70.2s70.2,31.4,70.2,70.2-31.4,70.2-70.2,70.2-70.2-31.4-70.2-70.2"/>
  <path class="st4" d="M459.1,202.3c0,2.2-.5,4.2-1.4,6l-26.4,56.6c-.6,1.3-1.8,2-3.4,2h-15.3c-1.2,0-2-.4-2.4-1.3-.4-.8-.4-1.7.2-2.6l27.4-53.2h-31.6c-.8,0-1.4-.3-2-.8-.5-.5-.8-1.2-.8-1.9v-11.6c0-.7.3-1.3.8-1.9.5-.5,1.2-.8,2-.8h50.3c.8,0,1.4.2,1.9.7s.7,1.1.7,1.9v6.9h0Z"/>
  <g id="layer1">
    <path id="path28" class="st2" d="M1351.3,85.4v97c0,8.1-3.4,16.2-9.4,22.3-6.5,6.7-15.6,10.5-25.5,10.5h-680.3c-21.5,0-34.8-17.4-34.8-33.5v-96.3h750Z"/>
    <path id="path29" class="st0" d="M1313.6,163.9c0-11.1-9.6-18.3-24.6-18.3s-10.3-1.3-12.9-3.8c-2.1-2.1-2.1-4.4-2.1-4.5,0,0-.3-5.1,3.2-8.8,2.6-2.7,6.6-4.1,11.9-4.1s8.9,1.4,11.4,4.1c3.9,4.1,3.4,10,3.4,10.1,0,2.3,1.9,4.2,4.3,4.2s4.3-1.9,4.3-4.2c0-22.3-22.4-22.5-23.4-22.5h0c-22.8,0-23.5,19-23.5,21.1,0,6.3,5,17,23.6,17s10.8,1.3,13.4,4c2.2,2.2,2.4,4.7,2.3,5.8,0,1.1,0,5.1-3.1,8.2-2.7,2.7-6.9,4.1-12.5,4.1h0c-5.1,0-9-1.4-11.6-4.1-3-3.1-3.5-7.2-3.4-9.2,0-2.3-1.9-4.2-4.3-4.2s-4.3,1.9-4.3,4.2c-.1,5.7,2,11,5.9,15,4.4,4.4,10.6,6.8,17.6,6.8,18.2,0,24.6-11.2,24.6-20.8M1260.6,121.7c0-2.4-2-4.3-4.4-4.3h-39.3c-2.4,0-4.4,1.9-4.4,4.3s2,4.3,4.4,4.3h15.2v53.1c0,2.4,2,4.3,4.4,4.3s4.4-1.9,4.4-4.3v-53.1h15.2c2.4,0,4.4-1.9,4.4-4.3M1192.6,160.8c9-3.5,15-12,15-21.5s-10.6-23.2-23.7-23.2-23.6,9.6-23.6,23.2v39.8c0,2.4,2,4.3,4.4,4.3s4.4-1.9,4.4-4.3v-16.7h14l11.7,18.6c.6,1,1.5,1.7,2.7,2,1.2.3,2.4.2,3.4-.4,1-.6,1.8-1.5,2.1-2.7.3-1.1.2-2.3-.4-3.3l-9.9-15.9h0ZM1153.6,150.4c0-18.9-15.7-34.3-35.1-34.3s-35.1,15.4-35.1,34.3,15.7,34.3,35.1,34.3,35.1-15.4,35.1-34.3M1076.6,139.1c0-12.7-10.6-23.1-23.5-23.1s-23.5,9.5-23.5,23.1v40c0,2.4,2,4.3,4.4,4.3s4.4-1.9,4.4-4.3v-16.9h14.7c13,0,23.5-10.3,23.5-23.1M1020.6,163.9c0-11.1-9.6-18.3-24.6-18.3s-10.3-1.3-12.9-3.8c-2.1-2.1-2.2-4.4-2.2-4.5s-.3-5.1,3.2-8.8c2.6-2.7,6.6-4.1,11.9-4.1s8.9,1.4,11.4,4.1c3.9,4.1,3.4,10,3.4,10.1,0,2.3,1.9,4.2,4.3,4.2s4.3-1.9,4.3-4.2c0-22.3-22.5-22.5-23.4-22.5h-.1c-22.8,0-23.5,19-23.5,21.1,0,6.3,5,17,23.6,17s10.8,1.3,13.4,4c2.2,2.2,2.4,4.7,2.3,5.8,0,1.1,0,5.1-3.1,8.2-2.7,2.7-6.9,4.1-12.5,4.1h0c-5.1,0-9-1.4-11.6-4.1-3-3.1-3.6-7.2-3.4-9.2,0-2.3-1.9-4.2-4.3-4.2s-4.3,1.9-4.3,4.2c-.1,5.7,2,11,5.9,15,4.4,4.4,10.6,6.8,17.6,6.8,18.1,0,24.6-11.2,24.6-20.8M935.9,90.2h-329.7v87.9c0,8,3.4,16,9.2,22,6.4,6.6,15.3,10.2,25.1,10.2h261c21.2,0,34.4-16.5,34.4-32.3v-87.8ZM1351.3,85.4v97c0,8.1-3.4,16.2-9.4,22.3-6.5,6.7-15.6,10.5-25.5,10.5h-680.3c-21.5,0-34.8-17.4-34.8-33.5v-96.3h750ZM1183.9,124.4c-8.8,0-14.7,6-14.7,14.8v14.7h14.7c8.3,0,15.1-6.6,15.1-14.7s-6.8-14.8-15.1-14.8M1053,124.4c-8.8,0-14.7,5.9-14.7,14.7v14.6h14.7c8.3,0,15-6.6,15-14.6s-6.7-14.7-15-14.7M1118.5,124.4c-14.6,0-26.6,11.7-26.6,26s11.9,26,26.6,26,26.6-11.7,26.6-26-11.9-26-26.6-26M643.9,150.7c0,15,12.4,27.2,27.7,27.2s27.7-12.2,27.7-27.2-12.4-27.2-27.7-27.2-27.7,12.2-27.7,27.2M637.2,151.9v-54.2c0-1.8,1.5-3.2,3.3-3.2s3.3,1.4,3.3,3.2v33.1c3.4-4.4,12.4-13.6,27.8-13.6s34.4,12.8,34.4,33.5-13.8,34-34.4,34-34.4-17-34.4-32.7M791.6,184.6h0c3.6,0,6.4-2.9,6.6-5.4h0v-56.5c-.2-2.6-3-5.4-6.6-5.4h0c-3.7,0-6.4,2.8-6.6,5.5v56.4c.2,2.6,2.9,5.4,6.6,5.4M810.9,184.6h0c3.5,0,6.5-2.7,6.5-5.9v-40.6c0-.3-.4-7.3,8.1-8.1,5-.3,7.5,4.8,7.5,4.9,1,1.6,24.1,37.4,26.6,41,1.9,2.9,8.1,8.6,17.1,8.6s5.7-.5,9-1.8c13.4-5.3,12.7-18.5,12.7-18.6v-41.6c-.2-2.6-2.9-5.4-6.5-5.4h0c-3.6,0-6.3,2.9-6.5,5.5v41.6c0,1.1-.8,4.8-4.2,6.4-7.2,3.4-10.9-2.5-11.1-2.8l-26.5-40.8c-3.5-5.9-13.4-13-26.3-8.3-12.7,5.1-13,18.1-13,18.3v42.4c.2,2.5,2.8,5.2,6.6,5.2M710,150.9c0-18.6,15.5-33.7,34.5-33.7s34.5,15.1,34.5,33.7-1,3.2-3.4,3.2h-35.9c-1.9,0-3.4-1.5-3.4-3.3s1.5-3.3,3.4-3.3h32.3c-1.7-13.6-13.4-23.7-27.5-23.7s-27.7,12.2-27.7,27.1,12.4,27.1,27.7,27.1,18.6-4.9,23.7-13c.5-.8,1.3-1.3,2.2-1.4.9-.2,1.8,0,2.5.5,1.5,1,2,3,1,4.5-6.3,10-17.3,16-29.3,16-19,0-34.5-15.1-34.5-33.7"/>
  </g>
  <rect class="st3" x="524" y="46.1" width="5" height="207.2"/>
</svg>