<?xml version="1.0" encoding="UTF-8"?>
<svg id="_Слой_1" data-name="Слой_1" xmlns="http://www.w3.org/2000/svg" version="1.1" viewBox="0 0 500 300.8">
  <!-- Generator: Adobe Illustrator 29.8.2, SVG Export Plug-In . SVG Version: 2.1.1 Build 3)  -->
  <defs>
    <style>
      .st0 {
        fill: #e51f2b;
      }

      .st1 {
        fill: #fff;
      }
    </style>
  </defs>
  <path class="st0" d="M40.6,223.4l-14.2-3.5c-5-1.3-7.5-3.7-7.5-7s1.1-4.2,3.2-5.6c2.2-1.4,4.9-2.1,8.1-2.1,4.9,0,10.1,2.1,15.5,6.1,2.3,1.7,4.3,1.7,6-.1l5.2-5.4c1.8-1.8,1.6-3.8-.6-5.8-2.5-2.5-6.1-4.6-10.6-6.3-4.5-1.7-9.6-2.5-15.2-2.5-8.4,0-15.2,2.1-20.6,6.4-5.4,4.3-8.1,9.7-8.1,16.4s1.6,9.6,4.8,13.1c3.2,3.5,7.7,6,13.5,7.4l12.8,3.2c3.6.9,6.3,2,8,3.3s2.6,3.1,2.6,5.4-1.1,4-3.2,5.5c-2.1,1.6-5.1,2.3-8.9,2.3-6.7,0-12.6-2.5-17.8-7.6-1.8-1.8-3.6-2.1-5.4-.9l-6.8,5.3C.3,252-.1,253.1,0,254.2c.1,1.2.7,2.2,1.6,3.2,2.8,3,6.7,5.6,11.7,7.7,5,2.1,10.8,3.1,17.4,3.1,9.6,0,17-2.3,22.2-7,5.3-4.7,7.9-10.2,7.9-16.6.1-10.5-6.6-17.7-20.2-21.2"/>
  <path class="st0" d="M119.8,199.9c-4.6-4.8-11-7.2-19.1-7.2h-29.1c-.7,0-1.3.2-1.7.7-.4.5-.6,1-.6,1.6v69.5c0,.7.2,1.3.6,1.7.4.5,1,.7,1.7.7h11.2c.6,0,1.2-.2,1.7-.7s.7-1,.7-1.7v-22.3h15.5c8.1,0,14.4-2.4,19-7.1,4.6-4.7,7-10.6,7-17.7,0-6.9-2.3-12.7-6.9-17.5M107,225.3c-2.1,2-4.8,3-8.2,3.1h-13.7v-21.6h13.7c3.3,0,6,1,8.2,2.9,2.1,1.9,3.2,4.5,3.2,7.8,0,3.2-1.1,5.8-3.2,7.8"/>
  <path class="st0" d="M198,202.4c-7.6-7.4-16.9-11.1-27.9-11.1s-20.4,3.7-28,11.2-11.4,16.6-11.4,27.4,3.8,20,11.4,27.4c7.6,7.5,16.9,11.2,28,11.2s20.3-3.7,27.9-11.1c7.6-7.4,11.4-16.6,11.4-27.5s-3.8-20.1-11.4-27.5M186.4,246.8c-4.3,4.6-9.8,6.9-16.3,6.9s-12-2.3-16.3-6.9c-4.3-4.6-6.5-10.3-6.5-17s2.2-12.4,6.5-17,9.8-6.9,16.3-6.9,12,2.3,16.3,6.9c4.3,4.6,6.5,10.2,6.5,17s-2.2,12.4-6.5,17"/>
  <path class="st0" d="M280.8,263.8l-17-27.1c3.6-1.2,6.6-3.1,9-5.7,2.4-2.6,4-5.2,4.8-7.7.8-2.6,1.2-5.1,1.2-7.8,0-6.5-2.3-11.9-7-16.2s-10.9-6.5-18.7-6.5h-33.3c-.7,0-1.3.3-1.7.8s-.6,1-.6,1.6v69.5c0,.7.2,1.3.6,1.7.4.5,1,.7,1.7.7h11.1c.7,0,1.3-.2,1.7-.7.5-.5.7-1.1.7-1.7v-25.3h14.2l15.3,25.3c1,1.6,2.3,2.4,4,2.4h12.3c.9,0,1.6-.3,1.9-1,.4-.9.3-1.6-.2-2.3M259,223.7c-2.1,1.9-4.8,2.8-8,2.8h-17.7v-19.7h17.9c3.2,0,5.8.9,7.9,2.6,2,1.7,3.1,4.1,3.1,7.1s-1.1,5.3-3.2,7.2"/>
  <path class="st0" d="M345.1,193.4c-.5-.5-1-.7-1.6-.7h-58.8c-.6,0-1.2.2-1.7.7s-.7,1-.7,1.8v9.8c0,.7.2,1.3.7,1.8s1,.7,1.7.7h21.2v57.2c0,.7.2,1.3.6,1.7.4.5,1,.7,1.7.7h11.6c.7,0,1.3-.2,1.8-.7s.7-1.1.7-1.7v-57.2h21.2c.6,0,1.2-.2,1.6-.7.5-.5.7-1.1.7-1.8v-9.8c0-.7-.3-1.3-.7-1.8"/>
  <path class="st1" d="M166.9,85.6l-22.7-9.5c-6.6-2.9-9.2-4.8-8.8-7.1.4-2.2,2.1-4.2,8.4-4.2h46.8c1.2,0,2.2-.8,2.5-2l3.6-17.2c.3-1.6-.9-3-2.5-3h-48.3c-22.9,0-32.2,12.4-35,25.3-3.6,16.3,9.5,23.9,18.8,27.8l24.9,10.1c6.1,2.5,7.1,4.7,6.4,7.2-.7,2.7-2.9,4.5-10.6,4.5h-48c-1.2,0-2.2.8-2.5,2l-3.6,17.2c-.3,1.6.9,3,2.5,3h51.6c23.7-.2,31.9-12.5,34.9-25.9,3.7-16.8-6.8-23.3-18.4-28.2"/>
  <path class="st1" d="M384.6,42.7h-22.1c-.7,0-1.4.3-1.9.9l-35.6,40.2-23.9-39.9c-.5-.8-1.3-1.2-2.2-1.2h-30.8c-.7,0-1.4.3-1.9.9l-41.5,47,28.8,48.1c.5.8,1.3,1.2,2.2,1.2h22.9c2,0,3.2-2.1,2.2-3.8l-27.3-45.5,28.6-32.4,28.4,47.5-13.3,62.7c-.3,1.6.9,3,2.5,3h18.8c1.2,0,2.2-.8,2.5-2l13.6-63.8,52-58.7c1.3-1.6.2-4.2-2-4.2"/>
  <path class="st1" d="M241,0h-19.5C220.3,0,219.3.8,219,2l-28.7,134.8c-.3,1.6.9,3,2.5,3h19.5c1.2,0,2.2-.8,2.5-2L243.4,3C243.7,1.5,242.6,0,241,0"/>
  <path class="st1" d="M359.6,230.6c0-38.8,31.4-70.2,70.2-70.2s70.2,31.4,70.2,70.2-31.4,70.2-70.2,70.2-70.2-31.4-70.2-70.2"/>
  <path d="M430.9,248.7h-30.4c-.8,0-1.4-.2-1.9-.7s-.7-1.1-.7-1.9v-10.1c0-2.8.6-5.1,1.7-6.9l24.7-34c.9-1.4,2.2-2.1,3.7-2.1h19c.8,0,1.4.3,2,.7.5.5.8,1.1.8,1.8v38.3h6.2c.8,0,1.4.3,1.9.7s.7,1.1.7,1.9v9.7c0,.8-.3,1.4-.7,1.9-.5.5-1.1.7-1.9.7h-6.2v15.6c0,.8-.3,1.4-.8,1.9s-1.2.7-2,.7h-13.4c-.8,0-1.4-.3-1.9-.7-.5-.5-.7-1.1-.7-1.9v-15.6h-.1ZM414.5,233.7h16.4v-22.9l-16.4,22.9Z"/>
</svg>