<?xml version="1.0" encoding="UTF-8"?>
<svg id="_Слой_1" data-name="Слой_1" xmlns="http://www.w3.org/2000/svg" version="1.1" viewBox="0 0 500 461.3">
  <!-- Generator: Adobe Illustrator 29.8.2, SVG Export Plug-In . SVG Version: 2.1.1 Build 3)  -->
  <defs>
    <style>
      .st0 {
        fill: #e51f2b;
      }

      .st1 {
        fill: #fff;
      }
    </style>
  </defs>
  <path class="st0" d="M95.1,260.2l-16.6-4.1c-5.9-1.6-8.8-4.3-8.8-8.2s1.3-4.9,3.8-6.5,5.7-2.4,9.5-2.4c5.8,0,11.8,2.4,18.1,7.2,2.6,2,5,2,7.1-.1l6.1-6.3c2.2-2.1,1.9-4.4-.7-6.8-3-2.9-7.1-5.3-12.4-7.3s-11.2-3-17.7-3c-9.8,0-17.8,2.5-24.1,7.5-6.3,5-9.5,11.4-9.5,19.2s1.9,11.2,5.6,15.4c3.8,4.1,9,7,15.8,8.7l15,3.7c4.2,1.1,7.4,2.4,9.4,3.9s3,3.6,3,6.3-1.2,4.6-3.7,6.5c-2.5,1.8-6,2.7-10.4,2.7-7.8,0-14.7-3-20.9-8.9-2.2-2.2-4.2-2.5-6.3-1l-7.9,6.2c-1.3,1.2-1.8,2.4-1.7,3.8s.8,2.6,1.9,3.8c3.3,3.6,7.9,6.6,13.7,9s12.6,3.7,20.4,3.7c11.2,0,19.8-2.7,26-8.2s9.3-11.9,9.3-19.4c-.1-12.9-8.1-21.3-24-25.4"/>
  <path class="st0" d="M187.8,232.7c-5.4-5.6-12.9-8.4-22.4-8.4h-34c-.8,0-1.5.3-2,.8s-.7,1.2-.7,1.9v81.3c0,.8.2,1.5.7,2.1.5.5,1.2.8,2,.8h13.2c.7,0,1.4-.3,1.9-.8s.8-1.2.8-2.1v-26.1h18.1c9.4,0,16.9-2.8,22.3-8.3,5.4-5.5,8.2-12.4,8.3-20.7-.1-8.1-2.8-14.9-8.2-20.5M172.8,262.4c-2.5,2.3-5.7,3.5-9.6,3.6h-16v-25.3h16c3.9,0,7.1,1.1,9.6,3.4,2.5,2.3,3.7,5.3,3.7,9.1.1,3.8-1.2,6.9-3.7,9.2"/>
  <path class="st0" d="M279.4,235.6c-8.9-8.7-19.8-13-32.7-13s-23.8,4.4-32.7,13.1c-8.9,8.7-13.4,19.4-13.4,32.1s4.5,23.4,13.4,32.1,19.8,13.1,32.7,13.1,23.8-4.3,32.7-13,13.4-19.4,13.4-32.2-4.5-23.5-13.4-32.2M265.8,287.6c-5.1,5.4-11.4,8.1-19.1,8.1s-14.1-2.7-19.1-8.1c-5.1-5.4-7.6-12-7.6-19.9s2.5-14.5,7.6-19.9,11.4-8.1,19.1-8.1,14.1,2.7,19.1,8.1c5.1,5.4,7.6,12,7.6,19.9s-2.5,14.5-7.6,19.9"/>
  <path class="st0" d="M376.4,307.5l-19.9-31.8c4.2-1.4,7.7-3.7,10.5-6.7,2.8-3.1,4.6-6.1,5.6-9.1s1.4-6,1.4-9.1c0-7.6-2.7-13.9-8.3-19-5.5-5.1-12.8-7.6-21.9-7.6h-39c-.8,0-1.5.3-2,.9-.5.6-.7,1.2-.7,1.9v81.3c0,.8.3,1.5.7,2,.5.5,1.2.8,2,.8h13c.8,0,1.5-.3,2.1-.8.5-.5.8-1.2.8-2v-29.6h16.6l17.9,29.6c1.2,1.9,2.7,2.9,4.7,2.9h14.4c1.1,0,1.8-.4,2.2-1.2.5-.9.4-1.7-.1-2.5M350.8,260.5c-2.4,2.2-5.6,3.3-9.4,3.3h-20.7v-23.1h21c3.7,0,6.8,1,9.2,3,2.4,2,3.6,4.8,3.6,8.3s-1.2,6.3-3.7,8.5"/>
  <path class="st0" d="M451.6,225.1c-.5-.6-1.2-.8-1.9-.8h-68.8c-.7,0-1.4.3-1.9.8s-.8,1.2-.8,2v11.4c0,.8.3,1.5.8,2,.6.5,1.2.8,1.9.8h24.8v66.9c0,.8.3,1.5.8,2s1.2.8,2,.8h13.5c.8,0,1.5-.3,2-.8s.8-1.2.8-2v-66.9h24.8c.7,0,1.4-.3,1.9-.8s.8-1.2.8-2v-11.4c.1-.8-.2-1.5-.7-2"/>
  <path class="st1" d="M175.5,99l-26.2-11c-7.7-3.3-10.6-5.5-10.1-8.2.4-2.5,2.4-4.8,9.7-4.8h54c1.4,0,2.5-1,2.8-2.3l4.2-19.8c.4-1.8-1-3.5-2.8-3.5h-55.8c-26.5.2-37.2,14.3-40.5,29.2-4.2,18.9,10.9,27.6,21.7,32.1l28.8,11.7c7,2.8,8.2,5.4,7.4,8.3-.8,3.2-3.3,5.2-12.3,5.2h-55.5c-1.4,0-2.5,1-2.8,2.3l-4.2,19.8c-.4,1.8,1,3.5,2.8,3.5h59.7c27.4-.2,36.9-14.4,40.3-29.9,4.3-19.5-7.9-27-21.2-32.6"/>
  <path class="st1" d="M427,49.4h-25.5c-.8,0-1.6.4-2.2,1l-41.2,46.5-27.6-46.1c-.5-.9-1.5-1.4-2.5-1.4h-35.5c-.8,0-1.6.4-2.2,1l-48,54.3,33.3,55.6c.5.9,1.5,1.4,2.5,1.4h26.5c2.2,0,3.6-2.5,2.5-4.4l-31.5-52.6,33.1-37.4,32.8,54.9-15.4,72.5c-.4,1.8,1,3.5,2.8,3.5h21.7c1.4,0,2.6-1,2.8-2.3l15.7-73.7,60.1-67.9c1.7-2,.3-4.9-2.2-4.9"/>
  <path class="st1" d="M261,0h-22.5C237.1,0,235.9,1,235.7,2.3l-33.1,155.8c-.4,1.8,1,3.5,2.8,3.5h22.5c1.4,0,2.6-1,2.9-2.3L263.9,3.5C264.3,1.7,262.9,0,261,0"/>
  <path class="st0" d="M493.3,461.3H6.7c-3.7,0-6.7-3-6.7-6.7v-111.3c0-3.7,3-6.7,6.7-6.7h486.5c3.7,0,6.7,3,6.7,6.7v111.3c0,3.7-2.9,6.7-6.6,6.7"/>
  <path class="st1" d="M49.8,353.8c6.5,0,12.4,1,17.7,3s9.4,4.4,12.4,7.3c2.6,2.4,2.9,4.7.7,6.8l-6.1,6.3c-2.1,2.1-4.4,2.1-7.1.1-6.3-4.8-12.3-7.2-18.1-7.2s-7,.8-9.5,2.4-3.8,3.8-3.8,6.5c0,3.9,2.9,6.6,8.8,8.2l16.6,4.1c15.9,4.1,23.8,12.5,23.8,25.2s-3.1,13.9-9.2,19.3c-6.2,5.4-14.8,8.2-26,8.2s-14.6-1.2-20.4-3.7c-5.8-2.4-10.4-5.4-13.7-9-1.2-1.2-1.8-2.4-1.9-3.8-.1-1.4.4-2.6,1.7-3.8l7.9-6.2c2.1-1.5,4.2-1.2,6.3,1,6.1,6,13.1,8.9,20.8,8.9s7.9-.9,10.4-2.7c2.5-1.8,3.7-4,3.7-6.4s-1-4.7-3-6.3c-2-1.5-5.1-2.8-9.4-3.9l-15-3.7c-6.8-1.6-12-4.5-15.8-8.7-3.8-4.1-5.6-9.3-5.6-15.4s3.2-14.1,9.5-19.1c6.6-4.9,14.6-7.4,24.3-7.4M95,355.6h62c.8,0,1.5.3,2,.8s.8,1.2.8,2v11.4c0,.8-.3,1.5-.8,2s-1.2.8-2,.8h-46.2v17.8h40.2c.8,0,1.5.3,2,.8s.7,1.2.7,2v10.9c0,.7-.3,1.4-.8,2s-1.2.9-1.9.9h-40.2v18.1h47.2c.7,0,1.4.3,2,.8s.9,1.2.9,2v11.4c0,.8-.3,1.5-.9,2-.6.5-1.3.8-2,.8h-63c-.8,0-1.5-.3-2-.8s-.7-1.2-.7-2v-81.2c0-.7.3-1.4.7-1.9.5-.3,1.1-.6,2-.6M235.6,428.1v11.4c0,.8-.3,1.5-.8,2s-1.2.8-2,.8h-56.4c-.8,0-1.5-.3-2-.8s-.7-1.2-.7-1.9v-81.2c0-.8.3-1.5.7-2,.5-.5,1.1-.8,2-.8h13c.7,0,1.4.3,2,.8s.9,1.2.9,2v66.8h40.5c.8,0,1.5.3,2,.8.5.6.8,1.2.8,2.1M246.7,355.6h62.1c.8,0,1.5.3,2,.8.6.5.8,1.2.8,2v11.4c0,.8-.3,1.5-.8,2s-1.2.8-2,.8h-46.2v17.8h40.2c.8,0,1.5.3,2,.8s.7,1.2.7,2v10.9c0,.7-.3,1.4-.8,2s-1.2.9-1.9.9h-40.2v18.1h47.2c.7,0,1.4.3,2,.8s.9,1.2.9,2v11.4c0,.8-.3,1.5-.9,2s-1.2.8-2,.8h-63.1c-.8,0-1.5-.3-2-.8s-.7-1.2-.7-2v-81.2c0-.7.3-1.4.7-1.9.5-.3,1.2-.6,2-.6M363.3,444.1c-12.9,0-23.8-4.3-32.7-13-8.9-8.7-13.3-19.4-13.3-32.1s4.4-23.4,13.3-32.1,19.8-13,32.7-13,18.3,2.4,25.8,7.1c7.6,4.7,12.8,11.3,15.7,19.6.6,1.6.1,2.5-1.4,2.9l-14.1,3.7c-1.2.3-2.2-.2-2.8-1.7-5-9.6-12.6-14.4-23-14.4s-14.2,2.7-19.2,8c-5,5.4-7.6,12-7.6,19.8s2.5,14.5,7.6,19.8c5,5.4,11.4,8,19.2,8s18.1-4.8,23-14.4c.6-1.5,1.6-2.1,2.8-1.7l14.1,3.7c1.5.3,1.9,1.3,1.4,2.9-2.9,8.3-8.1,14.9-15.7,19.6-7.6,4.9-16.2,7.3-25.8,7.3M407.2,369.8v-11.4c0-.8.3-1.5.8-2s1.2-.8,1.9-.8h68.6c.7,0,1.4.3,1.9.8s.8,1.2.8,2v11.4c0,.8-.3,1.5-.8,2s-1.2.8-1.9.8h-24.8v66.8c0,.8-.3,1.5-.8,2s-1.2.8-2,.8h-13.5c-.8,0-1.5-.3-2-.8s-.7-1.2-.7-2v-66.8h-24.7c-.7,0-1.4-.3-1.9-.8-.6-.5-.9-1.1-.9-2"/>
</svg>