<?xml version="1.0" encoding="UTF-8"?>
<svg id="svg85772" xmlns="http://www.w3.org/2000/svg" version="1.1" xmlns:svg="http://www.w3.org/2000/svg" viewBox="0 0 1584.6 720.6">
  <!-- Generator: Adobe Illustrator 29.8.2, SVG Export Plug-In . SVG Version: 2.1.1 Build 3)  -->
  <defs>
    <style>
      .st0 {
        fill: #fff;
      }

      .st1 {
        fill: #fc3b3b;
      }

      .st2 {
        fill: #00013a;
      }

      .st3 {
        fill: #37003c;
      }
    </style>
  </defs>
  <path id="path829" class="st0" d="M426.5,410.4c-3.3,0-4.4-1.6-5.6-3.4l-61.6-101.7,88.5-98.9c1.5-1.6,2.9-2.9,5.9-2.9h65c3.4,0,4.4,1.3,6.9,5.2l50,82.3,75.8-84.5c1.3-1.6,2.8-2.9,5.7-2.9h47.2c5.6,0,6.7,6.1,3.6,9.4l-112,124.9-29.8,135c-.7,3.1-2.6,4.9-6.2,4.9h-38.4c-6.7,0-7.3-4.2-5.7-10.5l28.7-129.3-61.3-101.4-61.8,68.9,57.8,95.1c2.7,2.9,3,9.8-4,9.8l-48.7.2Z"/>
  <path id="path827" class="st0" d="M291.1,410.3c-7,0-7.7-4.4-5.9-10.4l62.4-282.3c.7-2.7,1.8-5,5.6-5h42.3c4.9,0,5.7,4.5,4.6,8.4l-40.7,184.4-21.8,98.9c-1,3.9-2,6.2-5.7,6.2l-40.7-.2Z"/>
  <path id="path825" class="st0" d="M87.6,410.3c-4.1,0-6-1.9-6-5.5s1.6-7.9,1.6-7.9l6.4-28.9c.8-3.6,2.1-5,6-5h104.5c12.9,0,21.8-3.3,21.8-12.7s-8-9.7-20.3-14.7l-55.5-22.4c-18.9-9.5-34.1-22.8-34.1-44.7s7.2-35.5,23.8-49c11.8-9.6,29.6-16.1,51.8-16.1h105.4c4.1,0,5.9,2.4,5.9,5s-2.1,10.2-2.1,10.2l-5.9,26.6c-.7,3.1-1.6,5.6-7.3,5.6h-99.3c-10.5,0-17.6,3.4-17.6,9.5s8.3,9.8,16.8,13.2l54.1,22.4c19.6,8.9,38.3,19.7,38.3,45.7s-7.4,36.2-19,48.2c-13.2,13.7-32.8,20.5-62.1,20.5l-107-.2Z"/>
  <path id="path837" class="st1" d="M68,655.8c16.7,0,26.1-8.3,26.1-16.8,0-21.5-37.4-18.3-65-30.5-14.3-6.7-25.4-18.9-25.4-39.2,0-29.1,26.5-48.4,62.3-48.4s43.8,7,57,20c2.7,2.7,4.1,6.8.7,10.6l-12.6,12.9c-3.6,2.8-8.3,3-11.9-.1-9.9-8.1-23.7-13.6-34.2-13.6s-24.3,6.3-24.3,16.3c0,17.7,31.1,15.7,59.6,26.6,16.4,6.6,31,17.8,31.4,41.7,0,5.7-.9,11.6-3.3,17.2-4.8,11.2-14.7,21.5-28.9,27.6-8.8,3.8-19.7,5.7-32.9,5.7-27.7,0-48.6-8.9-62.8-22.9-6.2-6.5-3.7-11.6-.4-14.5l13.7-10.4c2.5-2.1,6.6-3.5,11.1.3,3.1,3.2,7.1,6.3,10.7,8.7,8.2,5.5,17.9,8.9,29.1,8.9h0Z"/>
  <path id="path843" class="st1" d="M476,523.8c-3.2,0-5.6,2.2-5.6,5.5v147.7c0,3,1.6,5.5,5.6,5.5h24c3.4,0,5-2.7,5-4.9v-54.3h30.7l32.9,53.8c2,3.4,5,5.4,8.9,5.4h26.2c4.6,0,6-3.7,3.6-7.5l-36.2-57.3c16.5-5.4,32.3-20.8,32.3-45.5s-23.2-48.5-56.1-48.5h-71.2ZM505.1,554.1h38.9c12.7,0,23.5,7.1,23.5,20.3s-13.2,21.6-24,21.6h-38.4v-41.9Z"/>
  <path id="path849" class="st1" d="M667.5,682.5c-3.5,0-5.6-1.8-5.6-5.5v-121.7h-46c-2.7,0-5-2.1-5-4.9v-20.9c0-3.1,2.1-5.5,5.6-5.5h126.3c3.5,0,5.6,2.5,5.6,5.5v20.5c0,3.4-1.9,5.5-5.6,5.5h-45.4v121.7c0,3-1.9,5.5-5.6,5.5h-24.4Z"/>
  <path id="path839" class="st1" d="M155.3,523.8c-3.2,0-5.6,2.2-5.6,5.6v147.7c0,3,1.6,5.6,5.6,5.6h23.7c3.4,0,5-2.7,5-4.9v-47.8h35.5c30.6,0,54.5-21.1,54.5-52.9s-22-53-54.9-53h-63.8ZM184.1,554.2h30.6c12.7,0,23.4,8.4,23.4,22.8s-12,23.1-23.9,23.1h-30.1v-45.9Z"/>
  <path id="path851" class="st1" d="M368.4,520.6c-48.4,0-85.6,36.9-85.6,82.6s37.1,82.5,85.4,82.5,85.3-38.1,85.3-82.2-39.8-83-85.1-83ZM368.1,552.2c27.1,0,49.3,20.7,49.3,51.4s-19,50.5-49.4,50.5-49.3-21.2-49.3-50.8c.1-28.7,21.5-51,49.4-51Z"/>
  <path id="path52540" class="st3" d="M1278,0s-19.8,58.4-25.6,76.1c-14.7-9.6-57.4-40.1-75.8-52.7,3.7,24.3,10.3,64.3,11.7,72.4-3.7-2.1-24.1-20.8-55.7-35.5,18.2,22.3,30,52.6,38.8,77.7,45.8-26,99.4-41.3,156.1-41.3s58.1,4.2,85.3,11.7c3-26.6,8.8-59.3,20.7-82.9-27.9,21.5-44.4,44.8-46.5,47.8-.7-5.9-2.9-45.9-5.1-73.2-10.9,11.7-54.3,60-61.7,68.2C1314.2,58.7,1278,0,1278,0ZM1328.4,115.6c-51.1,0-99.1,12.5-141.4,34,16.7,1.1,33.7,12.6,42.7,35.2-17-13.1-43.4-19.6-59.7-2.6-15.6,16.9-14.5,50.6,1.1,77.3-17.4-8.3-29.8-27.7-30.7-50.9-.6-13.3,1.3-21.8,6.8-34.2-40.3,28.9-74.2,69.9-96,114.5,11.2,1.6,21.7,3.4,33,5-37.3,42.6-63.1,119.4-63.1,154.9l52.7-16.6c-9.8,31.8-11.5,139.9,19.2,191.4,0,0,41.5-28.8,88-101.2,20.1,65.1,10.8,121.7,0,173.1,84.3,47.2,182.1,20.9,239.8-20.5l10.2,40.3c68.6-45.5,103.7-108.1,111.1-183.5l25.2,28c38-115.1,9-205.4-46.4-284.7l-2.4,18.5-24-26.1s4.3-2,8.8-7.1c.9-2.1-1.6-15.5-11.2-23.7-9.8,2.3-16.9,8.3-20.6,13.5-13.3-11.9-28.5-16.9-28.5-16.9,2.8,1.6,19,24.5,20.4,30.3,14.7,11.9,33,26,45.6,42.4-10.3-11.7-59.1-14.7-82-2.1,0,0-21.5-26.1-42.3-44.5-4.4-15.4,9.9-29.3,9.9-29.3,0,0-14.5-.3-27.8,13.1-20.6-14.7-46.1-22.5-46.1-22.5-28.6,4.5-48.5,24.7-48.5,24.7,7.3,4.4,15.4,9.3,22.8,12.3,16.3,6.7,31.1,4.5,40.6,4.5s18.6,2,18.6,2c0,0,19.6,14.6,47.6,47.1-42.2-17-87.4,2.2-118.5-13.4-36.8-18-34.4-47.8-34.4-47.8,0,0-25.1-3.3-25.1-4,0,0,18.4-23.8,46.5-32.6l-14.1-12.1c16.3-14.7,46-32,92.5-38.7,0,0,20.7,7.3,62.9,38.3,7.5-9.6,9.2-30.7,9.2-30.7,20.8,8,65.5,39.7,83.2,59.6-8.9-23.1-16.1-36.7-18.2-60.3-11.2-11-37.3-33.2-92-46.5,8.9,18.6,8,34,8,34-10.3-13.3-31.8-34.1-46.5-39.9-8.4-.7-17.5-1.2-27.2-1.3h0ZM1425.9,328.4c19.2,14.9,37.5,20.8,37.5,20.8v40.7c-14.8,11.7-57.9,50.4-90.1,46.5-17.7-33.5-33.4-63-33.3-62.8,0,0,46.9-39.3,85.8-45.2ZM1515.1,330c14.7,36.3,16.3,74.4,1.8,101.6-8.1-18.5-18.9-28.6-30-40.9v-40.5s12.8-7.6,28.3-20.2h0ZM1486.2,431.3c13.3,15.4,16.3,32.5,16.3,32.5-6.6,34.1-25.5,55.6-39,63.5,1.4-24.3-5-45.5-5-45.5-10.3,11.2-33.8,22.2-47.8,25.2-6.7-13.3-20.6-39-20.6-39,24.5-.7,66.1-36.2,66.1-36.2l30.1-.6Z"/>
  <path id="rect57959" class="st2" d="M879.4,114.1h20.2v570.6h-20.2V114.1Z"/>
</svg>