<?xml version="1.0" encoding="UTF-8" standalone="no"?>
<!-- Created with Inkscape (http://www.inkscape.org/) -->

<svg
   xmlns:dc="http://purl.org/dc/elements/1.1/"
   xmlns:cc="http://creativecommons.org/ns#"
   xmlns:rdf="http://www.w3.org/1999/02/22-rdf-syntax-ns#"
   xmlns:svg="http://www.w3.org/2000/svg"
   xmlns="http://www.w3.org/2000/svg"
   xmlns:sodipodi="http://sodipodi.sourceforge.net/DTD/sodipodi-0.dtd"
   xmlns:inkscape="http://www.inkscape.org/namespaces/inkscape"
   width="1000"
   height="560.12769"
   viewBox="0 0 100 56.012771"
   version="1.1"
   id="svg8"
   inkscape:version="0.92.3 (2405546, 2018-03-11)"
   sodipodi:docname="A.svg">
  <defs
     id="defs2" />
  <sodipodi:namedview
     id="base"
     pagecolor="#ffffff"
     bordercolor="#666666"
     borderopacity="1.0"
     inkscape:pageopacity="0.0"
     inkscape:pageshadow="2"
     inkscape:zoom="0.15563733"
     inkscape:cx="666.38645"
     inkscape:cy="824.09793"
     inkscape:document-units="px"
     inkscape:current-layer="layer1"
     showgrid="false"
     units="px"
     fit-margin-top="0"
     fit-margin-left="0"
     fit-margin-right="0"
     fit-margin-bottom="0">
    <inkscape:grid
       type="xygrid"
       id="grid18"
       originx="43.7"
       originy="-12.200001" />
  </sodipodi:namedview>
  <metadata
     id="metadata5">
    <rdf:RDF>
      <cc:Work
         rdf:about="">
        <dc:format>image/svg+xml</dc:format>
        <dc:type
           rdf:resource="http://purl.org/dc/dcmitype/StillImage" />
        <dc:title />
      </cc:Work>
    </rdf:RDF>
  </metadata>
  <g
     inkscape:label="Layer 1"
     inkscape:groupmode="layer"
     id="layer1"
     transform="translate(43.700001,-44.0392)">
    <rect
       style="opacity:1;fill:#e40a22;fill-opacity:1;fill-rule:evenodd;stroke:none;stroke-width:0.07331514"
       id="rect20"
       width="56.012768"
       height="56.012768"
       x="-43.700001"
       y="44.0392" />
    <path
       style="opacity:1;fill:#ffffff;fill-opacity:1;fill-rule:evenodd;stroke:none;stroke-width:0.03665757"
       d="m -30.063385,52.837016 h 22.7276936 l -6.9649386,6.964938 h -8.797816 z"
       id="path22"
       inkscape:connector-curvature="0"
       sodipodi:nodetypes="ccccc" />
    <path
       style="opacity:1;fill:#ffffff;fill-opacity:1;fill-rule:evenodd;stroke:none;stroke-width:0.03665757"
       d="m -5.8693886,53.423537 -14.8829734,14.882974 5.058745,5.058744 14.882973,-14.882973 z"
       id="path24"
       inkscape:connector-curvature="0" />
    <path
       style="opacity:1;fill:#ffffff;fill-opacity:1;fill-rule:evenodd;stroke:none;stroke-width:0.03665757"
       d="m -11.477852,71.125319 5.4312618,-5.427582 c 3.0596926,2.747934 5.16089422,6.416444 5.16089422,10.946149 0,8.265723 -7.04026182,14.690816 -15.42587302,14.690816 -7.165667,0 -11.961947,-4.165283 -14.177251,-7.952585 l 5.462197,-5.514243 c 1.571132,3.431277 4.337496,5.990462 8.73327,5.990462 4.380616,0 7.568858,-3.188275 7.568858,-7.254932 0,-2.228022 -1.0422239,-4.059421 -2.753357,-5.478085 z"
       id="path26"
       inkscape:connector-curvature="0"
       sodipodi:nodetypes="ccccccccc" />
    <path
       style="opacity:1;fill:#2d383e;fill-opacity:1;fill-rule:evenodd;stroke:none;stroke-width:0.01832879"
       d="m 16.703626,65.444564 2.110454,-2.126067 c 0,0 1.707384,2.045396 4.288566,2.045396 1.289296,0 2.342058,-0.557903 2.342058,-1.60561 0,-2.799914 -7.663731,-1.608965 -7.663731,-6.817988 0,-2.475196 2.108775,-4.147703 5.541603,-4.147703 2.57146,0 4.295045,1.045923 5.68221,2.491486 l -2.101387,2.082986 c -0.769972,-0.878315 -2.186154,-1.814332 -3.52562,-1.814332 -1.572264,0 -1.983621,0.680214 -1.983621,1.317507 0,2.48728 7.706313,1.263533 7.706313,6.815707 0,2.70519 -2.409233,4.589194 -5.862539,4.589194 -3.089745,0 -5.187985,-1.231902 -6.534306,-2.830576 z"
       id="path28"
       inkscape:connector-curvature="0"
       sodipodi:nodetypes="ccccccccccccc" />
    <path
       style="opacity:1;fill:#2d383e;fill-opacity:1;fill-rule:evenodd;stroke:none;stroke-width:0.01832878"
       d="m 37.907052,52.792188 c -2.864955,0 -4.739525,1.283883 -5.982057,2.50102 l 2.095925,2.095925 c 0.910685,-0.911544 2.060134,-1.714887 3.683799,-1.714887 2.150094,0 2.871033,1.2015 2.871033,2.455055 v 0.367148 c -5.317848,0.362815 -9.53956,1.79948 -9.53956,5.557488 0,2.969142 2.317256,4.221921 4.971253,4.221921 2.745712,0 4.159375,-1.164319 4.788682,-1.951156 l 0.0736,1.541909 h 3.261807 v -9.164392 c 0,-3.80728 -2.391655,-5.910031 -6.224484,-5.910031 z m 2.6687,8.13483 v 1.368788 c 0,1.894028 -2.10309,3.211833 -3.791051,3.211833 -1.356387,0 -2.10509,-0.715289 -2.10509,-1.659757 0,-1.780599 2.185021,-2.497334 5.896141,-2.920864 z"
       id="path30"
       inkscape:connector-curvature="0" />
    <path
       style="opacity:1;fill:#2d383e;fill-opacity:1;fill-rule:evenodd;stroke:none;stroke-width:0.01832879"
       d="m 50.656583,47.851587 v 5.352005 h 4.398909 v 2.85929 h -4.398909 v 7.22607 c 0,1.144983 0.485221,1.864156 1.797241,1.864156 1.041823,0 1.665463,-0.796299 1.665463,-0.796299 l 2.180715,2.180715 c -0.636265,0.60389 -1.845521,1.752337 -4.117396,1.752337 -3.132295,0 -5.045149,-1.816873 -5.045149,-4.895465 V 51.370714 Z"
       id="path34"
       inkscape:connector-curvature="0"
       sodipodi:nodetypes="ccccccccccccc" />
  </g>
</svg>
