<?xml version="1.0" encoding="UTF-8" standalone="no"?>
<!-- Created with Inkscape (http://www.inkscape.org/) -->

<svg
   xmlns:dc="http://purl.org/dc/elements/1.1/"
   xmlns:cc="http://creativecommons.org/ns#"
   xmlns:rdf="http://www.w3.org/1999/02/22-rdf-syntax-ns#"
   xmlns:svg="http://www.w3.org/2000/svg"
   xmlns="http://www.w3.org/2000/svg"
   xmlns:sodipodi="http://sodipodi.sourceforge.net/DTD/sodipodi-0.dtd"
   xmlns:inkscape="http://www.inkscape.org/namespaces/inkscape"
   width="1000"
   height="667.47571"
   id="svg2"
   version="1.1"
   inkscape:version="0.48.5 r10040"
   sodipodi:docname="New document 1">
  <defs
     id="defs4" />
  <sodipodi:namedview
     id="base"
     pagecolor="#ffffff"
     bordercolor="#666666"
     borderopacity="1.0"
     inkscape:pageopacity="0.0"
     inkscape:pageshadow="2"
     inkscape:zoom="0.20060012"
     inkscape:cx="806.3217"
     inkscape:cy="527.51463"
     inkscape:document-units="px"
     inkscape:current-layer="layer1"
     showgrid="false"
     showguides="true"
     inkscape:guide-bbox="true"
     fit-margin-left="0.5"
     fit-margin-bottom="0.5"
     fit-margin-top="0.5"
     fit-margin-right="0.5"
     inkscape:window-width="1059"
     inkscape:window-height="1027"
     inkscape:window-x="850"
     inkscape:window-y="-14"
     inkscape:window-maximized="0">
    <inkscape:grid
       type="xygrid"
       id="grid2996"
       empspacing="5"
       visible="true"
       enabled="true"
       snapvisiblegridlinesonly="true"
       originx="-29.5px"
       originy="-309.5px" />
  </sodipodi:namedview>
  <metadata
     id="metadata7">
    <rdf:RDF>
      <cc:Work
         rdf:about="">
        <dc:format>image/svg+xml</dc:format>
        <dc:type
           rdf:resource="http://purl.org/dc/dcmitype/StillImage" />
        <dc:title></dc:title>
      </cc:Work>
    </rdf:RDF>
  </metadata>
  <g
     inkscape:label="Layer 1"
     inkscape:groupmode="layer"
     id="layer1"
     transform="translate(-29.5,-75.386466)">
    <path
       style="fill:#ff3701;fill-opacity:1;stroke:none"
       d="m 30,75.886466 999,0 0,666.475714 -999,0 0,-282.57429 19.98,-7.13571 L 32.854286,358.46075 30.890337,334.1054 30,305.65647 z"
       id="path2998"
       inkscape:connector-curvature="0"
       sodipodi:nodetypes="cccccccccc" />
    <path
       style="fill:#ffffff;stroke:none"
       d="m 30,459.78789 c 51.670259,117.72646 187.72841,256.19794 398.85819,256.19794 242.7526,0 433.89073,-197.17221 433.89073,-440.0218 0,-102.48734 -39.18043,-174.01645 -39.18043,-174.01645 -98.71882,23.10932 -202.60362,29.93643 -202.60362,29.93643 -23.0725,93.16763 -93.1921,134.19727 -172.22003,149.97528 0,0 -8.04716,75.80601 -22.24696,137.01111 86.25157,-8.08859 133.15635,-31.76117 133.15635,-31.76117 C 519.47309,503.60488 415.4006,571.94044 303.16366,571.94044 160.48507,571.94044 35.527974,463.15649 30,305.65647 z"
       id="path3000"
       inkscape:connector-curvature="0"
       sodipodi:nodetypes="ccccccccccc" />
  </g>
</svg>
