<?xml version="1.0" encoding="utf-8"?>
<!-- Generator: Adobe Illustrator 23.0.3, SVG Export Plug-In . SVG Version: 6.00 Build 0)  -->
<svg version="1.1" id="Layer_1" xmlns="http://www.w3.org/2000/svg" xmlns:xlink="http://www.w3.org/1999/xlink" x="0px" y="0px"
	 viewBox="0 0 1939.4 625.2" style="enable-background:new 0 0 1939.4 625.2;" xml:space="preserve">
<style type="text/css">
	.st0{fill:#0666B0;}
</style>
<g>
	<path class="st0" d="M854.5,375c-8.6-43.9-37.3-84-77.6-104.1c-30.2-15.7-65.4-19.1-98.8-15.1c-60.5,6-118.4,35.8-158.3,81.6
		c-4.3-10.9-9.3-21.6-16.2-31.1c-15.3-21.8-38.3-37.7-63.7-45.2c-36.8-10.9-76.9-8-112.7,5.4l0,0c-47,17.4-88.5,47.3-124.1,82.2
		c-0.2-15,0-29.9-0.1-44.9c0-10.8-3.1-22.1-11-29.8c-7.7-7.9-19-11.2-29.7-11.1c-54-0.1-107.9,0.1-161.9-0.1
		c-0.3,25.3,0,50.6-0.2,76c23,0.3,46,0,68.9,0.1c8.6,0.1,17.9,2.3,24.1,8.7c6.2,6.3,8.2,15.5,8.5,24.2c0.1,64.5-0.1,129,0.1,193.4
		c-0.9,6.9,8.7,8.5,12,3.5c45.5-47.6,90.4-95.8,137.9-141.6c23.7-23,47.9-46.3,76.6-63c21.1-12.4,45.9-19.3,70.5-16
		c15.3,1.9,30.8,8.2,40.9,20.3c11.6,13.8,15.8,32.3,16,50c0.3,31.8-0.1,63.5,0.2,95.3c-0.2,6,7.8,8,11.4,3.7
		c28.4-31.3,57.7-61.7,88-91.3c25.4-24.4,51.2-49.6,83-65.6c23.8-12.2,52.3-17.1,78.3-9.4c14,4,26.2,14,32.5,27.2
		c8.3,16.2,8.7,34.9,8.7,52.7c0,29.1,0,58.3,0,87.4c33.7,0,67.4,0,101.2,0c0-23.8,0-47.6,0-71.4C858.3,422.9,859.7,398.6,854.5,375z
		"/>
	<path class="st0" d="M1454.2,42.2c0.2-11.1-3-22.9-10.9-30.9c-7.6-7.6-18.7-11-29.3-11.2C1359.8,0,1305.7,0.1,1251.6,0
		c-0.3,25.3,0,50.6-0.1,76h0c15.3,1.1,30.7-0.3,46.1,0.5c13.2,0.4,27.8-2.5,39.7,4.8c9.9,5.8,13.3,18.1,13.1,28.9
		c0,71.7,0.2,143.4-0.1,215.1c-36.3-37.3-84.9-62.6-136.7-68.9c-41.9-5.2-85.4-1.1-124.9,14.1c-83.9,31.7-143.8,114.7-153.2,203.1
		c-3.6,52.4,6.4,106.8,34.9,151.5c37.8-0.1,75.7,0.2,113.5-0.1c-19.5-27.9-35.7-58.7-42.8-92.2c-6.1-28.9-7-59.6,2.8-87.8
		c11.3-34,35.6-63.6,67.2-80.6c28.7-15.8,63.1-20.8,95.2-14.6c29.1,5.4,55.7,19.9,79.3,37.4c53.5,41.9,106.4,84.4,157.5,129.2
		c4.1,4.1,12.4,1.6,11.1-5C1454.2,355,1454.1,198.6,1454.2,42.2z"/>
	<path class="st0" d="M1939.4,254.3c-20.7-0.2-41.5,0.8-61.9,4.3c-28.4,4.7-54.3,17.9-79.1,31.9c-26.9,16.2-51.5,36.1-74,57.9
		c-0.3-14.9,0-29.9-0.1-44.8c-0.3-10.5-3.2-21.5-10.6-29.3c-8-8.3-19.8-11.8-31.1-11.6c-53.7,0-107.3,0-160.9,0
		c0,25.4-0.1,50.7,0,76c22.6,0,45.2,0,67.8,0c9.1,0.1,19,2.2,25.3,9.3c7.3,7.6,8.3,18.8,7.9,28.8c0,62.7-0.1,125.4,0.1,188
		c-1.3,6.5,7,9.3,11.1,5.2c22.2-23.1,44-46.7,66.4-69.6c41.9-43.6,84.8-87.3,136.5-119.5c30.8-19.1,65.8-33.8,102.6-34
		C1939.4,316.2,1939.4,285.3,1939.4,254.3z"/>
</g>
</svg>
