<?xml version="1.0" encoding="UTF-8" standalone="no"?>
<!-- Created with Inkscape (http://www.inkscape.org/) -->

<svg
   width="1000"
   height="760.49225"
   viewBox="0 0 264.58333 201.21357"
   version="1.1"
   id="svg28496"
   inkscape:version="1.2.2 (732a01da63, 2022-12-09)"
   sodipodi:docname="NDR 2019.svg"
   xml:space="preserve"
   xmlns:inkscape="http://www.inkscape.org/namespaces/inkscape"
   xmlns:sodipodi="http://sodipodi.sourceforge.net/DTD/sodipodi-0.dtd"
   xmlns="http://www.w3.org/2000/svg"
   xmlns:svg="http://www.w3.org/2000/svg"><sodipodi:namedview
     id="namedview28498"
     pagecolor="#ffffff"
     bordercolor="#000000"
     borderopacity="0.25"
     inkscape:showpageshadow="2"
     inkscape:pageopacity="0.0"
     inkscape:pagecheckerboard="0"
     inkscape:deskcolor="#d1d1d1"
     inkscape:document-units="mm"
     showgrid="false"
     inkscape:zoom="0.37282197"
     inkscape:cx="793.94463"
     inkscape:cy="670.56134"
     inkscape:window-width="1920"
     inkscape:window-height="1017"
     inkscape:window-x="-8"
     inkscape:window-y="-8"
     inkscape:window-maximized="1"
     inkscape:current-layer="svg28496" /><defs
     id="defs28493"><clipPath
       clipPathUnits="userSpaceOnUse"
       id="clipPath26345"><path
         d="M 0,0 H 858.898 V 612.283 H 0 Z"
         id="path26343" /></clipPath></defs><path
     id="path26357"
     style="fill:#173e7d;fill-opacity:1;fill-rule:nonzero;stroke:none;stroke-width:2.9988"
     d="m 240.60755,69.738668 c -13.23968,0 -23.97576,10.731684 -23.97576,23.971374 0,13.242698 10.73608,23.975768 23.97576,23.975768 13.2397,0 23.97578,-10.73307 23.97578,-23.975768 0,-13.23969 -10.73608,-23.971374 -23.97578,-23.971374 z m 0,4.309314 c 10.85866,0 19.66206,8.803412 19.66206,19.66206 0,10.858648 -8.8034,19.666458 -19.66206,19.666458 -10.86164,0 -19.66206,-8.80781 -19.66206,-19.666458 0,-10.858648 8.80042,-19.66206 19.66206,-19.66206 z m 7.73128,7.15583 -19.76748,7.107512 v 4.91112 l 6.554,-2.380882 v 14.777298 l 13.21348,-4.73102 z"
     inkscape:label="Dachmarke" /><path
     d="M 47.477023,79.99002 H 65.51781 v 84.94404 H 45.494817 l -27.45403,-49.56118 v 49.56118 H 0 V 79.99002 h 18.733513 l 28.74351,52.92884 z M 65.51781,0 H 75.530806 V 79.99002 H 65.51781 Z m 0,164.93406 h 10.012996 v 36.27951 H 65.51781 Z M 75.527806,79.99002 h 30.131954 c 10.24391,0 18.08878,2.623954 23.54059,7.877848 5.45181,5.253904 8.18073,13.200722 8.18073,23.840472 v 21.80428 c 0,10.63975 -2.67794,18.53559 -8.0308,23.69053 -5.35285,5.15494 -13.2487,7.73091 -23.69052,7.73091 H 75.527806 Z M 94.858084,96.0456 v 52.82988 h 9.017396 c 2.2461,0 4.29728,-0.2489 6.14754,-0.74371 1.85026,-0.49482 3.45162,-1.35546 4.80708,-2.57897 1.35545,-1.21751 2.39304,-2.82187 3.12175,-4.80408 0.72569,-1.98221 1.09157,-4.46222 1.09157,-7.43103 v -21.81028 c 0,-5.41883 -1.2745,-9.35026 -3.81748,-11.794287 -2.54598,-2.444015 -6.33047,-3.667531 -11.35046,-3.667531 z m 70.075986,36.2765 v 32.61196 H 146.09861 V 79.99002 h 29.63713 c 5.55379,0 10.27689,0.54276 14.17834,1.634348 3.89844,1.088562 7.08616,2.72591 9.56317,4.906034 2.477,2.180134 4.2793,4.873054 5.40382,8.075776 1.12158,3.208716 1.68234,6.888242 1.68234,11.053582 0,5.4848 -1.05558,10.22591 -3.16972,14.22331 -2.11716,4.0004 -5.71872,7.02619 -10.80468,9.07137 l 17.94182,35.97962 H 190.30992 L 175.14498,132.3221 Z M 164.5382,95.056002 v 21.903238 h 11.89326 c 3.70051,0 6.64233,-1.0076 8.82247,-3.02279 2.18011,-2.01519 3.27168,-4.84007 3.27168,-8.47162 0,-3.76949 -0.92663,-6.447416 -2.77389,-8.033778 -1.85326,-1.58337 -4.95702,-2.37505 -9.32028,-2.37505 z"
     style="fill:#173e7d;fill-opacity:1;fill-rule:nonzero;stroke:none;stroke-width:2.9988"
     id="path26349"
     inkscape:label="NDR" /></svg>
