<?xml version="1.0" encoding="utf-8"?>
<svg viewBox="749.143 -47.342 635.073 212.252" xmlns="http://www.w3.org/2000/svg">
  <g>
    <path d="M 1185.743 62.089 L 1384.216 62.089 L 1384.216 -47.342 L 1185.743 -47.342 L 1185.743 62.089 Z" style="fill: rgb(118, 25, 229);"/>
    <path fill="#FFFFFE" d="M 1247.422 -22.19 L 1261.202 -22.19 L 1261.202 25.277 L 1322.536 25.277 L 1322.536 36.933 L 1247.422 36.933 L 1247.422 -22.19"/>
    <path d="M 967.441 62.089 L 1165.918 62.089 L 1165.918 -47.342 L 967.436 -47.342 L 967.441 62.089 Z" style="fill: rgb(215, 1, 28);"/>
    <path fill="#FFFFFE" d="M 1059.787 -10.529 L 1024.901 -10.529 L 1024.901 -22.186 L 1108.462 -22.186 L 1108.462 -10.529 L 1073.571 -10.529 L 1073.571 36.938 L 1059.787 36.938 L 1059.787 -10.529"/>
    <path d="M 749.143 62.089 L 947.62 62.089 L 947.62 -47.342 L 749.143 -47.342 L 749.143 62.089 Z" style="fill: rgb(255, 101, 17);"/>
    <path fill="#FFFFFE" d="M 856.604 5.176 C 865.136 5.176 869.272 2.476 869.272 -3.018 C 869.272 -8.507 865.136 -11.124 856.609 -11.124 L 819.306 -11.124 L 819.306 5.176 L 856.609 5.176 L 856.604 5.176 Z M 805.522 -22.19 L 858.416 -22.19 C 874.525 -22.19 883.485 -15.095 883.485 -3.184 C 883.485 7.037 876.766 13.878 865.306 15.48 L 891.237 36.933 L 871.338 36.933 L 846.957 16.242 L 819.31 16.242 L 819.31 36.933 L 805.531 36.933 L 805.531 -22.19 L 805.522 -22.19 Z"/>
    <path d="M 942.87 164.91 C 958.295 164.91 967.385 157.972 967.385 146.465 C 967.385 136.19 961.692 130.92 947.736 128.109 L 939.013 126.353 C 932.77 125.035 929.832 122.664 929.832 118.887 C 929.832 113.968 933.688 111.333 941.217 111.333 C 949.665 111.333 954.531 114.759 954.897 120.82 L 966.283 120.82 C 966.191 109.402 956.275 101.497 941.952 101.497 C 927.629 101.497 918.355 108.348 918.355 118.887 C 918.355 128.373 924.139 133.818 936.81 136.453 L 946.175 138.386 C 953.429 139.878 955.908 141.899 955.908 146.641 C 955.908 152 951.409 155.074 943.145 155.074 C 933.413 155.074 928.179 151.296 927.629 144.182 L 916.243 144.182 C 916.886 157.357 926.527 164.91 942.87 164.91 Z M 1005.596 164.91 C 1021.755 164.91 1031.672 155.863 1031.672 141.108 L 1031.672 102.463 L 1020.378 102.463 L 1020.378 140.756 C 1020.378 150.067 1015.237 155.074 1005.596 155.074 C 996.139 155.074 990.905 150.067 990.905 140.756 L 990.905 102.463 L 979.612 102.463 L 979.612 141.108 C 979.612 155.776 989.62 164.91 1005.596 164.91 Z M 1058.864 163.944 L 1058.864 142.513 L 1073.739 142.513 C 1086.593 142.513 1095.315 134.345 1095.315 122.312 C 1095.315 110.367 1086.685 102.463 1073.739 102.463 L 1047.571 102.463 L 1047.571 163.944 L 1058.864 163.944 Z M 1058.864 112.124 L 1072.177 112.124 C 1079.615 112.124 1083.838 115.813 1083.838 122.312 C 1083.838 129.164 1079.799 132.852 1072.177 132.852 L 1058.864 132.852 L 1058.864 112.124 Z M 1152.168 163.944 L 1152.168 154.283 L 1119.757 154.283 L 1119.757 137.068 L 1149.322 137.068 L 1149.322 127.407 L 1119.757 127.407 L 1119.757 112.124 L 1152.168 112.124 L 1152.168 102.463 L 1108.464 102.463 L 1108.464 163.944 L 1152.168 163.944 Z M 1202.135 139.615 C 1210.215 136.98 1215.356 130.481 1215.356 121.434 C 1215.356 110.543 1207.093 102.463 1194.238 102.463 L 1166.694 102.463 L 1166.694 163.944 L 1177.988 163.944 L 1177.988 140.932 L 1190.383 140.932 L 1205.715 163.944 L 1218.478 163.944 L 1218.478 163.066 L 1202.135 139.615 Z M 1193.596 112.124 C 1200.024 112.124 1203.879 115.725 1203.879 121.434 C 1203.879 127.582 1200.115 131.271 1193.596 131.271 L 1177.988 131.271 L 1177.988 112.124 L 1193.596 112.124 Z" style="white-space: pre;"/>
  </g>
</svg>