<?xml version="1.0" encoding="UTF-8" standalone="no"?>
<!-- Generator: Adobe Illustrator 23.0.1, SVG Export Plug-In . SVG Version: 6.00 Build 0)  -->

<svg
   version="1.1"
   id="Livello_1"
   x="0px"
   y="0px"
   viewBox="0 0 3989.875 500.78516"
   enable-background="new 0 0 2742.9323 500"
   xml:space="preserve"
   xmlns:xlink="http://www.w3.org/1999/xlink"
   xmlns="http://www.w3.org/2000/svg"
   xmlns:svg="http://www.w3.org/2000/svg"><defs
   id="defs27513" />
<path
   id="Path_4_"
   d="M 2077.5,9.1568591e-7 C 2059.2,9.1568591e-7 2044.1992,15.000782 2044.1992,33.300782 V 466.69922 c 0,18.3 15.0008,33.30078 33.3008,33.30078 h 772.7812 v 0.78516 h 1105.8946 c 18.7,0 33.2992,-15.00039 33.6992,-33.40039 V 34.085939 c 0,-18.3 -14.9988,-33.30078183 -33.2988,-33.30078183 H 2959.5996 V 9.1568591e-7 Z"
   style="fill:#ffffff" /><path
   id="Path_1_"
   fill="#002a91"
   d="m 3956.5658,10 c 12.8,0 23.3,10.5 23.3,23.3 v 433.29998 c 0,12.8 -10.5,23.3 -23.3,23.3 H 2077.5 c -12.8,0 -23.3,-10.5 -23.3,-23.3 V 33.300001 c 0,-12.8 10.5,-23.3 23.3,-23.3 L 3956.5658,10 m 0,-10 L 2077.5,9.1568591e-7 C 2059.2,9.1568591e-7 2044.2,15.000001 2044.2,33.300001 V 466.59998 c 0,18.3 15,33.3 33.3,33.3 h 1879.0658 c 18.3,0 33.3,-15 33.3,-33.3 V 33.3 c 0,-18.3 -15,-33.3 -33.3,-33.3 z" /><g
   id="g27508">
	
	<g
   id="g27506">
		
			<linearGradient
   id="Plinth_2_"
   gradientUnits="userSpaceOnUse"
   x1="1456.6582"
   y1="198"
   x2="1456.6582"
   y2="698"
   gradientTransform="translate(0,-198)">
			<stop
   offset="0.4"
   style="stop-color:#FF0000"
   id="stop27448" />
			<stop
   offset="1"
   style="stop-color:#D42321"
   id="stop27450" />
		</linearGradient>
		<path
   id="Plinth_1_"
   fill="url(#Plinth_2_)"
   d="m 832.1,0 h 1249.2 c 18.4,0 33.3,14.9 33.3,33.3 v 433.4 c 0,18.4 -14.9,33.3 -33.3,33.3 H 832.1 c -18.4,0 -33.3,-14.9 -33.3,-33.3 V 33.3 C 798.8,14.9 813.7,0 832.1,0 Z"
   style="fill:url(#Plinth_2_)" />
		
			<linearGradient
   id="p40_2_"
   gradientUnits="userSpaceOnUse"
   x1="1459.4656"
   y1="431.7283"
   x2="1450.7686"
   y2="182.67461"
   gradientTransform="translate(0,-198)">
			<stop
   offset="0"
   style="stop-color:#FFFFFF"
   id="stop27454" />
			<stop
   offset="0.1203"
   style="stop-color:#FFFFFF;stop-opacity:0.8347"
   id="stop27456" />
			<stop
   offset="0.2693"
   style="stop-color:#FFFFFF;stop-opacity:0.6576"
   id="stop27458" />
			<stop
   offset="0.4195"
   style="stop-color:#FFFFFF;stop-opacity:0.5107"
   id="stop27460" />
			<stop
   offset="0.5684"
   style="stop-color:#FFFFFF;stop-opacity:0.3965"
   id="stop27462" />
			<stop
   offset="0.7156"
   style="stop-color:#FFFFFF;stop-opacity:0.3152"
   id="stop27464" />
			<stop
   offset="0.8603"
   style="stop-color:#FFFFFF;stop-opacity:0.2664"
   id="stop27466" />
			<stop
   offset="1"
   style="stop-color:#FFFFFF;stop-opacity:0.25"
   id="stop27468" />
		</linearGradient>
		<path
   id="p40_1_"
   opacity="0.4"
   fill="url(#p40_2_)"
   enable-background="new    "
   d="m 822.8,248 c 0,0 1.1,-0.1 3.2,-0.2 98.6,-3.5 1263.7,-44.1 1263.7,-44.1 13.9,-0.1 25,-11.5 24.9,-25.3 V 33.3 C 2114.6,14.9 2099.7,0 2081.3,0 H 832.1 C 813.7,0 798.8,14.9 798.8,33.3 V 274 c -0.4,-13.7 10.3,-25.3 24,-26 z"
   style="display:inline;fill:url(#p40_2_)" />
		
			<linearGradient
   id="Sky_Logo_2_"
   gradientUnits="userSpaceOnUse"
   x1="361.92249"
   y1="226.8058"
   x2="361.92249"
   y2="669.21973"
   gradientTransform="translate(0,-198)">
			<stop
   offset="0"
   style="stop-color:#002A91"
   id="stop27472" />
			<stop
   offset="0.8"
   style="stop-color:#002672"
   id="stop27474" />
		</linearGradient>
		<path
   id="Sky_Logo_1_"
   fill="url(#Sky_Logo_2_)"
   d="m 499.6,464.1 c 10.5,4.6 21.8,7.1 33.2,7.1 26.1,0.6 40.4,-9.4 50.9,-32.8 L 723.8,126.5 c -9.1,-4.1 -19,-6.4 -29,-6.7 -18.1,-0.4 -42.3,3.3 -57.6,40.1 l -45.3,106.8 -89,-144.6 c -9.8,-2.6 -19.9,-4 -30,-4.2 -31.5,0 -49,11.5 -67.2,31.3 l -86.5,94.4 69.5,109.4 c 12.9,19.9 29.8,30.1 57.3,30.1 13.7,0.2 27.3,-2.3 40,-7.5 l -83.8,-126 59.4,-62.9 97.4,152.7 z M 315.9,346.2 c 0,23 -9,36.2 -54,36.2 -5.4,0 -10.8,-0.4 -16.1,-1.1 V 76.2 c 0,-23.2 7.9,-47.4 53.2,-47.4 5.7,0 11.4,0.6 16.9,1.7 z m -92.8,-46.1 c 0,43 -28.1,74.2 -85.1,80.4 -41.3,4.4 -101.1,-0.8 -129.5,-4 -1,-4.9 -1.6,-9.9 -1.7,-15 0,-37.4 20.2,-46 39.2,-46 19.8,0 50.9,3.5 74,3.5 25.5,0 33.2,-8.6 33.2,-16.9 0,-10.7 -10.2,-15.2 -30,-19 L 69,272.7 C 24,264.1 0,233 0,200 c 0,-40.1 28.4,-73.6 84.3,-79.8 42.3,-4.6 93.8,0.6 122,4 1,4.7 1.5,9.5 1.5,14.4 0,37.4 -19.8,45.5 -38.8,45.5 -14.6,0 -37.3,-2.7 -63.2,-2.7 -26.3,0 -37.3,7.3 -37.3,16.1 0,9.4 10.4,13.2 26.9,16.1 l 51.7,9.6 c 53.1,9.7 76,39.9 76,76.9 z"
   style="fill:url(#Sky_Logo_2_)" />
		
			<linearGradient
   id="s25_2_"
   gradientUnits="userSpaceOnUse"
   x1="365.44949"
   y1="461.2478"
   x2="359.6001"
   y2="293.7514"
   gradientTransform="translate(0,-198)">
			<stop
   offset="0"
   style="stop-color:#FFFFFF"
   id="stop27478" />
			<stop
   offset="0.1203"
   style="stop-color:#FFFFFF;stop-opacity:0.8347"
   id="stop27480" />
			<stop
   offset="0.2693"
   style="stop-color:#FFFFFF;stop-opacity:0.6576"
   id="stop27482" />
			<stop
   offset="0.4195"
   style="stop-color:#FFFFFF;stop-opacity:0.5107"
   id="stop27484" />
			<stop
   offset="0.5684"
   style="stop-color:#FFFFFF;stop-opacity:0.3965"
   id="stop27486" />
			<stop
   offset="0.7156"
   style="stop-color:#FFFFFF;stop-opacity:0.3152"
   id="stop27488" />
			<stop
   offset="0.8603"
   style="stop-color:#FFFFFF;stop-opacity:0.2664"
   id="stop27490" />
			<stop
   offset="1"
   style="stop-color:#FFFFFF;stop-opacity:0.25"
   id="stop27492" />
		</linearGradient>
		<path
   id="s25_1_"
   opacity="0.25"
   fill="url(#s25_2_)"
   enable-background="new    "
   d="m 723.9,126.5 -51.3,114.2 c -4,8.2 -12.3,13.4 -21.4,13.4 l -46.8,1.6 c -5.1,0.3 -9.6,3.7 -11.4,8.5 v -0.1 l 44.2,-104.2 c 15.4,-36.8 39.6,-40.5 57.6,-40.1 10.1,0.3 19.9,2.6 29.1,6.7 z M 589.5,263 502.9,122.2 c -9.8,-2.6 -19.9,-4 -30,-4.2 -31.5,0 -49,11.5 -67.2,31.3 l -86.5,94.4 6.9,10.9 c 4.5,6.8 12.3,10.7 20.5,10.3 4.1,-0.1 45.9,-1.6 49.3,-1.7 8.5,-0.7 16.7,3 21.8,9.8 v 0 l -15.5,-23.3 59.4,-62.9 39.9,62.5 v 0 c 4.9,6.2 12.5,9.7 20.4,9.5 2.1,-0.1 54.3,-1.9 56.7,-2 4.4,0 8.6,2.4 10.9,6.2 z M 299,28.9 c -45.3,0 -53.2,24.2 -53.2,47.4 v 209 c 0,-9.6 7.7,-17.4 17.3,-17.7 l 35.1,-1.2 c 9.8,0 17.8,-8 17.8,-17.8 v 0 -218 c -5.7,-1.2 -11.3,-1.8 -17,-1.7 z M 147.2,223.1 95.5,213.5 C 79,210.6 68.6,206.8 68.6,197.4 c 0,-8.8 11,-16.1 37.3,-16.1 25.9,0 48.6,2.7 63.2,2.7 19,0 38.8,-8.1 38.8,-45.5 0,-4.8 -0.5,-9.7 -1.5,-14.4 -28.2,-3.5 -79.7,-8.6 -122,-4 -56,6.2 -84.4,39.8 -84.4,79.8 0.1,21.4 10.2,41.6 27.3,54.5 12.6,7.8 26.8,12.9 41.5,14.8 19.2,2.6 38.5,3.6 57.8,3 6.1,-0.2 51.7,-1.8 61.7,-2.2 23.1,-0.8 35.7,18.9 34.4,38.7 0,-0.3 0,-0.5 0.1,-0.8 v -0.2 c 0.2,-2.6 0.3,-5.2 0.3,-7.8 0,-36.8 -22.9,-67 -75.9,-76.8 z"
   style="fill:url(#s25_2_)" />
		<path
   fill="#ffffff"
   d="m 894.4,359.3 c -3,-20.6 3.4,-31.4 15.2,-31.4 11.2,0 38.7,12.3 77,12.3 40.3,0 55.5,-14.3 55.5,-32.9 0,-13.2 -5.9,-25 -42.2,-34.9 l -41.7,-11.2 c -46.1,-12.3 -64.3,-35.4 -64.3,-63.9 0,-35.3 28,-66.8 91.3,-66.8 28.5,0 63.9,6.4 85.4,14.8 3.9,20.1 -2.5,30.9 -14.7,30.9 -10.8,0 -35.3,-10.3 -70.2,-10.3 -37.3,0 -51.1,12.7 -51.1,29.4 0,11.7 5.4,22.6 38.8,31.9 l 42.7,11.8 c 47.7,13.2 66.8,35.3 66.8,66.7 0,36.9 -28.5,69.7 -97.2,69.7 -30.4,0.1 -68.3,-7.3 -91.3,-16.1"
   id="path27496" />
		<path
   fill="#ffffff"
   d="m 1365.6,252.8 c 0,77 -54,122.7 -113.4,122.7 -35.3,0 -64.3,-16.7 -81.5,-40.2 v 99.2 c 0,9.3 -5.4,15.2 -21.1,15.2 -7.9,0 -15.2,-1 -19.1,-1.9 V 135 c 3.9,-1 11.2,-2 19.1,-2 15.7,0 21.1,5.9 21.1,15.2 v 22.5 c 17.2,-23.5 46.2,-40.2 81.5,-40.2 59.4,0 113.4,45.7 113.4,122.3 m -40.7,0 c 0,-51.5 -34.3,-86.9 -80.5,-86.9 -31.4,0 -60.4,18.2 -73.6,44.7 v 84.9 c 13.2,26.5 42.2,44.7 73.6,44.7 46.1,-0.1 80.5,-35.4 80.5,-87.4"
   id="path27498" />
		<path
   fill="#ffffff"
   d="m 1403.3,252.8 c 0,-70.2 51.5,-122.2 120.7,-122.2 69.7,0 121.2,52 121.2,122.2 0,69.7 -51.5,122.7 -121.2,122.7 -69.2,-0.1 -120.7,-53.1 -120.7,-122.7 m 201.2,0 c 0,-54 -36.4,-86.9 -80.5,-86.9 -43.6,0 -80,32.9 -80,86.9 0,53.5 36.4,87.3 80,87.3 44.1,0 80.5,-33.8 80.5,-87.3"
   id="path27500" />
		<path
   fill="#ffffff"
   d="m 1839.8,152.6 c 0,16.2 -6.8,19.6 -23.6,19.6 -33.8,0 -62.3,15.7 -80,52.5 v 133.1 c 0,9.8 -5.4,15.2 -21.6,15.2 -6.9,0 -14.8,-1 -18.7,-1.9 V 134.9 c 3.9,-1 11.7,-1.9 18.7,-1.9 16.1,0 21.6,5.9 21.6,15.2 v 32.9 c 23,-34.9 57.9,-52.5 101.6,-46.6 0.5,3.4 2,10.8 2,18.1"
   id="path27502" />
		<path
   fill="#ffffff"
   d="m 2016.3,359.3 c -20.6,9.8 -44.2,16.2 -67.7,16.2 -46.6,0 -74.6,-27.5 -74.6,-73.1 V 99.7 c 0,-10.3 5.9,-17.2 21.6,-17.2 6.8,0 14.7,1.4 18.7,2.5 v 51 h 91.7 c 0.5,3.4 1.5,10.3 1.5,16.2 0,14.2 -5.9,19.1 -14.7,19.1 h -78.5 v 128.2 c 0,27.4 12.7,40.7 38.7,40.7 23.6,0 36.8,-10.3 48.1,-10.3 11.8,-0.1 17.7,9.7 15.2,29.4"
   id="path27504" />
	</g>
</g>
<path
   fill="#002a91"
   d="m 2790.95,252.5653 c 0,63.87 -44.71,101.72 -94,101.72 -29.24,0 -53.25,-13.85 -67.5,-33.34 v 82.16 c 0,7.73 -4.51,12.64 -17.48,12.64 a 68.74,68.74 0 0 1 -15.87,-1.68 v -259.13 a 72.27,72.27 0 0 1 15.87,-1.68 c 13,0 17.48,4.91 17.48,12.64 v 18.69 c 14.25,-19.5 38.26,-33.35 67.5,-33.35 49.29,0 94,37.86 94,101.33 m -33.75,0 c 0,-42.7 -28.51,-72 -66.7,-72 -26.09,0 -50.09,15.06 -61,37 v 70.32 c 11,22 35,37.05 61,37.05 38.19,0 66.7,-29.31 66.7,-72.41"
   id="path153" /><path
   fill="#002a91"
   d="m 3104.9254,265.3353 h -151.7 c 4.6,37.9 30.4,59.2 69.2,59.2 16.6999,0 29.5999,-3.3 42.0999,-7.5 8.8001,-2.9 12.1,-4.2 15.4001,-4.2 9.1999,0 15.4,7.9 13.8,25.8 -17.5,7.9 -44.2,16.2 -72.5,16.2 -60.8,0 -102.1,-41.2 -102.1,-102.1 0,-58.8 43.3,-100.8 96.7,-100.8 60.4,0 90,46.7 90,94.2 0.3,5.1 -0.1,12.2 -0.9,19.2 z m -151.7,-26.2 h 120 c -1.2,-33.3 -22.9,-59.6 -57.5,-59.6 -29.6,0.4 -57.1,20.8 -62.5,59.6 z"
   id="path157" /><path
   fill="#002a91"
   d="m 3199.9254,349.9353 -83.3001,-190.8 c 5,-2.9 14.2,-5.4 22.1,-5.4 10,0 15,2.9 18.8,11.7 l 33.8001,82.9 28.3,69.2 h 0.4 l 28.3,-69.2 33.8,-82.9 c 3.8,-8.8 8.3,-11.7 18.3,-11.7 7.5,0 16.2,2.5 21.7,5.4 l -78.8,180 c -5,10.8 -9.2,13.8 -22.9,13.8 -6,-0.1 -13.5,-1.3 -20.5,-3 z"
   id="path159" /><path
   fill="#002a91"
   d="m 3517.4254,265.3353 h -151.3001 c 4.6,37.9 30.4,59.2 69.2,59.2 16.7,0 29.6,-3.3 42.1,-7.5 8.8,-2.9 12.1,-4.2 15.4,-4.2 9.2,0 15.4,7.9 13.8,25.8 -17.5,7.9 -44.1999,16.2 -72.5,16.2 -60.8,0 -102.1,-41.2 -102.1,-102.1 0,-58.8 43.3001,-100.8 96.7,-100.8 60.4,0 90,46.7 90,94.2 -0.1,5.1 -0.5,12.2 -1.2999,19.2 z m -151.3001,-26.2 h 120 c -1.1999,-33.3 -22.9,-59.6 -57.5,-59.6 -30,0.4 -57.5,20.8 -62.5,59.6 z"
   id="path161" /><path
   fill="#002a91"
   d="m 3731.5253,234.5353 v 105.4 c 0,7.9 -4.6,12.5 -17.8999,12.5 -5.8,0 -12.1001,-0.8 -15.4,-1.7 v -111.6 c 0,-39.2 -19.2,-57.9 -47.9,-57.9 -22.5,0 -46.7,15.4 -56.7,33.8 v 125 c 0,7.9 -4.6,12.5 -17.9,12.5 -5.8,0 -12.1,-0.8 -15.4,-1.7 v -195.9 c 3.3,-0.8 9.6,-1.7 15.4,-1.7 13.3,0 17.9,5 17.9,12.5 v 16.7 c 14.2,-17.5 35.8,-31.2 64.6,-31.2 40,0.4 73.3,25.8 73.2999,83.3 z"
   id="path163" /><path
   fill="#002a91"
   d="m 3899.0253,341.2353 c -17.1,8.3 -36.6999,13.3 -56.1999,13.3 -38.8001,0 -61.7,-22.9 -61.7,-60.8 v -167.5 c 0,-8.8 5,-14.2 17.8999,-14.2 5.8001,0 12.1001,1.2 15.4,2.1 v 42.5 h 76.2 c 0.4,2.9 1.2,8.8 1.2,13.3 0,11.7 -5,15.8 -12.1,15.8 h -65 v 106.2 c 0,22.9 10.4,33.8 32.1,33.8 19.6,0 30.4,-8.8 40,-8.8 9.3,0.1 14.3,8 12.2,24.3 z"
   id="path165" /><path
   fill="#002a91"
   d="m 2353.2,252.3487 c 0,-58.3001 42.9,-101.2001 100,-101.2001 57.9,0 100.4,43.3 100.4,101.2001 0,57.9 -42.9,101.7 -100.4,101.7 -57.1,0.4 -100,-43.7 -100,-101.7 z m 167.1,0 c 0,-44.6001 -30,-72.1001 -66.7,-72.1001 -36.2,0 -66.2,27.1 -66.2,72.1001 0,44.2 30,72.5 66.2,72.5 36.2,0 66.7,-27.9 66.7,-72.5 z"
   id="path27522" /><path
   fill="#002a91"
   d="m 2339.1,340.5 c -17.1,8.2 -36.6,13.4 -56.1,13.4 -38.7,0 -61.8,-22.8 -61.8,-60.6 v -168 c 0,-8.5 4.9,-14.2 17.9,-14.2 5.7,0 12.2,1.3 15.5,2 v 42.3 h 76.1 c 0.4,2.8 1.2,8.5 1.2,13.4 0,11.8 -4.9,15.9 -12.2,15.9 h -65.1 v 106.2 c 0,22.8 10.6,33.8 32.1,33.8 19.5,0 30.5,-8.6 39.9,-8.6 9.6,0 14.5,8.2 12.5,24.4"
   id="path1915" /><path
   fill="#002a91"
   d="m 2353.2,252.3487 c 0,-58.3001 42.9,-101.2001 100,-101.2001 57.9,0 100.4,43.3 100.4,101.2001 0,57.9 -42.9,101.7 -100.4,101.7 -57.1,0.4 -100,-43.7 -100,-101.7 z m 167.1,0 c 0,-44.6001 -30,-72.1001 -66.7,-72.1001 -36.2,0 -66.2,27.1 -66.2,72.1001 0,44.2 30,72.5 66.2,72.5 36.2,0 66.7,-27.9 66.7,-72.5 z"
   id="path1917" /></svg>
