<?xml version="1.0" encoding="UTF-8" standalone="no"?>
<!-- Generator: Adobe Illustrator 23.0.1, SVG Export Plug-In . SVG Version: 6.00 Build 0)  -->

<svg
   version="1.1"
   id="Livello_1"
   x="0px"
   y="0px"
   viewBox="0 0 2889.6001 500"
   enable-background="new 0 0 2742.9323 500"
   xml:space="preserve"
   xmlns="http://www.w3.org/2000/svg"
   xmlns:svg="http://www.w3.org/2000/svg"><defs
   id="defs27513" />
<g
   id="g29552"><path
     id="Path_2_"
     fill="#ffffff"
     d="m 2856.3,499.99996 h -778.8 c -18.3,0 -33.3,-15 -33.3,-33.3 V 33.3 c 0,-18.3 15,-33.3 33.3,-33.3 h 778.8 c 18.3,0 33.3,15 33.3,33.3 v 433.29996 c 0,18.4 -15,33.4 -33.3,33.4 z" /><path
     id="XMLID_262_"
     fill="#002a91"
     d="m 2797.95,129.55 c -4.6,2.1 -9.6,4.6 -13.3,7.9 -1.7,-0.8 -1.2,1.2 -2.1,1.7 -4.6,3.3 -8.3,7.9 -12.9,11.2 0.8,0.4 0.4,1.2 0,1.2 l -2.1,1.7 0.4,0.4 c -5.8,5.4 -12.1,12.5 -17.9,18.8 -0.4,1.7 -0.8,3.7 -2.5,4.6 l 0.4,0.4 c -2.1,1.7 -2.9,2.5 -4.2,4.6 0.4,-0.4 0,-0.8 -0.4,-0.8 l -0.8,0.8 0.4,0.4 h -0.4 c -0.4,0 -0.4,0.4 -0.8,0.8 1.7,2.1 -1.7,2.1 -2.1,3.3 -0.4,-0.4 -0.4,-0.8 -0.8,-0.4 l -0.4,0.4 c 0.4,0.4 0.4,0.4 0.4,0.8 l -0.4,-0.4 c -0.4,0.4 -1.2,0.8 -1.2,1.2 l 0.4,0.4 -0.8,0.8 c 0,1.2 0,-0.4 -0.4,-0.4 -2.1,0.4 0.4,1.7 -1.2,2.5 l -0.8,-0.8 c -0.4,0.4 -0.8,0.4 -0.4,0.8 l 0.8,0.8 c -0.4,0 -1.2,0 -1.2,-0.4 -0.4,0.4 -0.8,0.4 -0.4,0.8 0.4,0.4 0.4,0.8 0.8,0.4 -4.2,1.7 -4.6,7.1 -8.8,9.6 -3.8,4.2 -4.6,8.3 -8.3,12.5 l 0.4,0.4 c 1.7,-2.1 3.3,-3.3 4.6,-5.4 -2.1,5 -7.1,8.3 -8.3,14.2 l 0.4,0.4 c -0.4,0.4 -0.4,0.4 -0.4,0.8 l 0.4,0.4 c 1.2,-1.7 2.5,-2.5 3.3,-3.8 -1.7,6.7 -7.5,10 -10,16.2 0,0.8 0.4,1.7 1.2,2.5 0,-0.4 0.4,0.4 0.4,0.4 l 3.3,4.2 c -0.8,-0.4 -0.8,0 -1.3,0 0.8,1.7 1.7,2.1 2.5,3.8 0.4,0.4 0.4,1.2 0.8,1.7 h 0.4 c 0,0.8 0,1.2 0.4,2.1 0,0.4 0.4,0.4 0.4,0.8 0.4,0.8 1.2,2.1 1.7,2.9 l 1.2,4.6 c 0.8,0.8 1.2,2.1 1.7,2.9 1.7,3.3 4.6,5.4 6.7,8.3 2.9,3.8 5,10 6.7,13.3 3.8,7.5 9.2,11.7 12.5,19.6 1.7,4.2 4.6,7.5 7.1,11.2 0.8,1.2 2.1,2.5 2.9,3.8 0.4,0.4 1.2,0.8 1.7,1.7 1.7,2.1 4.6,5 3.3,6.2 -0.4,0.8 2.1,3.8 3.7,6.3 0.4,0.4 0.8,0.8 0.8,1.2 1.2,1.7 1.2,3.29996 1.2,3.29996 0,0.4 0.4,0.4 0.4,0.8 1.2,0.8 3.7,5.8 4.6,8.3 v 0 c 0,0.4 0.4,0.8 0.4,0.8 0,0.4 0.4,0.4 0.4,0.4 v 0 c 0.8,2.5 0.8,5.4 0.8,7.9 0,1.7 -0.4,3.7 -0.8,5.8 h -0.4 c -0.4,1.7 0.4,2.9 -0.8,3.8 l -0.8,-0.4 c 0.8,1.7 -1.2,0.8 -2.1,1.2 -2.1,-1.2 -2.1,2.1 -5,1.3 -2.5,2.1 -5.4,-2.5 -8.3,-0.8 -0.4,-3.8 -5,-4.6 -5.4,-7.9 -2.5,-2.9 -6.2,-5.4 -7.9,-8.8 -2.5,-3.8 -2.9,-7.9 -5.4,-12.1 -1.2,-2.09996 -0.4,1.7 -1.7,-0.4 l 0.4,2.9 -1.2,-2.1 v 0 c -1.2,-1.69996 -3.7,-2.49996 -4.6,-4.19996 0,-0.4 -0.4,-0.4 -0.4,-0.8 -2.9,-4.2 -5.8,-7.5 -8.3,-11.7 l 0.4,-0.4 c 1.2,0.4 2.1,2.1 2.9,2.9 l 0.4,-0.4 c -2.5,-3.3 -5,-6.7 -7.5,-10 -6.2,-5.8 -9.2,-12.9 -12.9,-20.4 -3.3,-6.2 -8.8,-9.6 -12.9,-15.4 -1.7,-2.1 -2.9,-4.2 -4.2,-5.8 0,0.8 1.2,2.1 0.8,2.9 0.8,1.7 3.3,3.8 3.8,5.8 -0.8,-2.9 -4.2,-5.4 -6.3,-6.2 l -0.4,0.4 -1.7,-2.1 c -1.2,1.2 -1.7,3.8 -3.3,3.8 0.8,2.1 -1.7,2.1 -2.5,3.7 0.4,1.7 -0.8,3.3 -1.7,5 -1.7,0.8 -2.1,2.5 -2.5,3.8 l -0.4,-0.4 c -0.4,0.4 -0.8,0.4 -0.4,0.8 0,2.1 -2.1,4.2 -3.3,6.2 -6.2,8.8 -10.8,18.8 -16.7,27.9 -4.2,6.2 -8.8,12.5 -15.4,17.09996 -2.1,3.8 -6.3,7.9 -10.8,7.9 l -0.4,-0.4 c -0.4,1.2 -1.2,0 -1.7,0 -0.4,-1.3 -3.8,0 -5,-1.3 -2.5,0 -3.3,-3.3 -5.8,-3.7 1.7,-2.1 -0.8,-4.2 0.8,-5.8 0.8,-0.79996 2.1,-2.89996 3.3,-3.79996 0,-1.2 0.4,-3.3 1.3,-4.6 l 0.4,0.4 c 0.4,-0.4 0.8,-0.4 0.4,-0.8 -0.4,-0.4 -0.4,-0.8 -0.8,-0.4 l 0.8,-0.8 -0.4,-0.4 c 0.4,-2.1 1.7,-3.8 2.5,-5.4 2.9,-4.2 7.1,-7.5 8.8,-12.5 12.9,-18.7 23.3,-38.7 37.5,-56.7 1.2,-1.7 2.1,-3.8 1.7,-5.4 -0.4,0.4 -0.4,0.4 -0.8,0.4 -0.4,-0.4 -0.4,-0.4 -0.4,-0.8 l 0.4,0.4 c 0.8,-1.7 -0.8,-3.8 -1.7,-5.8 -0.4,-0.4 -0.8,0 -0.8,0.4 l 0.4,2.9 c -2.1,-4.2 -6.2,-7.9 -7.5,-11.7 -3.3,-0.8 -2.9,-5 -5.8,-7.1 -3.3,-7.1 -7.9,-12.5 -11.7,-19.6 -1.2,0.8 0,1.7 0.4,2.9 -5.4,-9.2 -10.8,-19.6 -16.7,-29.2 0,0 0,-0.4 -0.4,-0.4 -1.7,-3.8 -1.7,-7.9 0.4,-11.2 0.8,-2.5 4.2,-4.6 5.8,-5.4 -1.2,-0.8 0.4,-1.7 0.8,-2.5 2.1,-2.1 2.9,-5.8 6.2,-6.2 -0.8,-0.4 0,-1.7 0.4,-2.1 1.2,0 2.1,-1.2 2.9,-2.1 1.2,0.4 2.5,0.4 3.3,1.7 5.8,7.1 10.8,14.6 15.4,22.5 5.4,8.8 10.4,17.5 17.1,25.4 l -0.4,0.4 c 0.4,0.4 1.2,1.7 1.2,1.7 l 0.4,-0.4 c 3.8,6.7 8.8,12.1 13.8,18.3 h 0.8 c 7.9,-8.3 14.2,-17.5 22.1,-25 1.7,-2.5 3.8,-5.8 6.7,-6.7 l 0.4,-0.4 -0.4,-0.4 c 1.7,-1.2 2.5,-3.8 4.6,-4.2 l -0.4,-0.4 c 0.8,-0.8 1.7,-1.7 2.5,-2.5 21.7,-22.5 42.1,-45.8 70.8,-58.7 1.7,-1.7 3.3,-2.1 5.4,-2.9 0,0.8 -1.2,1.2 0,1.7 0.9,0 -3.7,5 -6.6,7.9" /><path
     id="Shape"
     fill="#002a91"
     d="m 2540.05,110.45 c 0,-12.1 9.6,-21.2 21.2,-21.2 12.1,0 21.7,8.8 21.7,21.2 0,10.8 -9.2,21.2 -21.7,21.2 -11.6,-0.4 -21.2,-10.4 -21.2,-21.2 z m 4.6,239.99996 V 165.45 c 0,-7.9 4.6,-12.5 17.9,-12.5 5.8,0 11.7,0.8 15,1.7 v 184.59996 c 0,8.3 -4.2,12.5 -17.5,12.5 -5.8,0.3 -12.5,-0.5 -15.4,-1.3 z" /><path
     fill="#002a91"
     d="m 2493.35,221.65 v 117.49996 c 0,8.3 -4.6,12.5 -17.9,12.5 -5.8,0 -12.1,-0.8 -15.4,-1.7 V 225.85 c 0,-28.3 -13.3,-45 -39.2,-45 -21.7,0 -39.6,15 -46.7,30.4 v 128.29996 c 0,8.3 -4.6,12.5 -17.9,12.5 -5.8,0 -12.1,-0.8 -15.4,-1.7 V 225.85 c 0,-28.3 -13.3,-45 -39.2,-45 -21.7,0 -39.6,15 -46.7,30.4 v 128.29996 c 0,8.3 -4.6,12.5 -17.9,12.5 -5.8,0 -12.1,-0.8 -15.4,-1.7 V 154.55 c 3.3,-0.8 9.6,-1.7 15.8,-1.7 12.5,0 17.1,5 17.1,13.3 v 13.4 c 12.5,-16.7 32.1,-28.8 55.8,-28.8 25.8,0 46.2,12.9 56.7,35.4 13.3,-20.4 33.8,-35.4 62.5,-35.4 41.7,0.1 63.8,31.3 63.8,70.9 z"
     id="path28975" /><path
     id="Path_1_"
     fill="#002a91"
     d="m 2856.3,10 c 12.8,0 23.3,10.4 23.3,23.3 v 433.29996 c 0,12.9 -10.4,23.4 -23.3,23.4 h -778.8 c -12.8,0 -23.3,-10.4 -23.3,-23.3 V 33.3 c 0,-12.8 10.4,-23.3 23.3,-23.3 h 778.8 m 0,-10 h -778.8 c -18.3,0 -33.3,15 -33.3,33.3 v 433.39996 c 0,18.3 15,33.3 33.3,33.3 h 778.8 c 18.3,0 33.3,-15 33.3,-33.4 V 33.3 C 2889.6,15 2874.6,0 2856.3,0 Z" /></g><g
   id="g27508">
	
	<g
   id="g27506">
		
			<linearGradient
   id="Plinth_2_"
   gradientUnits="userSpaceOnUse"
   x1="1456.6582"
   y1="198"
   x2="1456.6582"
   y2="698"
   gradientTransform="translate(0,-198)">
			<stop
   offset="0.4"
   style="stop-color:#FF0000"
   id="stop27448" />
			<stop
   offset="1"
   style="stop-color:#D42321"
   id="stop27450" />
		</linearGradient>
		<path
   id="Plinth_1_"
   fill="url(#Plinth_2_)"
   d="m 832.1,0 h 1249.2 c 18.4,0 33.3,14.9 33.3,33.3 v 433.4 c 0,18.4 -14.9,33.3 -33.3,33.3 H 832.1 c -18.4,0 -33.3,-14.9 -33.3,-33.3 V 33.3 C 798.8,14.9 813.7,0 832.1,0 Z"
   style="fill:url(#Plinth_2_)" />
		
			<linearGradient
   id="p40_2_"
   gradientUnits="userSpaceOnUse"
   x1="1459.4656"
   y1="431.7283"
   x2="1450.7686"
   y2="182.67461"
   gradientTransform="translate(0,-198)">
			<stop
   offset="0"
   style="stop-color:#FFFFFF"
   id="stop27454" />
			<stop
   offset="0.1203"
   style="stop-color:#FFFFFF;stop-opacity:0.8347"
   id="stop27456" />
			<stop
   offset="0.2693"
   style="stop-color:#FFFFFF;stop-opacity:0.6576"
   id="stop27458" />
			<stop
   offset="0.4195"
   style="stop-color:#FFFFFF;stop-opacity:0.5107"
   id="stop27460" />
			<stop
   offset="0.5684"
   style="stop-color:#FFFFFF;stop-opacity:0.3965"
   id="stop27462" />
			<stop
   offset="0.7156"
   style="stop-color:#FFFFFF;stop-opacity:0.3152"
   id="stop27464" />
			<stop
   offset="0.8603"
   style="stop-color:#FFFFFF;stop-opacity:0.2664"
   id="stop27466" />
			<stop
   offset="1"
   style="stop-color:#FFFFFF;stop-opacity:0.25"
   id="stop27468" />
		</linearGradient>
		<path
   id="p40_1_"
   opacity="0.4"
   fill="url(#p40_2_)"
   enable-background="new    "
   d="m 822.8,248 c 0,0 1.1,-0.1 3.2,-0.2 98.6,-3.5 1263.7,-44.1 1263.7,-44.1 13.9,-0.1 25,-11.5 24.9,-25.3 V 33.3 C 2114.6,14.9 2099.7,0 2081.3,0 H 832.1 C 813.7,0 798.8,14.9 798.8,33.3 V 274 c -0.4,-13.7 10.3,-25.3 24,-26 z"
   style="display:inline;fill:url(#p40_2_)" />
		
			<linearGradient
   id="Sky_Logo_2_"
   gradientUnits="userSpaceOnUse"
   x1="361.92249"
   y1="226.8058"
   x2="361.92249"
   y2="669.21973"
   gradientTransform="translate(0,-198)">
			<stop
   offset="0"
   style="stop-color:#002A91"
   id="stop27472" />
			<stop
   offset="0.8"
   style="stop-color:#002672"
   id="stop27474" />
		</linearGradient>
		<path
   id="Sky_Logo_1_"
   fill="url(#Sky_Logo_2_)"
   d="m 499.6,464.1 c 10.5,4.6 21.8,7.1 33.2,7.1 26.1,0.6 40.4,-9.4 50.9,-32.8 L 723.8,126.5 c -9.1,-4.1 -19,-6.4 -29,-6.7 -18.1,-0.4 -42.3,3.3 -57.6,40.1 l -45.3,106.8 -89,-144.6 c -9.8,-2.6 -19.9,-4 -30,-4.2 -31.5,0 -49,11.5 -67.2,31.3 l -86.5,94.4 69.5,109.4 c 12.9,19.9 29.8,30.1 57.3,30.1 13.7,0.2 27.3,-2.3 40,-7.5 l -83.8,-126 59.4,-62.9 97.4,152.7 z M 315.9,346.2 c 0,23 -9,36.2 -54,36.2 -5.4,0 -10.8,-0.4 -16.1,-1.1 V 76.2 c 0,-23.2 7.9,-47.4 53.2,-47.4 5.7,0 11.4,0.6 16.9,1.7 z m -92.8,-46.1 c 0,43 -28.1,74.2 -85.1,80.4 -41.3,4.4 -101.1,-0.8 -129.5,-4 -1,-4.9 -1.6,-9.9 -1.7,-15 0,-37.4 20.2,-46 39.2,-46 19.8,0 50.9,3.5 74,3.5 25.5,0 33.2,-8.6 33.2,-16.9 0,-10.7 -10.2,-15.2 -30,-19 L 69,272.7 C 24,264.1 0,233 0,200 c 0,-40.1 28.4,-73.6 84.3,-79.8 42.3,-4.6 93.8,0.6 122,4 1,4.7 1.5,9.5 1.5,14.4 0,37.4 -19.8,45.5 -38.8,45.5 -14.6,0 -37.3,-2.7 -63.2,-2.7 -26.3,0 -37.3,7.3 -37.3,16.1 0,9.4 10.4,13.2 26.9,16.1 l 51.7,9.6 c 53.1,9.7 76,39.9 76,76.9 z"
   style="fill:url(#Sky_Logo_2_)" />
		
			<linearGradient
   id="s25_2_"
   gradientUnits="userSpaceOnUse"
   x1="365.44949"
   y1="461.2478"
   x2="359.6001"
   y2="293.7514"
   gradientTransform="translate(0,-198)">
			<stop
   offset="0"
   style="stop-color:#FFFFFF"
   id="stop27478" />
			<stop
   offset="0.1203"
   style="stop-color:#FFFFFF;stop-opacity:0.8347"
   id="stop27480" />
			<stop
   offset="0.2693"
   style="stop-color:#FFFFFF;stop-opacity:0.6576"
   id="stop27482" />
			<stop
   offset="0.4195"
   style="stop-color:#FFFFFF;stop-opacity:0.5107"
   id="stop27484" />
			<stop
   offset="0.5684"
   style="stop-color:#FFFFFF;stop-opacity:0.3965"
   id="stop27486" />
			<stop
   offset="0.7156"
   style="stop-color:#FFFFFF;stop-opacity:0.3152"
   id="stop27488" />
			<stop
   offset="0.8603"
   style="stop-color:#FFFFFF;stop-opacity:0.2664"
   id="stop27490" />
			<stop
   offset="1"
   style="stop-color:#FFFFFF;stop-opacity:0.25"
   id="stop27492" />
		</linearGradient>
		<path
   id="s25_1_"
   opacity="0.25"
   fill="url(#s25_2_)"
   enable-background="new    "
   d="m 723.9,126.5 -51.3,114.2 c -4,8.2 -12.3,13.4 -21.4,13.4 l -46.8,1.6 c -5.1,0.3 -9.6,3.7 -11.4,8.5 v -0.1 l 44.2,-104.2 c 15.4,-36.8 39.6,-40.5 57.6,-40.1 10.1,0.3 19.9,2.6 29.1,6.7 z M 589.5,263 502.9,122.2 c -9.8,-2.6 -19.9,-4 -30,-4.2 -31.5,0 -49,11.5 -67.2,31.3 l -86.5,94.4 6.9,10.9 c 4.5,6.8 12.3,10.7 20.5,10.3 4.1,-0.1 45.9,-1.6 49.3,-1.7 8.5,-0.7 16.7,3 21.8,9.8 v 0 l -15.5,-23.3 59.4,-62.9 39.9,62.5 v 0 c 4.9,6.2 12.5,9.7 20.4,9.5 2.1,-0.1 54.3,-1.9 56.7,-2 4.4,0 8.6,2.4 10.9,6.2 z M 299,28.9 c -45.3,0 -53.2,24.2 -53.2,47.4 v 209 c 0,-9.6 7.7,-17.4 17.3,-17.7 l 35.1,-1.2 c 9.8,0 17.8,-8 17.8,-17.8 v 0 -218 c -5.7,-1.2 -11.3,-1.8 -17,-1.7 z M 147.2,223.1 95.5,213.5 C 79,210.6 68.6,206.8 68.6,197.4 c 0,-8.8 11,-16.1 37.3,-16.1 25.9,0 48.6,2.7 63.2,2.7 19,0 38.8,-8.1 38.8,-45.5 0,-4.8 -0.5,-9.7 -1.5,-14.4 -28.2,-3.5 -79.7,-8.6 -122,-4 -56,6.2 -84.4,39.8 -84.4,79.8 0.1,21.4 10.2,41.6 27.3,54.5 12.6,7.8 26.8,12.9 41.5,14.8 19.2,2.6 38.5,3.6 57.8,3 6.1,-0.2 51.7,-1.8 61.7,-2.2 23.1,-0.8 35.7,18.9 34.4,38.7 0,-0.3 0,-0.5 0.1,-0.8 v -0.2 c 0.2,-2.6 0.3,-5.2 0.3,-7.8 0,-36.8 -22.9,-67 -75.9,-76.8 z"
   style="fill:url(#s25_2_)" />
		<path
   fill="#ffffff"
   d="m 894.4,359.3 c -3,-20.6 3.4,-31.4 15.2,-31.4 11.2,0 38.7,12.3 77,12.3 40.3,0 55.5,-14.3 55.5,-32.9 0,-13.2 -5.9,-25 -42.2,-34.9 l -41.7,-11.2 c -46.1,-12.3 -64.3,-35.4 -64.3,-63.9 0,-35.3 28,-66.8 91.3,-66.8 28.5,0 63.9,6.4 85.4,14.8 3.9,20.1 -2.5,30.9 -14.7,30.9 -10.8,0 -35.3,-10.3 -70.2,-10.3 -37.3,0 -51.1,12.7 -51.1,29.4 0,11.7 5.4,22.6 38.8,31.9 l 42.7,11.8 c 47.7,13.2 66.8,35.3 66.8,66.7 0,36.9 -28.5,69.7 -97.2,69.7 -30.4,0.1 -68.3,-7.3 -91.3,-16.1"
   id="path27496" />
		<path
   fill="#ffffff"
   d="m 1365.6,252.8 c 0,77 -54,122.7 -113.4,122.7 -35.3,0 -64.3,-16.7 -81.5,-40.2 v 99.2 c 0,9.3 -5.4,15.2 -21.1,15.2 -7.9,0 -15.2,-1 -19.1,-1.9 V 135 c 3.9,-1 11.2,-2 19.1,-2 15.7,0 21.1,5.9 21.1,15.2 v 22.5 c 17.2,-23.5 46.2,-40.2 81.5,-40.2 59.4,0 113.4,45.7 113.4,122.3 m -40.7,0 c 0,-51.5 -34.3,-86.9 -80.5,-86.9 -31.4,0 -60.4,18.2 -73.6,44.7 v 84.9 c 13.2,26.5 42.2,44.7 73.6,44.7 46.1,-0.1 80.5,-35.4 80.5,-87.4"
   id="path27498" />
		<path
   fill="#ffffff"
   d="m 1403.3,252.8 c 0,-70.2 51.5,-122.2 120.7,-122.2 69.7,0 121.2,52 121.2,122.2 0,69.7 -51.5,122.7 -121.2,122.7 -69.2,-0.1 -120.7,-53.1 -120.7,-122.7 m 201.2,0 c 0,-54 -36.4,-86.9 -80.5,-86.9 -43.6,0 -80,32.9 -80,86.9 0,53.5 36.4,87.3 80,87.3 44.1,0 80.5,-33.8 80.5,-87.3"
   id="path27500" />
		<path
   fill="#ffffff"
   d="m 1839.8,152.6 c 0,16.2 -6.8,19.6 -23.6,19.6 -33.8,0 -62.3,15.7 -80,52.5 v 133.1 c 0,9.8 -5.4,15.2 -21.6,15.2 -6.9,0 -14.8,-1 -18.7,-1.9 V 134.9 c 3.9,-1 11.7,-1.9 18.7,-1.9 16.1,0 21.6,5.9 21.6,15.2 v 32.9 c 23,-34.9 57.9,-52.5 101.6,-46.6 0.5,3.4 2,10.8 2,18.1"
   id="path27502" />
		<path
   fill="#ffffff"
   d="m 2016.3,359.3 c -20.6,9.8 -44.2,16.2 -67.7,16.2 -46.6,0 -74.6,-27.5 -74.6,-73.1 V 99.7 c 0,-10.3 5.9,-17.2 21.6,-17.2 6.8,0 14.7,1.4 18.7,2.5 v 51 h 91.7 c 0.5,3.4 1.5,10.3 1.5,16.2 0,14.2 -5.9,19.1 -14.7,19.1 h -78.5 v 128.2 c 0,27.4 12.7,40.7 38.7,40.7 23.6,0 36.8,-10.3 48.1,-10.3 11.8,-0.1 17.7,9.7 15.2,29.4"
   id="path27504" />
	</g>
</g>
</svg>
