<?xml version="1.0" encoding="UTF-8" standalone="no"?>
<svg
   xmlns:dc="http://purl.org/dc/elements/1.1/"
   xmlns:cc="http://creativecommons.org/ns#"
   xmlns:rdf="http://www.w3.org/1999/02/22-rdf-syntax-ns#"
   xmlns:svg="http://www.w3.org/2000/svg"
   xmlns="http://www.w3.org/2000/svg"
   xmlns:sodipodi="http://sodipodi.sourceforge.net/DTD/sodipodi-0.dtd"
   xmlns:inkscape="http://www.inkscape.org/namespaces/inkscape"
   version="1.1"
   width="1000"
   height="290.0062"
   viewBox="-0.4449225 -0.4449225 50.704488 14.706677"
   id="svg3699"
   sodipodi:docname="WDR 2012.svg"
   inkscape:version="1.0.1 (3bc2e813f5, 2020-09-07)">
  <metadata
     id="metadata10333">
    <rdf:RDF>
      <cc:Work
         rdf:about="">
        <dc:format>image/svg+xml</dc:format>
        <dc:type
           rdf:resource="http://purl.org/dc/dcmitype/StillImage" />
        <dc:title></dc:title>
      </cc:Work>
    </rdf:RDF>
  </metadata>
  <sodipodi:namedview
     pagecolor="#ffffff"
     bordercolor="#666666"
     borderopacity="1"
     objecttolerance="10"
     gridtolerance="10"
     guidetolerance="10"
     inkscape:pageopacity="0"
     inkscape:pageshadow="2"
     inkscape:window-width="1600"
     inkscape:window-height="837"
     id="namedview10331"
     showgrid="false"
     inkscape:zoom="0.38583845"
     inkscape:cx="325.28494"
     inkscape:cy="258.67033"
     inkscape:window-x="-8"
     inkscape:window-y="-8"
     inkscape:window-maximized="1"
     inkscape:current-layer="svg3699" />
  <defs
     id="defs3701" />
  <path
     d="m 30.544693,14.292842 h 3.707856 V 9.5502651 h 0.283213 c 0.422336,0 1.486869,-0.023551 2.065717,0.9129899 l 2.278127,3.829587 h 3.989827 L 40.793779,10.806091 C 40.108105,9.6372165 39.544163,9.0111665 39.100711,8.6894463 v -0.038557 c 1.250858,-0.4434522 2.619721,-1.5129544 2.619721,-3.6917081 0,-2.6992198 -1.934047,-4.0904422 -5.359932,-4.0904422 h -5.815807 v 4.6593531 h -0.03726 C 29.803122,2.7170776 27.431833,0.8687393 23.100411,0.8687393 H 14.899652 L 13.650036,6.3504039 C 13.38794,7.47953 13.165593,8.9117438 13.165593,8.9117438 h -0.03975 c 0,0 -0.281971,-1.5924528 -0.544067,-2.722821 L 11.512274,0.8687393 H 7.0106756 L 5.9411734,6.1889228 C 5.6790771,7.319291 5.3971061,8.9117438 5.3971061,8.9117438 H 5.356065 c 0,0 -0.221105,-1.4322138 -0.4832013,-2.5613399 L 3.6232478,0.8687393 H -0.44856205 L 3.1388043,14.292794 h 4.095411 L 9.2701202,5.6858468 h 0.021166 0.018682 l 2.0359048,8.6069462 h 4.030818 l 2.98616,-11.1459271 h 0.03975 V 4.1890406 14.292794 h 4.57737 c 4.392288,0 6.815748,-2.014788 7.528749,-4.8953646 h 0.03597 V 14.292794 Z M 23.281767,11.249544 H 22.153883 V 3.9120879 h 1.027269 c 2.459482,0 3.567491,1.0881347 3.567491,3.5886085 0,2.4582401 -1.108009,3.7488466 -3.466876,3.7488466 M 36.279759,6.7131652 h -2.02721 V 3.7108576 h 1.905478 c 1.270733,0 1.794925,0.5030759 1.794925,1.51047 0,0.9278956 -0.544067,1.4918376 -1.673193,1.4918376"
     id="path3491"
     style="fill:#00375a;fill-opacity:1;fill-rule:nonzero;stroke:none;stroke-width:0.99373" />
  <path
     d="M 48.207255,4.4106921 V 0.9500264 L 44.74659,2.1996422 V 3.0592189 L 45.891864,2.6430944 V 5.2429412 Z M 46.82597,-0.4449225 c 1.898025,0 3.437065,1.5477349 3.437065,3.4556971 0,1.9092043 -1.53904,3.455697 -3.437065,3.455697 -1.898025,0 -3.437064,-1.5464927 -3.437064,-3.455697 0,-1.9079622 1.539039,-3.4556971 3.437064,-3.4556971 m 0,0.50680245 c -1.61978,0 -2.932746,1.32041915 -2.932746,2.94889465 0,1.6284755 1.312966,2.9488946 2.932746,2.9488946 1.619781,0 2.933989,-1.3204191 2.933989,-2.9488946 0,-1.6284755 -1.314208,-2.94889465 -2.933989,-2.94889465"
     id="path3495"
     style="fill:#00375a;fill-opacity:1;fill-rule:nonzero;stroke:none;stroke-width:0.99373" />
</svg>
