<?xml version="1.0" encoding="UTF-8" standalone="no"?>
<svg
   sodipodi:docname="ZDF_logo.svg"
   inkscape:version="1.2.2 (732a01da63, 2022-12-09)"
   id="svg3009"
   version="1.1"
   viewBox="0 0 264.58335 154.78125"
   height="585"
   width="1000"
   xmlns:inkscape="http://www.inkscape.org/namespaces/inkscape"
   xmlns:sodipodi="http://sodipodi.sourceforge.net/DTD/sodipodi-0.dtd"
   xmlns="http://www.w3.org/2000/svg"
   xmlns:svg="http://www.w3.org/2000/svg"
   xmlns:rdf="http://www.w3.org/1999/02/22-rdf-syntax-ns#"
   xmlns:cc="http://creativecommons.org/ns#"
   xmlns:dc="http://purl.org/dc/elements/1.1/">
  <defs
     id="defs3003" />
  <sodipodi:namedview
     inkscape:window-maximized="1"
     inkscape:window-y="-8"
     inkscape:window-x="-8"
     inkscape:window-height="1017"
     inkscape:window-width="1920"
     units="px"
     showgrid="false"
     inkscape:document-rotation="0"
     inkscape:current-layer="layer1"
     inkscape:document-units="px"
     inkscape:cy="400.07358"
     inkscape:cx="367.04425"
     inkscape:zoom="1.0748023"
     inkscape:pageshadow="2"
     inkscape:pageopacity="0.0"
     borderopacity="1.0"
     bordercolor="#666666"
     pagecolor="#ffffff"
     id="base"
     inkscape:showpageshadow="2"
     inkscape:pagecheckerboard="0"
     inkscape:deskcolor="#d1d1d1" />
  <metadata
     id="metadata3006">
    <rdf:RDF>
      <cc:Work
         rdf:about="">
        <dc:format>image/svg+xml</dc:format>
        <dc:type
           rdf:resource="http://purl.org/dc/dcmitype/StillImage" />
        <dc:title />
      </cc:Work>
    </rdf:RDF>
  </metadata>
  <g
     id="layer1"
     inkscape:groupmode="layer"
     inkscape:label="Layer 1">
    <g
       id="g11128"
       transform="matrix(6.850559,0,0,6.850559,1781.5879,-4090.8091)">
      <path
         d="m -225.26334,605.20957 h 3.76096 v -1.78153 h -4.5279 c -2.43594,0 -3.435,1.36278 -3.435,3.49779 l -0.001,0.20955 c -0.40819,-2.51319 -1.90291,-3.70734 -4.64152,-3.70734 h -4.58832 c -1.84538,-3.70381 -5.66772,-6.24664 -10.08697,-6.24664 -6.217,0 -11.2642,5.04367 -11.2642,11.26702 0,6.22159 5.0472,11.25996 11.2642,11.25996 4.39173,0 8.19185,-2.50825 10.04923,-6.16832 h 4.681 c 1.11937,0 2.12584,-0.0667 3.15454,-0.88582 0.73978,-0.58914 1.2058,-1.41641 1.42029,-2.50296 v 3.37573 h 2.14559 l 0.002,-3.97263 h 5.06624 v -1.76848 h -5.06871 l 0.0286,-0.71614 c 0,-1.15993 0.34854,-1.86019 2.04082,-1.86019 z m -8.88789,6.54791 h -2.3682 v -6.54791 h 2.3682 c 1.86126,0 2.52906,0.79586 2.52906,3.27413 0,2.4765 -0.6678,3.27378 -2.52906,3.27378"
         style="fill:#fa7d19;fill-opacity:1;fill-rule:nonzero;stroke:none;stroke-width:0.352777"
         id="path10186" />
      <path
         d="m -243.7937,607.61551 h 1.39806 c 1.1116,0 1.76741,-0.2226 1.76741,-1.16593 0,-0.96908 -0.65581,-1.24001 -1.79493,-1.24001 h -4.74345 v -1.78153 h 5.51885 c 2.79965,0 3.19511,1.95968 3.19511,3.05117 0,1.16241 -0.47378,3.00849 -3.19934,3.00849 h -1.35361 c -1.69509,0 -2.05987,0.61278 -2.05987,1.7713 v 0.54187 h 6.33519 v 1.72614 h -8.49913 v -2.50896 c 0,-2.13254 1.0026,-3.40254 3.43571,-3.40254"
         style="fill:#ffffff;fill-opacity:1;fill-rule:nonzero;stroke:none;stroke-width:0.352777"
         id="path10188" />
    </g>
  </g>
</svg>
