<?xml version="1.0" encoding="utf-8"?>
<!-- Generator: Adobe Illustrator 22.1.0, SVG Export Plug-In . SVG Version: 6.00 Build 0)  -->
<svg version="1.1" xmlns="http://www.w3.org/2000/svg" xmlns:xlink="http://www.w3.org/1999/xlink" x="0px" y="0px"
	 viewBox="0 0 233.9 27" style="enable-background:new 0 0 233.9 27;" xml:space="preserve">
<style type="text/css">
	.Arched_x0020_Green{fill:url(#SVGID_1_);stroke:#FFFFFF;stroke-width:0.25;stroke-miterlimit:1;}
	.st0{fill:#6FB62C;}
	.st1{fill:#FFFFFF;}
	.st2{fill:#9C9795;}
</style>
<linearGradient id="SVGID_1_" gradientUnits="userSpaceOnUse" x1="249.0528" y1="615.7559" x2="249.7599" y2="615.0488">
	<stop  offset="0" style="stop-color:#1DA238"/>
	<stop  offset="0.9831" style="stop-color:#24391D"/>
</linearGradient>
<g id="Logo">
	<g>
		<rect x="107.6" class="st0" width="100.9" height="26.6"/>
		<path class="st1" d="M125.6,6.5v1.2h2.7c1.9,0,2.8,0.9,2.8,2.8v5.7c0,1.9-1,2.8-2.8,2.8h-2.7v1.2h-3.8v-1.2h-2.7
			c-1.9,0-2.8-0.9-2.8-2.8v-5.7c0-1.8,0.9-2.8,2.8-2.8h2.7V6.5H125.6z M119.7,16.2h2v-5.8h-2V16.2z M125.6,16.2h2v-5.8h-2V16.2z"/>
		<path class="st1" d="M136.1,19.5l1.9-3.7h-0.7c-0.8,0-1.2-0.1-1.4-0.9l-2.7-7.7V6.9h4l1.7,6.9h0.2l2-6.9h3.9v0.3L140,19.9h-3.9
			V19.5z"/>
		<polygon class="st1" points="153.9,9.8 153.9,19.9 150.2,19.9 150.2,9.8 146.8,9.8 146.8,6.9 157.3,6.9 157.3,9.8 		"/>
		<path class="st1" d="M171,16.9c0,2-0.7,3-2.5,3h-8.2v-13h10.3v2.9h-6.5v1.9h3.9c1.9,0,3,0.6,3,2.5V16.9z M167.2,14.5h-3.1V17h3.1
			V14.5z"/>
		<path class="st1" d="M185.4,17.3c0,1.7-0.8,2.5-2.5,2.5h-5.8c-1.7,0-2.5-0.8-2.5-2.5V9.5c0-1.7,0.8-2.6,2.5-2.6h5.8
			c1.7,0,2.5,0.8,2.5,2.5V17.3z M181.5,9.8h-3.2V17h3.2V9.8z"/>
		<path class="st1" d="M199.9,6.9v13H196V9.8h-2.4v3.6c0,3.5-0.7,6.3-4.4,6.7l-1.2-2.9c2.1-0.4,2.3-1.4,2.3-3.9V6.9H199.9z"/>
		<polygon class="st2" points="98.7,11.2 90.5,16.1 90.5,0.1 98.7,0.1 		"/>
		<path class="st2" d="M99.4,22.1c0.1-2.1-1.6-4.7-4.8-4.8c-2.7,0-4.9,2.1-4.9,4.7c0,2.8,2.3,4.9,4.8,5C97.3,27,99.4,24.7,99.4,22.1
			"/>
		<path class="st2" d="M78.8,0v13.4h-4.5V0H35.8l-7.7,12.4V0h-8.3L14,7.5L8.3,0H0v26.6h8.3V12.4l5.8,7.4l5.8-7.4v14.2h8.3v0h0
			l3.5-5.6h9l0,5.7h8.2v-19h4.5v18.9h8.3V7.7H66V21h12.7v5.6h8.2V0H78.8z M40.6,13.4l-4.3,0l4.3-6.8L40.6,13.4z"/>
		<path class="st0" d="M214.1,4.6c0-3,1.6-4.6,4.6-4.6h10.5c3,0,4.6,1.6,4.6,4.6v3.1c0,1.5-0.2,2.3-1.5,3.6l-9,9.1h10.4v6.1h-20v-4
			l13.6-14.3v-3h-6.8v3.3H218l-3.9-0.3V4.6z"/>
	</g>
</g>
<g id="Guide">
</g>
</svg>
