<?xml version="1.0" encoding="utf-8"?>
<!-- Generator: Adobe Illustrator 22.1.0, SVG Export Plug-In . SVG Version: 6.00 Build 0)  -->
<svg version="1.1" xmlns="http://www.w3.org/2000/svg" xmlns:xlink="http://www.w3.org/1999/xlink" x="0px" y="0px"
	 viewBox="0 0 233.9 27.1" style="enable-background:new 0 0 233.9 27.1;" xml:space="preserve">
<style type="text/css">
	.Arched_x0020_Green{fill:url(#SVGID_1_);stroke:#FFFFFF;stroke-width:0.25;stroke-miterlimit:1;}
	.st0{fill:#6FB62C;}
	.st1{fill:#FFFFFF;}
	.st2{fill:#9C9795;}
</style>
<linearGradient id="SVGID_1_" gradientUnits="userSpaceOnUse" x1="386.5528" y1="656.8256" x2="387.2599" y2="656.1185">
	<stop  offset="0" style="stop-color:#1DA238"/>
	<stop  offset="0.9831" style="stop-color:#24391D"/>
</linearGradient>
<g id="Logo">
	<g>
		<rect x="108" class="st0" width="101.3" height="26.7"/>
		<path class="st1" d="M126,6.5v1.2h2.7c1.9,0,2.8,0.9,2.8,2.8v5.7c0,1.9-1,2.8-2.8,2.8H126v1.3h-3.8V19h-2.7
			c-1.9,0-2.8-0.9-2.8-2.8v-5.7c0-1.8,0.9-2.8,2.8-2.8h2.7V6.5H126z M120.1,16.3h2v-5.9h-2V16.3z M126,16.3h2v-5.9h-2V16.3z"/>
		<path class="st1" d="M136.6,19.6l1.9-3.8h-0.7c-0.8,0-1.2-0.1-1.4-0.9l-2.7-7.8V6.9h4l1.7,6.9h0.2l2-6.9h4v0.3l-5.1,12.7h-3.9
			V19.6z"/>
		<polygon class="st1" points="154.4,9.8 154.4,19.9 150.7,19.9 150.7,9.8 147.3,9.8 147.3,6.9 157.9,6.9 157.9,9.8 		"/>
		<path class="st1" d="M171.6,16.9c0,2-0.7,3-2.5,3h-8.2v-13h10.3v2.9h-6.5v1.9h3.9c2,0,3,0.6,3,2.5V16.9z M167.7,14.6h-3.1v2.5h3.1
			V14.6z"/>
		<path class="st1" d="M186,17.4c0,1.7-0.8,2.5-2.5,2.5h-5.9c-1.7,0-2.5-0.8-2.5-2.5V9.5c0-1.7,0.8-2.6,2.5-2.6h5.9
			c1.7,0,2.5,0.8,2.5,2.5V17.4z M182.2,9.8H179v7.3h3.2V9.8z"/>
		<path class="st1" d="M200.5,6.9v13h-3.8V9.8h-2.4v3.6c0,3.5-0.7,6.4-4.5,6.7l-1.2-2.9c2.1-0.4,2.3-1.4,2.3-3.9V6.9H200.5z"/>
		<polygon class="st2" points="99,11.3 90.8,16.2 90.8,0.1 99,0.1 		"/>
		<path class="st2" d="M99.8,22.2c0.1-2.1-1.6-4.8-4.8-4.8c-2.7,0-4.9,2.1-5,4.7c0,2.8,2.3,5,4.8,5C97.7,27.1,99.8,24.8,99.8,22.2"
			/>
		<path class="st2" d="M79,0v13.5h-4.6V0H35.9l-7.7,12.4V0h-8.3l-5.7,7.5L8.3,0H0v26.7h8.3V12.5l5.8,7.5l5.8-7.5v14.2h8.3v0h0
			l3.5-5.6h9l0,5.7h8.2v-19h4.5v19h8.3v-19h4.5v13.3H79v5.7h8.2V0H79z M40.7,13.5l-4.3,0l4.3-6.8L40.7,13.5z"/>
		<path class="st0" d="M214.6,0h18.8v5.1l-6.9,5.6v0.1h2.8c3,0,4.6,1.4,4.6,4.5v6.7c0,3-1.5,4.6-4.6,4.6h-10.8c-3,0-4.6-1.6-4.6-4.6
			V19l4.3-0.3h2.2v2.8h7v-6h-10v-3l7.2-6.1V6.2h-10V0z"/>
	</g>
</g>
<g id="Guide">
</g>
</svg>
