<?xml version="1.0" encoding="utf-8"?>
<!-- Generator: Adobe Illustrator 22.1.0, SVG Export Plug-In . SVG Version: 6.00 Build 0)  -->
<svg version="1.1" xmlns="http://www.w3.org/2000/svg" xmlns:xlink="http://www.w3.org/1999/xlink" x="0px" y="0px"
	 viewBox="0 0 233.9 28.2" style="enable-background:new 0 0 233.9 28.2;" xml:space="preserve">
<style type="text/css">
	.Arched_x0020_Green{fill:url(#SVGID_1_);stroke:#FFFFFF;stroke-width:0.25;stroke-miterlimit:1;}
	.st0{fill:#6FB62C;}
	.st1{fill:#FFFFFF;}
	.st2{fill:#9C9795;}
</style>
<linearGradient id="SVGID_1_" gradientUnits="userSpaceOnUse" x1="295.4072" y1="690.8818" x2="296.1143" y2="690.1747">
	<stop  offset="0" style="stop-color:#1DA238"/>
	<stop  offset="0.9831" style="stop-color:#24391D"/>
</linearGradient>
<g id="Logo">
	<g>
		<rect x="112.4" class="st0" width="105.5" height="27.8"/>
		<path class="st1" d="M131.2,6.8V8h2.8c2,0,3,1,3,2.9v6c0,1.9-1,2.9-3,2.9h-2.8V21h-4v-1.3h-2.8c-2,0-2.9-1-2.9-2.9v-5.9
			c0-1.9,1-2.9,2.9-2.9h2.8V6.8H131.2z M125.1,16.9h2.1v-6.1h-2.1V16.9z M131.2,16.9h2.1v-6.1h-2.1V16.9z"/>
		<path class="st1" d="M142.2,20.4l2-3.9h-0.7c-0.9,0-1.2-0.2-1.5-0.9l-2.8-8.1V7.2h4.2l1.8,7.2h0.2l2.1-7.2h4.1v0.3l-5.3,13.2h-4.1
			V20.4z"/>
		<polygon class="st1" points="160.8,10.2 160.8,20.8 157,20.8 157,10.2 153.3,10.2 153.3,7.2 164.4,7.2 164.4,10.2 		"/>
		<path class="st1" d="M178.7,17.6c0,2.1-0.7,3.1-2.6,3.1h-8.6V7.2h10.8v3h-6.8v2h4c2,0,3.2,0.7,3.2,2.6V17.6z M174.7,15.2h-3.2v2.6
			h3.2V15.2z"/>
		<path class="st1" d="M193.7,18.1c0,1.8-0.9,2.6-2.6,2.6H185c-1.7,0-2.6-0.9-2.6-2.6V9.9c0-1.8,0.8-2.7,2.6-2.7h6.1
			c1.8,0,2.6,0.9,2.6,2.6V18.1z M189.7,10.2h-3.3v7.6h3.3V10.2z"/>
		<path class="st1" d="M208.8,7.2v13.5h-4V10.2h-2.5V14c0,3.6-0.8,6.6-4.6,7l-1.2-3c2.2-0.4,2.4-1.4,2.4-4.1V7.2H208.8z"/>
		<polygon class="st0" points="233.9,0 233.9,27.8 227,27.8 227,7.4 223.7,7.4 223.7,0 		"/>
		<polygon class="st2" points="103.1,11.7 94.6,16.9 94.6,0.1 103.1,0.1 		"/>
		<path class="st2" d="M103.9,23.1c0.1-2.2-1.7-5-5-5c-2.8,0-5.2,2.2-5.2,4.9c0,3,2.4,5.2,5,5.2C101.7,28.2,103.9,25.9,103.9,23.1"
			/>
		<path class="st2" d="M82.3,0v14h-4.7V0H37.4l-8.1,12.9V0h-8.7l-6,7.8L8.7,0H0v27.8h8.6V13l6,7.8l6-7.8v14.8h8.6v0h0l3.7-5.9h9.4
			l0,5.9H51V8h4.7v19.8h8.6V8H69v13.9h13.3v5.9h8.5V0H82.3z M42.4,14l-4.5,0l4.5-7.1L42.4,14z"/>
	</g>
</g>
<g id="Guide">
</g>
</svg>
