<?xml version="1.0" encoding="utf-8"?>
<!-- Generator: Adobe Illustrator 21.0.0, SVG Export Plug-In . SVG Version: 6.00 Build 0)  -->
<svg version="1.1" id="logo" xmlns="http://www.w3.org/2000/svg" xmlns:xlink="http://www.w3.org/1999/xlink" x="0px" y="0px"
	 viewBox="0 0 823.3 128.5" style="enable-background:new 0 0 823.3 128.5;" xml:space="preserve">
<style type="text/css">
	.st0{fill-rule:evenodd;clip-rule:evenodd;fill:#0F0F0F;}
	.st1{fill-rule:evenodd;clip-rule:evenodd;fill:url(#premier_1_);}
	.st2{fill-rule:evenodd;clip-rule:evenodd;fill:url(#match-bg_1_);}
	.st3{fill-rule:evenodd;clip-rule:evenodd;fill:url(#match_1_);}
</style>
<rect id="premier-bg" x="304.2" transform="matrix(-1 -1.224647e-16 1.224647e-16 -1 1127.4597 128.4848)" class="st0" width="519.2" height="128.5"/>
<linearGradient id="premier_1_" gradientUnits="userSpaceOnUse" x1="370.6642" y1="-47.3058" x2="749.9701" y2="171.6866">
	<stop  offset="0" style="stop-color:#FBE466"/>
	<stop  offset="1" style="stop-color:#D49E31"/>
</linearGradient>
<path id="premier" class="st1" d="M678.7,25.1h24h29v22.8h-29v4.9h18.5l-6,23.1l-12.5-0.1v4.8h29v22.8h-29h-24V80.6v-4.9V52.8v-4.9
	V25.1z M774.8,47.9h-13.5v16.3h13.5V47.9z M761.4,25.1h13.5h4.6h19.5V87h-37.5v16.4h-24V47.9V25.1H761.4z M648.6,80.6h-13.5V64.3
	h13.5V80.6z M635.1,103.4h13.5h4.6h19.5V41.5h-37.5V25.1h-24v55.5v22.8H635.1z M580.5,25.1h24v78.3h-24V60.1l-17,24.7l-17-24.7v43.4
	h-24V25.1h24l17,24.7L580.5,25.1z M434.2,47.9h-13.5v16.3h13.5V47.9z M420.7,25.1h13.5h4.6h19.5V87h-37.5v16.4h-24V47.9V25.1H420.7z
	 M328.9,25.1h5.9h18.1h13.5h10.5h13.5v78.3h-24V47.9h-13.5v55.5h-24V25.1z M517,80.6v22.8h-29h-24V80.6v-4.9V52.8v-4.9V25.1h24h29
	v22.8h-29v4.9h18.5l-6,23.1L488,75.8v4.8H517z"/>
<linearGradient id="match-bg_1_" gradientUnits="userSpaceOnUse" x1="10.2013" y1="146.1539" x2="293.9509" y2="-17.6691">
	<stop  offset="0" style="stop-color:#D49E31"/>
	<stop  offset="1" style="stop-color:#FBE466"/>
</linearGradient>
<rect id="match-bg" class="st2" width="304.2" height="128.5"/>
<linearGradient id="match_1_" gradientUnits="userSpaceOnUse" x1="24.443" y1="63.7975" x2="279.7092" y2="63.7975">
	<stop  offset="0" style="stop-color:#F2F2F2"/>
	<stop  offset="1" style="stop-color:#FAFAFA"/>
</linearGradient>
<path id="match" class="st3" d="M167.6,47.5V103h-24V86.6h-26.6L106.4,103h-24V59.6l-17,24.7l-17-24.7V103h-24V24.6h24l17,24.7
	l17-24.7h24v36.7l23.3-36.7h24.2h13.7H181h24h13.1h14h10v39.1h13.5V24.6h24V103h-24V86.6h-37.5V47.5h-13.1V103h-24V47.5H167.6z
	 M131.6,63.7h12V45.1L131.6,63.7z"/>
</svg>
