<?xml version="1.0" encoding="UTF-8"?> <svg xmlns="http://www.w3.org/2000/svg" width="179.5" height="53.7" overflow="visible"><path fill="#fff" d="M38 6c-2 1-5 3-9 2-8-2-10-8-10-8s-2 6-9 8C6 9 3 7 1 6H0v33c0 1 0 3 2 5 1 2 4 3 8 4 3 0 5 1 7 3l2 3 3-3c1-2 4-3 7-3 4-1 7-2 8-4 2-2 2-4 2-5V6h-1z"></path><path fill="#013369" d="M38 7s-4 3-10 2c-6-2-9-6-9-6s-2 4-8 6C5 10 1 7 1 7v32c0 1 1 6 9 7l8 4 1 2 2-2 8-4c8-1 9-6 9-7V7z"></path><path fill="#fff" d="M19 48s3-3 9-4c8-1 8-4 8-5V23H3v16c0 1 0 4 7 5s9 4 9 4z"></path><path fill="#d50a0a" d="M12 35v-8l-1-1v-2h4v19l-3-1-3-10v7l1 1v2l-5-1v-2l1-1V27l-1-1v-2h3l4 11zm8 7 1 1v2l-5-1v-2l1-1V27l-1-1v-2h9v5h-2l-1-2h-2v5h2v-1h2v4h-2v-1h-2v8zm6 1v-2l1-1V27l-1-1v-2h5v2l-1 1v12l2-1v-3h2v6l-8 2z"></path><path d="m4 19-1-1h1l1-2 1 2h1l-1 1v2l-1-1-1 1v-2zm6 0-1-1h2v-2l1 2h2l-2 1 1 2-2-1-1 1v-2zm-6-6-1-1h1l1-1 1 1h1l-1 1v2l-1-1-1 1v-2zm6 0-1-1h2v-1l1 1h2l-2 1 1 2-2-1-1 1v-2zm25 8-1-1-2 1 1-2-2-1h2l1-2v2h2l-1 1v2zm-6 0-2-1-1 1 1-2-2-1h2v-2l1 2h2l-2 1 1 2zm6-6-1-1-2 1 1-2-2-1h2l1-1v1h2l-1 1v2zm-6 0-2-1-1 1 1-2-2-1h2v-1l1 1h2l-2 1 1 2zm-6-6h1v6c-1 2-3 5-8 6 0-1 0-4 2-6v1l1-1a5 5 0 0 0-3-1v1a6 6 0 0 0 1 0l-2 6v-3c-1-6 3-9 8-9s-1 0-2 1h-1l2 1v-1l1-1zm-4 6a30 30 0 0 0 0-1 5 5 0 0 0-2-1l2 2zm1-2-2-1 2 1zm1-1a5 5 0 0 0-2-1l2 1zm40 27h-4l-5-18v18h-4V14h5l5 14V14h3v25zm13-20h-6v4h6v5h-6v11h-4V14h10v5zm12 20H76V14h4v20h6v5zm20 0h-3V28h-5v11h-4V14h4v9h5v-9h3v25zm10 0-5-2-2-7V14h4v15l1 4 2 2 2-2V14h4v16l-2 7c-1 2-2 2-4 2zm21 0h-3l-6-18v18h-3V14h4l5 14V14h3v25zm6 0V19h-4v-5h13v5h-5v20h-4zm10 0V14h10v5h-6v4h6v5h-6v6h6v5h-10zm27 0h-5l-4-9h-1v9h-4V14h8l2 1 1 2v8l-2 3 5 11zm-7-18v-2l-1-1h-2v7h2l1-1v-3z" fill="#fff"></path></svg> 