<svg version="1.2" xmlns="http://www.w3.org/2000/svg" viewBox="0 0 510 204" width="510" height="204">
	<title>CANAL+ SPORT 3-svg</title>
	<style>
		.s0 { fill: #020407 } 
		.s1 { fill: #ffffff } 
		.s2 { fill: #00ff83 } 
		.s3 { fill: #0f4c11 } 
		.s4 { fill: #00ff91 } 
	</style>
	<path id="Path 1169" class="s0" d="m0 0h510v127.5h-510z"/>
	<path id="Path 1171" fill-rule="evenodd" class="s1" d="m488.2 69.4c0 0-0.1 0.1-0.4 0.1h-27.5c-0.5 0-0.6 0.3-0.6 0.3 0 0-0.4 0.1-0.4 0.6v29.4c0 0.4-0.1 0.5-0.1 0.5 0 0-0.2 0.2-0.5 0.2h-21.9c-0.3 0-0.5-0.2-0.5-0.2 0 0-0.1-0.1-0.1-0.6v-29.4c0-0.3-0.3-0.5-0.3-0.5 0 0-0.1-0.3-0.4-0.3-0.5 0-28.8 0-28.8 0 0 0-0.3-0.3-0.3-0.9v-21.5c0-0.2 0.3-0.6 0.3-0.6 0 0 28.9 0 29.1 0 0.2 0 0.2-0.1 0.2-0.1 0 0 0.2-0.1 0.2-0.4v-25.7c0-0.2 0.1-0.5 0.1-0.5 0 0 0.2-0.1 0.9-0.1h21.4c0.4 0 0.6 0.1 0.6 0.1 0 0 0.1 0.3 0.1 0.7v25.8h28c0.7 0 0.9 0.1 0.9 0.1 0 0 0.4 0.1 0.4 0.7v21.7c0 0.2-0.4 0.6-0.4 0.6zm-85.2 30.4c-0.1 0.6-0.2 0.8-0.2 0.8 0 0-0.1 0.2-0.7 0.2h-44.2c-1.3 0-1.6-0.3-1.6-0.3 0 0-0.2-0.5-0.1-1.4l11-76.3c0-1 0.3-1.3 0.3-1.3h21.2c0.6 0 0.8 0.1 0.8 0.1 0 0 0.1 0.3 0 0.8l-8.3 59.6c-0.1 0.7 0.2 0.7 0.2 0.7 0 0 0.2 0.2 1 0.2h22c0.4 0 0.6 0.2 0.6 0.2 0 0 0.2 0.1 0.2 0.6zm-56.5 1.2h-19.7c-0.3 0.2-0.7-0.3-0.7-0.3 0 0-0.1-0.1-0.2-0.7l-2.6-12.1c-0.2-0.7-0.4-1-0.4-1 0 0-0.6-0.3-1.2-0.3h-25.5c-0.6 0-0.9 0.3-0.9 0.3 0 0-0.5 0.4-0.7 1.1l-5.8 12.3c-0.1 0.3-0.3 0.4-0.3 0.4 0 0-0.4 0.2-0.7 0.2h-22.1c-0.5 0.1-0.7-0.3-0.7-0.3 0 0-0.1-0.1 0.2-0.6l39-77.9c0.2-0.1 0.4-0.4 0.4-0.4 0 0 0.3-0.1 0.9-0.1h24.1c0.6 0 0.9 0.3 0.9 0.3 0 0 0.1 0.1 0.2 0.4l16.2 78.2c0 0.2 0 0.4 0 0.4 0 0 0 0.1-0.4 0.1zm-92.1-0.1h-20.3c0 0-0.1-0.2-0.2-0.3l-27.3-48.4c-0.2-0.2-0.3-0.2-0.3-0.2 0 0-0.2 0-0.2 0.3l-6.8 47.6c-0.1 0.6-0.2 0.6-0.2 0.6 0 0-0.3 0.1-0.5 0.1h-19.6c-0.4 0-0.5-0.1-0.5-0.1 0 0-0.5-0.5-0.4-0.9l10.8-77.1c0.1-0.4 0.3-0.5 0.3-0.5 0 0 0.3-0.3 0.7-0.3h21.8c0.3 0 0.5 0.2 0.5 0.2 0 0 0.2 0.1 0.3 0.4l24.6 43.2c0.5 0.9 0.7 0.8 0.7 0.8 0 0 0.4 0 0.6-1l6.3-43c0-0.3 0.2-0.4 0.2-0.4 0 0 0.1-0.2 0.4-0.2l20.6 0.2c0.3 0 0.5 0.1 0.5 0.1q0 0 0 0.3l-11 77.7c-0.1 0.5-0.3 0.7-0.3 0.7 0 0-0.1 0.2-0.7 0.2zm-86-0.3l-19.1 0.1c-0.5 0-0.7-0.2-0.7-0.2 0 0-0.2 0-0.3-0.8l-3-12.4c0-0.3-0.2-0.4-0.2-0.4h-27.2c-0.6 0-0.9 0.4-0.9 0.4 0 0-0.5 0.3-0.8 1.1l-5.4 11.5q-0.3 0.6-0.3 0.6c0 0-0.3 0.1-0.6 0.1h-22.3c-0.6 0.1-0.7-0.1-0.7-0.1 0 0-0.1-0.4 0.1-0.8l38.6-77.6c0.2-0.4 0.5-0.5 0.5-0.5h25.4c0.4 0 0.7 0.3 0.7 0.3 0 0 0.2 0.1 0.2 0.4l16.6 77.8c0 0.4-0.2 0.4-0.2 0.4 0 0-0.1 0.1-0.4 0.1zm145.8-56.5c0 0-0.1 0-0.2 0.3l-10.8 24.4c-0.2 0.7-0.1 0.8-0.1 0.8 0 0 0.3 0.2 0.6 0.2l15.9-0.1h0.2c0 0 0.1-0.1 0-0.4l-5.4-25c-0.1-0.2-0.2-0.2-0.2-0.2zm-178.7 0.5l-10.6 24.3c-0.3 0.4-0.2 0.6-0.2 0.6 0 0 0.2 0.1 0.7 0.1l15.7 0.1c0.2 0 0.3-0.1 0.3-0.1 0 0 0.1-0.1 0-0.4l-5.6-24.6c0-0.3 0-0.3 0-0.3 0 0-0.2 0-0.3 0.3zm-54.7 53.4c-0.2 0.8-0.6 1.5-0.6 1.5 0 0-0.4 0.4-1.2 0.6-10.3 4.2-21.8 2.8-21.8 2.8-18.6-2-30.4-13.4-34.2-28.2-5.6-21.9 5.5-37.7 8.2-41 6.6-7.8 16.8-13.4 26.8-14.7 12.7-1.8 22.2 1.2 26.1 2.5 0 0 4.3 1.4 7.6 3.5 1.6 1.1 1.7 1.5 1.7 1.5 0 0 0.1 0.2-0.3 2l-3 15.7c-0.1 0.7-0.5 1-0.5 1 0 0-0.3 0.1-1.7-0.9-9.7-6.8-21-5.9-21-5.9-8.6 0.5-18.6 5-21.6 16.4-2.7 10.1 0.1 18.5 6.1 23.6 4.1 3.5 10.5 5.4 17.1 5 7.1-0.4 12.8-3.2 12.7-3.2 0.1 0 0.3-0.1 0.6-0.2 1.5-0.7 1.9-0.6 1.9-0.6 0 0 0.3 0.3 0.1 1.3zm0.5-17.7q-0.1 0-0.1 0 0 0 0.1 0z"/>
	<path id="Path 1172 copy" class="s2" d="m458.4 127.5v76.8h-77.4v-76.8z"/>
	<path id="Path 1172" class="s3" d="m382.4 127.5v76.8h-250v-76.8z"/>
	<path id="Path 1173" fill-rule="evenodd" class="s4" d="m176.4 152.8q-3.9-3.3-8.2-3.3-2 0-3.5 1-1.8 1.2-1.8 3.2c0 1.3 0.9 2.4 2.6 3.3 0.5 0.2 2.5 1 6 2 3.9 1.3 6.9 2.8 8.7 4.8 2.1 2.2 3.1 5.1 3.1 8.6q0 5.3-1.8 8.7-2.1 4.2-7.2 6.6c-2.9 1.2-6.1 1.8-9.7 1.8-3.5 0-7.1-0.7-10.8-2.2q-2.9-1.2-4.4-2.2-0.6-0.5-1.5-1l5.3-10.1c3.8 3.3 7.4 4.9 11 4.9 1.8 0 3.1-0.3 4.2-1.1q1.8-1.2 1.8-3.6 0-2-2-3.5c-0.6-0.4-1.5-0.8-2.9-1.2-0.4-0.2-1.2-0.4-2.5-0.8l-2.6-0.8c-1.6-0.4-3.1-1.1-4.7-1.9-3.8-2-5.7-5.5-5.7-10.7 0-4.9 1.6-8.7 4.6-11.7 3-3 7-4.5 11.8-4.5 5.2 0 10.2 1.3 15.2 4zm34.7-12.5q7.6 0 11.9 4c3.2 2.9 4.7 6.9 4.7 11.9 0 10.7-5.4 16.1-16.2 16.1h-7.8v16h-12.5v-48zm-3.2 22c4.5 0 6.8-2 6.8-6 0-4-2.2-6-6.8-6h-4.1v12zm69.7 20.5c-5.1 4.8-11.4 7.2-18.8 7.2-7.5 0-13.8-2.5-18.9-7.3q-7.6-7.3-7.6-17.9c0-5.4 1.4-10.3 4.1-14.5 2.9-4.3 6.8-7.5 11.7-9.5 3.2-1.3 6.7-1.9 10.4-1.9q11.7 0 19.2 7.2c5.1 4.8 7.6 10.9 7.6 18.3 0 7.5-2.5 13.6-7.7 18.4zm-9.3-28c-2.6-2.5-5.8-3.9-9.5-3.9q-5.5 0-9.6 4c-2.5 2.6-3.9 5.7-3.9 9.4 0 3.8 1.2 7 3.9 9.6q4 4 9.6 4 5.7 0 9.5-4c2.6-2.6 4-5.8 4-9.5q0-5.6-4-9.6zm48.1 33.5l-11.5-19.1-2.3 19.1h-12.1l5.9-48h15.5c11.4 0 17 4.8 17 14.6 0 5-1.3 8.5-4.2 11.3-1.5 1.5-2.8 2.1-5.9 3.4l11.7 18.7zm-8.5-26.8c5.2 0 8.7-2.4 8.7-6.1 0-3.1-2.5-4.9-7-4.9h-2.3l-1.5 11zm48.5-10.7v37.5h-12.5v-37.5h-10.1v-10.5h33v10.5z"/>
	<path id="3
" class="s3" d="m439.5 174.4c0 7.2-4.2 12.3-11.1 14.6q-3.4 1.1-7.7 1.1c-4.4 0-8.6-1.4-12.7-4.2-2.3-1.5-3.9-3.3-4.9-5.4-0.5-1.1-1-2.4-1.4-4.1-0.2-0.7-0.3-1.9-0.5-3.7h12.7c0.2 1.3 0.4 2.2 0.6 2.7q0.5 1.3 1.5 2.3 2 1.9 4.8 1.9c3.8 0 6.3-2.8 6.3-6.6 0-4.1-2.4-6.1-7.3-6.1h-0.5c-0.1 0-0.4 0-0.7 0v-8.3h0.7c4.1 0 6.1-1.7 6.1-5 0-3.4-1.6-5.1-4.8-5.1-3.4 0-5.2 1.8-5.3 5.6h-11.5c0.5-3.1 1.2-5.6 2.1-7.4 3-5.6 8.1-8.3 15.3-8.3 4.7 0 8.5 1.3 11.4 3.8 2.8 2.6 4.3 6 4.3 10.2 0 2.8-0.8 5.2-2.3 7.2-0.7 0.8-1.7 1.7-2.9 2.5 1.8 0.6 3 1.3 4 2.3 2.5 2.5 3.8 5.9 3.8 10z"/>
</svg>