<svg xmlns="http://www.w3.org/2000/svg" width="364.99" height="105.68"><path fill="#fff" d="M17.01 105.68l6.27-23.39H0l15.78-58.9h23.28L45.33 0h69.25l-6.27 23.39h187.02l-15.79 58.9H92.53l-6.27 23.39H17.01zm269.09-17.2l6.37-23.82c3.87-14.42 12.64-21.43 27.16-21.43h13.9c2.85 0 6-1.18 6.75-3.81.25-.9-.6-1.39-3.08-1.39h-33.87l5.58-20.83h33.93c9 0 15.36 2.4 19 7.12 3.3 4.3 4 10 2.15 17-3.72 13.86-15.12 22.82-29.05 22.82h-13.71c-3.66 0-5.74 1-6.85 3.36h42.41l-5.61 20.94z"/><path fill="#000064" d="M289.4 28.07l-13.28 49.54H5.93L19.2 28.07h270.2z"/><path fill="#d20000" d="M82.67 101H22.94L48.75 4.68h59.73L82.67 101z"/><path d="M66 58.83a4.43 4.43 0 0 1-4.68 3.6h-7.25l2-7.34H43.9l-2.31 8.66c-1.71 6.37 1 9.67 7.43 9.67H66c7.23 0 13.45-2.33 16.09-11.76l10.09-37.78H75.43zm54.33-8.27c-5.8-1.87-7.44-2.07-7.44-2.69s1-.83 3.25-.83h8.1a4 4 0 0 0 3.38-2.88l.87-3.26h-12.64c-7.83 0-10.28 3.27-10.28 6.94 0 4.24 3.52 6.1 9.79 8 5.14 1.52 6.2 1.75 6.2 2.24 0 .7-1.23.87-4.36.87h-10.51L105.26 65h13.37c7.29 0 10.62-2.54 10.62-6.79 0-3.48-2-5.4-8.92-7.65zm130.61 0c-5.79-1.87-7.44-2.07-7.44-2.69s1-.83 3.25-.83h8.1a4 4 0 0 0 3.38-2.88l.87-3.26h-12.64c-7.83 0-10.27 3.27-10.27 6.94 0 4.24 3.52 6.1 9.78 8 5.15 1.52 6.21 1.75 6.21 2.24 0 .7-1.23.87-4.36.87H237.3L235.87 65h13.38c7.29 0 10.61-2.54 10.61-6.79 0-3.48-2-5.4-8.92-7.65zm-37.28-9.66l-1.57 6.1h7.74v18h7.94V47h3.49a3.66 3.66 0 0 0 3.3-2.61l.94-3.53zm-67.83 0h-14.19V65h7.66v-5.9h6.33c5.91 0 10-3.52 10-9.12s-4.33-9.08-9.8-9.08zm-1.67 12.66h-4.86v-7.07h4.86a3.56 3.56 0 0 1 3.84 3.56c0 2.36-1.86 3.51-3.84 3.51zm62.39 3.63A7.28 7.28 0 0 0 211 50c0-5.6-4.36-9.12-9.83-9.12H187V65h7.66V46.49h4.86a3.55 3.55 0 0 1 3.83 3.56c0 2.36-1.86 3.51-3.83 3.51h-4s6.36 7.89 7.13 8.87a5.85 5.85 0 0 0 5.03 2.57h5.81zm-35.98-16.85C162 40.34 158 45 158 50.28v4.56c0 7.34 5.22 10.76 12.46 10.76s13.08-3.34 13.08-10.6v-3.89c0-6.4-4.36-10.77-12.97-10.77zm5.15 15.07c0 1.42-.83 4.52-4.94 4.52a4.55 4.55 0 0 1-4.94-4.52v-4.74c0-1.54.83-4.66 5-4.66a4.55 4.55 0 0 1 4.85 4.66z" fill="#fff"/><path d="M337.2 33.35h-27.94l3.07-11.47h30.51c15.05 0 19.55 7.29 16.61 18.27S347.57 59.5 334.92 59.5h-13.69c-3.23 0-9.83.59-11.87 8.24l-1.21 4.48h42.7l-3.1 11.58H292l4.8-17.93c2.75-10.27 8.59-18 22.8-18h13.9c5.26 0 10-2.63 11.27-7.28s-.77-7.24-7.57-7.24z" fill="#000064"/></svg>