<svg xmlns="http://www.w3.org/2000/svg" width="365.09" height="105.68"><path fill="#fff" d="M17.01 105.68l6.27-23.4H0l15.78-58.89h23.28L45.33 0h69.25l-6.27 23.39h187.02l-15.79 58.89H92.53l-6.27 23.4H17.01zm269.08-17.2l5.18-19.35h36.46c4.63 0 5.47-1.8 6-3.8.47-1.73-1.06-2.9-4.64-2.9h-29.83l5.54-20.68h30.49c4.24 0 5.26-2.06 5.81-3.82.28-.9-.16-1.38-2.14-1.38H300l5.19-19.35h38.71c19.51 0 23.26 11.54 20.28 22.71-1.28 4.82-4.7 9.44-9.81 13.35a17.64 17.64 0 0 1 2.23 14.94c-3.5 13.08-13.9 20.28-29.28 20.28z"/><path fill="#000064" d="M289.4 28.07l-13.28 49.54H5.93L19.2 28.07h270.2z"/><path fill="#d20000" d="M82.67 101H22.94L48.75 4.68h59.73L82.67 101z"/><path d="M66 58.83a4.41 4.41 0 0 1-4.67 3.59h-7.26l2-7.33H43.9l-2.31 8.66c-1.71 6.37 1 9.67 7.43 9.67H66c7.22 0 13.45-2.33 16.09-11.76l10.09-37.78H75.43zm54.33-8.27c-5.8-1.87-7.44-2.08-7.44-2.69s1-.83 3.25-.83h8.1a4 4 0 0 0 3.37-2.89l.88-3.25h-12.64c-7.83 0-10.28 3.27-10.28 6.93 0 4.25 3.52 6.11 9.79 8 5.14 1.52 6.2 1.75 6.2 2.24 0 .7-1.23.87-4.36.87h-10.51L105.25 65h13.38c7.29 0 10.62-2.54 10.62-6.79 0-3.48-2-5.41-8.92-7.65zm130.61 0c-5.79-1.87-7.44-2.08-7.44-2.69s1-.83 3.25-.83h8.1a4 4 0 0 0 3.38-2.89l.87-3.25h-12.64c-7.83 0-10.27 3.27-10.27 6.93 0 4.25 3.51 6.11 9.78 8 5.15 1.52 6.21 1.75 6.21 2.24 0 .7-1.23.87-4.36.87H237.3L235.87 65h13.38c7.29 0 10.61-2.54 10.61-6.79 0-3.48-2-5.41-8.92-7.65zm-37.28-9.66l-1.57 6.1h7.74v18h7.93V47h3.5a3.66 3.66 0 0 0 3.3-2.61l.94-3.53zm-67.83 0h-14.19V65h7.66v-5.9h6.33c5.91 0 10-3.52 10-9.12s-4.33-9.08-9.8-9.08zm-1.67 12.66h-4.86v-7.08h4.86a3.57 3.57 0 0 1 3.84 3.57c0 2.36-1.86 3.51-3.84 3.51zm62.39 3.63A7.28 7.28 0 0 0 211 50c0-5.6-4.36-9.12-9.83-9.12H187V65h7.65V46.48h4.87a3.56 3.56 0 0 1 3.83 3.57c0 2.36-1.86 3.51-3.83 3.51h-4s6.36 7.89 7.13 8.87a5.88 5.88 0 0 0 5.03 2.57h5.81zm-35.98-16.85C162 40.34 158 45 158 50.28v4.56c0 7.34 5.22 10.76 12.46 10.76s13.08-3.34 13.08-10.6v-3.9c0-6.39-4.36-10.76-12.97-10.76zm5.15 15.06c0 1.43-.83 4.53-4.94 4.53a4.55 4.55 0 0 1-4.94-4.53v-4.73c0-1.54.83-4.66 5-4.66a4.55 4.55 0 0 1 4.85 4.66z" fill="#fff"/><path d="M344.07 21.88h-35.46l-2.67 10h33c6.42 0 7.83 2.89 6.66 7.28s-4.51 7.28-10.33 7.28h-27.04l-3 11.32h23.93c8.12 0 10.34 4.4 9.16 8.79s-4.14 7.27-10.55 7.27h-33L292 83.8h35.46c14.19 0 22-6.46 24.77-16.81 1.73-6.46-.65-11.23-4.9-14.57 6.1-3.49 11-8.38 12.48-13.72 2.8-10.36-1.55-16.82-15.74-16.82z" fill="#000064"/></svg>