<?xml version="1.0" encoding="UTF-8" standalone="no"?>
<!-- Created with Inkscape (http://www.inkscape.org/) -->

<svg
   version="1.1"
   id="svg1"
   width="1000"
   height="260.18057"
   viewBox="0 0 1000 260.18057"
   xmlns="http://www.w3.org/2000/svg"
   xmlns:svg="http://www.w3.org/2000/svg">
  <defs
     id="defs1" />
  <path
     style="fill:#005fff;fill-opacity:1;stroke-width:1.50897"
     d="M 276.73106,6.6742192 H 519.39393 V 253.37208 H 276.73106 Z"
     id="path1" />
  <circle
     cx="130.09029"
     cy="130.09029"
     r="130.09029"
     style="fill:#eb0000;fill-opacity:1;stroke-width:1.50897"
     id="circle1" />
  <path
     style="fill:#23be19;fill-opacity:1;stroke-width:1.50897"
     d="M 530.42904,6.6742192 676.38162,260.16399 822.33282,6.6742192 Z"
     id="path2" />
  <path
     d="m 184.11769,161.54941 a 62.548544,62.548544 0 1 1 0,-62.918231 l 18.59963,-10.83144 a 84.05144,84.05144 0 1 0 0,84.579581 z M 475.21563,49.722249 H 320.91084 v 21.52404 h 66.11725 V 210.45832 h 22.06878 V 71.246289 h 66.11876 z m 293.67079,0 h -25.642 L 676.38162,166.98927 609.49182,49.722249 h -25.6435 l 92.5333,160.734561 92.5651,-160.734561 z"
     style="fill:#ffffff;stroke-width:1.50897"
     id="path3" />
  <path
     style="font-weight:bold;font-size:1493.24px;line-height:0.9;font-family:'CTV Sans';-inkscape-font-specification:'CTV Sans Bold';font-variant-ligatures:no-common-ligatures;text-align:end;letter-spacing:0px;word-spacing:0px;text-anchor:end;fill:#eb0000;fill-opacity:1;stroke-width:1.43977;paint-order:markers stroke fill"
     d="m 924.33162,128.08363 c 18.02,-20.94743 26.1718,-28.960401 26.1718,-45.904731 0,-25.63283 -18.8144,-42.59302 -43.2031,-42.59302 -25.4651,0 -36.1369,19.68622 -40.0345,32.28573 l -37.9309,-8.36773 c 7.5205,-26.44331 32.0978,-60.9855598 79.6585,-60.9855598 45.0051,0 80.1995,34.8132998 80.1995,80.1494498 0,32.979921 -18.1009,49.397921 -37.3373,71.694231 l -57.0234,66.28725 h 83.833 L 1000,257.7087 H 812.82202 Z"
     id="path5"
     aria-label="2" />
</svg>
