<?xml version="1.0" encoding="utf-8"?>
<!-- Generator: Adobe Illustrator 26.0.1, SVG Export Plug-In . SVG Version: 6.00 Build 0)  -->
<svg version="1.1" id="Слой_1" xmlns="http://www.w3.org/2000/svg" xmlns:xlink="http://www.w3.org/1999/xlink" x="0px" y="0px"
	 width="500px" height="82.4px" viewBox="0 0 500 82.4" style="enable-background:new 0 0 500 82.4;" xml:space="preserve">
<style type="text/css">
	.st0{fill:#E30613;}
	.st1{fill:#4A4745;}
	.st2{fill:#FFFFFF;}
</style>
<g>
	<path class="st0" d="M489.7,0H389.4l32.1,32.1l-32.1,32.1h100.3c5.7,0,10.3-4.6,10.3-10.3V10.3C500,4.7,495.4,0,489.7,0"/>
	<polyline class="st1" points="348,0 380.1,32.1 348,64.2 373.9,64.2 406,32.1 373.9,0 348,0 	"/>
	<path class="st2" d="M431.9,40.6c-0.1-4.4,1.3-7.6,4-9.5c1.6-1.2,4.6-2,8.9-2.4l16.7-1.4c3.5-0.2,5.6-0.7,6.4-1.3
		c0.8-0.6,1.2-1.9,1.1-3.9c0-1.5-0.2-2.5-0.4-3c-0.7-1.3-2.7-2-6.1-2H432c0.5-3.9,1.8-6.4,3.7-7.7c1.9-1.2,5.9-1.8,12.1-1.8h15.7
		c5.8,0,9.9,0.7,12.2,2c3.2,1.9,4.8,6.1,4.9,12.3c0.1,6.2-1,10.3-3.1,12.4c-1.8,1.8-5.8,2.9-11.9,3.4l-14.9,1.1
		c-2.9,0.2-4.6,0.5-5.2,0.9c-0.8,0.5-1.2,1.4-1.2,2.5l0,3h36.3v10.7h-49L431.9,40.6"/>
	<polyline class="st0" points="106.4,20.7 116.2,0 9.9,0 0,20.7 106.4,20.7 	"/>
	<polyline class="st0" points="38.3,30.9 67.5,30.9 42.8,82.4 13.6,82.4 38.3,30.9 	"/>
	<path class="st0" d="M87.6,82.4l10-21.1h74.8l6.2-12c0,0-40,0-45,0c-6.1,0-19.9,0.4-23.2-6.3c-2.2-4.5,2.1-12.1,2.1-12.1
		s78.3,0,83.7,0c5.3,0,9.8,1.1,12.3,4.3c2.4,3,2.2,7.3-1.3,14.1c-2,3.9-7.4,15.9-8.7,18.5c-1.3,2.5-3.9,6.9-10.6,10.1
		c-6.7,3.1-12.2,4.5-21,4.5S87.6,82.4,87.6,82.4"/>
	<g>
		<path class="st0" d="M117.2,20.7c0,0,4.2-11.2,13.6-16.2c9-4.7,27.3-4.5,28.9-4.5h69.5l-9.8,20.7H117.2"/>
		<path class="st0" d="M233.7,20.7L243.1,0h65.6c0,0,26.6-1.5,31.4,20.7c2.2,10-2.6,18.4-2.7,18.8c-0.2,0.3-20.4,42.9-20.4,42.9
			h-29.3l22.7-46.9c0,0,3.5-5.6,1.1-10.4c-2.4-4.8-9.3-4.4-9.9-4.4C301,20.7,233.7,20.7,233.7,20.7"/>
	</g>
	<polyline class="st0" points="229,30.9 258.2,30.9 233.6,82.4 204.4,82.4 229,30.9 	"/>
</g>
</svg>
