<?xml version="1.0" encoding="utf-8"?>
<!-- Generator: Adobe Illustrator 26.0.1, SVG Export Plug-In . SVG Version: 6.00 Build 0)  -->
<svg version="1.1" id="Слой_1" xmlns="http://www.w3.org/2000/svg" xmlns:xlink="http://www.w3.org/1999/xlink" x="0px" y="0px"
	 width="500px" height="82.4px" viewBox="0 0 500 82.4" style="enable-background:new 0 0 500 82.4;" xml:space="preserve">
<style type="text/css">
	.st0{fill:#E30613;}
	.st1{fill:#4A4745;}
	.st2{fill:#FFFFFF;}
</style>
<g>
	<path class="st0" d="M489.7,0H389.5l32.1,32.1l-32.1,32h100.2c5.7,0,10.3-4.7,10.3-10.3V10.3C500,4.6,495.3,0,489.7,0"/>
	<polyline class="st1" points="348.1,0 380.1,32.1 348.1,64.1 374,64.1 406,32.1 374,0 348.1,0 	"/>
	<path class="st2" d="M466,45.8c1.6,0,2.7-0.3,3.3-0.9c0.6-0.6,0.8-1.9,0.8-3.7c0-1.8-0.4-3.1-1-3.8c-0.7-0.7-1.8-1.1-3.5-1.1h-19.4
		l-0.1-9.5h18.2c1.7,0,3-0.3,3.7-1c0.6-0.6,0.9-1.8,0.9-3.5c0-1.8-0.5-3-1.3-3.7c-1.1-0.8-2.7-1.2-4.6-1.2h-32.7
		c0.6-3.6,2-6.2,4.4-7.6c2.5-1.4,6.8-2.2,12.8-2.2h17.4c5.7,0,9.8,0.7,12.2,2.1c3.1,1.8,4.7,5.6,4.7,11.3c0,3.2-0.4,5.4-1.3,6.7
		c-1,1.3-3,2.5-6.1,3.6c3.2,1,5.3,2,6.3,2.9c1.5,1.2,2.2,3.9,2.3,8.2c0,5-1.2,8.6-3.5,10.7c-2.3,2-7.5,3-15.5,3h-16.5
		c-6.3,0-10.8-1.1-13.5-3.2c-1.8-1.4-3-3.7-3.6-7.1H466"/>
	<polyline class="st0" points="106.4,20.7 116.3,0 9.9,0 0,20.7 106.4,20.7 	"/>
	<polyline class="st0" points="38.3,30.9 67.5,30.9 42.8,82.4 13.6,82.4 38.3,30.9 	"/>
	<path class="st0" d="M87.6,82.4l10-21.1h74.8l6.2-12c0,0-40,0-45,0c-6.1,0-19.9,0.4-23.2-6.3c-2.2-4.5,2.1-12.1,2.1-12.1
		s78.3,0,83.7,0c5.3,0,9.8,1.1,12.3,4.3c2.4,3,2.2,7.3-1.4,14.1c-2,3.9-7.4,15.9-8.7,18.5c-1.3,2.5-3.9,6.9-10.6,10.1
		c-6.7,3.1-12.2,4.5-21,4.5C158.1,82.4,87.6,82.4,87.6,82.4"/>
	<path class="st0" d="M117.2,20.7c0,0,4.2-11.2,13.6-16.2c9-4.7,27.3-4.5,28.9-4.5h69.5l-9.8,20.7H117.2"/>
	<g>
		<path class="st0" d="M233.8,20.7L243.1,0h65.6c0,0,26.6-1.5,31.4,20.7c2.2,10-2.6,18.4-2.7,18.8c-0.1,0.3-20.4,42.9-20.4,42.9
			h-29.3l22.7-46.9c0,0,3.5-5.6,1.1-10.4c-2.4-4.8-9.3-4.4-9.9-4.4C301,20.7,233.8,20.7,233.8,20.7"/>
	</g>
	<polyline class="st0" points="229,30.9 258.2,30.9 233.6,82.4 204.4,82.4 229,30.9 	"/>
</g>
</svg>
