<?xml version="1.0" encoding="UTF-8"?> <svg xmlns="http://www.w3.org/2000/svg" xmlns:xlink="http://www.w3.org/1999/xlink" version="1.1" id="Calque_1" x="0px" y="0px" width="68px" height="68px" viewBox="0 0 68 68" xml:space="preserve"> <g> <defs> <rect id="SVGID_1_" x="-4.583" y="-2.967" width="77.167" height="73.934"></rect> </defs> <clipPath id="SVGID_2_"> <use xlink:href="#SVGID_1_" overflow="visible"></use> </clipPath> <path clip-path="url(#SVGID_2_)" fill="#FFFFFF" d="M34,6.712c14.967,0,27.101,12.217,27.101,27.288 c0,15.071-12.134,27.288-27.101,27.288S6.899,49.071,6.899,34C6.899,18.929,19.033,6.712,34,6.712"></path> </g> <g> <defs> <path id="SVGID_3_" d="M6.9,34c0,15.071,12.133,27.29,27.1,27.29c14.966,0,27.101-12.219,27.101-27.29 C61.101,18.929,48.966,6.712,34,6.712C19.033,6.712,6.9,18.929,6.9,34"></path> </defs> <clipPath id="SVGID_4_"> <use xlink:href="#SVGID_3_" overflow="visible"></use> </clipPath> <path clip-path="url(#SVGID_4_)" fill="#305299" d="M37.979,26.301c0.782-1.773,1.877-3.138,3.285-4.093 c1.408-0.954,2.987-1.433,4.74-1.433c2.129,0,3.951,0.563,5.468,1.688c1.521,1.126,2.637,2.661,3.357,4.603h6.949 c-0.878-3.989-2.677-7.144-5.398-9.462c-2.725-2.319-6.15-3.479-10.281-3.479c-3.192,0-5.993,0.776-8.402,2.328 c-0.789,0.508-1.343,0.876-1.859,1.329c-3.852,3.367-4.458,8.483-6.958,11.257c-1.321,1.465-3.199,1.99-6.297,1.889h-5.444v-11 h5.444c1.753,0,6.831,0.126,7.858,4.464c0.059-0.199,1.833-4.418,3.681-6.091c-1.068-1.594-3.908-4.234-10.975-4.461H10.52v36.116 h6.618V35.889h2.911l7.745,14.067h7.322l-8.26-14.427C28.093,35.241,34.352,37.077,37.979,26.301"></path> <path clip-path="url(#SVGID_4_)" fill="#305299" d="M51.473,42.568c-1.519,1.125-3.339,1.689-5.468,1.689 c-1.753,0-3.332-0.479-4.74-1.433c-1.407-0.955-2.503-2.319-3.285-4.092c-0.772-1.748-1.49-4.474-1.461-7.157 c-1.997,3.276-4.411,4.263-6.118,4.438c0.313,1.997,0.874,4.332,1.688,6.044c1.33,2.798,3.209,4.971,5.633,6.522 c2.426,1.551,5.218,2.328,8.379,2.328c4.131,0,7.557-1.158,10.28-3.479c2.723-2.318,4.521-5.475,5.398-9.464H54.83 C54.109,39.91,52.993,41.442,51.473,42.568"></path> <path clip-path="url(#SVGID_4_)" fill="#305299" d="M17.789,50.847c0,0-2.114,2.147-5.684,5.361l0.319,0.44 C14.388,54.887,16.184,52.944,17.789,50.847"></path> <path clip-path="url(#SVGID_4_)" fill="#305299" d="M10.549,53.817L10.669,54c1.336-1.064,2.632-2.149,3.988-3.212 C13.481,51.61,12.125,52.654,10.549,53.817"></path> <path clip-path="url(#SVGID_4_)" fill="#305299" d="M16.711,55.776c0.678-0.765,1.436-1.627,2.213-2.59 c1.037-1.244,2.373-3.252,2.373-3.093c-1.157,1.347-2.812,3.214-4.885,5.322L16.711,55.776z"></path> <path clip-path="url(#SVGID_4_)" fill="#305299" d="M20.5,60.505c2.014-3.654,4.348-8.312,4.348-8.372 c0-0.062-1.994,3.153-3.331,5.482c-0.658,1.122-1.655,2.809-3.011,4.918l0.619,0.422L20.5,60.505z"></path> <path clip-path="url(#SVGID_4_)" fill="#305299" d="M17.728,59.19c1.018-1.386,1.994-2.854,3.071-4.438 c1.795-2.711,3.151-5.04,3.989-6.687c-2.373,3.714-4.547,6.726-6.182,8.895l-1.415,1.827L17.728,59.19z"></path> <path clip-path="url(#SVGID_4_)" fill="#305299" d="M8.456,49.241l0.977-0.584c0.479-0.26,3.29-2.007,3.29-2.007 c-1.455,0.743-2.932,1.446-4.407,2.148L8.456,49.241z"></path> <path clip-path="url(#SVGID_4_)" fill="#305299" d="M54.18,46.247c0,0,2.296,1.768,5.006,4.018c0-0.141,0.119-0.282,0.159-0.4 l-0.14-0.121C58.029,48.839,56.313,47.612,54.18,46.247"></path> <path clip-path="url(#SVGID_4_)" fill="#305299" d="M54.3,58.114c-1.471-2.183-3.093-4.262-4.845-6.224 c-0.14,0,1.874,2.73,4.507,6.727l0.378-0.44L54.3,58.114z"></path> <path clip-path="url(#SVGID_4_)" fill="#305299" d="M27.739,66.689l0.539,0.121c1.228-4.302,2.082-8.703,2.553-13.153 C30.531,53.617,29.932,59.02,27.739,66.689"></path> <path clip-path="url(#SVGID_4_)" fill="#305299" d="M31.967,61.308c-0.199,1.546-0.479,3.574-0.897,6.024h0.897 c0.786-5.317,1.133-10.688,1.036-16.064C33.003,51.268,32.824,55.286,31.967,61.308"></path> <path clip-path="url(#SVGID_4_)" fill="#305299" d="M35.535,67.393c0.121-3.053,0.16-6.465,0-10.041 c0-1.404-0.418-5.239-0.418-5.582c0,0,0.139,7.53-0.359,15.603L35.535,67.393z"></path> <path clip-path="url(#SVGID_4_)" fill="#305299" d="M38.327,57.051c-0.458-2.609-1.396-6.747-1.375-6.624 c0.419,2.567,0.878,6.021,1.175,10.038c0.161,2.007,0.24,3.694,0.279,5.422l0.92-0.159C39.006,61.228,38.507,58.177,38.327,57.051"></path> <path clip-path="url(#SVGID_4_)" fill="#305299" d="M39.503,52.133L39.503,52.133c0.858,5.02,1.118,6.283,1.118,6.283 c0.637,2.57,1.103,5.181,1.395,7.813l0.699-0.243c-0.221-1.204-0.459-2.429-0.717-3.713C41.02,57.773,39.503,52.133,39.503,52.133"></path> <path clip-path="url(#SVGID_4_)" fill="#305299" d="M44.948,63.036c0.18,0.641,0.34,1.284,0.497,2.006l0.62-0.3 c-0.938-3.031-2.134-6.426-3.67-10.041C42.355,54.399,43.73,58.497,44.948,63.036"></path> <path clip-path="url(#SVGID_4_)" fill="#305299" d="M44.24,52.263c2.358,4.475,4.438,9.096,6.221,13.834l0.458-0.301 C49.049,61.116,46.813,56.59,44.24,52.263"></path> <path clip-path="url(#SVGID_4_)" fill="#305299" d="M47.48,53.096c0,0,1.576,2.711,3.989,7.872l0.438-0.383 C50.574,58.006,49.098,55.505,47.48,53.096"></path> <path clip-path="url(#SVGID_4_)" fill="#305299" d="M26.503,52.875c-1.474,3.908-3.151,7.733-5.026,11.465l0.419,0.2 C23.747,60.785,25.288,56.884,26.503,52.875"></path> <path clip-path="url(#SVGID_4_)" fill="#305299" d="M28.936,51.811c-1.174,4.723-2.651,9.367-4.428,13.894l0.877,0.304 c0.618-1.829,1.197-3.735,1.715-5.703C28.058,56.729,28.616,53.737,28.936,51.811"></path> <path clip-path="url(#SVGID_4_)" fill="#305299" d="M57.81,53.195c0.068-0.11,0.127-0.224,0.18-0.34 c-1.382-1.339-2.847-2.586-4.387-3.734C53.603,49.121,55.218,50.626,57.81,53.195"></path> <path clip-path="url(#SVGID_4_)" fill="#305299" d="M49.912,48.737c0,0,2.634,2.712,6.223,7.17l0.2-0.282 C52.605,51.328,49.912,48.737,49.912,48.737"></path> </g> </svg> 