<?xml version="1.0" encoding="UTF-8"?>
<svg id="Calque_1" data-name="Calque 1" xmlns="http://www.w3.org/2000/svg" xmlns:xlink="http://www.w3.org/1999/xlink" viewBox="0 0 2000 919.24">
  <defs>
    <style>
      .cls-1 {
        fill: #fff;
      }

      .cls-2 {
        fill: url(#Dégradé_sans_nom_23);
      }
    </style>
    <linearGradient id="Dégradé_sans_nom_23" data-name="Dégradé sans nom 23" x1="1282.43" y1="304.48" x2="1543.72" y2="304.48" gradientUnits="userSpaceOnUse">
      <stop offset="0" stop-color="#5e88c3"/>
      <stop offset="1" stop-color="#3c5982"/>
    </linearGradient>
  </defs>
  <path class="cls-2" d="M1282.43,179.1l1.31,251.05c.11,20.94,23.01,33.76,40.92,22.91l206.08-124.87c17.3-10.48,17.32-35.57.04-46.08l-207.39-126.18c-18.01-10.96-41.07,2.08-40.96,23.17Z"/>
  <path class="cls-1" d="M121.83,767.28c-24,0-45.18-5.58-63.52-16.75-18.34-11.17-32.65-26.73-42.91-46.65-10.27-19.94-15.4-43.04-15.4-69.3s5.13-49.6,15.4-69.53c10.26-19.92,24.57-35.47,42.91-46.64,18.34-11.17,39.52-16.76,63.52-16.76,22.05,0,40.39,4.98,55.03,14.94,14.64,9.97,25.59,24.8,32.84,44.51,7.25,19.69,10.87,44.19,10.87,73.48s-3.62,53.78-10.87,73.48c-7.24,19.7-18.19,34.5-32.84,44.39-14.64,9.89-32.99,14.82-55.03,14.82ZM134.29,700.49c18.87,0,34.04-6.04,45.52-18.13,11.47-12.08,17.21-28,17.21-47.78,0-13.43-2.6-25.06-7.81-34.88-5.21-9.82-12.49-17.44-21.85-22.88-9.37-5.42-20.38-8.15-33.06-8.15s-23.74,2.72-33.18,8.15c-9.44,5.44-16.76,13.11-21.97,23-5.2,9.89-7.81,21.48-7.81,34.76s2.61,24.64,7.81,34.53c5.21,9.9,12.57,17.59,22.08,23.1,9.52,5.52,20.53,8.28,33.07,8.28ZM197.02,762.08v-254.54h70.2v254.54h-70.2Z"/>
  <path class="cls-1" d="M389.49,762.08v-187.51h-98.06v-67.03h98.06v-140.41h70.88v140.41h98.06v67.03h-98.06v187.51h-70.88Z"/>
  <path class="cls-1" d="M711.31,767.28c-27.93,0-52.24-5.51-72.92-16.53-20.68-11.02-36.68-26.35-48.01-45.97-11.32-19.62-16.99-42.27-16.99-67.94,0-27.17,6.04-50.92,18.12-71.22,12.08-20.29,28.5-36.08,49.25-47.32,20.76-11.24,43.97-16.88,69.64-16.88,27.17,0,50.69,5.92,70.54,17.78,19.85,11.86,35.22,28,46.08,48.46,10.87,20.46,16.31,43.59,16.31,69.42v18.34h-217.4v-48.01h174.37l-21.96,11.32c-3.63-16.91-11.1-30.46-22.42-40.65s-26.65-15.29-45.97-15.29c-14.04,0-26.35,2.98-36.91,8.95-10.57,5.97-18.76,14.38-24.57,25.24-5.81,10.87-8.72,23.78-8.72,38.72s2.91,27.21,8.72,37.72c5.81,10.49,14,18.53,24.57,24.12,10.56,5.59,23.02,8.37,37.37,8.37,13.43,0,24.98-2.48,34.64-7.46,9.66-4.98,16.08-12.23,19.25-21.74h77.67c-8.61,29.59-24.53,52.09-47.78,67.48-23.25,15.4-50.88,23.1-82.88,23.1Z"/>
  <path class="cls-1" d="M993.31,767.28c-24,0-45.18-5.58-63.52-16.75-18.34-11.17-32.65-26.73-42.91-46.65-10.27-19.94-15.4-43.04-15.4-69.3s5.13-49.6,15.4-69.53c10.26-19.92,24.57-35.47,42.91-46.64,18.34-11.17,39.52-16.76,63.52-16.76,22.05,0,40.39,4.98,55.03,14.94,14.64,9.97,25.59,24.8,32.84,44.51,7.25,19.69,10.87,44.19,10.87,73.48s-3.62,53.78-10.87,73.48c-7.24,19.7-18.19,34.5-32.84,44.39-14.64,9.89-32.99,14.82-55.03,14.82ZM1005.77,700.49c18.87,0,34.04-6.04,45.52-18.13,11.47-12.08,17.21-28,17.21-47.78,0-13.43-2.6-25.06-7.81-34.88-5.21-9.82-12.49-17.44-21.85-22.88-9.37-5.42-20.38-8.15-33.06-8.15s-23.74,2.72-33.18,8.15c-9.44,5.44-16.76,13.11-21.97,23-5.2,9.89-7.81,21.48-7.81,34.76s2.61,24.64,7.81,34.53c5.21,9.9,12.57,17.59,22.08,23.1,9.52,5.52,20.53,8.28,33.07,8.28ZM1068.5,762.08v-254.54h70.2v254.54h-70.2Z"/>
  <path class="cls-1" d="M1271.02,762.08v-187.51h-98.06v-67.03h168.94v187.51h98.06v67.03h-168.94Z"/>
  <path class="cls-1" d="M1590.72,767.28c-23.7,0-45.07-3.66-64.09-10.98-19.02-7.33-34.27-17.81-45.75-31.48-11.47-13.67-17.74-30.01-18.79-49.03h77.67c1.66,11.32,7.1,19.67,16.31,25.02,9.21,5.35,21.06,8.03,35.55,8.03,10.87,0,20.19-1.88,27.97-5.66,7.78-3.77,11.67-9.37,11.67-16.76,0-6.49-2.87-11.09-8.61-13.82-5.74-2.71-11.78-4.6-18.12-5.66l-51.41-8.38c-25.22-4.08-44.88-12.87-59-26.38s-21.17-30.24-21.17-50.16c0-24.31,10.15-43.82,30.46-58.54,20.3-14.72,46.46-22.08,78.47-22.08,20.98,0,40.12,3.33,57.41,9.97,17.29,6.64,31.29,16.27,42.01,28.87,10.72,12.61,16.68,27.82,17.89,45.63h-77.68c-1.05-8.6-5.63-15.09-13.7-19.47-8.08-4.38-17.32-6.57-27.74-6.57s-18.46,1.89-25.02,5.67c-6.57,3.77-9.85,8.75-9.85,14.94,0,4.68,2.16,8.68,6.46,12.01,4.3,3.31,10.98,5.81,20.04,7.46l51.41,9.06c27.02,4.68,47.21,13.36,60.58,26.04,13.36,12.68,20.04,28.69,20.04,48.01,0,25.51-10.38,45.93-31.14,61.26-20.76,15.32-48.05,22.98-81.86,22.98Z"/>
  <path class="cls-1" d="M1738.66,762.08v-407.86h70.88v182.98c6.64-11.63,17.02-20.41,31.14-26.38,14.12-5.96,30.23-8.95,48.35-8.95,34.12,0,61.15,9.48,81.08,28.42,19.92,18.95,29.89,44.36,29.89,76.21v155.58h-70.88v-136.78c0-17.51-4.76-31.26-14.27-41.22-9.51-9.97-23.48-14.95-41.89-14.95-10.87,0-20.99,2.04-30.35,6.12-9.36,4.07-16.99,10.49-22.87,19.24-5.89,8.76-9.28,20.09-10.19,33.97v133.61h-70.88Z"/>
</svg>