<?xml version="1.0" encoding="UTF-8"?>
<svg id="Layer_2" data-name="Layer 2" xmlns="http://www.w3.org/2000/svg" width="500" height="500" viewBox="0 0 500 500">
  <defs>
    <style>
      .cls-1 {
        fill: #e30613;
      }

      .cls-1, .cls-2 {
        stroke-width: 0px;
      }

      .cls-2 {
        fill: #fff;
      }
    </style>
  </defs>
  <path class="cls-1" d="M500,250C500,111.92,388.07,0,250,0S0,111.92,0,250s111.93,250,250,250,250-111.92,250-250"/>
  <polygon class="cls-2" points="125.7 374.61 125.7 181.43 84.11 188.18 84.11 145.47 148.27 125.39 180.29 125.39 180.29 374.61 125.7 374.61"/>
  <polygon class="cls-2" points="344.82 374.61 344.82 331.6 207.1 331.6 207.1 299.9 299.21 125.39 358.85 125.39 272.84 289.29 344.82 289.29 344.82 246.29 396.23 246.29 396.23 289.29 423.31 289.29 423.31 331.6 396.23 331.6 396.23 374.61 344.82 374.61"/>
</svg>