<?xml version="1.0" encoding="utf-8"?>
<!-- Generator: Adobe Illustrator 28.1.0, SVG Export Plug-In . SVG Version: 6.00 Build 0)  -->
<svg version="1.1" id="Слой_1" xmlns="http://www.w3.org/2000/svg" xmlns:xlink="http://www.w3.org/1999/xlink" x="0px" y="0px"
	 width="465px" height="500px" viewBox="0 0 465 500" style="enable-background:new 0 0 465 500;" xml:space="preserve">
<style type="text/css">
	.st0{fill:#3366CC;}
</style>
<path class="st0" d="M0,107.7v142.6C0,309.8,48,358,107.2,358h127.6c4.8,0,9.4-1.9,12.8-5.3l73.2-73.3c10.2-10.2,3-27.8-11.4-27.8
	H122.5c-9.5,0-17.2-7.7-17.2-17.3v-111c0-9.5,7.7-17.3,17.2-17.3h220.7c9.5,0,17.2,7.7,17.2,17.3V250c0,19-7.6,37.2-21,50.6
	L167.6,471.3c-10.6,10.5-3.2,28.7,11.7,28.7h102.9c4.3,0,8.4-1.7,11.4-4.8l120.9-121.4c32.3-32.4,50.4-76.4,50.4-122.3V107.7
	C465,48.2,417,0,357.8,0H107.2C48,0,0,48.2,0,107.7z"/>
</svg>
