<?xml version="1.0" encoding="UTF-8" standalone="no"?>
<!-- Generator: Adobe Illustrator 24.1.2, SVG Export Plug-In . SVG Version: 6.00 Build 0)  -->

<svg
   version="1.1"
   id="Layer_1"
   x="0px"
   y="0px"
   viewBox="0 0 1000 384.5"
   style="enable-background:new 0 0 1000 384.5;"
   xml:space="preserve"
   sodipodi:docname="Kan_11.svg"
   inkscape:version="1.4.2 (ebf0e940d0, 2025-05-08)"
   xmlns:inkscape="http://www.inkscape.org/namespaces/inkscape"
   xmlns:sodipodi="http://sodipodi.sourceforge.net/DTD/sodipodi-0.dtd"
   xmlns="http://www.w3.org/2000/svg"
   xmlns:svg="http://www.w3.org/2000/svg"><defs
   id="defs4" /><sodipodi:namedview
   id="namedview4"
   pagecolor="#ffffff"
   bordercolor="#000000"
   borderopacity="0.25"
   inkscape:showpageshadow="2"
   inkscape:pageopacity="0.0"
   inkscape:pagecheckerboard="0"
   inkscape:deskcolor="#d1d1d1"
   inkscape:zoom="2.411"
   inkscape:cx="500"
   inkscape:cy="192.24388"
   inkscape:window-width="2560"
   inkscape:window-height="1360"
   inkscape:window-x="0"
   inkscape:window-y="0"
   inkscape:window-maximized="1"
   inkscape:current-layer="Layer_1" />
<g
   id="g4"
   style="fill:#ffffff">
	<rect
   x="339"
   width="55.6"
   height="384.5"
   id="rect1"
   style="fill:#ffffff" />
	<rect
   x="487.7"
   y="42.6"
   width="55.6"
   height="256.7"
   id="rect2"
   style="fill:#ffffff" />
	<path
   d="M871.9,42.8h-62v55.5h62c40,0,72.5,32.5,72.5,72.4c0,40.3-32.6,73.1-72.5,73.1h-62v55.5h62c70.6,0,128.1-57.7,128.1-128.7   C1000,100.1,942.6,42.8,871.9,42.8z"
   id="path2"
   style="fill:#ffffff" />
	<polygon
   points="738,71.8 697.9,31.7 561.2,168.3 702.8,309.8 742.9,269.8 641.4,168.3  "
   id="polygon2"
   style="fill:#ffffff" />
	<path
   d="M0,83.3v32.6h42.6v174.9H90l0,0V44.2H53C46.4,67.4,26.3,82.3,0,83.3z"
   id="path3"
   style="fill:#ffffff" />
	<path
   d="M145.1,83.3v32.6h42.6v174.9h47.4l0,0V44.2h-37C191.5,67.4,171.4,82.3,145.1,83.3z"
   id="path4"
   style="fill:#ffffff" />
</g>
</svg>
