<svg xmlns="http://www.w3.org/2000/svg" xml:space="preserve" id="Layer_1" x="0" y="0" version="1.1" viewBox="0 0 357 357"><style>.st4{fill:#f1f1f1}</style><path id="XMLID_9_" fill="#01114d" d="M-.8-.3h358.4v358.4H-.8z"/><g id="XMLID_6_"><path id="XMLID_8_" fill="#00f4c9" d="m231.9 114.9-45.3 45.3c-2.9 2.9-2.9 7.6 0 10.5l26.8 26.8 64.1-64.1v-18.5h-45.6z"/><path id="XMLID_7_" fill="#ffd500" d="M231.9 114.9h45.7V69.5z"/><path id="XMLID_4_" fill="#ff1482" d="M131.9 69.5v45.4h100l45.7-45.4z"/></g><path d="m260.3 162.4-33.4 33.4c5 5.2 8.1 12.3 8.1 20.1 0 15.9-12.9 28.8-28.8 28.8-15.7 0-28.4-12.5-28.8-28.1h-47.6c.4 41.8 34.4 75.5 76.2 75.5 42.1 0 76.2-34.1 76.2-76.2.1-20.9-8.3-39.8-21.9-53.5z" class="st4"/><path id="XMLID_3_" d="M84.5 69.5c-5.8 0-10 4.4-10 11.4v209h48V69.5h-38z" class="st4"/></svg>