<?xml version="1.0" encoding="UTF-8"?>
<svg id="_Слой_1" data-name="Слой 1" xmlns="http://www.w3.org/2000/svg" width="500" height="221.11" viewBox="0 0 500 221.11">
  <defs>
    <style>
      .cls-1 {
        opacity: .5;
      }

      .cls-1, .cls-2, .cls-3, .cls-4 {
        stroke-width: 0px;
      }

      .cls-1, .cls-3 {
        fill: #3c635b;
      }

      .cls-4 {
        fill: #fff;
      }
    </style>
  </defs>
  <polygon class="cls-1" points="500 198.02 195.99 221.11 186.85 121.01 490.02 94.33 500 198.02"/>
  <g>
    <path class="cls-2" d="M426.25,0H0v106.55h426.25V0Z"/>
    <path class="cls-4" d="M408.05,57.96s-.07.17-.35.17h-23.02c-.35,0-.52.17-.52.17,0,0-.24.1-.24.56v24.51c0,.35-.21.45-.21.45,0,0-.1.14-.38.14h-18.21c-.28,0-.45-.14-.45-.14,0,0-.07-.1-.07-.56v-24.51c0-.28-.28-.45-.28-.45,0,0-.1-.17-.35-.17h-23.54c-.45,0-.56-.07-.56-.07,0,0-.17-.21-.17-.73v-17.97c0-.21.17-.45.17-.45,0,0,.1-.07.28-.07h24.06c.21,0,.21-.1.21-.1,0,0,.17-.1.17-.28v-21.45c0-.24.07-.45.07-.45,0,0,.17-.07.73-.07h17.86c.35,0,.45.07.45.07,0,0,.21.21.21.56v21.52h23.33c.63,0,.8.1.8.1,0,0,.28.1.28.63v18.14c0,.17-.28.45-.28.45M336.84,83.2c-.14.52-.21.7-.21.7,0,0-.1.17-.52.17h-37.02c-1.08,0-1.36-.24-1.36-.24,0,0-.17-.38-.07-1.18l9.16-63.76c.07-.8.28-1.08.28-1.08h17.76c.49,0,.66.1.66.1,0,0,.07.24,0,.63l-6.93,49.83c-.1.56.17.63.17.63,0,0,.17.1.91.1h18.32c.35,0,.52.17.52.17,0,0,.1.07.1.52l-1.78,13.41ZM289.66,84.18h-16.44c-.35.17-.63-.21-.63-.21,0,0-.07-.07-.17-.59l-2.16-10.13c-.17-.56-.35-.84-.35-.84,0,0-.45-.28-1.01-.28h-21.38c-.42,0-.7.28-.7.28,0,0-.38.35-.56.91l-4.84,10.31c-.1.28-.28.35-.28.35,0,0-.35.1-.56.1h-18.49c-.45.1-.63-.17-.63-.17,0,0-.07-.17.17-.52l32.63-65.12c.17-.1.35-.35.35-.35,0,0,.17-.1.73-.1h20.2c.45,0,.73.28.73.28,0,0,.07.07.17.35l13.55,65.39c0,.14-.07.24-.07.24,0,0,0,.1-.28.1M212.67,84.07h-16.96s-.1-.1-.17-.17l-22.81-40.5c-.21-.17-.28-.17-.28-.17,0,0-.17,0-.17.24l-5.64,39.8c-.1.45-.21.56-.21.56,0,0-.17.07-.45.07h-16.37c-.24,0-.42-.17-.42-.17,0,0-.35-.35-.28-.73l8.98-64.39c.07-.35.28-.45.28-.45,0,0,.24-.24.52-.24h18.25c.28,0,.45.17.45.17,0,0,.17.07.24.35l20.58,36.08c.35.77.63.66.63.66,0,0,.28,0,.45-.8l5.22-35.94c0-.28.17-.35.17-.35,0,0,.07-.17.35-.17l17.17.17c.35,0,.45.07.45.07,0,0,.07.1.07.28l-9.23,64.94c-.07.35-.28.59-.28.59,0,0-.1.1-.56.1M140.83,83.9l-15.98.07c-.38,0-.66-.14-.66-.14,0,0-.07-.1-.14-.73l-2.54-10.34c0-.24-.17-.35-.17-.35h-22.77c-.45,0-.73.35-.73.35,0,0-.38.28-.63.91l-4.49,9.61c-.17.35-.28.45-.28.45,0,0-.28.17-.52.17h-18.63c-.52.07-.59-.17-.59-.17,0,0-.1-.28.07-.63L105,18.26c.17-.35.45-.45.45-.45h21.21c.31,0,.59.28.59.28,0,0,.1.07.17.35l13.86,65.01c0,.28-.17.38-.17.38,0,0-.1.07-.28.07M262.6,36.58s-.07,0-.14.35l-8.98,20.34c-.21.59-.1.7-.1.7,0,0,.28.17.45.17l13.3-.07h.17s.07-.1,0-.38l-4.53-20.82c-.03-.28-.17-.28-.17-.28M113.53,36.85s-.1,0-.21.17l-8.91,20.37c-.21.28-.14.45-.14.45,0,0,.14.1.56.1l13.2.1c.07,0,.17-.1.17-.1,0,0,.07-.1,0-.35l-4.6-20.58c0-.17-.07-.17-.07-.17M67.53,81.63c-.07.73-.45,1.29-.45,1.29,0,0-.35.35-1.01.52-8.6,3.52-18.18,2.33-18.18,2.33-15.57-1.71-25.45-11.21-28.62-23.5-4.67-18.42,4.63-31.55,6.86-34.3,5.47-6.55,14.03-11.21,22.36-12.33,10.69-1.53,18.59.97,21.83,2.09,0,0,3.62,1.15,6.3,2.96,1.36.91,1.5,1.25,1.5,1.25,0,0,.1.17-.24,1.6l-2.54,13.2c-.07.56-.42.84-.42.84,0,0-.21.07-1.43-.73-8.11-5.75-17.55-5.01-17.55-5.01-7.17.45-15.53,4.21-18.04,13.72-2.23,8.43.1,15.53,5.12,19.78,3.41,2.93,8.74,4.46,14.28,4.21,6.13-.45,10.97-2.89,10.62-2.72,0,0,.24-.07.52-.17,1.25-.63,1.53-.56,1.53-.56,0,0,.28.28.1,1.11l-2.54,14.42Z"/>
  </g>
  <rect class="cls-3" x="214.25" y="106.55" width="264.36" height="105.85"/>
  <g>
    <path class="cls-4" d="M285.84,160.47v-10.49c.26,0,.71-.01,1.34-.04.63-.03.97-.04,1.02-.04,3.99-.32,5.99-2.5,5.99-6.54,0-1.68-.57-3.09-1.7-4.22-1.13-1.13-2.59-1.7-4.38-1.7-1.89,0-3.4.61-4.53,1.81-1.13,1.21-1.72,2.87-1.77,4.97h-14.35c.79-6.25,3.08-11.05,6.86-14.39,3.78-3.34,8.8-5.01,15.06-5.01,5.73,0,10.36,1.56,13.88,4.69,3.52,3.13,5.28,7.19,5.28,12.18,0,5.73-2.1,9.94-6.31,12.62,3,1,5.36,2.85,7.1,5.56,1.74,2.71,2.6,5.93,2.6,9.66,0,5.83-2.18,10.57-6.54,14.19-4.36,3.63-10.04,5.44-17.03,5.44-9.57,0-16.61-4.02-21.13-12.06-1.79-3.1-2.76-6.31-2.92-9.62h15.77c.21,2.63,1.05,4.67,2.52,6.11,1.47,1.45,3.47,2.17,5.99,2.17,2.37,0,4.28-.72,5.76-2.17,1.47-1.45,2.21-3.32,2.21-5.64,0-2.05-.76-3.81-2.29-5.28-1.53-1.47-3.31-2.21-5.36-2.21h-3.08Z"/>
    <path class="cls-4" d="M343.16,127.04h17.51l-14.27,17.43c3.21.11,5.28.26,6.23.47,5.68,1.1,10.21,3.58,13.6,7.41,3.39,3.84,5.09,8.54,5.09,14.11,0,6.62-2.38,12.02-7.14,16.2-4.76,4.18-10.9,6.27-18.41,6.27s-13.34-2.04-17.94-6.11c-4.6-4.07-6.9-9.4-6.9-15.97,0-3.21.8-6.82,2.41-10.84,1.6-4.02,3.8-7.85,6.58-11.47l13.25-17.51ZM352.66,159.92c-1.92-1.89-4.22-2.84-6.9-2.84s-4.98.95-6.9,2.84c-1.92,1.89-2.88,4.21-2.88,6.94s.96,5.06,2.88,6.98c1.92,1.92,4.22,2.88,6.9,2.88s4.98-.96,6.9-2.88c1.92-1.92,2.88-4.24,2.88-6.98s-.96-5.05-2.88-6.94Z"/>
    <path class="cls-4" d="M384.83,133.66c4.65-5.89,10.74-8.83,18.25-8.83s13.59,2.93,18.22,8.79c4.63,5.86,6.94,13.58,6.94,23.14s-2.31,17.28-6.94,23.14c-4.63,5.86-10.7,8.79-18.22,8.79s-13.67-2.93-18.29-8.79c-4.63-5.86-6.94-13.57-6.94-23.14s2.33-17.22,6.98-23.1ZM403.09,138.63c-3.26,0-5.72,1.64-7.37,4.93-1.66,3.29-2.48,7.74-2.48,13.37s.85,9.94,2.56,13.25c1.71,3.31,4.14,4.97,7.29,4.97s5.64-1.64,7.29-4.93c1.66-3.28,2.48-7.71,2.48-13.29s-.8-10.15-2.4-13.41c-1.6-3.26-4.06-4.89-7.37-4.89Z"/>
  </g>
</svg>