<?xml version="1.0" encoding="UTF-8"?>
<svg xmlns="http://www.w3.org/2000/svg" width="999.9992065" height="454.9689941">
<path d="m 196.5200477,209.8134558 h 747.7936595 v 209.8134557 h -747.7936595 z" style="fill:#39a935" />
<path d="m 981.7013279,173.3843012 -828.9952163,72.5689715 18.2978785,209.0157273 828.9952159,-72.5689714 z" style="opacity:0.5;fill:#00933a" />
<path d="m 0,0 h 839.3288749 v 209.8134558 h -839.3288749 z" style="fill:#0e0f0e" />
<path style="fill:white" d="m 132.9903976,160.7646975 c -0.1687457,1.4312139 -0.8812278,2.4749376 -0.8812278,2.4749376 0,0 -0.6812328,0.712482 -1.9749502,1.0374738 -16.9495727,6.9373252 -35.824097,4.6061339 -35.824097,4.6061339 -30.624228,-3.331166 -50.0924872,-22.0806934 -56.3173303,-46.3050827 -9.206018,-36.2303367 9.0622715,-62.0671854 13.4746603,-67.5295478 10.7809783,-12.8809253 27.6180538,-22.0744435 44.0488896,-24.236889 21.0307199,-3.0186739 36.5990775,1.9374512 42.9739168,4.0686474 0,0 7.1060708,2.3061919 12.4246868,5.8623523 2.6374335,1.7749552 2.9561754,2.4749376 2.9561754,2.4749376 0,0 0.1812455,0.3187419 -0.5062372,3.1686701 l -4.9873743,25.9743452 c -0.1624959,1.0687231 -0.8687281,1.6124594 -0.8687281,1.6124594 0,0 -0.3749905,0.1374965 -2.7936795,-1.4437136 -15.949598,-11.2997152 -34.5303796,-9.8747511 -34.5303796,-9.8747511 -14.1371436,0.8999773 -30.586729,8.3060406 -35.5553537,27.055568 -4.3998891,16.6120812 0.2187444,30.5804791 10.0684962,38.9240188 6.7560796,5.7811043 17.1995664,8.806028 28.1430405,8.2810413 12.062196,-0.8937275 21.5869559,-5.674857 20.8932234,-5.3436153 0,0 0.512487,-0.1312467 1.0749729,-0.3312417 2.4624379,-1.2374688 2.9936745,-1.0749729 2.9936745,-1.0749729 0,0 0.5124871,0.5437363 0.1874953,2.1749452 z m 90.5539673,-88.2352758 c 0,0 -0.1999949,0 -0.3624908,0.3499912 l -17.6183059,40.1489879 c -0.3749905,0.5624858 -0.2312442,0.8999773 -0.2312442,0.8999773 0,0 0.2312442,0.1812455 1.0687231,0.1812455 l 25.9868449,0.2062447 c 0.1937451,0 0.3312417,-0.2062447 0.3312417,-0.2062447 0,0 0.1937451,-0.1812455 0,-0.674983 l -9.0310224,-40.5489779 c 0,-0.356241 -0.1437464,-0.356241 -0.1437464,-0.356241 m 293.5738497,-0.4937376 c 0,0 -0.1374965,0 -0.318742,0.6624833 l -17.693304,40.0239911 c -0.3749905,1.1937199 -0.2187444,1.3812152 -0.2187444,1.3812152 0,0 0.5562359,0.356241 0.9312265,0.356241 l 26.18059,-0.1437463 h 0.3374915 c 0,0 0.1624959,-0.2062448 0,-0.7249818 l -8.8685264,-41.0552151 c -0.1312467,-0.4999874 -0.3499912,-0.4999874 -0.3499912,-0.4999874 m -239.806455,93.1601517 -31.4804565,0.1374965 c -0.7187318,0 -1.2624681,-0.2999924 -1.2624681,-0.2999924 0,0 -0.199995,-0.1624959 -0.3437414,-1.4312139 l -4.9436254,-20.3369874 c 0,-0.5124871 -0.3499911,-0.712482 -0.3499911,-0.712482 h -0.5312366 -44.3301326 c -0.9187268,0 -1.4249641,0.712482 -1.4249641,0.712482 0,0 -0.7374814,0.5624858 -1.2624681,1.7812051 l -8.8372773,18.9057734 c -0.3437413,0.6687332 -0.5374864,0.912477 -0.5374864,0.912477 0,0 -0.5499862,0.3249918 -1.0499735,0.3249918 h -36.6553261 c -1.0187243,0.1374966 -1.18747,-0.3249918 -1.18747,-0.3249918 0,0 -0.1937451,-0.593735 0.1687457,-1.268718 l 63.4796498,-127.6530321 c 0.3562411,-0.6937326 0.8562285,-0.8687281 0.8562285,-0.8687281 h 1.2499685 40.5177286 c 0.6437338,0 1.2062196,0.5312366 1.2062196,0.5312366 0,0 0.2062448,0.1499962 0.356241,0.712482 l 27.2493131,127.9592744 c 0,0.5937351 -0.3624908,0.756231 -0.3624908,0.756231 0,0 -0.1499963,0.1624959 -0.5249868,0.1624959 m 141.4901833,0.356241 h -32.3929334 -1.0437237 c 0,0 -0.1874953,-0.2187445 -0.3499912,-0.3624909 l -44.9176177,-79.73549 c -0.3687407,-0.3749906 -0.5187369,-0.3749906 -0.5187369,-0.3749906 0,0 -0.3499912,0 -0.3499912,0.5249868 l -11.1309694,78.3417752 c -0.199995,0.912477 -0.3749906,1.0812227 -0.3749906,1.0812227 0,0 -0.3874902,0.1562461 -0.8937274,0.1562461 h -32.2241877 c -0.5124871,0 -0.8249792,-0.3249918 -0.8249792,-0.3249918 0,0 -0.7249818,-0.7312316 -0.5874852,-1.4374638 l 17.7370529,-126.7655545 c 0.1437463,-0.712482 0.5062372,-0.8999773 0.5062372,-0.8999773 0,0 0.5187369,-0.5124871 1.0749729,-0.5124871 h 35.9053449 c 0.5312366,0 0.8749779,0.3624909 0.8749779,0.3624909 0,0 0.3562411,0.1499962 0.518737,0.712482 l 40.5177286,71.0294595 c 0.674983,1.4812127 1.2124694,1.2624682 1.2124694,1.2624682 0,0 0.5687357,0 0.912477,-1.58746 l 10.2434918,-70.7044677 c 0,-0.5624858 0.3687407,-0.712482 0.3687407,-0.712482 0,0 0.1749956,-0.3562411 0.6874827,-0.3562411 l 33.8116477,0.3624909 c 0.6937325,0 0.8874776,0.1499962 0.8874776,0.1499962 0,0 0.1499962,0.1812455 0.1499962,0.5624859 l -18.1745418,127.815528 c -0.1749956,0.7312316 -0.5374865,1.1937199 -0.5374865,1.1937199 0,0 -0.2187445,0.2187445 -1.0874726,0.2187445 m 151.583679,0.1562461 h -32.3866837 c -0.6749829,0.3874902 -1.2437186,-0.3749906 -1.2437186,-0.3749906 0,0 -0.1499962,-0.1374965 -0.3499912,-1.1937199 l -4.2123938,-19.9494971 c -0.3437413,-1.0874726 -0.7187319,-1.6374587 -0.7187319,-1.6374587 0,0 -0.8874776,-0.5124871 -1.9499508,-0.5124871 h -42.1114385 c -0.8499786,0 -1.4062145,0.5124871 -1.4062145,0.5124871 0,0 -0.7187319,0.712482 -1.0749729,1.7687054 l -9.5310098,20.3057381 c -0.2124946,0.5687357 -0.5374864,0.7062322 -0.5374864,0.7062322 0,0 -0.6937326,0.2187445 -1.1062222,0.2187445 h -36.4053323 c -0.8624782,0.1499962 -1.2124694,-0.3624909 -1.2124694,-0.3624909 0,0 -0.1749956,-0.3249918 0.356241,-1.0562233 l 64.1796322,-128.1905186 c 0.3499912,-0.1812455 0.712482,-0.6937326 0.712482,-0.6937326 0,0 0.3749906,-0.1687457 1.4124644,-0.1687457 h 39.792747 c 0.8937274,0 1.4437136,0.5312366 1.4437136,0.5312366 0,0 0.1624959,0.1499962 0.3312416,0.7124821 l 26.6930771,128.7155053 c 0,0.2999925 -0.1499962,0.518737 -0.1499962,0.518737 0,0 0.00625,0.1499962 -0.5249867,0.1499962 m 92.8789087,-1.8999521 c -0.2249943,1.0624732 -0.3749906,1.387465 -0.3749906,1.387465 0,0 -0.1999949,0.3624909 -1.068723,0.3624909 h -72.8544135 c -2.1374461,0 -2.6811824,-0.518737 -2.6811824,-0.518737 0,0 -0.3624909,-0.7562309 -0.1499963,-2.3249414 l 18.0432952,-125.515586 c 0.1312467,-1.58746 0.5312366,-2.1186966 0.5312366,-2.1186966 h 1.8999521 33.1054155 c 0.912477,0 1.2562183,0.1687457 1.2562183,0.1687457 0,0 0.1499963,0.5124871 0,1.2124695 l -13.6371562,98.1662754 c -0.1812454,1.0562234 0.356241,1.1874701 0.356241,1.1874701 0,0 0.3937401,0.2062448 1.7624556,0.2062448 h 36.0740907 c 0.6874826,0 1.0624732,0.3499912 1.0624732,0.3499912 0,0 0.2062448,0.1812454 0.2062448,1.068723 z m 140.233965,-49.6987472 c 0,0 -0.1374965,0.356241 -0.6937325,0.356241 h -45.2988581 c -0.7187319,0 -1.0687231,0.3499912 -1.0687231,0.3499912 0,0 -0.4687382,0.1624959 -0.4687382,1.0624732 v 48.2675333 c 0,0.7312315 -0.3687407,0.8999773 -0.3687407,0.8999773 0,0 -0.2124946,0.2999924 -0.7812303,0.2999924 h -35.8678458 c -0.556236,0 -0.8874777,-0.2999924 -0.8874777,-0.2999924 0,0 -0.156246,-0.1624959 -0.156246,-1.0812228 v -48.2425339 c 0,-0.556236 -0.5249868,-0.9062271 -0.5249868,-0.9062271 0,0 -0.2187445,-0.3499912 -0.6999824,-0.3499912 h -46.373831 c -0.8687281,0 -1.0562233,-0.1437464 -1.0562233,-0.1437464 0,0 -0.3687408,-0.3937401 -0.3687408,-1.468713 v -35.3491089 c 0,-0.3874902 0.3687408,-0.8937275 0.3687408,-0.8937275 0,0 0.1874952,-0.1374965 0.5374864,-0.1374965 h 47.3738058 c 0.3937401,0 0.3937401,-0.1937451 0.3937401,-0.1937451 0,0 0.3499912,-0.199995 0.3499912,-0.5249868 v -42.2926839 c 0,-0.4874877 0.156246,-0.8687281 0.156246,-0.8687281 0,0 0.3312417,-0.1812454 1.4124644,-0.1812454 h 35.2241121 c 0.6874827,0 0.9062272,0.1812454 0.9062272,0.1812454 0,0 0.3687407,0.3812404 0.3687407,1.0562234 v 42.4114309 h 45.9613414 c 1.2124694,0 1.5749603,0.1999949 1.5749603,0.1999949 0,0 0.5624858,0.1937452 0.5624858,1.2249692 v 35.7365991 c -0.0125,0.3687407 -0.5749855,0.8874777 -0.5749855,0.8874777" />
<path style="fill:white" d="m 699.0886275,361.8408788 h -34.5803783 l -27.9992942,-46.4425793 -5.6248582,46.4425793 h -29.711751 l 14.399637,-117.265794 h 38.161538 c 27.8305485,0 41.4302057,11.743454 41.4302057,35.6616011 0,12.3184394 -3.1374209,20.9494719 -10.3309896,27.6618027 -3.7374058,3.6061591 -6.862327,5.2998664 -14.5496332,8.4122879 z m -60.5422238,-65.3608524 h 5.3373654 c 12.4871853,0 21.0682189,-5.9186008 21.0682189,-14.8621254 0,-7.6685567 -6.0748468,-11.8747006 -17.0308206,-11.8747006 h -5.6061087 z" />
<path d="m 734.4752355,270.393184 h -24.6993774 v -25.8118493 h 80.5354699 v 25.8118493 h -25.3618607 v 91.4539446 h -30.4742318 z" style="fill:white" />
<path style="fill:white" d="m 322.5856183,275.1055652 c -6.3935888,-5.5061112 -12.6184319,-8.012298 -19.3245128,-8.012298 -7.299816,0 -12.7559285,4.3936392 -12.7559285,10.1809933 0,2.1874449 0.9062272,4.2436431 2.7311812,5.7998538 1.9749502,1.8749528 4.6936316,3.3061667 7.5998084,4.2186437 1.6624581,0.6312341 5.1686197,1.5812101 10.1872432,3.1374209 10.4934855,3.2874171 15.8246011,6.2373428 20.6744788,11.7184546 5.1686197,5.6498576 7.2935662,11.8997 7.2935662,20.9494719 0,7.2060684 -1.8374537,16.2370907 -4.2561427,21.2932133 -6.3810892,12.6434313 -21.7557016,20.6432296 -40.1302384,20.6432296 -8.9872735,0 -16.5683324,-1.7374562 -25.8618481,-5.6561074 -6.068597,-2.499937 -8.3622892,-3.9124014 -13.8246515,-7.8373025 l 12.612182,-24.3431363 c 9.12477,8.0497971 17.4808094,11.8809505 26.1618406,11.8809505 8.8122778,0 14.2933897,-4.5561352 14.2933897,-11.6122073 0,-2.3311912 -0.8999774,-4.6873818 -2.4311888,-6.2498425 -3.0499231,-3.1186713 -5.7686045,-4.3436405 -15.3558629,-7.1623194 -9.4372621,-2.818679 -13.0746704,-4.2186437 -17.3308131,-6.5935838 -8.9685239,-4.6936317 -13.3746629,-13.4559108 -13.3746629,-26.0993421 0,-23.6306543 15.6496056,-39.5740024 38.7552731,-39.5740024 12.0246969,0 24.7743755,3.3061666 36.1865878,9.5372596 z" />
<path style="fill:white" d="m 389.8214235,361.872128 h -29.6805019 v -117.265794 h 47.1613112 c 13.3746629,0 20.9744713,2.6374335 28.3992841,9.8497517 7.4873113,7.1748192 11.1309694,16.9058239 11.1309694,29.0367681 0,25.5493559 -13.5434086,39.4490056 -38.4552806,39.4490056 h -18.5557822 z m 9.7247548,-63.4796498 c 11.2434666,0 16.2620901,-4.5186361 16.2620901,-14.5621329 0,-9.8185025 -5.3248658,-14.6871298 -16.0995942,-14.6871298 h -9.8810009 v 29.2492627 z" />
<path style="fill:white" d="m 523.5555523,240.4939377 c -37.1803127,0 -64.8233659,27.3368109 -64.8233659,63.9046391 0,34.8366218 28.5742797,61.8734403 65.4795994,61.8734403 37.3365588,0 65.5170985,-27.0368185 65.5170985,-62.9671627 0,-36.0740907 -28.1805397,-62.8109167 -66.173332,-62.8109167 m 0.6562335,95.8725833 c -19.2057659,0 -34.6053777,-15.4933595 -34.6053777,-34.7553739 0,-18.5870315 15.7433532,-33.9116452 34.6053777,-33.9116452 19.1557671,0 34.5991278,15.3246137 34.5991278,34.2428868 0,19.0995186 -15.4433607,34.4241323 -34.5991278,34.4241323" />
<path d="m 846.2036691,310.7921656 v -20.0432447 h 1.6937073 c 9.7622539,0 14.6433809,-4.006149 14.6433809,-12.0246969 0,-8.2185428 -3.9061516,-12.3309392 -11.7184546,-12.3309392 -8.0060482,0 -12.2809405,4.524886 -12.7934275,13.568408 h -27.5930545 c 1.0249742,-7.499811 2.7311812,-13.4621607 5.0873718,-17.8807993 7.0873213,-13.3621631 19.3745116,-20.0432447 36.8490711,-20.0432447 10.9934729,0 19.9307476,2.8311786 26.818074,8.4810362 7.3998134,6.0623472 11.0934703,14.4871348 11.0934703,25.2743629 0,10.074746 -4.162395,17.9370478 -12.4809353,23.5869054 4.2123938,1.4374638 7.3998134,3.2374184 9.5560091,5.393614 6.1623446,6.0685971 9.243517,14.1308938 9.243517,24.19939 0,12.337189 -4.6248835,21.8931981 -13.8746503,28.6742772 -8.2247927,6.1623447 -18.6995286,9.2497668 -31.4492072,9.2497668 -10.7872281,0 -21.0619691,-3.3936644 -30.8304729,-10.1809933 -7.8060532,-5.4436128 -12.8496761,-13.0996698 -15.112119,-22.968171 -0.5124871,-2.2561932 -0.9187269,-5.237368 -1.2249691,-8.9435246 h 30.6679769 c 1.4437136,11.2059675 6.9873239,16.7995765 16.6558301,16.7995765 4.5186361,0 8.1997933,-1.5374612 11.0247221,-4.6248834 2.8249288,-3.0811723 4.2373932,-6.8810765 4.2373932,-11.3997126 0,-9.8685013 -5.9061011,-14.799627 -17.730803,-14.799627 -1.0124745,0.0125 -1.9374512,0.0125 -2.7624304,0.0125 z" style="fill:white" />
</svg>