<?xml version="1.0" encoding="UTF-8" standalone="no"?>
<svg
   id="Warstwa_1"
   data-name="Warstwa 1"
   width="500"
   height="640"
   viewBox="0 0 500 640"
   version="1.1"
   sodipodi:docname="Polsat_Sport_2_2024.svg"
   inkscape:version="1.3 (0e150ed6c4, 2023-07-21)"
   xmlns:inkscape="http://www.inkscape.org/namespaces/inkscape"
   xmlns:sodipodi="http://sodipodi.sourceforge.net/DTD/sodipodi-0.dtd"
   xmlns="http://www.w3.org/2000/svg"
   xmlns:svg="http://www.w3.org/2000/svg">
  <sodipodi:namedview
     id="namedview17"
     pagecolor="#ffffff"
     bordercolor="#000000"
     borderopacity="0.25"
     inkscape:showpageshadow="2"
     inkscape:pageopacity="0.0"
     inkscape:pagecheckerboard="0"
     inkscape:deskcolor="#d1d1d1"
     inkscape:zoom="1.2703125"
     inkscape:cx="249.9385"
     inkscape:cy="320"
     inkscape:window-width="1920"
     inkscape:window-height="1009"
     inkscape:window-x="-8"
     inkscape:window-y="-8"
     inkscape:window-maximized="1"
     inkscape:current-layer="Warstwa_1" />
  <defs
     id="defs1">
    <style
       id="style1">&#10;      .cls-1 {&#10;        fill: #0073ff;&#10;      }&#10;&#10;      .cls-1, .cls-2, .cls-3, .cls-4 {&#10;        stroke-width: 0px;&#10;      }&#10;&#10;      .cls-2 {&#10;        fill: #0098ff;&#10;      }&#10;&#10;      .cls-3 {&#10;        fill: #00bdff;&#10;      }&#10;&#10;      .cls-4 {&#10;        fill: #00e1ff;&#10;      }&#10;    </style>
  </defs>
  <g
     id="_2"
     data-name="2">
    <path
       class="cls-2"
       d="M146.17,218.73c35.28,5.04,77.62-28.22,111.9-53.41,31.25-24.19,70.56-53.41,100.81-52.41,19.15,0,36.29,11.09,41.33,25.2,0-6.05-4.03-23.18-5.04-30.23-4.03-11.09-13.1-35.27-47.38-35.27s-74.6,30.23-105.85,53.41c-39.31,28.22-72.58,58.45-110.89,51.4-19.15-4.03-28.23-12.09-31.25-21.16,0,5.04,2.02,22.17,5.04,30.23,5.04,10.08,16.13,28.22,41.33,32.25"
       id="path1"
       style="fill:#0073ff;fill-opacity:1" />
    <path
       class="cls-3"
       d="M299.4,8.1c-70.56-23.18-140.12,5.04-178.43,63.49,0,0,7.06,17.13,40.32-10.08C211.69,19.19,237.9,1.05,299.4,8.1"
       id="path2"
       style="fill:#0073ff;fill-opacity:1" />
    <path
       class="cls-4"
       d="M219.76,54.46c-16.13,11.09-37.3,28.22-53.43,39.3-19.15,12.09-45.36,30.23-58.47,7.05-2.02,6.05-5.04,18.14-5.04,23.18,1.01,7.05,8.06,24.19,30.24,24.19,28.23,0,54.44-24.19,94.76-53.41,42.34-30.23,71.57-51.4,105.85-47.37,27.22,4.03,40.32,16.13,49.4,28.22-8.06-16.13-25.2-36.28-48.39-51.4-25.2-15.12-65.52-7.05-114.92,30.23"
       id="path3"
       style="fill:#0073ff;fill-opacity:1" />
    <path
       class="cls-1"
       d="M201.61,284.24c70.56,23.18,140.12-5.04,178.43-63.49,0,0-7.06-17.13-40.32,10.08-51.41,41.32-76.61,60.47-138.1,53.41"
       id="path4" />
    <path
       class="cls-1"
       d="M281.25,237.88c16.13-11.09,37.3-28.22,53.43-39.3,19.15-12.09,45.36-30.23,58.47-7.05,2.02-6.05,5.04-18.14,5.04-23.18-1.01-7.05-8.06-24.19-30.24-24.19-28.23,0-54.44,24.19-94.76,53.41-42.34,30.23-71.57,51.4-105.85,47.37-27.22-4.03-40.32-16.12-49.4-28.22,8.06,16.12,25.2,36.28,48.39,51.4,25.2,15.12,63.51,6.05,114.92-30.23"
       id="path5" />
    <path
       class="cls-1"
       d="M18.15,396.11h23.19l-4.03,31.24v13.1l4.03,36.28v24.19h-23.19v-104.81ZM41.33,460.61h-7.06v-42.33h6.05c2.02-17.13,11.09-25.2,28.23-25.2,19.15,0,33.27,16.12,33.27,41.32s-13.1,41.32-34.27,41.32c-16.13,1.01-23.19-7.05-26.21-15.12M79.64,435.41c0-14.11-6.05-22.17-19.15-22.17-12.1,0-19.15,7.05-19.15,22.17,0,14.11,7.06,22.17,19.15,22.17,13.1-1.01,19.15-8.06,19.15-22.17"
       id="path6" />
    <path
       class="cls-1"
       d="M192.54,435.41c0,24.19-16.13,41.32-41.33,41.32s-41.33-16.12-41.33-41.32,16.13-41.32,41.33-41.32c24.19-1.01,41.33,16.12,41.33,41.32M170.36,435.41c0-14.11-7.06-22.17-19.15-22.17s-19.15,7.05-19.15,22.17c0,14.11,7.06,22.17,19.15,22.17,13.1-1.01,19.15-8.06,19.15-22.17"
       id="path7" />
    <path
       class="cls-1"
       d="M243.95,453.55l2.02,19.15c-5.04,2.02-11.09,4.03-17.14,4.03-16.13,0-23.19-10.08-23.19-25.2v-83.65h22.18v80.63c0,6.05,2.02,8.06,7.06,8.06,3.02-1.01,4.03-2.02,9.07-3.02"
       id="path8" />
    <path
       class="cls-1"
       d="M316.53,398.12l-1.01,19.15c-10.08-4.03-19.15-6.05-28.23-6.05-8.06,0-12.1,1.01-12.1,6.05,0,2.02,1.01,4.03,7.06,5.04l17.14,4.03c14.11,4.03,21.17,12.09,21.17,24.19,0,17.13-12.1,25.2-33.27,25.2-14.11,0-24.19-1.01-31.25-4.03l2.02-19.15c8.06,4.03,18.15,6.05,30.24,6.05,10.08,0,12.1-1.01,12.1-6.05,0-4.03-2.02-5.04-8.06-7.05l-17.14-5.04c-13.1-4.03-19.15-11.09-19.15-23.18,0-14.11,12.1-24.19,33.27-24.19,9.07,0,19.15,2.02,27.22,5.04"
       id="path9" />
    <path
       class="cls-1"
       d="M329.64,435.41c0-24.19,13.1-41.32,35.28-41.32,14.11,0,22.18,6.05,24.19,14.11h7.06v42.33h-6.05c-2.02,18.14-11.09,27.21-28.23,27.21-18.15-1.01-32.26-18.14-32.26-42.33M390.12,435.41c0-14.11-7.06-22.17-19.15-22.17s-19.15,7.05-19.15,22.17c0,14.11,6.05,22.17,19.15,22.17s19.15-8.06,19.15-22.17M393.15,441.46v-14.11l-2.02-30.23h22.18v77.6h-23.19l3.02-33.26Z"
       id="path10" />
    <path
       class="cls-1"
       d="M478.83,415.26h-53.43v-19.15h53.43v19.15ZM480.85,453.55l2.02,19.15c-5.04,2.02-10.08,4.03-19.15,4.03-16.13,0-25.2-8.06-25.2-25.2v-70.55l22.18-4.03v68.53c0,8.06,2.02,11.09,10.08,11.09,3.02-1.01,5.04-2.02,10.08-3.02"
       id="path11" />
    <g
       id="g17">
      <path
         class="cls-1"
         d="M61.49,536.2l-1.01,19.15c-10.08-4.03-19.15-6.05-28.23-6.05s-12.1,1.01-12.1,6.05c0,2.02,1.01,4.03,7.06,5.04l17.14,4.03c13.1,4.03,21.17,11.09,21.17,24.19,0,16.12-12.1,25.2-33.27,25.2-14.11,0-23.19-1.01-31.25-4.03l2.02-19.15c8.06,4.03,18.15,6.05,29.23,6.05,8.06,0,12.1-1.01,12.1-6.05,0-4.03-2.02-5.04-8.06-7.05l-17.14-5.04c-13.1-4.03-19.15-11.09-19.15-23.18,0-14.11,12.1-24.19,33.27-24.19,10.08,0,19.15,1.01,28.23,5.04Z"
         id="path12" />
      <path
         class="cls-1"
         d="M101.81,597.67h-1.01l2.02,18.14v24.19h-23.19v-106.83h22.18l-3.02,23.18h1.01c2.02-17.13,11.09-25.2,28.23-25.2,19.15,0,33.27,17.13,33.27,41.32s-13.1,41.32-34.27,41.32c-13.1,0-22.18-6.05-25.2-16.12ZM140.12,572.48c0-14.11-6.05-22.17-19.15-22.17-12.1,0-19.15,7.05-19.15,22.17,0,14.11,7.06,22.17,19.15,22.17s19.15-9.07,19.15-22.17Z"
         id="path13" />
      <path
         class="cls-1"
         d="M252.02,572.48c0,24.19-16.13,41.32-40.32,41.32s-40.32-16.12-40.32-41.32,16.13-41.32,40.32-41.32,40.32,16.12,40.32,41.32ZM231.85,572.48c0-14.11-7.06-22.17-19.15-22.17s-19.15,7.05-19.15,22.17c0,14.11,7.06,22.17,19.15,22.17,11.09,0,19.15-9.07,19.15-22.17Z"
         id="path14" />
      <path
         class="cls-1"
         d="M320.56,556.35l-8.06-1.01c-16.13-1.01-23.19,6.05-23.19,23.18v33.26h-22.18v-77.6h21.17l-3.02,22.17h2.02c2.02-17.13,10.08-25.2,22.18-25.2,5.04,0,7.06,0,12.1,2.02l-1.01,23.18Z"
         id="path15" />
      <path
         class="cls-1"
         d="M381.05,590.62l2.02,19.15c-6.05,2.02-11.09,4.03-19.15,4.03-16.13,0-25.2-10.08-25.2-25.2v-34.27h-12.1v-21.16h12.1v-16.12l22.18-4.03v19.15h18.15v21.16h-18.15v28.22c0,8.06,2.02,11.09,10.08,11.09,3.02,0,7.06-1.01,10.08-2.02Z"
         id="path16" />
      <path
         class="cls-1"
         d="M446.57,594.65l24.19-2.02h29.23v19.15h-76.61v-21.16l41.33-27.21c8.06-6.05,13.1-12.09,13.1-19.15,0-8.06-6.05-13.1-16.13-13.1-11.09,0-19.15,6.05-22.18,18.14l-19.15-5.04c4.03-21.16,19.15-31.24,42.34-31.24s36.29,12.09,36.29,31.24c0,21.16-22.18,41.32-53.43,48.38l1.01,2.02Z"
         id="path17" />
    </g>
  </g>
</svg>
