<?xml version="1.0" encoding="iso-8859-1"?>
<!-- Generator: Adobe Illustrator 25.3.1, SVG Export Plug-In . SVG Version: 6.00 Build 0)  -->
<svg version="1.1" id="&#x428;&#x430;&#x440;_1" xmlns="http://www.w3.org/2000/svg" xmlns:xlink="http://www.w3.org/1999/xlink"
	 x="0px" y="0px" viewBox="0 0 421.775 458.949" style="enable-background:new 0 0 421.775 458.949;" xml:space="preserve">
<g>
	<g>
		<path style="fill:#FEC708;" d="M44.992,359.07c-15.644,0-23.265,7.621-25.003,22.864l-1.537-0.134l2.072-20.858H0v98.006h21.193
			v-22.73l-1.738-16.312l1.471-0.134c2.474,8.424,9.694,14.708,23.131,14.708c19.053,0,31.153-15.109,31.153-37.705
			C75.209,374.045,63.109,359.07,44.992,359.07z M38.507,416.631c-11.432,0-17.582-6.953-17.582-19.856
			c0-12.969,6.15-19.922,17.582-19.922c11.298,0,17.248,6.953,17.248,19.922C55.755,409.678,49.805,416.631,38.507,416.631z"/>
		<path style="fill:#FEC708;" d="M138.525,396.749c0-12.791-6.125-19.731-17.693-19.731c-11.568,0-17.693,6.94-17.693,19.731
			c0,12.933,6.125,19.732,17.693,19.732C132.4,416.481,138.525,409.682,138.525,396.749L138.525,396.749z M157.99,396.749
			c0,22.728-14.838,37.699-37.158,37.699c-22.32,0-37.158-14.972-37.158-37.699c0-22.728,14.838-37.699,37.158-37.699
			C143.152,359.05,157.99,374.022,157.99,396.749L157.99,396.749z"/>
		<path style="fill:#FEC708;" d="M204.269,413.491l1.772,17.693c-4.635,2.18-9.529,3.271-15.388,3.271
			c-13.881,0-21.504-9.121-21.504-23.826v-76.896h20.148v73.767c0,5.176,2.172,7.897,6.666,7.897
			C198.826,415.397,200.732,414.848,204.269,413.491L204.269,413.491z"/>
		<path style="fill:#FEC708;" d="M271.235,363.403l-1.773,17.56c-8.846-3.812-17.285-5.717-25.449-5.717
			c-7.623,0-10.752,1.498-10.752,5.168c0,2.588,1.631,3.812,6.666,4.902l15.928,3.678c13.34,3.129,18.783,11.018,18.783,22.32
			c0,15.104-11.301,23.135-30.085,23.135c-13.473,0-21.637-0.949-28.986-3.404l1.906-18.101c8.164,3.537,16.469,5.035,27.08,5.035
			c8.306,0,11.16-1.357,11.301-5.443c0-3.129-1.772-4.494-8.031-6.125l-15.928-4.078c-12.109-3.137-17.418-9.529-17.418-21.105
			c0-13.881,11.293-22.178,30.217-22.178C254.083,359.051,263.204,360.549,271.235,363.403L271.235,363.403z"/>
		<path style="fill:#FEC708;" d="M337.808,360.943l1.069,11.03l-1.471,0.134c-3.276-7.755-9.025-13.036-22.596-13.036
			c-19.454,0-31.755,15.109-31.755,37.705c0,22.73,12.1,37.705,30.218,37.705c15.643,0,23.332-8.357,25.07-24.535l1.604,0.133
			l-2.407,22.462h20.792v-71.599H337.808z M319.824,416.631c-11.298,0-17.248-6.953-17.248-19.856
			c0-12.969,5.95-19.922,17.248-19.922c11.432,0,17.582,6.953,17.582,19.922C337.407,409.678,331.256,416.631,319.824,416.631z"/>
		<path style="fill:#FEC708;" d="M421.775,431.205c-4.346,1.872-9.092,3.276-17.716,3.276c-14.24,0-23.398-8.223-23.398-23.733
			v-31.421h-10.897v-18.385h10.897v-14.975l20.123-3.008v17.983h17.047v18.385h-17.047v26.006c0,7.755,2.206,10.094,9.159,10.094
			c3.276,0,6.084-0.601,9.894-2.072L421.775,431.205z"/>
	</g>
	<path style="fill:#FFC700;" d="M116.626,199.474c-23.885-3.404-33.064-19.482-37.375-29.152
		c-1.922-8.097-4.286-22.944-4.627-27.646c2.572,7.398,10.353,15.704,28.329,19.033c33.496,6.183,65.054-20.913,100.265-46.787
		c28.362-20.838,63.922-48.385,95.737-48.518c30.833-0.133,40.071,22.228,43.458,32.307c1.773,7.365,4.244,22.761,4.71,27.937
		c-4.794-13.557-20.098-23.577-37.558-23.776c-26.714-0.3-62.358,26.431-91.293,48.193
		C187.43,174.25,149.157,204.109,116.626,199.474L116.626,199.474z M255.153,7.35C191.58-13.713,127.7,11.993,93.121,65.33
		c0,0,7.14,15.354,36.525-9.146C175.435,18.002,199.295,0.625,255.153,7.35L255.153,7.35z M182.928,49.518
		C168.847,59.829,148.4,75.45,133.903,85.137c-17.135,11.459-41.086,27.613-52.695,6.283c-1.689,5.268-4.852,16.253-4.96,21.113
		c0.574,6.932,7.348,21.762,27.28,22.104c25.632,0.441,49.375-21.688,85.659-48.609c38.123-28.295,64.671-46.87,95.729-43.242
		c24.608,2.871,36.409,14.472,45.406,26.081c-7.798-14.955-23.543-33.114-43.899-46.179
		C263.877,8.199,228.383,16.229,182.928,49.518L182.928,49.518z M166.267,259.633c63.572,21.063,127.453-4.644,162.031-57.98
		c0,0-7.14-15.354-36.525,9.146C245.984,248.981,222.124,266.357,166.267,259.633L166.267,259.633z M238.492,217.464
		c14.081-10.311,34.528-25.932,49.025-35.619c17.135-11.459,41.086-27.613,52.695-6.283c1.689-5.268,4.852-16.253,4.96-21.113
		c-0.574-6.932-7.349-21.762-27.28-22.104c-25.632-0.441-49.375,21.688-85.659,48.609c-38.123,28.295-64.671,46.87-95.729,43.242
		c-24.608-2.871-36.409-14.472-45.406-26.081c7.798,14.955,23.543,33.114,43.891,46.179
		C157.542,258.783,193.036,250.752,238.492,217.464L238.492,217.464z"/>
</g>
</svg>
