<?xml version="1.0" encoding="UTF-8" standalone="no"?>
<svg
   id="Warstwa_1"
   data-name="Warstwa 1"
   width="500"
   height="680"
   viewBox="0 0 500 680"
   version="1.1"
   sodipodi:docname="Polsat_Sport_1_2024.svg"
   inkscape:version="1.3 (0e150ed6c4, 2023-07-21)"
   xmlns:inkscape="http://www.inkscape.org/namespaces/inkscape"
   xmlns:sodipodi="http://sodipodi.sourceforge.net/DTD/sodipodi-0.dtd"
   xmlns="http://www.w3.org/2000/svg"
   xmlns:svg="http://www.w3.org/2000/svg">
  <sodipodi:namedview
     id="namedview17"
     pagecolor="#ffffff"
     bordercolor="#000000"
     borderopacity="0.25"
     inkscape:showpageshadow="2"
     inkscape:pageopacity="0.0"
     inkscape:pagecheckerboard="0"
     inkscape:deskcolor="#d1d1d1"
     inkscape:zoom="1.1955882"
     inkscape:cx="249.6679"
     inkscape:cy="340"
     inkscape:window-width="1920"
     inkscape:window-height="1009"
     inkscape:window-x="-8"
     inkscape:window-y="-8"
     inkscape:window-maximized="1"
     inkscape:current-layer="Warstwa_1" />
  <defs
     id="defs1">
    <style
       id="style1">&#10;      .cls-1 {&#10;        fill: #0073ff;&#10;      }&#10;&#10;      .cls-1, .cls-2, .cls-3, .cls-4 {&#10;        stroke-width: 0px;&#10;      }&#10;&#10;      .cls-2 {&#10;        fill: #0098ff;&#10;      }&#10;&#10;      .cls-3 {&#10;        fill: #00bdff;&#10;      }&#10;&#10;      .cls-4 {&#10;        fill: #00e1ff;&#10;      }&#10;    </style>
  </defs>
  <g
     id="_1"
     data-name="1">
    <path
       class="cls-2"
       d="M142.7,232.77c37.55,5.36,82.62-30.03,119.1-56.84,33.26-25.74,75.11-56.84,107.3-55.77,20.39,0,38.63,11.8,43.99,26.81,0-6.43-4.29-24.67-5.36-32.17-4.29-11.8-13.95-37.54-50.43-37.54s-79.4,32.17-112.66,56.84c-41.85,30.03-77.25,62.2-118.03,54.7-20.39-4.29-30.04-12.87-33.26-22.52,0,5.36,2.15,23.59,5.36,32.17,5.36,10.72,17.17,30.03,43.99,34.32"
       id="path1"
       style="fill:#0073ff;fill-opacity:1" />
    <path
       class="cls-3"
       d="M305.79,8.62c-75.11-24.67-149.14,5.36-189.91,67.57,0,0,7.51,18.23,42.92-10.72C212.45,20.42,240.34,1.11,305.79,8.62"
       id="path2"
       style="fill:#0073ff;fill-opacity:1" />
    <path
       class="cls-4"
       d="M221.03,57.96c-17.17,11.8-39.7,30.03-56.87,41.83-20.39,12.87-48.28,32.17-62.23,7.51-2.15,6.43-5.36,19.3-5.36,24.67,1.07,7.51,8.58,25.74,32.19,25.74,30.04,0,57.94-25.74,100.86-56.84,45.06-32.17,76.18-54.7,112.66-50.41,28.97,4.29,42.92,17.16,52.58,30.03-8.58-17.16-26.82-38.61-51.5-54.7-26.82-16.09-68.67-7.51-122.32,32.17"
       id="path3"
       style="fill:#0073ff;fill-opacity:1" />
    <path
       class="cls-1"
       d="M201.72,302.48c75.11,24.67,149.14-5.36,189.91-67.57,0,0-7.51-18.23-42.92,10.72-54.72,43.97-81.55,64.35-147,56.84"
       id="path4" />
    <path
       class="cls-1"
       d="M286.48,253.15c17.17-11.8,39.7-30.03,56.87-41.83,20.39-12.87,48.28-32.17,62.23-7.51,2.15-6.43,5.36-19.3,5.36-24.67-1.07-7.51-8.58-25.74-32.19-25.74-30.04,0-57.94,25.74-100.86,56.84-45.06,32.17-76.18,54.7-112.66,50.41-28.97-4.29-42.92-17.16-52.58-30.03,8.58,17.16,26.82,38.61,51.5,54.7,26.82,16.09,69.74,6.43,122.32-32.17"
       id="path5" />
    <path
       class="cls-1"
       d="M59.01,418.31c-18.24,0-26.82,8.58-30.04,26.81h-1.07l2.15-24.67H5.36v113.68h24.68v-25.74l-2.15-19.3h1.07c2.15,10.72,11.8,17.16,26.82,17.16,22.53,0,36.48-18.23,36.48-43.97,3.22-25.74-11.8-43.97-33.26-43.97ZM52.58,485.88c-12.88,0-20.39-7.51-20.39-23.59,0-15.01,7.51-23.59,20.39-23.59s20.39,7.51,20.39,23.59c-1.07,16.09-7.51,23.59-20.39,23.59Z"
       id="path6" />
    <path
       class="cls-1"
       d="M192.06,463.36c0,25.74-17.17,43.97-43.99,43.97s-43.99-17.16-43.99-43.97,17.17-43.97,43.99-43.97c25.75-1.07,43.99,17.16,43.99,43.97M168.45,463.36c0-15.01-7.51-23.59-20.39-23.59s-20.39,7.51-20.39,23.59c0,15.01,7.51,23.59,20.39,23.59,13.95-1.07,20.39-8.58,20.39-23.59"
       id="path7" />
    <path
       class="cls-1"
       d="M246.78,482.66l2.15,20.38c-5.36,2.14-11.8,4.29-18.24,4.29-17.17,0-24.68-10.72-24.68-26.81v-89.02h23.61v85.8c0,6.43,2.15,8.58,7.51,8.58,3.22-1.07,4.29-2.14,9.66-3.22"
       id="path8" />
    <path
       class="cls-1"
       d="M324.03,423.67l-1.07,20.38c-10.73-4.29-20.39-6.43-30.04-6.43-8.58,0-12.88,1.07-12.88,6.43,0,2.14,1.07,4.29,7.51,5.36l18.24,4.29c15.02,4.29,22.53,12.87,22.53,25.74,0,18.23-12.88,26.81-35.41,26.81-15.02,0-25.75-1.07-33.26-4.29l2.15-20.38c8.58,4.29,19.31,6.43,32.19,6.43,10.73,0,12.88-1.07,12.88-6.43,0-4.29-2.15-5.36-8.58-7.51l-18.24-5.36c-13.95-4.29-20.39-11.8-20.39-24.67,0-15.01,12.88-25.74,35.41-25.74,9.66,0,20.39,2.14,28.97,5.36"
       id="path9" />
    <path
       class="cls-1"
       d="M403.43,421.53l1.07,12.87h-1.07c-4.29-8.58-10.73-15.01-25.75-15.01-23.61,0-37.55,18.23-37.55,43.97s13.95,43.97,35.41,43.97c18.24,0,26.82-8.58,30.04-28.96h1.07l-2.15,25.74h23.61v-82.58s-24.68,0-24.68,0ZM380.9,485.88c-12.88,0-20.39-7.51-20.39-23.59,0-15.01,6.44-23.59,20.39-23.59,12.88,0,20.39,7.51,20.39,23.59,1.07,16.09-5.36,23.59-20.39,23.59Z"
       id="path10" />
    <path
       class="cls-1"
       d="M498.93,482.66c-4.29,1.07-7.51,2.14-11.8,2.14-7.51,0-10.73-2.14-10.73-11.8v-30.03h19.31v-22.52h-18.24v-20.38l-24.68,2.14v18.23h-12.88v22.52h12.88v36.46c0,18.23,10.73,26.81,26.82,26.81,10.73,0,15.02-1.07,20.39-4.29l-1.07-19.3Z"
       id="path11" />
    <path
       class="cls-1"
       d="M65.45,570.61l-2.15,19.3c-10.73-4.29-20.39-6.43-30.04-6.43-8.58,0-12.88,1.07-12.88,6.43,0,2.14,1.07,4.29,7.51,5.36l18.24,4.29c13.95,4.29,22.53,11.8,22.53,25.74,0,17.16-12.88,26.81-35.41,26.81-15.02,0-25.75-1.07-33.26-4.29l2.15-20.38c8.58,4.29,19.31,6.43,31.12,6.43,8.58,0,12.88-1.07,12.88-6.43,0-4.29-2.15-5.36-8.58-7.51l-17.17-4.29C6.44,611.36,0,603.85,0,590.98c0-17.16,12.88-25.74,35.41-25.74,10.73,0,20.39,1.07,30.04,5.36Z"
       id="path12" />
    <path
       class="cls-1"
       d="M108.37,634.96h-1.07l2.15,19.3v25.74h-24.68v-113.68h24.68l-2.15,24.67h1.07c2.15-18.23,11.8-26.81,30.04-26.81,20.39,0,35.41,18.23,35.41,43.97s-13.95,43.97-36.48,43.97c-16.09,1.07-25.75-5.36-28.97-17.16ZM149.14,609.22c0-15.01-6.44-23.59-20.39-23.59-12.88,0-20.39,7.51-20.39,23.59s7.51,23.59,20.39,23.59,20.39-9.65,20.39-23.59Z"
       id="path13" />
    <path
       class="cls-1"
       d="M268.24,609.22c0,25.74-17.17,43.97-42.92,43.97s-42.92-17.16-42.92-43.97,17.17-43.97,42.92-43.97,42.92,17.16,42.92,43.97ZM246.78,609.22c0-15.01-7.51-23.59-20.39-23.59s-20.39,7.51-20.39,23.59c0,15.01,7.51,23.59,20.39,23.59,12.88,0,20.39-9.65,20.39-23.59Z"
       id="path14" />
    <path
       class="cls-1"
       d="M341.2,590.98l-8.58-1.07c-17.17-1.07-24.68,6.43-24.68,24.67v35.39h-23.61v-83.65h21.46l-2.15,24.67h2.15c2.15-18.23,10.73-26.81,23.61-26.81,5.36,0,7.51,0,12.88,2.14l-1.07,24.67Z"
       id="path15" />
    <path
       class="cls-1"
       d="M405.58,628.52l2.15,20.38c-6.44,2.14-11.8,4.29-20.39,4.29-17.17,0-26.82-10.72-26.82-26.81v-36.46h-12.88v-22.52h12.88v-17.16l23.61-4.29v20.38h19.31v22.52h-19.31v30.03c0,8.58,2.15,11.8,10.73,11.8,3.22-1.07,7.51-1.07,10.73-2.15Z"
       id="path16" />
    <path
       class="cls-1"
       d="M474.25,651.04v-81.51l-19.31,11.8-10.73-19.3,31.12-19.3h24.68v108.32s-25.75,0-25.75,0Z"
       id="path17" />
  </g>
</svg>
