<svg xmlns="http://www.w3.org/2000/svg" fill="none" viewBox="0 0 131.13 38"><path fill="#00184B" d="m125.99 26.06 3.34-16.23h-11.58L103.47 23.2a10.48 10.48 0 0 0 2.49-6.83c-.17-7.34-11.88-7.61-14.76-7.51-14.06.75-16.45 11-16.45 11h9.74c.32-1 1.48-4.54 7.97-4.44 6.96.75 3.17 5.94-3.76 6.87-4.55.82-11.02 2.08-17.37 9.82l-.1.14v-12.7c0-5-.43-6.6-2.23-8.32-1.53-1.5-4.04-2.39-6.6-2.39-2.18 0-4.41.61-5.72 1.56a6.64 6.64 0 0 0-2.28 2.99h-.11v-4H38.35l-4.8 14.93L28.7 9.4H14.65V0H4.15v9.4H0v7.18h4.15v12.27c-.06 3.78.93 6.05 3.28 7.7C8.96 37.61 10.65 38 13.88 38c2.84-.06 3.71-.17 6.33-.6v-7.88c-1.25.34-2.18.5-3.05.5-1.86 0-2.52-.78-2.52-2.95v-10.5h5.5l7.74 21.08h8.07L44.2 14.8v22.8h10.85V20.66c0-2.9.98-4.28 3-4.28 1.68 0 2.28 1 2.28 3.44v17.8H69l31.94.03 1-4.85h14.43l-.99 4.8 8.22.05 1-4.85 5.14-.01 1.2-5.97.16-.76H126Zm-26.39.76-.84 4.08H82.21c.12-.05 5.77-2.56 10.96-3.42 5.12-.89 7.7-2.05 9.6-3.63l-3.17 2.97Zm18.16-.76h-8.97l10.97-9.69-2 9.69Z"/></svg>