<?xml version="1.0" encoding="utf-8"?>
<!-- Generator: Adobe Illustrator 24.2.0, SVG Export Plug-In . SVG Version: 6.00 Build 0)  -->
<svg version="1.1" id="Слой_1" xmlns="http://www.w3.org/2000/svg" xmlns:xlink="http://www.w3.org/1999/xlink" x="0px" y="0px"
	 viewBox="0 0 1208.2 457" enable-background="new 0 0 1208.2 457" xml:space="preserve">
<g id="layer1_1_" transform="translate(247.49381,-55.611724)">
	<path id="path24056_1_" fill-rule="evenodd" clip-rule="evenodd" fill="#0099D8" d="M-247.5,55.6H960.7v457H-247.5V55.6z"/>
	<path id="path24056" fill-rule="evenodd" clip-rule="evenodd" fill="#FFFFFF" d="M802.4,432.8V109.9l-132.1,69.5v81.7l57-34.6
		v206.3H802.4z M-124.3,128.6H570v304.2h-694.4V128.6z M-108.9,142.3H102v276.8h-210.9V142.3z M69.7,224.4v-36.5H-76.5v36.5h52.8
		v152.1h40.5V224.4H69.7z M222.9,382.2l-87.4-196.6h42.4l43.4,99.4l1.5,5.9l1.5-6l43.4-99.3h42.4L222.9,382.2z M427.4,224.4h13.8
		c21.8,0.3,32.7,7.7,34.2,29.4c-1.3,22.5-14.1,29.7-36.1,30.1h-11.9V224.4z M389.3,187.9v188.7h38.2v-57.6l8.2,0.2
		c51.4,0,76.7-33.4,76.7-66.4c0-32.6-24.4-64.9-73.2-64.9L389.3,187.9z M343.7,142.3h210.9v276.8H343.7V142.3z M117.4,142.3h210.9
		v276.8H117.4V142.3z"/>
</g>
</svg>
