<?xml version="1.0" encoding="utf-8"?>
<!-- Generator: Adobe Illustrator 24.2.0, SVG Export Plug-In . SVG Version: 6.00 Build 0)  -->
<svg version="1.1" id="Слой_1" xmlns="http://www.w3.org/2000/svg" xmlns:xlink="http://www.w3.org/1999/xlink" x="0px" y="0px"
	 viewBox="0 0 1205.4 456" enable-background="new 0 0 1205.4 456" xml:space="preserve">
<path id="path24044_1_" fill-rule="evenodd" clip-rule="evenodd" fill="#E77A34" d="M0,0h1205.4v456H0V0z"/>
<path id="path24044" fill-rule="evenodd" clip-rule="evenodd" fill="#FFFFFF" d="M364,86.5h210.4v276.2H364V86.5z M589.9,86.5h210.4
	v276.2H589.9V86.5z M635.4,132v188.2h38.1v-57.5l8.2,0.3c51.4,0,76.6-33.3,76.6-66.3c0-32.5-24.4-64.7-73.1-64.7H635.4z
	 M673.4,168.4h13.7c21.8,0.3,32.6,7.7,34.2,29.3c-1.4,22.5-14.1,29.6-36.1,30h-11.9V168.4z M469.3,325.8l-87.1-196.2h42.3l43.3,99.2
	l1.5,5.9l1.5-6l43.3-99.1h42.3L469.3,325.8z M316.4,168.4V132H170.5v36.4h52.7v151.8h40.5V168.4H316.4z M138.2,86.5h210.4v276.2
	H138.2V86.5z M122.9,72.8h692.8v303.5H122.9V72.8z M1108.6,163c0-56.4-41.7-97.6-113.1-97.6c-69.7,0-114,42.6-114,112.2v2.1h74v-3.8
	c0-31.9,15.1-49.1,40.9-49.1c22.3,0,37,15.1,37,36.6c0,14.2-8.2,30.1-24.5,49.5L870.7,376.3h234.9V311h-94.2l55.4-61.1
	C1093.5,220.2,1108.6,195.2,1108.6,163"/>
</svg>
