<?xml version="1.0" encoding="utf-8"?>
<!-- Generator: Adobe Illustrator 25.2.3, SVG Export Plug-In . SVG Version: 6.00 Build 0)  -->
<svg version="1.1" id="Шар_1" xmlns="http://www.w3.org/2000/svg" xmlns:xlink="http://www.w3.org/1999/xlink" x="0px" y="0px"
	 viewBox="0 0 1667.09 223.1" style="enable-background:new 0 0 1667.09 223.1;" xml:space="preserve">
<style type="text/css">
	.st0{filter:url(#Adobe_OpacityMaskFilter);}
	.st1{fill-rule:evenodd;clip-rule:evenodd;fill:#FFFFFF;}
	.st2{mask:url(#nvumf6mi3b_1_);fill-rule:evenodd;clip-rule:evenodd;fill:#C2EB03;}
	.st3{fill-rule:evenodd;clip-rule:evenodd;fill:#3C3352;}
</style>
<g>
	<g>
		<g>
			<g>
				
					<g transform="translate(-78.000000, -119.000000) translate(0.000000, 102.000000) translate(78.000000, 17.000000) translate(53.786561, 0.126194)">
					<defs>
						<filter id="Adobe_OpacityMaskFilter" filterUnits="userSpaceOnUse" x="642.12" y="-0.13" width="971.18" height="223.1">
							<feColorMatrix  type="matrix" values="1 0 0 0 0  0 1 0 0 0  0 0 1 0 0  0 0 0 1 0"/>
						</filter>
					</defs>
					<mask maskUnits="userSpaceOnUse" x="642.12" y="-0.13" width="971.18" height="223.1" id="nvumf6mi3b_1_">
						<g class="st0">
							<path id="fcmtc5qota_1_" class="st1" d="M642.12-0.13h971.19v223.1H642.12V-0.13z"/>
						</g>
					</mask>
					<path class="st2" d="M1442.56,4.8h170.74v42.98h-60.01v170.26h-50.72V47.75h-60.01C1442.56,47.75,1442.56,4.8,1442.56,4.8z
						 M709.53,222.97c56.91,0,91.85-32.19,91.85-71.73c0-25.64-14.22-45.42-47.93-58.08l-26.29-9.89
						c-24.74-9.27-33.09-15.14-33.09-25.04c0-11.72,10.52-19.14,30.93-19.14c17.31,0,32.47,5.87,50.41,15.74l16.7-38.91
						C769.53,4.51,748.49-0.13,727.78-0.13c-49.17,0-84.12,26.56-84.12,67.03c0,28.12,17.01,47.88,51.96,60.86l22.59,8.34
						c23.49,8.65,32.78,15.14,32.78,25.33c0,13.29-15.78,21.32-37.12,21.32c-19.8,0-36.19-6.8-56.29-20.7l-15.45,41.7
						C659.74,217.36,686.03,222.97,709.53,222.97z M1128.65,179.97c-37.43,0-59.07-33.36-59.07-69.51
						c0-38.61,20.11-67.65,58.46-67.65c37.4,0,59.06,31.52,59.06,68.89s-18.87,68.27-58.46,68.27L1128.65,179.97z M1125.56,222.97
						c75.15,0,113.82-54.13,113.82-111.89c0-55.6-37.43-111.21-110.1-111.21c-74.53,0-111.96,55.61-111.96,111.21
						C1017.32,169.78,1055.67,222.97,1125.56,222.97z M1317.57,114.21V44.66h21.35c28.78,0,38.67,14.84,38.67,34.61
						s-13.29,34.92-41.14,34.92h-18.87L1317.57,114.21z M1344.93,154.06l38.52,63.99h57.96l-46.95-77.85
						c23.01-14.07,35.4-37.14,35.4-60.91c0-41.72-26.91-74.47-90.02-74.47h-73.01v213.2h50.72v-63.96h27.39L1344.93,154.06z
						 M903,4.8h-73.01v213.24h50.73v-63.97h23.2c56.93,0,89.1-36.47,89.1-74.79c0-41.72-26.92-74.47-90.03-74.47V4.8z
						 M880.71,114.22V44.66h21.35c28.78,0,38.68,14.84,38.68,34.61c0,19.78-13.31,34.92-41.16,34.92h-18.87V114.22z"/>
				</g>
				<path class="st3" d="M493.22,114.33V44.79h21.36c28.77,0,38.67,14.84,38.67,34.61c0,19.78-13.29,34.92-41.14,34.92
					C512.1,114.33,493.22,114.33,493.22,114.33z M515.49,4.93h-73.01v213.24h50.73v-63.97h23.2c56.93,0,89.1-36.47,89.1-74.79
					c0-41.71-26.91-74.47-90.03-74.47V4.93z M170.72,4.93H0V47.9h60.01v170.25h50.72V47.9h60V4.93H170.72z M306.61,132.31
					L364.68,4.93h54.81L318.25,218.17h-23.28L193.71,4.93h54.81l58.08,127.38H306.61z"/>
			</g>
		</g>
	</g>
</g>
</svg>
