<?xml version="1.0" encoding="UTF-8"?>
<svg id="Calque_1" data-name="Calque 1" xmlns="http://www.w3.org/2000/svg" xmlns:xlink="http://www.w3.org/1999/xlink" viewBox="0 0 307.8992 145.8709">
  <defs>
    <style>
      .cls-1 {
        fill: #83ffc4;
      }

      .cls-2 {
        fill: #fff;
      }

      .cls-3 {
        fill: url(#Dégradé_sans_nom_80);
      }
    </style>
    <linearGradient id="Dégradé_sans_nom_80" data-name="Dégradé sans nom 80" x1="177.5962" y1="30.2149" x2="199.8894" y2="30.2149" gradientUnits="userSpaceOnUse">
      <stop offset="0" stop-color="#83ffc4"/>
      <stop offset="1" stop-color="#7ec9bf"/>
    </linearGradient>
  </defs>
  <g>
    <path class="cls-2" d="M216.5594,69.2174v-34.8425h6.0553v15.6315c.5674-.9931,1.454-1.7437,2.66-2.2536,1.206-.5089,2.5828-.7644,4.1304-.7644,2.9145,0,5.2236.8099,6.9261,2.4279,1.7021,1.6189,2.5536,3.7893,2.5536,6.5103v13.2908h-6.0553v-11.6848c0-1.4961-.4065-2.6704-1.2189-3.521-.8124-.8515-2.0056-1.2773-3.5789-1.2773-.9288,0-1.7932.1743-2.5927.5228-.7995.3475-1.4511.8961-1.9541,1.6437-.503.7486-.7931,1.7159-.8703,2.9021v11.4145h-6.0553Z"/>
    <path class="cls-2" d="M78.4363,69.662c-2.0506,0-3.8596-.4763-5.4265-1.4308-1.5669-.9545-2.7893-2.2833-3.666-3.9854-.8773-1.7031-1.3154-3.6764-1.3154-5.9201,0-2.2575.4381-4.2369,1.3154-5.9399.8768-1.7021,2.0991-3.0299,3.666-3.9844,1.5669-.9545,3.3759-1.4318,5.4265-1.4318,1.8833,0,3.4502.4258,4.7012,1.2763,1.2511.8515,2.1863,2.1189,2.8051,3.8022.6193,1.6823.9288,3.7755.9288,6.2776s-.3094,4.5943-.9288,6.2776c-.6188,1.6833-1.554,2.9477-2.8051,3.7923-1.2511.8446-2.818,1.2664-4.7012,1.2664ZM79.5007,63.9558c1.612,0,2.9081-.5159,3.8883-1.5486.9803-1.0317,1.4704-2.3922,1.4704-4.0814,0-1.1476-.2223-2.1407-.6674-2.9794-.4451-.8387-1.0674-1.4902-1.8669-1.9546-.8-.4634-1.7412-.6961-2.8244-.6961s-2.0283.2327-2.8343.6961c-.8065.4644-1.4318,1.1199-1.8768,1.9645-.4446.8446-.6674,1.8348-.6674,2.9695,0,1.1218.2228,2.1051.6674,2.9497.4451.8456,1.0738,1.5031,1.8862,1.9734.8129.4713,1.7541.707,2.8249.707ZM84.8594,69.2174v-21.7448h5.9974v21.7448h-5.9974Z"/>
    <path class="cls-2" d="M101.3015,69.2174v-16.0187h-8.3767v-5.7261h8.3767v-11.9947h6.0553v11.9947h8.3772v5.7261h-8.3772v16.0187h-6.0553Z"/>
    <path class="cls-2" d="M128.7946,69.662c-2.3863,0-4.4626-.4703-6.2295-1.412-1.7669-.9416-3.1338-2.2506-4.1012-3.9269-.9674-1.6763-1.4511-3.6111-1.4511-5.8043,0-2.3209.5159-4.3497,1.5476-6.0845,1.0317-1.7338,2.4343-3.0823,4.2077-4.0428,1.7734-.9604,3.7561-1.4417,5.9493-1.4417,2.3214,0,4.3299.506,6.0261,1.5189,1.6956,1.0129,3.0086,2.3922,3.9368,4.1398.9288,1.7476,1.3931,3.724,1.3931,5.93v1.5664h-18.5723v-4.1012h14.8964l-1.8763.9674c-.3099-1.4446-.9481-2.6021-1.9155-3.4725s-2.2764-1.306-3.9274-1.306c-1.1991,0-2.2506.2545-3.1531.7644-.903.5099-1.6031,1.2288-2.0991,2.1566-.4966.9288-.7451,2.0318-.7451,3.3081,0,1.2516.2485,2.3249.7451,3.222.4961.8961,1.1961,1.5833,2.0991,2.0605.9025.4773,1.9664.7149,3.1923.7149,1.1476,0,2.1343-.2119,2.9596-.6377.8253-.4258,1.3738-1.0446,1.6446-1.8575h6.6355c-.7352,2.5279-2.0957,4.4497-4.0819,5.7647-1.9862,1.3159-4.3463,1.9734-7.0806,1.9734Z"/>
    <path class="cls-2" d="M152.8855,69.662c-2.0506,0-3.8596-.4763-5.4265-1.4308s-2.7893-2.2833-3.666-3.9854c-.8773-1.7031-1.3154-3.6764-1.3154-5.9201,0-2.2575.4381-4.2369,1.3154-5.9399.8768-1.7021,2.0991-3.0299,3.666-3.9844s3.3759-1.4318,5.4265-1.4318c1.8833,0,3.4502.4258,4.7012,1.2763,1.2511.8515,2.1863,2.1189,2.8051,3.8022.6193,1.6823.9288,3.7755.9288,6.2776s-.3094,4.5943-.9288,6.2776c-.6188,1.6833-1.554,2.9477-2.8051,3.7923-1.2511.8446-2.818,1.2664-4.7012,1.2664ZM153.9499,63.9558c1.612,0,2.9081-.5159,3.8883-1.5486.9803-1.0317,1.4704-2.3922,1.4704-4.0814,0-1.1476-.2223-2.1407-.6674-2.9794-.4451-.8387-1.0674-1.4902-1.8669-1.9546-.8-.4634-1.7412-.6961-2.8244-.6961s-2.0283.2327-2.8343.6961c-.8065.4644-1.4318,1.1199-1.8768,1.9645-.4446.8446-.6674,1.8348-.6674,2.9695,0,1.1218.2228,2.1051.6674,2.9497.4451.8456,1.0738,1.5031,1.8862,1.9734.8129.4713,1.7541.707,2.8249.707ZM159.3086,69.2174v-21.7448h5.9974v21.7448h-5.9974Z"/>
    <path class="cls-2" d="M176.6095,69.2174v-16.0187h-8.3767v-5.7261h14.432v16.0187h8.3772v5.7261h-14.4325Z"/>
    <path class="cls-2" d="M203.9206,69.662c-2.0249,0-3.8502-.3129-5.4751-.9377-1.6248-.6258-2.9279-1.5219-3.9081-2.6893s-1.5154-2.5635-1.6055-4.1883h6.6355c.1421.9674.6065,1.6803,1.3931,2.1377.7867.4575,1.7991.6862,3.0373.6862.9288,0,1.7248-.1604,2.3892-.4832.6644-.3218.9966-.8.9966-1.4318,0-.5545-.2456-.9476-.7352-1.1803-.4906-.2317-1.006-.3931-1.5476-.4832l-4.3918-.7159c-2.1541-.3485-3.8339-1.0991-5.0399-2.2536-1.206-1.1545-1.8085-2.5833-1.8085-4.2854,0-2.0764.8669-3.7438,2.6021-5.0013,1.7343-1.2575,3.969-1.8862,6.7033-1.8862,1.7927,0,3.4274.2842,4.9042.8515,1.4768.5674,2.6729,1.3902,3.5888,2.4665.9154,1.0773,1.4248,2.3764,1.5283,3.8982h-6.636c-.0901-.7347-.4807-1.2892-1.1704-1.6635-.6901-.3743-1.4798-.5614-2.3699-.5614-.8639,0-1.5768.1614-2.1377.4842-.5609.3218-.8416.7476-.8416,1.2763,0,.4.1842.7416.5515,1.0258.3673.2832.9382.4961,1.712.6377l4.3918.7743c2.3085.4,4.0334,1.1416,5.175,2.2249s1.712,2.4506,1.712,4.1012c0,2.1793-.8867,3.924-2.66,5.233-1.7734,1.309-4.1047,1.9635-6.9935,1.9635Z"/>
  </g>
  <path class="cls-3" d="M177.5963,19.5175l.1118,21.419c.0093,1.7865,1.9633,2.8805,3.4912,1.9547l17.5822-10.6536c1.4756-.8941,1.4775-3.0344.0036-3.9312l-17.694-10.7654c-1.537-.9352-3.5042.1774-3.4948,1.9765Z"/>
  <g>
    <path class="cls-1" d="M88.7402,114.7994c-2.2523,0-4.2328-.4764-5.94-1.4307-1.7072-.9528-3.0411-2.2742-4.0016-3.9626-.9606-1.69-1.4385-3.6408-1.4385-5.8541,0-2.2273.4779-4.1844,1.4385-5.8728.9606-1.69,2.2945-3.0067,4.0016-3.9548,1.7072-.9465,3.6877-1.4198,5.94-1.4198,1.9586,0,3.7111.3624,5.259,1.084,1.5479.7232,2.8146,1.7369,3.8001,3.0426s1.5994,2.8349,1.8431,4.5874h-5.5854c-.3061-1.2292-.934-2.1882-1.8805-2.8786-.9465-.6919-2.093-1.0371-3.4362-1.0371-1.2542,0-2.3507.2655-3.2925.7966-.9403.5311-1.6713,1.2792-2.1961,2.246-.5248.9653-.7872,2.1008-.7872,3.4065,0,1.3042.2624,2.4413.7872,3.4065.5248.9668,1.2558,1.715,2.1961,2.246.9418.5311,2.0383.7966,3.2925.7966,1.3432,0,2.4928-.3561,3.4456-1.0652.9528-.7107,1.5838-1.6869,1.8899-2.927h5.5667c-.2437,1.7525-.8544,3.2878-1.8337,4.6061-.9778,1.3183-2.2429,2.3444-3.7892,3.0801-1.5494.7357-3.3081,1.1043-5.2793,1.1043Z"/>
    <path class="cls-1" d="M114.2853,114.7994c-2.2257,0-4.1844-.4733-5.8728-1.4213-1.6884-.9465-3.0098-2.2648-3.9626-3.9532-.9543-1.6884-1.4307-3.6471-1.4307-5.8728,0-2.2398.4733-4.2031,1.4198-5.8931.9481-1.6884,2.2679-3.0067,3.9626-3.9532,1.6962-.9465,3.658-1.4198,5.8837-1.4198,2.2382,0,4.2.4733,5.8822,1.4198s3.0004,2.2648,3.9532,3.9532c.9528,1.69,1.4307,3.6533,1.4307,5.8931,0,2.2257-.4779,4.1844-1.4307,5.8728s-2.2742,3.0067-3.9626,3.9532c-1.6884.9481-3.6471,1.4213-5.8728,1.4213ZM114.2853,110.0012c1.2542,0,2.3382-.2655,3.2535-.7966s1.6244-1.2792,2.1305-2.246c.5045-.9653.7575-2.1023.7575-3.4065,0-1.3058-.2483-2.4413-.7482-3.4065-.4998-.9668-1.2089-1.7181-2.1305-2.2554s-2.0086-.8059-3.2628-.8059c-1.2417,0-2.3226.2686-3.2441.8059s-1.6369,1.2886-2.1492,2.2554c-.5123.9653-.7685,2.1008-.7685,3.4065,0,1.3042.2562,2.4413.7685,3.4065.5123.9668,1.2308,1.715,2.1586,2.246s2.0055.7966,3.2347.7966Z"/>
    <path class="cls-1" d="M129.3313,114.3574v-21.5732h5.0669v2.5147c.4108-.9715.984-1.7119,1.7181-2.2164.7372-.5061,1.6025-.7591,2.6022-.7591,2.0461,0,3.5299,1.0434,4.4515,3.1285.5498-1.048,1.2417-1.8321,2.0742-2.3507.8309-.5186,1.8477-.7778,3.0504-.7778,2.0086,0,3.5659.6435,4.6748,1.929,1.1058,1.287,1.6588,3.0817,1.6588,5.3839v14.7211h-5.0669v-14.4899c0-.884-.2015-1.5588-.6045-2.0258s-.9949-.6997-1.7759-.6997c-.7403,0-1.3432.2358-1.8025.7091-.4623.4733-.7747,1.2605-.9403,2.3616v14.1447h-4.9138v-14.4899c0-.87-.1999-1.5432-.5967-2.0164s-.9653-.7091-1.7072-.7091c-.82,0-1.4651.2593-1.9383.7763-.4733.5186-.7685,1.2839-.884,2.2945v14.1447h-5.0669Z"/>
    <path class="cls-1" d="M167.0079,114.3574v-16.775h-8.5796v-4.7982h13.6465v16.775h8.578v4.7982h-13.6449ZM170.3847,89.1387v-9.3278h5.1247v9.3278h-5.1247Z"/>
    <path class="cls-1" d="M195.4316,114.7994c-2.2523,0-4.2328-.4764-5.94-1.4307-1.7072-.9528-3.0411-2.2742-4.0016-3.9626-.9606-1.69-1.4385-3.6408-1.4385-5.8541,0-2.2273.4779-4.1844,1.4385-5.8728.9606-1.69,2.2945-3.0067,4.0016-3.9548,1.7072-.9465,3.6877-1.4198,5.94-1.4198,1.9586,0,3.7111.3624,5.259,1.084,1.5479.7232,2.8146,1.7369,3.8001,3.0426s1.5994,2.8349,1.8431,4.5874h-5.5854c-.3061-1.2292-.934-2.1882-1.8805-2.8786-.9465-.6919-2.093-1.0371-3.4362-1.0371-1.2542,0-2.3507.2655-3.2925.7966-.9403.5311-1.6713,1.2792-2.1961,2.246-.5248.9653-.7872,2.1008-.7872,3.4065,0,1.3042.2624,2.4413.7872,3.4065.5248.9668,1.2558,1.715,2.1961,2.246.9418.5311,2.0383.7966,3.2925.7966,1.3432,0,2.4928-.3561,3.4456-1.0652.9528-.7107,1.5838-1.6869,1.8899-2.927h5.5667c-.2437,1.7525-.8544,3.2878-1.8337,4.6061-.9778,1.3183-2.2429,2.3444-3.7892,3.0801-1.5494.7357-3.3081,1.1043-5.2793,1.1043Z"/>
    <path class="cls-1" d="M220.7081,114.7994c-2.0102,0-3.8033-.3046-5.3839-.9122s-2.8427-1.4776-3.7908-2.61c-.9465-1.1324-1.4776-2.4788-1.5916-4.0407h5.5651c.1656,1.1012.7107,1.9352,1.6322,2.5053.92.5685,2.1305.8544,3.6268.8544,1.2402,0,2.2585-.2155,3.052-.6435s1.1902-1.034,1.1902-1.8134c0-.7044-.3077-1.223-.9215-1.5557-.6154-.3327-1.3511-.5685-2.2086-.7091l-4.2984-.6919c-2.0602-.3327-3.6892-1.0387-4.8857-2.1195-1.1964-1.0824-1.7931-2.4741-1.7931-4.175,0-1.9711.8372-3.5627,2.5147-4.7795,1.6744-1.2152,3.8767-1.8228,6.6007-1.8228,1.8056,0,3.4268.2811,4.8669.8434,1.4385.5639,2.5959,1.3698,3.4737,2.4194.8747,1.0496,1.3714,2.3101,1.4869,3.7798h-5.5667c-.1281-.9075-.5904-1.6119-1.3901-2.1102-.7997-.4998-1.8025-.7482-3.0051-.7482-1.1511,0-2.0711.214-2.763.6419-.6919.4295-1.0356.9824-1.0356,1.6603,0,.6013.2452,1.0777.7372,1.4307.4936.3514,1.1933.6107,2.1023.7763l4.2984.7294c2.3163.3967,4.0579,1.1168,5.2215,2.1601,1.1636,1.0418,1.7462,2.3882,1.7462,4.0391,0,2.0727-.8606,3.7392-2.5818,4.9997s-4.0204,1.8915-6.899,1.8915Z"/>
  </g>
</svg>