<?xml version="1.0" encoding="UTF-8"?>
<svg id="Calque_2" data-name="Calque 2" xmlns="http://www.w3.org/2000/svg" viewBox="0 0 138.08 48.6">
  <defs>
    <style>
      .cls-1 {
        fill: #87141c;
      }

      .cls-2 {
        fill: #fff;
      }
    </style>
  </defs>
  <g id="Calque_1-2" data-name="Calque 1">
    <g>
      <g>
        <path class="cls-2" d="M64.97,0v2.88c-1.17,0-1.86.05-2.07.16s-.32.41-.32.92v.59h2.39v2.95h-1.35v15.26h-5.68V7.51h-1.17v-2.95h1.17c0-1.23.04-2.05.13-2.46s.29-.78.63-1.1.8-.57,1.4-.74,1.53-.25,2.8-.25h2.08Z"/>
        <path class="cls-2" d="M78.91,10.66v4.57c0,1.68-.08,2.91-.25,3.69s-.53,1.51-1.08,2.19-1.26,1.18-2.13,1.5-1.86.49-2.99.49c-1.26,0-2.32-.14-3.19-.41s-1.55-.69-2.03-1.25-.83-1.23-1.03-2.03-.31-1.98-.31-3.56v-4.78c0-1.73.19-3.09.56-4.06s1.05-1.76,2.03-2.35,2.22-.89,3.74-.89c1.28,0,2.37.19,3.28.57s1.62.87,2.12,1.48.84,1.24,1.02,1.88.27,1.63.27,2.95ZM73.23,9.25c0-.96-.05-1.56-.15-1.81s-.32-.37-.66-.37-.56.12-.68.37-.17.85-.17,1.81v8.42c0,.88.06,1.46.17,1.72s.33.4.66.4.56-.12.67-.37.16-.77.16-1.58v-8.61Z"/>
        <path class="cls-2" d="M93.79,4.11v18.66h-5.78l.1-1.55c-.39.63-.88,1.1-1.46,1.42-.58.31-1.24.47-1.99.47-.85,0-1.56-.15-2.12-.45s-.98-.7-1.24-1.2-.43-1.01-.5-1.55-.1-1.61-.1-3.21V4.11h5.68v12.7c0,1.45.04,2.32.13,2.59s.33.41.72.41c.42,0,.67-.14.75-.42s.12-1.19.12-2.71V4.11h5.68Z"/>
        <path class="cls-2" d="M101.51,4.11l-.23,2.45c.83-1.76,2.02-2.69,3.59-2.79v6.57c-1.04,0-1.8.14-2.29.42s-.79.67-.9,1.17-.17,1.66-.17,3.47v7.37h-5.68V4.11h5.68Z"/>
      </g>
      <g>
        <path class="cls-2" d="M108.58,22.28V5.52h2.13v6.88h8.37v-6.88h2.13v16.75h-2.13v-7.9h-8.37v7.9h-2.13Z"/>
        <path class="cls-2" d="M124.76,22.28V5.52h5.55c1.25,0,2.21.08,2.87.24.92.22,1.71.62,2.36,1.2.85.75,1.48,1.7,1.9,2.86s.63,2.49.63,3.98c0,1.27-.14,2.4-.43,3.38s-.65,1.8-1.1,2.44-.94,1.15-1.47,1.52-1.17.65-1.92.84-1.61.29-2.59.29h-5.81ZM126.9,20.3h3.44c1.06,0,1.89-.1,2.5-.31s1.09-.5,1.45-.87c.51-.53.9-1.23,1.18-2.12s.42-1.96.42-3.23c0-1.75-.28-3.1-.83-4.04s-1.22-1.57-2.01-1.89c-.57-.23-1.49-.34-2.76-.34h-3.38v12.8Z"/>
      </g>
      <polygon class="cls-1" points="49.45 .27 49.45 48.6 29.67 48.6 29.67 19.82 0 19.82 0 .27 49.45 .27"/>
    </g>
  </g>
</svg>