<?xml version="1.0" encoding="UTF-8" standalone="no"?><svg version="1.1" width="500" height="672.42192" viewBox="0 0 282.2933 379.6404" xmlns="http://www.w3.org/2000/svg" xmlns:svg="http://www.w3.org/2000/svg"><path d="M141.1507 0C63.3213 0 0 63.3187 0 141.1453c0 77.828 63.3213 141.148 141.1507 141.148 77.82 0 141.1426-63.32 141.1426-141.148C282.2933 63.3187 218.9707 0 141.1507 0" fill="#ff3031"/><path d="m231.832 112.101-15.9467 40.5586-12.6533-38.9387h-20.608l23.864 59.708h17.5107s16.7066-33.388 17.2786-34.66c4.132-9.1613-.672-21.4973-9.4453-26.668" fill="#fff"/><path d="M172.0864 160.7001c-5.5667 0-7.212-4.948-7.212-9.0453v-23.5507h14.2987v-14.384h-14.2987v-18.08h-1.2413c-8.664 0-17.304 6.7427-17.304 18.06v36.94c0 3.8627.3906 7.1267 1.16 10.1827 2.6093 10.3173 12.468 14.772 21.7613 14.772 6.0547 0 11.7013-1.7867 16.9587-5.3493l-5.424-12.7c-1.192.8346-3.8987 3.1546-8.6987 3.1546" fill="#fff"/><path d="M116.9153 112.3147c-8.1693 0-15.3186 2.908-20.22 8.276-3.184-4.3894-8.2373-8.276-17.348-8.276-6.692 0-14.9586 4.356-17.928 9.3853l-.8186-9.3427h-1.2214c-8.2293.2174-16.376 6.66-16.376 15.7294v45.3373h18.5454v-32.0813c0-3.816 1.0946-6.9587 3.28-9.4174 2.192-2.4586 5.0466-3.696 8.5666-3.696 3.1707 0 5.5534.9827 7.144 2.9294 1.584 1.956 2.3827 4.712 2.3827 8.28v33.9853h17.9013v-32.0813c0-3.816 1.0707-6.9587 3.2174-9.4174 2.1426-2.4586 5.02-3.696 8.628-3.696 3.1706 0 5.556.9827 7.14 2.9294 1.5933 1.956 2.3866 4.712 2.3866 8.28v33.9853h18.548v-36.92c0-7.4613-2.0426-13.3613-6.12-17.6947-4.08-4.3266-9.9786-6.4946-17.708-6.4946" fill="#fff"/><path d="M151.9137 367.8204c-1.924.444-3.9213.6213-5.5213-.9267-.7707-.7466-1.416-1.776-1.416-4.6266l-.0013-22.624h9.2533v-10.3494h-9.2533v-14.2746h-11.564v14.2746h-7.204v10.3494h7.204v23.9693c0 5.3373 2.7013 9.264 4.8946 11.4227 2.9454 2.8973 7.0347 4.6053 11.3227 4.6053 2.856 0 5.0707-.8587 5.432-.9653Z" fill="#000"/><path d="M67.5296 336.7288c-8.3893 0-15.2147 7.176-15.2147 15.996 0 8.7867 6.8254 15.936 15.2147 15.936 8.6733 0 15.2147-6.852 15.2147-15.936 0-8.82-6.8254-15.996-15.2147-15.996m.044 42.2453c-14.4987 0-26.2933-11.796-26.2933-26.2946 0-14.4974 11.7946-26.292 26.2933-26.292 14.4987 0 26.2933 11.7946 26.2933 26.292v25.4226H82.8136v-6.0266c-.3387.38-2.2693 2.9133-5.676 4.7626-2.9187 1.5854-5.7053 2.136-9.564 2.136" fill="#000"/><path d="M214.8836 336.688c-2.8147 0-5.42.732-7.7453 2.176-2.3227 1.444-4.176 3.4027-5.5094 5.8253-1.3346 2.424-2.012 5.0774-2.012 7.8867 0 2.948.6774 5.672 2.012 8.096 1.336 2.4253 3.208 4.3693 5.5654 5.776 2.356 1.408 4.9426 2.1213 7.6893 2.1213 2.816 0 5.4213-.7133 7.7427-2.1226 2.3213-1.4054 4.1586-3.3507 5.4613-5.7787 1.3-2.4253 1.9587-5.112 1.9587-7.988 0-2.8747-.676-5.5627-2.0107-7.9907-1.336-2.4226-3.172-4.3813-5.4547-5.824-2.2933-1.444-4.8826-2.1773-7.6973-2.1773m.104 42.2267c-4.8947 0-9.396-1.172-13.376-3.484-3.9773-2.3107-7.1667-5.4987-9.4787-9.4774-2.3106-3.9773-3.4826-8.4773-3.4826-13.3773 0-4.7613 1.172-9.192 3.4826-13.168 2.3094-3.9747 5.4987-7.164 9.48-9.4773 3.9774-2.312 8.4774-3.484 13.3747-3.484 4.7587 0 9.172 1.172 13.1147 3.4826 3.944 2.3134 7.116 5.52 9.428 9.5307 2.3106 4.0133 3.484 8.4267 3.484 13.116 0 4.8293-1.1734 9.312-3.484 13.3253-2.3134 4.0134-5.4854 7.22-9.428 9.5307-3.9454 2.3107-8.3574 3.4827-13.1147 3.4827" fill="#000"/><path d="M106.2948 329.3661h11.8v48.984h-11.8Z" fill="#000"/><path d="M120.1285 315.1365c0 4.3534-3.5293 7.8827-7.8826 7.8827-4.3547 0-7.884-3.5293-7.884-7.8827 0-4.3533 3.5293-7.8826 7.884-7.8826 4.3533 0 7.8826 3.5293 7.8826 7.8826" fill="#000"/><path d="M165.4988 329.3661h11.8v48.984h-11.8Z" fill="#000"/><path d="M179.3325 315.1365c0 4.3534-3.5293 7.8827-7.8826 7.8827-4.3547 0-7.884-3.5293-7.884-7.8827 0-4.3533 3.5293-7.8826 7.884-7.8826 4.3533 0 7.8826 3.5293 7.8826 7.8826" fill="#000"/></svg>