<?xml version="1.0" encoding="utf-8"?>
<!-- Generator: Adobe Illustrator 26.0.0, SVG Export Plug-In . SVG Version: 6.00 Build 0)  -->
<svg version="1.1" id="Layer_1" xmlns="http://www.w3.org/2000/svg" xmlns:xlink="http://www.w3.org/1999/xlink" x="0px" y="0px"
	 viewBox="0 0 323 234" style="enable-background:new 0 0 323 234;" xml:space="preserve">
<style type="text/css">
	.st0{fill:#FFFFFF;}
	.st1{fill:#AAF750;}
	.st2{fill:#01216A;}
</style>
<path class="st0" d="M168.7,9.9H70.2c-32.1,0-58,25.9-58,58v98.6c0,32.1,25.9,58,58,58h98.6c32.1,0,58-25.9,58-58V67.9
	C226.7,35.8,200.9,9.9,168.7,9.9z"/>
<path class="st1" d="M316.7,171.9c0,15.5-6.4,30-18,41.1c-11.5,10.9-27,17-43.4,17h-54.3c3.5-2.3,6.8-5,9.9-7.9
	c6.9-6.5,12.3-14.1,16-22.5c3.9-8.7,5.9-18,5.9-27.6V62.5c0-9.5-2-18.9-5.9-27.6c-3.7-8.4-9.2-16-16-22.5c-3.1-2.9-6.4-5.5-9.9-7.9
	h54.3c16.3,0,31.7,6,43.4,17s18,25.5,18,41.1V171.9z"/>
<g>
	<path class="st2" d="M258.7,2h-88.9c2.8,0,5.5,0.2,8.1,0.5c-2.7-0.3-5.4-0.5-8.1-0.5H64.2C29.9,2,2,29.8,2,64.2v105.6
		C2,204.2,29.9,232,64.2,232h105.6c2.8,0,5.5-0.2,8.1-0.5c-2.7,0.3-5.4,0.5-8.1,0.5h88.9c34.3,0,62.2-27.8,62.2-62.2V64.2
		C320.9,29.8,293,2,258.7,2z M201.9,162.4h-15.7l-0.6-0.6l-1.5-1.5l-1-1l-0.4-0.4v-9.5l4-4l0,0h22.8v4.4l-1.6,1.7l0,0h-16.5
		l-0.6,0.6l0,0l0,0v3.7l0.1,0.1l0.3,0.3h15.7l3,3l0.5,0.5v9.6l-0.1,0.1l-2.9,2.9l-1,1l0,0l0,0l0,0h-23.6v-4l0,0l1-0.9l1.1-1l0,0l0,0
		h16.9l0,0l0,0l0.1-0.1l0.5-0.5l0,0V163L201.9,162.4z M138.8,61.5h24.5l0,0l0,0l9.7,16.9l9.8-16.9h23.7l0,0l0,0L196,80l-11,19.2
		l23.7,40.9h-24.5l-11.5-19.8l-1.8,3.2l-9.5,16.7h-23.8l23.2-40.7L138.8,61.5L138.8,61.5L138.8,61.5z M25.5,61.4L25.5,61.4h47.5
		l0.3,4.6l1.1,16.9H47.8v10.3h21.6l0,0l0,0v21.5H47.6v25.4l0,0l0,0H25.5V61.4L25.5,61.4z M51.3,169.4l-1.7,1.7l-0.7,0.7l-0.5,0.5
		l-1.2,1.2H23.6v-4.2l2.1-2l0,0l0,0h16.9l0,0l0.1-0.1l0,0l0.6-0.5v-3.8l-0.1-0.1l-0.3-0.3l0,0l0,0H27.2l-3.5-3.5v-9.5l4-4l0,0l0,0
		h22.8v4.4l-1.6,1.7l0,0l0,0H32.3l-0.2,0.2l-0.5,0.5l0,0v3.7l0.5,0.5l0,0h15.7l3.5,3.5V169.4L51.3,169.4z M84.5,160.1L84.5,160.1
		L84.5,160.1l-0.3,0.3l-4.2,4.2H64.3v8.8l0,0l0,0h-8v-28l0,0l0,0h23.6l1.8,1.8l2.7,2.7l0,0l0,0C84.5,149.9,84.5,160.1,84.5,160.1z
		 M73.7,100.8c0-21.1,16.8-38.2,37.5-38.2s37.5,17.1,37.5,38.2s-16.8,38.2-37.5,38.2C90.6,139.2,73.7,122.1,73.7,100.8z M117.4,169
		l-4.5,4.5H93.4L89,169l0,0v-19.1l0,0l4.4-4.5H113l0.6,0.6l3.9,3.9V169H117.4z M151.8,173.4h-8.9l-3.8-10h-8.5v10l0,0l0,0h-8v-28
		l0,0h23.9l4,4v8.8l-3.8,3.8l2.9,6.5L151.8,173.4L151.8,173.4L151.8,173.4z M170.8,173.4h-8v-21.3h-9.3l0,0l0,0v-6.7H180l0,0l0,0
		v6.7h-9.2V173.4z M314.6,169.7c0,14.9-5.8,29-16.4,39.6c-10.6,10.6-24.6,16.4-39.6,16.4h-49.5c3.2-2.2,6.2-4.8,9-7.6
		c6.3-6.3,11.2-13.6,14.6-21.7c3.6-8.4,5.4-17.4,5.4-26.6V64.2c0-9.2-1.8-18.2-5.4-26.6c-3.4-8.1-8.4-15.4-14.6-21.7
		c-2.8-2.8-5.8-5.3-9-7.6h49.5c14.9,0,29,5.8,39.6,16.4c10.6,10.5,16.4,24.5,16.4,39.6V169.7z"/>
	<path class="st2" d="M296,65.2c-4.5-3.5-11.1-5.3-19.7-5.3H276c-8.6,0-15.2,1.8-19.7,5.3c-4.5,3.5-6.8,9.5-6.8,17.9v18.4h17.7V85
		c0-3.9,0.8-6.4,2.3-7.7c1.6-1.3,3.6-1.9,6.2-1.9s4.7,0.6,6.4,1.9c1.7,1.3,2.5,3.9,2.5,7.7v11c0,1.5-0.2,2.9-0.7,4.1
		c-0.5,1.2-1.2,2.5-2.3,3.8c-1,1.3-2.3,2.7-3.9,4.3c-1.6,1.6-3.4,3.4-5.6,5.4c-2.8,2.7-5.6,5.3-8.3,7.9c-2.7,2.6-5.2,5.2-7.4,8
		c-2.2,2.7-4,5.6-5.3,8.6c-1.3,3-2,6.3-2,9.8v26.1h53.6v-15.5h-35.5v-10.3c0-3.1,1.4-6.3,4.2-9.6c2.8-3.3,6.6-7.2,11.3-11.7
		c2.7-2.6,5.2-5,7.7-7.2c2.4-2.2,4.5-4.4,6.4-6.7c1.8-2.3,3.3-4.7,4.4-7.4c1.1-2.7,1.6-5.8,1.6-9.3V83
		C302.8,74.7,300.5,68.7,296,65.2z"/>
	<path class="st2" d="M118,116.5V85.1c0-3.6-3.1-6.8-6.6-6.8s-6.3,3.2-6.3,6.8v31.3c0,3.6,2.8,6.5,6.4,6.5
		C114.9,123,118,120.2,118,116.5z"/>
	<polygon class="st2" points="107.8,151.7 98.5,151.7 96.9,153.3 96.9,165.5 98.5,167.1 107.8,167.1 109.5,165.5 109.5,153.3 
		108,151.9 	"/>
	<polygon class="st2" points="130.7,151.3 130.7,157.9 141.4,157.9 142.5,156.8 142.6,156.7 142.6,152.5 141.4,151.3 	"/>
	<polygon class="st2" points="75.2,151.6 64.3,151.6 64.3,159 75.2,159 76.4,157.8 76.4,152.7 75.7,152 	"/>
</g>
</svg>
