<?xml version="1.0" encoding="utf-8"?>
<!-- Generator: Adobe Illustrator 26.0.0, SVG Export Plug-In . SVG Version: 6.00 Build 0)  -->
<svg version="1.1" id="Layer_1" xmlns="http://www.w3.org/2000/svg" xmlns:xlink="http://www.w3.org/1999/xlink" x="0px" y="0px"
	 viewBox="0 0 323 234" style="enable-background:new 0 0 323 234;" xml:space="preserve">
<style type="text/css">
	.st0{fill:#FFFFFF;}
	.st1{fill:#EE0AF6;}
	.st2{fill:#01216A;}
</style>
<path class="st0" d="M169.7,9.8H71c-32.2,0-58,26-58,58v98.8c0,32.2,26,58,58,58h98.8c32.2,0,58-26,58-58V67.9
	C227.8,35.8,201.9,9.8,169.7,9.8z"/>
<path class="st1" d="M317,171.7c0,15.5-6.4,30.1-18,41.1c-11.5,10.9-27.1,17-43.4,17h-54.3c3.5-2.3,6.8-5,9.9-7.9
	c6.9-6.5,12.3-14.1,16-22.6c3.9-8.7,5.9-18,5.9-27.7V62.2c0-9.5-2-18.9-5.9-27.7c-3.7-8.4-9.2-16-16-22.6c-3.1-2.9-6.4-5.5-9.9-7.9
	h54.3c16.3,0,31.8,6,43.4,17s18,25.6,18,41.1V171.7z"/>
<g>
	<path class="st2" d="M258.8,2h-88.9l0,0H64.2C29.8,2,2,29.9,2,64.2v105.7C2,204.2,29.9,232,64.2,232h105.7c5.4,0,10.5-0.7,15.5-2
		c-5,1.3-10.2,2-15.5,2h88.9c34.4,0,62.2-27.9,62.2-62.2V64.2C321,29.9,293.2,2,258.8,2z M138.9,61.6h24.6l0,0l0,0l9.7,16.9
		l9.8-16.9h23.8l0,0l0,0L196.1,80l-11,19.1l23.8,40.9h-24.6l-11.5-19.9l-1.8,3.2l-9.5,16.7h-23.9l23.3-40.7L138.9,61.6L138.9,61.6
		L138.9,61.6z M25.4,61.5L25.4,61.5h47.4l0.3,4.6L74.2,83H47.7v10.2h21.8l0,0l0,0v21.5H47.7v25.5l0,0l0,0H25.5L25.4,61.5L25.4,61.5z
		 M51.3,169.5l-1.7,1.7l-0.7,0.7l-0.5,0.5l-1.1,1.1H23.6v-4.1l2.1-2l0,0l0,0h16.9l0,0l0.1-0.1l0,0l0.6-0.5V163l-0.1-0.1l-0.3-0.3
		l0,0l0,0H27.2l-3.5-3.5v-9.6l4-4l0,0l0,0h22.9v4.4l-1.6,1.7l0,0l0,0H32.3l-0.2,0.2l-0.5,0.5l0,0v3.7l0.5,0.5l0,0h15.7l3.5,3.5v9.5
		L51.3,169.5L51.3,169.5z M84.6,160.2L84.6,160.2L84.6,160.2l-0.3,0.3l-4.2,4.2H64.4v8.8l0,0l0,0h-8v-28.1l0,0l0,0H80l1.8,1.8
		l2.7,2.7l0,0l0,0C84.6,150,84.6,160.2,84.6,160.2z M73.7,101c0-21.2,16.8-38.3,37.5-38.3c20.8,0,37.6,17.1,37.6,38.3
		s-16.8,38.3-37.6,38.3C90.6,139.3,73.7,122.1,73.7,101z M117.4,169.1l-4.5,4.5H93.3l-4.4-4.5l0,0V150l0,0l4.4-4.5h19.7l0.6,0.6
		l3.9,3.9V169.1z M151.8,173.5h-8.9l-3.8-10h-8.5v10l0,0l0,0h-8v-28.1l0,0h24.1l4,4v8.8l-3.8,3.8l2.9,6.6L151.8,173.5L151.8,173.5
		L151.8,173.5z M180.1,152.2h-9.2v21.4h-8v-21.4h-9.2l0,0l0,0v-6.7h26.6l0,0l0,0L180.1,152.2L180.1,152.2z M182.8,169.4L182.8,169.4
		l1-1l1.1-1l0,0l0,0h16.9l0,0l0,0l0.1-0.1l0.5-0.5l0,0V163l-0.5-0.5h-15.7l-0.6-0.6l-1.5-1.5l-1-1l-0.4-0.4v-9.5l4-4l0,0h22.9v4.4
		l-1.6,1.7l0,0h-16.5l-0.6,0.6l0,0l0,0v3.7l0.1,0.1l0.3,0.3H207l3,3l0.5,0.5v9.6l-0.1,0.1l-2.9,2.9l-0.9,0.9l-0.1,0.1l0,0l0,0h-23.7
		L182.8,169.4L182.8,169.4z M314.7,169.8c0,14.9-5.8,29-16.4,39.6c-10.5,10.5-24.7,16.4-39.6,16.4h-49.5c3.2-2.2,6.2-4.8,9-7.6
		c6.3-6.3,11.2-13.6,14.6-21.8c3.6-8.4,5.4-17.4,5.4-26.7V64.2c0-9.2-1.8-18.2-5.4-26.7c-3.4-8.1-8.4-15.4-14.6-21.8
		c-2.8-2.8-5.8-5.3-9-7.6h49.5c14.9,0,29,5.8,39.6,16.4s16.4,24.7,16.4,39.6V169.8z"/>
	<polygon class="st2" points="107.8,151.8 98.5,151.8 96.9,153.5 96.9,165.6 98.5,167.2 107.8,167.2 109.4,165.6 109.4,153.5 
		108,152 	"/>
	<polygon class="st2" points="130.7,151.5 130.7,158 141.5,158 142.5,156.9 142.6,156.8 142.6,152.6 141.5,151.5 	"/>
	<path class="st2" d="M118,116.7V85.2c0-3.6-3.1-6.8-6.6-6.8c-3.5,0-6.3,3.2-6.3,6.8v31.4c0,3.6,2.8,6.5,6.4,6.5
		C114.9,123.1,118,120.3,118,116.7z"/>
	<polygon class="st2" points="75.3,151.7 64.4,151.7 64.4,159.1 75.3,159.1 76.4,157.9 76.4,152.8 75.7,152.2 	"/>
	<path class="st2" d="M296.5,64.8c-4.7-3.6-11.1-5.4-19.4-5.4h-1.1c-8.3,0-14.7,1.8-19.4,5.4c-4.7,3.6-7,9.7-7,18.4v12.5h17.7V85.1
		c0-4,0.9-6.7,2.6-8.1c1.7-1.4,3.6-2.2,5.8-2.2h1.4c2.1,0,4.1,0.7,5.8,2.2c1.7,1.4,2.6,4.2,2.6,8.1v12.1c0,3.8-0.8,6.4-2.5,8
		s-3.9,2.3-6.8,2.3H264v15.1h13.7c2.1,0,4,0.7,5.5,2.1c1.5,1.4,2.3,3.6,2.3,6.6V149c0,4-0.9,6.7-2.6,8.1c-1.7,1.4-3.6,2.2-5.8,2.2
		h-1.2c-2.1,0-4.1-0.7-5.8-2.2c-1.7-1.4-2.6-4.2-2.6-8.1v-13.2h-18v15.1c0,15.9,8.3,23.9,24.9,23.9h4.3c16.5,0,24.9-7.9,24.9-23.9
		V131c0-1.5-0.1-3.1-0.3-4.8c-0.2-1.7-0.7-3.3-1.4-4.9c-0.8-1.6-1.8-2.9-3.3-4.1c-1.4-1.2-3.4-2-5.9-2.4c2.4-0.3,4.2-1.1,5.6-2.3
		c1.4-1.2,2.5-2.7,3.3-4.4c0.8-1.7,1.3-3.5,1.6-5.5c0.3-1.9,0.4-3.8,0.4-5.5V83.2C303.5,74.5,301.1,68.3,296.5,64.8z"/>
</g>
</svg>
