<svg xmlns="http://www.w3.org/2000/svg" width="78" height="78" viewBox="0 0 78 78" fill="none"><g clip-path="url(#clip0_1694_6024)"><path d="M57.2823 77.8081H20.5405C9.19562 77.8081 0 68.6125 0 57.2715V20.5366C0 9.19388 9.19562 0 20.5405 0H57.2823C68.6272 0 77.8228 9.19388 77.8228 20.5366V57.2715C77.8228 68.6142 68.6272 77.8081 57.2823 77.8081Z" fill="#002E54"></path><path d="M9.98505 52.1589L9.82964 52.0018V50.734V50.7322L10.0451 50.5168H15.6592L16.2138 49.9483V48.4492H8.47688L7.10999 49.8123V53.0312L8.29675 54.2124H13.6319L13.6336 54.2142L13.789 54.3713V55.6761L13.6018 55.8633L13.5718 55.8933H7.82522L7.10999 56.5802V57.9733H15.1294L15.6751 57.4277L16.4946 56.6084V53.3437L15.3113 52.1589H9.98505Z" fill="white"></path><path d="M25.0296 52.6551L24.6323 53.0541H20.9254V50.5398H24.6323L25.0296 50.9388V52.6551ZM18.2093 48.4492V57.9733H20.9254V54.9734H26.2376L27.7581 53.4531V49.9712L26.2376 48.451H18.2075L18.2093 48.4492Z" fill="white"></path><path d="M36.2244 55.2789L35.6664 55.8333H32.5052L31.9507 55.2789V51.1454L32.5052 50.5892H35.6664L36.2244 51.1454V55.2789ZM30.7516 48.4492L29.2434 49.9695V56.453L30.7516 57.9733H37.4183L38.9388 56.453V49.9695L37.4183 48.4492H30.7516Z" fill="white"></path><path d="M47.4757 52.2931L47.0872 52.6798H43.4298V50.4656H47.0872L47.4757 50.8558V52.2913V52.2931ZM50.1936 52.7875V49.8123L48.8284 48.4492H40.7172V57.9733H43.4315V54.5638H46.3084L47.5852 57.9733H50.6068L48.892 54.0923L50.1953 52.7875H50.1936Z" fill="white"></path><path d="M51.1702 50.7322H54.3119V57.9733H57.0263V50.7322H60.168V48.4492H51.1702V50.7322Z" fill="white"></path><path d="M69.293 52.1589H63.9685L63.8131 52.0018V50.734V50.7322L64.0303 50.5168H69.6427L70.199 49.9483V48.4492H62.4603L61.0952 49.8123V53.0312L61.572 53.5061L62.2802 54.2124H67.6136L67.7725 54.3713V55.6761L67.5906 55.858L67.5553 55.8933H61.8069L61.4378 56.2482L61.0952 56.5802V57.9733H69.1129L69.4537 57.6325L70.4763 56.6084V53.3437L69.293 52.1589Z" fill="white"></path><path d="M15.2565 38.0319H22.6473V30.7414H15.3078V27.256H24.3162L23.8235 19.9531H7.73157V46.6696H15.2565V38.0319Z" fill="white"></path><path d="M45.7556 46.6447L53.8528 46.6412L57.7168 39.8875L61.6232 46.6288H69.9517L61.904 32.7647L69.2171 19.9883H61.1623L57.8175 25.7426L54.5327 19.9883H46.1971L53.6532 32.8548L45.7556 46.6447Z" fill="white"></path><path d="M34.7198 38.6475V28.004C34.7215 26.7875 35.6875 25.6963 36.8796 25.6963C38.0717 25.6963 39.1348 26.7875 39.1348 28.004V38.6775C39.1348 39.8958 38.0752 40.8511 36.8796 40.8511C35.684 40.8511 34.7198 39.8641 34.7198 38.6457M36.8443 46.3335C43.8783 46.3335 49.579 40.5191 49.579 33.3416C49.579 26.1695 43.8783 20.3516 36.8443 20.3516C29.8138 20.3516 24.1149 26.1695 24.1149 33.3416C24.1149 40.5138 29.8138 46.3335 36.846 46.3335H36.8443Z" fill="white"></path></g><defs><clipPath id="clip0_1694_6024"><rect width="78" height="78" fill="white"></rect></clipPath></defs></svg>