<?xml version="1.0" encoding="utf-8"?>
<!-- Generator: Adobe Illustrator 23.0.1, SVG Export Plug-In . SVG Version: 6.00 Build 0)  -->
<svg version="1.1"
	 id="svg2" inkscape:version="0.47 r22583" xmlns:cc="http://creativecommons.org/ns#" xmlns:dc="http://purl.org/dc/elements/1.1/" xmlns:inkscape="http://www.inkscape.org/namespaces/inkscape" xmlns:rdf="http://www.w3.org/1999/02/22-rdf-syntax-ns#" xmlns:sodipodi="http://sodipodi.sourceforge.net/DTD/sodipodi-0.dtd" xmlns:svg="http://www.w3.org/2000/svg"
	 xmlns="http://www.w3.org/2000/svg" xmlns:xlink="http://www.w3.org/1999/xlink" x="0px" y="0px" width="523.013px" height="524px"
	 viewBox="0 0 523.013 524" enable-background="new 0 0 523.013 524" xml:space="preserve">
<path id="path53392_1_" fill="#028CD6" d="M489.295,270.47L271.318,488.446c-4.297,4.401-10.794,5.24-15.929,2.62l83.313-83.418
	c0-0.629,7.965-7.545,7.965-22.636V108.035L489.4,250.768C494.744,256.217,494.744,265.02,489.295,270.47 M205.611,482.787v-40.242
	V205.077h-48.73c-14.986,0-16.872-3.249-8.698-11.423L290.077,51.445l18.759-18.654c0.419-0.524,0.629-0.629,1.048-1.048
	s0.629-0.524,1.048-0.629c4.401-3.144,6.183,1.048,6.497,6.393c0,0.943,0,1.572,0,2.515v38.88V376
	c0.943,13.938-6.393,17.501-6.393,18.13l-93.059,93.059c-0.524,0.524-1.048,1.048-1.467,1.467c-0.419,0.419-0.524,0.524-1.048,0.943
	c0,0-0.105,0.105-0.419,0.419c-0.524,0.419-0.629,0.524-1.048,0.943l0,0c-0.524,0.419-0.629,0.524-1.048,0.943
	c-5.03,3.458-6.917,0.524-7.021-8.593 M33.64,271.098c-5.449-5.449-5.449-14.252,0-19.702L251.616,33.42
	c4.716-4.716,11.842-5.345,17.291-1.886l-146.82,147.029c-20.016,22.741-9.956,55.961,30.915,55.961h23.055
	c0,0,0,103.225,0.105,179.097L33.64,271.098z M510.359,231.066L346.562,67.269V36.354c0-29.972-32.487-43.491-56.485-25.466
	c-16.872-15.091-42.757-14.462-59,1.677L12.576,231.066c-16.767,16.767-16.767,44.015,0,60.782l163.587,163.483
	c0,18.759,0,32.068,0,36.05c0,22.636,31.334,47.473,57.743,21.588c16.977,14.148,42.128,13.309,57.952-2.515l218.501-218.605
	C527.231,275.081,527.231,247.833,510.359,231.066"/>
</svg>
