<svg id="Livello_1" data-name="Livello 1" xmlns="http://www.w3.org/2000/svg" xmlns:xlink="http://www.w3.org/1999/xlink" viewBox="0 0 4166.04 499.98"><defs><linearGradient id="Sfumatura_senza_nome_11" x1="1895.4" y1="-2464.37" x2="1966.99" y2="-2464.37" gradientTransform="matrix(23.2, 0, 0, -23.2, -43168.11, -56914.56)" gradientUnits="userSpaceOnUse"><stop offset="0" stop-color="#ff0031"/><stop offset="0.64" stop-color="#cc0029"/><stop offset="1" stop-color="#b40026"/></linearGradient><linearGradient id="Sfumatura_senza_nome_18" x1="1895.4" y1="-2459.49" x2="1966.99" y2="-2459.49" gradientTransform="matrix(23.2, 0, 0, -23.2, -43168.11, -56914.56)" gradientUnits="userSpaceOnUse"><stop offset="0" stop-color="#ff0031"/><stop offset="0.57" stop-color="#d6002a"/><stop offset="1" stop-color="#bc0026"/></linearGradient><linearGradient id="Sfumatura_senza_nome_3" x1="1799.71" y1="-1848.81" x2="1804.15" y2="-1848.81" gradientTransform="matrix(-1.96, -56.03, -56.03, 1.96, -98428.47, 104674.86)" gradientUnits="userSpaceOnUse"><stop offset="0" stop-color="#fff"/><stop offset="0.5" stop-color="#fff" stop-opacity="0.4"/><stop offset="1" stop-color="#fff" stop-opacity="0.25"/></linearGradient><linearGradient id="Sfumatura_senza_nome_3-2" x1="1755.92" y1="-1815.94" x2="1760.36" y2="-1815.94" gradientTransform="matrix(-1.32, -37.68, -37.68, 1.32, -65743.71, 68810.38)" xlink:href="#Sfumatura_senza_nome_3"/></defs><title>Sky Cinema Romance</title><path d="M4132.75,0H2413.91a33.32,33.32,0,0,0-33.29,33.29V466.69A33.31,33.31,0,0,0,2413.91,500H4132.75A33.31,33.31,0,0,0,4166,466.69V33.3A33.32,33.32,0,0,0,4132.75,0m0,10a23.33,23.33,0,0,1,23.31,23.3V466.69A23.33,23.33,0,0,1,4132.75,490H2413.91a23.37,23.37,0,0,1-23.31-23.31V33.3A23.36,23.36,0,0,1,2413.91,10H4132.75" fill="#b40026"/><path d="M4132.75,10a23.33,23.33,0,0,1,23.31,23.3V466.69A23.33,23.33,0,0,1,4132.75,490H2413.91a23.37,23.37,0,0,1-23.31-23.31V33.3A23.36,23.36,0,0,1,2413.91,10H4132.75" fill="#fff"/><path d="M2687.57,169.24c0,13.43-5.69,16.3-19.52,16.3-28.07,0-51.66,13-66.35,43.51V339.32c0,8.15-4.48,12.63-17.91,12.63a72.31,72.31,0,0,1-15.45-1.66V154.6a75.7,75.7,0,0,1,15.45-1.66c13.43,0,17.91,4.93,17.91,12.63v27.26c19.11-28.87,48-43.51,84.26-38.63a99.82,99.82,0,0,1,1.61,15" fill="#b40026"/><path d="M2698.53,252.24c0-58.2,42.7-101.31,100-101.31,57.8,0,100.51,43.11,100.51,101.31,0,57.81-42.71,101.72-100.51,101.72-57.35,0-100-43.91-100-101.72m166.81,0c0-44.77-30.14-72-66.76-72-36.17,0-66.3,27.26-66.3,72,0,44.38,30.13,72.45,66.3,72.45,36.62,0,66.76-28.07,66.76-72.45" fill="#b40026"/><path d="M3213,221.73V339.35c0,8.09-4.48,12.57-17.91,12.57a74.86,74.86,0,0,1-15.44-1.61V225.81c0-28.47-13.43-45.17-39.09-45.17-21.53,0-39.44,15-46.79,30.53V339.35c0,8.09-4.47,12.57-17.9,12.57a75,75,0,0,1-15.45-1.61V225.81c0-28.47-13.43-45.17-39.09-45.17-21.52,0-39.43,15-46.78,30.53V339.35c0,8.09-4.48,12.57-17.91,12.57a75.35,75.35,0,0,1-15.44-1.61V154.57a77.17,77.17,0,0,1,15.84-1.61c12.63,0,17.11,4.88,17.11,13.44v13.43c12.63-16.71,32.14-28.87,55.74-28.87,26.06,0,46.38,13,56.54,35.36C3099.88,166,3120.26,151,3149.13,151c41.9,0,63.89,31.28,63.89,70.77" fill="#b40026"/><path d="M3420.67,225v125.3a67,67,0,0,1-15,1.67c-12.23,0-17.91-4.48-17.91-12.63v-17.1c-17.51,20-40.29,31.74-69.17,31.74C3275,354,3251,325.49,3251,294.55c0-47.19,50.46-68,136.33-62.23v-6.94c0-32.15-9.76-45.58-46.78-45.58-15.5,0-36.22,4.48-47.19,7.35-6.54,1.61-11.42,3.27-15.5,3.27-9.35,0-15.44-8.15-12.17-25.26,19.92-7.34,48.8-14.23,76.46-14.23,57.41,0,78.53,25.66,78.53,74m-33.35,68.36v-37c-56.14-4.08-102.92,3.27-102.92,37,0,17.11,14.23,32.55,39.83,32.55,26.07,0,48.85-13,63.09-32.55" fill="#b40026"/><path d="M3643.66,233.93v105.4c0,7.74-4.48,12.62-17.91,12.62a71.11,71.11,0,0,1-15.44-1.66V238.41c0-39.09-19.12-57.8-48-57.8-22.38,0-46.78,15.5-56.54,33.81V339.33c0,7.74-4.48,12.62-17.91,12.62a71.18,71.18,0,0,1-15.44-1.66V154.61a74.38,74.38,0,0,1,15.44-1.67c13.43,0,17.91,4.88,17.91,12.63v16.7c14.24-17.5,35.82-31.34,64.7-31.34,39.89,0,73.24,25.2,73.24,83" fill="#b40026"/><path d="M3683.32,252.24c0-58.2,42.7-101.31,99.3-101.31a163.14,163.14,0,0,1,67.91,15.44c2.87,18.32-2.81,25.66-11,25.66-14.24,0-26.47-11.82-55.74-11.82-36.62,0-66.76,27.26-66.76,72,0,44.38,30.14,72,66.76,72,29.27,0,41.5-12.22,54.53-12.22,8.55,0,14.64,7.75,12.17,26.06A156.13,156.13,0,0,1,3782.62,354c-56.6,0-99.3-43.91-99.3-101.72" fill="#b40026"/><path d="M4059.65,264.47H3908.28c4.48,37.83,30.54,59,69.17,59,16.7,0,29.68-3.27,41.9-7.35,8.56-2.87,12.23-4.08,15.44-4.08,9.42,0,15.5,7.75,13.84,25.66-17.45,7.69-44.32,16.24-72.38,16.24-61.08,0-102.12-41.09-102.12-102.11,0-58.61,43.51-100.91,96.83-100.91,60.22,0,89.9,46.78,89.9,94a177,177,0,0,1-1.21,19.58M3908.28,238.4h120c-1.21-33.35-22.79-59.4-57.35-59.4-30.13,0-57.4,20.77-62.68,59.4" fill="#b40026"/><path d="M2425.63,0H831.86A33.29,33.29,0,0,0,798.5,33.29V466.64a33.33,33.33,0,0,0,33.36,33.29H2425.63A33.37,33.37,0,0,0,2459,466.64V33.29A33.32,33.32,0,0,0,2425.63,0Z" fill="url(#Sfumatura_senza_nome_11)"/><path d="M2425.63,0H831.86A33.29,33.29,0,0,0,798.5,33.29V273.66c0-3.51,1.36-23.48,24-25.63l3.15-.21,1608.44-56.19c12.53-.43,24.84-9.74,24.84-25.27L2459,33.29A33.32,33.32,0,0,0,2425.63,0Z" fill="url(#Sfumatura_senza_nome_18)"/><path id="path15555" d="M831.9,0a33.46,33.46,0,0,0-33.4,33.4h0V273.8c0-3.6,1.4-23.4,24-25.6h0a21.41,21.41,0,0,1,3.2-.2h0c98.6-3.4,1608.47-56.32,1608.47-56.32h0c12.6-.4,24.8-9.8,24.8-25.4h0l.16-132.82a33.46,33.46,0,0,0-33.4-33.4h0Z" opacity="0.3" fill="url(#Sfumatura_senza_nome_3)" style="isolation:isolate"/><path d="M499.5,464c5.94,3,18,6.66,33.21,7.09,26.13.57,40.38-9.38,51-32.79l140-311.81c-5.72-3.08-18.61-6.58-29-6.73-18-.43-42.3,3.22-57.62,40.09L591.7,266.63,502.79,122a131.88,131.88,0,0,0-30-4.22c-31.5,0-49,11.53-67.22,31.28l-86.47,94.35,69.58,109.3c12.81,19.9,29.78,30.07,57.27,30.07,18,0,33-4.23,39.94-7.45l-83.75-126,59.34-62.92,97.35,152.68ZM315.75,346c0,23-9,36.22-54,36.22a101.75,101.75,0,0,1-16.11-1.14V76.22c0-23.26,7.87-47.39,53.19-47.39a81.86,81.86,0,0,1,16.89,1.72Zm-92.7-46c0,42.95-28.06,74.23-85.11,80.38-41.3,4.37-101.07-.78-129.49-4.08a81.19,81.19,0,0,1-1.72-15c0-37.36,20.19-46,39.23-46,19.75,0,50.89,3.5,73.94,3.5,25.56,0,33.21-8.66,33.21-16.89,0-10.74-10.16-15.18-30-19L69,272.57c-45-8.66-69-39.73-69-72.65,0-40.09,28.42-73.66,84.32-79.82,42.31-4.58,93.78.57,122.05,4a74.45,74.45,0,0,1,1.51,14.39c0,37.44-19.76,45.45-38.8,45.45-14.6,0-37.3-2.65-63.21-2.65-26.34,0-37.29,7.3-37.29,16.11,0,9.38,10.38,13.24,26.91,16.11l51.68,9.59c53.05,9.73,75.88,39.87,75.88,76.88" fill="#ff0031"/><path id="path15297-4" d="M245.8,76.23v209a17.62,17.62,0,0,1,17.2-17.6h0c7.6-.2,28.8-1,35.2-1.2h0c7-.2,17.6-5,17.8-17.8h0v-218a79.56,79.56,0,0,0-17-1.8h0c-45.4.2-53.2,24.2-53.2,47.4m160,72.8-86.4,94.4,7,10.8c3,4,8.8,10.8,20.4,10.4h0c4.2-.2,45.8-1.6,49.2-1.8h0c10.8-.4,17.6,4.2,21.8,9.8h0l-15.4-23.2,59.4-63L501.6,249h0c7.2,9.4,18,9.6,20.4,9.6h0c2,0,54.4-1.8,56.6-2h0c3.6-.2,7.8,1.8,11,6.4h0L503,122.23c-5.8-1.8-19.8-4.2-30-4.2h0c-31.6-.2-49,11.2-67.2,31M84.4,120c-56,6.2-84.4,39.6-84.4,79.8H0c0,20.6,9.4,40.4,27.4,54.6h0c13.6,9,27.6,12.4,41.4,14.8h0c11.4,2,38,3.8,57.8,3h0c6.2-.2,51.8-1.8,61.6-2.2h0c23.2-.8,35.6,19,34.4,38.8h0V308h0v-.2h0c.2-2.6.4-5.2.4-7.8h0c0-37-22.8-67.2-75.8-77h0l-51.6-9.6c-16.6-2.8-26.8-6.8-26.8-16.2h0c0-8.8,11-16.2,37.2-16.2h0c26,0,48.6,2.6,63.2,2.6h0c19,0,38.8-8,38.8-45.4h0a69.14,69.14,0,0,0-1.6-14.4h0c-20.2-2.4-52.6-5.8-84.8-5.8h0c-12.6.2-25.2.8-37.2,2M637,159.83,592.8,264h0c0-.2,2.8-8.2,11.4-8.6h0s43.6-1.6,46.8-1.6h0c14.2-.6,19.8-10.2,21.4-13.4h0l51.2-114.2c-5.8-3-18.6-6.6-29-6.8h-2.2c-17.8.2-40.6,5-55.4,40.4" opacity="0.3" fill="url(#Sfumatura_senza_nome_3-2)" style="isolation:isolate"/><path d="M892.45,252.68c0-70.15,51.54-122.19,119.75-122.19a196.18,196.18,0,0,1,82,18.62c3.43,22.12-3.44,30.92-13.24,30.92-17.19,0-31.93-14.25-67.22-14.25-44.24,0-80.53,32.93-80.53,86.9,0,53.48,36.29,86.91,80.53,86.91,35.29,0,50-14.75,65.71-14.75,10.31,0,17.68,9.3,14.75,31.42a188.56,188.56,0,0,1-82,19.12c-68.21,0-119.75-53-119.75-122.7" fill="#fff"/><path d="M1134.68,81.42a25.33,25.33,0,0,1,25.48-25.56c14.75,0,26.06,10.81,26.06,25.56,0,13.24-11.31,25.48-26.06,25.48-13.74,0-25.48-12.24-25.48-25.48M1140.05,371V148.13c0-9.3,5.37-15.17,21.62-15.17a83.32,83.32,0,0,1,18.11,1.93V357.72c0,9.81-4.87,15.18-21,15.18a89.82,89.82,0,0,1-18.68-1.93" fill="#fff"/><path d="M1449.78,230.6V357.73c0,9.31-5.37,15.18-21.62,15.18a89.08,89.08,0,0,1-18.61-1.93V236c0-47.1-23-69.65-57.91-69.65-27,0-56.48,18.61-68.22,40.73V357.73c0,9.31-5.44,15.18-21.62,15.18a88.53,88.53,0,0,1-18.61-1.93V134.9A88.44,88.44,0,0,1,1261.8,133c16.18,0,21.62,5.87,21.62,15.18v20.12c17.18-21.12,43.17-37.8,78-37.8,48.1,0,88.33,30.42,88.33,100.14" fill="#fff"/><path d="M1721.64,267.42H1539.11c5.36,45.6,36.79,71.16,83.39,71.16,20.18,0,35.86-3.94,50.61-8.81,10.3-3.43,14.67-4.94,18.61-4.94,11.31,0,18.68,9.31,16.68,30.93-21.12,9.3-53.48,19.61-87.33,19.61-73.59,0-123.2-49.54-123.2-123.19,0-70.65,52.55-121.69,116.83-121.69,72.58,0,108.44,56.4,108.44,113.38a205.17,205.17,0,0,1-1.5,23.55M1539.11,236h144.8c-1.5-40.23-27.48-71.65-69.21-71.65-36.37,0-69.22,25.05-75.59,71.65" fill="#fff"/><path d="M2101.35,215.88v141.8c0,9.88-5.37,15.25-21.62,15.25a94,94,0,0,1-18.61-1.93V220.82c0-34.36-16.18-54.48-47.1-54.48-26.06,0-47.6,18.11-56.48,36.8V357.68c0,9.88-5.37,15.25-21.62,15.25a94.1,94.1,0,0,1-18.61-1.93V220.82c0-34.36-16.18-54.48-47.1-54.48-26.06,0-47.6,18.11-56.48,36.8V357.68c0,9.88-5.37,15.25-21.54,15.25A94.92,94.92,0,0,1,1773.5,371V134.92a90.24,90.24,0,0,1,19.11-2c15.25,0,20.62,6,20.62,16.25v16.18c15.25-20.11,38.8-34.86,67.29-34.86,31.42,0,55.9,15.68,68.21,42.66,16.18-24.48,40.73-42.66,75.59-42.66,50.54,0,77,37.8,77,85.4" fill="#fff"/><path d="M2351.83,219.79V371a83.66,83.66,0,0,1-18.11,1.94c-14.75,0-21.62-5.37-21.62-15.18V337.12c-21.12,24.05-48.61,38.29-83.47,38.29-52.47,0-81.46-34.36-81.46-71.65,0-57,60.85-82,164.43-75.09v-8.38c0-38.79-11.81-55-56.41-55-18.68,0-43.74,5.44-57,8.88-7.87,1.93-13.74,3.86-18.61,3.86-11.31,0-18.68-9.81-14.75-30.42,24.06-8.81,58.92-17.18,92.27-17.18,69.22,0,94.71,30.92,94.71,89.33m-40.23,82.47V257.59c-67.72-4.87-124.2,3.94-124.2,44.67,0,20.61,17.18,39.29,48.11,39.29,31.42,0,58.91-15.74,76.09-39.29" fill="#fff"/></svg>