<svg id="Livello_1" data-name="Livello 1" xmlns="http://www.w3.org/2000/svg" xmlns:xlink="http://www.w3.org/1999/xlink" viewBox="0 0 4302.69 499.97"><defs><linearGradient id="Sfumatura_senza_nome_11" x1="1895.33" y1="-2153.52" x2="1966.92" y2="-2153.52" gradientTransform="matrix(23.2, 0, 0, -23.2, -43166.48, -49704.05)" gradientUnits="userSpaceOnUse"><stop offset="0" stop-color="#ff0031"/><stop offset="0.64" stop-color="#cc0029"/><stop offset="1" stop-color="#b40026"/></linearGradient><linearGradient id="Sfumatura_senza_nome_18" x1="1895.33" y1="-2148.65" x2="1966.92" y2="-2148.65" gradientTransform="matrix(23.2, 0, 0, -23.2, -43166.48, -49704.05)" gradientUnits="userSpaceOnUse"><stop offset="0" stop-color="#ff0031"/><stop offset="0.57" stop-color="#d6002a"/><stop offset="1" stop-color="#bc0026"/></linearGradient><linearGradient id="Sfumatura_senza_nome_3" x1="1804.95" y1="-1550.99" x2="1809.39" y2="-1550.99" gradientTransform="matrix(-1.96, -56.03, -56.03, 1.96, -81733.06, 104385.7)" gradientUnits="userSpaceOnUse"><stop offset="0" stop-color="#fff"/><stop offset="0.5" stop-color="#fff" stop-opacity="0.4"/><stop offset="1" stop-color="#fff" stop-opacity="0.25"/></linearGradient><linearGradient id="Sfumatura_senza_nome_3-2" x1="1763.74" y1="-1518.22" x2="1768.18" y2="-1518.22" gradientTransform="matrix(-1.32, -37.68, -37.68, 1.32, -54516.18, 68713.52)" xlink:href="#Sfumatura_senza_nome_3"/></defs><title>Sky Cinema Suspense</title><path d="M4269.41,0H2413.9a33.33,33.33,0,0,0-33.28,33.35V466.68A33.32,33.32,0,0,0,2413.9,500H4269.41a33.32,33.32,0,0,0,33.28-33.29V33.35A33.33,33.33,0,0,0,4269.41,0m0,10a23.34,23.34,0,0,1,23.33,23.33V466.68A23.34,23.34,0,0,1,4269.41,490H2413.9a23.28,23.28,0,0,1-23.26-23.27V33.35A23.28,23.28,0,0,1,2413.9,10H4269.41" fill="#b40026"/><path d="M4269.41,10a23.34,23.34,0,0,1,23.33,23.33V466.68A23.34,23.34,0,0,1,4269.41,490H2413.9a23.28,23.28,0,0,1-23.26-23.27V33.35A23.28,23.28,0,0,1,2413.9,10H4269.41" fill="#fff"/><path d="M2559,340.54c-2.42-17.08,2.82-26,12.64-26,9.34,0,32.13,10.15,63.87,10.15,33.35,0,46-11.83,46-27.23,0-11-4.91-20.77-35-28.91l-34.56-9.34c-38.26-10.22-53.32-29.32-53.32-52.92,0-29.31,23.2-55.33,75.64-55.33,23.6,0,52.92,5.31,70.8,12.24,3.3,16.67-2,25.61-12.17,25.61-8.94,0-29.31-8.54-58.16-8.54-30.93,0-42.36,10.56-42.36,24.41,0,9.75,4.51,18.69,32.14,26.42l35.44,9.75c39.46,11,55.33,29.32,55.33,55.34,0,30.52-23.6,57.82-80.55,57.82-25.28,0-56.61-6.12-75.7-13.45" fill="#b40026"/><path d="M2922.43,154.6V350.32a74.93,74.93,0,0,1-15.47,1.62c-13.45,0-17.88-4.91-17.88-12.64V322.62C2874.82,340.1,2853.24,354,2824.4,354c-39.88,0-73.29-25.22-73.29-83V165.56c0-7.73,4.5-12.57,17.95-12.57a76,76,0,0,1,15.46,1.61V266.48c0,39.07,19.1,57.76,48,57.76,22.32,0,46.8-15.4,56.55-33.75V165.56c0-7.73,4.43-12.57,17.88-12.57a75,75,0,0,1,15.47,1.61" fill="#b40026"/><path d="M2965.67,340.54c-2.42-17.08,2.83-26,12.64-26,9.35,0,32.14,10.15,63.87,10.15,33.35,0,46-11.83,46-27.23,0-11-4.91-20.77-35-28.91l-34.56-9.34c-38.26-10.22-53.32-29.32-53.32-52.92,0-29.31,23.19-55.33,75.64-55.33,23.6,0,52.91,5.31,70.8,12.24,3.29,16.67-2,25.61-12.17,25.61-8.95,0-29.32-8.54-58.16-8.54-30.93,0-42.36,10.56-42.36,24.41,0,9.75,4.51,18.69,32.14,26.42l35.43,9.75c39.47,11,55.34,29.32,55.34,55.34,0,30.52-23.6,57.82-80.55,57.82-25.28,0-56.61-6.12-75.71-13.45" fill="#b40026"/><path d="M3356.28,252.25c0,63.87-44.71,101.72-94,101.72-29.24,0-53.25-13.85-67.5-33.34v82.16c0,7.73-4.51,12.64-17.48,12.64a68.74,68.74,0,0,1-15.87-1.68V154.62a72.27,72.27,0,0,1,15.87-1.68c13,0,17.48,4.91,17.48,12.64v18.69c14.25-19.5,38.26-33.35,67.5-33.35,49.29,0,94,37.86,94,101.33m-33.75,0c0-42.7-28.51-72-66.7-72-26.09,0-50.09,15.06-61,37v70.32c11,22,35,37.05,61,37.05,38.19,0,66.7-29.31,66.7-72.41" fill="#b40026"/><path d="M3573.22,264.44H3421.88c4.5,37.85,30.52,59,69.18,59,16.67,0,29.65-3.29,41.89-7.33,8.54-2.89,12.24-4.1,15.46-4.1,9.35,0,15.47,7.73,13.85,25.69-17.48,7.73-44.37,16.27-72.41,16.27-61,0-102.13-41.15-102.13-102.13,0-58.63,43.5-100.93,96.82-100.93,60.24,0,89.89,46.8,89.89,94a173.34,173.34,0,0,1-1.21,19.5m-151.34-26h120c-1.21-33.35-22.79-59.44-57.35-59.44-30.12,0-57.35,20.78-62.66,59.44" fill="#b40026"/><path d="M3787.48,233.94V339.3c0,7.73-4.5,12.64-17.88,12.64a75.73,75.73,0,0,1-15.47-1.61V238.45c0-39.07-19.16-57.83-48-57.83-22.39,0-46.8,15.47-56.55,33.82V339.3c0,7.73-4.5,12.64-17.95,12.64a76.7,76.7,0,0,1-15.46-1.61V154.6a76.7,76.7,0,0,1,15.46-1.61c13.45,0,17.95,4.84,17.95,12.57V182.3c14.19-17.54,35.77-31.33,64.68-31.33,39.87,0,73.22,25.22,73.22,83" fill="#b40026"/><path d="M3827.51,340.54c-2.42-17.08,2.82-26,12.64-26,9.34,0,32.14,10.15,63.87,10.15,33.35,0,46-11.83,46-27.23,0-11-4.91-20.77-35-28.91l-34.56-9.34c-38.25-10.22-53.32-29.32-53.32-52.92,0-29.31,23.2-55.33,75.64-55.33,23.6,0,52.92,5.31,70.8,12.24,3.3,16.67-2,25.61-12.17,25.61-8.94,0-29.31-8.54-58.16-8.54-30.92,0-42.35,10.56-42.35,24.41,0,9.75,4.5,18.69,32.14,26.42l35.43,9.75c39.47,11,55.33,29.32,55.33,55.34,0,30.52-23.6,57.82-80.55,57.82-25.27,0-56.61-6.12-75.7-13.45" fill="#b40026"/><path d="M4196.36,264.44H4045c4.5,37.85,30.52,59,69.18,59,16.67,0,29.65-3.29,41.89-7.33,8.54-2.89,12.23-4.1,15.46-4.1,9.35,0,15.47,7.73,13.85,25.69C4167.85,345.46,4141,354,4113,354c-61,0-102.13-41.15-102.13-102.13,0-58.63,43.5-100.93,96.82-100.93,60.17,0,89.89,46.8,89.89,94a173.34,173.34,0,0,1-1.21,19.5m-151.34-26h120c-1.21-33.35-22.79-59.44-57.35-59.44-30.12,0-57.35,20.78-62.66,59.44" fill="#b40026"/><path d="M2425.63,0H831.86A33.29,33.29,0,0,0,798.5,33.32V466.68A33.33,33.33,0,0,0,831.86,500H2425.63A33.37,33.37,0,0,0,2459,466.68V33.32A33.32,33.32,0,0,0,2425.63,0Z" fill="url(#Sfumatura_senza_nome_11)"/><path d="M2425.63,0H831.86A33.29,33.29,0,0,0,798.5,33.32V273.69c0-3.51,1.36-23.48,24-25.62l3.15-.22,1608.44-56.19c12.53-.43,24.84-9.74,24.84-25.27L2459,33.32A33.32,33.32,0,0,0,2425.63,0Z" fill="url(#Sfumatura_senza_nome_18)"/><path id="path15555" d="M831.9,0a33.47,33.47,0,0,0-33.4,33.4h0v240.4c0-3.6,1.4-23.4,24-25.6h0a22.82,22.82,0,0,1,3.2-.2h0c98.6-3.4,1608.47-56.32,1608.47-56.32h0c12.6-.4,24.8-9.8,24.8-25.4h0l.16-132.82a33.47,33.47,0,0,0-33.4-33.4h0Z" opacity="0.3" fill="url(#Sfumatura_senza_nome_3)" style="isolation:isolate"/><path d="M499.5,464c5.94,3,18,6.66,33.21,7.09,26.13.57,40.38-9.38,51-32.78l140-311.82c-5.72-3.07-18.61-6.58-29-6.72-18-.43-42.3,3.22-57.62,40.08L591.7,266.66,502.79,122.07a131.26,131.26,0,0,0-30-4.23c-31.5,0-49,11.53-67.22,31.29l-86.47,94.34,69.58,109.31c12.81,19.9,29.78,30.06,57.27,30.06,18,0,33-4.22,39.94-7.44l-83.75-126,59.34-62.92,97.35,152.69Zm-183.75-118c0,23-9,36.22-54,36.22a101.7,101.7,0,0,1-16.11-1.15V76.25c0-23.26,7.87-47.38,53.19-47.38a81.17,81.17,0,0,1,16.89,1.72Zm-92.7-46c0,43-28.06,74.23-85.11,80.39-41.3,4.36-101.07-.79-129.49-4.08a81.28,81.28,0,0,1-1.72-15c0-37.37,20.19-46,39.23-46,19.75,0,50.89,3.51,73.94,3.51,25.56,0,33.21-8.67,33.21-16.9,0-10.73-10.16-15.17-30-19L69,272.6c-45-8.66-69-39.72-69-72.65,0-40.09,28.42-73.66,84.32-79.82,42.31-4.58,93.78.58,122.05,4a74.45,74.45,0,0,1,1.51,14.39c0,37.44-19.76,45.46-38.8,45.46-14.6,0-37.3-2.65-63.21-2.65-26.34,0-37.29,7.3-37.29,16.1,0,9.38,10.38,13.25,26.91,16.11l51.68,9.59c53.05,9.74,75.88,39.87,75.88,76.88" fill="#ff0031"/><path id="path15297-4" d="M245.8,76.27v209a17.62,17.62,0,0,1,17.2-17.6h0c7.6-.2,28.8-1,35.2-1.2h0c7-.2,17.6-5,17.8-17.8h0v-218a78.3,78.3,0,0,0-17-1.8h0c-45.4.2-53.2,24.2-53.2,47.4m160,72.8-86.4,94.4,7,10.8c3,4,8.8,10.8,20.4,10.4h0c4.2-.2,45.8-1.6,49.2-1.8h0c10.8-.4,17.6,4.2,21.8,9.8h0l-15.4-23.2,59.4-63,39.8,62.6h0c7.2,9.4,18,9.6,20.4,9.6h0c2,0,54.4-1.8,56.6-2h0c3.6-.2,7.8,1.8,11,6.4h0L503,122.27c-5.8-1.8-19.8-4.2-30-4.2h0c-31.6-.2-49,11.2-67.2,31m-321.4-29c-56,6.2-84.4,39.6-84.4,79.8H0c0,20.6,9.4,40.4,27.4,54.6h0c13.6,9,27.6,12.4,41.4,14.8h0c11.4,2,38,3.8,57.8,3h0c6.2-.2,51.8-1.8,61.6-2.2h0c23.2-.8,35.6,19,34.4,38.8h0v-.8h0v-.2h0c.2-2.6.4-5.2.4-7.8h0c0-37-22.8-67.2-75.8-77h0l-51.6-9.6c-16.6-2.8-26.8-6.8-26.8-16.2h0c0-8.8,11-16.2,37.2-16.2h0c26,0,48.6,2.6,63.2,2.6h0c19,0,38.8-8,38.8-45.4h0a69,69,0,0,0-1.6-14.4h0c-20.2-2.4-52.6-5.8-84.8-5.8h0c-12.6.2-25.2.8-37.2,2M637,159.87l-44.2,104.2h0c0-.2,2.8-8.2,11.4-8.6h0s43.6-1.6,46.8-1.6h0c14.2-.6,19.8-10.2,21.4-13.4h0l51.2-114.2c-5.8-3-18.6-6.6-29-6.8h-2.2c-17.8.2-40.6,5-55.4,40.4" opacity="0.3" fill="url(#Sfumatura_senza_nome_3-2)" style="isolation:isolate"/><path d="M892.45,252.72c0-70.15,51.54-122.19,119.75-122.19a196.19,196.19,0,0,1,82,18.61c3.43,22.12-3.44,30.92-13.24,30.92-17.19,0-31.93-14.24-67.22-14.24-44.24,0-80.53,32.92-80.53,86.9,0,53.47,36.29,86.9,80.53,86.9,35.29,0,50-14.75,65.71-14.75,10.31,0,17.68,9.31,14.75,31.43a188.7,188.7,0,0,1-82,19.11c-68.21,0-119.75-53-119.75-122.69" fill="#fff"/><path d="M1134.68,81.45a25.32,25.32,0,0,1,25.48-25.55c14.75,0,26.06,10.81,26.06,25.55,0,13.24-11.31,25.48-26.06,25.48-13.74,0-25.48-12.24-25.48-25.48M1140.05,371V148.17c0-9.31,5.37-15.18,21.62-15.18a83.32,83.32,0,0,1,18.11,1.93V357.76c0,9.8-4.87,15.17-21,15.17a89.82,89.82,0,0,1-18.68-1.93" fill="#fff"/><path d="M1449.78,230.63V357.76c0,9.31-5.37,15.18-21.62,15.18a89.08,89.08,0,0,1-18.61-1.93V236c0-47.1-23-69.65-57.91-69.65-27,0-56.48,18.62-68.22,40.73V357.76c0,9.31-5.44,15.18-21.62,15.18a88.53,88.53,0,0,1-18.61-1.93V134.93A88.53,88.53,0,0,1,1261.8,133c16.18,0,21.62,5.87,21.62,15.17v20.12c17.18-21.12,43.17-37.8,78-37.8,48.1,0,88.33,30.42,88.33,100.14" fill="#fff"/><path d="M1721.64,267.46H1539.11c5.36,45.59,36.79,71.15,83.39,71.15,20.18,0,35.86-3.94,50.61-8.8,10.3-3.44,14.67-4.94,18.61-4.94,11.31,0,18.68,9.3,16.68,30.92-21.12,9.3-53.48,19.61-87.33,19.61-73.59,0-123.2-49.53-123.2-123.19,0-70.65,52.55-121.69,116.83-121.69,72.58,0,108.44,56.41,108.44,113.39a205.44,205.44,0,0,1-1.5,23.55M1539.11,236h144.8c-1.5-40.23-27.48-71.65-69.21-71.65-36.37,0-69.22,25.05-75.59,71.65" fill="#fff"/><path d="M2101.35,215.91v141.8c0,9.88-5.37,15.25-21.62,15.25a94,94,0,0,1-18.61-1.93V220.85c0-34.36-16.18-54.47-47.1-54.47-26.06,0-47.6,18.11-56.48,36.79V357.71c0,9.88-5.37,15.25-21.62,15.25a94.1,94.1,0,0,1-18.61-1.93V220.85c0-34.36-16.18-54.47-47.1-54.47-26.06,0-47.6,18.11-56.48,36.79V357.71c0,9.88-5.37,15.25-21.54,15.25A94.92,94.92,0,0,1,1773.5,371V135a90.34,90.34,0,0,1,19.11-2c15.25,0,20.62,5.94,20.62,16.25v16.17c15.25-20.11,38.8-34.86,67.29-34.86,31.42,0,55.9,15.68,68.21,42.67,16.18-24.48,40.73-42.67,75.59-42.67,50.54,0,77,37.8,77,85.4" fill="#fff"/><path d="M2351.83,219.83V371a84.38,84.38,0,0,1-18.11,1.93c-14.75,0-21.62-5.37-21.62-15.18V337.15c-21.12,24.05-48.61,38.29-83.47,38.29-52.47,0-81.46-34.35-81.46-71.65,0-57,60.85-82,164.43-75.09v-8.37c0-38.8-11.81-55-56.41-55-18.68,0-43.74,5.44-57,8.88-7.87,1.93-13.74,3.86-18.61,3.86-11.31,0-18.68-9.8-14.75-30.42,24.06-8.8,58.92-17.18,92.27-17.18,69.22,0,94.71,30.93,94.71,89.34m-40.23,82.46V257.62c-67.72-4.87-124.2,3.94-124.2,44.67,0,20.61,17.18,39.3,48.11,39.3,31.42,0,58.91-15.75,76.09-39.3" fill="#fff"/></svg>