<?xml version="1.0" encoding="UTF-8"?>
<svg id="Calque_1" data-name="Calque 1" xmlns="http://www.w3.org/2000/svg" xmlns:xlink="http://www.w3.org/1999/xlink" viewBox="0 0 286.97 131.9">
  <defs>
    <style>
      .cls-1 {
        fill: #fff;
      }

      .cls-2 {
        fill: url(#Dégradé_sans_nom_23);
      }
    </style>
    <linearGradient id="Dégradé_sans_nom_23" data-name="Dégradé sans nom 23" x1="177.21" y1="48.14" x2="203.34" y2="48.14" gradientUnits="userSpaceOnUse">
      <stop offset="0" stop-color="#5e88c3"/>
      <stop offset="1" stop-color="#3c5982"/>
    </linearGradient>
  </defs>
  <path class="cls-2" d="M177.21,35.61l.13,25.1c.01,2.09,2.3,3.38,4.09,2.29l20.61-12.49c1.73-1.05,1.73-3.56,0-4.61l-20.74-12.62c-1.8-1.1-4.11.21-4.1,2.32Z"/>
  <path class="cls-1" d="M61.15,94.42c-2.4,0-4.52-.56-6.35-1.67s-3.27-2.67-4.29-4.67c-1.03-1.99-1.54-4.3-1.54-6.93s.51-4.96,1.54-6.95c1.03-1.99,2.46-3.55,4.29-4.66s3.95-1.68,6.35-1.68c2.2,0,4.04.5,5.5,1.49,1.46,1,2.56,2.48,3.28,4.45.72,1.97,1.09,4.42,1.09,7.35s-.36,5.38-1.09,7.35c-.72,1.97-1.82,3.45-3.28,4.44s-3.3,1.48-5.5,1.48ZM62.4,87.75c1.89,0,3.4-.6,4.55-1.81,1.15-1.21,1.72-2.8,1.72-4.78,0-1.34-.26-2.51-.78-3.49s-1.25-1.74-2.19-2.29c-.94-.54-2.04-.81-3.31-.81s-2.37.27-3.32.81c-.94.54-1.68,1.31-2.2,2.3-.52.99-.78,2.15-.78,3.48s.26,2.46.78,3.45c.52.99,1.26,1.76,2.21,2.31.95.55,2.05.83,3.31.83ZM68.67,93.9v-25.45h7.02v25.45h-7.02Z"/>
  <path class="cls-1" d="M87.92,93.9v-18.75h-9.81v-6.7h9.81v-14.04h7.09v14.04h9.81v6.7h-9.81v18.75h-7.09Z"/>
  <path class="cls-1" d="M120.1,94.42c-2.79,0-5.22-.55-7.29-1.65s-3.67-2.63-4.8-4.6-1.7-4.23-1.7-6.79c0-2.72.6-5.09,1.81-7.12,1.21-2.03,2.85-3.61,4.93-4.73s4.4-1.69,6.96-1.69c2.72,0,5.07.59,7.05,1.78,1.98,1.19,3.52,2.8,4.61,4.85,1.09,2.05,1.63,4.36,1.63,6.94v1.83h-21.74v-4.8h17.44l-2.2,1.13c-.36-1.69-1.11-3.05-2.24-4.06s-2.66-1.53-4.6-1.53c-1.4,0-2.63.3-3.69.89-1.06.6-1.88,1.44-2.46,2.52-.58,1.09-.87,2.38-.87,3.87s.29,2.72.87,3.77c.58,1.05,1.4,1.85,2.46,2.41,1.06.56,2.3.84,3.74.84,1.34,0,2.5-.25,3.46-.75s1.61-1.22,1.93-2.17h7.77c-.86,2.96-2.45,5.21-4.78,6.75-2.33,1.54-5.09,2.31-8.29,2.31Z"/>
  <path class="cls-1" d="M148.3,94.42c-2.4,0-4.52-.56-6.35-1.67s-3.27-2.67-4.29-4.67c-1.03-1.99-1.54-4.3-1.54-6.93s.51-4.96,1.54-6.95c1.03-1.99,2.46-3.55,4.29-4.66s3.95-1.68,6.35-1.68c2.2,0,4.04.5,5.5,1.49,1.46,1,2.56,2.48,3.28,4.45.72,1.97,1.09,4.42,1.09,7.35s-.36,5.38-1.09,7.35c-.72,1.97-1.82,3.45-3.28,4.44s-3.3,1.48-5.5,1.48ZM149.55,87.75c1.89,0,3.4-.6,4.55-1.81,1.15-1.21,1.72-2.8,1.72-4.78,0-1.34-.26-2.51-.78-3.49s-1.25-1.74-2.19-2.29c-.94-.54-2.04-.81-3.31-.81s-2.37.27-3.32.81c-.94.54-1.68,1.31-2.2,2.3-.52.99-.78,2.15-.78,3.48s.26,2.46.78,3.45c.52.99,1.26,1.76,2.21,2.31.95.55,2.05.83,3.31.83ZM155.82,93.9v-25.45h7.02v25.45h-7.02Z"/>
  <path class="cls-1" d="M176.07,93.9v-18.75h-9.81v-6.7h16.89v18.75h9.81v6.7h-16.89Z"/>
  <path class="cls-1" d="M208.04,94.42c-2.37,0-4.51-.37-6.41-1.1-1.9-.73-3.43-1.78-4.57-3.15s-1.77-3-1.88-4.9h7.77c.17,1.13.71,1.97,1.63,2.5s2.11.8,3.56.8c1.09,0,2.02-.19,2.8-.57.78-.38,1.17-.94,1.17-1.68,0-.65-.29-1.11-.86-1.38-.57-.27-1.18-.46-1.81-.57l-5.14-.84c-2.52-.41-4.49-1.29-5.9-2.64s-2.12-3.02-2.12-5.02c0-2.43,1.01-4.38,3.05-5.85,2.03-1.47,4.65-2.21,7.85-2.21,2.1,0,4.01.33,5.74,1s3.13,1.63,4.2,2.89c1.07,1.26,1.67,2.78,1.79,4.56h-7.77c-.11-.86-.56-1.51-1.37-1.95-.81-.44-1.73-.66-2.77-.66s-1.85.19-2.5.57c-.66.38-.99.88-.99,1.49,0,.47.22.87.65,1.2.43.33,1.1.58,2,.75l5.14.91c2.7.47,4.72,1.34,6.06,2.6s2,2.87,2,4.8c0,2.55-1.04,4.59-3.11,6.13s-4.8,2.3-8.19,2.3Z"/>
  <path class="cls-1" d="M222.84,93.9v-40.79h7.09v18.3c.66-1.16,1.7-2.04,3.11-2.64,1.41-.6,3.02-.89,4.83-.89,3.41,0,6.11.95,8.11,2.84,1.99,1.9,2.99,4.44,2.99,7.62v15.56h-7.09v-13.68c0-1.75-.48-3.13-1.43-4.12-.95-1-2.35-1.5-4.19-1.5-1.09,0-2.1.2-3.03.61-.94.41-1.7,1.05-2.29,1.92-.59.88-.93,2.01-1.02,3.4v13.36h-7.09Z"/>
</svg>