<?xml version="1.0" encoding="UTF-8" standalone="no"?><svg version="1.1" xml:space="preserve" viewBox="0 0 469.69144 211.5995" xmlns="http://www.w3.org/2000/svg" xmlns:svg="http://www.w3.org/2000/svg"><path d="M2.9533081 2.0900854C1.3226413 2.0900854 0 3.4176596 0 5.0480444V204.94954c0 1.63568 1.3222213 2.95279 2.9533081 2.95279H62.185352c30.194605 0 57.622388-13.33142 76.419628-34.08009v31.10663c0 1.63807 1.32808 2.95744 2.97139 2.95744h38.70823c1.64305 0 2.96623-1.3198 2.96623-2.95744V5.1364111c0-1.633035-1.32362-2.9631267-2.96623-2.9631267h-38.70823c-1.64303 0-2.97139 1.3303782-2.97139 2.9631267V35.975872C119.80774 15.236038 92.379961 2.0947363 62.185352 2.0947363Zm4.9035767 8.0656576 54.2152952.004651c28.284409 0 53.38517 12.178835 70.82772 31.669384 14.99891 16.763524 24.11326 38.955308 24.11326 63.172892 0 24.21293-9.11435 46.30495-24.11326 63.06385-17.44255 19.4953-42.843551 31.76964-71.12796 31.76964H7.8568848Z" fill="#e7473b"/><path d="M246.56445 24.918395c0 13.764374-11.17047 24.923603-24.94903 24.923603-13.77338 0-24.94387-11.159229-24.94387-24.923603C196.67155 11.159086 207.84204 0 221.61542 0c13.77856 0 24.94903 11.159086 24.94903 24.918395" fill="#e7473b"/><path d="M469.63219 133.56874c0 2.65222.17119 5.02592-.06839 7.46033-.3846 3.91247-2.33165 6.18859-5.36073 6.18859H360.5331c4.10436 17.34247 16.54463 27.08734 34.2139 27.08734 13.66597 0 19.74991-5.60785 26.80249-13.66137h41.60864c1.60033 0 2.60743 1.42481 2.00501 2.88319-12.78304 27.83229-38.31856 48.07268-70.85557 48.07268-42.6065 0-77.14827-35.04476-77.14827-78.27384 0-43.233963 34.54177-78.278851 77.14827-78.278851 33.81318 0 60.56298 21.551114 70.94644 51.321491 3.04076 8.71815 4.37818 17.40736 4.37818 27.20044Zm-42.61167-16.4605c-4.41903-15.92769-16.72514-24.676226-33.0265-24.676226-17.29275 0-28.47242 9.476006-32.75702 24.676226Z" fill="#e7473b"/><path d="M336.26 58.793681h-31.55652v-8.899024c0-12.604034 8.87355-14.319657 15.34422-14.319657 4.57924 0 7.37334.237897 12.64732.869903 4.37641.525956 5.69992-1.865488 5.69992-5.42981l.01004-24.3870219c0-1.6380535-1.28797-3.2761209-2.89063-3.6301006C329.29193 1.6221711 320.4683.01099831 313.96714.01099831c-10.44606 0-27.87383 1.48223179-40.18074 11.56369469-8.25129 6.759205-14.20067 17.828886-14.20067 34.614305V204.92938c0 1.63807 1.32823 2.95756 2.96654 2.95756h39.18425c1.63283 0 2.96666-1.31991 2.96666-2.95756V93.026314h6.91154c1.63802 0 3.79323-1.03615 4.81256-2.315644l21.25849-29.601366c.6422-.806418.21724-2.315623-1.42577-2.315623Z" fill="#e7473b"/><path d="M244.03298 61.842153V204.92499c0 1.64027-1.33639 2.96152-2.98475 2.96152h-38.95052c-1.6479 0-2.98473-1.32168-2.98473-2.96152V61.842153c0-1.640262 1.33639-2.961651 2.98473-2.961651h38.95052c1.64808 0 2.98475 1.32167 2.98475 2.961651" fill="#e7473b"/></svg>