<svg 
 xmlns="http://www.w3.org/2000/svg"
 xmlns:xlink="http://www.w3.org/1999/xlink"
 width="222px" height="87px">
<path fill-rule="evenodd"  fill="rgb(18, 153, 84)"
 d="M221.928,25.683 L216.069,59.816 L215.576,59.816 L210.530,59.816 L208.722,59.816 L206.508,59.816 C205.302,59.816 204.272,59.112 203.793,58.099 L202.768,55.880 L194.957,39.556 L191.501,59.816 L186.310,59.816 L182.796,59.816 C181.133,59.816 179.791,58.471 179.791,56.813 C179.791,56.603 179.813,56.407 179.856,56.211 L180.727,51.227 L182.920,38.443 L194.427,38.443 L176.080,0.090 L185.802,0.102 C186.993,0.102 188.023,0.802 188.503,1.813 L189.163,3.183 L207.103,40.705 L210.305,22.020 L219.009,22.025 C220.657,22.025 222.001,23.365 222.001,25.020 C222.001,25.252 221.972,25.472 221.928,25.683 ZM173.743,30.865 L143.163,30.865 L144.673,22.025 L169.641,22.025 L171.703,22.032 C173.358,22.032 174.701,23.375 174.701,25.025 C174.701,25.189 174.686,25.354 174.657,25.509 L173.743,30.865 ZM154.518,38.453 L169.663,38.453 L168.486,45.401 L153.327,45.401 L152.362,50.986 L165.343,50.986 L167.245,50.981 C168.900,50.981 170.236,52.318 170.236,53.976 C170.236,54.167 170.222,54.353 170.193,54.542 L169.285,59.821 L143.845,59.821 L143.845,59.816 L142.909,59.816 L141.777,59.816 C140.129,59.816 138.785,58.471 138.785,56.813 C138.785,56.627 138.800,56.438 138.829,56.255 L139.148,54.365 L141.892,38.443 L154.518,38.443 L154.518,38.453 ZM145.312,82.164 L145.363,82.164 L147.969,68.909 L150.975,68.909 L147.439,86.899 L144.100,86.899 L138.517,73.670 L138.444,73.670 L135.838,86.899 L132.832,86.899 L136.383,68.909 L139.700,68.909 L145.312,82.164 ZM131.707,30.865 L101.120,30.865 L102.651,22.025 L127.619,22.025 L129.674,22.032 C131.329,22.032 132.672,23.375 132.672,25.025 C132.672,25.189 132.658,25.354 132.636,25.509 L131.707,30.865 ZM112.490,38.453 L127.627,38.453 L126.450,45.401 L111.291,45.401 L110.333,50.986 L123.307,50.986 L125.216,50.981 C126.864,50.981 128.207,52.318 128.207,53.976 C128.207,54.167 128.192,54.353 128.164,54.542 L127.256,59.821 L101.817,59.821 L101.817,59.816 L100.880,59.816 L99.751,59.816 C98.095,59.816 96.752,58.471 96.752,56.813 C96.752,56.627 96.769,56.438 96.805,56.255 L97.115,54.365 L99.854,38.443 L112.490,38.443 L112.490,38.453 ZM81.123,41.898 C83.562,42.552 85.520,44.274 85.390,46.495 C85.370,46.892 85.319,47.487 85.276,48.031 L85.290,48.031 C85.290,48.031 85.261,48.331 85.211,48.815 C85.193,49.113 85.179,49.316 85.179,49.316 L85.174,49.316 C84.942,51.922 84.431,57.649 84.390,58.236 C84.325,59.001 85.290,59.816 85.290,59.816 L73.049,59.816 C73.049,59.816 72.184,59.267 72.295,58.019 C72.372,57.140 72.767,52.560 72.991,49.918 C73.021,48.687 72.672,46.853 69.848,46.802 L63.873,46.802 L61.932,59.816 L56.591,59.816 L52.850,59.816 C51.190,59.816 49.846,58.471 49.846,56.813 C49.846,56.649 49.861,56.477 49.890,56.313 L50.282,54.034 L52.489,38.443 L65.122,38.443 L65.122,38.453 L71.146,38.453 C72.774,38.264 75.859,37.204 76.310,35.032 C76.913,32.167 74.855,30.979 72.213,30.865 L54.246,30.865 L55.763,22.025 L77.406,22.025 C78.880,22.020 82.590,22.407 84.840,23.716 C87.105,25.039 88.586,27.055 88.499,30.623 C88.412,33.856 87.526,36.628 85.970,38.395 C84.194,40.413 81.123,41.898 81.123,41.898 ZM46.950,86.899 L43.806,86.899 L45.401,78.794 L37.213,78.794 L35.617,86.899 L32.466,86.899 L36.001,68.909 L39.152,68.909 L37.744,76.065 L45.941,76.065 L47.342,68.909 L50.493,68.909 L46.950,86.899 ZM42.483,30.865 L21.151,30.865 L17.706,50.986 L29.581,50.986 L30.534,45.401 L25.685,45.401 L26.890,38.453 L41.185,38.453 L40.669,41.501 L37.534,59.816 L34.939,59.816 L34.939,59.821 L13.342,59.821 L13.342,59.816 L9.790,59.816 L7.114,59.816 C5.465,59.816 4.129,58.471 4.129,56.813 C4.129,56.642 4.144,56.472 4.171,56.310 L4.522,54.208 L9.560,24.739 C9.836,23.196 11.191,22.022 12.812,22.022 L40.094,22.022 C41.918,22.022 43.385,23.501 43.385,25.320 C43.385,25.509 43.375,25.695 43.342,25.874 L42.483,30.865 ZM16.382,71.628 L6.148,71.628 L3.679,84.185 L13.916,84.185 L13.386,86.909 L-0.001,86.909 L3.534,68.909 L16.915,68.909 L16.382,71.628 ZM78.006,68.909 L81.392,86.899 L78.008,86.899 L75.729,72.005 L75.712,72.005 L75.654,72.005 L67.452,86.899 L64.207,86.899 L74.654,68.909 L78.006,68.909 ZM105.607,68.909 L111.219,82.164 L111.270,82.164 L113.875,68.909 L116.867,68.909 L113.338,86.899 L109.999,86.899 L104.423,73.670 L104.336,73.670 L101.737,86.899 L98.736,86.899 L102.282,68.909 L105.607,68.909 ZM183.290,68.909 L182.760,71.628 L172.951,71.628 L172.022,76.341 L181.097,76.341 L180.596,78.915 L171.521,78.915 L170.483,84.182 L180.466,84.182 L179.921,86.899 L166.802,86.899 L170.330,68.909 L183.290,68.909 ZM205.281,68.909 L202.268,84.182 L211.415,84.182 L210.886,86.899 L198.587,86.899 L202.123,68.909 L205.281,68.909 Z"/>
</svg>