<svg xmlns="http://www.w3.org/2000/svg" width="355.49" height="105.68"><path fill="#fff" d="M17.01 105.68l6.27-23.39H0l15.78-58.9h23.28L45.33 0h69.25l-6.27 23.39h187.02l-15.79 58.9H92.53l-6.27 23.39H17.01zm296.94-17.2l11.57-43.15-7.81 5.69-10.93-14.41 26.16-19.41h22.55l-19.11 71.28h-22.43z"/><path fill="#000064" d="M289.4 28.07l-13.28 49.54H5.93L19.2 28.07h270.2z"/><path fill="#d20000" d="M82.67 101H22.94L48.75 4.68h59.73L82.67 101z"/><path d="M66 58.83a4.41 4.41 0 0 1-4.67 3.6h-7.26l2-7.34H43.9l-2.31 8.66c-1.71 6.37 1 9.67 7.43 9.67H66c7.22 0 13.45-2.33 16.09-11.76l10.09-37.78H75.43zm54.33-8.27c-5.8-1.87-7.44-2.07-7.44-2.69s1-.83 3.25-.83h8.1a4 4 0 0 0 3.37-2.88l.88-3.26h-12.64c-7.83 0-10.28 3.27-10.28 6.94 0 4.24 3.52 6.1 9.79 8 5.14 1.52 6.2 1.75 6.2 2.24 0 .7-1.23.87-4.36.87h-10.51l-1.44 6h13.38c7.29 0 10.62-2.54 10.62-6.79 0-3.43-2-5.35-8.92-7.6zm130.61 0c-5.79-1.87-7.44-2.07-7.44-2.69s1-.83 3.25-.83h8.1a4 4 0 0 0 3.38-2.88l.87-3.26h-12.64c-7.83 0-10.27 3.27-10.27 6.94 0 4.24 3.51 6.1 9.78 8 5.15 1.52 6.21 1.75 6.21 2.24 0 .7-1.23.87-4.36.87H237.3l-1.43 6h13.38c7.29 0 10.61-2.54 10.61-6.79 0-3.43-2-5.35-8.92-7.6zm-37.28-9.66l-1.57 6.1h7.74v18h7.93V47h3.5a3.66 3.66 0 0 0 3.3-2.61l.94-3.53zm-67.83 0h-14.19V65h7.66v-5.9h6.33c5.91 0 10-3.52 10-9.12s-4.33-9.08-9.8-9.08zm-1.67 12.66h-4.86v-7.07h4.86a3.57 3.57 0 0 1 3.84 3.27 2.81 2.81 0 0 1 0 .29c0 2.36-1.86 3.51-3.84 3.51zm62.39 3.63A7.28 7.28 0 0 0 211 50c0-5.6-4.36-9.12-9.83-9.12H187V65h7.65V46.49h4.87a3.56 3.56 0 0 1 3.82 3.26v.3c0 2.36-1.86 3.51-3.83 3.51h-4s6.36 7.89 7.13 8.87a5.85 5.85 0 0 0 5 2.57h5.81zm-35.98-16.85C162 40.34 158 45 158 50.28v4.56c0 7.34 5.22 10.76 12.46 10.76s13.08-3.34 13.08-10.6v-3.89c0-6.4-4.36-10.77-12.97-10.77zm5.15 15.07c0 1.42-.83 4.52-4.94 4.52a4.54 4.54 0 0 1-4.92-4.14v-5.12c0-1.54.83-4.66 5-4.66a4.54 4.54 0 0 1 4.84 4.24v.42z" fill="#fff"/><path fill="#000064" d="M334.32 21.88L313.2 37.55l5.3 6.99 14.8-10.81-13.42 50.07h13.08l16.6-61.92h-15.24z"/></svg>