<?xml version="1.0" encoding="UTF-8" standalone="no"?>
<svg
   width="203.548"
   height="225.50865"
   viewBox="0 0 203.54801 225.50865"
   version="1.1"
   id="svg1"
   xmlns="http://www.w3.org/2000/svg"
   xmlns:svg="http://www.w3.org/2000/svg">
  <defs
     id="defs1" />
  <g
     id="Group_2037"
     data-name="Group 2037"
     transform="translate(-63.301998,-580.17951)">
    <path
       id="Path_25"
       data-name="Path 25"
       d="m 119.629,745.449 q -0.491,1.088 -1.354,2.664 a 18.034,18.034 0 0 1 -1.729,2.74 q -0.226,0.3 -1.052,1.24 l -1.316,-1.2 a 63.3,63.3 0 0 0 3.721,-14.962 l 4.556,0.942 a 1.02,1.02 0 0 1 0.529,0.338 0.7,0.7 0 0 1 0.149,0.452 c 0,0.453 -0.378,0.792 -1.14,1.018 q -1.012,3.274 -1.54,4.666 h 10.935 a 25.236,25.236 0 0 1 -0.976,3.269 22.446,22.446 0 0 1 -2.18,4.469 17.183,17.183 0 0 1 -1.766,2.178 l -1.428,-0.757 a 49.394,49.394 0 0 0 1.653,-7.055 h -2.742 v 1.5 q 0.036,0.977 -0.225,4.5 c -0.051,0.45 -0.088,0.826 -0.112,1.125 q 2.029,8.884 8,13.246 -1.279,2.072 -1.617,2.711 -0.3,0.564 -1.2,2.485 a 15.812,15.812 0 0 1 -3.8,-5.677 34.892,34.892 0 0 1 -1.953,-7.927 24.98,24.98 0 0 1 -1.805,6.538 16.531,16.531 0 0 1 -6.99,7.327 l -1.09,-1.692 a 16.8,16.8 0 0 0 4.434,-6.318 32.56,32.56 0 0 0 1.841,-8.124 73.873,73.873 0 0 0 0.451,-8.2 v -1.5 z m -18.495,18.688 h 3.131 v -4.315 h -3.131 z m 0,-17.148 h 3.131 v -3.568 h -3.131 z m -3.367,10.919 h 9.982 v 8.144 h -6.616 v 2.221 h -3.366 z m 0,-9 v -7.4 h 9.982 v 7.4 z m 15.658,-9.433 v 9.508 a 3.673,3.673 0 0 1 -0.527,2.325 5.352,5.352 0 0 1 -0.753,0.75 4.282,4.282 0 0 1 -2.149,0.412 H 106.4 v -2.29 h 1.693 a 1.164,1.164 0 0 0 0.954,-0.3 1.119,1.119 0 0 0 0.306,-0.938 v -9.471 H 98.141 l -1.615,0.34 v -2.792 l 1.615,0.339 h 16.075 l 1.615,-0.339 v 2.792 l -1.615,-0.34 z m 0,16.206 v 11.805 a 3.616,3.616 0 0 1 -0.527,2.3 5.46,5.46 0 0 1 -0.753,0.753 4.274,4.274 0 0 1 -2.149,0.414 h -4.532 v -2.3 h 2.436 a 1.387,1.387 0 0 0 1.109,-0.339 1.412,1.412 0 0 0 0.342,-1.091 V 755.677 H 97.88 l -1.615,0.34 v -2.795 l 1.615,0.34 h 16.82 l 1.617,-0.34 v 2.795 l -1.617,-0.34 z"
       transform="translate(-32.963,-4.215)"
       fill="#222287"
       style="fill:#ffffff" />
    <g
       id="g1"
       transform="matrix(3.0779842,0,0,3.0779842,63.938303,-1649.6292)"
       style="fill:#ffffff">
      <path
         id="Path_24"
         data-name="Path 24"
         d="m 56.746,737.532 c -0.659262,-5.00325 -4.499747,-8.99413 -9.474,-9.845 -10.191981,-1.3638 -20.521895,-1.33824 -30.707,0.076 -0.2,0.034 -0.4,0.081 -0.6,0.126 l -0.224,-2.445 c 0,-0.556 -0.474,-1.006 -1.55,-1.006 -1.076,0 -1.522,0.45 -1.522,1.006 l -0.394,4.017 c -2.7749727,1.86924 -4.6281089,4.82662 -5.1,8.139 -1.0170518,7.1498 -1.0399354,14.40593 -0.068,21.562 0.6403094,4.90716 4.475983,8.78415 9.376,9.477 v 1.734 c 10.236822,1.394 20.613697,1.41855 30.857,0.073 v -1.732 c 4.938723,-0.65566 8.821718,-4.54604 9.468,-9.486 0.961717,-7.20145 0.94086,-14.50016 -0.062,-21.696 z m -10.262,24.476 c -9.709563,0.76463 -19.464788,0.74992 -29.172,-0.044 -4.529,-0.456 -6.628,-2.846 -6.967,-7.588 -0.3739423,-5.15584 -0.270502,-10.3352 0.309,-15.472 0.493,-4.527 2.706,-7.35 7.107,-7.931 9.400582,-1.03378 18.885047,-1.05423 28.29,-0.061 4.434,0.551 6.683,3.373 7.164,7.942 l 0.3,15.556 c -0.343,4.753 -2.453,7.164 -7.031,7.598 z"
         fill="#222287"
         style="fill:#ffffff" />
      <path
         id="Path_26"
         data-name="Path 26"
         d="m 43.048,744.232 q -0.4,0.88 -1.093,2.152 a 14.621,14.621 0 0 1 -1.4,2.212 c -0.122,0.162 -0.405,0.495 -0.85,1 l -1.063,-0.969 a 51.1,51.1 0 0 0 3,-12.081 l 3.679,0.76 a 0.83,0.83 0 0 1 0.427,0.273 0.566,0.566 0 0 1 0.12,0.365 c 0,0.366 -0.306,0.639 -0.921,0.822 q -0.817,2.643 -1.243,3.767 h 8.829 a 20.4,20.4 0 0 1 -0.788,2.639 18.115,18.115 0 0 1 -1.76,3.607 13.833,13.833 0 0 1 -1.426,1.76 l -1.152,-0.611 a 39.944,39.944 0 0 0 1.334,-5.7 h -2.205 v 1.213 q 0.029,0.788 -0.182,3.635 -0.062,0.546 -0.091,0.909 1.638,7.171 6.462,10.693 -1.033,1.671 -1.305,2.188 -0.244,0.456 -0.971,2.006 a 12.785,12.785 0 0 1 -3.064,-4.582 28.223,28.223 0 0 1 -1.577,-6.4 20.164,20.164 0 0 1 -1.457,5.278 13.352,13.352 0 0 1 -5.644,5.915 l -0.88,-1.366 a 13.569,13.569 0 0 0 3.581,-5.1 26.284,26.284 0 0 0 1.487,-6.559 59.647,59.647 0 0 0 0.364,-6.618 v -1.213 z M 28.116,759.32 h 2.528 v -3.484 h -2.528 z m 0,-13.845 h 2.528 v -2.88 h -2.528 z m -2.716,8.816 h 8.059 v 6.573 h -5.343 v 1.793 H 25.4 Z m 0,-7.269 v -5.974 h 8.059 v 5.974 z m 12.642,-7.616 v 7.676 a 2.96,2.96 0 0 1 -0.426,1.877 4.272,4.272 0 0 1 -0.608,0.606 3.448,3.448 0 0 1 -1.736,0.334 h -2.9 v -1.848 h 1.367 a 0.938,0.938 0 0 0 0.77,-0.242 0.9,0.9 0 0 0 0.247,-0.757 v -7.646 H 25.7 l -1.3,0.275 v -2.255 l 1.3,0.273 h 12.978 l 1.3,-0.273 v 2.255 l -1.3,-0.275 z m 0,13.084 v 9.529 a 2.915,2.915 0 0 1 -0.426,1.853 4.419,4.419 0 0 1 -0.608,0.61 3.47,3.47 0 0 1 -1.736,0.334 h -3.66 v -1.854 h 1.969 a 1.12,1.12 0 0 0 0.9,-0.274 1.138,1.138 0 0 0 0.275,-0.881 v -9.317 h -9.267 l -1.3,0.274 v -2.255 l 1.3,0.275 h 13.583 l 1.305,-0.275 v 2.255 l -1.305,-0.274 z"
         transform="translate(-6.524,-4.441)"
         fill="#222287"
         style="fill:#ffffff" />
    </g>
    <path
       id="Path_27"
       data-name="Path 27"
       d="m 160.954,767.384 h 3.327 v -6.1 h -3.327 z m 7.125,3.54 h -3.8 v -1.431 h -3.327 v 1.822 h -3.8 v -12.137 h 10.921 z m -1.653,-16.953 1.617,-0.337 v 2.96 l -1.617,-0.313 h -7.65 l -1.617,0.313 v -2.96 l 1.617,0.337 z m 0,-5.284 1.617,-0.333 v 2.981 L 166.426,751 h -7.65 l -1.617,0.338 v -2.981 l 1.617,0.333 z m 0,-10.451 1.617,-0.339 v 2.987 l -1.617,-0.339 h -7.763 l -1.617,0.339 V 737.9 l 1.617,0.339 z m 1.128,5.245 1.616,-0.339 v 2.982 l -1.616,-0.334 h -10.32 l -1.616,0.334 v -2.982 l 1.616,0.339 z"
       transform="translate(-54.734,-4.937)"
       fill="#222287"
       style="fill:#ffffff" />
    <path
       id="Path_28"
       data-name="Path 28"
       d="m 244.941,737.825 a 1.878,1.878 0 0 0 -1.416,0.641 1.908,1.908 0 0 0 -0.484,1.279 1.947,1.947 0 0 0 0.633,1.467 1.977,1.977 0 0 0 2.757,-0.15 1.955,1.955 0 0 0 0.485,-1.317 1.9,1.9 0 0 0 -0.633,-1.429 1.971,1.971 0 0 0 -1.342,-0.491 z m 0.112,-2.114 a 4.1,4.1 0 0 1 3.976,4.033 4.036,4.036 0 0 1 -7.053,2.713 3.93,3.93 0 0 1 -1.05,-2.713 3.831,3.831 0 0 1 1.351,-2.977 3.9,3.9 0 0 1 2.776,-1.056 z M 236.4,751.165 237.941,750 a 26.83,26.83 0 0 1 5.825,5.418 35.467,35.467 0 0 1 4.434,7.638 l -5.487,2.787 a 65.727,65.727 0 0 0 -3.345,-9.3 45.293,45.293 0 0 0 -2.968,-5.378 z m -2.48,-4.063 v 19.114 a 3.9,3.9 0 0 1 -0.563,2.474 3.5,3.5 0 0 1 -0.823,0.785 4.333,4.333 0 0 1 -2.248,0.45 h -7.4 v -2.505 h 3.795 a 1.741,1.741 0 0 0 1.991,-1.994 V 747.1 H 217.55 l -2.067,0.375 v -3.256 l 2.067,0.376 h 11.123 v -4.472 l -0.413,-2.856 5.435,0.3 a 1.2,1.2 0 0 1 0.86,0.375 0.849,0.849 0 0 1 0.225,0.565 q 0,0.526 -0.86,1.2 v 4.893 h 10.372 l 2.068,-0.376 v 3.256 l -2.068,-0.375 z m -18.963,18.549 -1.24,-1.58 a 33.524,33.524 0 0 0 3.795,-6.058 53.215,53.215 0 0 0 2.444,-6.021 l 0.488,-2.368 4.976,1.617 q 0.866,0.263 0.866,0.867 0,0.674 -1.144,1.089 a 29.612,29.612 0 0 1 -4.4,7.449 22.383,22.383 0 0 1 -5.785,5.005 z"
       transform="translate(-76.045,-4.135)"
       fill="#222287"
       style="fill:#ffffff" />
    <path
       id="Path_29"
       data-name="Path 29"
       d="m 288.329,762.01 -4.659,1.617 a 31.245,31.245 0 0 0 -2.932,-9.772 l 1.165,-0.864 a 18.743,18.743 0 0 1 3.833,3.645 19.531,19.531 0 0 1 2.593,5.374 z m -10.11,14.469 -0.713,-1.953 a 20.617,20.617 0 0 0 9.47,-5.751 21.779,21.779 0 0 0 4.171,-7.818 53.05,53.05 0 0 0 1.316,-5.524 v -1.991 l 5.237,1.058 c 0.678,0.149 1.016,0.413 1.016,0.789 q 0,0.449 -0.912,0.826 a 53.193,53.193 0 0 1 -1.541,6.312 21.815,21.815 0 0 1 -3.607,6.878 q -4.74,5.746 -14.437,7.174 z m 2.706,-13.492 -4.736,1.69 a 39.538,39.538 0 0 0 -3.006,-9.92 l 1.091,-0.752 a 17.575,17.575 0 0 1 3.945,3.646 21.007,21.007 0 0 1 2.707,5.336 z"
       transform="translate(-97.857,-10.473)"
       fill="#222287"
       style="fill:#ffffff" />
    <path
       id="Path_30"
       data-name="Path 30"
       d="m 342.3,737.825 a 1.9,1.9 0 0 0 -1.9,1.9 1.9,1.9 0 0 0 1.938,1.937 1.873,1.873 0 0 0 1.413,-0.634 1.92,1.92 0 0 0 0.484,-1.3 1.879,1.879 0 0 0 -0.631,-1.415 1.938,1.938 0 0 0 -1.304,-0.488 z m 0.074,-2.114 a 4.086,4.086 0 0 1 3.975,4.013 3.852,3.852 0 0 1 -1.349,3 3.769,3.769 0 0 1 -2.662,1.05 4.087,4.087 0 0 1 -4.052,-4.052 3.805,3.805 0 0 1 1.351,-2.961 3.864,3.864 0 0 1 2.734,-1.05 z M 317,769.066 l -0.9,-2.145 a 35.482,35.482 0 0 0 7.779,-4.208 27.666,27.666 0 0 0 9.321,-12.589 40.182,40.182 0 0 0 1.84,-6.39 h -19.73 l -2.066,0.377 v -3.256 l 2.066,0.375 h 22.362 a 3.465,3.465 0 0 0 1.278,2.245 3.065,3.065 0 0 0 2.179,0.862 q -1.8,10.635 -8.268,17.1 a 22.052,22.052 0 0 1 -5,3.685 50.053,50.053 0 0 1 -10.861,3.944 z"
       transform="translate(-112.551,-4.135)"
       fill="#222287"
       style="fill:#ffffff" />
    <path
       id="Path_31"
       data-name="Path 31"
       d="m 385.344,757.374 a 41.552,41.552 0 0 1 3.983,2.217 49.532,49.532 0 0 1 8.981,7.29 l -5.336,4.248 a 71.065,71.065 0 0 0 -4.848,-7.217 55.9,55.9 0 0 0 -4.134,-4.81 34.51,34.51 0 0 1 -7.854,6.914 44.291,44.291 0 0 1 -10.373,4.888 l -0.978,-2.142 a 44.578,44.578 0 0 0 8.72,-6.015 46.749,46.749 0 0 0 12.59,-18.747 h -16.048 l -2.027,0.375 v -3.255 l 2.027,0.375 h 23 q -0.753,2.366 -1.429,4.2 a 51.691,51.691 0 0 1 -4.811,9.539 q -0.714,1.126 -1.463,2.14 z"
       transform="translate(-131.458,-6.118)"
       fill="#222287"
       style="fill:#ffffff" />
    <path
       id="Path_32"
       data-name="Path 32"
       d="m 100.32703,785.64017 q 0.113,-3.005 0.113,-4.734 v -2.255 h -0.113 q -4.735002,0.3 -8.081002,0.294 -1.54,0 -4.435,-0.07 l -0.226,-2.1 q 2.632,-0.15 8.72,-0.976 3.346,-0.451 6.655002,-1.164 2.18,-0.488 6.88,-1.691 l 1.955,-0.94 2.525,2.749 a 3.52,3.52 0 0 1 1.13,1.884 0.871,0.871 0 0 1 -0.264,0.639 0.72,0.72 0 0 1 -0.527,0.188 5.568,5.568 0 0 1 -1.322,-0.274 q -4.1,0.678 -7.332,1.016 v 2.706 q 0,3.194 -0.112,4.734 h 10.752 l 2.065,-0.375 v 3.255 l -2.065,-0.374 h -10.9 v 0.112 a 21.3,21.3 0 0 1 -1.73,7.7 13.856,13.856 0 0 1 -4.360002,5.036 21.659,21.659 0 0 1 -6.053,2.931 38.207,38.207 0 0 1 -5.487,1.354 l -0.6,-1.955 q 6.352,-2.328 9.358,-5.865 a 13.712,13.712 0 0 0 2.895,-6.5 q 0.225,-1.277 0.376002,-2.705 v -0.112 H 87.474028 l -2.068,0.374 v -3.255 l 2.068,0.375 z"
       fill="#222287"
       style="fill:#ffffff" />
    <path
       id="Path_33"
       data-name="Path 33"
       d="m 134.09503,789.04117 2.293,16.047 -5.036,0.6 -2.255,-16.01 -5.073,0.6 -1.84,0.6 -0.376,-3.2 1.953,0.151 5,-0.6 -0.639,-4.321 -0.414,-2.255 5.162,-0.112 a 0.9,0.9 0 0 1 0.718,0.263 0.715,0.715 0 0 1 0.187,0.451 q 0,0.413 -0.655,0.977 l 0.637,4.395 14.582,-1.728 a 15.733,15.733 0 0 1 -1.051,3.495 15.892,15.892 0 0 1 -3.2,4.546 19.381,19.381 0 0 1 -5.976,4.021 l -1.24,-1.577 a 20.785,20.785 0 0 0 2.706,-3.271 18.383,18.383 0 0 0 1.915,-3.946 z"
       fill="#222287"
       style="fill:#ffffff" />
    <path
       id="Path_34"
       data-name="Path 34"
       d="m 154.90803,803.09617 c -0.3,0.679 -0.686,1.02 -1.163,1.02 -0.477,0 -0.852,-0.339 -1.128,-1.015 l -2.1,-5.005 0.978,-0.037 a 50.1,50.1 0 0 0 10.521,-3.044 34.26,34.26 0 0 0 12.74,-9.433 43.828,43.828 0 0 0 4.323,-6.426 l 1.842,0.752 a 28.974,28.974 0 0 1 -7.855,14.391 33.458,33.458 0 0 1 -12.364,7.105 q -2.334,0.792 -5.794,1.692 z m -3.982,-29.386 q 8.793,1.277 13.416,5.712 l -4.66,5.11 a 38.647,38.647 0 0 0 -4.811,-5.411 41.448,41.448 0 0 0 -4.773,-3.646 z"
       fill="#222287"
       style="fill:#ffffff" />
    <path
       id="Path_35"
       data-name="Path 35"
       d="m 200.10903,790.63417 v 14.775 h -5.558 v -12.519 a 47.318,47.318 0 0 1 -13.379,5.037 l -0.64,-1.991 a 54.821,54.821 0 0 0 10.181,-5.525 62.536,62.536 0 0 0 10.973,-9.625 h -15.627 l -2.031,0.376 v -3.256 l 2.031,0.376 h 8.492 v -3.534 l -0.414,-2.856 5.745,0.3 a 1.216,1.216 0 0 1 0.864,0.375 0.859,0.859 0 0 1 0.225,0.564 q 0,0.526 -0.862,1.2 v 3.945 h 10.709 a 67.677,67.677 0 0 1 -4.62,5.518 58.964,58.964 0 0 1 -5.336,4.807 46.985,46.985 0 0 1 5.224,1.729 26.963,26.963 0 0 1 7.966,4.736 l -3.831,4.473 q -1.769,-1.993 -3.16,-3.421 a 39.09,39.09 0 0 0 -6.952,-5.484 z"
       fill="#222287"
       style="fill:#ffffff" />
    <path
       id="Path_36"
       data-name="Path 36"
       d="m 230.84303,804.83117 v -29.05 l -0.416,-2.818 5.158,0.262 a 1.145,1.145 0 0 1 0.865,0.414 0.719,0.719 0 0 1 0.225,0.526 c 0,0.351 -0.289,0.752 -0.861,1.2 v 21.985 a 19.847,19.847 0 0 0 7.179,-6.652 30.944,30.944 0 0 0 3.344,-6.69 l 2.029,0.79 q -1.469,7.966 -5.114,12.588 a 19.485,19.485 0 0 1 -12.409,7.445 z m -17.66,-1.359 a 36.026,36.026 0 0 0 3.609,-4.435 23.391,23.391 0 0 0 3.268,-9.621 62.113,62.113 0 0 0 0.491,-8.079 v -4.206 l -0.414,-2.855 5.316,0.3 a 1.205,1.205 0 0 1 0.861,0.377 0.726,0.726 0 0 1 0.226,0.525 c 0,0.377 -0.289,0.79 -0.862,1.241 v 4.322 q -0.151,10.557 -2.512,15.107 a 22.772,22.772 0 0 1 -8.7,8.982 z"
       fill="#222287"
       style="fill:#ffffff" />
    <g
       id="Group_20"
       data-name="Group 20"
       transform="translate(114.275,731.694)"
       style="fill:#ffffff">
      <path
         id="Path_37"
         data-name="Path 37"
         d="m 193.967,749.5 a 25.754,25.754 0 0 0 -2.34,-2.583 23.152,23.152 0 0 0 -2.545,-2.033 l -1.439,1.269 a 58.626,58.626 0 0 1 3.618,6.081 z"
         transform="translate(-180.756,-739.193)"
         fill="#222287"
         style="fill:#ffffff" />
      <path
         id="Path_38"
         data-name="Path 38"
         d="m 182.348,748.6 a 22.884,22.884 0 0 0 -2.544,-2.032 l -1.44,1.269 a 58.792,58.792 0 0 1 3.619,6.079 l 2.705,-2.733 a 25.752,25.752 0 0 0 -2.34,-2.583 z"
         transform="translate(-177.353,-739.812)"
         fill="#222287"
         style="fill:#ffffff" />
      <path
         id="Path_39"
         data-name="Path 39"
         d="m 197.2,758.675 h -7.329 v -3.222 h 5.13 l 1.616,0.343 V 753 l -1.616,0.343 h -3.484 c 0.74,-0.721 1.346,-1.354 1.8,-1.893 a 37.69,37.69 0 0 0 2.74,-4.118 q 0.774,-0.1 0.842,-0.486 0.057,-0.322 -0.6,-0.678 l -3.113,-1.636 a 76.469,76.469 0 0 1 -3.186,8.19 l 0.959,0.617 H 179.4 L 177.781,753 v 2.8 l 1.616,-0.343 h 5.82 v 3.222 h -6.835 l -1.615,-0.314 v 2.772 l 1.615,-0.345 h 6.835 v 8.677 h -3.4 v -7.193 H 177.65 V 773.7 h 4.167 v -2.124 H 192.6 v 2.124 h 4.166 V 762.272 H 192.6 v 7.193 h -2.727 v -8.677 h 7.327 l 1.617,0.345 v -2.772 z"
         transform="translate(-176.766,-739.064)"
         fill="#222287"
         style="fill:#ffffff" />
      <path
         id="Path_40"
         data-name="Path 40"
         d="m 181.311,740.711 q 2.317,0 5.6,-0.206 h 0.077 l 3.854,-0.313 q 2.237,-0.233 5.076,-0.7 a 3.871,3.871 0 0 0 0.915,0.189 0.5,0.5 0 0 0 0.367,-0.13 0.606,0.606 0 0 0 0.182,-0.443 2.434,2.434 0 0 0 -0.784,-1.306 l -1.748,-1.9 -1.354,0.652 q -3.253,0.832 -4.763,1.171 -2.293,0.495 -4.608,0.806 -4.219,0.573 -6.04,0.676 l 0.156,1.458 q 2.004,0.047 3.07,0.046 z"
         transform="translate(-177.249,-735.898)"
         fill="#222287"
         style="fill:#ffffff" />
    </g>
  </g>
</svg>
