<?xml version="1.0" encoding="UTF-8" standalone="no"?>
<!-- Created with Inkscape (http://www.inkscape.org/) -->

<svg
   version="1.1"
   id="svg1"
   width="1797.7128"
   height="756.12219"
   viewBox="0 0 1797.7128 756.12219"
   xmlns="http://www.w3.org/2000/svg"
   xmlns:svg="http://www.w3.org/2000/svg">
  <defs
     id="defs1" />
  <g
     id="g1"
     transform="translate(-79.59339,-124.77349)">
    <path
       style="fill:#990099;fill-opacity:1;stroke-width:2.7446"
       d="m 749.56016,321.76386 c -3.61738,-1.86466 -19.67329,-23.08304 -35.6798,-47.15196 -16.0065,-24.06892 -30.13517,-43.83003 -31.39705,-43.91359 -1.26188,-0.0836 -7.79527,17.75658 -14.51865,39.64476 -14.08525,45.85504 -18.65336,52.1474 -37.8578,52.1474 -9.13803,0 -13.47943,-1.65603 -19.11475,-7.29136 -13.89675,-13.89675 -13.906,-13.8299 15.89044,-114.84333 15.54367,-52.69484 18.8829,-61.34199 26.23177,-67.92884 10.19652,-9.13923 23.71923,-9.97582 33.74723,-2.0878 3.8176,3.00293 19.58399,24.61665 35.03643,48.0305 15.45244,23.41385 28.86019,42.55737 29.795,42.54115 0.93481,-0.0162 7.11394,-18.57152 13.73142,-41.23401 10.0695,-34.48449 13.34906,-42.31296 20.10892,-48.00101 18.34027,-15.43231 46.0804,-3.13881 46.0804,20.42131 0,9.75639 -38.55741,149.40687 -44.12178,159.80399 -3.36429,6.28624 -16.66617,13.34724 -25.04306,13.29354 -3.47141,-0.0222 -9.27133,-1.56609 -12.88872,-3.43075 z"
       id="path2" />
    <path
       style="fill:#990099;fill-opacity:1;stroke-width:2.7446"
       d="m 860.50866,316.25453 c -6.48819,-6.48818 -9.70227,-12.26343 -9.74195,-17.50485 -0.0326,-4.30216 9.53923,-41.68309 21.27065,-83.06873 24.32258,-85.80423 27.00302,-90.80166 48.70266,-90.80166 10.13483,0 13.0914,1.40788 20.37337,9.7016 10.02354,11.41617 10.49072,17.72555 3.2002,43.21915 l -5.31791,18.59578 35.83886,-0.76462 35.83886,-0.76462 7.997,-27.446 c 9.6088,-32.97785 17.5916,-42.54129 35.5103,-42.54129 8.6601,0 12.9357,1.78947 19.1689,8.02267 7.9197,7.91972 9.0779,11.45363 8.1648,24.91253 -0.5587,8.2336 -37.0837,136.60213 -42.6762,149.98677 -7.2337,17.31262 -32.0444,21.95241 -44.7656,8.37149 -10.59498,-11.31106 -11.73065,-19.05523 -5.88691,-40.14306 2.94768,-10.63707 5.35942,-19.9733 5.35942,-20.74717 0,-0.77388 -15.97268,-1.40704 -35.49485,-1.40704 -31.44474,0 -35.65363,0.54804 -36.88646,4.80305 -16.57982,57.22375 -20.15136,63.12477 -39.80087,65.76032 -10.05696,1.34892 -12.13757,0.53238 -20.85427,-8.18432 z"
       id="path3" />
    <path
       style="fill:#990099;fill-opacity:1;stroke-width:2.7446"
       d="m 1118.1173,322.54517 c -3.1879,-1.28807 -8.5572,-5.8413 -11.9318,-10.11828 -4.8585,-6.15783 -5.823,-10.06126 -4.6339,-18.75472 2.3071,-16.86721 39.8642,-146.78975 44.8946,-155.30558 8.6949,-14.71927 30.5655,-18.22242 42.826,-6.85973 10.1921,9.44574 11.6531,18.84367 6.3587,40.90377 -2.526,10.52473 -4.1812,19.5473 -3.6784,20.05017 0.5029,0.50286 21.6716,-14.49726 47.0416,-33.33361 40.0721,-29.7521 47.4982,-34.2479 56.5708,-34.2479 12.2855,0 25.7661,9.85423 28.5266,20.85275 3.8709,15.42296 -2.455,23.93991 -38.854,52.3115 -19.0613,14.8575 -35.8914,27.8368 -37.4003,28.84288 -1.5208,1.01401 7.9219,13.44808 21.188,27.90018 13.5103,14.71821 25.0412,29.94065 26.48,34.9575 6.0832,21.21059 -18.2233,42.03815 -39.5217,33.86517 -2.3302,-0.89418 -20.5291,-19.11146 -40.442,-40.48284 -19.9128,-21.37138 -37.0096,-39.18833 -37.9929,-39.59321 -0.9832,-0.4049 -5.9751,13.79841 -11.0931,31.56289 -12.8017,44.43425 -25.3396,56.74155 -48.3382,47.44906 z"
       id="path4" />
    <path
       style="fill:#990099;fill-opacity:1;stroke-width:2.7446"
       d="M 79.593393,670.10348 V 467.95426 l 94.002537,0.0847 c 100.50162,0.0906 124.01291,1.81996 148.30409,10.90846 19.41799,7.2652 41.24486,26.66813 50.59442,44.97578 9.6633,18.92195 11.71467,49.56887 4.79131,71.5801 -6.08286,19.3389 -24.22727,40.24619 -43.32752,49.92502 l -13.82426,7.00528 18.97734,9.38365 c 44.31023,21.9099 63.14977,58.17673 56.37429,108.52261 -6.299,46.80525 -33.59613,78.64072 -79.85663,93.13341 -16.25487,5.09239 -27.53295,5.73067 -126.93774,7.18418 L 79.593393,872.25271 Z M 298.04893,806.38786 c 14.9901,-8.02126 27.80001,-23.08173 30.43564,-35.7828 6.01599,-28.99104 -1.54186,-57.39508 -18.48144,-69.45712 -16.64643,-11.85331 -29.53777,-13.6257 -99.10515,-13.6257 h -65.43419 v 63.33078 63.33079 l 70.67344,-0.89114 c 66.55551,-0.83922 71.32826,-1.24155 81.9117,-6.90481 z M 287.15872,624.09232 c 22.03679,-11.34021 31.70901,-32.78446 27.09774,-60.07833 -2.254,-13.3413 -15.05802,-29.30718 -27.75914,-34.61405 -5.80296,-2.42463 -30.33401,-4.2311 -74.83322,-5.51072 l -66.20031,-1.90367 v 55.66785 55.66785 l 64.15999,-1.17306 c 61.95488,-1.13275 64.61968,-1.40962 77.53494,-8.05587 z"
       id="path5" />
    <path
       style="fill:#990099;fill-opacity:1;stroke-width:2.7446"
       d="M 581.33419,879.61123 C 505.84262,870.4587 461.14628,829.8829 450.6121,760.94028 l -2.41135,-15.78145 h 32.29227 32.29228 l 2.96249,13.81365 c 10.27948,47.93156 51.10112,72.39996 112.84434,67.63869 52.00428,-4.0103 79.87789,-28.93017 76.11873,-68.05252 -3.08612,-32.11789 -20.23406,-42.37701 -106.70273,-63.83724 -36.69951,-9.10826 -66.10473,-18.06158 -77.10487,-23.47693 -22.31716,-10.9867 -42.01952,-30.03883 -51.28521,-49.59264 -6.29782,-13.29059 -7.15299,-18.54754 -7.15299,-43.9713 0,-27.11583 0.55157,-29.99642 9.04859,-47.25631 15.62436,-31.73759 39.17791,-50.86771 77.4063,-62.86916 17.54359,-5.50765 26.26086,-6.458 59.00889,-6.43314 32.46395,0.0246 41.6175,1.02111 59.0089,6.42377 29.12141,9.0466 44.92395,18.38619 61.6172,36.41689 15.83529,17.10402 24.61768,32.99315 30.54703,55.26588 7.39261,27.76923 8.44618,26.74358 -27.47138,26.74358 h -31.36815 l -4.23976,-14.58426 c -11.60924,-39.9344 -43.52838,-58.63588 -96.03803,-56.26886 -30.62281,1.3804 -51.59163,9.82149 -63.64091,25.61892 -6.47955,8.49512 -8.03144,13.53048 -8.7725,28.46372 -1.72483,34.75707 12.6697,46.14812 77.93014,61.66968 93.24477,22.17736 113.31583,29.98756 136.9552,53.293 33.11697,32.64917 40.13102,83.28754 17.81514,128.61751 -14.75357,29.96878 -46.60649,52.5284 -87.84478,62.21555 -22.42739,5.26834 -67.05192,7.5286 -91.09275,4.61392 z"
       id="path6" />
    <path
       style="fill:#990099;fill-opacity:1;stroke-width:2.7446"
       d="M 842.59212,669.68234 V 467.95426 l 85.76874,0.0544 c 47.17281,0.0299 94.00934,1.24633 104.08114,2.70318 49.6387,7.18003 82.5021,30.89384 98.8746,71.34665 5.1854,12.81194 6.1095,20.28475 6.1095,49.40279 0,38.74613 -4.1632,53.55089 -21.7979,77.51501 -26.8963,36.5498 -68.7311,48.57275 -169.42744,48.69192 l -37.73824,0.0447 v 76.8488 76.84879 h -32.9352 -32.9352 z m 192.70598,-16.21482 c 25.9379,-11.09281 38.2599,-31.2836 38.1611,-62.5309 -0.1039,-32.88381 -13.782,-52.74631 -42.118,-61.16119 -10.5565,-3.13494 -27.7349,-4.18458 -68.48484,-4.18458 h -54.39384 v 67.64609 67.64609 l 58.32274,-1.52878 c 44.48664,-1.1661 60.74014,-2.56263 68.51284,-5.88673 z"
       id="path7" />
    <path
       style="fill:#990099;fill-opacity:1;stroke-width:2.7446"
       d="m 1347.5985,826.12452 v -45.28589 h -93.3164 -93.3164 v -32.49184 -32.49184 l 94.8944,-123.95035 94.8944,-123.95034 h 31.3572 31.3572 v 128.99618 128.99619 h 31.5629 31.5629 v 27.446 27.446 h -31.5629 -31.5629 v 45.28589 45.2859 h -32.9352 -32.9352 z m 0,-178.237 c 0,-42.93252 -1.0693,-78.71997 -2.3762,-79.52767 -2.1311,-1.31713 -118.2576,147.59476 -120.6154,154.66819 -0.6681,2.00428 18.4443,2.91859 61.0094,2.91859 h 61.9822 z"
       id="path8" />
    <path
       style="fill:#990099;fill-opacity:1;stroke-width:2.7446"
       d="M 1536.9759,669.68234 V 467.95426 h 32.9352 32.9352 v 87.82719 c 0,48.30495 0.6229,87.82719 1.3843,87.82719 0.7613,0 40.4509,-39.52224 88.1989,-87.82719 l 86.8146,-87.82719 h 42.7935 42.7936 l -80.6088,80.7792 -80.6088,80.7792 10.4627,14.59564 c 5.7545,8.0276 44.8353,61.73526 86.8463,119.35034 42.011,57.61511 76.3836,105.50708 76.3836,106.42663 0,0.91953 -18.1719,1.33012 -40.382,0.91236 l -40.382,-0.75951 -68.7158,-96.61224 c -37.7937,-53.13672 -69.9753,-96.67293 -71.5147,-96.74713 -1.5393,-0.0742 -14.1988,11.31269 -28.1321,25.3042 l -25.3333,25.43912 v 71.99418 71.99417 h -32.9352 -32.9352 z"
       id="path9" />
  </g>
</svg>
