<?xml version="1.0" encoding="UTF-8" standalone="no"?>
<svg
   version="1.1"
   id="svg9551"
   viewBox="0 0 298 369.6929"
   height="369.6929"
   width="298"
   xmlns="http://www.w3.org/2000/svg"
   xmlns:svg="http://www.w3.org/2000/svg"
   xmlns:rdf="http://www.w3.org/1999/02/22-rdf-syntax-ns#"
   xmlns:cc="http://creativecommons.org/ns#"
   xmlns:dc="http://purl.org/dc/elements/1.1/">
  <defs
     id="defs9553">
    <clipPath
       id="clipPath7985"
       clipPathUnits="userSpaceOnUse">
      <path
         id="path7987"
         d="m 313.473,245.556 h 38.435 v 47.68 h -38.435 z" />
    </clipPath>
  </defs>
  <metadata
     id="metadata9556">
    <rdf:RDF>
      <cc:Work
         rdf:about="">
        <dc:format>image/svg+xml</dc:format>
        <dc:type
           rdf:resource="http://purl.org/dc/dcmitype/StillImage" />
        <dc:title />
      </cc:Work>
    </rdf:RDF>
  </metadata>
  <g
     transform="translate(-258.83522,-23.903265)"
     id="layer1">
    <path
       id="path7977"
       style="fill:#ffffff;fill-opacity:1;fill-rule:nonzero;stroke:none"
       d="m 396.41071,347.26451 h 14.91744 v -9.00163 h -14.91744 z" />
    <path
       id="path7979"
       style="fill:#ffffff;fill-opacity:1;fill-rule:nonzero;stroke:none"
       d="m 396.41071,361.71676 h 14.91744 v -8.99389 h -14.91744 z" />
    <g
       id="g7981"
       transform="matrix(7.7533498,0,0,-7.7533498,-2171.6306,2297.4723)">
      <g
         clip-path="url(#clipPath7985)"
         id="g7983">
        <g
           transform="translate(334.1322,248.4323)"
           id="g7989"
           style="fill:#ffffff">
          <path
             id="path7991"
             style="fill:#ffffff;fill-opacity:1;fill-rule:nonzero;stroke:none"
             d="M 0,0 C 0,-0.765 -0.438,-1.308 -1.28,-1.308 H -2.917 V -2.52 h 1.701 c 1.45,0 2.427,1.083 2.427,2.456 v 4.37 H 0 Z" />
        </g>
        <path
           id="path7993"
           style="fill:#ffffff;fill-opacity:1;fill-rule:nonzero;stroke:none"
           d="m 336.445,248.684 h 3.825 v 1.288 h -3.825 z" />
        <path
           id="path7995"
           style="fill:#ffffff;fill-opacity:1;fill-rule:nonzero;stroke:none"
           d="m 335.614,251.537 h 0.717 v 1.16 h -0.717 z" />
        <path
           id="path7997"
           style="fill:#ffffff;fill-opacity:1;fill-rule:nonzero;stroke:none"
           d="m 336.609,251.537 h 0.716 v 1.16 h -0.716 z" />
        <g
           transform="translate(351.6453,245.9135)"
           id="g7999"
           style="fill:#ffffff">
          <path
             id="path8001"
             style="fill:#ffffff;fill-opacity:1;fill-rule:nonzero;stroke:none"
             d="m 0,0 -1.62,3.751 0.969,1.983 -0.001,1.091 h -4.21 V 5.57 h 2.737 c 0,0 -1.568,-3.352 -1.768,-3.755 -0.199,-0.4 -0.599,-0.642 -1.123,-0.637 L -5.017,0.003 c 1.149,-0.04 1.823,0.398 2.316,1.503 L -2.289,2.434 -1.293,0 Z" />
        </g>
        <path
           id="path8003"
           style="fill:#ffffff;fill-opacity:1;fill-rule:nonzero;stroke:none"
           d="m 344.434,250.398 h -1.514 v 1.083 h 1.514 z m -2.668,2.342 v -2.616 c 0,-0.36 -0.098,-0.526 -0.402,-0.566 v -1.337 c 0.786,0.037 1.233,0.377 1.431,0.969 h 1.635 c -0.023,-0.923 -0.152,-1.23 -0.607,-1.617 -0.442,-0.376 -1.098,-0.486 -1.955,-0.486 h -0.438 v -1.175 h 0.325 c 1.539,0 2.367,0.325 2.965,0.855 0.585,0.517 0.889,1.104 0.889,2.73 v 3.242 z" />
        <g
           transform="translate(329.1339,249.3274)"
           id="g8005"
           style="fill:#ffffff">
          <path
             id="path8007"
             style="fill:#ffffff;fill-opacity:1;fill-rule:nonzero;stroke:none"
             d="m 0,0 c 0,-1.144 -0.709,-2.218 -1.944,-2.218 l -0.05,-10e-4 V 3.41 H -3.25 v -6.825 h 0.855 c 2.583,0 3.568,1.766 3.568,3.415 V 0.086 H 0 Z" />
        </g>
        <g
           transform="translate(317.815,247.6743)"
           id="g8009"
           style="fill:#ffffff">
          <path
             id="path8011"
             style="fill:#ffffff;fill-opacity:1;fill-rule:nonzero;stroke:none"
             d="m 0,0 c -0.121,-0.558 -0.626,-0.942 -1.16,-0.942 h -0.158 c -0.492,0 -0.961,0.329 -1.125,0.814 l 2.52,2.114 V 1.752 1.548 C 0.077,1.131 0.09,0.424 0,0 m -2.477,3.303 c 0.119,0.556 0.625,0.941 1.159,0.941 h 0.158 c 0.494,0 0.962,-0.328 1.124,-0.82 l -2.52,-2.113 c 0,0.085 0,0.164 0,0.237 v 0.204 c 0,0.413 -0.012,1.124 0.079,1.551 m 1.317,2.115 h -0.158 c -1.235,0 -1.97,-0.827 -2.23,-1.593 C -3.746,3.247 -3.743,2.587 -3.743,1.752 V 1.548 c 0,-0.831 -0.003,-1.491 0.195,-2.074 0.26,-0.763 0.995,-1.593 2.23,-1.593 h 0.158 c 1.234,0 1.973,0.83 2.232,1.593 0.197,0.583 0.193,1.243 0.193,2.074 v 0.204 c 0,0.835 0.004,1.495 -0.193,2.073 C 0.813,4.591 0.074,5.418 -1.16,5.418" />
        </g>
        <path
           id="path8013"
           style="fill:#ffffff;fill-opacity:1;fill-rule:nonzero;stroke:none"
           d="m 320.1,251.483 h 4.699 v 1.254 H 320.1 Z" />
        <g
           transform="translate(320.0997,249.2198)"
           id="g8015"
           style="fill:#ffffff">
          <path
             id="path8017"
             style="fill:#ffffff;fill-opacity:1;fill-rule:nonzero;stroke:none"
             d="m 0,0 h 1.761 v -0.822 c 0,-0.767 -0.438,-1.308 -1.28,-1.308 H 0.398 V -3.307 H 0.51 c 1.451,0 2.427,1.08 2.427,2.455 V 0 H 4.699 V 1.252 H 0 Z" />
        </g>
        <path
           id="path8019"
           style="fill:#231f20;fill-opacity:1;fill-rule:nonzero;stroke:none"
           d="m 313.473,254.802 h 38.435 v 38.435 h -38.435 z" />
        <g
           transform="translate(340.9388,261.6817)"
           id="g8021">
          <path
             id="path8023"
             style="fill:#f58220;fill-opacity:1;fill-rule:nonzero;stroke:none"
             d="m 0,0 h -5.314 l -0.315,2.482 c -1.364,-1.608 -3.637,-3.076 -7.588,-3.076 -6.433,0 -12.201,4.16 -12.201,12.936 0,8.042 5.034,13.566 13.181,13.566 6.049,0 10.908,-3.147 11.921,-9.335 h -7.83 c -0.595,2.063 -2.098,3.181 -4.232,3.181 -3.25,0 -4.788,-2.937 -4.788,-7.377 0,-3.566 1.118,-6.818 5.278,-6.818 1.679,0 3.811,1.154 4.231,2.902 h -3.636 v 5.454 H 0 Z" />
        </g>
        <g
           transform="translate(350.5541,271.2965)"
           id="g8025">
          <path
             id="path8027"
             style="fill:#ffffff;fill-opacity:1;fill-rule:nonzero;stroke:none"
             d="M 0,0 H -4.3 V 4.3 H -9.615 V 0 h -4.301 v -5.314 h 4.301 V -9.615 H -4.3 v 4.301 H 0 Z" />
        </g>
      </g>
    </g>
  </g>
</svg>
