<?xml version="1.0" encoding="UTF-8" standalone="no"?>
<svg
   width="199.73601"
   height="80.080986"
   version="1.1"
   id="svg5"
   xmlns="http://www.w3.org/2000/svg"
   xmlns:svg="http://www.w3.org/2000/svg">
  <defs
     id="defs5" />
  <path
     fill="#ffffff"
     d="m 0,23.030982 h 199.66 v 57.05 H 0 Z"
     id="path1" />
  <path
     data-name="シェイプ"
     d="m 0,23.030982 v 57.05 h 199.659 v -30.608 a 108.013,108.013 0 0 0 -18,2.2 v 19.9 h -13.651 l 0.725,-16.009 a 56.818,56.818 0 0 0 -22.646,16.009 h -14.728 a 63.678,63.678 0 0 1 22.394,-15.362 89.571,89.571 0 0 1 21.888,-5.873 l 0.23,-0.033 q 1.116,-0.156 2.245,-0.294 1.8,-0.213 3.527,-0.362 a 0.017,0.017 0 0 0 0.01,0 118.756,118.756 0 0 1 18,-0.175 v -26.443 z m 51.994,48.665 h -6.225 a 3.966,3.966 0 0 1 -3.16,-1.864 l -4.863,-8.921 a 1.5,1.5 0 0 0 -2.517,-0.352 l -9.572,9.627 a 5.915,5.915 0 0 1 -3.645,1.51 h -9.67 c -1.179,0 -1.468,-0.679 -0.642,-1.509 l 25.989,-26.115 c 0.826,-0.829 0.537,-1.509 -0.642,-1.509 H 23.6 a 1.682,1.682 0 0 1 -1.73,-2.075 l 0.39,-1.953 a 2.713,2.713 0 0 1 2.558,-2.076 H 57.1 c 1.179,0 1.467,0.678 0.64,1.507 l -12.724,12.757 a 3.025,3.025 0 0 0 -0.487,3.371 l 8.593,15.742 c 0.558,1.022 0.051,1.86 -1.128,1.86 z m 39.809,-0.29 h -7.237 a 1.609,1.609 0 0 1 -1.654,-2.059 l 5.87,-24.684 a 1.608,1.608 0 0 0 -1.654,-2.056 h -6.163 a 3.675,3.675 0 0 0 -3.047,1.916 l -11.818,25.116 a 3.675,3.675 0 0 1 -3.047,1.92 H 57.59 a 1.251,1.251 0 0 1 -1.241,-1.92 l 11.816,-25.116 a 1.249,1.249 0 0 0 -1.242,-1.916 h -3.635 a 1.683,1.683 0 0 1 -1.73,-2.074 l 0.39,-1.957 a 2.713,2.713 0 0 1 2.558,-2.075 h 5.311 a 3.678,3.678 0 0 0 3.049,-1.918 l 0.591,-1.252 a 3.68,3.68 0 0 1 3.049,-1.918 h 5.464 a 1.249,1.249 0 0 1 1.24,1.918 l -0.591,1.252 a 1.249,1.249 0 0 0 1.239,1.918 H 99.87 a 1.623,1.623 0 0 1 1.667,2.063 l -7.115,30.781 a 2.816,2.816 0 0 1 -2.622,2.061 z m 37.709,-27.529 h 2.361 a 1.688,1.688 0 0 1 1.733,2.078 l -4.644,23.444 a 2.708,2.708 0 0 1 -2.555,2.077 h -8.661 a 1.667,1.667 0 0 1 -1.713,-2.074 l 3.756,-18.06 c 0.237,-1.136 -0.338,-1.493 -1.277,-0.791 l -5.688,4.262 a 7.531,7.531 0 0 1 -3.852,1.277 h -7.212 c -1.179,0 -1.377,-0.576 -0.439,-1.28 l 29.23,-21.969 a 7.51,7.51 0 0 1 3.85,-1.283 h 7.212 c 1.179,0 1.377,0.579 0.439,1.283 l -12.979,9.757 c -0.938,0.704 -0.741,1.279 0.438,1.279 z m 48.472,4.712 q -4.627,0.55 -9,1.469 l 0.419,-9.255 -8.966,11.461 q -3.741,1.163 -7.227,2.624 a 68.813,68.813 0 0 0 -14.46,8.153 l 21.665,-25.455 c 3.737,-4.914 -7.355,-6.154 -7.355,-6.154 h 28.594 -0.015 0.015 v 16.781 q -1.8,0.156 -3.671,0.375 z"
     fill="#e60012"
     id="path2" />
  <text
     fill="#666666"
     font-size="18px"
     font-family="Helvetica"
     id="text5"
     x="5.4980001"
     y="15.281982"><tspan
       x="5.4980001"
       y="15.281982"
       letter-spacing="0.05em"
       id="tspan2"
       style="fill:#ffffff">CSスポーツチャンネル</tspan></text>
</svg>
