<?xml version="1.0" encoding="UTF-8" standalone="no"?>
<svg
   data-name="logo ch1 short copy"
   width="578.74628"
   height="143.67931"
   viewBox="0 0 578.74628 143.67931"
   version="1.1"
   id="svg398"
   sodipodi:docname="logo_ch1_short_copy.svg"
   inkscape:version="1.2 (dc2aedaf03, 2022-05-15)"
   xmlns:inkscape="http://www.inkscape.org/namespaces/inkscape"
   xmlns:sodipodi="http://sodipodi.sourceforge.net/DTD/sodipodi-0.dtd"
   xmlns="http://www.w3.org/2000/svg"
   xmlns:svg="http://www.w3.org/2000/svg">
  <defs
     id="defs402" />
  <sodipodi:namedview
     id="namedview400"
     pagecolor="#505050"
     bordercolor="#eeeeee"
     borderopacity="1"
     inkscape:showpageshadow="0"
     inkscape:pageopacity="0"
     inkscape:pagecheckerboard="0"
     inkscape:deskcolor="#505050"
     showgrid="false"
     inkscape:zoom="1.41"
     inkscape:cx="289.3617"
     inkscape:cy="71.631206"
     inkscape:window-width="1920"
     inkscape:window-height="991"
     inkscape:window-x="-9"
     inkscape:window-y="-9"
     inkscape:window-maximized="1"
     inkscape:current-layer="svg398" />
  <g
     id="g1100"
     transform="matrix(1.829281,0,0,1.829281,14.980988,-4.990149)">
    <path
       data-name="パス 63825"
       d="m 101.208,18.269 c 1.734,-0.183 6.027,-0.823 7.815,-1.1 v 5.607 H 96.967 v 4.313 H 109 c -0.141,4.944 -2.842,8.643 -7.73,11.051 l 2.13,4.19 c 6.563,-3.137 10.215,-8.344 10.358,-15.242 h 10.707 v -4.315 h -10.626 v -6.648 c 1.01,-0.272 5.508,-1.523 7.13,-2.166 l -0.817,-4.254 c -4.951,1.874 -13.621,3.544 -19.528,4.253 z"
       fill="#0050ff"
       id="path350" />
    <path
       data-name="パス 63826"
       d="m 199.822,26.871 c 1.319,-1.238 6.615,-6.473 7.87,-11.907 l 0.082,-0.354 H 198.42 V 9.8 h -4.313 v 4.81 h -8.994 v 4.313 h 15.945 c -1.35,2.026 -6.5,8.455 -18.493,14.376 l 2.259,3.667 a 78.075,78.075 0 0 0 9.284,-5.33 v 10.6 h 4.313 V 30.928 a 86.913,86.913 0 0 1 8.916,5.853 l 2.444,-3.548 c -2.322,-1.752 -8.485,-5.492 -9.959,-6.362 z"
       fill="#0050ff"
       id="path352" />
    <path
       data-name="パス 63827"
       d="m 239.013,27.354 a 33.659,33.659 0 0 1 -7.328,7.177 v -23.72 h -4.313 V 42.267 A 33.358,33.358 0 0 0 242.254,30.19 Z"
       fill="#0050ff"
       id="path354" />
    <path
       data-name="パス 63828"
       d="m 218.747,23.031 c 0,5.462 -0.725,10.944 -6.586,15.641 l 3.174,3.532 c 5.177,-4.588 7.724,-10.572 7.724,-18.971 V 10.811 h -4.313 z"
       fill="#0050ff"
       id="path356" />
    <path
       data-name="パス 63829"
       d="m 176.89,19.178 c -4.6,8.726 -12.45,15.813 -20.886,18.84 l 2.058,4.221 c 9.274,-3.786 18.369,-12.233 22.605,-20.981 z"
       fill="#0050ff"
       id="path358" />
    <path
       data-name="パス 63830"
       d="m 165.082,19.368 1.74,-3.947 c -2.258,-1.3 -6.439,-3.349 -9.391,-4.61 l -1.654,3.992 c 2.63,1.128 6.61,3.082 9.305,4.565 z"
       fill="#0050ff"
       id="path360" />
    <path
       data-name="パス 63831"
       d="m 137.614,16.559 -4.21,0.935 1.215,6.253 -5.757,1.2 0.935,4.213 5.641,-1.193 2.77,14.235 4.211,-0.936 -2.758,-14.19 6.877,-1.453 a 26.05,26.05 0 0 1 -2.938,5.854 l 3.777,2.073 c 3.429,-5.3 4.606,-12.952 4.616,-13.026 l 0.053,-0.4 -13.2,2.748 z"
       fill="#0050ff"
       id="path362" />
    <path
       data-name="長方形 4734"
       fill="#0050ff"
       d="m 254.212,6.375 h 39.287 v 39.287 h -39.287 z"
       id="path364" />
    <path
       data-name="パス 63832"
       d="m 272.222,17.722 h -3.709 l 1.613,-3.539 h 6.654 v 23.1 h -4.558 z"
       fill="#ffffff"
       id="path366" />
    <path
       data-name="パス 63833"
       d="m 57.595,32.802 a 10.235,10.235 0 0 0 -2.931,-7.19 l -0.032,-0.033 0.029,-0.035 A 10.068,10.068 0 0 0 46.986,8.968 h -11.4 v 34.151 h 11.709 a 10.326,10.326 0 0 0 10.3,-10.317 z M 42.086,15.343 h 4.895 a 3.676,3.676 0 0 1 0,7.352 H 42.086 Z M 42.069,36.89 v -8.033 h 5.2 a 4.017,4.017 0 0 1 0,8.033 z"
       fill="#0050ff"
       id="path368" />
    <path
       data-name="パス 63834"
       d="m 29.605,8.968 h -23.1 v 6.546 h 8.1 v 28.593 l 6.913,-2.992 v -25.6 h 8.1 z"
       fill="#0050ff"
       id="path370" />
    <path
       data-name="パス 63835"
       d="M 78.097,33.429 A 3.848,3.848 0 0 1 74.03,37.14 c -2.4,0 -4.055,-1.188 -5.053,-3.632 l -0.079,-0.195 -6.34,2.744 0.07,0.184 c 1.812,4.75 5.751,7.366 11.091,7.366 a 11.286,11.286 0 0 0 8.4,-3.358 10.051,10.051 0 0 0 2.892,-6.877 8.91,8.91 0 0 0 -3.6,-7.234 18.817,18.817 0 0 0 -6.5,-3.128 c -3.344,-0.968 -4.8,-2.29 -4.8,-4.753 a 3.476,3.476 0 0 1 3.636,-3.194 4.706,4.706 0 0 1 4.321,3.154 l 6.04,-2.6 c -1.268,-3.255 -4,-6.844 -10.389,-6.844 a 10.821,10.821 0 0 0 -7.618,2.783 9.148,9.148 0 0 0 -2.843,6.726 9.751,9.751 0 0 0 2.748,6.713 c 1.272,1.361 3.7,2.86 7.5,4.055 2.258,0.731 4.591,1.488 4.591,4.379 z"
       fill="#0050ff"
       id="path372" />
    <path
       data-name="長方形 4735"
       fill="#0050ff"
       d="M 6.501,52.037 H 293.499 V 77.625 H 6.501 Z"
       id="path374" />
    <path
       data-name="パス 63836"
       d="m 76.014,62.314 v 1.687 h -8.357 v 7.877 a 8.341,8.341 0 0 0 2.664,-1.648 11.332,11.332 0 0 1 -1.859,-3.1 l 1.629,-0.613 h -1.936 v -1.725 h 5.348 l 1.476,0.288 a 12.216,12.216 0 0 1 -2.051,5.079 10.784,10.784 0 0 0 3.143,1.667 l -1.246,1.629 a 11.857,11.857 0 0 1 -3.163,-1.9 10.921,10.921 0 0 1 -2.933,1.916 l -1.073,-1.207 v 1.188 H 65.528 V 71.17 c -1.725,0.268 -3.814,0.575 -5.156,0.767 l -0.4,-1.84 c 0.441,-0.019 1.016,-0.077 1.648,-0.115 v -5.98 h -1.591 v -1.687 z m -1.879,-6.363 v 5.635 H 61.943 v -5.635 z m -8.606,8.05 h -1.821 v 0.92 h 1.821 z m 0,2.338 h -1.821 v 0.939 h 1.821 z m 0,2.376 h -1.821 v 1.074 c 0.613,-0.058 1.246,-0.134 1.821,-0.192 z M 64.111,58.154 h 7.763 V 57.37 h -7.763 z m 0,2.012 h 7.763 v -0.805 h -7.763 z m 6.076,6.345 a 8.787,8.787 0 0 0 1.356,2.282 9.211,9.211 0 0 0 1.035,-2.281 z"
       fill="#ffffff"
       id="path376" />
    <path
       data-name="パス 63837"
       d="m 83.123,55.53 v 1.84 h 2.645 v 1.783 h -0.652 a 72.26,72.26 0 0 1 -0.671,2.415 h 1.437 v 1.821 h -2.76 v 1.422 h 2.664 v 1.821 h -2.664 v 0.058 c 0.9,0.824 1.917,1.783 2.492,2.4 l -1.188,1.668 c -0.326,-0.5 -0.8,-1.15 -1.3,-1.821 V 73.46 H 80.96 v -3.68 a 14.365,14.365 0 0 1 -1.821,2.357 l -1.38,-1.667 a 11.685,11.685 0 0 0 3.067,-3.833 h -2.7 v -1.826 h 2.837 V 63.392 H 78.03 v -1.821 h 1.5 a 16.148,16.148 0 0 0 -0.383,-2.415 h -0.862 v -1.783 h 2.683 v -1.84 z m -0.537,6.038 c 0.192,-0.825 0.345,-1.687 0.461,-2.415 H 81.03 a 14.9,14.9 0 0 1 0.345,2.415 z m 11.156,-4.332 a 21.6,21.6 0 0 1 -5.1,2.051 v 2.415 h 5.388 v 2.031 H 92.458 V 73.47 H 90.23 v -9.737 h -1.591 v 1.438 c 0,3.124 -0.536,6 -2.549,8.28 l -1.974,-1.265 c 1.878,-1.993 2.319,-4.274 2.319,-7.015 v -7.552 h 0.69 a 17.729,17.729 0 0 0 5.309,-2.07 z"
       fill="#ffffff"
       id="path378" />
    <path
       data-name="パス 63838"
       d="m 97.842,56.22 h 2.473 v 5.367 a 57.756,57.756 0 0 1 7.379,4.638 l -1.629,2.032 a 38.052,38.052 0 0 0 -5.75,-3.949 v 8.568 h -2.473 z m 5.827,2.147 a 12.547,12.547 0 0 1 1.457,2.2 l -1.112,0.709 a 11.462,11.462 0 0 0 -1.4,-2.223 z m 1.917,-1.188 a 14.785,14.785 0 0 1 1.515,2.185 l -1.112,0.748 a 10.76,10.76 0 0 0 -1.437,-2.185 z"
       fill="#ffffff"
       id="path380" />
    <path
       data-name="パス 63839"
       d="m 121.895,61.433 1.706,1.073 c -1.246,5.214 -4.1,8.529 -8.414,10.388 l -1.551,-2.071 c 3.872,-1.418 6.229,-4.025 6.939,-7.169 h -9.969 v -2.221 z m 0.1,-4.332 v 2.2 h -9.659 v -2.2 z"
       fill="#ffffff"
       id="path382" />
    <path
       data-name="パス 63840"
       d="m 139.95,58.06 1.9,1.265 a 66.071,66.071 0 0 1 -6.421,8.951 42.915,42.915 0 0 1 2.243,2.875 l -2.089,1.571 a 41.426,41.426 0 0 0 -6.5,-7.8 l 1.725,-1.533 a 41.416,41.416 0 0 1 3.028,3.047 38.151,38.151 0 0 0 4.313,-6.095 H 127.45 V 58.06 Z"
       fill="#ffffff"
       id="path384" />
    <path
       data-name="パス 63841"
       d="m 146.81,64.5 a 1.754,1.754 0 1 1 1.764,1.744 1.754,1.754 0 0 1 -1.764,-1.744 z"
       fill="#ffffff"
       id="path386" />
    <path
       data-name="パス 63842"
       d="m 160.552,61.989 a 12.447,12.447 0 0 0 -0.9,-2.53 l 1.093,-0.4 h -3.373 v -1.764 h 5.635 v -1.763 h 2.3 v 1.763 h 5.788 v 1.764 h -3.028 l 1.074,0.345 a 35.4,35.4 0 0 1 -1.3,2.587 h 4.389 v 1.783 h -16 v -1.783 z m 9.219,2.741 v 8.721 h -2.3 v -0.556 h -6.536 v 0.556 h -2.2 V 64.73 Z m -2.3,1.821 h -6.536 v 1.38 h 6.536 z m 0,4.523 v -1.419 h -6.536 v 1.419 z m -0.824,-12.018 h -4.83 a 12.124,12.124 0 0 1 0.958,2.932 h 2.721 a 25.5,25.5 0 0 0 1.151,-2.931 z"
       fill="#ffffff"
       id="path388" />
    <path
       data-name="パス 63843"
       d="m 183.205,55.798 c -0.172,0.422 -0.383,0.92 -0.632,1.419 h 2.549 v 7.187 h -2.185 v 1.322 h 6.862 v 1.917 h -5.832 a 15.022,15.022 0 0 0 6.115,3.488 l -1.457,1.936 a 17.852,17.852 0 0 1 -5.693,-3.833 v 4.217 h -2.3 v -4.159 a 18.552,18.552 0 0 1 -5.578,3.853 l -1.4,-1.84 a 15.276,15.276 0 0 0 5.961,-3.661 h -5.712 v -1.917 h 6.728 v -1.322 h -2.064 v -7.187 h 1.84 a 12.49,12.49 0 0 0 0.4,-1.687 z m -5.462,4.945 0.537,1.764 a 104.115,104.115 0 0 1 -3.469,2.339 l -1,-1.9 c 0.979,-0.497 2.743,-1.455 3.931,-2.203 z m -1.917,-4.6 a 13.551,13.551 0 0 1 2.4,2.932 l -1.86,1.073 a 12.031,12.031 0 0 0 -2.147,-2.951 z m 4.792,3.929 h 2.377 v -1.15 h -2.378 z m 0,2.626 h 2.377 v -1.187 h -2.378 z m 6,-2.108 a 31.59,31.59 0 0 1 3.259,2.626 l -1.591,1.419 a 28.423,28.423 0 0 0 -3.047,-2.779 z m 2.952,-3.508 a 27.359,27.359 0 0 1 -2.434,3.086 l -1.669,-0.957 a 20.891,20.891 0 0 0 2.147,-3.124 z"
       fill="#ffffff"
       id="path390" />
    <path
       data-name="パス 63844"
       d="m 196.544,64.5 a 1.754,1.754 0 1 1 1.764,1.744 1.755,1.755 0 0 1 -1.764,-1.744 z"
       fill="#ffffff"
       id="path392" />
    <path
       data-name="パス 63845"
       d="m 211.416,56.623 v 13.088 h -3.048 v 1.112 h -1.974 v -14.2 z m -2.012,1.993 h -1.036 v 3.431 h 1.035 z m 0,9.086 v -3.7 h -1.036 v 3.7 z m 3.009,-3.584 v -5.884 h 3.182 v -2.7 h 2.166 v 2.7 h 3.315 v 5.884 h 0.882 v 1.974 h -3.853 c 0.709,2.856 2.147,4.639 4.045,5.539 l -1.419,1.821 a 8.976,8.976 0 0 1 -3.814,-4.753 10.393,10.393 0 0 1 -4.446,4.753 l -1.534,-1.629 c 2.933,-1.61 4.121,-3.508 4.5,-5.731 h -3.68 v -1.974 z m 3.182,-0.039 v -3.91 h -1.208 v 3.949 h 1.208 z m 2.166,0 v 0.039 h 1.287 v -3.949 h -1.284 z"
       fill="#ffffff"
       id="path394" />
    <path
       data-name="パス 63846"
       d="m 239.59,56.234 v 1.9 h -7.034 v 1.648 h 3.431 v 9.527 h -8.855 v -9.527 h 3.276 v -1.648 h -6.8 v -1.9 z m -13.244,3.833 v 10.408 h 10.462 V 60.072 h 2.128 v 13.362 h -2.128 v -1.016 h -10.462 v 1.016 h -2.108 V 60.072 Z m 2.818,3.584 h 1.244 V 61.6 h -1.246 z m 0,3.815 h 1.244 v -2.128 h -1.246 z m 3.392,-3.815 h 1.322 V 61.6 h -1.322 z m 0,3.815 h 1.322 v -2.128 h -1.322 z"
       fill="#ffffff"
       id="path396" />
  </g>
</svg>
