<?xml version="1.0" encoding="UTF-8"?>
<svg data-name="logo ch2 short copy" version="1.1" viewBox="0 0 420 117.6" xmlns="http://www.w3.org/2000/svg">
 <path d="m9.1014 73.164h401.8v35.823h-401.8z" fill="#ff5064" stroke-width="1.4" data-name="長方形 4731"/>
 <g fill="#fff" stroke-width="1.4">
  <path d="m67.074 79.471c-0.2422 0.5362-0.483 1.0472-0.7518 1.5302h5.5552l2.1728 0.8316a28.049 28.049 0 0 1-6.44 10.17h9.0678v11.645h-3.164v-0.9926h-8.3454v0.9926h-3.1136v-7.14a33.485 33.485 0 0 1-4.5346 2.4682l-2.0664-2.415a30.163 30.163 0 0 0 8.904-5.4418 18.309 18.309 0 0 0-3.1934-2.6306l2.0132-1.9054a20.933 20.933 0 0 1 3.3264 2.3884 22.774 22.774 0 0 0 3.381-5.0988h-5.3872a26.026 26.026 0 0 1-6.118 6.0102l-2.6292-2.0132a21.412 21.412 0 0 0 8.4-9.338zm-1.9054 15.456v4.83h8.3454v-4.83z" data-name="パス 63800"/>
  <path d="m90.142 79.283a49.025 49.025 0 0 1-1.9054 6.0368v18.327h-3.1402v-11.942c-0.483 0.8316-1.0206 1.638-1.5568 2.3884l-1.96-2.7104a36.177 36.177 0 0 0 5.3956-12.825zm5.957-0.0812a50.386 50.386 0 0 1-1.0458 3.92h9.282v2.8448h-6.3v2.9246h5.2052v2.7636h-5.2052v3.0324h5.5286v2.7902h-5.5286v6.1726h-3.1934v-17.686h-0.8666a31.08 31.08 0 0 1-3.2998 6.0116l-2.4402-2.0174a29.064 29.064 0 0 0 4.6956-11.404z" data-name="パス 63801"/>
  <path d="m112.36 79.531h3.4622v7.5138a80.856 80.856 0 0 1 10.331 6.4946l-2.2806 2.8448a53.232 53.232 0 0 0-8.05-5.5286v11.995h-3.4622zm8.1578 3.0058a17.587 17.587 0 0 1 2.0398 3.08l-1.5568 0.9926a16.029 16.029 0 0 0-1.96-3.1122zm2.6838-1.6646a20.698 20.698 0 0 1 2.121 3.059l-1.5568 1.0472a15.075 15.075 0 0 0-2.0118-3.059z" data-name="パス 63802"/>
  <path d="m147.1 86.822 2.3884 1.5022c-1.7444 7.2996-5.74 11.942-11.781 14.543l-2.1728-2.898c5.4208-1.9852 8.7206-5.635 9.7132-10.035h-13.954v-3.1122zm0.14-6.0648v3.08h-13.524v-3.08z" data-name="パス 63803"/>
  <path d="m171.84 82.1 2.66 1.771a92.527 92.527 0 0 1-8.9894 12.531 60.081 60.081 0 0 1 3.1402 4.025l-2.9246 2.1994a57.982 57.982 0 0 0-9.1-10.92l2.415-2.1462a58.002 58.002 0 0 1 4.2392 4.2672 53.42 53.42 0 0 0 6.0382-8.54h-14.98v-3.1878z" data-name="パス 63804"/>
  <path d="m180.91 91.112a2.4556 2.4556 0 1 1 2.4682 2.4416 2.457 2.457 0 0 1-2.4682-2.4416z" data-name="パス 63805"/>
  <path d="m205.89 81.885 2.3884 1.2348a36.469 36.469 0 0 1-4.2392 9.6068 82.797 82.797 0 0 1 6.9762 8.0234l-3.08 2.0664a47.445 47.445 0 0 0-5.8226-7.3262 30.985 30.985 0 0 1-8.3188 7.3528l-2.254-2.709a25.462 25.462 0 0 0 12.424-15.162h-10.681v-3.08z" data-name="パス 63806"/>
  <path d="m221.32 91.841a30.696 30.696 0 0 1-5.04 8.1844l-2.66-1.8788a23.559 23.559 0 0 0 4.6956-7.56zm5.04-12.398v5.3396h8.0766v3.1402h-8.0766v10.948c0 2.9246-1.127 3.9718-3.5154 3.9718-0.8582 0-2.0664-0.0532-3.1934-0.161v-3.22a17.114 17.114 0 0 0 2.282 0.161c0.7504 0 1.0192-0.2688 1.0192-1.1004v-10.599h-8.0234v-3.1402h8.0234v-5.3396zm4.4548 10.92a55.205 55.205 0 0 1 4.8034 7.6202l-2.9694 1.8004a36.355 36.355 0 0 0-4.5892-7.728zm1.3412-6.58a2.6432 2.6432 0 1 1 0-5.2864 2.6432 2.6432 0 0 1 0 5.2864zm0-0.9926a1.6506 1.6506 0 1 0-1.6632-1.6632 1.666 1.666 0 0 0 1.6674 1.6702z" data-name="パス 63807"/>
  <path d="m257.73 89.506v3.4622h-19.132v-3.4622z" data-name="パス 63808"/>
  <path d="m265.03 82.797a46.645 46.645 0 0 1 2.9512 7.4872l-2.9792 1.3146a34.801 34.801 0 0 0-2.8434-7.434zm15.992 0.14c-1.2068 9.4192-5.5006 16.611-12.933 19.911l-2.1994-2.9246c7.1904-2.9246 10.707-8.855 11.7-17.576zm-9.9008-1.5834a51.019 51.019 0 0 1 2.6838 7.567l-3.0324 1.2348a38.125 38.125 0 0 0-2.576-7.567z" data-name="パス 63809"/>
  <path d="m288.1 91.112a2.4556 2.4556 0 1 1 2.4682 2.4416 2.457 2.457 0 0 1-2.4682-2.4416z" data-name="パス 63810"/>
  <path d="m316.14 81.348 2.5494 1.5834a63.428 63.428 0 0 1-6.1446 9.2316l-2.8434-1.8508a30.24 30.24 0 0 0 4.0516-5.8226h-14.679v-3.1402zm-6.7354 4.7754c0 8.4-0.483 12.452-6.0116 16.717l-2.737-2.3338c5.0988-3.4888 5.3396-6.5198 5.3396-14.384z" data-name="パス 63811"/>
  <path d="m341.55 97.45v3.4356h-19.267v-3.4356zm-2.7636-14.571v3.381h-13.819v-3.381z" data-name="パス 63812"/>
  <path d="m356.17 88.673a50.729 50.729 0 0 0 3.1122-8.533l3.381 1.0724a60.186 60.186 0 0 1-3.78 9.5802c2.1462 1.7444 4.1594 3.4622 5.6616 4.9378l-2.443 2.6838a59.724 59.724 0 0 0-4.9644-4.5892 26.04 26.04 0 0 1-8.9362 8.9082l-2.4962-2.7104a22.564 22.564 0 0 0 8.8018-8.3454 69.821 69.821 0 0 0-6.6276-4.7236l2.1-2.6292c1.8172 1.1564 4.018 2.7132 6.1908 4.3484z" data-name="パス 63813"/>
 </g>
 <path d="m355.9 8.925h55.002v55.002h-55.002z" fill="#ff5064" stroke-width="1.4" data-name="長方形 4732"/>
 <path d="m384.67 46.416h9.24v5.7876h-21.211l12.526-16.768c1.9824-2.66 2.814-4.242 2.814-6.2244a3.6302 3.6302 0 0 0-3.7254-3.766 3.759 3.759 0 0 0-3.8444 3.9648h-6.2636c0.1582-6.1838 4.2812-9.8308 9.87-9.8308 6.4218 0 10.307 4.6774 10.307 9.5928a15.228 15.228 0 0 1-3.4888 8.8004z" fill="#fff" stroke-width="1.4" data-name="パス 63814"/>
 <g fill="#0050ff" stroke-width="1.4">
  <path d="m141.69 25.577c2.4276-0.2562 8.4378-1.1536 10.941-1.54v7.8498h-16.878v6.0382h16.846c-0.1974 6.9216-3.9788 12.099-10.822 15.471l2.982 5.866c9.1882-4.3904 14.301-11.68 14.501-21.337h14.99v-6.0382h-14.876v-9.3086c1.414-0.3808 7.7112-2.1322 9.982-3.0324l-1.1508-5.9486c-6.9314 2.6236-19.069 4.9616-27.339 5.9542z" data-name="パス 63815"/>
  <path d="m279.75 37.615c1.8466-1.7318 9.261-9.0608 11.018-16.67l0.1148-0.4956h-13.096v-6.7284h-6.0382v6.734h-12.592v6.0396h22.323c-1.89 2.835-9.1 11.837-25.89 20.126l3.1626 5.1338a109.39 109.39 0 0 0 12.998-7.462v14.84h6.0382v-15.835a121.69 121.69 0 0 1 12.482 8.1942l3.4216-4.9672c-3.2508-2.4528-11.879-7.6888-13.943-8.9096z" data-name="パス 63816"/>
  <path d="m334.62 38.296a47.102 47.102 0 0 1-10.258 10.041v-33.201h-6.0382v44.038a46.694 46.694 0 0 0 20.835-16.908z" data-name="パス 63817"/>
  <path d="m306.25 32.236c0 7.6468-1.015 15.323-9.2204 21.899l4.4436 4.9448c7.2478-6.4232 10.814-14.801 10.814-26.559v-17.385h-6.0382z" data-name="パス 63818"/>
  <path d="m247.65 26.848c-6.44 12.216-17.43 22.138-29.24 26.376l2.8812 5.9108c12.984-5.3004 25.717-17.126 31.647-29.373z" data-name="パス 63819"/>
  <path d="m231.11 27.115 2.4416-5.5258c-3.1612-1.82-9.0146-4.6872-13.147-6.454l-2.3156 5.5888c3.6764 1.5778 9.2484 4.3134 13.021 6.391z" data-name="パス 63820"/>
  <path d="m192.66 23.181-5.894 1.3104 1.701 8.7542-8.0598 1.68 1.309 5.8982 7.8974-1.6702 3.8752 19.928 5.8954-1.309-3.8612-19.866 9.6278-2.0342a36.47 36.47 0 0 1-4.1132 8.1956l5.2878 2.9008c4.8006-7.42 6.4484-18.133 6.4624-18.235l0.0742-0.56-18.48 3.8486z" data-name="パス 63821"/>
  <path d="m80.633 45.923a14.332 14.332 0 0 0-4.1034-10.067l-0.0448-0.0448 0.0406-0.049a14.095 14.095 0 0 0-10.745-23.208h-15.96v47.811h16.393a14.456 14.456 0 0 0 14.42-14.442zm-21.713-24.443h6.853a5.1464 5.1464 0 0 1 0 10.293h-6.853zm-0.0238 30.167v-11.242h7.28a5.6238 5.6238 0 0 1 0 11.246z" data-name="パス 63822"/>
  <path d="m41.447 12.555h-32.34v9.1644h11.34v40.03l9.6782-4.1888v-35.84h11.34z" data-name="パス 63823"/>
  <path d="m109.34 46.798a5.3872 5.3872 0 0 1-5.6938 5.1954c-3.36 0-5.677-1.6632-7.0742-5.0848l-0.1106-0.273-8.876 3.8416 0.098 0.2576c2.5368 6.65 8.0514 10.312 15.527 10.312a15.8 15.8 0 0 0 11.76-4.7026 14.07 14.07 0 0 0 4.0488-9.6278 12.474 12.474 0 0 0-5.04-10.128 26.345 26.345 0 0 0-9.1-4.3792c-4.6816-1.3566-6.72-3.206-6.72-6.6542a4.8664 4.8664 0 0 1 5.0918-4.4716 6.5884 6.5884 0 0 1 6.0494 4.417l8.456-3.64c-1.7752-4.557-5.6-9.5816-14.545-9.5816a15.148 15.148 0 0 0-10.665 3.8962 12.807 12.807 0 0 0-3.9802 9.4164 13.653 13.653 0 0 0 3.8472 9.3982c1.7808 1.9054 5.18 4.004 10.5 5.677 3.1598 1.0262 6.426 2.086 6.426 6.1306z" data-name="パス 63824"/>
 </g>
</svg>
