<?xml version="1.0" encoding="UTF-8" standalone="no"?>
<!-- Generator: Adobe Illustrator 25.3.1, SVG Export Plug-In . SVG Version: 6.00 Build 0)  -->

<svg
   version="1.1"
   id="Layer_1"
   x="0px"
   y="0px"
   viewBox="0 0 255.5 22"
   style="enable-background:new 0 0 255.5 22;"
   xml:space="preserve"
   sodipodi:docname="Nova_Sports_Start_2021.svg"
   inkscape:version="1.4.2 (ebf0e940d0, 2025-05-08)"
   xmlns:inkscape="http://www.inkscape.org/namespaces/inkscape"
   xmlns:sodipodi="http://sodipodi.sourceforge.net/DTD/sodipodi-0.dtd"
   xmlns="http://www.w3.org/2000/svg"
   xmlns:svg="http://www.w3.org/2000/svg"><defs
   id="defs17" /><sodipodi:namedview
   id="namedview17"
   pagecolor="#ffffff"
   bordercolor="#000000"
   borderopacity="0.25"
   inkscape:showpageshadow="2"
   inkscape:pageopacity="0.0"
   inkscape:pagecheckerboard="0"
   inkscape:deskcolor="#d1d1d1"
   inkscape:zoom="9.4363992"
   inkscape:cx="267.20998"
   inkscape:cy="10.968167"
   inkscape:window-width="2560"
   inkscape:window-height="1360"
   inkscape:window-x="0"
   inkscape:window-y="0"
   inkscape:window-maximized="1"
   inkscape:current-layer="g9" />
<style
   type="text/css"
   id="style1">
	.st0{fill:#FA0A32;}
	.st1{fill:#FFFFFF;}
</style>
<g
   id="g17">
	<g
   id="g3"
   style="fill:#ffffff">
		<path
   d="M43.5,2.1C36.6,2.1,31,6.1,31,11s5.6,8.9,12.5,8.9S56,15.9,56,11C56,6.1,50.4,2.1,43.5,2.1 M50.1,11    c0,2.5-2.9,4.5-6.6,4.5s-6.6-2-6.6-4.5s2.9-4.5,6.6-4.5C47.1,6.5,50.1,8.5,50.1,11"
   id="path1"
   style="fill:#ffffff" />
		<path
   d="M27.8,2.7l-0.2,14.4c0,1.4-1.2,2.2-3.5,2.2c-0.3,0-0.7,0-1-0.1c-0.4,0-0.7-0.1-1.1-0.2c0,0-0.1,0-0.1,0v0    c-0.8-0.3-1.6-0.7-2.4-1.3L9.3,9.5c-1-0.8-2.2-0.8-2.2,0l0.2,8.2c0,1-0.7,1.5-1.8,1.5H0L0.2,4.8c0-1.4,1.2-2,3.5-2    c2.4,0,4.4,0.7,6.2,2L20.2,13c0.3-0.1,0.4-0.3,0.4-0.6l-0.2-7.9c0-1.1,0.7-1.8,2-1.8H27.8z"
   id="path2"
   style="fill:#ffffff" />
		<path
   d="M83.8,2.9l-9.5,14.4c-0.9,1.4-2.5,2-4.8,2c-2.4,0-4-0.7-4.9-2L55,2.9h5.5c1.2,0,2.3,0.6,2.9,1.6l4.8,8    c0.5,0.8,1.7,0.9,2.3,0l4.9-7.9c0.7-1.1,1.9-1.8,3.1-1.8L83.8,2.9L83.8,2.9z M98,4.7c-0.9-1.4-2.5-2-4.9-2c-2.3,0-3.9,0.7-4.8,2    l-9.5,14.4h5.5c1.1,0,2.2-0.6,2.8-1.5l5.1-8.2c0.5-0.8,1.7-0.8,2.2,0l1.7,2.8h-2.4c-0.6,0-1.1,0.3-1.4,0.8L90,16.2l8.4,0l0.7,1.2    c0.6,1,1.7,1.6,2.9,1.6h5.4L98,4.7z"
   id="path3"
   style="fill:#ffffff" />
	</g>
	<g
   id="g9">
		<g
   id="g8"
   style="fill:#ffffff">
			<path
   d="M207,13.1c0.8,0.8,2,1.5,3.5,1.5c1.3,0,1.9-0.6,1.9-1.2c0-0.8-1-1.1-2.2-1.4c-1.8-0.4-4.1-0.9-4.1-3.3     c0-1.8,1.6-3.3,4.2-3.3c1.7,0,3.2,0.5,4.3,1.5l-1.3,1.7c-0.9-0.8-2.1-1.2-3.1-1.2c-1.1,0-1.6,0.5-1.6,1.1c0,0.7,0.9,1,2.2,1.3     c1.8,0.4,4.1,1,4.1,3.4c0,2-1.4,3.5-4.4,3.5c-2.1,0-3.6-0.7-4.6-1.7L207,13.1z"
   id="path4"
   style="fill:#ffffff" />
			<path
   d="M218.8,7.5h-3.2v-2h8.7v2h-3.2v8.9h-2.4V7.5z"
   id="path5"
   style="fill:#ffffff" />
			<path
   d="M232.1,14.6h-4.9l-0.7,1.9h-2.6l4.2-11h2.9l4.2,11h-2.5L232.1,14.6z M227.8,12.5h3.6l-1.8-5.1L227.8,12.5z"
   id="path6"
   style="fill:#ffffff" />
			<path
   d="M240.7,12.5H239v3.9h-2.3v-11h5.1c2.3,0,3.7,1.5,3.7,3.5c0,2-1.2,3-2.4,3.3l2.5,4.2h-2.7L240.7,12.5z M241.4,7.5H239v3     h2.4c0.9,0,1.6-0.6,1.6-1.5C243.1,8.1,242.4,7.5,241.4,7.5z"
   id="path7"
   style="fill:#ffffff" />
			<path
   d="M249.9,7.5h-3.2v-2h8.7v2h-3.2v8.9h-2.4L249.9,7.5L249.9,7.5z"
   id="path8"
   style="fill:#ffffff" />
		</g>
	</g>
	<path
   class="st0"
   d="M197.3,0l-96.9,0c-0.1,0-0.1,0.1-0.1,0.1l12.8,18.6c1.4,2,3.7,3.3,6.2,3.3l82.1,0.1V4.1   C201.4,1.9,199.6,0,197.3,0z"
   id="path9" />
	<g
   id="g16">
		<g
   id="g15">
			<path
   class="st1"
   d="M119.1,14c0.9,1,2.4,1.9,4.3,1.9c2,0,2.8-1,2.8-1.9c0-1.2-1.5-1.6-3.1-2c-2.2-0.6-4.9-1.2-4.9-4.1     c0-2.3,2-4,5-4c2.1,0,3.8,0.7,5.1,1.9l-1.4,1.8c-1.1-1.1-2.5-1.5-4-1.5c-1.4,0-2.3,0.7-2.3,1.7c0,1.1,1.4,1.4,3,1.8     c2.3,0.6,5,1.3,5,4.2c0,2.3-1.6,4.2-5.3,4.2c-2.5,0-4.3-0.9-5.5-2.2L119.1,14z"
   id="path10" />
			<path
   class="st1"
   d="M131.6,4.1h6c2.9,0,4.5,2,4.5,4.3c0,2.3-1.6,4.3-4.5,4.3H134v5.1h-2.4V4.1L131.6,4.1z M137.3,6.2H134v4.3     h3.3c1.4,0,2.3-0.9,2.3-2.2S138.7,6.2,137.3,6.2z"
   id="path11" />
			<path
   class="st1"
   d="M150.5,3.9c4.1,0,7,3,7,7.1c0,4.1-2.9,7.1-7,7.1c-4.1,0-7-3-7-7.1C143.5,6.9,146.4,3.9,150.5,3.9z M150.5,6     c-2.8,0-4.5,2.1-4.5,5c0,2.8,1.8,5,4.5,5c2.8,0,4.5-2.1,4.5-5C155,8.1,153.2,6,150.5,6z"
   id="path12" />
			<path
   class="st1"
   d="M164.6,12.7h-2.4v5.1h-2.4V4.1h6c2.7,0,4.5,1.8,4.5,4.3c0,2.4-1.6,3.7-3.3,4l3.3,5.4h-2.8L164.6,12.7z      M165.5,6.2h-3.3v4.3h3.3c1.4,0,2.3-0.9,2.3-2.2S166.8,6.2,165.5,6.2z"
   id="path13" />
			<path
   class="st1"
   d="M176.3,6.2h-4.2V4.1h10.7v2.1h-4.2v11.6h-2.4L176.3,6.2L176.3,6.2z"
   id="path14" />
			<path
   class="st1"
   d="M185.5,14c0.9,1,2.4,1.9,4.3,1.9c2,0,2.8-1,2.8-1.9c0-1.2-1.5-1.6-3.1-2c-2.2-0.6-4.9-1.2-4.9-4.1     c0-2.3,2-4,5-4c2.1,0,3.8,0.7,5.1,1.9l-1.4,1.8c-1.1-1.1-2.5-1.5-4-1.5c-1.4,0-2.3,0.7-2.3,1.7c0,1.1,1.4,1.4,3,1.8     c2.3,0.6,5,1.3,5,4.2c0,2.3-1.6,4.2-5.3,4.2c-2.5,0-4.3-0.9-5.5-2.2L185.5,14z"
   id="path15" />
		</g>
	</g>
</g>
</svg>
