<?xml version="1.0" encoding="UTF-8" standalone="no"?>
<!-- Generator: Adobe Illustrator 25.3.1, SVG Export Plug-In . SVG Version: 6.00 Build 0)  -->

<svg
   version="1.1"
   id="NOVASPORTS_NEW_LOGO"
   x="0px"
   y="0px"
   viewBox="0 0 439.5 48"
   style="enable-background:new 0 0 439.5 48;"
   xml:space="preserve"
   sodipodi:docname="NovaSports.svg"
   inkscape:version="1.4.2 (ebf0e940d0, 2025-05-08)"
   xmlns:inkscape="http://www.inkscape.org/namespaces/inkscape"
   xmlns:sodipodi="http://sodipodi.sourceforge.net/DTD/sodipodi-0.dtd"
   xmlns="http://www.w3.org/2000/svg"
   xmlns:svg="http://www.w3.org/2000/svg"
   xmlns:rdf="http://www.w3.org/1999/02/22-rdf-syntax-ns#"
   xmlns:cc="http://creativecommons.org/ns#"
   xmlns:dc="http://purl.org/dc/elements/1.1/"><title
   id="title57">Nova Sports (2021)</title><defs
   id="defs35" /><sodipodi:namedview
   id="namedview33"
   pagecolor="#ffffff"
   bordercolor="#666666"
   borderopacity="1.0"
   inkscape:pageshadow="2"
   inkscape:pageopacity="0.0"
   inkscape:pagecheckerboard="0"
   showgrid="false"
   inkscape:zoom="3.1945392"
   inkscape:cx="219.59349"
   inkscape:cy="23.947116"
   inkscape:window-width="2560"
   inkscape:window-height="1360"
   inkscape:window-x="0"
   inkscape:window-y="0"
   inkscape:window-maximized="1"
   inkscape:current-layer="g30"
   inkscape:showpageshadow="2"
   inkscape:deskcolor="#d1d1d1" />
<style
   type="text/css"
   id="style2">
	.st0{fill:#EE1E38;}
	.st1{fill:#FFFFFF;}
</style>
<g
   id="g30">
	<path
   class="st0"
   d="M430.6,0.1L219.1,0c-0.1,0-0.2,0.1-0.1,0.2l27.9,40.6c3.1,4.4,8.1,7.1,13.5,7.1L439.5,48V9   C439.5,4,435.5,0.1,430.6,0.1z"
   id="path4" />
	<g
   id="g12"
   style="fill:#ffffff">
		<path
   class="st1"
   d="M94.9,4.5c-15.1,0-27.4,8.7-27.4,19.4c0,10.7,12.3,19.4,27.4,19.4c15.1,0,27.3-8.7,27.3-19.4    C122.3,13.3,110,4.5,94.9,4.5 M109.3,24c0,5.4-6.4,9.8-14.3,9.8c-7.9,0-14.3-4.4-14.3-9.8c0-5.4,6.4-9.8,14.3-9.8    C102.8,14.1,109.3,18.6,109.3,24"
   id="path6"
   style="fill:#ffffff" />
		<path
   class="st1"
   d="M60.6,5.9l-0.6,31.5c0,3-2.5,4.7-7.6,4.7c-0.8,0-1.5-0.1-2.2-0.2c-0.8-0.1-1.6-0.2-2.5-0.5    c-0.1,0-0.2,0-0.3-0.1l0,0c-1.7-0.6-3.6-1.6-5.2-2.9l-22-17.7c-2.2-1.8-4.8-1.8-4.8,0l0.5,17.9c0.1,2.1-1.4,3.4-3.8,3.4H0    l0.6-31.5c0-3,2.6-4.4,7.7-4.4c5.2,0,9.7,1.5,13.5,4.4l22.5,17.9c0.6-0.2,1-0.6,0.9-1.3L44.7,9.7c-0.1-2.4,1.6-3.8,4.4-3.8H60.6z"
   id="path8"
   style="fill:#ffffff" />
		<path
   class="st1"
   d="M182.9,6.3l-20.8,31.5c-1.9,3-5.4,4.4-10.5,4.4c-5.2,0-8.7-1.5-10.6-4.4L120.1,6.3h12c2.6,0,5,1.4,6.3,3.6    l10.5,17.5c1.1,1.9,3.8,1.9,4.9,0l10.7-17.3c1.5-2.4,4.1-3.8,6.9-3.8H182.9z M213.8,10.2c-1.9-3-5.4-4.4-10.6-4.4    c-5.1,0-8.6,1.5-10.5,4.4l-20.9,31.5h12.1c2.4,0,4.7-1.3,6-3.4L201,20.4c1.1-1.8,3.7-1.8,4.8,0l3.6,6l-5.3,0c-1.2,0-2.3,0.7-3,1.7    l-4.6,7.3l18.4,0l1.6,2.6c1.3,2.2,3.7,3.6,6.3,3.6h11.9L213.8,10.2z"
   id="path10"
   style="fill:#ffffff" />
	</g>
	<g
   id="g28">
		<g
   id="g26">
			<path
   class="st1"
   d="M259.9,30.6c2.1,2.2,5.3,4.1,9.4,4.1c4.3,0,6-2.1,6-4.1c0-2.7-3.2-3.5-6.8-4.4c-4.9-1.2-10.6-2.6-10.6-9     c0-4.9,4.3-8.7,10.9-8.7c4.7,0,8.4,1.5,11.2,4.2l-3,3.9c-2.3-2.3-5.5-3.4-8.6-3.4c-3.1,0-5.1,1.5-5.1,3.7c0,2.3,3,3.1,6.6,4     c4.9,1.3,10.8,2.8,10.8,9.3c0,5-3.5,9.2-11.5,9.2c-5.5,0-9.5-1.9-12.1-4.7L259.9,30.6z"
   id="path14" />
			<path
   class="st1"
   d="M287.3,9h13.1c6.3,0,9.8,4.3,9.8,9.4c0,5.1-3.5,9.4-9.8,9.4h-7.9v11.1h-5.2V9z M299.7,13.6h-7.2v9.5h7.2     c3,0,5.1-1.9,5.1-4.7S302.6,13.6,299.7,13.6z"
   id="path16" />
			<path
   class="st1"
   d="M328.4,8.5c9,0,15.3,6.5,15.3,15.4c0,8.9-6.3,15.4-15.3,15.4c-9,0-15.3-6.5-15.3-15.4     C313.1,15,319.5,8.5,328.4,8.5z M328.4,13.2c-6,0-9.9,4.6-9.9,10.8c0,6.1,3.8,10.8,9.9,10.8c6,0,9.9-4.7,9.9-10.8     C338.3,17.8,334.4,13.2,328.4,13.2z"
   id="path18" />
			<path
   class="st1"
   d="M359.2,27.7H354v11.1h-5.2V9h13.1c5.9,0,9.8,3.8,9.8,9.4c0,5.3-3.5,8.2-7.1,8.8l7.3,11.7h-6L359.2,27.7z      M361.1,13.6H354v9.5h7.2c3,0,5.1-1.9,5.1-4.7S364.1,13.6,361.1,13.6z"
   id="path20" />
			<path
   class="st1"
   d="M384.9,13.6h-9V9h23.3v4.6h-9v25.2h-5.2V13.6z"
   id="path22" />
			<path
   class="st1"
   d="M404.9,30.6c2.1,2.2,5.3,4.1,9.4,4.1c4.3,0,6-2.1,6-4.1c0-2.7-3.2-3.5-6.8-4.4c-4.9-1.2-10.6-2.6-10.6-9     c0-4.9,4.3-8.7,10.9-8.7c4.7,0,8.4,1.5,11.2,4.2l-3,3.9c-2.3-2.3-5.5-3.4-8.6-3.4c-3.1,0-5.1,1.5-5.1,3.7c0,2.3,3,3.1,6.6,4     c4.9,1.3,10.8,2.8,10.8,9.3c0,5-3.5,9.2-11.5,9.2c-5.5,0-9.5-1.9-12.1-4.7L404.9,30.6z"
   id="path24" />
		</g>
	</g>
</g>
<metadata
   id="metadata55"><rdf:RDF><cc:Work
       rdf:about=""><dc:title>Nova Sports (2021)</dc:title></cc:Work></rdf:RDF></metadata></svg>
