<?xml version="1.0" encoding="UTF-8"?>
<svg id="svg2" xmlns="http://www.w3.org/2000/svg" version="1.1" xmlns:svg="http://www.w3.org/2000/svg" viewBox="0 0 3175.2 873.5">
  <!-- Generator: Adobe Illustrator 30.0.0, SVG Export Plug-In . SVG Version: 2.1.1 Build 72)  -->
  <defs>
    <style>
      .st0 {
        fill: #fff;
      }

      .st1 {
        fill: #ff28ff;
      }
    </style>
  </defs>
  <circle class="st0" cx="436.7" cy="436.7" r="436.7"/>
  <path id="path1" class="st1" d="M19.8,306.2C75.3,128.8,241,0,436.7,0s361.4,128.8,416.9,306.2h-350.4v161.5h-3l-88.5-137.6c-10.8-17.7-21.5-23.8-43-23.8H19.8ZM772.4,369.8v258h-87v-258h-99.5v258h-58.1c-21.5,0-31.8-6.1-43-23.8l-112.6-168.5h-1.8v192.4h-84.5v-258h-99.1v258h-88.5v-258H5.1c-3.4,21.8-5.1,44.2-5.1,66.9,0,241.2,195.5,436.7,436.7,436.7s436.7-195.5,436.7-436.7-1.7-45.1-5.1-66.9h-95.9Z"/>
  <path id="path2" class="st0" d="M1438.3,306.2h-131.4v321.5h70.7v-96.4h53.7c72.1,0,130-38.6,130-113v-.9c0-65.7-46.4-111.2-123.1-111.2h0ZM1489.7,419.7c0,27.5-20.7,48.1-56,48.1h-56v-98.1h54.6c35.4,0,57.4,17.3,57.4,49v.9ZM2229.2,413.3v-.9c0-66.2-45.5-106.1-121.2-106.1h-147v321.5h70.7v-102.9h55.5l58.6,87.5c6.4,9.6,17.3,15.4,28.9,15.4h64.1l-78.5-114.8c40.9-15.2,68.9-47.8,68.9-99.6h0ZM2157.6,417c0,27.1-19.8,44.4-54.2,44.4h-71.6v-91.7h70.3c34.4,0,55.5,16,55.5,46.3v.9ZM2255.9,369.8h97.8v258h70.7v-258h74.7c12.8,0,23.1-10.3,23.1-23.1v-40.3h-266.4v63.5h0ZM2685.9,435.4c-55.5-14.2-69.2-21.1-69.2-42.2v-.9c0-15.6,14.2-27.9,41.3-27.9s43.3,7.4,65.5,20.2c10.5,6,23.8,3.1,30.6-6.8l24.1-34.9c-32.6-26.1-72.5-40.8-119.3-40.8s-112.4,38.5-112.4,96.8v.9c0,63.8,41.7,81.6,106.4,98.2,53.7,13.8,64.7,22.9,64.7,40.8v.9c0,18.8-17.4,30.3-46.3,30.3s-55.1-9.9-79-26.3c-9.9-6.8-23.3-5-31,4.1l-27.7,33.1c38.5,34.4,87.6,51.4,136.2,51.4,69.2,0,117.9-35.8,117.9-99.6v-.9c0-56-36.7-79.4-101.8-96.4h0ZM1151.3,435.4c-55.5-14.2-69.2-21.1-69.2-42.2v-.9c0-15.6,14.2-27.9,41.3-27.9s43.3,7.4,65.5,20.2c10.4,6,23.8,3.1,30.6-6.8l24.1-34.9c-32.6-26.1-72.5-40.8-119.3-40.8s-112.4,38.5-112.4,96.8v.9c0,63.8,41.7,81.6,106.4,98.2,53.7,13.8,64.7,22.9,64.7,40.8v.9c0,18.8-17.4,30.3-46.3,30.3s-55.1-9.9-79-26.3c-9.9-6.8-23.3-5-31,4.1l-27.7,33.1c38.5,34.4,87.6,51.4,136.2,51.4,69.2,0,117.9-35.8,117.9-99.6v-.9c0-56-36.7-79.4-101.8-96.4h0ZM1750,301.9c-91.2,0-165.1,73.9-165.1,165.1s73.9,165.1,165.1,165.1,165.1-73.9,165.1-165.1-73.9-165.1-165.1-165.1ZM1750,565.4c-54.3,0-98.3-44-98.3-98.3s44-98.3,98.3-98.3,98.3,44,98.3,98.3-44,98.3-98.3,98.3ZM3089.4,436.8l81.1-77.3v-53.1h-216.5v37.2c0,12.8,10.3,23.1,23.1,23.1h102.7l-76.4,76.9,11,44.9h29.3c39.3,0,62.7,14.7,62.7,40.7v.9c0,23.8-18.8,38.9-45.3,38.9s-45.1-8.5-62.9-24c-8.9-7.7-22.2-7.1-30.7,1l-32.3,30.7c27.5,32.5,67.3,55.4,124.9,55.4s115.4-44.4,115.4-104.8v-.9c0-59.5-42.6-82.4-86.1-89.7h.2Z"/>
</svg>