<?xml version="1.0" encoding="UTF-8"?>
<svg id="svg26930" xmlns="http://www.w3.org/2000/svg" version="1.1" xmlns:svg="http://www.w3.org/2000/svg" xmlns:xlink="http://www.w3.org/1999/xlink" viewBox="0 0 924.3 128.9">
  <!-- Generator: Adobe Illustrator 29.8.2, SVG Export Plug-In . SVG Version: 2.1.1 Build 3)  -->
  <defs>
    <style>
      .st0 {
        fill: url(#Dégradé_sans_nom_2);
        fill-rule: evenodd;
      }

      .st1 {
        fill: #fff;
      }

      .st2 {
        fill: url(#Dégradé_sans_nom);
      }

      .st3 {
        fill: url(#Dégradé_sans_nom_3);
      }

      .st4 {
        fill: #ffcf1b;
      }
    </style>
    <linearGradient id="Dégradé_sans_nom" data-name="Dégradé sans nom" x1="24.2" y1="209.4" x2="67.6" y2="209.4" gradientTransform="translate(-40.2 471.6) scale(1.9 -1.9)" gradientUnits="userSpaceOnUse">
      <stop offset="0" stop-color="#ebf5f7"/>
      <stop offset=".2" stop-color="#f1f8fa"/>
      <stop offset=".5" stop-color="#fcfdfe"/>
      <stop offset="1" stop-color="#fff"/>
    </linearGradient>
    <linearGradient id="Dégradé_sans_nom_2" data-name="Dégradé sans nom 2" x1="43.1" y1="178" x2="68.8" y2="239.3" gradientTransform="translate(-40.2 471.6) scale(1.9 -1.9)" gradientUnits="userSpaceOnUse">
      <stop offset="0" stop-color="#c09"/>
      <stop offset=".2" stop-color="#cf0090"/>
      <stop offset=".4" stop-color="#d70078"/>
      <stop offset=".6" stop-color="#e40050"/>
      <stop offset=".8" stop-color="#f70019"/>
      <stop offset=".9" stop-color="red"/>
    </linearGradient>
    <linearGradient id="Dégradé_sans_nom_3" data-name="Dégradé sans nom 3" x1="25.9" y1="185.2" x2="51.6" y2="246.5" gradientTransform="translate(-40.2 471.6) scale(1.9 -1.9)" gradientUnits="userSpaceOnUse">
      <stop offset="0" stop-color="#c09"/>
      <stop offset=".2" stop-color="#cf0090"/>
      <stop offset=".4" stop-color="#d70078"/>
      <stop offset=".6" stop-color="#e40050"/>
      <stop offset=".8" stop-color="#f70019"/>
      <stop offset=".9" stop-color="red"/>
    </linearGradient>
  </defs>
  <path id="path2" class="st1" d="M195.6,101.4h-13.5l-25.4-65.2h12.2l9.3,24.7c3.7,9.7,7.3,19.6,10.8,29.3,3.5-9.8,7.1-19.8,10.9-29.6l9.2-24.4h12l-25.5,65.2ZM240.8,22.4c0,4.1-3.3,7.6-7.8,7.6s-7.8-3.5-7.8-7.6,3.3-7.6,7.8-7.6,7.8,3.5,7.8,7.6ZM227.3,101.4V36.2h11.4v65.2h-11.4ZM304.7,57.5v43.9h-10.9v-8.6c-4.2,6.6-12.3,10.2-22.4,10.2s-23.4-5.9-23.4-18.8,17.1-19.6,34.9-23.4l10.6-2.3v-.2c0-9.9-6.8-13.8-16-13.8s-17.5,4.7-21.6,8.2l-3.8-9.5c5.1-4,13.9-8.5,25.8-8.5,16.9,0,26.6,8.9,26.6,22.8h0ZM293.6,73.7v-6l-9.6,2.1c-16.9,3.7-24.4,6.1-24.4,14.3s5.1,9.3,13.6,9.3c11.1,0,20.5-5.7,20.5-19.8ZM381.2,68.8c0,20.9-12.4,34.2-30.9,34.2s-17.3-3.5-22.4-10.3v27.9h-11.4V36.2h11v10.2c5.1-7.7,13.2-11.8,23.4-11.8,18,0,30.2,13.4,30.2,34.2ZM369.6,68.8c0-14.7-8.2-24.1-20.7-24.1s-21.5,9.3-21.5,24.3,8.7,24,21.2,24,20.9-9.4,20.9-24.2h0ZM390.9,101.4V17.3h11.4v84.1h-11.4ZM468.3,57.5v43.9h-10.9v-8.6c-4.2,6.6-12.3,10.2-22.4,10.2s-23.4-5.9-23.4-18.8,17.1-19.6,34.9-23.4l10.6-2.3v-.2c0-9.9-6.8-13.8-16-13.8s-17.5,4.7-21.6,8.2l-3.8-9.5c5.1-4,13.9-8.5,25.8-8.5,16.9,0,26.6,8.9,26.6,22.8h0ZM457.2,73.7v-6l-9.6,2.1c-16.9,3.7-24.4,6.1-24.4,14.3s5.1,9.3,13.6,9.3c11.1,0,20.5-5.7,20.5-19.8ZM511.8,97.1c-6.1,15.5-13.8,21.7-27.8,25l-3.6-9.1c6.9-2.3,13-4.4,17.6-10.9l-25.7-65.9h12.2l8.8,23.4c3.7,9.8,8.1,21.5,10.9,29.2,3-7.8,7.3-19.3,11-29.2l8.8-23.4h11.8l-23.9,60.9Z"/>
  <path id="path4" class="st2" d="M91.4,77.3v-25.8L23,15.4c-6.6,5.5-12.1,12.5-16.1,20.2l58.4,28.8L6.9,93.3c3.9,7.8,9.4,14.6,16.1,20.2l68.4-36.2Z"/>
  <path id="path6" class="st0" d="M130.6,64.4c0,35.6-29.2,64.4-65.3,64.4s-31-5.8-42.4-15.4l68.4-36.2v-25.8L23,15.4C34.4,5.8,49.2,0,65.3,0,101.4,0,130.6,28.8,130.6,64.4Z"/>
  <path id="path8" class="st3" d="M6.9,93.3l58.4-28.8L6.9,35.6C2.5,44.3,0,54.1,0,64.4s2.5,20.1,6.9,28.8Z"/>
  <path id="path32882" class="st1" d="M579.8,128.1V.9h4.8v127.2h-4.8Z"/>
  <path id="path3354" class="st1" d="M681.9,41.9l-6.6,8.4c-2.2-1.7-4.4-3-6.7-3.9-2.2-.9-4.8-1.4-7.6-1.4s-6,.7-7.9,2.2c-1.9,1.4-2.8,3.2-2.8,5.4s.8,3.4,2.2,4.7c1.5,1.3,3.8,2.6,7,4l6.6,2.9c3.9,1.7,7.1,3.4,9.6,5.1,2.4,1.6,4.3,3.6,5.6,5.9,1.3,2.3,2,5.1,2,8.4s-1,7.4-3,10.3c-1.9,3-4.7,5.2-8.2,6.8-3.4,1.6-7.4,2.4-11.9,2.4s-9.9-.9-14.2-2.6c-4.3-1.8-8-4.1-11.2-6.9l6.2-8.5c6.1,5.1,12.5,7.7,19.1,7.7s6.4-.8,8.4-2.3c2.1-1.5,3.2-3.7,3.2-6.5s-.5-3.2-1.4-4.3c-.9-1.2-2.2-2.3-3.8-3.1-1.6-.9-3.8-2-6.7-3.2l-6.5-2.9c-5.4-2.3-9.2-4.9-11.3-7.6-2.1-2.7-3.2-6-3.2-10s.9-6.3,2.7-9c1.8-2.8,4.4-5,7.8-6.5,3.4-1.7,7.5-2.5,12.1-2.5,8.1,0,15,2.4,20.5,7.1h0Z"/>
  <path id="path3356" class="st1" d="M735.4,78c0,4.8-1,9.1-3,12.9-1.9,3.7-4.6,6.7-8,8.7-3.3,2.1-7.1,3.1-11.3,3.1-6.1,0-11-1.9-14.6-5.8v22.1h-10.6V54.4h10v5.3c1.7-2.1,3.9-3.7,6.4-4.8,2.6-1.1,5.5-1.7,8.7-1.7s7.9,1,11.3,3.1c3.4,2.1,6.1,5,8,8.7,2,3.7,3,8,3,12.8h0ZM724.7,78c0-4.7-1.3-8.4-3.9-11-2.5-2.6-5.7-4-9.4-4-2.4,0-4.7.6-6.7,1.7-2,1.2-3.7,2.9-4.9,5.2-1.2,2.2-1.8,4.9-1.8,8.1s.6,5.9,1.8,8.2c1.2,2.2,2.9,3.9,4.9,5.1,2,1.2,4.3,1.7,6.7,1.7,3.7,0,6.9-1.3,9.4-4,2.6-2.6,3.9-6.3,3.9-11Z"/>
  <path id="path3358" class="st1" d="M786.9,78c0,4.9-1.1,9.2-3.3,13-2.1,3.7-5.1,6.7-8.8,8.9-3.7,2.1-7.9,3.1-12.5,3.1s-8.8-1-12.6-3.1c-3.7-2.2-6.7-5.1-8.8-8.9-2.2-3.8-3.3-8.1-3.3-13,0-4.9,1.1-9.2,3.3-12.9,2.2-3.8,5.1-6.8,8.8-8.9,3.8-2.2,8-3.2,12.6-3.2s8.8,1.1,12.5,3.2c3.8,2.1,6.7,5,8.8,8.9,2.2,3.7,3.3,8.1,3.3,12.9h0ZM748.4,78c0,3.1.6,5.8,1.9,8.1,1.3,2.3,3,4,5.1,5.2,2.2,1.2,4.5,1.8,7,1.8s4.8-.6,6.9-1.8c2.1-1.2,3.8-2.9,5-5.2,1.3-2.3,2-5,2-8.1s-.7-5.8-2-8.1c-1.2-2.3-2.9-4-5-5.2-2.1-1.2-4.4-1.8-6.9-1.8s-4.8.6-7,1.8c-2.1,1.2-3.8,2.9-5.1,5.2-1.2,2.3-1.9,5-1.9,8.1Z"/>
  <path id="path3360" class="st1" d="M801.4,81v20.6h-10.6v-47.1h10.2v7.8c1.3-2.5,3.3-4.6,5.9-6.2,2.7-1.6,6-2.4,9.9-2.5l1.1,10.2c-5.4.1-9.5,1.6-12.3,4.4-2.7,2.8-4.1,7-4.1,12.8Z"/>
  <path id="path3362" class="st1" d="M840.3,85.3c0,2.8.6,4.8,1.8,6,1.2,1.2,3.3,1.8,6.2,1.8s1.7,0,2.4-.2v8.9c-1.9.5-3.9.7-6,.7-5,0-8.7-1.2-11.3-3.5-2.5-2.3-3.7-6-3.7-11.1v-24.5h-8.9v-9h8.9v-15h10.6v15h10.8v9h-10.8v21.9Z"/>
  <path id="path3364" class="st1" d="M889.9,58.2l-5.2,7.6c-3.3-2.4-6.9-3.6-10.8-3.6s-4.2.4-5.4,1.3c-1.2.8-1.9,1.9-1.9,3.3s.5,2.2,1.4,2.9c1,.7,2.6,1.5,4.8,2.4l4.2,1.7c4.8,1.9,8.3,3.9,10.4,6,2.2,2.1,3.3,5,3.3,8.7s-1.7,8.1-5,10.7c-3.3,2.6-7.5,4-12.8,4s-7.3-.6-10.6-1.8c-3.4-1.2-6.2-2.9-8.7-5l5.5-7.7c1.9,1.5,4,2.8,6.3,3.8,2.4.9,4.9,1.4,7.4,1.4,2.3,0,4.1-.4,5.4-1.3,1.4-.9,2-2.3,2-4.1s-.7-2.7-2.1-3.6c-1.4-.9-3.7-2-6.9-3.3l-4.3-1.8c-3.9-1.6-6.7-3.4-8.4-5.4-1.6-2-2.4-4.5-2.4-7.5s.7-4.6,2-6.7c1.4-2.1,3.4-3.8,6.1-5.1,2.7-1.3,6-1.9,9.8-1.9s6.4.5,9,1.5c2.7,1,5,2.2,6.7,3.7h0Z"/>
  <path id="path4035" class="st4" d="M924.3,101.6h-11.4v-48.9l-14,10-5.7-7.7,21.9-16.3h9.3v62.8Z"/>
</svg>