<?xml version="1.0" encoding="UTF-8" standalone="no"?>
<svg
   xmlns:dc="http://purl.org/dc/elements/1.1/"
   xmlns:cc="http://creativecommons.org/ns#"
   xmlns:rdf="http://www.w3.org/1999/02/22-rdf-syntax-ns#"
   xmlns:svg="http://www.w3.org/2000/svg"
   xmlns="http://www.w3.org/2000/svg"
   xmlns:sodipodi="http://sodipodi.sourceforge.net/DTD/sodipodi-0.dtd"
   xmlns:inkscape="http://www.inkscape.org/namespaces/inkscape"
   inkscape:version="1.0 (4035a4fb49, 2020-05-01)"
   sodipodi:docname="Canal 5 Mexico (2016).svg"
   version="1.0"
   width="326.04108"
   height="400.02255"
   id="svg2">
  <metadata
     id="metadata8">
    <rdf:RDF>
      <cc:Work
         rdf:about="">
        <dc:format>image/svg+xml</dc:format>
        <dc:type
           rdf:resource="http://purl.org/dc/dcmitype/StillImage" />
        <dc:title></dc:title>
      </cc:Work>
    </rdf:RDF>
  </metadata>
  <defs
     id="defs6" />
  <sodipodi:namedview
     inkscape:current-layer="svg2"
     inkscape:window-maximized="1"
     inkscape:window-y="-8"
     inkscape:window-x="-8"
     inkscape:cy="209.04178"
     inkscape:cx="205.45102"
     inkscape:zoom="1.5104726"
     inkscape:pagecheckerboard="true"
     showgrid="false"
     id="namedview4"
     inkscape:window-height="961"
     inkscape:window-width="1280"
     inkscape:pageshadow="2"
     inkscape:pageopacity="0"
     guidetolerance="10"
     gridtolerance="10"
     objecttolerance="10"
     borderopacity="1"
     bordercolor="#666666"
     pagecolor="#ffffff" />
  <path
     style="fill:#000000;stroke-width:0.811894"
     id="path2498"
     fill="#010101"
     d="M 127.33594,397.79806 C 74.03042,388.94284 28.3657,350.44085 7.14033,301.66035 7.13984,301.66035 0,286.22235 0,286.22235 l 75.33621,-46.37867 15.08355,35.50172 -39.88235,25.19895 c 17.87693,31.06199 53.86142,54.67589 89.63727,58.6385 23.07566,0.54183 47.19466,2.42609 68.81129,-7.32678 39.10881,-14.30582 74.01983,-48.99885 76.30213,-91.99718 1.37753,-29.50929 0.66023,-63.05398 -21.67368,-85.50337 -19.26912,-20.12842 -48.54775,-24.4226 -75.22619,-23.97781 l -65.3634,-0.39626 -0.4157,-38.91442 c 0,0 74.00354,-2.87087 109.24874,3.25904 25.10528,4.36696 49.55033,17.44356 65.59162,37.94399 27.97446,32.67129 31.17783,78.39493 27.19196,119.30683 -8.98247,63.18336 -64.81727,112.255 -126.1948,124.73316 -23.31205,4.61765 -47.60222,4.70661 -71.10989,1.48801 z M 24.26571,8.09e-4 H 304.45044 V 100.80468 H 262.4969 V 42.278594 H 65.0618 l 0.002,161.617756 H 24.26853 V 0 Z"
     sodipodi:nodetypes="ccccccccccccccccccccccccccccc" />
  <path
     d="m 146.59075,292.97185 c -8.01494,-3.79479 -14.89391,-9.85109 -14.89391,-13.11881 0,-1.46617 3.18705,-6.20963 7.08933,-10.55062 3.90229,-4.34099 6.80535,-9.31445 6.44773,-11.04892 -0.41021,-1.96447 -5.33278,-4.81055 -13.06373,-7.54163 -10.78125,-3.81395 -12.39056,-5.00221 -12.35899,-9.04613 0.0526,-5.28011 6.39512,-18.98345 9.62424,-20.80418 1.17804,-0.6612 6.5634,0.53664 11.96981,2.65443 14.96756,5.86465 17.10275,4.77222 17.10275,-8.77781 0,-13.20504 1.60931,-14.76703 15.23051,-14.80537 14.84131,-0.0479 15.56707,0.59414 15.56707,13.7896 0,14.24957 1.81968,15.27492 17.09223,9.63067 9.31922,-3.44978 11.39133,-3.69894 12.95856,-1.56198 7.85716,10.67519 11.14938,21.83911 7.27865,24.63726 -1.40945,1.02536 -7.33125,3.27731 -13.13736,5.00221 -15.30411,4.55181 -15.39878,5.75923 -1.71448,21.44622 5.26967,6.03713 5.41693,6.66002 2.50336,10.71352 -2.96615,4.13017 -16.52425,12.22761 -20.45808,12.22761 -1.03081,0 -5.26968,-4.47515 -9.40336,-9.9469 -4.14422,-5.48135 -8.73018,-9.9565 -10.20276,-9.9565 -1.47256,0 -6.31097,4.47515 -10.74969,9.9565 -4.43873,5.47175 -8.70915,9.9469 -9.49802,9.93732 -0.77837,0 -4.10215,-1.2745 -7.38386,-2.83649 z"
     fill="#010101"
     id="path2498-1"
     sodipodi:nodetypes="csscccccscsccccccscsccc"
     style="fill:#d8f330;fill-opacity:1;stroke-width:1.00396" />
</svg>
