<?xml version="1.0" encoding="UTF-8" standalone="no"?>
<!-- Generator: Adobe Illustrator 16.0.0, SVG Export Plug-In . SVG Version: 6.00 Build 0)  -->

<svg
   version="1.1"
   width="1000.0001"
   height="424.8974"
   xml:space="preserve"
   viewBox="0 0 1000.0001 424.89742"
   id="svg26274"
   xmlns="http://www.w3.org/2000/svg"
   xmlns:svg="http://www.w3.org/2000/svg"><defs
     id="defs29" /><path
     id="path1935"
     d="M 63.139118,1.7717746 C 54.807505,1.7717746 47.3521,7.0553571 44.753169,14.77759 L 9.7050942,118.73856 C 7.5857918,124.42329 5.8048122,129.36332 5.118666,134.02165 4.4325187,138.68065 4.8447113,143.05984 7.1120712,147.60309 L 37.534436,208.48765 C 37.534726,208.48834 37.535247,208.48919 37.535537,208.48985 L 37.536637,208.49208 C 38.744244,211.21938 41.375448,215.08692 45.553884,218.27766 49.73432,221.46994 55.465175,223.98235 62.858356,223.98235 H 148.46441 C 156.77785,223.98235 160.97849,224.92147 166.59428,226.67299 173.76454,228.90927 179.95712,232.55687 185.635,237.94866 199.50475,251.55833 204.80765,269.01992 198.56533,289.59583 196.09991,296.52362 191.81597,303.00275 186.56034,308.29759 H 186.55921 V 308.29866 C 173.79343,320.82839 157.68236,324.10244 145.35818,322.79452 H 145.35703 C 122.42931,320.13627 104.29971,301.20434 104.29971,278.02744 104.29971,267.6753 95.543909,258.75882 84.932277,258.75882 H 19.251817 C 8.6875481,258.75882 0.1088351,267.34251 0.03366122,277.61625 0.02334862,277.65243 0.0132393,277.68851 0.00338982,277.72481 L 0,277.73577 V 277.74675 C 0,356.81773 63.745486,421.3076 143.75452,424.83788 H 143.75562 143.75675 C 143.75675,424.83788 152.2629,424.9718 157.43052,424.83788 H 157.43165 C 210.65718,422.48936 256.61383,393.09785 281.46494,350.44861 288.52905,338.39114 293.05812,326.60838 295.90013,316.49664 298.8709,305.61141 301.14798,292.49195 301.14798,277.84652 301.14798,224.82981 273.3588,179.87638 230.86427,153.04027 L 230.86314,153.03919 C 207.57565,138.60379 180.01093,130.23679 150.61496,130.23679 H 150.61274 117.83761 L 129.65396,95.403319 H 257.25507 C 267.86465,95.403319 276.56409,86.83861 276.56409,76.505303 V 20.66977 C 276.56409,10.336467 267.86465,1.7717746 257.25507,1.7717746 H 149.66042 149.59977 Z M 63.139118,18.051516 H 138.13493 L 100.1985,130.23679 H 23.442884 L 60.752698,19.756453 60.756116,19.749878 60.758317,19.744402 C 61.112659,18.690357 62.021429,18.051516 63.139118,18.051516 Z M 155.75166,18.051516 H 257.31231 C 258.78871,18.051516 259.83123,19.063499 259.83123,20.540397 V 76.578761 C 259.83123,78.055688 258.78871,79.067655 257.31231,79.067655 H 135.20726 Z M 25.039827,146.51655 H 150.03552 C 182.82715,146.52469 212.82385,157.93667 236.12108,176.89962 265.69531,200.97177 284.47346,236.62301 284.47346,277.73469 284.47346,291.58816 282.57685,306.82438 274.58647,327.69118 274.55244,318.51528 273.89031,310.35996 271.62399,300.49213 V 300.49105 L 271.62284,300.48993 C 267.25207,284.10084 261.36682,271.6283 254.42056,261.34639 V 261.34529 H 254.41943 C 228.60073,224.34689 192.29969,208.63889 152.34103,207.7026 H 152.33992 63.27947 C 59.275046,207.7026 56.64283,206.26808 55.006287,204.83438 53.369772,203.40064 52.734436,201.97271 52.734436,201.97271 V 201.9716 Z M 208.27601,239.73254 C 222.67307,248.51409 234.65904,260.53679 244.60771,276.86303 251.21081,288.96299 254.02242,297.5945 255.83892,305.9896 257.0504,311.68534 257.92549,319.74964 257.92549,325.86232 257.63389,335.89366 256.32599,347.42435 250.34966,359.08843 245.42439,368.70114 239.60046,376.42355 229.57167,383.37649 L 229.57057,383.3776 C 209.88797,397.50073 187.19101,406.3783 158.98815,408.40133 V 338.83306 C 184.41496,335.83079 204.91535,318.52717 213.2667,297.63812 215.90505,291.03874 217.77105,283.12902 217.77105,276.14815 217.77105,264.57659 217.15582,255.36825 208.27601,239.73254 Z M 19.251817,275.15152 H 84.932277 C 86.406598,275.15152 87.566841,276.22094 87.566841,277.69083 87.566841,306.87876 108.86241,334.50285 142.28784,338.83087 V 408.51427 C 111.53837,406.26156 85.465962,395.26258 64.56309,378.09062 34.883476,353.70837 16.75633,317.30331 16.733967,277.70837 16.738892,277.69131 16.743903,277.67395 16.748596,277.65687 L 16.752014,277.64588 V 277.63489 C 16.752014,276.14181 17.774687,275.15152 19.251817,275.15152 Z"
     fill="#fb292e" /><path
     fill="#fb292e"
     d="M 490.35187,3.7599655 C 485.94134,3.7599655 482.35667,7.2663922 482.35667,11.580604 V 161.0692 C 482.35667,187.04233 462.23458,207.80208 434.94794,207.80208 407.9952,207.80208 388.27289,187.04233 388.27289,161.0692 V 11.580604 C 388.27289,7.2663922 384.68699,3.7599655 380.27765,3.7599655 H 335.22681 C 330.78154,3.7599655 327.23038,7.2663922 327.23038,11.580604 V 164.03354 C 327.23038,220.41343 375.37402,267.17443 434.94313,267.17443 494.8474,267.17443 543.38599,220.41108 543.38599,164.03354 V 11.580604 C 543.38599,7.2663922 539.8001,3.7599655 535.39078,3.7599655 Z"
     id="path24942" /><path
     fill="#fb292e"
     d="M 999.47097,252.72266 983.4231,211.17385 963.48652,263.3285 H 991.9988 C 997.57152,263.3285 1001.4614,257.8447 999.47335,252.72266"
     id="path24944" /><path
     fill="#fb292e"
     d="M 903.27108,3.7599655 H 847.77736 C 844.46917,3.7599655 841.46619,5.763133 840.30281,8.8211283 L 746.12926,252.67349 C 744.14242,257.79554 747.9976,263.27933 753.60622,263.27933 H 798.50387 C 801.81088,263.27933 804.81387,261.24105 805.97724,258.21934 L 903.33811,3.9449578 Z"
     id="path24946" /><path
     fill="#fb292e"
     d="M 936.06703,88.566887 918.05983,41.954579 854.93836,207.10667 H 890.7696 Z"
     id="path24948" /><path
     fill="#fb292e"
     d="M 950.69298,126.54608 919.85157,207.2811 937.92219,253.89575 968.73129,173.24735 Z"
     id="path24950" /><path
     fill="#fb292e"
     d="M 666.61758,105.75001 C 636.66547,93.886784 625.27348,83.49168 625.27348,69.771639 625.27348,59.735958 635.50209,50.897954 649.16097,50.838244 670.3842,50.779707 695.19208,67.823508 703.52241,73.186722 707.1933,75.495446 712.12566,74.478063 714.54816,70.910782 L 736.13882,39.066336 C 738.56012,35.500226 737.64092,30.710694 734.05504,28.250926 720.18072,17.675534 688.91202,-0.26858912 652.19388,0.00304874 593.78934,0.42685677 564.60441,37.119376 564.60441,73.843515 564.60441,118.36018 605.55116,143.22577 638.16634,155.83242 663.95451,165.83767 677.24474,177.73251 677.24474,193.30936 677.24474,206.28129 666.24893,215.56768 651.05924,215.56768 625.4267,215.56768 597.21963,194.95661 595.71991,194.20732 591.83003,191.75343 586.62237,193.01082 584.35666,196.93401 L 566.28724,228.44947 C 564.56853,231.47118 565.08917,235.27612 567.5715,237.76514 576.51465,246.66402 603.0353,267.12174 653.72231,267.12174 709.46138,267.12174 743.24116,228.53845 743.24116,190.34619 743.24116,139.86806 696.19867,117.2503 666.61399,105.7465"
     id="path24952" /></svg>
