<?xml version="1.0" encoding="UTF-8" standalone="no"?>
<!-- Created with Inkscape (http://www.inkscape.org/) -->

<svg
   version="1.1"
   id="svg1"
   width="999.99988"
   height="523.98138"
   viewBox="0 0 999.99989 523.98137"
   xml:space="preserve"
   xmlns="http://www.w3.org/2000/svg"
   xmlns:svg="http://www.w3.org/2000/svg"><defs
     id="defs1" /><path
     style="fill:#000000;fill-opacity:1;fill-rule:evenodd;stroke-width:13.0731"
     d="m 775.1479,397.77918 c -17.6728,20.4016 -20.0866,21.9676 -26.4411,29.2783 v 0 l 79.7056,96.899 h 171.5615 l 0.026,-126.1525 z"
     id="path10" /><path
     style="fill:#000000;fill-opacity:1;fill-rule:evenodd;stroke-width:13.0731"
     d="m 514.5321,292.94697 c -29.2668,21.22849 -47.431,39.82314 -47.431,75.88536 0,41.69705 38.0793,79.36585 78.9668,79.36585 28.5625,0 47.0836,-7.62 69.5163,-28.1278 z"
     id="path9" /><path
     style="fill:#000000;fill-opacity:1;fill-rule:evenodd;stroke-width:13.0731"
     d="m 542.4252,71.66329 c -25.9019,0 -39.5088,18.02455 -39.5088,40.64211 0,17.79526 14.5633,34.89205 31.1791,54.77086 6.6049,-4.14872 19.9153,-13.6963 19.9455,-13.71858 h 0.026 c 15.2778,-10.96544 27.7402,-23.84146 27.7402,-40.95008 0,-22.59134 -14.7969,-40.74431 -39.3815,-40.74431 z"
     id="path8" /><path
     style="fill:#000000;fill-opacity:1;fill-rule:evenodd;stroke-width:13.0731"
     d="M 999.9995,0.02622 H 613.9284 c 40.431,20.96643 63.8358,61.34387 63.8358,110.6674 0,41.40868 -21.1675,69.26785 -53.2645,93.33993 0,0 -24.0826,18.76496 -37.2162,27.84605 L 688.3099,353.27133 728.15,310.83659 H 983.6457 V 203.62469 H 727.6914 v -84.97172 h 272.3081 z"
     id="path7" /><path
     style="fill:#000000;fill-opacity:1;fill-rule:evenodd;stroke-width:13.0731"
     d="M 207.4533,0.02622 0,523.98138 h 175.459 l 33.9047,-97.2043 h 164.2 c -5.895,-17.9264 -8.9411,-38.03579 -8.9411,-60.27331 0,-68.42921 48.1914,-112.83612 93.4611,-143.70919 -21.2067,-24.79279 -51.8379,-62.40263 -51.8379,-113.56077 0,-49.08764 23.45,-88.60807 65.2113,-109.23381 z m 89.6401,137.69447 54.2577,167.51129 H 241.3326 Z"
     id="path2" /></svg>
