<?xml version="1.0" encoding="utf-8"?>
<!-- Generator: Adobe Illustrator 23.0.3, SVG Export Plug-In . SVG Version: 6.00 Build 0)  -->
<svg version="1.1"
	 id="svg2" inkscape:version="0.91 r13725" sodipodi:docname="Adult_Swim.svg" xmlns:cc="http://creativecommons.org/ns#" xmlns:dc="http://purl.org/dc/elements/1.1/" xmlns:inkscape="http://www.inkscape.org/namespaces/inkscape" xmlns:rdf="http://www.w3.org/1999/02/22-rdf-syntax-ns#" xmlns:sodipodi="http://sodipodi.sourceforge.net/DTD/sodipodi-0.dtd" xmlns:svg="http://www.w3.org/2000/svg"
	 xmlns="http://www.w3.org/2000/svg" xmlns:xlink="http://www.w3.org/1999/xlink" x="0px" y="0px" viewBox="0 0 1000 184.7"
	 style="enable-background:new 0 0 1000 184.7;" xml:space="preserve">
<g>
	<polygon points="0,184.7 51.7,184.7 51.7,161.8 30.6,161.8 30.6,24.2 51.7,24.2 51.7,1.4 0,1.4 	"/>
	<path d="M141,66.8c0-23.3-12.1-32.6-39.2-32.6c-13.7,0-23.1,1.8-30.8,7.1c-7.8,5.3-12.2,14.5-12.5,29.6l29.4,0
		c0.2-9.6,2.9-15.1,12.1-15.1c7.4,0,10.4,4.3,10.4,11c0,8.4-1.8,10-11.8,12.7c-9.2,2.5-21.4,4.5-29.6,9
		c-8.2,4.5-13.5,15.3-13.5,28.2c0,23.8,10.8,33.7,29.4,33.7c11.1,0,21.4-5.7,26-15.5h0.4c0.1,4.3,0.6,8.8,1.8,12.7h31.8
		c-3.8-4.9-3.8-15.5-3.8-23.9V66.8z M110.2,112.3c0,11-6.4,15.1-13.3,15.1c-6.1,0-9.6-5.3-9.6-14.1c0-6.2,1.6-9.6,5.1-12.2
		c3.1-2.5,7.6-2.7,18-8.2C110.3,97.4,110.2,103.2,110.2,112.3z"/>
	<path d="M209.6,49h-0.4c-5.5-11.9-15.5-14.9-24.7-14.9c-27.2,0-32,24.7-32,59c0,41.2,11.8,57.2,34.1,57.2
		c14.7,0,21.4-8.8,23.9-16.4h0.4v13.5h31.9V1.6h-33.1V49z M198.4,126.2c-12.5,0-12.9-16.9-12.9-34.7c0-20,0.6-33.3,12.7-33.3
		c11.2,0,12.1,15.1,12.1,34.7C210.2,114.4,208.2,126.2,198.4,126.2z"/>
	<path d="M311.9,109.3c0,10.8-5.5,15.7-11.8,15.7c-6.1,0-9.6-4.7-9.6-12.6V37h-33.1v82.7c0,21.3,10,30.7,28.8,30.7
		c12.2,0,21.8-6.1,26.5-15.9h0.4v13.1H345V37h-33.1V109.3z"/>
	<rect x="360.5" y="1.6" width="33.1" height="145.8"/>
	<path d="M450.2,4.5h-33.1V37h-13.7v22.9h13.7l0,59c0,25.7,6.6,29.8,29.4,29.8c6.3,0,12.7-0.4,19-1.2v-22c-1.4,0.2-3.3,0.4-4.7,0.4
		c-7.8,0-10.6-2.5-10.6-10.2V59.8h15.3V37h-15.3V4.5z"/>
	<path d="M536.3,64.7c0-5.9,2.5-10.2,11.2-10.2c7,0,10.8,2.6,10.8,12.2v2.1h29.4v-3.7c0-15.9-9-31-40-31
		c-26.6,0-42.1,11.2-42.1,33.3c0,23.3,13.1,28.6,40.2,37.8c10.2,3.5,12.7,8.4,12.7,13.5c0,6.3-4.1,11.2-11.8,11.2
		c-5.4,0-8.4-2-10.2-5.1c-1.6-3.3-2-7.6-2.3-12.5l-29.4,0v4.9c0,22,12.5,33.1,42.1,33.1c27.3,0,42.2-13.9,42.2-36.1
		C589.2,71.3,536.3,84.3,536.3,64.7z"/>
	<polygon points="697.2,118.5 696.8,118.5 685.2,37 649.6,37 637.2,118.5 636.8,118.5 626.1,37 593.1,37 616.2,147.5 654.1,147.5 
		667,66 667.5,66 679.5,147.5 716.9,147.5 740.7,37 708.9,37 	"/>
	<g>
		<rect x="750.5" y="0" width="33.1" height="25.3"/>
		<rect x="750.5" y="37" width="33.1" height="110.5"/>
	</g>
	<path d="M912.1,34.1c-12.3,0-19.6,4.1-27.4,16.9c-4.9-15.1-17.6-16.9-27.2-16.9c-12.2,0-21.9,6.1-26.5,15.9h-0.4V37h-31.8v110.5
		h33.1V75.2c0-10.8,5.5-15.7,11.8-15.7c6.1,0,9.6,4.7,9.6,12.7v75.4h33.1V75.2c0-10.8,5.5-15.7,11.9-15.7c6.1,0,9.6,4.7,9.6,12.7
		v75.4h33.1V64.7C940.9,43.5,930.9,34.1,912.1,34.1z"/>
	<polygon points="948.4,1.4 948.4,24.2 969.4,24.2 969.4,161.8 948.4,161.8 948.4,184.7 1000,184.7 1000,1.4 	"/>
</g>
</svg>
