<?xml version="1.0" encoding="UTF-8" standalone="no"?>
<!-- Created with Inkscape (http://www.inkscape.org/) -->

<svg
   version="1.1"
   width="1000"
   height="562.5"
   xml:space="preserve"
   viewBox="0 0 1000 562.50002"
   id="svg12519"
   sodipodi:docname="AMC_(2019).svg"
   inkscape:version="1.2.1 (9c6d41e410, 2022-07-14)"
   xmlns:inkscape="http://www.inkscape.org/namespaces/inkscape"
   xmlns:sodipodi="http://sodipodi.sourceforge.net/DTD/sodipodi-0.dtd"
   xmlns="http://www.w3.org/2000/svg"
   xmlns:svg="http://www.w3.org/2000/svg"><sodipodi:namedview
     id="namedview5"
     pagecolor="#ffffff"
     bordercolor="#666666"
     borderopacity="1.0"
     inkscape:showpageshadow="2"
     inkscape:pageopacity="0.0"
     inkscape:pagecheckerboard="0"
     inkscape:deskcolor="#d1d1d1"
     showgrid="false"
     inkscape:zoom="0.5"
     inkscape:cx="557"
     inkscape:cy="328"
     inkscape:window-width="1366"
     inkscape:window-height="705"
     inkscape:window-x="-8"
     inkscape:window-y="-8"
     inkscape:window-maximized="1"
     inkscape:current-layer="svg12519" /><defs
     id="defs2" /><path
     id="path1137"
     style="stroke-width:0.84542;fill:#000000"
     d="M 0 0 L 0 562.5 L 1000 562.5 L 1000 0 L 0 0 z M 8.4394531 8.4394531 L 991.56055 8.4394531 L 991.56055 554.06055 L 8.4394531 554.06055 L 8.4394531 8.4394531 z M 230.03711 154.26953 C 150.61355 154.26953 124.61328 204.89564 124.61328 232.89844 L 179.41016 232.89844 C 181.27696 218.09998 196.57839 201.0918 231.89453 201.0918 C 267.84941 201.0918 281.91992 223.91789 281.91992 252.78516 L 255.20117 252.78516 C 165.92832 252.78516 115.57227 277.77299 115.57227 333.24023 C 115.57227 372.84852 154.18752 408.11523 204.37109 408.11523 C 235.96974 408.11523 271.7058 392.92173 283.42773 383.25781 L 284.23047 401.72266 L 335.66211 401.72266 L 335.66211 265.36523 C 335.66211 196.7034 308.524 154.26953 230.03711 154.26953 z M 775.81445 154.4375 C 705.9339 154.4375 659.14648 206.98548 659.14648 281.83789 C 659.14648 337.06641 694.89361 408.22461 776.24609 408.22461 C 840.81719 408.22461 881.87523 356.62783 890.04297 310.82617 L 834.9375 310.82617 C 827.74972 334.37788 805.74701 357.93164 775.67188 357.93164 C 742.76963 357.93164 711.95508 326.36245 711.95508 280.67969 C 711.95508 242.64353 737.84214 204.44141 775.81445 204.44141 C 809.51686 204.44141 828.91471 231.50442 835.22461 251.54688 L 889.32617 251.54688 C 880.29768 199.45896 837.19905 154.4375 775.81445 154.4375 z M 369.41406 160.64844 L 369.41406 401.70312 L 424.06055 401.70312 L 424.06055 218.42383 L 474.74609 401.70312 L 526.92383 401.70312 L 578.03906 218.05273 L 578.03906 401.70312 L 633 401.70312 L 633 160.64844 L 546.20898 160.64844 L 501.22461 335.76172 L 454.59766 160.64844 L 369.41406 160.64844 z M 263.23633 296.00586 L 282.62305 296.00586 L 282.62305 309.65039 C 282.62305 338.11968 254.99985 360.88672 215.52148 360.88672 C 191.41844 360.88672 171.22266 351.98505 171.22266 334.86328 C 171.22266 311.30224 189.61997 296.00586 263.23633 296.00586 z " /></svg>
