<?xml version="1.0" encoding="utf-8"?>
<!-- Generator: Adobe Illustrator 22.0.1, SVG Export Plug-In . SVG Version: 6.00 Build 0)  -->
<svg version="1.1" id="Layer_1" xmlns="http://www.w3.org/2000/svg" xmlns:xlink="http://www.w3.org/1999/xlink" x="0px" y="0px"
	 width="1000px" height="300.2818298px" viewBox="0 0 1000 300.2818298" enable-background="new 0 0 1000 300.2818298"
	 xml:space="preserve">
<g>
	<path d="M655.6494751,14.6041498v47.9118614c0,3.8431969-2.8183594,5.636692-6.1491089,3.8431969
		c0,0-40.737915-19.2159843-66.3591919-19.4721985c-10.2485352,0-21.265686,0.5124283-30.7456055,5.1242638
		c-7.942627,3.8431969-13.5792847,11.7858047-12.2982178,21.0094795c1.0248413,5.8928986,5.8928833,9.9923096,10.5047607,13.066864
		c8.1987915,5.1242676,17.6786499,8.1988297,26.9023438,10.7609558c12.5544434,3.3307724,25.3651123,5.6366959,37.6633301,9.4798889
		c18.7036133,5.6366959,37.4071655,15.3727875,47.6557007,33.0514984c5.1242676,8.967453,7.942627,19.2159882,8.7112427,29.4645081
		c1.0247803,10.7609406,0.5124512,22.0343323-2.3059082,32.5390625
		c-4.868042,18.1911316-17.1663208,32.2828522-33.8201294,40.2254639
		c-19.2160034,9.2236633-41.7627563,11.0171661-62.7722168,11.0171661
		c-26.3900146-0.2562103-52.7799683-4.6118469-78.4012756-12.0420074l-3.0745544-1.0248566
		c-3.5869446-1.0248566-6.1490784-2.5621338-6.1490784-2.5621338v-4.6118469v-17.6786957v-25.1088867
		c0-3.8432007,2.8183594-5.6366882,6.1490784-4.099411c0,0,41.7627563,18.9597778,67.6402588,21.0094757
		c11.2733765,0.7686462,23.3154297,0.7686462,34.076355-2.5621338c8.7112427-2.5621338,17.4224854-7.6864014,19.7283936-16.9100647
		c2.0497437-8.9674683-1.0248413-19.2159882-8.9674072-24.5964661c-6.6615601-4.3556213-15.1165771-6.9177551-22.8029785-8.967453
		c-14.3479614-4.099411-28.9520874-6.4053345-43.2999878-10.7609558
		c-18.4473877-5.6366882-37.4071655-14.8603592-47.6557007-32.0266495
		c-5.3804932-8.967453-7.942627-19.2159805-8.7112122-29.4645081c-0.7686462-10.5047455,0-21.521904,3.5869446-31.5142174
		c6.1491089-18.4473476,21.009491-31.7704315,38.6882324-39.4568253
		c21.0094604-8.9674606,44.8372803-9.9923134,67.3840332-8.7112484
		C612.8618774,3.074558,634.6399536,7.4301815,655.6494751,14.6041498
		C655.6494751,14.6041498,643.0950317,10.2485266,655.6494751,14.6041498"/>
	<path d="M217.0125427,110.9403v126.5692978c0,5.6366882-4.6118469,10.2485352-10.2485352,10.2485352h-41.7627258
		c-5.6367035,0-10.2485352-4.6118469-10.2485352-10.2485352v-6.1491241c0-5.636673-3.0745544-6.9177399-6.9177551-2.8183289
		c0,0-10.2485199,11.2733765-22.0343323,16.9100647c-11.7858047,5.636673-24.852684,8.4550323-39.2006149,8.4550323
		c-27.158596,0-48.4242859-7.1739655-63.7970734-21.5219116C7.6863947,217.7811737,0,197.7965546,0,171.9190369
		c0-27.9272461,8.9674606-48.6805038,27.158596-62.0035858s46.1183662-19.9846268,84.0379181-19.9846268h33.3077087
		c5.6366882,0,10.2485199-2.3059235,10.2485199-5.3804703c0-2.8183441-1.0248566-9.7360992-2.0496979-15.3727875
		c0,0-1.5372772-7.6863976-8.9674683-13.0668755c-7.4301758-5.1242638-18.191124-7.6863937-32.5390625-7.6863937
		c-15.1165848,0-29.4645157,1.7934952-43.5562439,5.636692S38.9444046,63.7970886,23.5716133,72.252121V28.9520874
		c0-5.6366901,4.3556232-11.7858047,9.7360992-13.8355112c0,0,18.1911316-6.4053288,32.5390739-9.2236729
		c14.3479309-2.5621319,29.4645081-3.8431976,45.6059341-3.8431976c38.9444046,0,66.3592148,7.9426079,82.2444229,23.8278236
		C209.3261414,41.7627449,217.0125427,69.9461899,217.0125427,110.9403 M140.1486053,135.0243378
		c-5.6367035,0-14.8603668,0.2562103-20.4970627,0.768631c0,0-29.4645081,2.3059235-38.6881866,8.198822
		c-9.223671,5.8929138-13.8355103,16.3976593-13.8355103,30.7455902c0,10.7609406,3.3307724,19.4721985,9.7360992,25.8775177
		c6.4053345,6.4053345,15.1165848,9.7361145,26.1337433,9.7361145c16.6538544,0,29.4645157-6.1491241,38.6881943-18.7035675
		c9.2236786-12.5544586,13.5792999-29.976944,13.5792999-52.2674866c0-2.3059235-4.6118317-4.3556366-10.2485352-4.3556366
		C145.0166473,135.0243225,140.1486053,135.0243225,140.1486053,135.0243378z"/>
	<path d="M480.3996582,5.1242633H377.6581726c-4.868042,0-10.7609253,3.5869842-13.0668945,7.9426084
		c0,0-3.33078,7.4301815-5.8928833,14.3479347c-0.2562561,8.9674606,32.2828674,93.517807,32.2828674,93.517807
		l92.7491455-109.1468048C486.8049927,8.1988211,485.2677002,5.1242633,480.3996582,5.1242633"/>
	<path d="M468.357666,292.3392334L325.6469116,13.0668716c-2.3059082-4.3556242-8.1987915-7.9426079-13.066864-7.9426079
		H209.8385773c-4.8680573,0-6.4053192,3.0745583-3.0745544,6.9177551l98.6420746,118.3704834l-56.1106873,110.9402924
		c-2.3059235,4.3556213,0,7.9425964,4.8680573,7.9425964H273.12323c4.8680725,0,11.5296021-3.0745392,14.8603821-6.9177399
		l55.8544617-65.8467712l97.3610229,116.8331909c3.33078,3.8432007,9.9922791,6.9177551,14.8603516,6.9177551h7.1739807
		C468.357666,300.2818298,470.4073792,296.6948242,468.357666,292.3392334"/>
	<g>
		<path d="M699.2056885,0c-4.3556519,0-7.942627,3.5869842-7.942627,7.9426079v235.7161102
			c0,4.3556213,3.5869751,7.9425964,7.942627,7.9425964H992.057373c4.3556519,0,7.942627-3.5869751,7.942627-7.9425964V7.9426155
			c0-4.3556232-3.5869751-7.9426074-7.942627-7.9426074C992.057373,0.0000081,699.2056885,0.0000081,699.2056885,0z
			 M963.3614502,77.3763733c0.2562256,1.0248489-0.7686157,5.3804779-2.0496826,9.4798813l-35.869812,112.4775772
			c-1.2810669,4.099411-3.074585,8.4550476-3.8432007,9.4798889c-0.7686157,1.0248566-7.1739502,1.7934723-11.5296021,1.7934723
			h-19.7284546c-4.3556519,0-8.9674072-0.2561951-10.2484741-0.7686462
			c-1.2810669-0.5124054-3.8432007-6.4053192-5.3804932-10.5047302l-27.1586304-85.5751953
			c-1.2810669-4.099411-3.074585-9.223671-3.5869751-11.2733841l0,0l0,0c-2.0496826,0-7.4301758,0-11.7858276,0H809.633606
			c-4.3557129,0-8.9674683,0.5124283-9.9923096,0.7686386c-1.0248413,0.5124283-1.7935181,6.6615372-1.7935181,11.0171585
			v40.2254715c0,4.3556213,0,9.2236633,0,10.7609558c0,1.5372772,0.7686157,7.6863861,1.2810669,11.5295868
			c0,0,0,0,2.8183594,2.5621338s2.8183594,2.5621338,2.8183594,2.5621338
			c4.3556519,0.5124207,9.2236938,1.0248566,10.7609863,1.0248566s8.4549561,0.2562103,12.8106079,0.2562103h3.3307495
			c4.3556519,0,8.9674683,0.5124207,9.9923096,0.7686462c1.0248413,0.5124207,1.7935181,6.6615295,1.7935181,11.0171661v3.33078
			c0,4.3556213-0.5124512,8.9674683-0.7686157,9.9923248c-0.2561035,1.0248566-6.6615601,2.0497131-11.0170898,2.0497131
			h-19.4723511c-4.3556519,0-9.2236328,0-10.7609253-0.2562103c-1.5373535,0-8.4550171-1.0248566-12.8106689-1.7934875
			c0,0-8.4550171-1.2810669-15.6290283-7.9425964c-7.1739502-6.4053345-9.736084-27.9272461-9.736084-27.9272461
			c-0.5124512-4.3556213-1.0248413-11.5295868-1.0248413-15.8852234V114.783493
			c0-4.3556213-0.5124512-8.9674606-0.7686157-9.9923172c-0.5124512-1.0248566-6.6615601-2.0496979-11.0170898-2.0496979H739.687439
			c-4.3556519,0-8.9674683-0.5124283-9.9923096-0.7686386s-2.0496826-6.6615372-2.0496826-11.0171661v-3.3307724
			c0-4.3556213,0.5124512-8.9674606,0.7686157-9.9923096c0.5124512-1.0248489,6.6615601-2.0497055,11.0171509-2.0497055h10.7609863
			c4.3556519,0,8.9674072-0.5124283,9.9922485-0.7686386c1.0248413-0.5124283,1.7935181-6.6615372,1.7935181-11.0171661V49.1929283
			c0-4.3556252,0.5125122-8.9674568,0.7686157-9.9923096c0.5124512-1.0248528,6.6615601-2.0497055,11.0171509-2.0497055h11.5296021
			c4.3556519,0,8.9674683,0.5124245,9.9923096,0.7686386c1.0248413,0.5124245,2.0496826,6.6615448,2.0496826,11.01717v14.6041527
			c0,4.3556252,0.5124512,8.9674568,0.7685547,9.9923134c0.5125122,1.0248489,6.6615601,1.7934875,11.0171509,1.7934875h49.7053223
			c4.3556519,0,8.9674683,0.256218,10.2485352,0.7686386c1.2810669,0.5124283,3.5869751,6.4053345,4.868042,10.5047455
			l22.5467529,82.5006332c1.2810669,4.3556213,2.5621338,8.198822,2.8183594,8.7112579s2.3059082-4.6118469,3.3307495-8.7112579
			l22.5466919-82.5006332c1.2810669-4.355629,2.8183594-8.4550323,3.5869751-9.4798889s7.1739502-1.7934952,11.5296021-1.7934952
			h12.0420532C957.2123413,75.5828857,963.1052246,76.6077347,963.3614502,77.3763733z"/>
	</g>
</g>
</svg>
