<?xml version="1.0" encoding="utf-8"?>
<!-- Generator: Adobe Illustrator 16.0.0, SVG Export Plug-In . SVG Version: 6.00 Build 0)  -->
<!DOCTYPE svg PUBLIC "-//W3C//DTD SVG 1.1//EN" "http://www.w3.org/Graphics/SVG/1.1/DTD/svg11.dtd">
<svg version="1.1" id="Layer_1" xmlns="http://www.w3.org/2000/svg" xmlns:xlink="http://www.w3.org/1999/xlink" x="0px" y="0px"
	 width="1000px" height="697.663px" viewBox="0 0 1000 697.663" enable-background="new 0 0 1000 697.663" xml:space="preserve">
<g>
	<path fill="#FFFFFF" d="M199.556,0c77.842,0,145.27,44.571,178.166,109.591c49.22-7.258,104.253-10.613,164.809-10.613
		c293.414,0,457.469,78.615,457.469,299.045c0,220.445-181.701,299.64-457.469,299.64c-275.775,0-457.485-79.194-457.485-299.64
		c0-11.752,0.499-23.08,1.415-34.041C34.241,327.991,0,267.775,0,199.56C0,89.344,89.351,0,199.556,0"/>
	<path fill="#D92148" d="M925.597,497.078c-4.738,4.631-13.805,8.279-24.077,8.669c-14.245,0.553-25.63-7.671-26.774-23.594
		c-1.298-17.716,2.976-31.462,3.401-49.642c0.379-17.414-9.059-22.646-21.728-17.943c-12.475,4.652-25.986,24.703-25.213,43.071
		c0.75,18.523,2.659,47.223,3.362,53.491c0.812,7.176-2.211,9.244-11.022,9.6c-9.252,0.371-12.359-3.88-13.108-8.58
		c-0.734-4.703-15.088-103.897-15.753-111.17c-0.634-7.27,5.79-10.428,13.388-11.962c7.629-1.55,14.624,1.052,15.273,6.284
		c0.688,5.232,3.169,33.827,3.169,33.827s2.148-10.604,9.522-20.332c8.818-11.621,22.601-20.089,36.072-20.255
		c17.198-0.197,33.159,11.676,33.507,35.563c0.294,20.414-1.244,31.088-2.689,46.824c-1.129,12.662,0.131,16.193,3.115,17.484
		c2.991,1.291,6.175-0.201,9.777-2.693c3.957-2.752,6.979-2.768,9.824,0.564C929.516,490.787,928.28,494.458,925.597,497.078"/>
	<path fill="#B0479A" d="M480.63,374.476c18.056-3.618,34.009,5.182,38.078,23.488c1.774,7.924-2.944,12.252-8.293,14.152
		c-7.961,2.849-13.592,0.441-15.022-4.779c-3.366-12.387-8.486-17.832-16.243-15.695c-6.964,1.921-11.389,8.831-7.984,19.668
		c2.91,9.283,9.886,16.42,24.062,27.52c10.415,8.166,14.017,11.51,20.885,18.98c13.464,14.584,21.847,26.658,23.896,44.308
		c2.582,22.357-10.114,37.649-28.691,44.804c-20.301,7.814-42.469,4.092-55.157-3.212c-6.949-3.996-10.813-10.392-1.546-18.616
		c7.791-6.91,13.781-4.494,20.61,0.893c10.535,8.336,21.063,9.152,28.471,5.936c8.595-3.756,13.375-12.025,9.063-27.393
		c-2.833-10.043-12.197-21.344-21.345-29.869c-7.915-7.386-11.683-11.984-21.878-20.611c-15.165-12.854-21.584-28.191-20.231-45.27
		C450.632,391.958,463.869,377.845,480.63,374.476"/>
	<path fill="#FBBC41" d="M443.208,519.9c-7.405,5.027-17.364,7.496-26.094,6.26c-14.35-2.033-22.175-10.93-21.858-26.188
		c0.29-14.318,4.17-47.365,4.707-59.188c0.626-14.059-4.858-19.377-14.635-17.24c-17.418,3.807-34.017,26.168-34.523,44.143
		c-0.41,14.578-1.503,22.508-1.036,30.029c0.448,7.535-2.891,9.197-10.767,8.92c-7.563-0.271-11.466-3.104-12.178-9.268
		c-0.738-6.168-6.81-82.342-7.126-89.896c-0.348-7.544,5.036-10.965,15.15-10.686c8.216,0.228,13.194,3.949,13.495,10.801
		c0.317,6.841,0.769,30.829,0.769,30.829s3.339-9.329,11.142-19.888c7.965-10.768,18.334-16.41,29.657-18.342
		c18.237-3.135,34.952,8.131,36.181,29.34c1.345,23.146-3.625,59.301-3.814,70.303c-0.073,4.494,0.847,7.227,3.188,8.476
		c2.856,1.519,6.57,0.808,9.986-1.283c3.358-2.063,6.991-2.69,9.256,2.021C446.78,513.244,446.718,517.511,443.208,519.9"/>
	<path fill="#32AADF" d="M683.607,414.529c1.739-15.838-5.99-23.088-15.775-19.795c-11.146,3.748-17.986,20.553-16.703,47.732
		C667.839,441.856,681.883,430.586,683.607,414.529 M712.298,485.507c-9.337,12.974-28.058,22.816-46.484,20.936
		c-26.109-2.66-42.551-19.162-42.581-56.447c-0.038-37.929,19.114-64.974,41.993-71.126c21.434-5.739,37.835,3.042,43.37,23.114
		c4.622,16.656,0.216,34.729-14.671,44.583c-17.615,11.641-41.847,8.421-41.847,8.421s0.712,33.275,19.609,35.135
		c12.437,1.221,21.58-5.96,28.058-15.008c3.795-5.279,7.567-6.006,11.238-2.589C715.977,477.132,715.428,481.164,712.298,485.507"/>
	<path fill="#B0479A" d="M200.607,419.05c-10.964,2.266-19.401,11.842-21.078,39.142c17.936,0.085,31.018-6.16,32.733-20.858
		C214.014,422.296,207.413,417.644,200.607,419.05 M236.008,505.554c-12.162,6.963-25.596,9.521-42.535,7.859
		c-22.326-2.194-44.019-18.26-42.017-50.878c1.897-31.095,21.654-52.339,43.142-58.198c19.18-5.236,39.52,2.227,43.605,20.648
		c4.757,21.279-7.03,37.338-28.954,43.51c-14.373,4.054-29.948,2.589-29.948,2.589c1.646,17.771,11.556,26.318,25.998,27.173
		c9.627,0.584,17.317-2.234,23.517-5.921c4.251-2.539,7.803-2.233,10.187,2.296C241.929,500.283,240.34,503.083,236.008,505.554"/>
	<path fill="#FBBC41" d="M787.048,504.375c-6.415,6.342-17.808,10.029-28.923,8.797c-15.033-1.705-22.84-11.258-23.675-29.492
		c-0.936-19.694-1.438-78.627-1.214-85.506c0.201-6.895,7.598-8.889,16.046-7.984c8.456,0.885,12.274,3.424,12.313,10.061
		c0.046,6.654-2.574,76.211-2.59,83.58c-0.038,7.367,0.649,11.016,4.993,12.805c3.633,1.495,9.113,0.182,12.73-2.319
		c5.31-3.663,8.062-3.663,10.597,0.038C790.442,498.945,789.932,501.566,787.048,504.375"/>
	<path fill="#27B571" d="M306.337,496.919c-5.666,3.641-14.122,5.686-21.743,4.789c-10.044-1.164-19.865-8.174-21.979-23.586
		c-2.983-21.569-3.2-60.549-2.794-66.855c0.371-5.542,6.095-8.827,13.384-10.272c8.263-1.639,14.396,1.469,14.666,7.849
		c0.229,5.693-1.708,53.773-0.776,68.062c0.34,5.415,1.426,7.892,3.98,8.657c3.467,1.047,7.741-0.781,10.384-2.176
		c2.644-1.399,6.079-0.777,7.544,3.675C310.588,491.865,310.017,494.562,306.337,496.919"/>
	<path fill="#27B571" d="M278.218,374.87c-8.738,1.306-15.752-2.872-17.581-8.815c-2.334-7.633,1.631-18.141,11.977-21.236
		c9.666-2.898,19.053,2.508,20.603,10.203C295.226,364.883,286.948,373.556,278.218,374.87"/>
	<path fill="#27B571" d="M840.002,224.634c-0.077-6.238-7.637-9.878-16.216-9.152c-9.431,0.808-11.726,4.997-11.648,11.057
		c0.34,23.026,1.353,23.146,0.695,40.448c-0.502,13.375-8.03,21.398-17.089,23.965c-9.168,2.597-18.713,0.572-23.32-6.006
		c-6.747-9.658-6.354-23.706,4.809-73.618c1.298-5.793-2.443-10.922-13.249-12.363c-8.162-1.082-14.261,0.966-15.898,8.421
		c-6.315,28.938-8.611,49.414-4.398,70.117c3.927,19.489,16.904,30.388,34.279,31.899c10.876,0.943,19.641-2.191,26.18-6.357
		c7.775-4.955,10.249-9.353,10.249-9.353s0.781,14.184-0.928,34.349c-1.77,20.998-10.751,32.467-24.502,33.557
		c-13.928,1.109-23.497-7.548-24.95-22.415c-1.021-10.416-6.701-16.255-16.819-13.92c-12.096,2.794-17.561,11.714-13.434,21.275
		c9.322,21.448,32.433,32.46,61.116,28.042c27.655-4.259,40.324-20.459,42.295-55.323
		C839.292,281.943,840.443,252.352,840.002,224.634"/>
	<path fill="#B0479A" d="M697.327,331.914c-8.533,1.971-19.169,0.325-27.331-3.173c-4.939-2.099-8.146-4.251-10.125-6.578
		c-1.415-1.662-3.186-5.082-1.207-9.159c1.778-3.617,4.955-4.437,9.145-2.137c4.978,2.74,11.818,3.942,18.689,1.206
		c8.518-3.389,14.431-16.297,11.563-38.79c-3.277-25.766-13.65-37.773-27.185-36.158c-14.377,1.712-24.765,15.261-24.293,38.411
		c0.231,10.331,2.056,40.676,2.226,46.422c0.209,7.683-3.625,9.38-10.342,9.337c-6.747-0.046-11.146-3.061-12.042-8.642
		c-0.758-4.819-15.869-145.721-15.722-152.052c0.162-7.49,6.608-9.839,15.095-9.128c8.541,0.708,13.07,4.545,13.597,10.392
		c0.549,5.836,5.264,69.564,5.264,69.564s2.767-7.123,7.443-12.487c7.621-8.819,18.829-13.728,32.285-11.621
		c18.551,2.914,34.272,20.019,39.266,52.343C729.635,308.548,717.693,327.21,697.327,331.914"/>
	<path fill="#D92148" d="M453.798,322.793c-11.865,4.313-24.417,3.165-35.227-1.596c-6.033-2.67-8.201-6.129-7.482-10.701
		c0.928-5.588,4.78-5.631,8.931-3.942c6.979,2.856,13.658,2.485,19.652-0.715c7.984-4.267,12.955-16.429,9.198-40.022
		c-4.333-27.246-16.274-36.401-29.573-33.125c-7.938,1.963-15.439,9.735-19.034,19.88c-2.612,7.339-3.347,15.586-2.168,29.167
		c0.688,8.027,5.809,36.854,6.276,41.688c0.491,4.858-0.642,9.086-8.557,11.057c-9.418,2.327-12.243-1.051-13.004-5.167
		c-0.823-4.355-24.116-131.909-24.56-137.98s6.063-9.801,14.04-10.979c8.626-1.271,12.936,2.068,13.905,8.313
		c0.754,4.947,6.872,49.696,7.053,49.928c0.301-0.336,1.956-4.448,5.716-9.356c8.715-11.432,19.771-16.892,34.952-16.297
		c18.245,0.719,35.021,16.533,40.842,50.314C480.97,299.454,473.728,315.52,453.798,322.793"/>
	<path fill="#32AADF" d="M609.081,311.937c-5.503,6.462-15.034,10.06-24.587,9.643c-7.915-0.363-13.805-4.321-16.611-10.709
		c-1.939-4.371-1.766-8.429-1.766-8.429c-1.604,3.482-3.98,8.151-9.063,12.939c-6.883,6.5-16.271,10.948-28.073,10.098
		c-15.37-1.105-32.277-13.391-35.11-46.743c-2.628-30.883,12.34-51.312,27.594-58.333c8.877-4.085,17.371-4.101,24.336-1.929
		c3.842,1.202,6.404,3.907,5.82,7.984c-0.588,4.17-3.502,5.674-7.467,5.059c-6.133-0.981-11.783,1.013-16.271,5.592
		c-8.729,8.985-12.158,21.75-9.047,40.139c3.671,21.719,14.569,27.663,27.061,24.908c11.489-2.539,16.065-11.563,16.606-25.066
		c0.274-7.424-1.623-55.334-1.584-58.252c0.076-5.534,5.801-8.185,12.15-7.559c6.338,0.626,13.456,4.027,13.92,9.72
		c0.256,3.061-0.309,73.131-0.131,75.949c0.193,3.969,1.438,6.207,4.135,7.037c3.293,1.021,6.717-0.054,9.461-2.721
		c2.821-2.786,6.121-3.161,8.626,0.205C611.392,304.571,611.322,309.359,609.081,311.937"/>
	<path fill="#27B571" d="M602.147,397.915c-7.536,0.997-22.964,3.603-22.964,3.603s-1.662-38.133-2.411-44.444
		c-0.758-6.331-5.55-9.546-14.099-7.741c-7.687,1.615-14.516,6.191-13.909,12.656c0.421,4.607,2.849,33.006,2.849,33.006
		c0.989,9.236-1.098,11.087-7.463,12.211c-1.283,0.232-1.971,0.414-3.323,0.674c-5.688,1.108-7.567,3.3-7.629,8.629
		c-0.05,5.697,1.731,6.875,5.739,6.551c3.98-0.313,14.895-1.156,14.895-1.156s5.823,71.775,7.984,83.455
		c2.778,15.118,9.916,21.236,23.883,22.391c11.672,0.959,23.281-4.057,30.779-11.064c2.982-2.809,3.3-5.816-0.117-9.75
		c-3.385-3.877-6.909-3.428-9.762-1.275c-4.584,3.436-9.507,6.261-13.418,5.542c-4.482-0.831-5.279-4.529-6.067-9.704
		c-0.974-6.458-6.794-82.345-6.794-82.345s19.771-2.002,24.309-2.513c4.282-0.471,7.807-3.021,7.676-10.936
		C612.187,398.459,609.552,396.941,602.147,397.915"/>
	<path fill="#1B1A1A" d="M174.413,94.008c0.151,7.393,0.355,15.165,1.364,22.608c0.395,2.96,0.773,5.751,1.036,8.333
		c0.197,1.805,0.332,3.54,0.452,5.128c0.401,5.256,0.665,7.811,2.04,8.622c0.665,0.387,1.426,0.537,2.257,0.44
		c0.893-0.093,6.435-0.703,7.59-2.199c0.966-1.245,0.046-4.576-0.499-8.05c-0.989-6.284-1.372-19.037-1.379-20.367
		c-0.046-3.219-1.623-16.834-1.623-22.871c0-3.768-0.259-12.491-0.688-16.495c-0.108-1.179-0.151-4.212-2.953-5.353
		c-0.085-0.031-3.126-1.407-4.85-1.43c-1.569-0.027-3.563,0.877-3.822,3.362c-0.587,5.491-0.189,11.223,0.243,17.294
		C173.98,88.729,174.297,87.79,174.413,94.008"/>
	<path fill="#1B1A1A" d="M261.731,137.169c-1.028,0.761-7.161,4.68-8.293,6.071c-0.862,1.078-1.14,2.067-0.862,2.945
		c0.309,0.951,1.897,1.94,3.482,2.35c1.368,0.352,2.357,0.453,3.339,0.36c1.743-0.178,3.389-1.071,5.7-2.385
		c2.555-1.48,9.314-5.206,12.839-7.161c16.413-9.113,29.062-17.294,31.768-18.972c2.33-1.449,2.786-6.628,1.963-8.232
		c-0.642-1.283-1.835-1.546-4.344-1.291c-5.082,0.506-26.925,14.303-29.387,15.717C271.397,130.332,264.417,135.136,261.731,137.169
		"/>
	<path fill="#1B1A1A" d="M292.115,86.677c-3.285-1.353-5.209-2.214-8.525,0.537c-11.185,9.237-23.161,20.367-25.02,22.052
		c-0.908,0.847-4.124,3.459-12.576,12.522c-1.464,1.557-4.63,5.863-5.326,6.086c-1.349,0.259-1.175-0.68,0.379-4.031
		c1.766-3.783,3.792-16.842,4.472-19.184c0.688-2.388,1.882-11.969,2.099-14.57c0.182-2.195,0.386-11.215,0.131-13.669
		c-0.1-0.854-0.205-1.646-0.854-2.233c-1.036-0.951-2.933-1.291-4.804-0.87c-1.94,0.417-2.999,1.577-3.385,3.088
		c-1.252,4.819-3.134,20.054-4.521,25.809c-0.611,2.559-3.309,19.258-3.911,22.778c-0.487,2.81-3.552,13.758,1.313,17.024
		c1.84,1.237,4.483,1.356,6.191,0.035c0.402-0.143,0.777-0.317,1.109-0.537c1.867-1.244,5.905-4.877,7.385-6.326
		c3.181-3.135,14.284-12.205,16.556-14.918c2.064-2.462,8.12-7.861,9.758-9.387c1.851-1.743,10.821-9.46,14.404-12.34
		c2.504-2.01,6.817-6.489,7.378-7.385c0.452-0.742,0.838-1.535,0.564-2.357C294.639,87.871,293.673,87.318,292.115,86.677"/>
	<path fill="#1B1A1A" d="M204.913,136.887c0.97,0.545,3.069,1.102,5.136-0.135c1.043-0.626,1.082-3.292,1.445-7.884
		c0.201-2.412,1.956-10.999,3.034-14.157c1.836-5.453,8.302-28.931,10.837-38.705c0.267-1.012,0.804-3.517,2.11-7.807
		c2.493-8.205,1.14-8.239,0.135-8.862c-1.692-1.039-5.407-1.813-7.826-0.699c-1.654,0.761-3.192,4.877-5.345,11.084
		c-0.711,2.11-2.968,12.433-3.482,13.565c-0.425,0.912-8.317,27.188-9.314,32.347c-0.348,1.766-1.654,14.748-1.488,16.533
		C200.337,134.22,203.548,136.152,204.913,136.887"/>
	<path fill="#1B1A1A" d="M96.988,126.781c3.332,2.667,15.752,15.014,21.797,19.389c1.72,1.244,3.161,2.384,4.054,3.006
		c1.987,1.364,4.139,1.813,5.944-1.241c1.994-3.396,1.464-5.7-0.34-7.424c-1.291-1.217-2.597-2.5-3.903-3.783
		c-2.38-2.327-4.827-4.742-7.266-6.825c-5.391-4.63-18.867-16.154-21.275-16.247c-2.079-0.077-5.596,3.339-5.712,4.97
		C90.128,121.042,91.075,122.039,96.988,126.781"/>
	<path fill="#1B1A1A" d="M274.566,152.956c-1.426,0.46-3.173,1.372-4.155,2.628c-1.237,1.608-1.275,4.688,1.067,6.84
		c1.043,0.955,2.833,0.758,4.085,0.53c1.82-0.333,4.085-1.071,6.45-1.852c2.929-0.958,6.04-1.623,8.641-2.354
		c10.238-2.871,24.475-8.007,27.261-8.61c5.024-1.082,11.301-2.438,15.316-4.646c1.306-0.719,1.754-2.983,0.862-4.448
		c-2.559-4.201-2.906-4.645-10.164-2.937c-7.242,1.705-18.369,5.612-29.348,9.094C286.747,149.679,274.944,152.836,274.566,152.956"
		/>
	<path fill="#1B1A1A" d="M64.498,145.428c2.295,1.434,7.374,4.63,13.46,8.487c2.346,1.472,18.991,10.883,24.166,13.248
		c6.365,2.914,13.407,7.068,14.833,7.93c1.828,1.102,3.301,1.712,4.889,1.592c5.264-0.39,7.22-2.226,8.932-3.996
		c0.8-0.831,0.259-2.187-0.611-3.208c-2.384-2.748-37.913-20.869-39.74-22.067c-4.75-3.111-15.377-9.685-21.994-11.223
		c-1.237-0.282-3.103,0.538-4.552,2.014c-0.673,0.696-1.813,2.11-1.774,3.749C62.163,144.052,63.253,144.655,64.498,145.428"/>
	<path fill="#1B1A1A" d="M108.219,190.892c3.428,0.437,11.857,0.174,12.437-4.591c0.348-2.848-1.442-3.903-3.39-4.591
		c-2.96-1.059-5.959-1.94-9.047-2.469c-5.241-0.893-41.449-4.858-47.837-5.387c-1.692-0.155-4.448-0.77-5.882,0.606
		c-1.171,1.109-1.337,6.079,2.342,8.61c2.083,1.426,4.379,2.045,8.789,2.227C73.251,185.605,92.01,188.824,108.219,190.892"/>
	<path fill="#1B1A1A" d="M284.386,167.936c-3.869-0.081-5.917,1.646-5.522,3.71c0,0,1.337,4.008,4.139,5.519
		c2.81,1.504,5.098-0.031,35.323-0.042c5.604,0,8.17-0.568,10.083-1.739c2.036-1.245,2.944-2.4,3.389-4.274
		c0.467-1.882-1.079-4.525-2.659-4.978c-1.6-0.452-20.579,0.603-25.526,0.943c-6.323,0.417-12.703,0.657-19.026,0.854
		C284.904,167.943,285.178,167.951,284.386,167.936"/>
	<path fill="#1B1A1A" d="M112.636,209.546c0.99-1.198,1.608-3.617,1.434-5.09c-0.197-1.569-1.268-3.316-1.859-3.752
		c-0.263-0.189-0.564-0.228-0.8-0.244c-1.368-0.058-12.212-0.035-17.089,0.939c-4.549,0.904-22.582,4.402-23.54,4.591
		c-2.617,0.549-4.248,1.244-5.279,3.594c-1.171,2.713-1.646,4.765-1.438,6.624c0.1,1.005,1.155,2.122,2.895,2.203
		c0.112,0.008,0.224,0.008,0.34,0c2.589-0.081,13.631-2.845,15.617-3.262C104.048,210.644,111.782,210.59,112.636,209.546"/>
	<path fill="#1B1A1A" d="M157.567,234.702c1.654,5.708,6.179,6.168,8.51,4.789c2.334-1.368,1.785-5.214,1.279-7.397
		c-0.499-2.18-1.755-4.75-4.282-4.757C160.036,227.328,156.388,230.609,157.567,234.702"/>
	<path fill="#1B1A1A" d="M250.423,226.814c3.536-0.85,4.004-6.493,3.211-9.476c-0.773-2.991-5.287-4.132-7.335-3.022
		c-3.27,1.766-2.999,5.422-2.129,8.406C245.055,225.712,247.954,227.397,250.423,226.814"/>
	<path fill="#1B1A1A" d="M329.583,208.031c-3.587-3.822-9.264-7.002-14.694-7.582c0-0.101-6.427-0.727-9.607-0.464
		c-1.805,0.146-3.49,0.583-5.183,1.013c-0.997,0.44-1.863,1.179-2.376,2.152c-0.553,1.051-0.491,1.654-0.062,2.334
		c3.958,2.265,7.764,1.92,12.023,2.207c7.779,0.874,12.409,4.479,14.736,8.858c3.838,7.219,3.571,14.523-2.833,20.347
		c-4.267,3.896-13.09,3.942-13.963,2.74c-0.727-0.981-0.363-4.529-1.928-6.956c-1.569-2.439-3.104-3.873-5.217-4.267
		c-1.828-0.333-3.459,0.324-3.262,2.438c0.564,5.522,0.039,16.873-0.348,22.999c-0.417,6.69-0.553,11.613-4.359,22.74
		c-4.645,13.639-13.051,25.004-22.678,33.781c-7.733,7.061-24.371,14.736-37.762,17.206c-13.383,2.469-23.513,2.272-31.517,1.704
		c-8.011-0.564-18.593-2.543-25.066-5.399c-9.252-4.085-16.556-7.424-23.721-13.26c-4.881-3.988-10.597-10.083-14.229-14.879
		c-11.645-15.377-14.184-24.869-16.251-30.454c-1.654-4.491-2.493-10.063-4.329-11.675c-1.836-1.607-7.068,2.794-7.003,6.014
		c0.124,6.095,0.124,6.095-2.906,7.787c-2.415,1.364-8.088,2.983-14.5-0.34c-5.5-2.856-10.075-13.778-3.579-20.444
		c3.126-3.196,6.45-5.151,11.072-7.072c2.346-0.981,4.267-1.956,5.867-2.906c0.054-0.054,0.097-0.112,0.15-0.158
		c0.877-1.527,1.392-3.537-0.468-4.545c-1.375-0.75-3.807-0.75-5.862-0.468c-2.694,0.642-5.353,1.449-8.193,2.106
		c-0.046,0.015-0.089,0-0.135,0.015c0.016,0.035,0.023,0.066,0.039,0.097c-2.856,1.148-3.965,2.199-7.424,4.576
		c-4.216,2.895-6.972,7.439-7.811,12.004c-1.449,7.915,1.623,19.165,8.842,24.088c4.723,3.227,10.408,5.063,14.806,5.221
		c6.968,0.271,10.133-1.511,12.564-1.21c2.442,0.294,2.616,0.657,7.923,12.197c2.547,5.546,7.215,10.748,11.768,17.008
		c5.415,7.447,12.402,12.769,21.109,18.346c2.153,1.379,17.356,8.124,20.618,9.619c4.162,1.905,14.152,4.39,17.438,4.661
		c13.453,1.117,31.934,0.561,38.028-0.317c6.048-0.862,12.15-2.81,18.972-5.105c6.833-2.296,13.843-5.376,19.513-9.229
		c5.128-3.474,15.242-10.81,21.994-21.418c2.659-4.17,6.041-8.398,10.845-16.947c3.996-7.146,5.375-19.319,5.982-24.78
		c0.224-1.917,0.521-8.823,1.229-10.628c0.75-1.917,1.979-1.132,4.692-1.696c10.021-2.048,16.486-5.747,20.571-12.834
		c1.851-3.192,2.516-7.583,2.674-9.928C336.261,220.364,333.467,212.182,329.583,208.031"/>
	<path fill="#1B1A1A" d="M207.398,300.95c9.031,4.657,17.642,4.356,25.781,2.96c5.26-0.9,10.249-4.108,14.206-7.992
		c4.352-4.267,4.866-7.946,4.804-11.683c-0.082-4.352-2.725-6.744-5.635-6.578c-2.462,0.136-4.34,7.71-10.06,12.309
		c-5.731,4.599-11.01,5.62-18.334,4.986c-6.852-0.588-8.371-1.125-10.098-0.642C205.442,295.041,204.866,299.636,207.398,300.95"/>
	<path fill="#1B1A1A" d="M204.492,255.698c-5.075,3.761-6.137,10.099-5.113,14.288c1.028,4.178,4.614,7.424,6.551,8.007
		c5.187,1.616,9.801,0.928,12.363-0.831c2.582-1.739,2.303-8.112-0.023-7.417c-10.527,3.165-12.989-5.936-7.749-11.857
		C212.221,255.969,207.966,253.109,204.492,255.698"/>
	<path fill="#1B1A1A" d="M138.154,197.732c0.777-0.039,1.608-0.333,2.361-0.823l0.696-0.456c2.651-1.759,7.092-4.704,10.566-5.685
		c1.132-0.317,2.28-0.553,3.482-0.815c2.272-0.468,4.827-1.013,7.718-2.191c0.649-0.271,1.074-0.761,1.241-1.426
		c0.309-1.209-0.313-2.944-1.604-4.518c-1.569-1.886-2.953-2.914-4.916-2.817c-1.457,0.077-3.196,0.576-5.936,1.453
		c-6.396,2.083-11.327,5.449-15.903,11.463l-0.355,0.467c-1.036,1.36,0.382,3.958,0.642,4.456
		C136.461,197.458,137.215,197.782,138.154,197.732"/>
	<path fill="#1B1A1A" d="M232.538,166.904c-0.452,0.031-1.542,0.259-1.971,0.34c-2.771,0.553-3.918,4.607-4.208,5.735
		c-0.437,1.774-0.255,3.111,0.568,3.992c0.847,0.893,2.327,1.194,4.147,0.862c0.371-0.069,2.531-0.499,2.531-0.499
		c4.197-0.815,6.389-1.028,18.848,2.153c0.514,0.135,0.989,0.15,1.391,0.077c0.688-0.132,1.179-0.591,1.38-1.241
		c0.274-1.043,0.514-4.607-0.754-5.484C247.973,168.357,236.17,166.68,232.538,166.904"/>
	<path fill="#1B1A1A" d="M182.393,226.961c2.86,5.658,3.034,12.9,0.534,19.261c-3.335,8.533-9.762,14.558-18.991,15.776
		c-6.102,0.8-13.747-1.384-17.063-3.854c-6.593-4.9-10.701-10.891-11.389-16.9c-0.8-6.86,1.021-13.028,4.9-18.226
		c3.459-4.653,5.816-6.191,9.866-7.884c5.882-2.454,9.863-3.521,16.9-1.836C173.497,214.818,178.707,219.622,182.393,226.961
		 M232.209,209.284c5.971-7.455,11.389-9.917,20.162-9.669c5.24,0.143,9.055,0.815,13.352,3.354
		c6.504,3.865,10.369,9.522,11.309,17.144c0.838,6.791-0.371,11.903-4.549,18.57c-3.27,5.198-7.475,7.772-15.791,9.33
		c-1.268,0.239-7.138,0.951-11.208-0.34c-6.191-1.979-9.434-4.336-11.903-7.231c-3.332-3.896-5.384-10.292-5.511-12.684
		C227.699,220.414,228.491,213.94,232.209,209.284 M160.145,201.79c-1.859,0-3.703,0.089-5.546,0.379
		c-2.431,0.375-4.854,0.707-7.069,1.538c-2.288,0.854-4.568,1.828-6.585,3.104c-2.068,1.287-3.814,3.022-5.558,4.691
		c-0.657,0.634-1.789,2.018-1.789,2.018s-14.674,15.37-7.409,36.196c0.035,0.101,0.073,0.22,0.104,0.309
		c0.271,0.734,0.619,1.422,0.99,2.103c0.974,1.963,2.176,3.958,3.664,5.979c0.889,1.511,1.774,3.007,2.96,4.255
		c1.662,1.758,3.872,2.929,5.843,4.305c1.971,1.379,4.101,2.408,6.338,3.358c2.211,0.943,4.44,1.631,6.849,2.114
		c2.318,0.456,4.653,1.21,7.122,1.21c1.852,0,3.726-0.197,5.573-0.483c2.35-0.363,4.676-0.854,6.852-1.646
		c2.218-0.808,4.116-2.241,6.125-3.451c1.994-1.217,4.235-2.168,5.952-3.768c1.72-1.573,3.042-3.575,4.433-5.492
		c1.268-1.724,2.605-3.404,3.517-5.279c0.939-1.898,1.596-3.942,2.168-5.959c0.576-2.025,0.838-4.131,1.043-6.237
		c0.205-2.083,0.46-4.186,0.293-6.308c0.182-1.094,0.75-4.75,2.756-7.37c1.36-1.774,3.234-3.393,6.094-3.919
		c3.158-0.576,5.743,0.672,7.652,1.948c2.921,1.956,4.622,5.098,4.877,6.184c1.051,4.313,2.833,8.657,5.627,12.529
		c6.195,8.58,13.337,12.638,20.769,14.539c4.375,1.117,13.762,0.521,20.958-1.662c7.733-2.342,12.576-6.751,16.367-11.992
		c1.368-1.882,2.373-3.965,3.37-6.102c0.989-2.114,1.917-4.22,2.408-6.531c0.672-3.077,0.997-5.728,1.187-7.923
		c0.499-15.354-8.483-24.216-8.483-24.216h0.008c-0.205-0.286-0.414-0.564-0.642-0.808c-1.677-1.82-6.222-6.041-12.236-8.24
		c-7.149-2.604-13.963-3.397-19.93-2.574c-5.051,0.696-9.886,2.122-13.256,4.568c-6.787,4.896-10.458,9.055-13.886,15.869
		c-1.059,2.114-1.755,4.003-2.312,6.299c-2.063-1.241-4.352-2.416-7.01-2.856c-2.288-0.387-5.604-0.491-8.352,0.007
		c-2.439,0.453-8.858,4.51-10.81,6.949c-1.26-2.184-2.945-3.965-4.599-5.824c-1.681-1.871-3.177-3.973-5.187-5.445
		c-2.009-1.465-4.282-2.686-6.57-3.706c-2.261-1.005-4.707-1.739-7.192-2.261C165.234,201.686,162.695,201.79,160.145,201.79"/>
	<path fill="#1B1A1A" d="M112.23,103.705c1.542,1.372,8.808,9.016,13.496,14.145c3.354,3.683,8.081,7.733,12.734,12.595
		c4.163,4.328,6.547,7.208,8.476,9.526c2.589,3.111,3.319,5.098,6.778,7.439c0.804,0.557,1.716,0.738,2.698,0.541
		c0.696-0.135,0.974-0.46,1.314-0.642c1.306-0.672,3.745-1.14,5.225-0.943c0.607,0.081,1.171,0.074,1.654-0.023
		c1.121-0.228,3.258-1.156,2.783-4.862c-0.44-3.316-1.407-9.059-2.071-11.792c-0.619-2.554-1.376-5.043-1.758-7.733
		c-0.476-3.42-3.27-14.5-3.854-16.352c-2.191-7.038-2.493-6.798-3.505-13.202c-0.572-3.617-2.288-10.867-3.169-13.125
		c-1.105-2.887-0.901-3.892-2.667-10.265c-0.947-3.458-3.25-3.594-4.464-3.347c-1.503,0.301-4.092,1.156-5.182,1.813
		c-2.044,1.241-1.979,4.684,0.877,14.056c0.452,1.472,1.859,8.081,1.948,9.317c0.244,3.37,1.399,8.15,3.413,13.747
		c2.095,5.863,3.045,11.343,3.3,12.228c0.371,1.36,1.075,3.498,1.828,5.754c0.688,2.106,2.578,6.925,2.841,9.712
		c-0.135,1.399-1.411,0.212-1.449,0.182c-3.475-3.776-9.654-13.232-16.344-19.93c-4.568-4.576-16.085-15.799-19.204-19.849
		c-1.171-1.546-4.912-4.939-8.228-3.08c-0.997,0.545-2.883,1.669-3.27,4.108c-0.444,2.682,0.417,3.679,3.061,7.161
		C110.371,102.062,111.113,102.715,112.23,103.705"/>
	<path fill="#D92148" d="M917.551,391.599c-1.299,0-1.94-0.609-1.94-1.82V378.15c0-1.256,0.61-1.881,1.832-1.881h2.342
		c0.425,0,0.819,0.092,1.167,0.293c0.355,0.197,0.626,0.553,0.827,1.051l2.172,5.469c0.085,0.189,0.14,0.325,0.17,0.383
		c0.047,0.063,0.078,0.086,0.124,0.086c0.039,0,0.085-0.023,0.124-0.086c0.03-0.058,0.085-0.193,0.162-0.383l2.241-5.635
		c0.31-0.791,0.92-1.178,1.824-1.178h2.056c1.052,0,1.585,0.553,1.585,1.646v11.863c0,0.627-0.178,1.082-0.533,1.377
		c-0.355,0.293-0.827,0.443-1.407,0.443h-0.471c-1.299,0-1.94-0.609-1.94-1.82v-6.229c0-0.151-0.039-0.229-0.116-0.229
		c0.039,0,0,0.077-0.116,0.229l-1.708,5.051c-0.193,0.742-0.634,1.113-1.353,1.113h-1.167c-0.703,0-1.198-0.371-1.477-1.113
		l-1.816-5.051c-0.03-0.151-0.077-0.229-0.077-0.229c-0.085,0-0.101,0.077-0.101,0.229v6.229c0,1.211-0.649,1.82-1.939,1.82H917.551
		z M906.799,391.599c-1.522,0-2.296-0.688-2.296-2.059V381.2c0-0.429-0.192-0.649-0.579-0.649h-1.415
		c-1.167,0-1.762-0.664-1.762-1.994v-0.406c0-1.217,0.595-1.827,1.762-1.827h9.167c1.176,0,1.763,0.665,1.763,2.002v0.413
		c0,1.21-0.587,1.813-1.763,1.813h-1.522c-0.394,0-0.595,0.221-0.595,0.649v8.341c0,1.371-0.734,2.059-2.227,2.059H906.799z"/>
</g>
</svg>
