<?xml version="1.0" encoding="UTF-8" standalone="no"?>
<!-- Generator: Adobe Illustrator 23.0.3, SVG Export Plug-In . SVG Version: 6.00 Build 0)  -->

<svg
   version="1.1"
   id="Layer_1"
   x="0px"
   y="0px"
   viewBox="0 0 1000 1000"
   style="enable-background:new 0 0 1000 1000;"
   xml:space="preserve"
   xmlns="http://www.w3.org/2000/svg"
   xmlns:svg="http://www.w3.org/2000/svg"><defs
   id="defs5">
	
	

		
		
		
		
	
			
			
		</defs>
<style
   type="text/css"
   id="style1">
	.st0{fill:#FFFFFF;}
</style>
<path
   id="rect1"
   d="M 0,0 V 1000 H 1000 V 0 Z M 69.599609,70.300781 H 328.09961 c 94,0 134.50117,36.099609 148.70117,94.099609 10.2,41.8 -7.50078,86.62562 -27.80078,106.12562 17.7,13.9 46.40039,38.67477 41.40039,95.27477 -5.5,62.7 -51.50117,109.39844 -155.20117,109.39844 H 69.599609 Z m 475.500001,0 H 930.30078 V 186.19922 h -268.5 v 31.40039 h 268.5 V 327.69922 H 661.40039 V 359 H 930.30078 V 475.19922 H 545.09961 Z M 186,186.19922 v 31.40039 h 163.30078 v -31.40039 z m 0,141.5 v 31.40039 H 349.30078 V 327.69922 Z M 737.30078,514.30078 787,673.40039 h 160.69922 l -130,98.29883 49.60156,159.10156 -130,-98.30078 -130,98.30078 49.59961,-159 -130.09961,-98.40039 H 687.59961 Z M 69.699219,526.09961 H 465.69922 V 641.90039 H 69.699219 Z M 209.5,673.30078 h 116.30078 v 257.5 H 209.5 Z" />
</svg>
