<?xml version="1.0" encoding="UTF-8" standalone="no"?>
<!-- Created with Inkscape (http://www.inkscape.org/) -->

<svg
   xmlns:dc="http://purl.org/dc/elements/1.1/"
   xmlns:cc="http://creativecommons.org/ns#"
   xmlns:rdf="http://www.w3.org/1999/02/22-rdf-syntax-ns#"
   xmlns:svg="http://www.w3.org/2000/svg"
   xmlns="http://www.w3.org/2000/svg"
   xmlns:sodipodi="http://sodipodi.sourceforge.net/DTD/sodipodi-0.dtd"
   xmlns:inkscape="http://www.inkscape.org/namespaces/inkscape"
   version="1.1"
   id="svg10"
   width="728.57129"
   height="438.8403"
   viewBox="0 0 728.57129 438.8403"
   sodipodi:docname="Big Ten Network (2020).svg"
   inkscape:version="0.92.3 (2405546, 2018-03-11)">
  <metadata
     id="metadata16">
    <rdf:RDF>
      <cc:Work
         rdf:about="">
        <dc:format>image/svg+xml</dc:format>
        <dc:type
           rdf:resource="http://purl.org/dc/dcmitype/StillImage" />
        <dc:title />
      </cc:Work>
    </rdf:RDF>
  </metadata>
  <defs
     id="defs14" />
  <sodipodi:namedview
     pagecolor="#ffffff"
     bordercolor="#666666"
     borderopacity="1"
     objecttolerance="10"
     gridtolerance="10"
     guidetolerance="10"
     inkscape:pageopacity="0"
     inkscape:pageshadow="2"
     inkscape:window-width="1920"
     inkscape:window-height="1017"
     id="namedview12"
     showgrid="false"
     inkscape:zoom="1.04"
     inkscape:cx="346.33885"
     inkscape:cy="220.12845"
     inkscape:window-x="-8"
     inkscape:window-y="-8"
     inkscape:window-maximized="1"
     inkscape:current-layer="svg10" />
  <g
     aria-label="NETWORK"
     transform="scale(0.99949736,1.0005029)"
     style="font-style:normal;font-variant:normal;font-weight:normal;font-stretch:normal;font-size:139.84442139px;line-height:1.25;font-family:'Benton Sans Bold';-inkscape-font-specification:'Benton Sans Bold, ';letter-spacing:0px;word-spacing:0px;display:inline;fill:#666666;fill-opacity:1;stroke:none;stroke-width:3.49611068"
     id="text876">
    <path
       d="M 0.35059211,436.6395 H 25.95687 v -57.90433 h 0.273134 L 65.834381,436.6395 H 91.713793 V 333.12185 H 66.107515 v 58.0409 H 65.834381 L 27.937089,333.12185 H 0.35059211 Z"
       style="font-style:normal;font-variant:normal;font-weight:normal;font-stretch:normal;font-family:'Benton Sans Black';-inkscape-font-specification:'Benton Sans Black, ';fill:#666666;stroke-width:3.49611068"
       id="path983" />
    <path
       d="M 110.96972,436.6395 H 187.174 v -22.53353 h -48.20808 v -19.11935 h 32.70775 v -21.85069 h -32.70775 v -16.79772 h 45.88645 v -23.21636 h -73.88265 z"
       style="font-style:normal;font-variant:normal;font-weight:normal;font-stretch:normal;font-family:'Benton Sans Black';-inkscape-font-specification:'Benton Sans Black, ';fill:#666666;stroke-width:3.49611068"
       id="path985" />
    <path
       d="m 223.63735,436.6395 h 27.9962 v -80.30129 h 29.77157 v -23.21636 h -87.53933 v 23.21636 h 29.77156 z"
       style="font-style:normal;font-variant:normal;font-weight:normal;font-stretch:normal;font-family:'Benton Sans Black';-inkscape-font-specification:'Benton Sans Black, ';fill:#666666;stroke-width:3.49611068"
       id="path987" />
    <path
       d="m 313.29345,436.6395 h 23.76263 l 15.70518,-64.73268 h 0.27314 l 14.13466,64.73268 h 23.35293 l 26.83538,-103.51765 h -25.60628 l -8.26229,41.31146 c -0.4097,2.0485 -0.8194,3.75559 -1.16082,5.25782 -0.34142,1.50224 -0.68284,3.00447 -0.95597,4.43842 -0.34142,1.50224 -0.61455,3.07276 -0.88768,4.77984 -0.27314,1.77537 -0.61455,3.89216 -0.88769,6.35036 h -0.27313 c -0.4097,-2.4582 -0.8194,-4.64327 -1.16082,-6.41864 -0.34142,-1.77537 -0.68283,-3.41417 -1.02425,-4.98469 -0.4097,-1.50223 -0.75112,-3.00447 -1.16082,-4.5067 -0.4097,-1.50224 -0.8194,-3.20932 -1.29738,-5.18954 l -9.21826,-41.03833 h -25.33315 l -8.53542,40.83348 c -0.40971,1.70708 -0.75112,3.34588 -1.09254,4.9164 -0.4097,1.57052 -0.75112,3.14104 -1.09253,4.77984 -0.4097,1.70709 -0.75112,3.48245 -1.02425,5.32611 -0.34142,1.91193 -0.68284,3.96043 -0.95597,6.28207 h -0.27314 c -0.4097,-2.32164 -0.75111,-4.43842 -1.09253,-6.35036 -0.34142,-1.91193 -0.68283,-3.6873 -1.02425,-5.39439 -0.4097,-1.6388 -0.8194,-3.2776 -1.2291,-4.84812 -0.4097,-1.50223 -0.75112,-3.14104 -1.16082,-4.84812 l -8.80856,-40.69691 h -28.06448 z"
       style="font-style:normal;font-variant:normal;font-weight:normal;font-stretch:normal;font-family:'Benton Sans Black';-inkscape-font-specification:'Benton Sans Black, ';fill:#666666;stroke-width:3.49611068"
       id="path989" />
    <path
       d="m 470.82329,438.61971 c 4.097,0 8.26229,-0.4097 12.35929,-1.36566 4.09701,-0.88769 8.05745,-2.25336 11.81303,-4.09701 3.82387,-1.91193 7.30633,-4.30185 10.51565,-7.16976 3.2776,-2.8679 6.07722,-6.35035 8.39886,-10.31079 2.38992,-3.96044 4.23357,-8.53543 5.59924,-13.5884 1.36566,-5.12125 2.0485,-10.85706 2.0485,-17.13913 0,-6.35036 -0.68284,-12.08617 -2.0485,-17.20742 -1.36567,-5.05298 -3.20932,-9.62796 -5.59924,-13.65669 -2.32164,-3.96043 -5.12126,-7.3746 -8.39886,-10.24251 -3.20932,-2.8679 -6.69178,-5.25782 -10.51565,-7.16975 -3.75558,-1.84366 -7.71602,-3.20932 -11.81303,-4.09701 -4.097,-0.88768 -8.26229,-1.36567 -12.35929,-1.36567 -4.23358,0 -8.39886,0.47799 -12.49587,1.36567 -4.097,0.88769 -8.05744,2.25335 -11.81303,4.09701 -3.82387,1.91193 -7.30632,4.30185 -10.51564,7.16975 -3.27761,2.86791 -6.07723,6.28208 -8.39886,10.24251 -2.38992,4.02873 -4.23357,8.60371 -5.59924,13.65669 -1.36567,5.12125 -2.0485,10.85706 -2.0485,17.20742 0,6.28207 0.68283,12.01788 2.0485,17.13913 1.36567,5.05297 3.20932,9.62796 5.59924,13.5884 2.32163,3.96044 5.12125,7.44289 8.39886,10.31079 3.20932,2.86791 6.69177,5.25783 10.51564,7.16976 3.75559,1.84365 7.71603,3.20932 11.81303,4.09701 4.09701,0.95596 8.26229,1.36566 12.49587,1.36566 z m 0,-22.39695 c -3.68731,0 -6.96491,-0.68284 -9.83281,-2.18507 -2.86791,-1.50224 -5.18954,-3.61902 -7.10148,-6.35036 -1.98022,-2.73134 -3.48245,-6.00894 -4.5067,-9.83281 -1.02426,-3.82387 -1.50224,-8.19401 -1.50224,-12.97385 0,-4.71155 0.47798,-8.94512 1.50224,-12.70071 1.02425,-3.82387 2.52648,-7.03319 4.5067,-9.62796 1.91194,-2.66306 4.23357,-4.71156 7.10148,-6.14551 2.8679,-1.36567 6.1455,-2.11679 9.83281,-2.11679 3.61902,0 6.82834,0.75112 9.62796,2.11679 2.8679,1.43395 5.25782,3.48245 7.16975,6.14551 1.98022,2.59477 3.48246,5.80409 4.50671,9.62796 0.95597,3.75559 1.50223,7.98916 1.50223,12.70071 0,4.77984 -0.54626,9.14998 -1.50223,12.97385 -1.02425,3.82387 -2.52649,7.10147 -4.50671,9.83281 -1.91193,2.73134 -4.30185,4.84812 -7.16975,6.35036 -2.79962,1.50223 -6.00894,2.18507 -9.62796,2.18507 z"
       style="font-style:normal;font-variant:normal;font-weight:normal;font-stretch:normal;font-family:'Benton Sans Black';-inkscape-font-specification:'Benton Sans Black, ';fill:#666666;stroke-width:3.49611068"
       id="path991" />
    <path
       d="m 535.96564,436.6395 h 27.44993 v -35.91708 h 7.64775 l 20.00703,35.91708 h 29.635 l -21.91897,-39.60438 c 6.76006,-2.25335 11.88131,-5.80409 15.29548,-10.65221 3.41417,-4.84813 5.12126,-11.33505 5.12126,-19.52906 0,-6.1455 -1.02425,-11.40333 -3.00447,-15.70518 -1.98022,-4.30186 -4.77984,-7.78431 -8.46714,-10.51565 -3.68731,-2.59477 -8.19401,-4.5067 -13.45184,-5.7358 -5.3261,-1.16082 -11.26676,-1.77537 -17.89025,-1.77537 h -40.42378 z m 27.44993,-57.2215 v -23.62606 h 12.01788 c 5.73581,0 9.9011,0.88768 12.56415,2.66305 2.59477,1.77537 3.96044,4.77984 3.96044,9.0817 0,4.37013 -1.36567,7.44289 -3.96044,9.21826 -2.66305,1.77536 -6.82834,2.66305 -12.56415,2.66305 z"
       style="font-style:normal;font-variant:normal;font-weight:normal;font-stretch:normal;font-family:'Benton Sans Black';-inkscape-font-specification:'Benton Sans Black, ';fill:#666666;stroke-width:3.49611068"
       id="path993" />
    <path
       d="m 636.47883,436.6395 h 27.99619 v -32.16149 l 7.98916,-9.21826 24.44546,41.37975 h 31.61522 l -37.89729,-62.68417 34.82454,-40.83348 h -32.43462 l -28.54247,37.48759 v -37.48759 h -27.99619 z"
       style="font-style:normal;font-variant:normal;font-weight:normal;font-stretch:normal;font-family:'Benton Sans Black';-inkscape-font-specification:'Benton Sans Black, ';fill:#666666;stroke-width:3.49611068"
       id="path995" />
  </g>
  <style
     id="style37"
     type="text/css">
	.st0{fill:#0082CA;}
</style>
  <g
     id="g45"
     transform="matrix(0.67648216,0,0,0.67648216,0,0.12777996)"
     style="display:inline">
    <polygon
       id="polygon39"
       points="427.9,103.4 475.1,103.4 475.1,306.3 427.9,306.3 427.9,409.3 657.6,409.3 657.6,306.3 608.1,306.3 608.1,0.5 427.9,0.5 "
       class="st0"
       style="fill:#0082ca;fill-opacity:1" />
    <path
       id="path41"
       d="M 336.9,200.4 C 416.1,158.3 398.7,92.6 398.7,92.6 385.8,3.9 304.9,0.5 304.9,0.5 H 0 V 103.3 H 47.7 V 306.6 H 0 v 102.8 h 324 c 90.4,-13.5 90.4,-102.2 90.4,-102.2 0,-92.2 -77.5,-106.8 -77.5,-106.8 z M 180.8,103.8 c 0,0 62.9,-0.4 73.4,-0.4 10.5,0 7.7,7.7 7.7,7.7 0,0 0,42.1 0,46.3 0,4.2 -5.9,5.9 -5.9,5.9 h -75.2 z m 85.4,194.3 c 0,7.9 -7.9,7.9 -7.9,7.9 h -77.5 v -69.1 h 76.4 c 0,0 9,-0.6 9,10.1 0,0 0,40.4 0,51.1 z"
       inkscape:connector-curvature="0"
       style="fill:#000000;fill-opacity:1" />
    <path
       id="path43"
       d="M 909.7,168.4 H 1077 c 0,0 0,148.2 0,148.2 0,10.4 -3.9,21.7 -7.9,31.1 -9.5,22.4 -26.6,40.5 -48.5,51.2 -13.4,6.6 -26,10.3 -40.9,10.3 -7.6,0 -15.1,0 -22.7,0 -22.9,0 -45.8,0 -68.8,0 -24.5,0 -48.9,0 -73.4,0 -15.4,0 -30.8,0 -46.2,0 -1.3,0 -2.6,0 -3.9,0 -8.2,0 -16.2,-1.7 -23.9,-4.4 -19.4,-7 -35.4,-21 -47,-37.9 -5.8,-8.5 -10.6,-17.6 -14.5,-27.1 -5.7,-13.8 -10.7,-26.8 -10.7,-41.9 0,-7.3 0,-14.6 0,-21.9 0,-22.8 0,-45.5 0,-68.3 0,-23.8 0,-47.7 0,-71.5 0,-13.1 0,-26.3 0,-39.4 0,-0.3 0,-0.6 0,-1 0,0 3.4,-94.3 95.5,-95.5 92.1,-1.1 222.4,0 222.4,0 0,0 79.7,0 90.4,93.2 V 139 h -133 v -23 c 0,0 0.6,-14.3 -14.3,-14.3 H 817 c 0,0 -15.3,3.4 -15.3,15.3 v 173.7 c 0,0 1.3,15.2 12.5,15.2 H 931 c 0,0 12.4,1.1 12.4,-12.4 v -52.8 h -33.7 z"
       class="st0"
       inkscape:connector-curvature="0"
       style="fill:#0082ca;fill-opacity:1" />
  </g>
</svg>
