<?xml version="1.0" encoding="UTF-8" standalone="no"?>
<svg
   id="Bonunce_XL_-_Color"
   data-name="Bonunce XL - Color"
   viewBox="0 0 1000 176.17224"
   version="1.1"
   width="1000"
   height="176.17224"
   xmlns="http://www.w3.org/2000/svg"
   xmlns:svg="http://www.w3.org/2000/svg">
  <defs
     id="defs17">
    <style
       id="style1">.cls-1{fill:url(#radial-gradient);}.cls-2{fill:url(#radial-gradient-2);}.cls-3{fill:#865c2c;}.cls-4{fill:url(#linear-gradient);}.cls-5{fill:url(#linear-gradient-2);}</style>
    <radialGradient
       id="radial-gradient"
       cx="358.45999"
       cy="104.4"
       r="102.36"
       gradientUnits="userSpaceOnUse"
       gradientTransform="matrix(2.3923445,0,0,2.3923445,-188.99522,-256.41149)">
      <stop
         offset="0.1"
         stop-color="#707070"
         id="stop1" />
      <stop
         offset="0.26"
         stop-color="#6b6b6b"
         id="stop2" />
      <stop
         offset="0.45"
         stop-color="#5d5d5d"
         id="stop3" />
      <stop
         offset="0.66"
         stop-color="#454545"
         id="stop4" />
      <stop
         offset="0.87"
         stop-color="#252525"
         id="stop5" />
      <stop
         offset="0.98"
         stop-color="#101010"
         id="stop6" />
    </radialGradient>
    <radialGradient
       id="radial-gradient-2"
       cx="386.97"
       cy="143.03999"
       r="122.57"
       gradientUnits="userSpaceOnUse"
       gradientTransform="matrix(2.3923445,0,0,2.3923445,-188.99522,-256.41149)">
      <stop
         offset="0.1"
         stop-color="#fee17f"
         id="stop7" />
      <stop
         offset="0.2"
         stop-color="#fedc7c"
         id="stop8" />
      <stop
         offset="0.32"
         stop-color="#fdce75"
         id="stop9" />
      <stop
         offset="0.41"
         stop-color="#fcbe6d"
         id="stop10" />
      <stop
         offset="0.65"
         stop-color="#f9b563"
         id="stop11" />
      <stop
         offset="0.98"
         stop-color="#7b5227"
         id="stop12" />
    </radialGradient>
    <linearGradient
       id="linear-gradient"
       x1="183.59"
       y1="143.74001"
       x2="346.45001"
       y2="143.74001"
       gradientUnits="userSpaceOnUse"
       gradientTransform="matrix(2.3923445,0,0,2.3923445,-188.99522,-256.41149)">
      <stop
         offset="0"
         stop-color="#9b6837"
         id="stop13" />
      <stop
         offset="0.71"
         stop-color="#c28848"
         id="stop14" />
      <stop
         offset="0.93"
         stop-color="#f9b25e"
         id="stop15" />
    </linearGradient>
    <linearGradient
       id="linear-gradient-2"
       x1="120.12"
       y1="141.75"
       x2="181.96001"
       y2="141.75"
       gradientUnits="userSpaceOnUse"
       gradientTransform="matrix(2.3923445,0,0,2.3923445,-188.99522,-256.41149)">
      <stop
         offset="0.14"
         stop-color="#865c2c"
         id="stop16" />
      <stop
         offset="0.97"
         stop-color="#a36f3b"
         id="stop17" />
    </linearGradient>
  </defs>
  <path
     class="cls-1"
     d="m 879.64115,133.54067 c -8.70814,0 -15.47847,-5.35886 -15.47847,-9.97608 V 4.354067 H 779.23445 L 733.97129,58.875594 688.68421,4.354067 h -48.4689 l 69.52153,83.540667 -69.01914,83.086126 h 48.44498 l 45.04785,-54.01914 45.04784,54.01914 H 827.7512 L 758.37321,87.894734 816.14833,18.516746 V 123.61244 c 0,27.03349 27.84689,48.20574 63.42105,48.20574 h 115.93301 v -38.27751 z"
     id="path17"
     style="fill:url(#radial-gradient);stroke-width:2.39234" />
  <path
     class="cls-2"
     d="M 1000,176.17224 H 879.66507 c -38.01435,0 -67.82296,-23.11004 -67.82296,-52.63157 V 30.669856 l -47.65551,57.272728 72.89474,87.464106 h -59.80861 l -43.0622,-51.57894 -43.0622,51.57894 H 631.33971 L 703.99522,87.942584 630.86124,0 h 59.80862 L 733.89952,52.009564 777.10526,0 h 91.38756 v 123.54067 c 0,1.65071 4.30622,5.59808 11.07656,5.59808 H 1000 Z M 820.26316,8.468899 V 123.58851 c 0,24.76077 26.10048,44.16268 59.40191,44.16268 h 111.91388 v -30.14354 h -111.9378 c -10.38278,0 -19.49761,-6.55502 -19.49761,-14.01914 V 8.468899 Z M 781.1244,167.03349 h 37.99043 L 753.20574,88.086124 819.33014,8.61244 h -0.21531 v 0 H 781.1244 L 733.97129,65.191384 686.79426,8.421052 h -37.99043 l 66.17225,79.497612 -65.66986,78.947356 h 37.96651 l 46.9378,-56.29186 z"
     id="path18"
     style="fill:url(#radial-gradient-2);stroke-width:2.39234" />
  <path
     class="cls-3"
     d="M 71.00478,42.200957 H 0 v 90.526313 h 70.98086 c 17.3445,0 25.07177,-6.60287 25.07177,-21.5311 v -9.33015 a 16.244019,16.244019 0 0 0 -7.39234,-14.354056 16.746411,16.746411 0 0 0 7.39234,-14.5933 v -7.65551 C 96.07653,49.976074 87.63158,42.200957 71.00478,42.200957 Z M 22.82297,96.100474 h 43.0622 c 6.05263,0 9.23445,3.80383 9.23445,7.535886 v 4.2823 c 0,4.4976 -3.80383,7.6555 -9.23445,7.6555 h -43.0622 z m 43.0622,-17.15311 h -43.0622 v -19.56937 h 43.0622 c 6.00478,0 9.23445,3.94736 9.23445,7.67942 v 4.2823 c 0.0478,4.47368 -3.75598,7.60765 -9.18661,7.60765 z"
     id="path19"
     style="stroke-width:2.39234" />
  <path
     class="cls-4"
     d="m 323.4689,43.444976 h 22.77512 v 64.473684 c 0,13.68421 -15.02392,24.80861 -33.49282,24.80861 h -29.01914 c -18.4689,0 -33.49283,-11.1244 -33.49283,-24.80861 V 43.444976 h 22.77512 v 64.473684 c 0,3.92344 5.21531,7.6555 10.74163,7.6555 h 28.99522 c 6.14832,0 10.74162,-4.04306 10.74162,-7.6555 z m 88.68421,-1.244019 h -28.99522 c -18.49282,0 -33.49282,11.124397 -33.49282,24.832537 v 65.143536 h 22.77512 V 67.033494 c 0,-3.94737 5.21531,-7.67943 10.74163,-7.67943 h 28.99521 c 6.14833,0 10.74163,4.04306 10.74163,7.67943 v 65.143536 h 22.77512 V 67.033494 c -0.0239,-13.70814 -15.07177,-24.832537 -33.54067,-24.832537 z m 99.2823,0 H 482.2488 c -18.3732,0 -33.32536,11.124397 -33.32536,24.832537 v 40.885166 c 0,13.89952 14.64115,24.80861 33.32536,24.80861 h 29.18661 c 18.70813,0 33.34928,-10.90909 33.34928,-24.80861 v -1.69857 h -22.60766 v 1.69857 c 0,4.06698 -5.02392,7.6555 -10.74162,7.6555 H 482.2488 c -5.7177,0 -10.74162,-3.58852 -10.74162,-7.6555 V 67.033494 c 0,-3.94737 5.21531,-7.67943 10.74162,-7.67943 h 29.18661 c 5.52631,0 10.74162,3.73206 10.74162,7.67943 v 1.67464 h 22.60766 v -1.67464 c 0,-13.70814 -14.95215,-24.832537 -33.34928,-24.832537 z M 639.83254,60.598084 V 43.444976 h -76.55503 a 13.899522,13.899522 0 0 0 -14.35407,13.588518 v 61.387556 a 13.301435,13.301435 0 0 0 14.35407,13.75598 h 76.55503 V 115.02392 H 571.77033 V 96.100474 h 54.04307 v -17.15311 h -54.04307 v -18.34928 z"
     id="path20"
     style="fill:url(#linear-gradient);stroke-width:2.39234" />
  <path
     class="cls-5"
     d="M 217.32057,151.86602 111.41148,135.93301 C 100,134.21052 98.37321,122.99043 98.37321,109.06698 V 65.047844 c 0,-13.66028 1.62679,-25.263155 13.03827,-27.822964 L 215.09569,14.186602 c 24.689,-5.502392 31.2201,10.956938 31.2201,32.631582 v 69.976066 c 0.0957,22.0335 -3.99522,38.85168 -28.99522,35.07177 z m 0.93302,-101.698556 c 0,-7.655503 -0.83732,-14.760766 -9.56938,-13.301436 l -92.51196,15.119616 c -4.56938,0.74163 -5.11962,5.95694 -5.11962,11.41148 v 46.220096 c 0,5.76555 0.55024,10.64593 5.11962,11.05263 l 92.51196,8.54067 c 8.85168,0.8134 9.56938,-5.88517 9.56938,-13.99521 z"
     id="path21"
     style="fill:url(#linear-gradient-2);stroke-width:2.39234" />
</svg>
