<?xml version="1.0" encoding="UTF-8" standalone="no"?>
<!-- Created with Inkscape (http://www.inkscape.org/) -->

<svg
   version="1.1"
   id="svg1"
   width="1000"
   height="288.38892"
   viewBox="0 0 1000 288.38892"
   xml:space="preserve"
   xmlns="http://www.w3.org/2000/svg"
   xmlns:svg="http://www.w3.org/2000/svg"><defs
     id="defs1" /><path
     style="fill:#000000;fill-opacity:1;stroke-width:11.8898"
     d="m 838.1412,201.9083 c 0,0 22.3294,27.9256 61.4,27.9256 29.7647,0 42.8,-13.0255 42.8,-29.7761 0,-44.6883 -130.2353,-24.2006 -130.2353,-115.4157 0,-40.9512 35.353,-76.3269 94.8706,-76.3269 57.6706,0 87.4353,35.3757 87.4353,35.3757 L 957.2,80.9291 c 0,0 -18.5882,-22.3501 -48.3647,-22.3501 -27.9176,0 -39.0588,11.1751 -39.0588,26.0631 -0.012,44.6763 130.2235,24.2007 130.2235,115.4157 0,42.8137 -37.2117,80.0279 -98.6117,80.0279 -66.953,0 -100.4588,-40.9392 -100.4588,-40.9392 z"
     id="path4" /><path
     style="fill:#000000;fill-opacity:1;stroke-width:11.8898"
     d="m 697.5059,13.8907 c 52.0942,0 83.7177,31.6387 83.7177,68.8769 0,40.9392 -35.353,53.9768 -35.353,53.9768 0,0 48.353,13.0376 48.353,63.2894 0,40.9512 -33.4706,74.4644 -89.2941,74.4644 H 587.7177 V 13.8907 Z m -3.7176,100.5156 c 18.5882,0 29.7647,-11.1631 29.7647,-26.0512 0,-14.888 -11.1529,-26.0511 -29.7647,-26.0511 h -50.2236 v 52.1023 z m 7.447,111.7026 c 22.3177,0 35.353,-13.0376 35.353,-31.6507 0,-18.6131 -13.0353,-31.6386 -35.353,-31.6386 h -57.6705 v 63.2893 z"
     id="path3" /><path
     style="fill:#000000;fill-opacity:1;stroke-width:11.8898"
     d="m 455.2942,8.2912 c 72.5529,0 109.7647,52.1383 109.7647,52.1383 l -37.2118,37.2262 c 0,0 -26.0588,-37.2142 -72.5647,-37.2142 -46.5059,0 -83.7176,37.2262 -83.7176,83.7529 0,46.5508 37.2117,83.777 83.7176,83.777 48.3647,0 74.4235,-37.2262 74.4235,-37.2262 l 37.2118,37.2262 c 0,0 -37.2118,52.1263 -111.6235,52.1263 -80,0 -141.4,-61.4268 -141.4,-135.9033 0,-74.4644 61.4,-135.9032 141.4,-135.9032 z"
     id="path2" /><path
     style="fill:#000000;fill-opacity:1;stroke-width:11.8898"
     d="m 246.0236,246.152 c -28.1412,28.1659 -62.0471,42.2449 -101.7177,42.2369 -39.7019,0 -73.6745,-14.075 -101.9176,-42.2249 C 14.1295,218.03 0,183.9801 0,144.0142 0,104.3046 14.1295,70.3789 42.3883,42.237 70.6393,14.079 104.6118,0 144.3059,0 c 39.6706,0 73.5765,14.075 101.7177,42.2249 28.1333,28.15 42.2117,62.0878 42.2117,101.7893 0,39.9659 -14.0705,74.0118 -42.2117,102.1378 z M 279.553,144.1824 C 268.2275,119.2608 250.7412,98.9815 227.0942,83.3444 202.1844,66.4816 174.5216,58.0463 144.1059,58.0383 c -30.4313,0 -58.2274,8.4353 -83.3882,25.3061 -23.3804,15.6291 -40.7294,35.9124 -52.0471,60.85 11.3177,24.9377 28.6706,45.3412 52.0589,61.2106 25.1451,16.6224 52.9411,24.9336 83.3882,24.9336 30.4314,0 58.098,-8.3112 83,-24.9336 23.6392,-15.8774 41.1216,-36.2809 52.4471,-61.2106 m -81.2,53.9048 c -14.9412,14.9481 -32.9648,22.4262 -54.0706,22.4342 -21.1059,0.01 -39.1255,-7.4701 -54.0589,-22.4342 -14.9333,-14.9642 -22.4078,-32.9925 -22.4235,-54.085 0,-21.1165 7.4745,-39.0887 22.4235,-53.9167 14.9491,-14.828 32.9687,-22.242 54.0589,-22.242 21.1058,0 39.1294,7.414 54.0706,22.242 14.9411,14.828 22.4039,32.8002 22.4117,53.9167 0,21.1085 -7.4706,39.1368 -22.4117,54.085 z"
     id="path1" /><style
     type="text/css"
     id="style1">
	.st0{fill:#FFFFFF;}
</style><style
     type="text/css"
     id="style1-9">
	.st0{fill:#FFFFFF;}
</style></svg>
