<?xml version="1.0" encoding="utf-8"?>
<!-- Generator: Adobe Illustrator 16.0.0, SVG Export Plug-In . SVG Version: 6.00 Build 0)  -->
<!DOCTYPE svg PUBLIC "-//W3C//DTD SVG 1.1//EN" "http://www.w3.org/Graphics/SVG/1.1/DTD/svg11.dtd">
<svg version="1.1" id="Layer_1" xmlns="http://www.w3.org/2000/svg" xmlns:xlink="http://www.w3.org/1999/xlink" x="0px" y="0px"
	 width="1000px" height="390.904px" viewBox="0 0 1000 390.904" enable-background="new 0 0 1000 390.904" xml:space="preserve">
<g>
	<path d="M698.932,3.957v38.805l-2.615,0.778l-10.496,2.934c-10.743,1.909-17.175,17.529-17.175,41.877v214.837
		c0,26.753,5.478,39.582,18.13,41.984l12.795,3.5v38.91H555.908V348.53l2.827-0.6l13.818-2.793
		c12.688-2.792,18.06-15.268,18.06-41.95V106.658c-10.391,30.358-95.809,280.498-95.809,280.498h-20.957
		c0,0-84.252-249.539-94.644-280.286v196.317c0,26.683,5.408,39.158,17.953,41.95l16.788,3.393v39.052H300.783v-38.91l2.616-0.708
		l10.85-2.933c11.839-2.262,17.174-15.091,17.174-41.844V88.35c0-24.348-6.431-39.968-17.528-41.947l-13.112-3.606V3.957h139.455
		c0,0,58.559,175.328,64.956,194.447c6.115-19.119,61.954-194.447,61.954-194.447"/>
	<path d="M134.401,0c19.012,0,35.8,3.498,52.727,11.132c11.027,5.547,22.479,9.294,28.662,9.294c2.934,0,6.468,0,6.468-14.525V2.226
		h50.396v124.895h-72.484v-3.642c0-55.908-7.422-79.269-53.365-79.269c-37,0-54.247,18.874-54.247,59.444v169.423
		c0,22.3,4.911,74.215,50.607,74.215c39.51,0,57.004-25.196,57.004-81.674v-3.603h72.484v3.603
		c0,57.854-34.492,125.285-131.328,125.285C37,390.904,0,312.411,0,245.228V132.705C0,68.525,53.964,0,134.401,0"/>
	<path d="M1000,3.957v122.952h-44.494v-8.41c0-32.338-8.694-66.972-33.01-66.972c-15.267,0-22.863,16.93-22.863,51.563v200.098
		c0,27.106,5.479,39.582,18.482,41.844l0.248,0.106l12.263,3.604v38.84H790.253v-38.91l2.651-0.708l10.885-2.933
		c12.333-2.262,17.74-15.091,17.74-41.844V103.089c0-34.634-7.387-51.563-22.76-51.563c-24.277,0-33.043,34.634-33.043,66.972v8.41
		h-44.6V3.957"/>
</g>
</svg>
