<?xml version="1.0" encoding="UTF-8" standalone="no"?>
<svg
   height="245.492702"
   viewBox="0 0 750 451.97"
   width="407.344085"
   version="1.1"
   id="svg236"
   sodipodi:docname="Comet_logo_(2020).svg"
   xml:space="preserve"
   inkscape:version="1.2 (dc2aedaf03, 2022-05-15)"
   xmlns:inkscape="http://www.inkscape.org/namespaces/inkscape"
   xmlns:sodipodi="http://sodipodi.sourceforge.net/DTD/sodipodi-0.dtd"
   xmlns="http://www.w3.org/2000/svg"
   xmlns:svg="http://www.w3.org/2000/svg"><defs
     id="defs240" /><sodipodi:namedview
     id="namedview238"
     pagecolor="#ffffff"
     bordercolor="#999999"
     borderopacity="1"
     inkscape:showpageshadow="0"
     inkscape:pageopacity="0"
     inkscape:pagecheckerboard="0"
     inkscape:deskcolor="#d1d1d1"
     showgrid="false"
     inkscape:zoom="1.030254"
     inkscape:cx="204.31855"
     inkscape:cy="123.75589"
     inkscape:current-layer="svg236" /><g
     fill="#22d1f9"
     transform="translate(0 -149.53)"
     id="g234"
     style="fill:#b5dd13;fill-opacity:1"><path
       d="m8.9 149.53h10.68c92.67 13 185.75 23.2 278.55 35.26 145.1 17.91 290.17 36.12 435.33 53.63 8 .5 17.58 5.19 16.27 14.7q.56 122.43 0 244.86c1.27 9.58-8.24 14.47-16.34 14.9q-359 43.7-717.9 88.62h-6.49c-5.65-6.59-9.8-14.43-8.87-23.33q0-202.74 0-405.5c-.93-8.87 3.42-16.51 8.77-23.14m74 79.38c-15.8 16-20.32 39.57-21.09 61.27q0 85.36 0 170.78c.8 22.29 5.59 47.07 23.07 62.6 11.92 11.05 30.06 12 45 7.54 18.31-6.1 30.83-22.87 36.72-40.65 8.71-24.81 5.73-51.46 6.16-77.27-13.39-.06-26.85-.63-40.07 2.11-.77 18.65 2 37.83-2.11 56.15-1.91 10.51-16.24 11.81-23.5 6.52-4.79-6.89-5.19-15.56-5.19-23.63q.15-78.9 0-157.76c-.32-8.43 2.11-16.57 4.41-24.57 6.16-1.44 13.52-5.55 18.74.31 12.12 16.1 6.36 37.76 7.87 56.44 13.26.77 26.58.94 39.91 1.07.17-21.26 1.27-43-4.92-63.57-5.26-18.75-16.27-37.7-34.92-45.6-16.37-6.67-37.3-4.82-50.09 8.23m143.39 3.52c-24.44 10.74-31.67 40-32.4 64.34-.41 49.15-.1 98.3-.34 147.41-.17 25.95 4.19 57.69 28.83 72 21.83 11.52 50.89 4.26 66.29-14.59 13.25-15.8 17.91-37.16 17.71-57.35q-.15-70.41 0-140.75c-.2-19.18-4.92-39.24-17.37-54.27-14.5-18-41.11-25.51-62.68-16.77m100.88 7.73q-.11 135.09 0 270.21a350.17 350.17 0 0 0 35.8-3.36c.43-54.21-1.51-108.54 1-162.71 8.67 53.63 15.1 107.63 23.37 161.33 9.44-1 18.92-2.07 28.36-3 7.53-52.23 14-104.73 23.3-156.69 2.24 51.46.27 103.05 1 154.58q17.42-1.41 34.81-2.58.46-122.75-.2-245.51c-17.24-.66-34.41-2.54-51.59-4.18-8.84 42.65-13.42 86.11-21.56 128.89-8.74-43.79-13.69-88.31-21.59-132.27-17.55-2-35.12-3.82-52.73-4.69m168.9 14.93c.13 80.19 0 160.37.1 240.55 34.12-3.45 68.3-6 102.41-9.24v-37.47c-20.79.47-41.54 2.17-62.27 3.61 0-20.42 0-40.81 0-61.23 15 0 30-.67 45-1.44 0-12.52 0-25.08 0-37.6l-44.92-1c-.07-17.78-.31-35.56-.24-53.33 19.55.8 39 2.51 58.56 3.78 0-12.76.06-25.51 0-38.3-32.88-2.51-65.69-5.93-98.6-8.34m114.53 47.28c11.32.26 22.63 1 33.88 2.31-.1 59.32.2 118.65.17 178 13.26-1.23 26.48-2.74 39.81-3.54-.27-57.35.2-114.7 0-172 11.25.44 22.53.77 33.78 1.37 0-11.28 0-22.56.07-33.84-35.79-4.09-71.78-6.3-107.64-9.78-.18 12.47-.18 24.99-.12 37.48z"
       id="path230"
       style="fill:#b5dd13;fill-opacity:1" /><path
       d="m242.59 278.26c6.56-1.61 15.2-1.57 19.35 4.79 4.82 6.93 4.15 15.73 4.42 23.77-.27 48 .17 96-.24 144 .91 10.68-5.55 24.31-18.17 22.4-11.72.47-14-13.39-14.13-22.36-.2-49.08 0-98.16 0-147.25.63-8.68-.2-20.61 8.77-25.35z"
       id="path232"
       style="fill:#b5dd13;fill-opacity:1" /></g></svg>
