<?xml version="1.0" encoding="UTF-8" standalone="no"?>
<svg
   xmlns:dc="http://purl.org/dc/elements/1.1/"
   xmlns:cc="http://creativecommons.org/ns#"
   xmlns:rdf="http://www.w3.org/1999/02/22-rdf-syntax-ns#"
   xmlns:svg="http://www.w3.org/2000/svg"
   xmlns="http://www.w3.org/2000/svg"
   xml:space="preserve"
   style="enable-background:new 0 0 414.84 84.8;"
   viewBox="0 0 414.84 84.8"
   y="0px"
   x="0px"
   id="RGB_Navy__x26__Cobalt"
   version="1.1"><metadata
   id="metadata13"><rdf:RDF><cc:Work
       rdf:about=""><dc:format>image/svg+xml</dc:format><dc:type
         rdf:resource="http://purl.org/dc/dcmitype/StillImage" /><dc:title></dc:title></cc:Work></rdf:RDF></metadata><defs
   id="defs11" />
<g
   id="g6">
	<path
   id="path2"
   d="M91.93,54.15V30.67h23.48v23.48H91.93z"
   style="fill:#3C50FF;" />
	<path
   id="path4"
   d="M185.13,58.63c0,17.68-12.91,26.17-30.71,26.17c-17.72,0-31.38-8.1-32.82-26.74h18.9   c2.13,14.86,25.9,13.45,25.9,1.73c0-13.2-42.69-6.22-42.69-35.48C123.71,9.19,136.98,0,153.38,0c16.31,0,29.03,8.06,30.62,25.7   h-19.18C163.43,11.99,143,13.95,143,23.73C143,37.63,185.13,29.36,185.13,58.63z M230.05,62.09c17.24,0,30.05-13.16,30.05-30.17   c0-17.01-12.81-30.28-30.05-30.28h-38.32v81.54h19.8V62.09H230.05z M211.53,45.08V18.64h15.72c7.34,0,13.05,5.36,13.05,13.28   c0,7.92-5.71,13.16-13.05,13.16H211.53z M311.78,83.17h21.43L298.15,1.63h-14.91l-35.06,81.54h21.43l4.08-11.53h33.9L311.78,83.17z    M290.7,24.7l11.07,30.75h-22.25L290.7,24.7z M395.04,50.2L353.57,1.63H336.1v81.54h19.8V34.71l41.47,48.45h17.47V1.63h-19.8V50.2z    M64.86,54.15c-3.14,7.57-10.23,13.41-21.41,13.41c-15.61,0-23.65-11.3-23.65-25.16c0-13.86,8.04-25.16,23.65-25.16   c11.19,0,18.27,5.85,21.41,13.43h19.7C80.72,14.35,65.59,0,43.56,0C16.54,0,0,19.34,0,42.4s16.54,42.4,43.56,42.4   c22.02,0,37.15-14.34,40.98-30.65H64.86z"
   style="fill:#001A72;" />
</g>
</svg>
