<?xml version="1.0" encoding="UTF-8" standalone="no"?>
<svg
   id="CW_Logo"
   viewBox="0 0 1000 438.71"
   version="1.1"
   xml:space="preserve"
   xmlns="http://www.w3.org/2000/svg"
   xmlns:svg="http://www.w3.org/2000/svg"><defs
     id="defs1"><style
       id="style1">.cls-1{fill:#000C0D;}</style></defs><path
     class="cls-1"
     d="m860.82,0v248.37c0,22.67-10.4,49.14-39.7,49.14s-40.43-26.47-40.43-49.14V0h-139.18v248.37c0,22.67-10.58,49.14-40.41,49.14s-39.73-26.47-39.73-49.14V0h-139.17v220.5c-.66,42.45-31.23,77.89-68.2,79.12h-144.63c-38.73-.01-70.23-35.84-70.23-79.89s31.51-80.56,70.23-80.56h136V0h-136C93.93,0,0,98.57,0,219.72s93.93,218.99,209.37,218.99h139.63c46.75,0,93.83-18.97,129.74-49.94,34.15,34,71.45,49.94,116.31,49.94s82.02-15.85,116.05-49.65c34.02,33.8,71.26,49.65,116.04,49.65,96.93,0,172.86-79.76,172.86-181.59V0h-139.18Z"
     id="path1"
     style="fill:#ff4500;fill-opacity:1" /></svg>
