<?xml version="1.0" encoding="UTF-8" standalone="no"?>
<!-- Created with Inkscape (http://www.inkscape.org/) -->

<svg xmlns:dc="http://purl.org/dc/elements/1.1/" xmlns:cc="http://creativecommons.org/ns#" xmlns:rdf="http://www.w3.org/1999/02/22-rdf-syntax-ns#" xmlns:svg="http://www.w3.org/2000/svg" xmlns="http://www.w3.org/2000/svg" xmlns:xlink="http://www.w3.org/1999/xlink" xmlns:sodipodi="http://sodipodi.sourceforge.net/DTD/sodipodi-0.dtd" xmlns:inkscape="http://www.inkscape.org/namespaces/inkscape" id="svg2985" version="1.1" inkscape:version="0.48.5 r10040" width="1000" height="661.88501" sodipodi:docname="Discovery_Life_2016_logo.svg">
  <metadata id="metadata2991">
    <rdf:RDF>
      <cc:Work rdf:about="">
        <dc:format>image/svg+xml</dc:format>
        <dc:type rdf:resource="http://purl.org/dc/dcmitype/StillImage" />
        <dc:title></dc:title>
      </cc:Work>
    </rdf:RDF>
  </metadata>
  <defs id="defs2989"><linearGradient inkscape:collect="always" id="linearGradient4187">
  <stop style="stop-color:#4765a8;stop-opacity:1" offset="0" id="stop4189" />
  <stop style="stop-color:#8aa7e5;stop-opacity:1" offset="1" id="stop4191" />
</linearGradient>
<linearGradient inkscape:collect="always" id="linearGradient3212">
  <stop style="stop-color:#4765a8;stop-opacity:1" offset="0" id="stop3214" />
  <stop style="stop-color:#8aa7e5;stop-opacity:1" offset="1" id="stop3216" />
</linearGradient>
<linearGradient inkscape:collect="always" xlink:href="#linearGradient3212" id="linearGradient3292" gradientUnits="userSpaceOnUse" x1="287.63675" y1="14.998848" x2="287.63675" y2="0.76211745" gradientTransform="translate(-373.01647,137.03292)" />
<linearGradient inkscape:collect="always" xlink:href="#linearGradient3212" id="linearGradient3294" gradientUnits="userSpaceOnUse" x1="287.63675" y1="14.998848" x2="287.63675" y2="0.76211745" gradientTransform="translate(-373.01647,137.03292)" />
<linearGradient inkscape:collect="always" xlink:href="#linearGradient3212" id="linearGradient3296" gradientUnits="userSpaceOnUse" x1="287.63675" y1="14.998848" x2="287.63675" y2="0.76211745" gradientTransform="translate(-373.01647,137.03292)" />
<linearGradient inkscape:collect="always" xlink:href="#linearGradient3212" id="linearGradient3306" gradientUnits="userSpaceOnUse" x1="287.63675" y1="14.998848" x2="287.63675" y2="0.76211745" gradientTransform="translate(-47.937663,17.610585)" />
<linearGradient inkscape:collect="always" xlink:href="#linearGradient3212" id="linearGradient3308" gradientUnits="userSpaceOnUse" x1="287.63675" y1="14.998848" x2="287.63675" y2="0.76211745" gradientTransform="translate(-47.937663,17.610585)" />
<linearGradient inkscape:collect="always" xlink:href="#linearGradient3212" id="linearGradient3310" gradientUnits="userSpaceOnUse" x1="287.63675" y1="14.998848" x2="287.63675" y2="0.76211745" gradientTransform="translate(-47.937663,17.610585)" />
<linearGradient inkscape:collect="always" xlink:href="#linearGradient3212" id="linearGradient3312" gradientUnits="userSpaceOnUse" x1="287.63675" y1="14.998848" x2="287.63675" y2="0.76211745" gradientTransform="translate(-47.937663,17.610585)" />
<linearGradient inkscape:collect="always" xlink:href="#linearGradient3212" id="linearGradient3314" gradientUnits="userSpaceOnUse" x1="287.63675" y1="14.998848" x2="287.63675" y2="0.76211745" gradientTransform="translate(-47.937663,17.610585)" />
<linearGradient inkscape:collect="always" xlink:href="#linearGradient3212" id="linearGradient3316" gradientUnits="userSpaceOnUse" x1="287.63675" y1="14.998848" x2="287.63675" y2="0.76211745" gradientTransform="translate(-47.937663,17.610585)" />
<linearGradient inkscape:collect="always" xlink:href="#linearGradient3212" id="linearGradient3318" gradientUnits="userSpaceOnUse" x1="287.63675" y1="14.998848" x2="287.63675" y2="0.76211745" gradientTransform="translate(-47.937663,17.610585)" />

<linearGradient inkscape:collect="always" xlink:href="#linearGradient4187" id="linearGradient4193" x1="472.25323" y1="659.23798" x2="472.25323" y2="18.917015" gradientUnits="userSpaceOnUse" />
</defs>
  <sodipodi:namedview pagecolor="#ffffff" bordercolor="#666666" borderopacity="1" objecttolerance="10" gridtolerance="10" guidetolerance="10" inkscape:pageopacity="0" inkscape:pageshadow="2" inkscape:window-width="1366" inkscape:window-height="706" id="namedview2987" showgrid="false" inkscape:object-paths="true" fit-margin-top="0" fit-margin-left="0" fit-margin-right="0" fit-margin-bottom="0" inkscape:zoom="0.041820783" inkscape:cx="4501.1196" inkscape:cy="-1715.1303" inkscape:window-x="-8" inkscape:window-y="-8" inkscape:window-maximized="1" inkscape:current-layer="svg2985" />
  <g id="g4195">
    <g style="fill:#8aa7e5;fill-opacity:1" id="g4137">
      <path inkscape:connector-curvature="0" style="fill:#8aa7e5;fill-opacity:1" d="M 732.772,2.395 H 714.167 L 696.094,32.259 678.337,2.395 h -19.142 l 28.603,45.063 V 76.79 h 16.374 V 47.139 l 28.6,-44.744 z" id="path4124" />
      <path inkscape:connector-curvature="0" style="fill:#8aa7e5;fill-opacity:1" d="m 596.875,2.40625 0,74.375 16.375,0 0,-23.8125 12.875,0 15.9375,23.8125 19.15625,0 -18.1875,-26.5625 c 9.466,-3.507 15.9375,-11.0525 15.9375,-23.0625 l 0,-0.21875 c 0,-15.306 -10.5175,-24.53125 -28.0625,-24.53125 l -34.03125,0 z m 16.375,14.75 16.28125,0 c 7.976,0 12.875,3.611 12.875,10.625 l 0,0.21875 c 0,6.269 -4.5865,10.53125 -12.5625,10.53125 l -16.59375,0 0,-21.375 z" id="path4120" />
      <path inkscape:connector-curvature="0" style="fill:#8aa7e5;fill-opacity:1" d="M 586.576,76.79 V 62.229 H 546.173 V 46.606 h 35.089 V 32.046 H 546.173 V 16.955 h 39.871 V 2.394 h -56.139 v 74.395 h 56.671 z" id="path4118" />
      <path inkscape:connector-curvature="0" style="fill:#8aa7e5;fill-opacity:1" d="m 522.683,2.395 h -17.65 L 485.576,54.789 466.117,2.395 h -18.074 l 30.09,74.927 h 14.459 L 522.683,2.395 z" id="path4116" />
      <path inkscape:connector-curvature="0" style="fill:#8aa7e5;fill-opacity:1" d="m 409.4375,1.125 c -22.966,0 -39.65625,17.31975 -39.65625,38.46875 l 0,0.21875 c 0,21.148 16.4725,38.25 39.4375,38.25 22.968,0 39.6875,-17.31975 39.6875,-38.46875 l 0,-0.21875 c 0,-21.148 -16.50075,-38.25 -39.46875,-38.25 z m -0.21875,15.09375 c 13.187,0 22.5625,10.621 22.5625,23.375 l 0,0.21875 c 0,12.752 -9.15775,23.15625 -22.34375,23.15625 -13.185,0 -22.53125,-10.622 -22.53125,-23.375 l 0,-0.21875 c 0,-12.752 9.1295,-23.15625 22.3125,-23.15625 z" id="path4112" />
      <path inkscape:connector-curvature="0" style="fill:#8aa7e5;fill-opacity:1" d="M 366.39,64.78 355.97,54.259 c -5.848,5.314 -11.058,8.713 -19.563,8.713 -12.759,0 -21.583,-10.627 -21.583,-23.38 v -0.213 c 0,-12.752 9.035,-23.167 21.583,-23.167 7.443,0 13.29,3.188 19.033,8.396 L 365.86,12.597 C 358.948,5.796 350.548,1.119 336.512,1.119 c -22.861,0 -38.809,17.324 -38.809,38.473 v 0.213 c 0,21.361 16.267,38.259 38.172,38.259 14.354,0 22.86,-5.101 30.515,-13.284 l 0,0 z" id="path4110" />
      <path inkscape:connector-curvature="0" style="fill:#8aa7e5;fill-opacity:1" d="m 291.011,54.789 v -0.21 c 0,-12.966 -8.506,-18.387 -23.604,-22.32 C 254.54,28.965 251.35,27.37 251.35,22.481 v -0.213 c 0,-3.612 3.296,-6.482 9.568,-6.482 6.275,0 12.761,2.764 19.353,7.334 l 8.506,-12.329 c -7.55,-6.058 -16.8,-9.459 -27.646,-9.459 -15.205,0 -26.049,8.928 -26.049,22.426 v 0.211 c 0,14.773 9.676,18.917 24.668,22.744 12.44,3.189 14.993,5.314 14.993,9.458 v 0.213 c 0,4.356 -4.042,7.014 -10.739,7.014 -8.507,0 -15.525,-3.507 -22.223,-9.033 l -9.676,11.584 c 8.93,7.97 20.307,11.903 31.578,11.903 16.056,0 27.328,-8.29 27.328,-23.063 l 0,0 z" id="path4108" />
      <path inkscape:connector-curvature="0" style="fill:#8aa7e5;fill-opacity:1" d="m 206.483,76.79 h 16.373 V 2.395 H 206.483 V 76.79 z" id="path4106" />
      <path inkscape:connector-curvature="0" style="fill:#8aa7e5;fill-opacity:1" d="m 126.84375,2.40625 0,74.375 29.03125,0 c 23.391,0 39.5625,-16.2515 39.5625,-37.1875 l 0,-0.21875 c 0,-20.936 -16.1705,-36.96875 -39.5625,-36.96875 l -29.03125,0 z m 16.375,14.75 12.65625,0 c 13.396,0 22.4375,9.2585 22.4375,22.4375 l 0,0.21875 c 0,13.178 -9.0415,22.21875 -22.4375,22.21875 l -12.65625,0 0,-44.875 z" id="path4102" />
    </g>
    <g style="fill:url(#linearGradient4193);fill-opacity:1" id="g4128">
      <path sodipodi:nodetypes="cscccscccccccccccccc" inkscape:connector-curvature="0" style="fill:url(#linearGradient4193);fill-opacity:1" d="m 577.179,194.701 c 5.071,-12.538 25.524,-10.92 53.459,-10.92 l 31.082,0 0,-88.32 -26.308,0 c -73.171,-4.834 -155.335,-4.646 -155.335,118.2 l 0,17.161 -29.734,0 0,77.386 20.182,0 c 3.281,0.08 6.465,0.123 9.553,0.156 l 0,353.521 97.102,0 0,-340.909 c 4.509,-14.488 21.548,-11.994 53.459,-12.768 l 20.187,0 0,-77.386 -73.646,0 0,-36.121 z" id="path4100" />
      <path inkscape:connector-curvature="0" style="fill:url(#linearGradient4193);fill-opacity:1" d="m 830.375,219.3125 c -101.381,0 -172.21875,81.865 -172.21875,181.25 l 0,1.3125 c 0,106.538 77.34075,179.9375 181.96875,179.9375 63.051,0 109.8245,-24.69475 142.3125,-64.96875 L 925.90625,466.8125 c -27.299,25.338 -51.32275,35.71875 -84.46875,35.71875 -44.191,0 -75.40825,-23.3705 -85.15625,-68.1875 l 150.15625,0 92.25,0 c 0.655,-9.101 1.3125,-14.9445 1.3125,-24.6875 l 0,-1.3125 c 0,-98.736 -53.287,-189.03125 -169.625,-189.03125 z m 0,79.25 c 41.589,0 67.5865,29.8875 73.4375,74.0625 l -148.8125,0 c 7.794,-44.826 34.432,-74.0625 75.375,-74.0625 z" id="path4096" />
      <path inkscape:connector-curvature="0" style="fill:url(#linearGradient4193);fill-opacity:1" d="M 330.15625,99.78125 C 307.80925,99.47325 297.5,117.741 297.5,135.75 l 0,51.75 103.96875,0 0,-87.71875 c 0,0 -57.1415,0.2 -71.3125,0 z m -30.0625,126.03125 0,348.1875 98.78125,0 0,-348.1875 -98.78125,0 z" id="path4094" />
      <path inkscape:connector-curvature="0" style="fill:url(#linearGradient4193);fill-opacity:1" d="m 186.012,484.68 h 74.542 v 89.327 H 99.843 96.961 0 V 484.68 0 h 99.843 v 465.759 c 0.163,0.308 0.3,0.614 0.4,0.914 0,15.22 12.729,17.706 32.883,18.007 h 13.879 c 2.57,-0.015 5.213,-0.031 7.931,-0.031 h 31.076 v 0.031 z" id="path3262" />
    </g>
  </g>
</svg>
