<?xml version="1.0" encoding="UTF-8" standalone="no"?>
<svg
   xmlns:dc="http://purl.org/dc/elements/1.1/"
   xmlns:cc="http://creativecommons.org/ns#"
   xmlns:rdf="http://www.w3.org/1999/02/22-rdf-syntax-ns#"
   xmlns:svg="http://www.w3.org/2000/svg"
   xmlns="http://www.w3.org/2000/svg"
   xmlns:sodipodi="http://sodipodi.sourceforge.net/DTD/sodipodi-0.dtd"
   xmlns:inkscape="http://www.inkscape.org/namespaces/inkscape"
   width="376.37109"
   height="375"
   id="svg2"
   sodipodi:version="0.32"
   inkscape:version="1.0.2-2 (e86c870879, 2021-01-15)"
   version="1.0"
   sodipodi:docname="ESPNU.svg">
  <metadata
     id="metadata7020">
    <rdf:RDF>
      <cc:Work
         rdf:about="">
        <dc:format>image/svg+xml</dc:format>
        <dc:type
           rdf:resource="http://purl.org/dc/dcmitype/StillImage" />
      </cc:Work>
    </rdf:RDF>
  </metadata>
  <defs
     id="defs7018" />
  <sodipodi:namedview
     pagecolor="#ffffff"
     bordercolor="#666666"
     borderopacity="1"
     objecttolerance="10"
     gridtolerance="10"
     guidetolerance="10"
     inkscape:pageopacity="0"
     inkscape:pageshadow="2"
     inkscape:window-width="1366"
     inkscape:window-height="705"
     id="namedview7016"
     showgrid="false"
     showguides="true"
     inkscape:snap-global="true"
     inkscape:guide-bbox="true"
     inkscape:snap-smooth-nodes="false"
     inkscape:zoom="1"
     inkscape:cx="220.60015"
     inkscape:cy="182.62874"
     inkscape:window-x="-8"
     inkscape:window-y="-8"
     inkscape:window-maximized="1"
     inkscape:current-layer="layer1"
     inkscape:document-rotation="0" />
  <g
     inkscape:label="Layer 1"
     inkscape:groupmode="layer"
     id="layer1"
     transform="translate(-166.68605,-239.63793)">
    <g
       id="g1408">
      <path
         id="path7058-3-7"
         style="fill:#000000;fill-rule:nonzero;stroke:none"
         d="M 43.75,0 V 87.501953 H 67.716797 V 117.38477 H 0.06835937 L 25.085938,174.38672 0,231.43359 h 67.716797 v 85.44532 L 125.12891,375 h 126.11328 l 57.41211,-58.12109 v -85.44532 h 67.71679 l -25.08593,-57.04687 25.01757,-57.00195 H 308.6543 V 87.501953 h 23.96679 V 0 H 199.63086 v 87.296875 l 12.79492,-0.02344 V 117.38477 H 163.94531 V 87.273438 l 12.79492,0.02344 V 0 Z m 120.19531,231.43359 h 48.48047 v 56.57227 h -48.48047 z"
         transform="translate(166.68605,239.63793)" />
      <path
         id="path21174"
         style="fill:#ed1c24;fill-opacity:1;fill-rule:nonzero;stroke:none"
         d="m 238.11769,267.32348 v 32.12109 h 23.96289 v 57.57813 h 40.94141 v -57.57813 h 13.98437 v -32.12109 z m 154.61133,0 v 32.12109 h 13.98437 v 57.57813 h 40.94141 v -57.57813 h 23.96289 V 267.32348 Z M 262.08058,471.07152 v 74.07032 l 41.29883,41.80859 h 102.97656 l 41.29883,-41.80859 v -74.07032 h -40.94141 v 66.41602 l -17.625,17.84375 h -68.4414 l -17.625,-17.84375 v -66.41602 z"
         sodipodi:nodetypes="ccccccccccccccccccccccccccccccc" />
      <path
         id="svg_1"
         style="fill:#ffffff;fill-opacity:1;stroke:none;stroke-width:0.40201"
         d="m 307.27936,379.46355 c -10.35579,-1.2e-4 -17.17591,5.44942 -18.17889,13.60723 l -0.69548,5.65669 H 423.1467 l 0.45025,-3.58432 c 1.03263,-8.22028 -2.4804,-15.67824 -15.18794,-15.67839 z m -84.59618,19.26432 h 61.10553 l 2.35578,-19.26192 -61.09689,8e-5 z m 205.12281,0 h 66.24321 l 0.37387,-2.96403 c 1.59507,-12.64538 -6.54472,-16.29791 -14.4201,-16.2979 l -49.83718,8e-5 z m -6.07437,49.37204 22.85427,-0.008 5.16584,-42.02211 -22.8583,-0.008 z m 43.40904,0 22.85428,-0.008 5.16583,-42.02211 -22.85026,-0.008 z m -248.51938,0.002 h 61.1015 l 2.25126,-18.23518 -38.2605,-0.004 0.96804,-7.86332 h 38.24522 l 1.95779,-15.93044 -61.09105,-4.8e-4 z m 70.88723,-42.03434 c -1.67639,10.97086 3.81508,15.93349 11.59798,15.93045 l 30.91458,-0.0121 -0.96483,7.87539 -44.46633,0.004 -2.23918,18.23517 h 50.37184 c 1.6243,0 12.94562,-0.42576 16.80001,-9.68844 1.25114,-3.00667 2.35823,-13.7886 2.66533,-16.05225 1.78336,-13.14541 -7.32061,-16.27849 -14.48845,-16.28021 z m 65.96984,42.03417 h 22.84221 l 3.21609,-26.1025 h 28.69144 c 8.13669,0 12.59371,-4.36379 13.32263,-10.24966 l 0.70352,-5.6808 -63.61407,-4.8e-4 z"
         sodipodi:nodetypes="cccccccccccccccccccccccccccccccccccccccccccccccccccccccc" />
    </g>
  </g>
</svg>
