<?xml version="1.0" encoding="UTF-8" standalone="no"?>
<svg
   width="999.99176"
   height="349.68454"
   viewBox="0 0 999.99176 349.68454"
   version="1.1"
   id="svg2"
   xml:space="preserve"
   xmlns="http://www.w3.org/2000/svg"
   xmlns:svg="http://www.w3.org/2000/svg"><defs
     id="defs2"><filter
       id="Ellipse_34"
       x="0"
       y="0"
       width="261"
       height="261"
       filterUnits="userSpaceOnUse"><feOffset
         dy="2"
         input="SourceAlpha"
         id="feOffset1" /><feGaussianBlur
         stdDeviation="7.5"
         result="blur"
         id="feGaussianBlur1" /><feFlood
         flood-opacity="0.102"
         id="feFlood1" /><feComposite
         operator="in"
         in2="blur"
         id="feComposite1" /><feComposite
         in="SourceGraphic"
         id="feComposite2" /></filter></defs><path
     id="Path_63379"
     data-name="Path 63379"
     d="M 998.74548,258.99721 H 356.06626 v 6.43018 h 642.67922 z"
     fill="#4272b8"
     style="fill:#0078ff;fill-opacity:1;stroke-width:6.0605" /><path
     style="fill:#0078ff;fill-opacity:1;stroke-width:1.4261"
     d="m 951.7497,116.60471 h 45.35143 c 0.98543,0 1.64144,0.65543 1.64144,1.64072 v 18.50907 c 0,0.9853 -0.65601,1.64074 -1.64144,1.64074 h -66.68305 c -0.98543,0 -1.64001,-0.65544 -1.64001,-1.64074 V 41.587808 c 0,-0.985436 0.65458,-1.640872 1.64001,-1.640872 h 19.69018 c 0.98543,0 1.64144,0.655436 1.64144,1.640872 z"
     id="path22" /><path
     style="fill:#0078ff;fill-opacity:1;stroke-width:1.4261"
     d="m 905.29019,78.010991 c 0.98544,0 1.64002,0.655578 1.64002,1.640871 v 18.244107 c 0,0.985436 -0.65458,1.640873 -1.64002,1.640873 h -43.51603 v 17.063438 h 46.13721 c 0.98543,0 1.64144,0.65558 1.64144,1.64087 v 18.50894 c 0,0.98543 -0.65601,1.64087 -1.64144,1.64087 h -67.46741 c -0.98543,0 -1.64144,-0.65544 -1.64144,-1.64087 V 41.587808 c 0,-0.985436 0.65601,-1.640872 1.64144,-1.640872 h 67.46741 c 0.98543,0 1.64144,0.655436 1.64144,1.640872 v 18.508933 c 0,0.985436 -0.65601,1.640872 -1.64144,1.640872 h -46.13721 v 16.277799 h 43.51603 z"
     id="path21" /><path
     style="fill:#0078ff;fill-opacity:1;stroke-width:1.4261"
     d="M 735.57564,99.54112 V 41.587808 c 0,-0.985436 0.65458,-1.640872 1.64002,-1.640872 h 19.69017 c 0.98543,0 1.64001,0.655436 1.64001,1.640872 V 99.54112 c 0,11.15582 7.80934,18.9041 18.9044,18.9041 11.09506,0 18.9044,-7.744 18.9044,-18.9041 V 41.587808 c 0,-0.985436 0.656,-1.640872 1.64001,-1.640872 h 19.69017 c 0.98544,0 1.64145,0.655436 1.64145,1.640872 V 99.54112 c 0,24.15201 -17.06331,40.69022 -41.87175,40.69022 -24.80703,0 -41.8746,-16.53821 -41.8746,-40.69022 z"
     id="path20" /><path
     style="fill:#0078ff;fill-opacity:1;stroke-width:1.4261"
     d="m 670.99753,116.60471 c 15.61865,0 27.43389,-11.81554 27.43389,-27.433625 0,-15.617942 -11.81524,-27.433472 -27.43389,-27.433472 h -34.98226 c -0.98544,0 -1.64001,-0.655436 -1.64001,-1.640872 V 41.587808 c 0,-0.985436 0.65457,-1.640872 1.64001,-1.640872 h 34.98226 c 28.81436,0 50.40553,21.135241 50.40553,49.224149 0,28.089055 -21.59545,49.224155 -50.40553,49.224155 h -34.98226 c -0.98544,0 -1.64001,-0.65544 -1.64001,-1.64074 V 90.746784 c 0,-6.16817 1.97087,-10.960297 5.4477,-14.437274 3.15168,-3.151397 8.07315,-5.252328 12.47125,-5.252328 h 3.41124 c 0.98543,0 1.64144,0.655435 1.64144,1.640728 v 43.9068 z"
     id="path19" /><path
     style="fill:#0078ff;fill-opacity:1;stroke-width:1.4261"
     d="m 531.07849,41.587808 c 0,-0.985436 0.65458,-1.640872 1.64003,-1.640872 h 22.90602 c 1.18081,0 1.9067,0.39503 2.49711,1.445496 l 34.26064,58.283311 V 41.587808 c 0,-0.985436 0.65601,-1.640872 1.64144,-1.640872 h 19.29373 c 0.98543,0 1.64143,0.655436 1.64143,1.640872 V 136.7545 c 0,0.9853 -0.656,1.64074 -1.64143,1.64074 h -22.64078 c -1.18081,0 -1.901,-0.39503 -2.49568,-1.4455 L 553.65937,78.210788 V 136.7545 c 0,0.9853 -0.656,1.64074 -1.64143,1.64074 H 532.7228 c -0.98545,0 -1.64002,-0.65544 -1.64002,-1.64074 V 41.587808 Z"
     id="path18" /><path
     style="fill:#0078ff;fill-opacity:1;stroke-width:1.4261"
     d="m 456.07416,41.457605 c 0.39503,-1.050467 1.1152,-1.510669 2.23184,-1.510669 h 26.38287 c 1.1152,0 1.83539,0.460202 2.23042,1.510669 l 34.52162,95.101525 c 0.33086,0.85509 -0.3936,1.83611 -1.31486,1.83611 h -20.86957 c -1.11663,0 -1.77121,-0.52523 -2.16624,-1.5757 l -6.62852,-19.16438 h -38.19811 l -6.62851,19.16438 c -0.33086,1.05047 -1.05104,1.5757 -2.16625,1.5757 h -20.61 c -0.91984,0 -1.64145,-0.9853 -1.31059,-1.83611 l 34.52161,-95.101525 z m 27.03887,54.736884 -11.7468,-33.996816 -11.74964,33.996816 z"
     id="path17" /><path
     style="fill:#0078ff;fill-opacity:1;stroke-width:1.4261"
     d="m 356.05458,41.587808 c 0,-0.985436 0.65601,-1.640872 1.64144,-1.640872 h 74.49095 c 0.91984,0 1.64144,0.985435 1.31059,1.836247 l -6.6927,18.443761 c -0.39503,1.050466 -1.11521,1.510669 -2.23185,1.510669 h -45.5468 v 19.950009 h 37.99846 c 0.91983,0 1.64143,0.985435 1.31058,1.836247 l -6.56292,18.113901 c -0.39503,1.1155 -1.1152,1.5757 -2.23042,1.5757 h -30.51998 v 33.53662 c 0,0.98543 -0.65601,1.64087 -1.64144,1.64087 h -19.68875 c -0.98543,0 -1.64144,-0.65544 -1.64144,-1.64087 V 41.587808 Z"
     id="path16" /><path
     style="fill:#0078ff;fill-opacity:1;stroke-width:1.4261"
     d="m 156.24074,51.33706 c -1.69277,-0.147459 -2.86931,-1.692781 -2.35306,-3.381427 5.37069,-15.596267 11.54714,-30.307066 18.54074,-43.989148 0.80717,-1.6190953 2.20475,-2.2788946 4.11857,-2.0618565 38.54608,4.3407511 75.03002,16.4775245 107.54654,34.6479025 1.98799,1.102518 2.86931,2.869172 2.79516,5.221953 -0.65886,92.540396 -47.00571,181.105096 -125.05192,234.656606 -1.47174,1.02821 -3.38556,0.44352 -4.04585,-1.25069 -5.66447,-15.22648 -10.30072,-30.67543 -13.60785,-45.60813 -0.44352,-1.9837 0,-3.52817 1.54447,-4.70898 47.22817,-37.22266 80.33082,-92.75773 88.27421,-155.946115 -24.0569,-9.931652 -50.09323,-16.108521 -77.75244,-17.580115 z"
     id="path15" /><path
     style="fill:#0078ff;fill-opacity:1;stroke-width:1.4261"
     d="m 61.716792,109.52496 c 19.051565,-8.82913 39.136198,-14.198681 58.847618,-16.55132 2.13558,-0.295202 3.01678,1.176391 2.79544,2.869173 -2.50023,15.153597 -4.19316,30.528547 -4.85302,46.046797 -0.14746,1.76722 -1.10251,2.94233 -3.0905,3.31169 -10.96044,2.13629 -21.625676,5.51758 -33.397852,10.88685 10.591508,18.39242 23.392322,35.23325 37.517142,49.35878 1.61919,1.69278 2.57412,3.45971 3.01678,6.32475 3.67662,23.61338 10.07925,47.4478 18.61318,70.02868 0.51225,1.25069 0.51225,2.1363 -0.22133,2.86932 -0.80732,0.73443 -2.06186,0.73443 -3.23825,0 C 52.375547,232.73679 0.88117549,139.53683 0,41.774484 0,39.421703 0.81172313,37.655049 2.7954422,36.552531 48.108506,11.17648 99.086337,-1.0340585 150.28535,0.06849308 c 2.27891,0.07378938 3.09036,2.06185852 2.20476,3.89799192 -7.06206,14.636998 -12.948,29.569272 -17.57955,44.505682 -0.51654,1.766796 -1.61905,2.647983 -3.52903,2.721712 -27.36402,1.397722 -53.9946,7.579013 -78.41572,17.727574 1.766797,13.903484 4.78357,27.511765 8.755403,40.603507 z"
     id="path1" /><path
     d="m 396.13657,209.72237 c 0,11.31611 -10.06115,15.75699 -19.30656,15.75699 -14.49916,0 -20.86242,-7.99186 -22.26856,-16.94207 h 8.43396 c 1.55445,5.99105 5.54753,9.09852 13.76044,9.09852 6.95367,0 10.94675,-2.73955 10.94675,-7.54408 0,-4.80595 -4.21412,-5.62168 -13.83318,-7.76654 -10.06256,-2.21759 -17.90183,-5.02986 -17.90183,-14.71878 0,-10.28362 9.09851,-15.68283 19.01277,-15.68283 13.01745,0 19.01278,6.73262 20.49307,14.9441 h -8.43396 c -1.4803,-4.28828 -5.03129,-7.10056 -11.98495,-7.10056 -6.95367,0 -10.72571,3.10748 -10.72571,7.61824 0,3.69788 2.95916,4.88297 11.54144,6.73262 13.09588,2.88643 20.27202,5.62026 20.27202,15.60867 z"
     fill="white"
     id="path2"
     style="fill:#0078ff;fill-opacity:1;stroke-width:1.4261" /><path
     d="m 402.1319,224.59375 v -51.78457 h 21.23178 c 11.31611,0 18.19562,6.80536 18.19562,17.0148 0,10.20946 -6.87951,17.23729 -18.19562,17.23729 h -12.87056 v 17.53248 z m 20.93658,-25.52435 c 6.80535,0 9.98698,-3.91892 9.98698,-9.17126 0,-5.25232 -3.18163,-9.09851 -9.98698,-9.09851 h -12.57536 v 18.27548 h 12.57536 z"
     fill="white"
     id="path3"
     style="fill:#0078ff;fill-opacity:1;stroke-width:1.4261" /><path
     d="m 498.89568,198.70146 c -0.0742,15.24075 -11.68975,26.7779 -26.85205,26.7779 -15.1623,0 -26.85205,-11.54143 -26.85205,-26.7779 0,-15.23645 11.68975,-26.77788 26.85205,-26.77788 15.1623,0 26.77789,11.54143 26.85205,26.77788 z m -45.27014,0 c 0,10.79987 7.91771,18.79031 18.42237,18.79031 10.50465,0 18.34821,-7.99044 18.34821,-18.79031 0,-10.79986 -7.9177,-18.79172 -18.34821,-18.79172 -10.4305,0 -18.42237,7.99186 -18.42237,18.79172 z"
     fill="white"
     id="path4"
     style="fill:#0078ff;fill-opacity:1;stroke-width:1.4261" /><path
     d="m 505.04218,172.80918 h 21.37725 c 11.24765,0 17.60664,6.65847 17.60664,16.42012 0,8.58228 -4.80882,14.05565 -13.02173,15.6101 l 15.46179,19.75007 H 536.18251 L 521.4623,205.2815 h -8.0646 v 19.30797 h -8.3598 V 172.8049 Z m 20.49164,25.07655 c 6.88094,0 10.06256,-3.55098 10.06256,-8.58227 0,-5.03128 -3.25578,-8.50811 -10.06256,-8.50811 h -12.13184 v 17.09038 z"
     fill="white"
     id="path5"
     style="fill:#0078ff;fill-opacity:1;stroke-width:1.4261" /><path
     d="m 585.53131,180.79963 h -15.82972 v 43.79412 h -8.36124 v -43.79412 h -15.75698 v -7.99045 h 39.94794 z"
     fill="white"
     id="path6"
     style="fill:#0078ff;fill-opacity:1;stroke-width:1.4261" /><path
     d="m 628.44125,209.72237 c 0,11.31611 -10.06114,15.75699 -19.30797,15.75699 -14.49775,0 -20.86101,-7.99186 -22.26715,-16.94207 h 8.43397 c 1.55302,5.99105 5.54753,9.09852 13.75902,9.09852 6.95509,0 10.94817,-2.73955 10.94817,-7.54408 0,-4.80595 -4.21555,-5.62168 -13.8346,-7.76654 -10.06114,-2.21759 -17.90042,-5.02986 -17.90042,-14.71878 0,-10.28362 9.09853,-15.68283 19.01277,-15.68283 13.01745,0 19.01135,6.73262 20.49165,14.9441 h -8.43397 c -1.48028,-4.28828 -5.03128,-7.10056 -11.98495,-7.10056 -6.95367,0 -10.7257,3.10748 -10.7257,7.61824 0,3.69788 2.96059,4.88297 11.54286,6.73262 13.09589,2.88643 20.2706,5.62026 20.2706,15.60867 z"
     fill="white"
     id="path7"
     style="fill:#0078ff;fill-opacity:1;stroke-width:1.4261" /><path
     d="m 687.70286,212.82984 -0.743,-18.3482 V 172.8049 h 8.35981 v 51.78457 h -9.91425 l -25.89229,-40.02209 0.81146,18.34394 v 21.67815 h -8.35981 V 172.8049 h 9.84009 l 25.89372,40.02067 z"
     fill="white"
     id="path8"
     style="fill:#0078ff;fill-opacity:1;stroke-width:1.4261" /><path
     d="m 735.7154,180.79963 h -25.45019 v 13.39108 h 23.59626 v 7.99187 h -23.59626 v 14.42501 h 25.45019 v 7.99044 h -33.80572 v -51.78457 h 33.80572 v 7.99044 z"
     fill="white"
     id="path9"
     style="fill:#0078ff;fill-opacity:1;stroke-width:1.4261" /><path
     d="m 778.77081,180.79963 h -15.82972 v 43.79412 h -8.36122 v -43.79412 h -15.75699 v -7.99045 h 39.94793 z"
     fill="white"
     id="path10"
     style="fill:#0078ff;fill-opacity:1;stroke-width:1.4261" /><path
     d="m 838.54725,224.59375 h -10.4305 l -4.95713,-18.71757 -5.02985,-23.08001 -1.33341,-0.0727 -4.95713,23.15274 -4.95713,18.71757 H 796.37745 L 782.617,172.80916 h 8.58227 l 6.58432,24.78136 3.92035,18.19561 3.91892,-18.19561 6.51158,-24.78136 h 10.65154 l 6.51158,24.78136 3.99308,18.34393 3.92035,-18.34393 6.51158,-24.78136 h 8.58084 l -13.76044,51.78457 z"
     fill="white"
     id="path11"
     style="fill:#0078ff;fill-opacity:1;stroke-width:1.4261" /><path
     d="m 906.23997,198.70146 c -0.0727,15.24075 -11.68832,26.7779 -26.85489,26.7779 -15.16659,0 -26.85206,-11.54143 -26.85206,-26.7779 0,-15.23645 11.68975,-26.77788 26.85206,-26.77788 15.16086,0 26.77788,11.54143 26.85489,26.77788 z m -45.27299,0 c 0,10.79987 7.91771,18.79031 18.42237,18.79031 10.50466,0 18.34821,-7.99044 18.34821,-18.79031 0,-10.79986 -7.91771,-18.79172 -18.34821,-18.79172 -10.43193,0 -18.42237,7.99186 -18.42237,18.79172 z"
     fill="white"
     id="path12"
     style="fill:#0078ff;fill-opacity:1;stroke-width:1.4261" /><path
     d="m 912.38647,172.80918 h 21.37868 c 11.24195,0 17.60663,6.65847 17.60663,16.42012 0,8.58228 -4.81023,14.05565 -13.01887,15.6101 l 15.46178,19.75007 H 943.53251 L 928.8123,205.2815 h -8.0646 v 19.30797 h -8.36123 V 172.8049 Z m 20.48879,25.07655 c 6.87951,0 10.06257,-3.55098 10.06257,-8.58227 0,-5.03128 -3.25579,-8.50811 -10.06257,-8.50811 h -12.13184 v 17.09038 z"
     fill="white"
     id="path13"
     style="fill:#0078ff;fill-opacity:1;stroke-width:1.4261" /><path
     d="m 975.86221,198.03262 23.45223,26.55685 h -10.57739 l -21.89492,-24.7072 v 24.7072 h -8.35981 V 172.8049 h 8.35981 v 23.60054 l 20.93515,-23.60054 h 10.50466 l -22.41544,25.22772 z"
     fill="white"
     id="path14"
     style="fill:#0078ff;fill-opacity:1;stroke-width:1.4261" /><path
     style="font-size:70.0693px;line-height:0.9;font-family:Stolzl;-inkscape-font-specification:Stolzl;text-align:end;letter-spacing:0px;word-spacing:0px;text-anchor:end;fill:#0078ff;fill-opacity:1;stroke-width:4.95773;stroke-linecap:round;stroke-linejoin:round;paint-order:markers stroke fill"
     d="m 999.99177,299.79521 h -37.83744 v 7.56749 h 14.92476 v 41.48102 h 7.91783 V 307.3627 h 14.99485 z"
     id="path28" /><path
     style="font-size:70.0693px;line-height:0.9;font-family:Stolzl;-inkscape-font-specification:Stolzl;text-align:end;letter-spacing:0px;word-spacing:0px;text-anchor:end;fill:#0078ff;fill-opacity:1;stroke-width:4.95773;stroke-linecap:round;stroke-linejoin:round;paint-order:markers stroke fill"
     d="m 949.82564,348.84372 h 7.91783 v -49.04851 h -7.91783 z"
     id="path27" /><path
     style="font-size:70.0693px;line-height:0.9;font-family:Stolzl;-inkscape-font-specification:Stolzl;text-align:end;letter-spacing:0px;word-spacing:0px;text-anchor:end;fill:#0078ff;fill-opacity:1;stroke-width:4.95773;stroke-linecap:round;stroke-linejoin:round;paint-order:markers stroke fill"
     d="m 918.56012,298.95438 c -14.36421,0 -25.43516,10.93081 -25.43516,25.36509 0,14.43427 11.07095,25.36508 25.43516,25.36508 14.3642,0 25.36508,-10.93081 25.43515,-25.36508 -0.0701,-14.43428 -11.07095,-25.36509 -25.43515,-25.36509 z m 0,7.56748 c 9.87977,0 17.37718,7.56749 17.37718,17.79761 0,10.23011 -7.49741,17.7976 -17.37718,17.7976 -9.94984,0 -17.44726,-7.56749 -17.44726,-17.7976 0,-10.23012 7.49742,-17.79761 17.44726,-17.79761 z"
     id="path26" /><path
     style="font-size:70.0693px;line-height:0.9;font-family:Stolzl;-inkscape-font-specification:Stolzl;text-align:end;letter-spacing:0px;word-spacing:0px;text-anchor:end;fill:#0078ff;fill-opacity:1;stroke-width:4.95773;stroke-linecap:round;stroke-linejoin:round;paint-order:markers stroke fill"
     d="m 853.40241,348.84372 h 7.91783 v -18.28809 h 7.63756 l 13.94379,18.28809 h 9.73963 l -14.64448,-18.7085 c 7.77769,-1.47146 12.33219,-6.65659 12.33219,-14.78462 0,-9.24915 -6.02596,-15.55539 -16.67649,-15.55539 h -20.25003 z m 7.91783,-25.29502 v -16.186 h 11.49137 c 6.44637,0 9.52942,3.29325 9.52942,8.05796 0,4.76472 -3.01298,8.12804 -9.52942,8.12804 z"
     id="path25" /><path
     style="font-size:70.0693px;line-height:0.9;font-family:Stolzl;-inkscape-font-specification:Stolzl;text-align:end;letter-spacing:0px;word-spacing:0px;text-anchor:end;fill:#0078ff;fill-opacity:1;stroke-width:4.95773;stroke-linecap:round;stroke-linejoin:round;paint-order:markers stroke fill"
     d="m 848.97821,299.79521 h -37.83742 v 7.56749 h 14.92476 v 41.48102 h 7.91783 V 307.3627 h 14.99483 z"
     id="path24" /><path
     style="font-size:70.0693px;line-height:0.9;font-family:Stolzl;-inkscape-font-specification:Stolzl;text-align:end;letter-spacing:0px;word-spacing:0px;text-anchor:end;fill:#0078ff;fill-opacity:1;stroke-width:4.95773;stroke-linecap:round;stroke-linejoin:round;paint-order:markers stroke fill"
     d="m 809.55358,299.79521 h -32.02167 v 49.04851 h 32.02167 v -7.56748 h -24.10384 v -13.66352 h 22.3521 v -7.56748 h -22.3521 V 307.3627 h 24.10384 z"
     id="path23" /><path
     style="font-size:70.0693px;line-height:0.9;font-family:Stolzl;-inkscape-font-specification:Stolzl;text-align:end;letter-spacing:0px;word-spacing:0px;text-anchor:end;fill:#0078ff;fill-opacity:1;stroke-width:4.95773;stroke-linecap:round;stroke-linejoin:round;paint-order:markers stroke fill"
     d="m 729.42922,348.84372 h 17.16698 c 14.22407,0 25.08481,-10.37026 25.08481,-24.52425 0,-14.22407 -10.79067,-24.52426 -25.08481,-24.52426 h -17.16698 z m 7.91783,-7.56748 V 307.3627 h 9.31922 c 9.87977,0 17.09691,7.00692 17.09691,16.95677 0,10.0199 -7.21714,16.95677 -17.09691,16.95677 z"
     id="text2" /></svg>
