<?xml version="1.0" encoding="UTF-8" standalone="no"?>
<svg
   xmlns:dc="http://purl.org/dc/elements/1.1/"
   xmlns:cc="http://creativecommons.org/ns#"
   xmlns:rdf="http://www.w3.org/1999/02/22-rdf-syntax-ns#"
   xmlns:svg="http://www.w3.org/2000/svg"
   xmlns="http://www.w3.org/2000/svg"
   xmlns:sodipodi="http://sodipodi.sourceforge.net/DTD/sodipodi-0.dtd"
   xmlns:inkscape="http://www.inkscape.org/namespaces/inkscape"
   width="112.13917mm"
   height="112.13916mm"
   viewBox="0 0 112.13917 112.13916"
   version="1.1"
   id="svg113"
   inkscape:version="1.0.2-2 (e86c870879, 2021-01-15)"
   sodipodi:docname="Food_Network_2013.svg">
  <defs
     id="defs107" />
  <sodipodi:namedview
     id="base"
     pagecolor="#ffffff"
     bordercolor="#666666"
     borderopacity="1.0"
     inkscape:pageopacity="0.0"
     inkscape:pageshadow="2"
     inkscape:zoom="1"
     inkscape:cx="306.543"
     inkscape:cy="257.36034"
     inkscape:document-units="mm"
     inkscape:current-layer="layer1"
     showgrid="false"
     inkscape:window-width="1366"
     inkscape:window-height="705"
     inkscape:window-x="-8"
     inkscape:window-y="-8"
     inkscape:window-maximized="1"
     showguides="true"
     inkscape:guide-bbox="true"
     inkscape:object-paths="false"
     inkscape:document-rotation="0" />
  <metadata
     id="metadata110">
    <rdf:RDF>
      <cc:Work
         rdf:about="">
        <dc:format>image/svg+xml</dc:format>
        <dc:type
           rdf:resource="http://purl.org/dc/dcmitype/StillImage" />
        <dc:title />
      </cc:Work>
    </rdf:RDF>
  </metadata>
  <g
     inkscape:label="Layer 1"
     inkscape:groupmode="layer"
     id="layer1"
     style="display:inline;opacity:1"
     transform="translate(-49.853545,-91.387199)">
    <g
       id="g8358">
      <path
         sodipodi:nodetypes="ccccc"
         inkscape:connector-curvature="0"
         id="path364"
         d="m 161.99271,147.45678 c 0,30.96638 -25.10321,56.06958 -56.06959,56.06958 -30.966368,0 -56.069573,-25.10321 -56.069575,-56.06958 -10e-7,-30.96637 25.103204,-56.06958 56.069575,-56.069581 30.96638,-3e-6 56.06959,25.103211 56.06959,56.069581 z"
         style="vector-effect:none;fill:#e20d41;fill-opacity:1;fill-rule:nonzero;stroke:none;stroke-width:1.15923;stroke-linecap:butt;stroke-linejoin:miter;stroke-miterlimit:50;stroke-dasharray:none;stroke-dashoffset:0;stroke-opacity:1;paint-order:markers stroke fill" />
      <path
         id="rect262-8-8"
         style="display:inline;vector-effect:none;fill:#ffffff;fill-opacity:1;fill-rule:nonzero;stroke:none;stroke-width:0.724195;stroke-linecap:butt;stroke-linejoin:miter;stroke-miterlimit:50;stroke-dasharray:none;stroke-dashoffset:0;stroke-opacity:1;paint-order:markers stroke fill"
         d="m 80.743611,117.61358 c -3.92255,0.0313 -8.819335,1.95277 -11.760448,6.47832 -1.932514,2.97359 -2.351251,5.57215 -2.351251,5.57215 l -1.131135,5.78117 h -2.878414 l -1.809396,6.15892 h 3.69686 l -4.43766,24.07996 c 0,0 -0.63793,4.96169 -4.333393,6.77925 0.955512,1.92007 2.024386,3.78374 3.193407,5.58181 2.072554,-0.82961 7.222671,-3.56461 8.666757,-11.63412 l 4.439338,-24.8069 h 3.687209 l 1.916424,-6.15892 h -4.475436 l 0.688755,-4.14092 c 0,0 0.381842,-5.44642 4.370086,-6.83298 1.225269,-0.42598 3.179505,-0.62066 4.753705,0.14732 l 2.133838,-6.4246 c 0,0 -1.820867,-0.60079 -4.369246,-0.58046 z m 73.454649,1.32462 c -2.60026,0.67673 -6.37892,2.49278 -8.03516,8.90596 -0.33483,1.29652 -0.87268,2.88982 -1.39933,5.71108 -0.1111,0.59515 -0.23094,1.24793 -0.28247,1.80226 -1.33259,-1.68235 -3.37687,-2.78817 -5.70772,-2.78817 -3.70082,0 -5.10883,0.88796 -6.57696,1.94706 -3.28088,2.36682 -4.10305,6.74381 -4.88675,9.81548 -0.32824,1.2865 -0.98196,3.8861 -1.14667,5.92346 -0.49804,6.16037 1.36998,9.74413 8.25876,9.74413 3.18893,0 6.04009,-2.01613 7.55405,-4.71635 0.28335,1.2837 1.77396,4.71149 7.40044,4.77847 l 1.81653,-5.68464 c 0,0 -2.9267,-0.21617 -2.13006,-4.72852 l 3.08282,-17.46188 c 0,0 0.93135,-6.16994 5.2673,-6.92405 -0.93859,-2.17397 -2.00909,-4.28629 -3.21478,-6.32429 z m -63.317242,13.92495 c -1.898374,0.0413 -3.691928,0.37996 -5.334175,1.14162 -6.168002,2.86067 -7.113262,7.73896 -7.896961,10.81064 -0.328231,1.28649 -0.687444,3.29723 -0.878045,5.65483 -0.498038,6.16038 3.838116,9.84629 9.364288,9.57163 l 0.970804,-0.0483 c 6.012243,-0.29881 10.965983,-4.83245 12.241024,-11.41292 0.628687,-3.24466 0.946367,-5.56311 1.045517,-7.00129 0.31584,-4.58135 -2.827306,-8.59873 -8.914357,-8.71708 -0.196356,-0.004 -0.39563,-0.004 -0.598095,8.7e-4 z m 24.920232,0 c -1.89838,0.0413 -3.69193,0.37996 -5.33417,1.14162 -6.16801,2.86067 -7.11327,7.73896 -7.89697,10.81064 -0.32823,1.28649 -0.68744,3.29722 -0.87804,5.65483 -0.49804,6.16038 3.83811,9.84629 9.36429,9.57163 l 0.9708,-0.0483 c 6.01224,-0.29881 10.96598,-4.83245 12.24102,-11.41292 0.6287,-3.24466 0.94637,-5.56311 1.04552,-7.00129 0.31584,-4.58135 -2.82731,-8.59873 -8.91436,-8.71708 -0.19635,-0.004 -0.39563,-0.003 -0.59809,8.7e-4 z m -25.749171,4.80573 c 2.682451,0 3.63731,1.43225 3.612917,4.01962 -0.02725,2.88927 -0.857447,6.54142 -1.68684,8.9941 -0.828872,2.45113 -2.495041,4.47544 -5.348445,4.39946 -3.308098,-0.0881 -3.743535,-2.91368 -3.385011,-5.72912 0.237852,-1.86784 0.415241,-3.50121 1.382965,-6.67685 0.754247,-2.47511 2.608992,-5.00721 5.424414,-5.00721 z m 24.920231,0 c 2.68245,0 3.63734,1.43225 3.61292,4.01962 -0.0273,2.88927 -0.85745,6.54142 -1.68684,8.9941 -0.82888,2.45114 -2.49504,4.47544 -5.34845,4.39946 -3.3081,-0.0881 -3.74354,-2.91367 -3.38501,-5.72912 0.23785,-1.86783 0.41524,-3.50121 1.38297,-6.67685 0.75424,-2.47511 2.60899,-5.00721 5.42441,-5.00721 z m 24.71289,0 c 2.68245,0 3.82748,1.43225 3.80305,4.01962 -0.0273,2.88927 -0.85745,6.54142 -1.68684,8.9941 -0.82888,2.45114 -2.72291,4.55461 -5.53857,4.56064 -3.19501,0.007 -3.81979,-3.08561 -3.38502,-5.8903 0.29818,-1.92356 0.49504,-3.57491 1.38297,-6.67685 0.71206,-2.48757 2.60899,-5.00721 5.42441,-5.00721 z"
         sodipodi:nodetypes="ccccccccccccccccccccccccccccccccccccccccccccccccccccccccccccccccccccccccccccc" />
      <path
         id="path353"
         style="font-style:normal;font-variant:normal;font-weight:bold;font-stretch:normal;font-size:15.4214px;line-height:1;font-family:DIN-Bold;-inkscape-font-specification:'DIN-Bold Bold';text-align:center;letter-spacing:0px;word-spacing:0px;text-anchor:middle;fill:#ffffff;fill-opacity:1;stroke:none;stroke-width:0.939391"
         d="m 136.04373,174.12415 -1.60322,-2.71798 -0.6889,0.77657 v 1.94141 h -1.62827 v -8.91797 h 1.62827 v 5.0602 l 2.16687,-2.66788 h 1.96646 l -2.32969,2.63031 2.50505,3.89534 z m -7.73948,-4.74707 c -0.1336,-0.1336 -0.26303,-0.22962 -0.38828,-0.28808 -0.12525,-0.0668 -0.2839,-0.1002 -0.47596,-0.1002 -0.2839,0 -0.53023,0.10438 -0.73899,0.31314 -0.20876,0.2004 -0.31313,0.49683 -0.31313,0.88928 v 3.93293 h -1.62828 v -6.52565 h 1.59071 v 0.62627 c 0.15864,-0.19206 0.38828,-0.35489 0.68888,-0.48849 0.3006,-0.14195 0.61791,-0.21293 0.95192,-0.21293 0.32565,0 0.60538,0.0459 0.83919,0.13778 0.24216,0.0918 0.47596,0.2505 0.70141,0.47596 z m -7.1526,4.02061 c -0.22546,0.24215 -0.50519,0.43838 -0.83919,0.58868 -0.33401,0.14196 -0.73064,0.21293 -1.1899,0.21293 -0.45091,0 -0.84337,-0.071 -1.17737,-0.21293 -0.33401,-0.1503 -0.63043,-0.35906 -0.88929,-0.62626 -0.25051,-0.26721 -0.43004,-0.59286 -0.53859,-0.97697 -0.1002,-0.39245 -0.1503,-0.90182 -0.1503,-1.52808 0,-0.64296 0.0501,-1.14814 0.1503,-1.51555 0.1002,-0.36741 0.27973,-0.68888 0.53859,-0.96444 0.25886,-0.27555 0.55111,-0.48431 0.87676,-0.62626 0.33401,-0.15031 0.73064,-0.22546 1.1899,-0.22546 0.45091,0 0.84336,0.0751 1.17737,0.22546 0.34235,0.14195 0.63878,0.34652 0.88929,0.61373 0.25886,0.2672 0.43839,0.59704 0.53859,0.98949 0.10855,0.38411 0.16283,0.88512 0.16283,1.50303 0,0.65131 -0.0501,1.16068 -0.15031,1.52808 -0.1002,0.36741 -0.29643,0.70559 -0.58868,1.01455 z m -2.75556,-4.14586 c -0.167,0.16701 -0.27555,0.37993 -0.32565,0.63879 -0.0501,0.25051 -0.0751,0.57199 -0.0751,0.96444 0,0.52606 0.0292,0.8893 0.0877,1.0897 0.0585,0.2004 0.16701,0.3841 0.32565,0.55111 0.16701,0.15865 0.40499,0.23798 0.71394,0.23798 0.31731,0 0.55946,-0.0835 0.72647,-0.25051 0.17535,-0.17535 0.28808,-0.38828 0.33818,-0.63878 0.0501,-0.25886 0.0751,-0.58869 0.0751,-0.9895 0,-0.42586 -0.0209,-0.75151 -0.0626,-0.97696 -0.0418,-0.23381 -0.14612,-0.43421 -0.32566,-0.61374 -0.17954,-0.17953 -0.43422,-0.27556 -0.75154,-0.27556 -0.30897,0 -0.55113,0.0877 -0.72649,0.26303 z m -6.49195,4.87232 h -1.3402 l -1.36525,-4.09576 -1.36525,4.09576 h -1.3402 l -2.00404,-6.52565 h 1.72848 l 1.05213,4.03313 1.32767,-4.03313 h 1.1899 l 1.34019,4.03313 1.05213,-4.03313 h 1.71595 z m -10.95952,0 c -0.62626,0 -1.098045,-0.17953 -1.415351,-0.53859 -0.317306,-0.3674 -0.475958,-0.80996 -0.475958,-1.32767 v -3.23151 h -0.688888 v -1.24 h 0.688888 v -1.92889 h 1.628279 v 1.92889 h 1.15232 v 1.24 h -1.15232 v 3.1313 c 0,0.39247 0.18788,0.58869 0.56363,0.58869 h 0.58869 v 1.37778 z m -9.195761,-2.75555 c 0,0.43421 0.125252,0.78491 0.375757,1.05211 0.250505,0.26721 0.60121,0.40082 1.052119,0.40082 0.334007,0 0.605386,-0.0459 0.81414,-0.13778 0.217104,-0.0919 0.438383,-0.2505 0.663837,-0.47596 l 0.989494,0.96444 c -0.359057,0.35906 -0.722289,0.62209 -1.089696,0.78909 -0.359057,0.15866 -0.82249,0.23798 -1.3903,0.23798 -0.893467,0 -1.61993,-0.2505 -2.179391,-0.75152 -0.55946,-0.501 -0.83919,-1.36525 -0.83919,-2.59272 0,-1.04377 0.258855,-1.85791 0.776565,-2.44242 0.517709,-0.59286 1.206597,-0.88929 2.066663,-0.88929 0.885116,0 1.578179,0.29225 2.079188,0.87677 0.509359,0.57616 0.764039,1.3235 0.764039,2.24201 v 0.72647 z m 2.329693,-1.81616 c -0.09185,-0.20875 -0.22963,-0.37158 -0.413333,-0.48848 -0.183704,-0.12525 -0.409157,-0.18788 -0.676362,-0.18788 -0.267205,0 -0.492659,0.0626 -0.676363,0.18788 -0.183703,0.1169 -0.325656,0.28807 -0.425858,0.51353 -0.09185,0.22545 -0.137777,0.4509 -0.137777,0.67636 h 2.479995 c 0,-0.22546 -0.0501,-0.45926 -0.150302,-0.70141 z m -8.613381,4.57171 v -3.94545 c 0,-0.40916 -0.104377,-0.70977 -0.313131,-0.90182 -0.208754,-0.19205 -0.463434,-0.28808 -0.76404,-0.28808 -0.308955,0 -0.56781,0.096 -0.776564,0.28808 -0.208753,0.18371 -0.31313,0.48431 -0.31313,0.90182 v 3.94545 h -1.628281 v -6.52565 h 1.590704 v 0.60122 c 0.425859,-0.45091 0.968619,-0.67637 1.628281,-0.67637 0.317306,0 0.605386,0.0501 0.864241,0.1503 0.267205,0.10021 0.505184,0.25886 0.713938,0.47596 0.217103,0.20876 0.375757,0.46762 0.475959,0.77657 0.100202,0.30061 0.150303,0.64296 0.150303,1.02707 v 4.1709 z"
         sodipodi:nodetypes="cccccccccccccccccccccccccccccccccccccccccccccccccccccccccccccccccccccccccccccccccccccccccccccccccccccccccccccccccccccccccccccccccccc" />
    </g>
  </g>
</svg>
