<?xml version="1.0" encoding="UTF-8" standalone="no"?>
<svg
   xmlns:dc="http://purl.org/dc/elements/1.1/"
   xmlns:cc="http://creativecommons.org/ns#"
   xmlns:rdf="http://www.w3.org/1999/02/22-rdf-syntax-ns#"
   xmlns:svg="http://www.w3.org/2000/svg"
   xmlns="http://www.w3.org/2000/svg"
   xmlns:sodipodi="http://sodipodi.sourceforge.net/DTD/sodipodi-0.dtd"
   xmlns:inkscape="http://www.inkscape.org/namespaces/inkscape"
   inkscape:version="1.0beta1 (32d4812, 2019-09-19)"
   sodipodi:docname="Fox Weather.svg"
   id="svg843"
   version="1.1"
   fill="none"
   viewBox="0 0 1000 929.68799"
   height="929.68799"
   width="1000">
  <metadata
     id="metadata849">
    <rdf:RDF>
      <cc:Work
         rdf:about="">
        <dc:format>image/svg+xml</dc:format>
        <dc:type
           rdf:resource="http://purl.org/dc/dcmitype/StillImage" />
        <dc:title></dc:title>
      </cc:Work>
    </rdf:RDF>
  </metadata>
  <defs
     id="defs847" />
  <sodipodi:namedview
     inkscape:current-layer="svg843"
     inkscape:window-maximized="0"
     inkscape:window-y="25"
     inkscape:window-x="0"
     inkscape:cy="560"
     inkscape:cx="400"
     inkscape:zoom="0.35"
     showgrid="false"
     id="namedview845"
     inkscape:window-height="907"
     inkscape:window-width="1600"
     inkscape:pageshadow="2"
     inkscape:pageopacity="0"
     guidetolerance="10"
     gridtolerance="10"
     objecttolerance="10"
     borderopacity="1"
     inkscape:document-rotation="0"
     bordercolor="#666666"
     pagecolor="#ffffff" />
  <path
     style="stroke-width:7.8125"
     inkscape:connector-curvature="0"
     id="path833"
     fill="white"
     d="M 815.85156,0 H 184.14844 C 135.325,0.05570313 88.517969,19.459375 53.995781,53.953906 19.473281,88.448438 0.05460156,135.21719 0,183.99922 v 561.69609 c 0.05579688,48.78125 19.475156,95.54688 53.997656,130.03906 34.522657,34.5 81.328904,53.89844 130.150784,53.95313 h 631.70312 c 48.82031,-0.0547 95.625,-19.45313 130.14844,-53.95313 34.52344,-34.49218 53.94531,-81.25781 54,-130.03906 V 183.99922 C 999.94531,135.21719 980.52344,88.448438 946.00781,53.953906 911.48437,19.459375 864.67187,0.05578125 815.85156,0 Z" />
  <path
     style="stroke-width:7.8125"
     inkscape:connector-curvature="0"
     id="path835"
     fill="#23428F"
     d="M 815.46094,17.31875 H 183.75625 C 139.63281,17.369453 97.33125,34.905469 66.132031,66.079687 34.932578,97.253906 17.383125,139.52031 17.333516,183.60703 v 561.69766 c 0.04992,44.08593 17.599843,86.35156 48.799375,117.52343 C 97.332813,894 139.63359,911.53906 183.75625,911.58594 h 631.70469 c 44.125,-0.0469 86.42187,-17.58594 117.625,-48.75782 31.19531,-31.17187 48.75,-73.4375 48.79687,-117.52343 V 183.60703 C 981.83594,139.52109 964.28125,97.254687 933.08594,66.080469 901.88281,34.905937 859.58594,17.369844 815.46094,17.31875 Z M 957.25,745.30469 c -0.0469,37.5625 -15,73.57031 -41.57813,100.13281 -26.57812,26.55469 -62.61718,41.49219 -100.21093,41.53906 H 183.49688 C 145.90547,886.92969 109.86641,871.99219 83.285156,845.4375 56.704297,818.875 41.752656,782.86719 41.710391,745.30469 V 183.60703 C 41.752344,146.04687 56.703906,110.0375 83.285156,83.478125 109.86562,56.91875 145.90547,41.978906 183.49688,41.936719 h 631.96406 c 37.59375,0.04219 73.63281,14.982031 100.21093,41.541406 C 942.25,110.0375 957.20312,146.04688 957.25,183.60703 Z" />
  <path
     style="stroke-width:7.8125"
     inkscape:connector-curvature="0"
     id="path837"
     fill="#23428F"
     d="m 480.31406,161.20234 c 92.22032,7.8e-4 166.97735,73.52422 166.97735,164.22266 -0.002,90.69844 -74.7625,164.22109 -166.97735,164.22266 -92.22031,0 -166.98281,-73.52344 -166.98437,-164.22266 0,-90.69922 74.76328,-164.22266 166.98437,-164.22266 z m 268.50938,67.66485 39.16875,-67.66485 H 892.5625 L 801.53906,316.97109 902.67187,485.98516 H 797.49219 l -47.87578,-80.14688 -46.77578,80.06328 -102.84376,0.0836 97.19844,-167.91485 -93.69687,-156.86797 h 104.82812 z m -437.28672,-69 6.24062,89.06484 H 203.86328 v 42.51094 H 296.675 v 88.86016 h -93.58281 l -0.0453,105.32343 H 108 V 159.86719 Z m 168.26641,64.04843 c -16.05547,7.9e-4 -29.04375,14.13126 -29.04532,29.92969 l -0.0383,138.06172 c 0.17656,7.6086 3.31485,14.84922 8.74375,20.1875 5.42969,5.33906 12.72969,8.36172 20.34766,8.41563 7.61875,0.0523 14.96484,-2.86953 20.46953,-8.1336 5.50156,-5.2625 8.73672,-12.46015 9.01797,-20.06484 l 0.60234,-138.46641 c -0.23672,-7.88594 -3.48984,-15.38359 -9.08672,-20.95 -5.59687,-5.5664 -13.1164,-8.77968 -21.01093,-8.97969 z" />
  <path
     style="stroke-width:7.8125"
     inkscape:connector-curvature="0"
     id="path839"
     fill="#BC212F"
     d="m 62.666875,579.51719 v 182.63125 c 4.32875,29.07812 18.960469,55.64844 41.233125,74.85937 22.27344,19.21875 50.70859,29.80469 80.13594,29.84375 H 816 c 30.96094,-0.0391 60.76563,-11.76562 83.45313,-32.82812 22.67968,-21.0625 36.56249,-49.90625 38.86718,-80.75782 V 579.51719 Z" />
  <path
     style="stroke-width:7.8125"
     inkscape:connector-curvature="0"
     id="path841"
     fill="white"
     d="m 406.49922,639.46641 -37.16563,154.5414 h 43.175 l 3.40547,-19.61719 h 28.15 l 3.10391,19.61719 h 43.17734 l -32.75859,-154.5414 z m 15.025,101.79296 9.81719,-64.86093 7.81328,64.86093 z m -200.41406,-3.30234 -15.72735,-98.48984 h -35.96094 l -14.52812,96.58594 -13.62031,-96.58594 H 100 l 34.46016,154.54062 h 40.66953 l 12.32344,-96.68906 15.72734,96.68906 H 243.45 l 31.35234,-154.54062 h -40.76875 z m 140.52422,56.05078 H 284 v -154.5414 h 77.63437 v 36.33125 h -35.86171 v 22.52109 h 32.1539 v 34.93594 h -32.1539 V 756.875 h 35.86172 z M 478.66641,676.49922 h 23.03906 v 117.50859 h 41.77266 V 676.49922 h 23.94453 v -37.03281 h -88.75625 z m 292.30156,117.50859 h -77.63438 v -154.5414 h 77.63438 v 36.33125 h -35.8625 v 22.52109 h 32.15625 v 34.93594 H 735.10547 V 756.875 h 35.8625 z m 121.68828,0 -31.05469,-64.26093 c 15.96875,-7.13907 23.94531,-20.05157 23.94531,-38.73516 0,-17.48047 -5.94531,-30.96016 -17.82812,-40.43828 -9.35156,-7.40547 -23.44531,-11.10782 -42.27344,-11.10703 h -42.78125 v 154.5414 h 41.57813 v -54.05234 l -0.30469,-10.2086 23.53906,64.26094 z m -53.39063,-88.47969 c -1.46093,1.75704 -3.30468,3.16329 -5.38281,4.11563 -2.07812,0.95234 -4.35156,1.42656 -6.63281,1.3875 h -2.8125 v -36.83359 h 1.50781 c 12.08594,0 18.13281,5.77187 18.125,17.3164 0.20313,5.10625 -1.51562,10.10235 -4.80469,14.01406 z M 620.43594,694.11797 h 19.93515 v -54.65156 h 41.775 v 154.5414 h -41.775 v -62.15625 h -19.93515 v 62.15625 h -41.76953 v -154.5414 h 41.76953 z"
     clip-rule="evenodd"
     fill-rule="evenodd" />
</svg>
