<?xml version="1.0" encoding="UTF-8" standalone="no"?>
<svg
   xmlns:dc="http://purl.org/dc/elements/1.1/"
   xmlns:cc="http://creativecommons.org/ns#"
   xmlns:rdf="http://www.w3.org/1999/02/22-rdf-syntax-ns#"
   xmlns:svg="http://www.w3.org/2000/svg"
   xmlns="http://www.w3.org/2000/svg"
   xmlns:sodipodi="http://sodipodi.sourceforge.net/DTD/sodipodi-0.dtd"
   xmlns:inkscape="http://www.inkscape.org/namespaces/inkscape"
   inkscape:version="1.0beta1 (32d4812, 2019-09-19)"
   sodipodi:docname="Fox News Channel.svg"
   id="svg839"
   version="1.1"
   viewBox="0 0 1000 1000"
   height="1000"
   width="1000"
   class="fox-news-channel">
  <metadata
     id="metadata845">
    <rdf:RDF>
      <cc:Work
         rdf:about="">
        <dc:format>image/svg+xml</dc:format>
        <dc:type
           rdf:resource="http://purl.org/dc/dcmitype/StillImage" />
        <dc:title></dc:title>
      </cc:Work>
    </rdf:RDF>
  </metadata>
  <defs
     id="defs843" />
  <sodipodi:namedview
     inkscape:current-layer="svg839"
     inkscape:window-maximized="0"
     inkscape:window-y="25"
     inkscape:window-x="0"
     inkscape:cy="560"
     inkscape:cx="400"
     inkscape:zoom="0.35"
     showgrid="false"
     id="namedview841"
     inkscape:window-height="907"
     inkscape:window-width="1600"
     inkscape:pageshadow="2"
     inkscape:pageopacity="0"
     guidetolerance="10"
     gridtolerance="10"
     objecttolerance="10"
     borderopacity="1"
     inkscape:document-rotation="0"
     bordercolor="#666666"
     pagecolor="#ffffff" />
  <g
     transform="scale(11.111109)"
     id="g837"
     fill-rule="evenodd"
     fill="none">
    <path
       inkscape:connector-curvature="0"
       id="path833"
       d="M 0,0 H 90 V 90 H 0 Z"
       fill="#FFF" />
    <path
       inkscape:connector-curvature="0"
       fill="#C20017"
       d="m 83.000057,85.899955 h 2.999882 V 77.999994 H 83.000057 Z M 78.87992,83.039994 c 0.02022,-2.039941 -1.759746,-3.260039 -4.629902,-3.260039 h -0.06996 c -2.779981,0 -4.580157,1.190039 -4.580157,3.140156 0,1.949942 1.840078,3.079864 4.650118,3.079864 2.32998,0 3.999902,-0.739864 4.5,-2.000039 h -2.869981 c -0.209883,0.420117 -0.72,0.640195 -1.53,0.640195 -1.060137,0 -1.630019,-0.439981 -1.630019,-1.26 h 6.159902 c 0.0084,-0.113379 0.0084,-0.226934 0,-0.340137 z M 65.669959,82.000072 c -0.04008,-1.470058 -0.869941,-2.16 -3.080039,-2.16 h -0.06996 c -1.010742,-0.0849 -2.010937,0.255762 -2.759941,0.940078 v -0.780117 h -2.849942 v 5.829961 h 2.999883 v -3.129961 c 0,-1.000019 0.430137,-1.409941 1.510137,-1.409941 1.08,0 1.249804,0.519961 1.249804,1.589941 v 2.930098 h 3.000059 z m -14.109961,0 c -0.0399,-1.470058 -0.859922,-2.16 -3.070019,-2.16 h -0.02988 c -1.010743,-0.0849 -2.011289,0.255762 -2.760118,0.940078 v -0.780117 h -2.900039 v 5.829961 h 3.000059 v -3.129961 c 0,-1.000019 0.429961,-1.409941 1.510137,-1.409941 1.079824,0 1.249804,0.519961 1.249804,1.589941 v 2.930098 h 3.000059 z m -13.299961,3.589981 c -0.25998,-0.10002 -0.400078,-0.410098 -0.400078,-0.930059 l -0.01002,0.01002 v -2.210098 c 0.1183,-0.683789 -0.105821,-1.382344 -0.599942,-1.869785 -1.005469,-0.607852 -2.180566,-0.874512 -3.349863,-0.760078 -2.590137,0 -4.000078,0.63 -4.290117,1.999863 h 2.749922 c 0.120058,-0.429961 0.620156,-0.659707 1.480078,-0.659707 0.859922,0 1.180019,0.179824 1.180019,0.519961 v 0.139746 c 0,0.450176 -1.130097,0.36 -3.24,0.680274 -1.60998,0.239941 -2.41998,0.839882 -2.41998,1.809843 0,0.969961 1.059961,1.679942 2.849941,1.679942 1.023574,0.03041 2.033262,-0.244512 2.900039,-0.789961 0.03006,0.204433 0.08033,0.405527 0.149942,0.600117 h 3.000058 z m -12.78,-3.69 c 0,-1.300078 -1.030078,-1.98 -2.939941,-1.98 h -0.02004 c -1.016543,-0.07506 -2.022012,0.251543 -2.80002,0.910019 v -2.830078 h -3.000058 v 7.900137 h 3.000058 v -3.110098 c 0,-1.000019 0.429961,-1.409941 1.509961,-1.409941 1.08,0 1.249981,0.519961 1.249981,1.589941 v 2.930098 h 3.000058 z M 7.0499004,82.910092 c 0,-1.059961 0.5700586,-1.680117 1.6001367,-1.680117 0.5763867,-0.100196 1.1427539,0.22289 1.3499999,0.770097 h 3.000059 c -0.19002,-1.420136 -1.8,-2.270039 -4.3099808,-2.270039 -2.8701562,0.04008 -4.6901953,1.27002 -4.6901953,3.270059 0,1.819863 1.7899805,2.999883 4.5101953,2.999883 2.5098048,0 4.1498438,-0.869942 4.4499028,-2.349844 h -2.959981 c -0.1699804,0.569883 -0.6400194,0.849902 -1.4099413,0.849902 -1.0000195,0 -1.5401953,-0.52998 -1.5401953,-1.589941 z M 1.758e-5,90.000053 H 90.000018 V 74.003959 H 1.758e-5 Z M 32.170096,84.040014 c 0,0.400078 0.429961,0.690117 1.100039,0.690117 1.009863,0 1.729863,-0.380215 1.729863,-1.00002 v -0.669902 c -0.598711,0.164707 -1.211309,0.275273 -1.830059,0.329766 -0.689941,0.120058 -0.999843,0.249961 -0.999843,0.650039 z m 43.799941,-1.769942 h -3.399961 c 0.119883,-0.779941 0.740039,-1.200058 1.699981,-1.200058 0.959941,0 1.679941,0.43998 1.69998,1.200058 z"
       id="channel" />
    <path
       inkscape:connector-curvature="0"
       fill="#036"
       d="m 79.709941,47.68998 c -4.800058,0 -7.739824,2.949961 -7.739824,6.919981 0,3.430195 1.999864,5.11998 5.999942,6.320039 2.389922,0.72 3.659941,0.660059 3.659941,2.200078 0,0.81 -0.750059,1.44 -2.000039,1.44 -1.643906,0.188438 -3.148945,-0.939199 -3.43002,-2.570097 l -5.059863,1.110058 c 0.859922,4.000078 3.839941,6.380156 8.409903,6.380156 2.25914,0.061 4.438652,-0.836191 6.000117,-2.470078 1.154707,-1.267734 1.786992,-2.925351 1.769941,-4.640097 0.09404,-1.675547 -0.536133,-3.31084 -1.730039,-4.489981 h 0.01002 C 84.199922,56.59998 82.599961,56.26002 80.799961,55.750078 78.670019,55.149961 77.50002,55.09002 77.50002,53.850059 c 0.04289,-0.443848 0.261386,-0.852188 0.607148,-1.133789 0.345586,-0.281954 0.789434,-0.413789 1.23293,-0.366153 1.357734,-0.111269 2.593476,0.784863 2.909883,2.109903 L 86.85,52.930195 C 85.994473,49.724297 83.024648,47.544961 79.709941,47.68998 Z M 67.260059,69.450117 72.159961,48.370078 H 67.819922 L 65.210098,60.439922 62.660039,48.370078 h -4.5 l -2.43,12.190078 -2.53002,-12.190078 h -5.369941 l 4.87002,21.080039 H 57.6 l 2.399941,-12.080215 2.470079,12.080215 z m -20.34,-5.070058 H 38.52 V 60.82998 h 6.809941 V 56.320137 H 38.52 v -3.07002 h 8.29002 V 48.370078 H 33.270117 V 69.450117 H 46.920059 Z M 31.93998,48.430019 H 26.74002 L 26.719981,58.950176 20.44002,48.460078 h -6.089942 v 21.000059 h 5.349903 V 57.190078 l 7.169941,12.24 H 31.93998 Z M 30.309961,43.99998 h 6.690058 v -7.319882 h 6.57 v -6.140039 h -6.57 V 27.610137 H 45 L 44.56002,21.450059 H 30.309961 Z M 44.700117,32.829961 c 0.104063,6.369785 5.350078,11.450391 11.719863,11.350019 h 0.02004 c 6.362051,0.08912 11.595938,-4.988144 11.7,-11.350019 -0.259629,-6.284531 -5.430059,-11.245606 -11.72004,-11.245606 -6.289804,0 -11.460234,4.961075 -11.719863,11.245606 z m 20.299746,-11.349844 6.580196,10.839902 -6.77004,11.61 H 72 l 3.280078,-5.530078 3.359883,5.540098 h 7.359961 L 78.900117,32.260078 85.289941,21.490137 h -7.29 l -2.749922,4.679824 -2.849941,-4.689844 z M 87.550137,45.09 h -1.110059 c 1.25877,2.323652 2.390625,4.713574 3.389941,7.159922 H 90 V 72.949219 H 0.61242187 L 13.000078,53.610117 v -6.610078 h 3.879844 L 29.000039,27.229922 v -7.229883 h 4.909922 l 6.84,-10.6199999 C 49.194492,11.544609 57.174609,15.22793 64.300078,20.25 h 1.699981 C 64.786816,19.35 63.54,18.486738 62.259961,17.660039 55.81125,13.513008 48.742559,10.42084 41.320019,8.5000781 L 46.920059,0 H 90 V 50.190117 C 89.240098,48.463242 88.423242,46.763438 87.550137,45.09 Z M 14.94,0 H 0 V 10.00002 C 4.4274023,8.5137891 8.9889258,7.4620898 13.619883,6.8600391 Z m 41.485078,39.366562 c 1.081934,0 1.979649,-0.83707 2.055059,-1.916542 v -9.569883 c -0.04254,-1.140821 -0.968731,-2.04961 -2.110078,-2.070176 -1.111465,0.04799 -1.990547,0.957832 -2.00004,2.070176 v 9.569883 c 0.07523,1.079472 0.97295,1.916542 2.055059,1.916542 z M 35.169961,0 h -9.54 l -2.399942,6.2200195 c 2.877364,-0.00422 5.752442,0.1627735 8.609942,0.5000977 z M 22.890059,7.2 0.10757813,72.949219 H 0.21427734 L 31.389961,7.6600195 C 28.568496,7.3357031 25.72998,7.1820703 22.890059,7.2 Z M 13.399981,7.8901172 0,71.780098 V 11.100059 H 0.0599414 C 4.3922461,9.6008203 8.8599024,8.5257422 13.399981,7.8901172 Z"
       id="kliegs-and-fox-news" />
  </g>
</svg>
