<?xml version="1.0" encoding="utf-8"?>
<!-- Generator: Adobe Illustrator 16.0.0, SVG Export Plug-In . SVG Version: 6.00 Build 0)  -->
<!DOCTYPE svg PUBLIC "-//W3C//DTD SVG 1.1//EN" "http://www.w3.org/Graphics/SVG/1.1/DTD/svg11.dtd">
<svg version="1.1" id="Layer_1" xmlns="http://www.w3.org/2000/svg" xmlns:xlink="http://www.w3.org/1999/xlink" x="0px" y="0px"
	 width="1000px" height="871.289px" viewBox="-202.36 -14.699 1000 871.289" enable-background="new -202.36 -14.699 1000 871.289"
	 xml:space="preserve">
<g>
	<g>
		<path fill="#FDB924" d="M643.316,598.071c2.717-3.322,5.435-6.644,8.455-10.268c11.174-13.289,23.859-28.389,33.222-42.583
			l3.623-5.437H-92.07v0.304l3.322,5.133c11.778,17.817,26.878,37.448,40.771,52.851
			c154.929,171.54,342.475,248.251,344.288,249.156l1.208,0.302l1.208-0.604C300.537,846.322,512.848,756.626,643.316,598.071"/>
		<path fill="#FDB924" d="M-92.374,258.013h779.782c0-74.597,0.302-137.716,0.302-147.682v-1.51l-8.154-6.342
			C678.045,101.271,528.25-6.244,295.403-6.244c-240.095,0-379.019,108.421-380.226,109.327l-7.551,6.343V258.013z"/>
		<path fill="#FFFFFF" d="M675.63,258.013c0-68.254-0.302-125.938-0.302-138.924v-4.228l-3.323-2.718
			c-1.51-1.208-148.588-106.307-376.602-106.307C60.443,6.139-75.763,111.539-76.97,112.445l-3.02,2.718l-0.302,143.151H675.63
			V258.013z"/>
		<path fill="#FFFFFF" d="M180.943,754.813c62.214,32.314,112.649,48.623,116.272,48.925h0.302h0.302
			c3.625-0.302,53.758-16.61,116.574-48.925c60.1-31.105,146.774-85.166,219.86-165.197c15.102-16.309,29.294-34.73,39.563-50.134
			H-78.481c10.269,15.403,24.765,33.523,39.563,50.134C34.168,669.949,120.844,723.708,180.943,754.813"/>
		<path fill="#002D62" d="M788.883,326.266c-2.719-22.349-8.76-48.019-16.007-67.951h-77.012c0-81.542,0.302-153.419,0.302-153.419
			l-3.321-2.416l-8.155-6.342c-1.209-1.51-153.722-110.836-388.983-110.836c-243.72,0-384.757,110.232-385.966,111.44l-7.549,6.342
			l-3.02,2.417v152.815h-83.053c-7.248,19.933-12.985,45.603-16.005,67.951c-1.813,14.496-2.718,29.597-2.417,45.302
			c0.604,41.375,8.758,79.729,22.651,111.138c8.153,20.235,18.422,40.771,30.502,57.079h46.811l3.02,4.832l3.322,5.135
			c11.778,18.12,27.483,38.354,41.676,54.059c156.44,173.051,345.497,250.363,347.31,251.271l1.207,0.302l3.322,1.208l3.321-1.208
			l1.209-0.302c2.112-0.907,215.935-90.905,348.213-251.572c2.719-3.322,5.437-6.644,8.456-9.966l0.303-0.302
			c11.174-13.591,24.159-28.691,33.521-43.188l3.625-5.437l3.021-4.528h39.562c12.08-16.31,22.35-36.846,30.504-57.08
			c13.893-31.409,22.046-69.462,22.65-111.139C791.903,355.863,790.996,340.762,788.883,326.266 M-92.374,109.425l7.551-6.343
			c1.208-1.208,140.131-109.327,380.53-109.327c232.543,0,382.641,107.817,384.151,108.723l8.154,6.342c0,0,0,67.952-0.302,149.192
			H-92.374V109.425z M684.992,545.221c-9.362,14.194-22.048,29.294-33.222,42.583c-3.021,3.624-5.738,6.945-8.455,10.268
			c-130.77,158.856-342.778,248.251-344.893,249.156l-1.208,0.604l-1.207-0.302c-1.813-0.905-189.358-77.313-344.288-249.154
			c-13.893-15.403-28.993-35.033-40.771-52.853l-3.324-5.133v-0.302h780.989L684.992,545.221z"/>
		<path fill="#FDB924" d="M762.305,351.031c1.813,35.938-2.113,71.575-11.477,106.306c4.229,6.342,7.249,12.685,10.571,19.329
			c12.08-30.202,18.724-66.442,19.329-105.401c0.302-13.59-0.605-26.576-1.813-39.261
			C773.48,338.95,768.345,345.293,762.305,351.031"/>
		<path fill="#002D62" d="M627.611,583.878c14.194-15.705,29.294-34.429,39.563-50.436c0,0-0.604-378.415-0.604-414.354
			c0,0-142.246-104.494-371.167-104.494C59.234,14.897-71.534,119.089-71.534,119.089c0,25.369,0,414.354,0,414.354
			c10.268,15.705,24.764,34.429,38.958,50.436c11.778,12.986,24.16,25.368,36.845,37.146l-22.953,113.856h76.709l8.456-41.979H94.57
			c32.918,22.65,64.327,40.469,90.3,54.06c64.328,33.221,112.648,48.019,112.648,48.019s48.321-14.798,112.648-48.019
			c26.274-13.591,57.38-31.409,90.3-54.06h57.079l34.429-28.691l8.456-42.582l-4.53-5.738
			C606.772,605.924,617.343,595.354,627.611,583.878"/>
		<polygon fill="#FFFFFF" points="93.663,254.993 93.663,68.956 205.708,68.956 209.332,119.693 146.514,119.693 146.514,144.156 
			197.554,144.156 197.554,194.893 145.91,194.893 146.212,254.993 		"/>
		<polygon fill="#FFFFFF" points="527.043,254.69 471.17,158.048 521.908,69.258 465.736,69.258 442.481,109.425 419.529,69.258 
			361.542,69.258 413.489,158.954 358.523,254.69 414.997,254.993 441.875,207.879 469.057,254.69 		"/>
		<path fill="#FFFFFF" d="M296.612,71.674c-48.925,0-88.791,40.469-88.791,90.602c0,49.831,39.866,90.602,88.791,90.602
			c48.923,0,88.789-40.469,88.789-90.602C385.099,112.144,345.535,71.674,296.612,71.674 M296.612,214.523
			c-8.457,0-15.1-6.946-15.1-15.403v-73.992c0-8.456,6.644-16.005,15.1-16.005c8.456,0,15.402,7.55,15.402,16.005l0.302,74.294
			C312.617,207.879,305.068,214.523,296.612,214.523"/>
		<path fill="#FDB924" d="M731.803,272.509h-874.31c-9.362,31.71-14.798,67.951-14.496,102.984
			c0.604,54.362,13.893,106.911,35.94,149.796h320.126l3.323-16.61h76.709l-3.322,16.61H710.36
			c22.047-42.584,35.336-95.435,35.939-149.796C746.903,340.46,741.165,304.219,731.803,272.509"/>
		<path fill="#FDB924" d="M-161.23,457.639c-9.362-34.731-13.289-70.368-11.477-106.306c-6.04-6.04-11.174-12.382-16.611-19.026
			c-1.509,12.684-2.114,25.67-1.811,39.261c0.604,38.958,7.248,75.2,19.328,105.4C-168.479,470.324-165.459,463.679-161.23,457.639"
			/>
		<path fill="#FFFFFF" d="M163.427,561.831H86.718l-19.631,16.31l0.905-16.31H29.034l-32.013,159.46H46.55l10.571-53.154
			l9.06,11.175h73.689l31.711-26.274l12.985-64.63L163.427,561.831z M124.166,642.468l-10.873,8.758H72.523l-9.664-11.778
			l7.248-36.543l16.309-13.59h39.26l7.249,9.061L124.166,642.468z"/>
		<polygon fill="#FFFFFF" points="213.258,521.362 181.547,679.312 230.774,679.312 262.485,521.362 		"/>
		<polygon fill="#FFFFFF" points="376.643,561.831 362.147,635.219 347.65,646.997 312.617,646.997 305.672,637.937 
			321.073,561.831 271.545,561.831 253.123,653.037 273.961,679.312 344.63,679.312 364.563,662.702 363.657,679.312 
			402.615,679.312 426.172,561.831 		"/>
		<polygon fill="#FFFFFF" points="590.463,561.831 464.828,561.831 437.649,584.482 431.608,615.588 447.312,634.917 
			533.385,634.917 534.29,636.126 531.27,651.829 529.761,653.037 469.36,653.037 468.453,651.829 469.057,648.206 424.36,648.206 
			421.945,659.682 437.95,679.312 552.41,679.312 579.592,656.662 585.934,624.649 570.531,605.32 484.157,605.32 483.554,604.415 
			486.573,588.709 487.781,587.804 585.632,587.804 		"/>
		<polygon fill="#002D62" points="770.761,540.39 766.836,540.39 766.836,524.382 760.796,524.382 760.796,521.061 776.499,521.061 
			776.499,524.382 770.761,524.382 		"/>
		<polygon fill="#002D62" points="797.64,540.39 794.016,540.39 794.016,524.08 793.714,524.08 790.09,540.39 786.163,540.39 
			782.539,524.08 782.539,524.08 782.539,540.39 778.916,540.39 778.916,521.061 784.654,521.061 788.278,536.16 788.278,536.16 
			791.903,521.061 797.64,521.061 		"/>
		<path fill="#FFFFFF" d="M688.615,423.513c3.624-2.718,7.249-6.04,10.27-9.665c5.738-6.946,9.06-15.1,10.268-23.858l6.342-48.321
			c0.604-6.04,0.302-11.778-1.51-17.818c-1.813-5.738-4.53-10.57-8.154-14.497c-3.624-4.228-8.154-7.55-13.289-9.966
			c-5.133-2.417-11.173-3.624-17.215-3.624h-97.245h-6.342H442.177l-3.02,22.65c-1.509-3.322-3.624-6.342-5.736-9.06
			c-3.626-4.228-8.155-7.55-13.289-9.966c-5.135-2.417-11.175-3.624-17.215-3.624h-57.382c-6.04,0-11.778,1.207-17.517,3.322
			c-5.435,2.114-10.268,5.436-14.496,9.06c-4.228,3.625-7.549,8.154-10.569,13.288c-0.302,0.604-0.604,1.51-1.207,2.115
			c-1.511-5.437-4.229-10.269-8.154-14.497c-3.624-4.228-8.154-7.55-13.289-9.966c-5.134-2.417-11.174-3.625-17.214-3.625h-57.38
			c-6.04,0-11.778,1.208-17.516,3.323c-5.437,2.416-10.269,5.436-14.497,9.06c-4.229,3.926-7.853,8.456-10.571,13.288
			c-0.302,0.906-0.906,1.51-1.208,2.417l0,0c-1.813-5.437-4.531-10.269-8.154-14.497s-8.155-7.55-13.591-9.966
			c-5.437-2.417-11.175-3.625-17.215-3.625H63.463c-6.04,0-11.778,1.208-17.516,3.323c-5.437,2.114-10.269,5.436-14.497,9.06
			c-4.229,3.926-7.551,8.154-10.269,13.288c-0.604,1.208-1.207,2.114-1.509,3.322c0-0.302,0-0.604-0.302-0.905
			c-1.813-5.437-4.531-10.269-8.154-14.497c-3.624-4.228-8.155-7.55-13.591-9.966c-5.437-2.417-11.175-3.625-17.215-3.625h-53.756
			c-6.04,0-11.778,1.208-17.517,3.323c-5.436,2.114-10.269,5.436-14.496,9.06c-4.228,3.926-7.551,8.154-10.571,13.288
			c-3.02,5.437-4.831,10.872-5.435,16.913l-4.531,34.73c-0.905,6.343-0.302,12.382,1.208,17.517
			c1.813,5.135,4.531,9.664,7.853,12.987c3.322,3.624,7.249,6.644,11.778,8.758c0.906,0.302,1.511,0.906,2.417,1.208h-29.295
			l-4.833,38.053c-0.905,6.04-0.302,12.08,1.209,17.516c1.811,5.437,4.228,10.27,8.153,14.799c3.625,4.229,8.155,7.551,13.289,9.663
			c5.135,2.417,11.175,3.626,17.214,3.626h54.966c6.04,0,12.08-1.209,17.516-3.322c5.437-2.114,10.268-5.135,14.497-9.06
			c4.228-3.928,7.851-8.457,10.569-13.289c0.302-0.604,0.605-1.511,1.209-2.114c1.509,5.134,4.227,9.967,7.851,14.496
			c3.625,4.229,8.154,7.551,13.289,9.967c5.134,2.415,11.174,3.624,17.214,3.624h59.796c6.04,0,12.082-1.209,17.517-3.322
			c5.436-2.114,10.571-5.134,15.102-9.06c4.228-3.928,7.851-8.457,10.871-13.591c0.302-0.604,0.605-1.511,1.209-2.114l0,0
			c1.509,5.436,4.228,10.269,7.851,14.496c3.625,4.229,8.154,7.551,13.289,9.967c5.134,2.415,11.174,3.624,17.214,3.624h57.382
			c6.04,0,12.08-1.209,17.517-3.322c5.435-2.114,10.267-5.134,14.496-9.06c4.228-3.928,7.851-8.457,10.871-13.289
			c0.302-0.604,0.605-1.51,1.209-2.114c1.509,5.436,4.228,10.269,7.851,14.496c3.625,4.229,8.154,7.551,13.289,9.967
			c5.134,2.417,11.174,3.624,17.214,3.624h57.38c6.041,0,12.08-1.207,17.517-3.322c5.437-2.114,10.27-5.134,14.497-9.06
			c2.718-2.417,4.832-4.833,6.947-7.551l-2.719,20.234h129.561h6.342h57.382l8.456-65.233h5.738l23.557,65.233h68.253
			L688.615,423.513z M-54.623,437.102h-16.609l1.509-12.382c2.417,0.604,4.833,1.511,7.249,2.115
			c2.417,0.905,5.437,1.509,8.758,2.416L-54.623,437.102z M-46.166,365.829l-14.497-4.228l0.605-4.53h15.1L-46.166,365.829z
			 M10.008,380.326l-1.813,14.798c-1.511-3.02-3.322-5.738-5.738-8.154c-2.115-2.417-4.833-4.529-7.551-6.644H10.008z
			 M87.623,437.102h-21.14l10.268-80.031h21.142L87.623,437.102z M230.774,410.224l-3.322,26.878h-18.724l10.268-80.031h18.725
			l-3.323,25.368h57.382l-3.624,28.087h-57.381V410.224z M497.748,356.769h66.139l-1.208,9.06h-66.14L497.748,356.769z
			 M370.301,410.224l-3.624,26.878h-18.726l10.27-80.031h18.724l-3.322,25.368h57.08l-3.625,28.087h-56.776V410.224z
			 M487.479,437.102l1.208-10.568h66.14l-1.207,10.568H487.479z M647.845,371.869h-22.651l1.813-15.1h22.35L647.845,371.869z"/>
		<path fill="#002D62" d="M-44.052,418.378c-5.738-1.511-10.873-3.02-14.798-4.229c-3.926-1.208-7.853-2.415-11.778-3.624
			l-17.517-5.134c-3.925-1.208-7.551-2.717-11.174-4.529c-3.322-1.813-6.342-3.925-8.758-6.342s-4.228-5.437-5.437-8.758
			c-1.207-3.322-1.509-7.249-0.905-12.081l4.529-34.731c0.605-4.53,1.813-8.758,4.229-12.684c2.114-3.926,4.833-7.248,8.154-10.268
			c3.322-3.021,6.946-5.134,11.175-6.946c4.227-1.812,8.455-2.417,12.985-2.417h53.455c4.531,0,8.758,0.907,12.384,2.417
			c3.925,1.812,6.945,3.926,9.664,6.946c2.417,3.02,4.529,6.342,5.738,10.268c1.207,3.926,1.509,8.154,0.905,12.684l-3.624,28.389
			H-34.69l2.718-21.744c0.302-1.208-0.604-1.812-2.114-1.812h-34.428c-1.511,0-2.114,0.604-2.416,1.812l-2.718,21.14
			c-0.302,1.208,0.905,2.115,3.02,3.021l20.234,5.738l24.462,7.249c3.927,1.208,7.249,2.417,10.873,4.228
			c3.322,1.813,6.342,3.925,8.758,6.644c2.417,2.718,4.228,5.437,5.135,9.06c1.207,3.324,1.509,7.249,0.905,11.78l-4.833,38.053
			c-0.604,4.529-2.113,8.758-4.228,12.684c-2.114,3.926-4.833,7.247-8.154,10.268c-3.322,3.02-6.946,5.134-11.175,6.946
			c-4.227,1.812-8.456,2.417-12.985,2.417h-54.965c-4.531,0-8.457-0.907-12.382-2.417c-3.624-1.813-6.947-3.927-9.362-6.946
			c-2.718-3.021-4.531-6.342-5.738-10.268c-1.209-3.926-1.511-8.154-0.907-12.684l3.625-27.786h39.864l-2.718,21.141
			c-0.302,1.209,0.604,1.813,1.813,1.813h35.938c1.511,0,2.416-0.604,2.718-1.813l3.02-24.462
			C-40.428,419.888-41.635,418.982-44.052,418.378L-44.052,418.378z"/>
		<path fill="#002D62" d="M40.51,484.82c-4.531,0-8.457-0.907-12.382-2.417c-3.624-1.813-6.947-3.927-9.362-6.946
			c-2.417-3.021-4.229-6.342-5.437-10.268c-1.209-3.926-1.511-8.154-0.907-12.684L26.919,338.95
			c0.605-4.53,1.813-8.758,4.229-12.685c2.114-3.926,4.831-7.248,8.154-10.268c3.322-3.021,6.946-5.134,11.173-6.946
			c4.229-1.812,8.457-2.417,12.987-2.417h59.797c4.531,0,8.456,0.907,12.383,2.417c3.925,1.812,6.945,3.926,9.664,6.946
			c2.718,3.02,4.531,6.342,5.738,10.268c1.208,3.926,1.509,8.154,0.905,12.685l-14.496,113.556
			c-0.604,4.529-2.113,8.758-4.228,12.684c-2.114,3.926-5.134,7.247-8.154,10.268c-3.322,3.02-7.248,5.134-11.477,6.946
			c-4.227,1.812-8.456,2.417-12.985,2.417H40.51z M111.179,345.595c0.302-1.208-0.604-1.812-2.113-1.812H68.296
			c-1.511,0-2.115,0.604-2.417,1.812l-12.987,99.964c-0.302,1.209,0.302,1.813,1.813,1.813h40.771c1.509,0,2.417-0.604,2.718-1.813
			L111.179,345.595z"/>
		<path fill="#002D62" d="M241.043,420.794h39.864l-3.926,31.711c-0.604,4.529-2.114,8.758-4.228,12.684
			c-2.114,3.926-4.833,7.247-8.456,10.268c-3.322,3.02-6.947,5.134-11.175,6.946c-4.227,1.812-8.456,2.417-12.987,2.417h-57.38
			c-4.531,0-8.457-0.907-12.382-2.417c-3.625-1.813-6.646-3.927-9.364-6.946c-2.415-3.021-4.227-6.342-5.436-10.268
			c-1.208-3.926-1.509-8.154-0.906-12.684l14.497-113.556c0.604-4.53,1.813-8.758,4.229-12.685
			c2.113-3.926,4.831-7.248,8.153-10.268c3.323-3.021,6.947-5.134,10.873-6.946c4.229-1.812,8.457-2.417,12.987-2.417h57.38
			c4.531,0,8.456,0.907,12.383,2.417c3.624,1.812,6.946,3.926,9.362,6.946c2.417,3.02,4.529,6.342,5.437,10.268
			c1.207,3.926,1.509,8.154,0.905,12.685l-3.925,29.899h-39.262l3.02-23.254c0.302-1.208-0.604-1.812-1.813-1.812h-38.354
			c-1.509,0-2.113,0.604-2.415,1.812l-12.987,99.964c-0.302,1.209,0.604,1.813,1.813,1.813h38.657c1.509,0,2.114-0.604,2.416-1.813
			L241.043,420.794z"/>
		<path fill="#002D62" d="M380.569,420.794h39.563l-4.228,31.711c-0.605,4.529-1.813,8.758-4.229,12.684
			c-2.114,3.926-4.832,7.247-8.154,10.268c-3.321,3.02-6.945,5.134-11.173,6.946c-4.229,1.812-8.456,2.417-12.987,2.417h-57.382
			c-4.529,0-8.456-0.907-12.382-2.417c-3.623-1.813-6.644-3.927-9.361-6.946c-2.416-3.021-4.227-6.342-5.436-10.268
			c-1.208-3.926-1.509-8.154-0.906-12.684L308.39,338.95c0.604-4.53,2.114-8.758,4.228-12.685c2.114-3.926,4.832-7.248,8.154-10.268
			c3.322-3.021,6.945-5.134,11.175-6.946c4.228-1.812,8.456-2.417,12.985-2.417h57.382c4.529,0,8.456,0.907,12.382,2.417
			c3.624,1.812,6.947,3.926,9.361,6.946c2.719,3.02,4.531,6.342,5.738,10.268c1.209,3.926,1.511,8.154,0.907,12.685l-3.927,29.899
			h-39.563l3.021-23.254c0.302-1.208-0.604-1.812-1.813-1.812h-38.354c-1.512,0-2.115,0.604-2.417,1.812l-12.985,99.964
			c-0.302,1.209,0.604,1.813,1.812,1.813h38.354c1.511,0,2.114-0.604,2.416-1.813L380.569,420.794z"/>
		<polygon fill="#002D62" points="452.447,306.333 564.189,306.333 559.659,343.782 487.177,343.782 482.949,376.399 
			549.088,376.399 544.257,413.244 478.419,413.244 473.888,447.673 546.37,447.673 541.539,484.82 429.493,484.82 		"/>
		<path fill="#002D62" d="M631.839,419.585h-24.766l-8.456,65.235h-39.562l22.952-178.185h93.017c4.531,0,8.456,0.907,12.384,2.417
			c3.624,1.812,6.945,3.926,9.361,6.946c2.719,3.02,4.529,6.342,5.738,10.268c1.208,3.926,1.51,8.154,0.906,12.684l-6.342,48.321
			c-0.906,6.644-3.322,12.686-7.854,17.818c-4.227,5.436-9.663,9.363-15.703,11.778l25.065,67.953H654.79L631.839,419.585z
			 M662.945,345.595c0.302-1.208-0.604-1.812-1.811-1.812h-44.095l-4.831,38.959h44.093c1.51,0,2.114-0.605,2.416-2.114
			L662.945,345.595z"/>
	</g>
</g>
</svg>
