<?xml version="1.0" encoding="UTF-8" standalone="no"?>
<!-- Generator: Adobe Illustrator 16.0.0, SVG Export Plug-In . SVG Version: 6.00 Build 0)  -->

<svg
   version="1.1"
   id="Layer_1"
   x="0px"
   y="0px"
   width="1000"
   height="422.44824"
   viewBox="0 0 1000 422.44823"
   enable-background="new 0 0 1000 608.645"
   xml:space="preserve"
   sodipodi:docname="Fox.svg"
   inkscape:version="1.1.2 (b8e25be833, 2022-02-05)"
   xmlns:inkscape="http://www.inkscape.org/namespaces/inkscape"
   xmlns:sodipodi="http://sodipodi.sourceforge.net/DTD/sodipodi-0.dtd"
   xmlns="http://www.w3.org/2000/svg"
   xmlns:svg="http://www.w3.org/2000/svg"><defs
   id="defs19">
	
	
	
	
	
	
</defs><sodipodi:namedview
   id="namedview17"
   pagecolor="#ffffff"
   bordercolor="#666666"
   borderopacity="1.0"
   inkscape:pageshadow="2"
   inkscape:pageopacity="0.0"
   inkscape:pagecheckerboard="0"
   showgrid="false"
   inkscape:zoom="0.5"
   inkscape:cx="435"
   inkscape:cy="258"
   inkscape:window-width="1366"
   inkscape:window-height="705"
   inkscape:window-x="-8"
   inkscape:window-y="-8"
   inkscape:window-maximized="1"
   inkscape:current-layer="Layer_1" />

<g
   id="g2216"><path
     style="display:inline;fill:#111212;fill-opacity:1;stroke-width:1.00021"
     d="M 0,0 V 422.44825 H 127.86225 V 286.10575 H 244.11078 V 170.51555 H 127.86225 V 115.22488 H 270.40916 L 262.66732,0 Z"
     id="path8051" /><path
     id="path13151"
     style="display:inline;fill:#111212;fill-opacity:1;stroke-width:1.00054"
     d="M 475.54396,0 C 358.5258,0 264.32001,94.205772 264.32,211.22396 c 1e-5,117.01816 94.20579,211.22396 211.22396,211.22396 117.01817,0 211.22396,-94.2058 211.22396,-211.22396 C 686.76792,94.205772 592.56213,0 475.54396,0 Z m 0,86.999515 c 19.75814,0 35.66355,15.905405 35.66355,35.663555 v 177.12178 c 0,19.75815 -15.90542,35.66355 -35.66355,35.66355 -19.75813,0 -35.66354,-15.9054 -35.66354,-35.66355 V 122.66307 c 0,-19.75815 15.90541,-35.663555 35.66354,-35.663555 z" /><path
     style="display:inline;fill:#111212;fill-opacity:1;stroke-width:0.99966"
     d="m 623.40366,0 119.57646,211.469 -119.58038,210.74853 137.72264,0.23039 50.57847,-89.4461 50.57652,89.4461 L 1000,422.21753 880.41964,211.469 999.99609,0 H 862.96855 L 811.70085,90.355945 760.4312,0 Z"
     id="path13149" /></g></svg>
