<?xml version="1.0" encoding="UTF-8" standalone="no"?>
<svg
   width="1000"
   height="177.0959"
   viewBox="0 0 1000 177.0959"
   version="1.1"
   id="svg7"
   xmlns="http://www.w3.org/2000/svg"
   xmlns:svg="http://www.w3.org/2000/svg"
   xmlns:rdf="http://www.w3.org/1999/02/22-rdf-syntax-ns#"
   xmlns:cc="http://creativecommons.org/ns#"
   xmlns:dc="http://purl.org/dc/elements/1.1/">
  <defs
     id="defs2" />
  <path
     d="M 512.64328,49.360837 V 38.892033 c 0,-6.666703 0.84898,-12.369854 2.55729,-17.099046 1.70314,-4.729193 4.33857,-8.724003 7.91151,-11.9844392 2.63542,-2.3281376 5.81774,-4.2239805 9.5365,-5.6979434 3.72399,-1.4739673 7.82816,-2.5573079 12.33343,-3.25522501 4.49479,-0.6979214 9.45837,-0.9687554 14.89067,-0.8125065 5.58339,0 10.62507,0.3124891 15.12508,0.9322991 V 27.032598 c -6.82817,-0.307312 -11.98444,-0.192723 -15.47402,0.348945 -3.48963,0.546876 -6.08856,1.901051 -7.7917,4.072935 -1.70835,2.171889 -2.55734,5.505238 -2.55734,10.00526 v 7.911505 h 25.82306 V 75.428669 H 549.1747 l -51.18252,97.719271 h 51.65128 c 3.09896,-5.27086 5.19277,-10.00527 6.28128,-14.19279 2.79169,-9.61464 3.4115,-19.57824 1.86462,-29.896 -1.55209,-10.31255 -5.73961,-19.8126 -12.56256,-28.50014 -6.04692,-7.755253 -13.53657,-13.880284 -22.45327,-18.380306 -8.92193,-4.494814 -18.4949,-6.744827 -28.73452,-6.744827 V 49.37645 h 18.61471 z"
     id="Path"
     style="fill:#fb41e5;fill-opacity:1;fill-rule:nonzero" />
  <path
     d="m 196.83435,53.084817 c 5.58336,-3.875022 12.32819,-5.81774 20.23969,-5.81774 3.72398,0 6.28128,0.312489 7.67712,0.932294 v 31.875167 c -3.72398,-0.463544 -6.75003,-0.697921 -9.07296,-0.697921 -9.92714,0 -17.79697,3.104183 -23.61471,9.307343 -5.81774,6.203155 -8.724,15.2032 -8.724,26.98972 v 57.46905 H 146.81326 V 49.366044 h 35.13039 v 22.104284 h 0.69792 c 3.87502,-8.375044 8.60942,-14.500074 14.19278,-18.380304 z"
     id="path2"
     style="fill:#fb41e5;fill-opacity:1;fill-rule:nonzero" />
  <path
     d="m 260.8503,168.37187 c -9.849,-5.66148 -17.448,-13.4532 -22.8022,-23.38033 -5.34898,-9.92714 -8.02608,-21.09386 -8.02608,-33.50538 0,-12.411521 2.6771,-23.380329 8.02608,-33.385589 5.34899,-10.00526 12.87507,-17.875092 22.56783,-23.614708 9.69278,-5.734404 20.66679,-8.609417 32.92204,-8.609417 16.90634,0 31.09913,5.276067 42.57835,15.822996 6.82295,6.67191 11.90108,15.005286 15.23967,25.010546 3.33336,10.00526 4.92191,21.286562 4.77086,33.849132 h -90.27129 c 1.23955,9.46359 4.38019,16.79175 9.42191,21.98449 5.03646,5.19794 11.90109,7.79171 20.58866,7.79171 10.8542,0 18.3803,-4.03128 22.56782,-12.09903 h 35.36474 c -2.17189,7.44275 -5.8542,14.07299 -11.05214,19.89074 -5.19795,5.81774 -11.82817,10.39588 -19.89072,13.72924 -8.06773,3.33332 -17.21884,5 -27.45328,5 -13.18754,0 -24.70322,-2.83332 -34.55225,-8.48962 z m 58.04719,-68.984733 c -0.6198,-8.526085 -3.18232,-15.276121 -7.67715,-20.239686 -4.50001,-4.96357 -10.39589,-7.442749 -17.68237,-7.442749 -8.06773,0 -14.34901,2.406262 -18.84384,7.213578 -4.50001,4.807317 -7.36984,11.635481 -8.60944,20.474069 h 52.8128 z"
     id="Shape"
     style="fill:#fb41e5;fill-opacity:1;fill-rule:nonzero" />
  <path
     d="m 396.02288,168.37187 c -9.849,-5.66148 -17.44802,-13.4532 -22.80218,-23.38033 -5.34899,-9.92714 -8.0261,-21.09386 -8.0261,-33.50538 0,-12.411521 2.67711,-23.380329 8.0261,-33.385589 5.34899,-10.00526 12.87505,-17.875092 22.56782,-23.614708 9.69273,-5.734404 20.66674,-8.609417 32.92204,-8.609417 16.90634,0 31.09913,5.276067 42.57835,15.822996 6.82295,6.67191 11.90108,15.005286 15.23966,25.010546 3.33332,10.00526 4.92187,21.286562 4.77087,33.849132 H 401.0281 c 1.2396,9.46359 4.38024,16.79175 9.42196,21.98449 5.03646,5.19794 11.90108,7.79171 20.58861,7.79171 10.85425,0 18.38031,-4.03128 22.56783,-12.09903 h 35.36478 c -2.1719,7.44275 -5.8542,14.07299 -11.05215,19.89074 -5.19794,5.81774 -11.82817,10.39588 -19.89072,13.72924 -8.06777,3.33332 -17.21883,5 -27.45327,5 -13.18754,0 -24.70326,-2.83332 -34.55226,-8.48962 z m 58.04719,-68.984733 c -0.6198,-8.526085 -3.18231,-15.276121 -7.67714,-20.239686 -4.50001,-4.96357 -10.39589,-7.442749 -17.68237,-7.442749 -8.06778,0 -14.34906,2.406262 -18.84384,7.213578 -4.50006,4.807317 -7.36984,11.635481 -8.60944,20.474069 h 52.81279 z"
     id="path3"
     style="fill:#fb41e5;fill-opacity:1;fill-rule:nonzero" />
  <path
     d="m 609.25315,168.48646 c -10.00527,-5.7344 -17.72405,-13.60945 -23.15117,-23.61472 -5.4323,-10.00526 -8.14586,-21.13031 -8.14586,-33.38558 0,-12.255272 2.71356,-23.573039 8.14586,-33.505382 5.42712,-9.921928 13.1459,-17.760511 23.15117,-23.500123 10.00526,-5.734404 21.44281,-8.609421 34.3179,-8.609421 12.87505,0 24.2345,2.86981 34.0835,8.609421 9.849,5.739612 17.48447,13.572988 22.91677,23.500123 5.42712,9.927136 8.1459,21.093861 8.1459,33.505382 0,12.41152 -2.71878,23.38032 -8.1459,33.38558 -5.4323,10.00527 -13.06777,17.88032 -22.91677,23.61472 -9.849,5.73961 -21.21363,8.60943 -34.0835,8.60943 -12.86987,0 -24.31264,-2.86982 -34.3179,-8.60943 z m 13.03131,-28.50016 c 4.88545,7.06254 11.90112,10.5886 21.05741,10.5886 5.89066,0 10.96879,-1.63022 15.23966,-4.88544 4.26566,-3.25523 7.52088,-7.82817 9.77087,-13.72924 2.2448,-5.89066 3.37504,-12.71882 3.37504,-20.47406 0,-7.75525 -1.12502,-14.849036 -3.37504,-20.823026 -2.24999,-5.968781 -5.50521,-10.583388 -9.77087,-13.843821 -4.27087,-3.255225 -9.349,-4.885441 -15.23966,-4.885441 -9.15107,0 -16.17196,3.567727 -21.05741,10.703181 -4.88541,7.13545 -7.32816,16.750084 -7.32816,28.849107 0,12.09902 2.44275,21.44282 7.32816,28.50014 z"
     id="path4"
     style="fill:#fb41e5;fill-opacity:1;fill-rule:nonzero" />
  <path
     d="m 770.83731,53.084817 c 5.58338,-3.875022 12.3282,-5.81774 20.2397,-5.81774 3.72399,0 6.28128,0.312489 7.67711,0.932294 v 31.875167 c -3.72394,-0.463544 -6.74482,-0.697921 -9.07293,-0.697921 -9.92713,0 -17.797,3.104183 -23.6147,9.307343 -5.81775,6.203155 -8.72403,15.2032 -8.72403,26.98972 v 57.46905 H 720.81625 V 49.366044 h 35.13038 v 22.104284 h 0.69794 c 3.87498,-8.375044 8.60939,-14.500074 14.19274,-18.380304 z"
     id="path5"
     style="fill:#fb41e5;fill-opacity:1;fill-rule:nonzero" />
  <path
     d="m 846.68146,49.366044 v 19.312603 h 0.69794 c 4.03125,-7.442749 9.10943,-13.104236 15.23966,-16.984465 6.12501,-3.875018 13.45317,-5.817736 21.98448,-5.817736 8.06255,0 14.96885,1.979174 20.70846,5.932321 5.73439,3.953146 10.15627,9.81255 13.26045,17.567797 h 0.46358 c 9.77087,-15.666747 22.88031,-23.500118 39.3179,-23.500118 8.99484,0 16.59382,1.859382 22.80218,5.583362 6.20319,3.723976 10.89592,9.000044 14.07302,15.822996 3.1771,6.82816 4.77086,14.890701 4.77086,24.198044 V 173.14273 H 963.70292 V 97.527755 c 0,-6.822952 -1.59377,-12.135481 -4.77086,-15.937586 -3.18232,-3.796893 -7.71878,-5.697943 -13.60944,-5.697943 -4.34379,0 -8.10945,1.125004 -11.28655,3.375017 -3.18227,2.250009 -5.62502,5.390653 -7.32816,9.421924 -1.70831,4.036478 -2.55729,8.687546 -2.55729,13.958403 v 70.49516 H 887.62441 V 97.527755 c 0,-6.822952 -1.55209,-12.135481 -4.6511,-15.937586 -3.10418,-3.796893 -7.60419,-5.697943 -13.49485,-5.697943 -4.18752,0 -7.9115,1.125004 -11.16673,3.375017 -3.25523,2.250009 -5.78129,5.390653 -7.56252,9.421924 -1.78649,4.036478 -2.6771,8.687546 -2.6771,13.958403 v 70.49516 H 811.54586 V 49.366044 h 35.13038 z"
     id="path6"
     style="fill:#fb41e5;fill-opacity:1;fill-rule:nonzero" />
  <path
     d="M 48.85962,33.772214 V 71.465117 H 131.4538 V 103.80383 C 101.47448,88.579789 66.76076,88.939167 41.78667,105.32467 24.86471,116.42889 9.04692,142.11652 8.6042,173.13751 H 68.16701 L 0,0.03766539 H 136.33925 V 33.772214 Z"
     id="path7"
     style="fill:#fb41e5;fill-opacity:1;fill-rule:nonzero" />
</svg>
