<?xml version="1.0" encoding="UTF-8" standalone="no"?>
<svg
   width="532.68469"
   height="281.79907"
   viewBox="0 0 426.14775 225.43926"
   version="1.1"
   id="svg2"
   inkscape:version="1.2 (dc2aedaf03, 2022-05-15)"
   sodipodi:docname="FS1_New_Logo.svg"
   xml:space="preserve"
   xmlns:inkscape="http://www.inkscape.org/namespaces/inkscape"
   xmlns:sodipodi="http://sodipodi.sourceforge.net/DTD/sodipodi-0.dtd"
   xmlns="http://www.w3.org/2000/svg"
   xmlns:svg="http://www.w3.org/2000/svg"
   xmlns:rdf="http://www.w3.org/1999/02/22-rdf-syntax-ns#"
   xmlns:cc="http://creativecommons.org/ns#"
   xmlns:dc="http://purl.org/dc/elements/1.1/"><title
     id="title2993">Fox Sports 1 logo</title><metadata
     id="metadata16"><rdf:RDF><cc:Work
         rdf:about=""><dc:format>image/svg+xml</dc:format><dc:type
           rdf:resource="http://purl.org/dc/dcmitype/StillImage" /><dc:title>Fox Sports 1 logo</dc:title></cc:Work></rdf:RDF></metadata><defs
     id="defs14"><style
       id="style3839">.cls-1{fill:#19305a;}</style><path
       id="a"
       d="M 7,0 5.185,1.714 H 2.594 V 3.14 H 5.185 V 4.905 H 2.133 L 2.593,5.38 V 8 H 0 V 0 Z m 6,0 V 1.072 L 12.266,1.746 H 9.282 L 9.042,1.944 V 2.9 l 0.24,0.212 h 2.51 L 13,4.233 v 2.6 L 11.793,8 H 6 V 7.707 l 1.417,-1.4 h 2.608 L 10.371,5.995 V 5.259 L 10.025,4.891 H 7.417 L 6.477,3.953 V 1.746 L 8.251,0 Z m 5,0 V 8 H 14.835 V 3.075 l 0.41,-0.4 H 13 V 1.68 L 14.835,0 Z" /><filter
       id="a-6"
       x="0"
       y="0"
       width="261"
       height="261"
       filterUnits="userSpaceOnUse"><feOffset
         dy="2"
         id="feOffset287" /><feGaussianBlur
         stdDeviation="7.5"
         result="blur"
         id="feGaussianBlur289" /><feFlood
         flood-opacity=".1"
         id="feFlood291" /><feComposite
         operator="in"
         in2="blur"
         id="feComposite293"
         result="result1" /><feComposite
         in="SourceGraphic"
         in2="result1"
         id="feComposite295" /></filter><style
       id="style3839-0">.cls-1{fill:#19305a;}</style><path
       id="a-5"
       d="M 7,0 5.185,1.714 H 2.594 V 3.14 H 5.185 V 4.905 H 2.133 L 2.593,5.38 V 8 H 0 V 0 Z m 6,0 V 1.072 L 12.266,1.746 H 9.282 L 9.042,1.944 V 2.9 l 0.24,0.212 h 2.51 L 13,4.233 v 2.6 L 11.793,8 H 6 V 7.707 l 1.417,-1.4 h 2.608 L 10.371,5.995 V 5.259 L 10.025,4.891 H 7.417 L 6.477,3.953 V 1.746 L 8.251,0 Z m 5,0 V 8 H 14.835 V 3.075 l 0.41,-0.4 H 13 V 1.68 L 14.835,0 Z" /><filter
       id="a-9"
       x="0"
       y="0"
       width="261"
       height="261"
       filterUnits="userSpaceOnUse"><feOffset
         dy="2"
         id="feOffset308" /><feGaussianBlur
         stdDeviation="7.5"
         result="blur"
         id="feGaussianBlur310" /><feFlood
         flood-opacity=".1"
         id="feFlood312" /><feComposite
         operator="in"
         in2="blur"
         id="feComposite314"
         result="result1" /><feComposite
         in="SourceGraphic"
         in2="result1"
         id="feComposite316" /></filter></defs><sodipodi:namedview
     pagecolor="#ffffff"
     bordercolor="#666666"
     borderopacity="1"
     objecttolerance="10"
     gridtolerance="10"
     guidetolerance="10"
     inkscape:pageopacity="0"
     inkscape:pageshadow="2"
     inkscape:window-width="1366"
     inkscape:window-height="705"
     id="namedview12"
     showgrid="false"
     inkscape:showpageshadow="false"
     inkscape:zoom="0.70710678"
     inkscape:cx="348.60364"
     inkscape:cy="210.01071"
     inkscape:window-x="-8"
     inkscape:window-y="-8"
     inkscape:window-maximized="1"
     inkscape:current-layer="layer4"
     fit-margin-top="0"
     fit-margin-left="0"
     fit-margin-right="0"
     fit-margin-bottom="0"
     inkscape:document-rotation="0"
     inkscape:snap-bbox="false"
     inkscape:bbox-paths="false"
     inkscape:bbox-nodes="true"
     inkscape:snap-nodes="true"
     inkscape:pagecheckerboard="0"
     inkscape:deskcolor="#d1d1d1"
     showguides="false" /><g
     inkscape:groupmode="layer"
     id="layer4"
     inkscape:label="Layer 1"
     transform="translate(-182.58084,147.19131)"><path
       data-name="Path 4229"
       d="M 182.58084,-147.19131 H 608.72858 V 78.247947 H 182.58084 Z"
       fill="#002d56"
       id="path304"
       style="stroke-width:2.86236" /><path
       style="stroke-width:2.86236;fill:#ffffff;fill-opacity:1"
       d="m 341.61341,-37.105048 18.34771,18.662569 h 50.40611 l 3.20584,3.492075 V 3.6835417 l -4.37941,4.3794065 H 362.30825 L 336.08906,34.28214 v 6.383057 H 441.5383 L 463.09185,19.426506 V -32.46803 L 444.4579,-50.787116 h -50.37749 l -3.23446,-3.520699 V -73.25662 l 4.09317,-4.350783 h 55.04313 l 12.53712,-11.649794 V -109.6658 h -87.70262 l -33.20334,33.489576 z"
       id="path560" /><path
       style="stroke-width:2.86236;fill:#ffffff;fill-opacity:1"
       d="m 268.79504,40.69382 v -51.007205 l -8.15772,-8.157718 h 58.85007 v -32.344636 h -50.66373 v -26.76304 h 51.2362 l 32.0584,-32.058401 H 219.30488 v 150.331 z"
       id="path558" /><path
       style="stroke-width:2.86236;fill:#ffffff;fill-opacity:1"
       d="M 515.24399,-50.214644 V 40.69382 h 55.93046 v -150.331 h -54.49928 l -32.02977,31.772165 v 18.319086 h 39.61502 z"
       id="path308" /></g></svg>
