<?xml version="1.0" encoding="UTF-8" standalone="no"?>
<!-- Created with Inkscape (http://www.inkscape.org/) -->

<svg
   id="svg2985"
   version="1.1"
   inkscape:version="1.2 (dc2aedaf03, 2022-05-15)"
   width="191.62758"
   height="96"
   sodipodi:docname="FS2_logo.svg"
   xml:space="preserve"
   xmlns:inkscape="http://www.inkscape.org/namespaces/inkscape"
   xmlns:sodipodi="http://sodipodi.sourceforge.net/DTD/sodipodi-0.dtd"
   xmlns="http://www.w3.org/2000/svg"
   xmlns:svg="http://www.w3.org/2000/svg"
   xmlns:rdf="http://www.w3.org/1999/02/22-rdf-syntax-ns#"
   xmlns:cc="http://creativecommons.org/ns#"
   xmlns:dc="http://purl.org/dc/elements/1.1/"><metadata
     id="metadata2991"><rdf:RDF><cc:Work
         rdf:about=""><dc:format>image/svg+xml</dc:format><dc:type
           rdf:resource="http://purl.org/dc/dcmitype/StillImage" /><dc:title /></cc:Work></rdf:RDF></metadata><defs
     id="defs2989"><filter
       id="a"
       x="0"
       y="0"
       width="261"
       height="261"
       filterUnits="userSpaceOnUse"><feOffset
         dy="2"
         id="feOffset308" /><feGaussianBlur
         stdDeviation="7.5"
         result="blur"
         id="feGaussianBlur310" /><feFlood
         flood-opacity=".1"
         id="feFlood312" /><feComposite
         operator="in"
         in2="blur"
         id="feComposite314"
         result="result1" /><feComposite
         in="SourceGraphic"
         in2="result1"
         id="feComposite316" /></filter></defs><sodipodi:namedview
     pagecolor="#ffffff"
     bordercolor="#666666"
     borderopacity="1"
     objecttolerance="10"
     gridtolerance="10"
     guidetolerance="10"
     inkscape:pageopacity="0"
     inkscape:pageshadow="2"
     inkscape:window-width="1680"
     inkscape:window-height="931"
     id="namedview2987"
     showgrid="false"
     inkscape:zoom="2.9544605"
     inkscape:cx="83.433168"
     inkscape:cy="66.171133"
     inkscape:window-x="0"
     inkscape:window-y="1"
     inkscape:window-maximized="1"
     inkscape:current-layer="g3047"
     inkscape:showpageshadow="0"
     inkscape:pagecheckerboard="0"
     inkscape:deskcolor="#d1d1d1" /><g
     id="g3047"
     transform="translate(-0.4185909,59.988327)"><path
       data-name="Path 4232"
       d="M 0.4185909,-59.988327 H 192.04617 v 96 H 0.4185909 Z"
       fill="#002d56"
       id="path325"
       style="stroke-width:1.28411" /><path
       style="fill:#ffffff;fill-opacity:1;stroke-width:1.28411"
       d="m 168.11039,-3.179338 h -25.42536 l 4.22472,4.211878 v 5.457464 h 29.27769 V 20.011673 H 129.30461 V -9.009193 l 7.9358,-7.935795 h 19.71107 l 1.48957,-1.361155 v -11.544141 l -1.23274,-1.232745 h -8.9374 l -1.23275,1.232745 v 5.829855 h -17.61798 v -11.043338 l 9.05297,-8.92456 h 28.27609 l 9.42536,9.296951 v 23.576244 z"
       id="path361" /><path
       style="fill:#ffffff;fill-opacity:1;stroke-width:1.28411"
       d="m 68.514896,-13.105501 7.820225,7.935794 h 21.444623 l 1.373997,1.489567 V 4.255654 L 97.291783,6.117612 H 77.323885 l -11.17175,11.17175 v 2.722311 h 44.905285 l 9.18138,-9.18138 v -21.945425 l -7.93579,-7.807384 H 90.845555 l -1.361157,-1.489566 v -8.077047 l 1.733549,-1.849117 h 23.434983 l 5.34189,-4.969502 v -8.680579 H 82.652939 l -14.125201,14.253612 z"
       id="path359" /><path
       style="fill:#ffffff;fill-opacity:1;stroke-width:1.28411"
       d="M 37.516503,20.011673 V -1.689771 L 34.049408,-5.156866 H 59.089536 V -18.935357 H 37.516503 V -30.338246 H 59.346358 L 72.983596,-43.988327 H 16.41859 v 64 z"
       id="path327" /></g></svg>
