<?xml version="1.0" encoding="UTF-8" standalone="no"?>
<svg
   inkscape:version="1.2 (dc2aedaf03, 2022-05-15)"
   sodipodi:docname="Fuse_2015 orange.svg"
   id="svg14"
   version="1.1"
   viewBox="0 0 1000 447.73901"
   height="447.73901"
   width="1000"
   xml:space="preserve"
   xmlns:inkscape="http://www.inkscape.org/namespaces/inkscape"
   xmlns:sodipodi="http://sodipodi.sourceforge.net/DTD/sodipodi-0.dtd"
   xmlns="http://www.w3.org/2000/svg"
   xmlns:svg="http://www.w3.org/2000/svg"
   xmlns:rdf="http://www.w3.org/1999/02/22-rdf-syntax-ns#"
   xmlns:cc="http://creativecommons.org/ns#"
   xmlns:dc="http://purl.org/dc/elements/1.1/"><metadata
     id="metadata18"><rdf:RDF><cc:Work
         rdf:about=""><dc:format>image/svg+xml</dc:format><dc:type
           rdf:resource="http://purl.org/dc/dcmitype/StillImage" /></cc:Work></rdf:RDF></metadata><sodipodi:namedview
     inkscape:document-rotation="0"
     fit-margin-bottom="0"
     fit-margin-right="0"
     fit-margin-left="0"
     fit-margin-top="0"
     inkscape:current-layer="svg14"
     inkscape:window-maximized="0"
     inkscape:window-y="23"
     inkscape:window-x="0"
     inkscape:cy="493.57143"
     inkscape:cx="645"
     inkscape:zoom="0.7"
     showgrid="false"
     id="namedview16"
     inkscape:window-height="907"
     inkscape:window-width="1600"
     inkscape:pageshadow="2"
     inkscape:pageopacity="0"
     guidetolerance="10"
     gridtolerance="10"
     objecttolerance="10"
     borderopacity="1"
     bordercolor="#666666"
     pagecolor="#ffffff"
     inkscape:showpageshadow="0"
     inkscape:pagecheckerboard="0"
     inkscape:deskcolor="#d1d1d1" /><!-- Generator: Sketch 46.2 (44496) - http://www.bohemiancoding.com/sketch --><desc
     id="desc4">Created with Sketch.</desc><defs
     id="defs6" /><path
     id="Shape"
     style="fill:#fa3933;fill-rule:nonzero;stroke:none;stroke-width:26.4223;fill-opacity:1"
     d="M 335.11719 315.69727 L 335.11719 416.01172 C 335.13703 415.9911 335.15791 415.97181 335.17773 415.95117 L 338.74609 440.14648 L 414.59375 440.14648 L 414.59375 129.82812 L 335.11719 129.82812 L 335.11719 315.69727 z " /><path
     id="path412"
     style="fill:#fc774b;fill-rule:nonzero;stroke:none;stroke-width:26.4223;fill-opacity:1"
     d="M 137.72461 129.82812 L 137.72461 201.59375 L 137.72461 311.13086 C 137.72461 392.39213 186.4758 447.22266 259.9043 447.22266 C 288.22625 447.73394 315.47887 436.42214 335.11719 416.01172 L 335.11719 315.69727 C 333.09086 347.81465 308.89578 371.91797 274.93359 371.91797 C 223.15866 371.91797 217.14062 328.58069 217.14062 311.13086 L 217.14062 129.82812 L 137.72461 129.82812 z " /><path
     id="path1660"
     style="fill:#f5aa8a;fill-rule:nonzero;stroke:none;stroke-width:26.4223;fill-opacity:1"
     d="M 79.447266 201.59375 L 0 201.59375 L 0 439.7832 L 79.447266 439.7832 L 79.447266 201.59375 z " /><path
     id="path1732"
     style="fill:#fa3933;fill-rule:nonzero;stroke:none;stroke-width:26.4223;fill-opacity:1"
     d="M 118.7207 0.001953125 C 43.12173 0.18009683 1.5350055 56.092038 0 129.82812 L 0 201.44141 L 0 201.59375 L 79.447266 201.59375 L 137.72461 201.59375 L 137.72461 129.82812 L 79.447266 129.82812 L 79.447266 129.375 C 79.991626 87.912745 100.9789 72.669062 138.38867 75.632812 L 138.38867 1.1464844 C 132.88646 0.50950494 127.53867 0.14356649 122.3457 0.03515625 C 121.1286 0.0097475985 119.92069 -0.00087455288 118.7207 0.001953125 z " /><path
     id="path9"
     style="fill:#f5aa8a;fill-rule:nonzero;stroke:none;stroke-width:26.4223;fill-opacity:1"
     d="M 560.01172 317.20508 L 560.01172 247.29883 L 556.97461 246.77539 C 525.91566 241.39225 506.77219 236.28205 505.5625 221.82617 C 504.83668 206.34207 511.61149 186.25977 553.64844 186.25977 C 589.09251 186.25977 604.84853 198.75119 611.38086 219.89062 L 689.19531 219.89062 C 683.14685 161.37157 646.70365 122.08594 555.85547 122.08594 C 459.07977 122.08594 423.63529 167.72163 425.11719 225.72656 C 426.4782 295.43531 499.06141 305.89872 557.00586 316.63477 L 560.01172 317.20508 z " /><path
     id="path3706"
     style="fill:#fa3933;fill-rule:nonzero;stroke:none;stroke-width:26.4223;fill-opacity:1"
     d="M 761.80664 309.01367 L 689.35352 309.01367 C 689.87395 312.65725 690.49747 316.11883 691.19922 319.43164 C 691.90097 322.74445 692.68146 325.90836 693.51367 328.95508 C 694.34589 332.0018 695.23075 334.93203 696.14258 337.77734 C 697.0544 340.62266 697.99302 343.38321 698.93359 346.0918 C 722.2826 406.88166 780.64005 447.02927 845.75977 447.10156 C 918.61366 447.10156 974.86414 402.1601 992.82812 341.25195 L 913.80469 341.25195 C 897.9879 365.0527 878.1489 376.15231 842.46289 376.15234 C 804.99261 376.15234 772.2705 348.93362 761.80664 309.01367 z " /><path
     id="path4389"
     style="fill:#fc774b;fill-rule:nonzero;stroke:none;stroke-width:26.4223;fill-opacity:1"
     d="M 844.70117 122.05664 C 753.97404 122.05664 687.71289 196.39116 687.71289 286.27148 C 687.72399 292.41552 688.07738 298.55544 688.77148 304.66016 C 665.66634 265.04264 607.78134 255.51638 562.23633 247.68359 L 560.01172 247.29883 L 560.01172 317.20508 L 562.26758 317.63281 C 595.5342 323.98374 621.17973 331.06141 619.30469 350.90039 C 617.82293 363.26954 603.82018 381.14258 561.84375 381.14258 C 524.04079 381.14258 505.80493 366.23203 500.30078 344.00391 L 419.07031 344.00391 C 424.90711 411.77706 468.5152 446.83008 563.17383 446.83008 C 660.19136 446.83008 698.63116 394.63083 698.93359 346.0918 C 697.99302 343.38321 697.0544 340.62266 696.14258 337.77734 C 695.23075 334.93203 694.34589 332.0018 693.51367 328.95508 C 692.68146 325.90836 691.90097 322.74445 691.19922 319.43164 C 690.49747 316.11883 689.87395 312.65725 689.35352 309.01367 L 761.80664 309.01367 L 999.99609 309.01367 C 1000.5404 196.39107 940.08563 122.05664 844.70117 122.05664 z M 845.18555 184.20312 C 882.29295 184.20312 908.69459 206.94536 924.14844 250.73633 L 761.32227 250.73633 C 777.32048 207.97361 807.53378 184.26367 845.18555 184.26367 L 845.18555 184.20312 z " /></svg>
