<?xml version="1.0" encoding="utf-8"?>
<!-- Generator: Adobe Illustrator 16.0.0, SVG Export Plug-In . SVG Version: 6.00 Build 0)  -->
<!DOCTYPE svg PUBLIC "-//W3C//DTD SVG 1.1//EN" "http://www.w3.org/Graphics/SVG/1.1/DTD/svg11.dtd">
<svg version="1.1" id="Layer_1" xmlns="http://www.w3.org/2000/svg" xmlns:xlink="http://www.w3.org/1999/xlink" x="0px" y="0px"
	 width="1000px" height="514.243px" viewBox="0 0 1000 514.243" enable-background="new 0 0 1000 514.243" xml:space="preserve">
<g>
	<path d="M1000,0v411.04H861.24V208.69c-31.21,44.35-95.312,157.471-95.312,157.471L608.07,118.62L555.1,196l129.24,215.04H523.31
		c0,0-33.54-64.629-50.89-96.42c-17.81,31.53-51.8,96.42-51.8,96.42h-161.1c43.25-71.879,131.38-214.01,131.38-214.01l-54.07-80.55
		H143.04v48.76h139.85v112.35H143.04V411.04H0V0h419.45l52.97,90.07L523.31,0H675.86c32.12,45.2,58.658,95.96,90.068,141.93
		C796.22,95.32,824.05,46.38,854.53,0H1000z"/>
	<g>
		<polygon fill-rule="evenodd" clip-rule="evenodd" points="0,433.02 0,512.986 9.776,512.986 9.776,476.639 44.373,476.639 
			44.373,467.112 9.776,467.112 9.776,442.294 49.636,442.294 49.636,433.02 0,433.02 		"/>
		<path fill-rule="evenodd" clip-rule="evenodd" d="M54.902,512.986l28.578-41.61L58.16,433.02h11.782l13.287,20.557
			c2.758,4.011,4.764,7.52,6.017,9.775c1.503-3.007,3.509-6.016,5.765-9.273l14.791-21.059h10.53l-25.82,37.605l27.825,42.36
			h-12.033l-18.55-28.577c-1.004-1.755-2.005-3.51-3.26-5.264c-1.503,2.758-2.756,4.766-3.509,6.014l-18.3,27.827H54.902
			L54.902,512.986z"/>
		<path fill-rule="evenodd" clip-rule="evenodd" d="M159.188,512.986V433.02h14.791l17.296,56.652
			c1.754,5.271,2.758,9.025,3.511,11.783c1.002-3.003,2.254-7.271,4.011-12.779l17.547-55.656h13.288v79.966h-9.528v-66.93
			l-21.307,66.93h-8.774l-21.309-68.185v68.185H159.188L159.188,512.986z"/>
		<path fill-rule="evenodd" clip-rule="evenodd" d="M252.443,474.134c0,9.776,2.257,17.292,7.021,22.808
			c5.013,5.518,10.778,8.275,18.049,8.275c7.269,0,13.287-2.758,18.049-8.275c4.764-5.761,7.271-13.537,7.271-24.064
			c0-6.516-1.004-12.032-3.009-17.045c-2.257-4.764-5.013-8.523-9.024-11.281c-3.762-2.508-8.272-4.012-13.036-4.012
			c-7.02,0-12.786,2.758-17.8,7.771C254.951,453.577,252.443,462.1,252.443,474.134 M242.417,473.881
			c0-13.287,3.258-23.565,9.776-31.086c6.519-7.52,15.042-11.281,25.571-11.281c6.769,0,12.786,1.757,18.3,5.266
			s9.527,8.523,12.534,14.791c2.759,6.268,4.262,13.536,4.262,21.56c0,8.022-1.503,15.293-4.513,21.813
			c-3.007,6.268-7.269,11.025-12.786,14.533c-5.514,3.264-11.531,4.766-18.049,4.766c-6.769,0-13.036-1.754-18.551-5.264
			c-5.517-3.762-9.527-8.771-12.284-15.039C243.92,487.672,242.417,480.899,242.417,473.881"/>
		<path fill-rule="evenodd" clip-rule="evenodd" d="M346.452,512.986l-28.578-79.966h10.529l19.05,58.161
			c1.506,4.513,2.758,9.026,4.013,13.032c1.002-4.512,2.254-8.772,3.76-13.032l20.054-58.161h9.776l-28.829,79.966H346.452
			L346.452,512.986z"/>
		<polygon fill-rule="evenodd" clip-rule="evenodd" points="395.586,433.02 405.364,433.02 405.364,512.986 395.586,512.986 
			395.586,433.02 		"/>
		<polygon fill-rule="evenodd" clip-rule="evenodd" points="422.661,512.986 422.661,433.02 476.059,433.02 476.059,442.294 
			432.438,442.294 432.438,466.862 473.3,466.862 473.3,476.387 432.438,476.387 432.438,503.463 477.562,503.463 477.562,512.986 
			422.661,512.986 		"/>
		<path fill-rule="evenodd" clip-rule="evenodd" d="M572.324,484.915l9.775,2.758c-2.256,8.52-5.766,15.293-11.029,19.805
			c-5.518,4.506-11.783,6.766-19.557,6.766c-8.021,0-14.289-1.754-19.299-5.264c-5.014-3.508-8.777-8.527-11.535-15.293
			c-2.504-6.52-3.758-13.791-3.758-21.307c0-8.274,1.502-15.545,4.26-21.813c3.008-6.268,7.271-11.029,12.535-14.289
			c5.516-3.007,11.529-4.764,18.051-4.764c7.27,0,13.537,2.008,18.549,6.268c5.014,4.01,8.523,9.777,10.531,17.047l-9.777,2.508
			c-1.754-5.766-4.01-10.027-7.27-12.785c-3.262-2.508-7.521-4.012-12.287-4.012c-5.766,0-10.527,1.504-14.289,4.514
			c-3.758,3.006-6.516,7.02-8.021,11.781c-1.502,5.015-2.256,10.277-2.256,15.545c0,6.766,1.004,12.535,2.758,17.799
			c1.756,5.01,4.766,8.771,8.523,11.277c3.762,2.506,8.021,3.762,12.535,3.762c5.516,0,10.029-1.754,13.787-5.01
			C568.313,496.698,570.818,491.679,572.324,484.915"/>
		<polygon fill-rule="evenodd" clip-rule="evenodd" points="594.385,512.986 594.385,433.02 604.16,433.02 604.16,465.86 
			642.266,465.86 642.266,433.02 652.043,433.02 652.043,512.986 642.266,512.986 642.266,475.137 604.16,475.137 604.16,512.986 
			594.385,512.986 		"/>
		<path fill-rule="evenodd" clip-rule="evenodd" d="M681.625,480.149h24.816l-7.77-22.311c-2.258-6.519-4.012-12.283-5.016-16.546
			c-1.002,5.264-2.256,10.278-4.01,15.291L681.625,480.149L681.625,480.149z M660.313,512.986l28.33-79.966h10.277l30.334,79.966
			h-11.279l-8.523-24.31h-30.834l-8.025,24.31H660.313L660.313,512.986z"/>
		<polygon fill-rule="evenodd" clip-rule="evenodd" points="737.025,512.986 737.025,433.02 747.055,433.02 785.658,495.694 
			785.658,433.02 794.936,433.02 794.936,512.986 784.906,512.986 746.301,450.067 746.301,512.986 737.025,512.986 		"/>
		<polygon fill-rule="evenodd" clip-rule="evenodd" points="811.229,512.986 811.229,433.02 821.258,433.02 859.865,495.694 
			859.865,433.02 869.389,433.02 869.389,512.986 859.363,512.986 820.502,450.067 820.502,512.986 811.229,512.986 		"/>
		<polygon fill-rule="evenodd" clip-rule="evenodd" points="885.934,512.986 885.934,433.02 939.082,433.02 939.082,442.294 
			895.711,442.294 895.711,466.862 936.324,466.862 936.324,476.387 895.711,476.387 895.711,503.463 940.838,503.463 
			940.838,512.986 885.934,512.986 		"/>
		<polygon fill-rule="evenodd" clip-rule="evenodd" points="953.873,512.986 953.873,433.02 963.65,433.02 963.65,503.463 
			1000,503.463 1000,512.986 953.873,512.986 		"/>
	</g>
</g>
</svg>
