<?xml version="1.0" encoding="UTF-8" standalone="no"?>
<!-- Created with Inkscape (http://www.inkscape.org/) -->

<svg
   version="1.1"
   id="svg182"
   width="1000"
   height="675.45288"
   viewBox="0 0 1000 675.45288"
   sodipodi:docname="FYI.svg"
   xml:space="preserve"
   inkscape:version="1.2 (dc2aedaf03, 2022-05-15)"
   xmlns:inkscape="http://www.inkscape.org/namespaces/inkscape"
   xmlns:sodipodi="http://sodipodi.sourceforge.net/DTD/sodipodi-0.dtd"
   xmlns="http://www.w3.org/2000/svg"
   xmlns:svg="http://www.w3.org/2000/svg"><defs
     id="defs186"><inkscape:path-effect
       effect="fillet_chamfer"
       id="path-effect5008"
       is_visible="true"
       lpeversion="1"
       nodesatellites_param="F,0,0,1,0,0,0,1 @ F,0,0,1,0,0,0,1 @ F,0,0,1,0,198.37071,0,1 @ F,0,0,1,0,194.73564,0,1 | F,0,0,1,0,0,0,1 @ F,0,0,1,0,93.992405,0,1 @ F,0,0,1,0,98.146765,0,1 @ F,0,0,1,0,0,0,1"
       unit="px"
       method="auto"
       mode="F"
       radius="0"
       chamfer_steps="1"
       flexible="false"
       use_knot_distance="true"
       apply_no_radius="true"
       apply_with_radius="true"
       hide_knots="false" /></defs><sodipodi:namedview
     id="namedview184"
     pagecolor="#ffffff"
     bordercolor="#999999"
     borderopacity="1"
     inkscape:showpageshadow="0"
     inkscape:pageopacity="0"
     inkscape:pagecheckerboard="0"
     inkscape:deskcolor="#d1d1d1"
     showgrid="false"
     showguides="true"
     inkscape:zoom="0.48142188"
     inkscape:cx="287.68946"
     inkscape:cy="133.97812"
     inkscape:current-layer="g188" /><g
     inkscape:groupmode="layer"
     inkscape:label="Image"
     id="g188"
     transform="translate(-953.00952,-862.40604)"><g
       id="g6216"
       transform="matrix(0.45093333,0,0,0.45093333,940.25271,658.95274)"><path
         d="m 1735.2304,749.31743 c -82.3413,0 -149.3182,-66.88612 -149.3182,-149.07873 0,-82.17748 66.9769,-149.05603 149.3182,-149.05603 82.3414,0 149.3334,66.87855 149.3334,149.05603 0,82.19261 -66.992,149.07873 -149.3334,149.07873"
         id="Fill-1-4"
         fill="#ffffff"
         style="fill:#106755;fill-opacity:1;fill-rule:evenodd;stroke:none;stroke-width:29.1918" /><path
         d="M 1599.5175,1643.9175 V 1062.623 H 1439.244 l 79.7291,-222.60435 h 357.6027 v 803.89885 h -277.0583"
         id="Fill-2-2"
         fill="#ffffff"
         style="fill:#106755;fill-opacity:1;fill-rule:evenodd;stroke:none;stroke-width:29.1918" /><path
         d="m 2096.661,1812.5156 -0.029,-160.1045 c -82.3413,0 -149.3333,-66.871 -149.3333,-149.0636 0,-82.1776 66.9618,-149.0486 149.3182,-149.0486 82.3338,0 149.2956,66.871 149.2956,149.0486 0,16.8364 -4.0393,36.092 -7.8446,48.4745 -6.3119,20.371 -80.5595,221.2854 -95.1463,260.6936 h -46.2594"
         id="Fill-3-5"
         fill="#5bb6a5"
         style="fill:#57b6a5;fill-opacity:1;fill-rule:evenodd;stroke:none;stroke-width:29.1918" /><path
         d="m 814.43591,1948.9556 -74.37595,-208.5187 8.1616,0.029 c 62.28829,-1.869 111.01659,-30.3192 137.51745,-80.1653 l 2.07629,-3.9039 -293.3212,-816.38673 h 261.97325 l 163.58035,451.53173 163.603,-451.53173 h 262.0109 l -290.7617,809.07713 v 0.097 c -70.0045,204.0646 -161.9722,288.2318 -327.63639,299.8982 l -12.8276,-0.1291"
         id="Fill-5-0"
         fill="#ffffff"
         style="fill:#106755;fill-opacity:1;fill-rule:evenodd;stroke:none;stroke-width:29.1918" /><path
         d="m 422.88796,840.01865 v -70.71457 c 0,-72.90014 28.20715,-109.91922 106.63002,-109.91922 h 39.38881 L 502.50369,458.3423 c 0,0 -41.66138,0.18844 -44.94567,0.18844 -212.203,0 -311.67548,94.57502 -311.67548,282.48903 v 98.99888 H 28.289782 V 1061.7261 H 145.79192 v 582.1914 H 422.75208 V 1062.4572 H 600.43599 L 520.79003,840.01865 h -97.90207"
         id="Fill-7-1"
         fill="#ffffff"
         style="fill:#106755;fill-opacity:1;fill-rule:evenodd;stroke:none;stroke-width:29.1918" /></g></g></svg>
