<?xml version="1.0" encoding="UTF-8" standalone="no"?>
<!-- Generator: Adobe Illustrator 28.1.0, SVG Export Plug-In . SVG Version: 6.00 Build 0)  -->

<svg
   version="1.1"
   id="Capa_1"
   x="0px"
   y="0px"
   viewBox="0 0 1000 742.97089"
   xml:space="preserve"
   width="1000"
   height="742.97089"
   xmlns="http://www.w3.org/2000/svg"
   xmlns:svg="http://www.w3.org/2000/svg"><defs
   id="defs1" />&#10;<style
   type="text/css"
   id="style1">&#10;	.st0{fill:#FFFFFF;}&#10;</style>&#10;<path
   d="m 553.78618,471.51032 -37.0739,5.22518 v 125.23845 l 37.0739,-5.22518 z"
   id="path12"
   style="fill:#f24405;fill-opacity:1;stroke-width:8.29394" /><path
   d="m 532.47076,449.86315 -75.55776,10.61624 -8.04512,-20.32015 -104.33773,14.68027 -8.04512,22.55951 -77.88007,10.94799 v -4.72754 l 136.84996,-298.24998 4.81049,-0.66351 132.20535,250.89159 z m -106.07945,-64.4439 -23.63772,-50.67595 -6.05458,-15.01203 -5.97163,16.75376 -23.30596,57.22816 z"
   id="path11"
   style="fill:#f24405;fill-opacity:1;stroke-width:8.29394" /><path
   d="m 300.8211,632.24682 37.0739,-5.22518 V 501.78319 l -37.0739,5.22518 z"
   id="path10"
   style="fill:#f24405;fill-opacity:1;stroke-width:8.29394" /><path
   d="m 151.36435,509.33068 c 30.93639,-4.31285 57.31111,-14.0997 78.87534,-28.69703 l 66.93208,-145.80741 -138.177,19.40781 0.4147,57.47699 59.79929,-8.37688 c -8.45982,20.6519 -31.68284,36.2445 -62.20453,40.47441 -49.34893,6.96691 -73.81604,-28.94584 -73.81604,-68.17616 0,-39.31326 24.46711,-82.44174 73.81604,-89.3257 25.71121,-3.64934 44.12375,1.74172 62.20453,17.41726 l 51.00771,-56.73053 C 241.68533,223.18984 208.42664,211.66127 157.00423,218.877 51.00771,233.72314 0,313.51082 0,386.16571 0,458.4059 51.00771,523.43037 151.36435,509.33068 Z"
   id="path9"
   style="fill:#f24405;fill-opacity:1;stroke-width:8.29394" /><path
   d="M 936.3855,563.49008 89.57452,682.42514 V 542.00879 C 68.59086,535.78833 51.33947,530.64609 37.82035,516.79522 V 742.97088 L 988.13967,609.4385 V 405.40764 l -51.75417,7.29867 z"
   id="path8"
   style="fill:#f24405;fill-opacity:1;stroke-width:8.29394" /><path
   d="m 201.37679,556.772 c -1.82466,3.98109 -6.13751,13.76793 -10.28448,23.30596 -4.14697,-8.37688 -8.29394,-16.91963 -10.1186,-20.40309 l -17.33433,-33.34162 -37.65447,5.30812 v 2.15642 l 63.44861,116.77863 2.15643,-0.33175 63.44862,-134.69354 v -2.15643 l -36.16157,5.05931 z"
   id="path7"
   style="fill:#f24405;fill-opacity:1;stroke-width:8.29394" /><path
   d="m 1000,379.36468 v 4.72754 l -80.28531,11.27976 -8.04512,-20.32015 -104.33773,14.68027 -8.04512,22.55951 -77.88007,10.948 v -4.72755 l 136.84996,-298.24998 4.81049,-0.66351 z m -110.72406,-59.05283 -23.63772,-50.67596 -6.05458,-15.01202 -6.05457,16.75375 -23.30596,57.22817 z"
   id="path6"
   style="fill:#f24405;fill-opacity:1;stroke-width:8.29394" /><path
   d="M 88.66219,210.08542 V 178.15377 L 936.3855,59.05283 v 135.68881 l 51.75417,95.38028 V 0 L 36.90802,133.69826 v 115.61749 c 13.93381,-15.34379 31.1852,-28.77997 51.75417,-39.23033 z"
   id="path5"
   style="fill:#f24405;fill-opacity:1;stroke-width:8.29394" /><path
   d="m 637.22319,368.83138 v -211.4954 l -82.27586,11.52858 v 277.76395 l 137.59642,-19.32487 32.51223,-70.83023 z"
   id="path4"
   style="fill:#f24405;fill-opacity:1;stroke-width:8.29394" /><path
   d="m 672.14067,452.18545 c 46.86074,-6.55221 72.32313,19.90545 72.32313,54.73998 0,35.99569 -25.87709,69.25438 -72.32313,75.80659 -46.86075,6.55221 -72.32314,-19.90545 -72.32314,-54.73999 0,-35.91274 25.79415,-69.25437 72.32314,-75.80658 z m -34.91748,70.16671 c 0,20.56896 13.35324,33.00987 34.91748,29.94111 21.48129,-2.98582 34.91747,-19.24193 34.91747,-39.8109 0,-20.56896 -13.35324,-33.00987 -34.91747,-30.02405 -21.56424,3.15169 -34.91748,19.32487 -34.91748,39.89384 z"
   id="path3"
   style="fill:#f24405;fill-opacity:1;stroke-width:8.29394" /><path
   d="m 426.88894,591.27477 c -7.21572,0.99528 -14.84614,-1.16115 -23.88654,-10.03566 l -18.99311,23.3889 c 11.77739,11.19682 26.20884,14.92909 44.4555,12.35797 25.71121,-3.64933 42.1332,-20.73484 42.1332,-42.21614 0,-40.97205 -49.18304,-34.08808 -49.18304,-52.6665 0,-4.81049 3.64933,-8.87451 10.69917,-9.86979 7.38161,-1.07821 13.18736,1.74173 19.159,7.71336 l 18.08078,-22.22775 c -9.62096,-9.78684 -23.14008,-13.76793 -39.06444,-11.52857 -24.63299,3.48345 -41.38675,22.06187 -41.38675,41.63556 0,39.72796 49.18305,32.59518 49.18305,52.99826 0,5.474 -4.14697,9.45509 -11.19682,10.45036 z"
   id="path2"
   style="fill:#f24405;fill-opacity:1;stroke-width:8.29394" /><path
   d="m 854.93904,483.03889 c 2.3223,1.65879 4.89342,3.40052 7.3816,5.22518 -0.16588,-4.06402 -0.16588,-7.87924 -0.16588,-9.62096 v -50.42714 l 34.3369,-4.81048 V 551.298 l -2.15642,0.33175 -72.65489,-48.43659 c -2.3223,-1.49291 -4.56166,-3.15169 -6.71809,-4.97636 0.16588,7.63042 0.33176,15.50966 0.33176,19.49075 v 42.38202 l -34.3369,4.81048 V 436.84166 l 2.57112,-0.33175 z"
   id="path1"
   style="fill:#f24405;fill-opacity:1;stroke-width:8.29394" />&#10;</svg>
