<?xml version="1.0" encoding="utf-8"?>
<!-- Generator: Adobe Illustrator 16.0.0, SVG Export Plug-In . SVG Version: 6.00 Build 0)  -->
<!DOCTYPE svg PUBLIC "-//W3C//DTD SVG 1.1//EN" "http://www.w3.org/Graphics/SVG/1.1/DTD/svg11.dtd">
<svg version="1.1" id="Layer_1" xmlns="http://www.w3.org/2000/svg" xmlns:xlink="http://www.w3.org/1999/xlink" x="0px" y="0px"
	 width="1000px" height="886.871px" viewBox="0 0 1000 886.871" enable-background="new 0 0 1000 886.871" xml:space="preserve">
<g>
	<rect y="763.416" fill="#C9DA2A" width="1000" height="123.455"/>
	<rect y="373.852" fill="#0C7BCA" width="1000" height="391.869"/>
	<rect fill="#EB1C24" width="241.453" height="376.19"/>
	<rect x="475.923" fill="#9F1D20" width="288.622" height="376.19"/>
	<rect x="239.125" fill="#EB5B40" width="239.059" height="376.19"/>
	<rect x="762.217" fill="#EB8366" width="237.783" height="376.19"/>
	<polygon fill="#0C7BCA" points="896.596,787.23 921.753,787.23 921.753,840.9 957.115,840.9 957.115,862.408 896.596,862.408 	"/>
	<path fill="#0C7BCA" d="M791.402,834.835l-6.804-18.266l-6.894,18.266H791.402z M772.334,786.937h24.979l31.603,75.807h-27.217
		l-4.028-10.092h-26.321l-4.027,10.092h-26.859L772.334,786.937z"/>
	<path fill="#0C7BCA" d="M643.416,823.197c5.998,0,9.667-2.686,9.667-7.318v-0.203c0-4.834-3.759-7.273-9.578-7.273h-10.921v14.414
		L643.416,823.197z M607.515,787.23h36.707c13.339,0,21.844,3.289,27.036,8.592c4.746,4.746,7.252,11.17,6.896,17.883v0.18
		c0.267,9.916-5.642,19.07-14.773,23.031l17.458,25.492h-28.649L637.953,840.9h-5.369v21.508h-25.069V787.23z"/>
	<polygon fill="#0C7BCA" points="489.979,808.492 468.045,808.492 468.045,787.23 537.416,787.23 537.416,808.492 515.304,808.492 
		515.304,862.408 489.979,862.408 	"/>
	<polygon fill="#0C7BCA" points="322.475,787.23 346.021,787.23 372.789,820.421 372.789,787.23 397.677,787.23 397.677,862.408 
		375.385,862.408 347.362,827.763 347.362,862.408 322.475,862.408 	"/>
	<polygon fill="#0C7BCA" points="186.483,787.23 250.674,787.23 250.674,807.888 211.192,807.888 211.192,815.496 247.988,815.496 
		247.988,833.671 211.192,833.671 211.192,841.796 251.212,841.796 251.212,862.408 186.483,862.408 	"/>
	<path fill="#0C7BCA" d="M42.615,825.076v-0.18c-0.18-22.135,17.904-39.838,39.928-39.322c14.146-0.516,27.396,7.094,34.11,19.627
		l-20.771,11.885c-2.238-5.527-7.699-9.107-13.697-9.018c-8.505,0-14.056,7.338-14.056,16.404v0.225
		c0,9.779,5.819,16.674,14.056,16.674c6.267,0.09,11.906-3.559,14.414-9.289l20.77,11.684
		c-20.054,34.938-73.412,21.598-74.575-18.689H42.615z"/>
	<path fill="#EBFAFA" d="M33.931,643.605l60.341-1.879c1.791,20.055,6.445,43.398,29.274,43.398
		c18.265,0,23.725-15.465,23.725-30.059c0-17.906-11.369-31.133-30.17-48.994l-31.065-30.619
		c-29.275-27.461-47.091-54.43-47.091-90.129c0-45.211,28.38-84.156,86.393-84.156c40.734,0,78.694,21.039,81.38,92.392
		l-56.671,1.879c-2.237-24.004-7.788-42.525-27.932-42.525c-16.025,0-23.366,12.355-23.366,27.395
		c0,17.369,17.815,33.865,33.393,48.525l28.828,28.357c31.513,30.102,49.329,58.035,49.329,94.629
		c0,47.896-32.856,85.945-87.288,85.945C68.577,737.765,37.063,701.71,33.931,643.605z"/>
	<polygon fill="#EBFAFA" points="241.99,406.719 306.449,406.719 306.449,538.861 363.119,538.861 363.119,406.719 427.668,406.719 
		427.668,732.796 363.119,732.796 363.119,597.388 306.449,597.388 306.449,732.796 241.99,732.796 	"/>
	<path fill="#EBFAFA" d="M580.389,649.941V487.628c0-18.689-11.996-29.711-29.723-29.711c-19.249,0-28.827,12.008-28.827,30.182
		v161.416c0,18.264,10.025,31.514,29.274,31.514c19.16,0,29.365-13.25,29.365-31.088H580.389z M456.586,648.619V490.404
		c0-58.091,40.645-88.709,94.617-88.709c52.642,0,94.183,27.417,94.183,87.815v158.326c0,60.766-41.988,90.02-94.63,90.02
		C494.991,737.765,456.586,709.408,456.586,648.619z"/>
	<polygon fill="#EBFAFA" points="670.004,406.719 733.568,406.719 759.62,601.527 760.963,601.527 789.79,406.719 851.475,406.719 
		878.87,600.544 879.854,600.544 905.907,406.719 962.578,406.719 910.024,734.207 850.042,734.207 818.528,526.527 
		816.649,526.527 784.242,734.207 723.632,734.207 	"/>
	<path fill="#EBFAFA" d="M27.216,274.936V108.954c0-53.996,41.093-84.154,93.734-84.154c48.882,0,90.512,27.037,90.512,77.261
		v34.378h-58.908v-29.365c0-17.368-13.251-27.384-30.708-27.384c-19.159,0-29.275,12.354-29.275,30.596v163.295
		c0,19.248,10.116,31.514,29.275,31.514c19.248,0,27.484-10.911,27.484-27.921v-45.211h-33.394V183.07h95.883v97.316
		c0,51.321-35.184,80.495-90.063,80.495C67.861,360.881,27.216,331.606,27.216,274.936z"/>
	<path fill="#EBFAFA" d="M378.429,230.542L356.942,102.06h-1.344l-22.561,128.482H378.429z M316.298,29.354h87.824l63.654,326.503
		h-65.623l-13.34-73.132h-66.249l-13.251,73.132h-59.534L316.298,29.354z"/>
	<polygon fill="#EBFAFA" points="503.049,29.812 585.313,29.812 620.497,159.816 621.928,159.816 658.546,30.003 737.15,30.003 
		737.15,355.946 680.032,355.946 680.032,126.758 679.047,126.758 642.521,265.816 598.115,265.816 560.693,127.218 
		559.888,127.218 559.888,355.857 503.228,355.857 	"/>
	<polygon fill="#EBFAFA" points="801.43,29.812 958.279,29.812 958.279,84.245 865.44,84.245 865.44,161.047 939.032,161.047 
		939.032,215.938 865.44,215.938 865.44,300.529 958.728,300.529 958.728,355.857 801.43,355.857 	"/>
</g>
</svg>
