<?xml version="1.0" encoding="UTF-8" standalone="no"?>
<!-- Generator: Adobe Illustrator 27.9.0, SVG Export Plug-In . SVG Version: 6.00 Build 0)  -->

<svg
   version="1.1"
   id="Слой_1"
   x="0px"
   y="0px"
   width="500px"
   height="497.6px"
   viewBox="0 0 500 497.6"
   style="enable-background:new 0 0 500 497.6;"
   xml:space="preserve"
   xmlns:xlink="http://www.w3.org/1999/xlink"
   xmlns="http://www.w3.org/2000/svg"
   xmlns:svg="http://www.w3.org/2000/svg"><defs
   id="defs11"><radialGradient
   id="SVGID_1_-6"
   cx="89.475502"
   cy="53.747002"
   r="26.382"
   fx="98.564796"
   fy="44.238602"
   gradientUnits="userSpaceOnUse"
   gradientTransform="matrix(3.026465,0,0,3.026465,14.832702,-3.722502)">
		<stop
   offset="5.000000e-02"
   style="stop-color:#FFFFFF"
   id="stop5-2" />
		<stop
   offset="0.6"
   style="stop-color:#77ACDE"
   id="stop6-6" />
		<stop
   offset="0.7447"
   style="stop-color:#5B93CE"
   id="stop7-1" />
		<stop
   offset="0.9027"
   style="stop-color:#437DC1"
   id="stop8" />
		<stop
   offset="1"
   style="stop-color:#3A75BC"
   id="stop9" />
	</radialGradient>
	
	
	
	
	
</defs>
<style
   type="text/css"
   id="style1">
	.st0{fill:#FFFFFF;}
	.st1{clip-path:url(#SVGID_00000016035306287389921350000004254119976387208337_);}
	
		.st2{clip-path:url(#SVGID_00000062872398926580787560000007971013249055086996_);fill:url(#SVGID_00000136383052632331835130000017963415973172746404_);}
	.st3{clip-path:url(#SVGID_00000075855869717512432190000012470304173691293094_);fill:#FFFFFF;}
</style>
<rect
   width="499.89999"
   height="497.39999"
   id="rect1"
   x="0"
   y="0" /><path
   class="st0"
   d="M 9.5,488 V 9.5 H 250.2 V 349.8 H 22.5 V 475.1 H 250.2 V 488 Z m 240.7,0 V 475.1 H 478 V 349.8 H 250.2 V 9.5 H 490.6 V 488 Z"
   id="path1" /><g
   id="g2">
		<defs
   id="defs1">
			<rect
   id="SVGID_1_"
   x="0.1"
   y="0.1"
   width="499.89999"
   height="497.39999" />
		</defs>
		<clipPath
   id="SVGID_00000148622479694169329330000014537388906785660564_">
			<use
   xlink:href="#SVGID_1_"
   style="overflow:visible"
   id="use1" />
		</clipPath>
		<path
   d="m 120.5,306.4 c 0,0 -35.7,-31.6 -35.7,-115 0,-83.7 34.2,-105.8 34.2,-105.8 0,0 32,-29.7 143.8,-31.6 111.7,-2.1 118.6,3.7 118.6,3.7 0,0 14.8,48.7 14.8,141.1 0,91.1 -20.1,137.4 -20.1,137.4 h 22 c 0,0 23,-42.1 23,-133.7 C 421,91.3 393,48.2 393,48.2 c 0,0 -63.8,-20 -143.8,-12.9 -32,2.9 -113.3,20.5 -139,50.3 C 84.7,115.3 66.7,145 68.1,195 c 1.5,74.2 52.4,111.4 52.4,111.4"
   clip-path="url(#SVGID_00000148622479694169329330000014537388906785660564_)"
   id="path2" />
	</g><g
   id="g10">
		<defs
   id="defs7">
			<rect
   id="SVGID_00000017490006118381016050000014941902908665339538_"
   x="0.1"
   y="0.1"
   width="499.89999"
   height="497.39999" />
		</defs>
		<clipPath
   id="SVGID_00000156588127910109968910000002862754975638487453_">
			<use
   xlink:href="#SVGID_00000017490006118381016050000014941902908665339538_"
   style="overflow:visible"
   id="use7" />
		</clipPath>
		<path
   style="fill:#ffffff"
   d="m 134,406.6 c -0.3,7.1 -0.8,13.4 -1.9,19.5 -1.1,6.1 -3.7,12.1 -7.9,18.2 -4.5,6.3 -10.3,11.1 -16.9,13.9 -6.9,2.9 -14.3,4.5 -22.2,4.5 C 70,462.7 57.8,458 48.6,449 39.1,439.8 34.3,427.7 34.3,412.9 c 0,-15.5 4.8,-27.9 14.3,-37.1 9.5,-9.2 22,-13.9 37.3,-13.9 9.8,0 18.3,2.1 25.7,6.6 7.4,4.5 13.2,11.1 17.2,20 l -23.3,9.5 c -1.9,-4.5 -4.5,-7.9 -7.9,-10.8 -3.4,-2.6 -7.7,-4.2 -12.7,-4.2 -7.7,0 -13.5,2.9 -17.7,8.7 -4.2,5.5 -6.4,11.8 -6.9,18.7 0,0.3 -0.3,0.8 -0.3,1.3 v 1.3 0.3 0.5 c 0.3,7.1 2.6,13.7 6.9,19.7 4.2,6.1 10.3,9.2 18.3,9.2 5.6,0 10.1,-1.6 13.8,-4.2 3.7,-2.9 5.8,-6.8 6.4,-12.4 H 84.7 v -19.5 z"
   clip-path="url(#SVGID_00000156588127910109968910000002862754975638487453_)"
   id="path7" />
		<path
   style="fill:#ffffff"
   d="m 192.2,361.6 c 13.8,0.3 25.9,4.7 36.5,13.9 10.6,9 16.2,20.8 16.2,35 0,15.3 -5,27.9 -14.8,37.4 -10.1,9.7 -22.5,14.7 -37.9,14.7 V 439 c 7.4,0 13.8,-2.6 19.1,-8.2 5,-5.3 7.7,-12.1 7.7,-20.3 0,-6.6 -2.6,-12.4 -7.7,-17.4 -5.3,-5 -11.7,-7.6 -19.1,-7.6 z m 0,0 v 0 23.9 c -7.4,0 -13.8,2.6 -19.1,7.6 -5.3,5 -7.9,10.8 -7.9,17.4 0,8.2 2.6,15 7.9,20.3 5.3,5.5 11.7,8.2 19.1,8.2 v 23.7 c -15.4,0 -27.8,-5 -37.9,-14.7 -9.8,-9.5 -14.8,-22.1 -14.8,-37.4 0,-14.2 5.3,-26.1 15.9,-35 10.9,-9.2 23,-13.7 36.8,-13.7 z"
   clip-path="url(#SVGID_00000156588127910109968910000002862754975638487453_)"
   id="path8" />
		<polygon
   style="fill:#ffffff"
   points="305,459.5 250.8,459.5 250.8,364.8 275.4,364.8 275.4,438.5 305,438.5 "
   clip-path="url(#SVGID_00000156588127910109968910000002862754975638487453_)"
   id="polygon8" />
		<polygon
   style="fill:#ffffff"
   points="319.1,385.6 299.2,385.6 299.2,365 363.3,365 363.3,385.6 343.2,385.6 343.2,457.7 319.1,457.7 "
   clip-path="url(#SVGID_00000156588127910109968910000002862754975638487453_)"
   id="polygon9" />
		<polygon
   style="fill:#ffffff"
   points="460.7,365 421,457.7 402.2,457.7 363,365 389.5,365 412,421.4 434.5,365 "
   clip-path="url(#SVGID_00000156588127910109968910000002862754975638487453_)"
   id="polygon10" />
	</g>
<path
   class="st2"
   d="m 205.5,159.40397 c 0,43.5811 35.71229,79.29338 80.20132,79.29338 44.18639,0 79.89868,-35.71228 79.89868,-79.29338 0,-44.18639 -35.71229,-80.201323 -79.89868,-80.201323 -44.48903,0 -80.20132,36.014933 -80.20132,80.201323"
   id="path9"
   style="fill:url(#SVGID_1_-6);stroke-width:3.02646"
   clip-path="url(#SVGID_00000062872398926580787560000007971013249055086996_)" /></svg>
