<?xml version="1.0" encoding="utf-8"?>
<!-- Generator: Adobe Illustrator 22.0.1, SVG Export Plug-In . SVG Version: 6.00 Build 0)  -->
<svg version="1.1" id="Layer_1" xmlns="http://www.w3.org/2000/svg" xmlns:xlink="http://www.w3.org/1999/xlink" x="0px" y="0px"
	 width="1000px" height="319.0681763px" viewBox="0 0 1000 319.0681763" enable-background="new 0 0 1000 319.0681763"
	 xml:space="preserve">
<g>
	<path fill="#82C759" d="M911.9230957,254.8182983c0,0,61.8432617-98.179245,69.3568726-112.4801178
		c7.5762329-14.3634796,11.8383789-29.3907623,11.8383789-45.143486c0-53.9519615-44.1656494-96.7909775-102.1263428-96.7909775
		c-54.7717896,0-95.9691772,38.0412292-100.7997437,87.8254776l-0.3468018,4.7669525h68.1574707l1.1676025-4.7669525
		c4.5463867-17.5523834,18.057251-19.099617,18.057251-19.099617s6.1879883-0.6628265,17.5215454-0.4422073
		c10.164917,0.2842102,17.3625488,3.4730988,23.2345581,11.7439728c3.5993042,5.019371,5.5241699,10.765152,5.5241699,16.9839706
		c0,8.7130814-1.0096436,15.9425201-10.4490967,31.4110413c-8.3970947,13.8596191-124.1296997,188.9093933-124.1296997,188.9093933
		H1000v-62.91745H911.9230957z"/>
	<path fill="#000101" d="M616.0702515,221.4245605c34.5681763,0,62.5379028-28.0333252,62.5379028-62.506073
		c0-34.5055161-27.9697266-62.4752579-62.5379028-62.4752579c-34.4736938,0-62.4434204,27.9697418-62.4434204,62.4752579
		C553.6268311,193.3912354,581.5965576,221.4245605,616.0702515,221.4245605 M536.6110229,158.9184875
		c0-43.8814316,35.6096191-79.4910126,79.4592285-79.4910126c43.9440918,0,79.5218506,35.609581,79.5218506,79.4910126
		c0,43.9122467-35.5777588,79.4910126-79.5218506,79.4910126
		C572.2206421,238.4095001,536.6110229,202.8307343,536.6110229,158.9184875 M425.9614258,158.9184875
		c9.8181152-1.2312469,26.2018738-12.5012207,31.9794312-19.6680298
		c-2.0202637,8.9028778-2.1782532,34.6635132,0.1888428,43.5336304
		C451.5322571,172.6509399,435.9057312,160.1805573,425.9614258,158.9184875 M368.7579346,74.7549286
		c12.53302,0,22.3511353,12.3441849,22.3511353,26.3916702c0,14.0484543-9.8181152,26.3916702-22.3511353,26.3916702h-42.9025879
		V74.7549286H368.7579346z M368.6317444,192.0029755c12.5012207,0,22.3511047,12.3432159,22.3511047,26.3598633
		c0,14.111084-9.849884,26.3916779-22.3511047,26.3916779H325.729126v-52.7515411H368.6317444z M616.0384521,319.0681458
		c87.5095215-0.0317688,158.6978149-72.7037659,158.6978149-160.2132416
		C774.7044678,69.5149384,703.5479736,0.0626688,616.0384521,0.0000471
		C528.6870117-0.063538,484.0165405,64.3057785,472.9989624,90.2552414
		c0.0944214-38.9872971-38.3562622-84.9834137-83.247345-85.0469971H244.976059v312.3126831l134.9892426,0.0317688
		c54.4249878,0,93.1280823-47.1637573,93.1916809-87.6038818
		C485.5955811,255.4252472,528.6870117,319.0999451,616.0384521,319.0681458 M227.3292694,317.6153259h-84.8581848V196.4221344
		H87.3832703v121.1931915H0.3159987L0,5.2400374h87.3832703v116.2056274h55.0878143V5.2400374h84.8581848V317.6153259z"/>
</g>
</svg>
