<?xml version="1.0" encoding="UTF-8" standalone="no"?>
<svg
   id="iconHboMovies"
   version="1.1"
   viewBox="0 0 1000 693.64215"
   xml:space="preserve"
   width="1000"
   height="693.64215"
   xmlns="http://www.w3.org/2000/svg"
   xmlns:svg="http://www.w3.org/2000/svg"><defs
     id="defs1"><style
       id="style1">
      .cls-1 {
        fill: #000;
        stroke-width: 0px;
      }
    </style></defs><polygon
     class="cls-1"
     points="25.3462,45.569307 25.3462,97.775077 39.96352,97.775077 39.96352,77.519491 49.168526,77.519491 49.168526,97.775077 63.349083,97.775077 63.349083,45.569307 49.168526,45.569307 49.168526,64.989517 39.96352,64.989517 39.96352,45.569307 "
     id="polygon1"
     transform="matrix(7.7166344,0,0,7.7166344,-195.58736,-344.90652)" /><path
     class="cls-1"
     d="M 794.7453,6.2665254e-5 C 682.00978,-0.08323733 624.40935,82.902723 610.17867,116.40016 610.31202,66.117903 560.75134,6.7629527 502.77907,6.7017827 H 316.00813 V 409.57691 l 174.13372,0.0333 c 70.20977,0 120.16458,-60.83184 120.25337,-112.99646 16.02418,32.83127 71.61456,115.01209 184.35008,114.97312 112.86336,-0.0444 204.71061,-93.82408 204.68299,-206.70396 C 999.40592,89.621053 907.60866,0.08334267 794.7453,5.2665254e-5 Z M 475.55008,315.75283 h -55.38494 v -68.08332 h 55.38494 c 16.11305,0 28.80576,15.91319 28.80576,34.04179 0,18.12843 -12.69271,34.04153 -28.80576,34.04153 z m 0.20553,-151.26904 H 420.365 V 96.400553 h 55.39061 c 16.11297,0 28.80568,15.907507 28.80568,34.036107 0,18.12843 -12.69271,34.04713 -28.80568,34.04713 z m 73.71899,40.47689 c 12.69263,-1.60464 33.84167,-16.11305 41.29294,-25.37441 -2.62064,11.48228 -2.82059,44.71887 0.23875,56.20115 -8.50073,-13.09252 -28.6392,-29.21108 -41.53169,-30.82674 z m 245.33729,102.55796 c -56.63976,0 -102.54678,-45.9126 -102.54678,-102.55796 0,-56.62866 45.90702,-102.54135 102.54678,-102.54135 56.63434,0 102.54703,45.91269 102.54703,102.54135 0,56.64536 -45.91269,102.55796 -102.54703,102.55796 z"
     id="path1" /><path
     class="cls-1"
     d="m 794.81189,124.35121 c -44.53019,0 -80.61498,36.09597 -80.61498,80.60947 0,44.53003 36.08479,80.62049 80.61498,80.62049 44.51901,0 80.60931,-36.09046 80.60931,-80.62049 0,-44.5135 -36.0903,-80.60947 -80.60931,-80.60947 z"
     id="path2" /><path
     class="cls-1"
     d="M 0.16088117,691.04373 H 31.343121 V 536.86522 c 19.34445,34.0695 34.64688,71.31473 52.83639,125.30606 h 34.935699 c 18.18951,-53.99133 33.49185,-91.23656 52.83639,-125.30606 v 154.17851 h 31.18215 V 503.66202 H 155.49432 C 135.5724,540.0413 119.11521,576.99781 101.79164,626.08099 84.179511,576.99781 67.722401,540.0413 47.800311,503.66202 H 0.16088117 Z M 333.9256,693.64217 c 53.7026,0 96.14505,-41.57609 96.14505,-96.43379 0,-54.28007 -42.15372,-96.43362 -96.14505,-96.43362 -55.14619,0 -96.14506,42.73102 -96.14506,96.72235 0,54.85754 42.73119,96.14506 96.14506,96.14506 z m -64.67417,-95.85632 c 0,-36.95667 27.42876,-67.56118 64.67417,-67.56118 36.95667,0 64.67409,30.02721 64.67409,67.27244 0,37.24558 -28.00616,66.69515 -64.67409,66.69515 -36.66794,0 -64.67417,-29.16101 -64.67417,-66.40641 z m 243.96605,93.25788 h 37.82279 c 28.29489,-57.16725 51.97036,-119.82045 71.026,-187.38171 H 588.86306 C 574.42684,560.54061 555.65986,612.22224 532.2732,663.03749 508.59799,612.22224 489.83092,560.54061 475.39461,503.66202 h -33.2032 c 19.0558,67.56126 42.73119,130.21446 71.02607,187.38171 z m 135.41143,0 h 31.18224 V 503.66202 h -31.18224 z m 77.37248,0 h 113.46845 v -29.44991 h -82.2863 V 610.2011 h 73.91334 v -28.87236 h -73.91334 v -48.21681 h 81.4201 V 503.66202 H 726.00139 Z m 205.85996,2.59844 c 36.09046,0 68.13865,-17.3234 68.13865,-55.1461 0,-66.11785 -101.63068,-49.94931 -101.63068,-86.03969 0,-15.01369 15.01369,-22.23171 34.35823,-22.23171 18.1896,0 34.35806,8.37279 44.46326,21.65424 l 21.07678,-20.78812 c -13.85858,-19.05581 -38.68874,-30.31603 -65.2513,-30.31603 -36.09064,0 -66.11768,17.03466 -66.11768,51.39272 0,64.67434 101.63067,45.0409 101.63067,88.34956 0,15.87989 -16.16845,23.67522 -37.2454,23.67522 -17.90087,0 -35.8019,-6.06309 -49.66065,-23.38649 l -21.65408,20.49948 c 16.16846,22.23172 39.55494,32.33692 71.8922,32.33692 z"
     id="path5"
     style="fill:#87b251;fill-opacity:1" /></svg>
