<?xml version="1.0" encoding="UTF-8" standalone="no"?>
<!-- Generator: Adobe Illustrator 23.1.0, SVG Export Plug-In . SVG Version: 6.00 Build 0)  -->

<svg
   xmlns:dc="http://purl.org/dc/elements/1.1/"
   xmlns:cc="http://creativecommons.org/ns#"
   xmlns:rdf="http://www.w3.org/1999/02/22-rdf-syntax-ns#"
   xmlns:svg="http://www.w3.org/2000/svg"
   xmlns="http://www.w3.org/2000/svg"
   xmlns:xlink="http://www.w3.org/1999/xlink"
   xmlns:sodipodi="http://sodipodi.sourceforge.net/DTD/sodipodi-0.dtd"
   xmlns:inkscape="http://www.inkscape.org/namespaces/inkscape"
   version="1.1"
   id="Layer_1"
   x="0px"
   y="0px"
   width="1000px"
   height="692.4039917px"
   viewBox="0 0 1000 692.4039917"
   enable-background="new 0 0 1000 692.4039917"
   xml:space="preserve"
   sodipodi:docname="HBO_Family_2014_(Stacked).svg"
   inkscape:version="0.92.3 (2405546, 2018-03-11)"><metadata
   id="metadata28"><rdf:RDF><cc:Work
       rdf:about=""><dc:format>image/svg+xml</dc:format><dc:type
         rdf:resource="http://purl.org/dc/dcmitype/StillImage" /></cc:Work></rdf:RDF></metadata><defs
   id="defs26"><linearGradient
     id="linearGradient3019"
     inkscape:collect="always"><stop
       id="stop3021"
       offset="0"
       style="stop-color:black;stop-opacity:1;" /><stop
       id="stop3023"
       offset="1"
       style="stop-color:black;stop-opacity:0;" /></linearGradient><linearGradient
     id="linearGradient3005"
     inkscape:collect="always"><stop
       id="stop3007"
       offset="0"
       style="stop-color:black;stop-opacity:1;" /><stop
       id="stop3009"
       offset="1"
       style="stop-color:#444240;stop-opacity:1" /></linearGradient><linearGradient
     gradientUnits="userSpaceOnUse"
     y2="763.48688"
     x2="520.00952"
     y1="661.93073"
     x1="520.00952"
     id="linearGradient3011"
     xlink:href="#linearGradient3005"
     inkscape:collect="always" /><linearGradient
     gradientUnits="userSpaceOnUse"
     y2="776.74878"
     x2="518.05798"
     y1="722.62531"
     x1="518.05798"
     id="linearGradient3025"
     xlink:href="#linearGradient3019"
     inkscape:collect="always" /><linearGradient
     gradientTransform="matrix(1.1004643,0,0,1.1004643,-104.39122,-59.384815)"
     y2="763.48688"
     x2="520.00952"
     y1="661.93073"
     x1="520.00952"
     gradientUnits="userSpaceOnUse"
     id="linearGradient3082"
     xlink:href="#linearGradient3005"
     inkscape:collect="always" /><linearGradient
     gradientTransform="matrix(0.17433051,0,0,0.17433051,-49.48734,-65.448825)"
     y2="776.74878"
     x2="518.05798"
     y1="722.62531"
     x1="518.05798"
     gradientUnits="userSpaceOnUse"
     id="linearGradient3114"
     xlink:href="#linearGradient3019"
     inkscape:collect="always" /><linearGradient
     gradientTransform="matrix(1.1730182,0,0,1.1730182,72.659966,-715.43335)"
     gradientUnits="userSpaceOnUse"
     y2="774.05383"
     x2="385"
     y1="810.05383"
     x1="385"
     id="linearGradient119"
     xlink:href="#linearGradient117"
     inkscape:collect="always" /><linearGradient
     id="linearGradient117"
     inkscape:collect="always"><stop
       id="stop113"
       offset="0"
       style="stop-color:#43413f;stop-opacity:1" /><stop
       id="stop115"
       offset="1"
       style="stop-color:#000000;stop-opacity:1" /></linearGradient></defs><sodipodi:namedview
   pagecolor="#ffffff"
   bordercolor="#666666"
   borderopacity="1"
   objecttolerance="10"
   gridtolerance="10"
   guidetolerance="10"
   inkscape:pageopacity="0"
   inkscape:pageshadow="2"
   inkscape:window-width="1366"
   inkscape:window-height="705"
   id="namedview24"
   showgrid="false"
   inkscape:zoom="0.34084148"
   inkscape:cx="134.72756"
   inkscape:cy="346.202"
   inkscape:window-x="-8"
   inkscape:window-y="-8"
   inkscape:window-maximized="1"
   inkscape:current-layer="Layer_1" />

<linearGradient
   id="SVGID_1_"
   gradientUnits="userSpaceOnUse"
   x1="1758.5272217"
   y1="-633.7751465"
   x2="1758.5272217"
   y2="-753.1257324"
   gradientTransform="matrix(0.43454 0 0 -0.43454 -264.1504211 -88.7566681)">
	<stop
   offset="0"
   style="stop-color:#000000"
   id="stop4" />
	<stop
   offset="1"
   style="stop-color:#000000;stop-opacity:0"
   id="stop6" />
</linearGradient>







<g
   id="g106"><g
     transform="matrix(11.886681,0,0,11.886681,-1145.0879,-200.35993)"
     id="g3133"><path
       inkscape:connector-curvature="0"
       id="path3085"
       style="font-style:normal;font-weight:bold;font-size:25.04999924px;font-family:'Gotham Bold';text-align:start;text-anchor:start;fill:#005aa9;fill-opacity:1"
       d="m 96.773518,59.171774 h 12.132502 v 3.18717 h -8.62717 v 3.391405 h 7.60253 v 3.187169 h -7.60253 v 6.168717 h -3.505332 z" /><path
       inkscape:connector-curvature="0"
       id="path3087"
       style="font-style:normal;font-weight:bold;font-size:25.04999924px;font-family:'Gotham Bold';text-align:start;text-anchor:start;fill:#019fe2;fill-opacity:1"
       d="m 119.35142,68.436658 -2.11668,-5.166995 -2.11737,5.166995 z m -3.68734,-9.378116 h 3.23232 l 6.82866,16.047693 h -3.66441 l -1.45743,-3.574105 h -6.73765 l -1.45674,3.574105 h -3.5741 z" /><path
       inkscape:connector-curvature="0"
       id="path3089"
       style="font-style:normal;font-weight:bold;font-size:25.04999924px;font-family:'Gotham Bold';text-align:start;text-anchor:start;fill:#8bc540;fill-opacity:1"
       d="m 127.80723,59.171774 h 3.77834 l 4.18819,6.73835 4.1889,-6.73835 h 3.77833 v 15.934461 h -3.4824 V 64.703472 l -4.48483,6.806429 h -0.091 l -4.43897,-6.73835 v 10.334684 h -3.43656 z" /><path
       inkscape:connector-curvature="0"
       id="path3091"
       style="font-style:normal;font-weight:bold;font-size:25.04999924px;font-family:'Gotham Bold';text-align:start;text-anchor:start;fill:#ffca05;fill-opacity:1"
       d="m 147.35075,59.171774 h 3.50533 v 15.934461 h -3.50533 z" /><path
       inkscape:connector-curvature="0"
       id="path3093"
       style="font-style:normal;font-weight:bold;font-size:25.04999924px;font-family:'Gotham Bold';text-align:start;text-anchor:start;fill:#f3801f;fill-opacity:1"
       d="m 154.57206,59.171774 h 3.50533 v 12.747291 h 7.94431 v 3.18717 h -11.44964 z" /><path
       inkscape:connector-curvature="0"
       id="path3095"
       style="font-style:normal;font-weight:bold;font-size:25.04999924px;font-family:'Gotham Bold';text-align:start;text-anchor:start;fill:#ee402f;fill-opacity:1"
       d="m 170.39503,68.823592 -6.12356,-9.651818 h 4.09719 l 3.80196,6.39657 3.86934,-6.39657 h 3.98396 l -6.12356,9.58374 v 6.350721 h -3.50533 z" /></g><path
     inkscape:connector-curvature="0"
     style="opacity:1;fill:url(#linearGradient119);fill-opacity:1;stroke-width:1.33709657"
     id="path9-4"
     d="M 293.41278,409.90566 H 183.89714 V 253.48814 h -71.0821 V 409.90566 H 0.3794657 L -3.43e-5,6.7368584 H 112.81545 V 156.69936 h 71.0821 V 6.7368584 h 109.51559 z m 501.78606,1.89818 C 908.13116,411.74524 1000.0334,317.94164 999.99996,204.98607 999.97129,89.658668 908.12447,0.0848884 795.19884,0.0015884 682.4132,-0.0865116 624.76457,82.940438 610.54783,116.46719 610.66478,66.148578 561.07585,6.7765984 503.07721,6.6882784 H 316.19287 V 409.75716 l 174.23427,0.0586 c 70.26539,0 120.23239,-60.86204 120.32067,-113.04891 16.03311,32.85506 71.66706,115.06392 184.45103,115.03552 z M 475.83043,247.79293 c 16.1206,0 28.82516,15.91633 28.82516,34.0519 0,18.1351 -12.70375,34.08178 -28.82516,34.08178 h -55.4003 v -68.13368 z m 0.20439,-151.335802 c 16.12061,0 28.82521,15.916232 28.82521,34.051792 0,18.13509 -12.70379,34.0519 -28.82521,34.0519 h -55.4003 V 96.457128 Z m 73.76875,108.610592 c 12.70391,-1.60633 33.84691,-16.12056 41.32357,-25.40675 -2.62836,11.50626 -2.83284,44.77012 0.23348,56.24694 -8.49837,-13.11258 -28.64847,-29.23362 -41.55688,-30.84019 z m 142.86579,0 c 0,-56.65528 45.93863,-102.59392 102.59395,-102.59392 56.68524,0 102.62386,45.93864 102.62386,102.59392 0,56.65537 -45.93862,102.59393 -102.62386,102.59393 -56.65532,0 -102.59395,-45.93856 -102.59395,-102.59393 z m 102.59395,80.66214 c 44.56521,0 80.66207,-36.12522 80.66207,-80.66214 0,-44.53693 -36.09686,-80.66215 -80.66207,-80.66215 -44.53697,0 -80.66217,36.12522 -80.66217,80.66215 0,44.53692 36.1252,80.66214 80.66217,80.66214" /></g></svg>