<?xml version="1.0" encoding="UTF-8" standalone="no"?>
<!-- Created with Inkscape (http://www.inkscape.org/) -->

<svg
   xmlns:dc="http://purl.org/dc/elements/1.1/"
   xmlns:cc="http://creativecommons.org/ns#"
   xmlns:rdf="http://www.w3.org/1999/02/22-rdf-syntax-ns#"
   xmlns:svg="http://www.w3.org/2000/svg"
   xmlns="http://www.w3.org/2000/svg"
   xmlns:sodipodi="http://sodipodi.sourceforge.net/DTD/sodipodi-0.dtd"
   xmlns:inkscape="http://www.inkscape.org/namespaces/inkscape"
   width="230.9408mm"
   height="160.27936mm"
   viewBox="0 0 230.9408 160.27936"
   version="1.1"
   id="svg1417"
   inkscape:version="0.92.5 (2060ec1f9f, 2020-04-08)"
   sodipodi:docname="HBO-LATINO-2025.svg">
  <defs
     id="defs1411" />
  <sodipodi:namedview
     id="base"
     pagecolor="#ffffff"
     bordercolor="#666666"
     borderopacity="1.0"
     inkscape:pageopacity="0.0"
     inkscape:pageshadow="2"
     inkscape:zoom="0.93303299"
     inkscape:cx="436.42354"
     inkscape:cy="302.89013"
     inkscape:document-units="mm"
     inkscape:current-layer="layer1"
     showgrid="false"
     inkscape:window-width="1920"
     inkscape:window-height="1009"
     inkscape:window-x="-8"
     inkscape:window-y="-8"
     inkscape:window-maximized="1" />
  <metadata
     id="metadata1414">
    <rdf:RDF>
      <cc:Work
         rdf:about="">
        <dc:format>image/svg+xml</dc:format>
        <dc:type
           rdf:resource="http://purl.org/dc/dcmitype/StillImage" />
        <dc:title></dc:title>
      </cc:Work>
    </rdf:RDF>
  </metadata>
  <g
     inkscape:label="Layer 1"
     inkscape:groupmode="layer"
     id="layer1"
     transform="translate(8.8811189,-64.913894)">
    <polygon
       transform="matrix(0.92380022,0,0,0.92380022,-59.690131,-21.230467)"
       points="128.36,94.93 100.98,94.93 100.98,132.42 83.22,132.42 83.22,94.93 55,94.93 55,195.7 83.22,195.7 83.22,156.6 100.98,156.6 100.98,195.7 128.36,195.7 "
       id="polygon2" />
    <path
       inkscape:connector-curvature="0"
       d="M 174.77034,64.913906 C 148.71918,64.896448 135.40724,84.073528 132.1185,91.814981 132.14643,80.193567 120.70032,66.484361 107.296,66.46589 H 64.136053 v 93.10059 h 40.240717 c 16.22195,0 27.76945,-14.05099 27.78792,-26.10661 3.70444,7.5844 16.54527,26.57776 42.59643,26.56851 26.07887,-0.0104 47.30781,-21.68159 47.29855,-47.7697 0,-26.633167 -21.21968,-47.326304 -47.29855,-47.344774 v 0 z m -73.7562,72.961744 H 88.219513 v -15.73231 h 12.794627 c 3.72292,0 6.66058,3.67672 6.66058,7.87078 0,4.19406 -2.92841,7.87078 -6.66058,7.87078 v 0 z m 0.0461,-34.9566 H 88.256383 V 87.186715 h 12.803857 c 3.72291,0 6.66058,3.676754 6.66058,7.861561 0,4.184806 -2.92846,7.870774 -6.66058,7.870774 z m 17.03488,9.34885 c 2.92841,-0.36951 7.82459,-3.72291 9.54284,-5.86611 -0.60969,2.65129 -0.65589,10.33733 0.0555,12.98862 -1.96769,-3.03005 -6.61443,-6.75297 -9.59829,-7.12251 z m 56.6936,23.70472 c -13.09024,0 -23.69548,-10.60524 -23.69548,-23.69547 0,-13.090262 10.60524,-23.695464 23.69548,-23.695464 13.09025,0 23.69549,10.605202 23.69549,23.695464 0,13.09023 -10.60524,23.69547 -23.69549,23.69547 z"
       id="path4"
       style="stroke-width:0.92380023" />
    <path
       inkscape:connector-curvature="0"
       d="m 174.78882,93.644087 c -10.29111,0 -18.63303,8.341923 -18.63303,18.623813 0,10.28189 8.34192,18.63306 18.63303,18.63306 10.29113,0 18.62381,-8.34192 18.62381,-18.63306 0,-10.29114 -8.34189,-18.623813 -18.62381,-18.623813 z"
       id="path6"
       style="stroke-width:0.92380023" />
    <path
       inkscape:connector-curvature="0"
       d="M -8.3083612,224.59278 H 17.844423 v -6.80841 H -1.1027194 v -36.49933 h -7.2056418 v 43.29852 0 z m 31.1597822,0 h 7.270305 c 0.868375,-3.067 1.736746,-6.06936 2.669783,-9.07173 h 20.083418 c 0.933038,3.00237 1.801409,6.00473 2.605117,9.07173 h 7.741445 C 58.888865,209.37782 53.678632,194.90184 47.479933,181.29427 h -8.877721 c -6.207938,13.60757 -11.408932,28.09277 -15.741556,43.29851 v 0 z m 12.138731,-15.80622 c 2.401882,-6.93773 5.006999,-13.60757 7.935445,-20.08341 2.873018,6.47584 5.4689,13.14568 7.806111,20.08341 z m 42.96595,15.80622 h 7.205642 v -36.49932 h 13.810804 v -6.80842 h -34.82726 v 6.80842 h 13.810814 z m 30.088168,0 h 7.20564 v -43.29851 h -7.20564 z m 20.55456,0 h 7.20564 v -31.88956 c 8.8777,9.60749 16.87781,20.41597 23.88945,31.88956 h 6.80842 v -43.29851 h -7.20565 v 29.69094 c -6.93773,-10.41122 -14.88242,-20.14808 -23.75091,-29.69094 h -6.93774 v 43.29851 0 z m 70.78155,0.60047 c 12.40666,0 22.21741,-9.6075 22.21741,-22.28205 0,-12.67454 -9.73687,-22.28207 -22.21741,-22.28207 -12.48054,0 -22.2174,9.87544 -22.2174,22.34672 0,12.47132 9.87545,22.2174 22.2174,22.2174 z m -14.93783,-22.14348 c 0,-8.53591 6.33725,-15.61223 14.94709,-15.61223 8.60979,0 14.94709,6.93774 14.94709,15.54756 0,8.60984 -6.47585,15.40899 -14.94709,15.40899 -8.47125,0 -14.94709,-6.73449 -14.94709,-15.34432 z"
       id="path12"
       style="stroke-width:0.92380023;fill:#939598;fill-opacity:1" />
  </g>
</svg>
