<?xml version="1.0" encoding="UTF-8" standalone="no"?>
<svg
   viewBox="0 0 1000 510.57544"
   version="1.1"
   id="svg4"
   width="1000"
   height="510.57544"
   xmlns="http://www.w3.org/2000/svg"
   xmlns:svg="http://www.w3.org/2000/svg">
  <defs
     id="defs2">
    <filter
       id="a"
       x="0"
       y="0"
       width="261"
       height="261"
       filterUnits="userSpaceOnUse">
      <feOffset
         dy="2"
         id="feOffset1" />
      <feGaussianBlur
         stdDeviation="7.5"
         result="blur"
         id="feGaussianBlur1" />
      <feFlood
         flood-opacity=".1"
         id="feFlood1" />
      <feComposite
         operator="in"
         in2="blur"
         id="feComposite1" />
      <feComposite
         in="SourceGraphic"
         id="feComposite2" />
    </filter>
  </defs>
  <g
     id="g10"
     transform="matrix(6.7145639,0,0,6.7145639,-376.28416,-607.53374)"
     style="fill:#000000;fill-opacity:1">
    <path
       d="m 190.57,126.59 -7.59,21.96 -7.59,-21.96 h -39.62 v 10.96 h 10.38 v 28.13 h 13.06 v -28.13 h 6.02 l 11.4,28.14 h 12.48 l 15.86,-39.1 z"
       id="path10"
       style="fill:#000000;fill-opacity:1" />
    <path
       d="m 96.12,146.23 v -0.11 c 0,-11.68 9.22,-20.38 21.54,-20.38 a 25.19,25.19 0 0 1 16.74,5.92 l -7.31,8.82 a 12.78,12.78 0 0 0 -8.66,-3.02 c -5.08,0 -8.4,3.53 -8.4,8.84 v 0.12 a 8.65,8.65 0 0 0 8.96,8.96 8.33,8.33 0 0 0 4.46,-1.1 v -2.61 h -6.71 v -9.1 h 18.91 v 18.08 a 28.2,28.2 0 0 1 -17.61,5.87 C 105.9,166.5 96.12,158.35 96.12,146.23"
       id="path9"
       style="fill:#000000;fill-opacity:1" />
    <path
       d="M 56.04,126.6 H 69.1 v 13.78 H 81.38 V 126.6 h 13.07 v 39.09 H 81.38 V 151.64 H 69.1 v 14.05 H 56.04 Z"
       id="path8"
       style="fill:#000000;fill-opacity:1" />
    <path
       d="M 159.1,123.93 107.57,90.48 56.04,123.93 Z"
       id="path2"
       style="fill:#000000;fill-opacity:1" />
  </g>
</svg>
