<?xml version="1.0" encoding="UTF-8" standalone="no"?>
<!-- Created with Inkscape (http://www.inkscape.org/) -->

<svg xmlns:dc="http://purl.org/dc/elements/1.1/" xmlns:cc="http://creativecommons.org/ns#" xmlns:rdf="http://www.w3.org/1999/02/22-rdf-syntax-ns#" xmlns:svg="http://www.w3.org/2000/svg" xmlns="http://www.w3.org/2000/svg" xmlns:sodipodi="http://sodipodi.sourceforge.net/DTD/sodipodi-0.dtd" xmlns:inkscape="http://www.inkscape.org/namespaces/inkscape" id="svg2985" version="1.1" inkscape:version="0.48.5 r10040" width="1000" height="616" sodipodi:docname="IFC_Logo.svg">
  <metadata id="metadata2991">
    <rdf:RDF>
      <cc:Work rdf:about="">
        <dc:format>image/svg+xml</dc:format>
        <dc:type rdf:resource="http://purl.org/dc/dcmitype/StillImage" />
        <dc:title></dc:title>
      </cc:Work>
    </rdf:RDF>
  </metadata>
  <defs id="defs2989" />
  <sodipodi:namedview pagecolor="#ffffff" bordercolor="#666666" borderopacity="1" objecttolerance="10" gridtolerance="10" guidetolerance="10" inkscape:pageopacity="0" inkscape:pageshadow="2" inkscape:window-width="1366" inkscape:window-height="706" id="namedview2987" showgrid="false" fit-margin-top="0" fit-margin-left="0" fit-margin-right="0" fit-margin-bottom="0" inkscape:zoom="0.13125011" inkscape:cx="4655.1977" inkscape:cy="1493.6911" inkscape:window-x="-8" inkscape:window-y="-8" inkscape:window-maximized="1" inkscape:current-layer="svg2985" />
  <g id="g3005" transform="scale(0.22373976,0.22377001)">
    <path id="path3003" d="M 337.48591,2751.395 C 332.46351,2749.5992 23.091614,2505.6352 14.378714,2496.5997 7.7479139,2489.7233 3.9066139,2482.8316 1.5163139,2473.523 0.14781386,2468.1935 -0.01258614,2371.0587 7.1385948e-4,1555.523 0.01371386,745.60681 0.18461386,642.76571 1.5257139,637.07611 c 4.4116,-18.7159 21.2621001,-35.2756 39.6976001,-39.0128 2.8944,-0.5868 154.887596,-25.41053 337.762596,-55.16394 363.8602,-59.19937 339.4833,-55.68927 352.6575,-50.78047 10.6774,3.97838 10.1901,3.60759 117.8425,89.67771 l 75,59.9639 0.5,-76.63869 c 0.4956,-75.96012 0.5195,-76.69042 2.7033,-82.47112 6.2317,-16.4964 18.8218,-28.6361 34.2967,-33.0701 3.025,-0.8668 289.67499,-48.4302 636.99999,-105.6965 442.6426,-72.982 633.8925,-104.1436 639.5,-104.198 9.3821,-0.091 19.518,2.636 26.6495,7.1697 3.536,2.2479 255.2763,202.3704 264.1825,210.0135 1.6518,1.4175 1.9173,1.4197 2.6993,0.022 0.4771,-0.8525 5.4593,-8.0101 11.0716,-15.9059 12.8203,-18.0364 29.4408,-38.7615 48.1192,-60.0026 148.9461,-169.3811 346.3783,-287.267002 580.2779,-346.481602 160.4373,-40.6166995 306.0478,-45.3278 443.941,-14.3634 108.2772,24.314 210.1394,72.1092 293.1922,137.570002 6.1233,4.8262 20.2983,15.9572 31.5,24.7355 264.2297,207.0645 386.0479,310.66535 422.1738,359.03948 7.4661,9.99752 8.9356,13.45339 8.9397,21.02405 0,7.29201 -2.986,14.89288 -7.5632,19.22668 -8.3209,7.8786 -523.7544,414.8336 -527.6835,416.627 -6.1312,2.79849 -15.9161,2.78639 -22,-0.027 -2.475,-1.1446 -12.6,-8.5046 -22.5,-16.3557 -21.2837,-16.8786 -31.4833,-23.7818 -46.1557,-31.2387 -35.3989,-17.9905 -73.6108,-25.4689 -116.2931,-22.7595 -48.3065,3.0664 -85.5997,12.8074 -126.5512,33.0551 -36.5712,18.082 -66.2418,39.56919 -96.5231,69.90089 -51.5003,51.5861 -88.662,117.2907 -105.0849,185.7977 -2.969,12.385 -9.9584,51.3952 -9.3346,52.1 0.5974,0.6751 30.9459,-8.0316 41.891,-12.0182 25.1021,-9.1429 52.662,-24.1898 74.7204,-40.7952 31.0568,-23.3794 56.1426,-49.6557 87.3896,-91.537 7.7966,-10.45 16.4974,-21.1668 19.3353,-23.815 10.2017,-9.5203 24.8551,-14.0154 38.681,-11.866 4.0583,0.631 19.4267,4.7248 34.152,9.0976 14.7253,4.3727 78.0733,23.0876 140.7733,41.5887 322.1366,95.0541 387.6309,114.5669 393.8523,117.3412 2.2812,1.0172 6.3706,3.5552 9.0876,5.6398 2.7169,2.0847 79.0743,66.5217 169.6831,143.1934 184.1357,155.8127 168.8085,141.6721 167.5608,154.5887 -0.9463,9.7971 -3.9784,17.2684 -19.1679,47.2316 -25.6328,50.5638 -47.8921,88.9331 -75.9974,131 -47.5853,71.224 -95.6523,129.6932 -157.4783,191.5583 -37.108,37.1315 -66.792,63.8056 -103.9859,93.4422 -126.7169,100.9694 -267.7947,172.6279 -414.4389,210.5086 -91.695,23.6864 -186.9669,35.2844 -276.6154,33.6741 -88.6527,-1.5925 -162.6463,-13.7047 -240.5,-39.3682 -38.4854,-12.6863 -66.5046,-24.805 -121,-52.3344 -180.9334,-91.4021 -351.4156,-206.5257 -466.7124,-315.1626 l -13.7124,-12.9204 -0.2876,71.8012 -0.2876,71.8012 -2.8011,5.7041 c -3.0801,6.2723 -7.0864,10.1806 -13.1989,12.8762 -2.4884,1.0973 -109.4349,19.0028 -283,47.3811 -153.45,25.0894 -280.876,46.2977 -283.1689,47.1296 -2.2929,0.8318 -4.9929,2.7267 -6,4.2107 -1.7532,2.5835 -1.8524,10.294 -2.3311,181.1983 l -0.5,178.5 -2.1523,4.6563 c -2.7349,5.9166 -9.2554,12.2722 -14.656,14.2853 -4.6768,1.7433 -622.3524,101.5584 -628.4634,101.5584 -8.6306,0 -10.9561,-1.6273 -77.7283,-54.3896 l -65,-51.3619 -0.5,57.6257 c -0.3784,43.6154 -0.81,58.3262 -1.7749,60.5064 -3.2388,7.3179 -10.3374,13.7753 -17.1292,15.5817 -3.1398,0.8351 -182.23129,30.1731 -604.59589,99.0421 -256.007,41.7435 -230.7772,37.99 -238,35.4075 z" style="fill:black" inkscape:connector-curvature="0" />
    <path id="path3001" d="m 387.36921,2411.4875 c 173.3142,-28.3226 317.0983,-52.2362 319.5203,-53.1413 5.9764,-2.2336 11.9281,-7.8299 14.7435,-13.8631 l 2.3333,-5 -0.012,-893.5 -0.012,-893.50002 -2.0346,-4.5 c -4.3557,-9.63365 -13.8423,-15.97234 -23.9312,-15.99023 -5.3623,-0.01 -629.914996,101.89426 -637.090096,103.94946 -6.0313,1.7275 -12.4352,7.3933 -15.5685,13.7742 l -2.8316,5.7666 0,893.49999 c 0,828.8067 0.1197,893.7635 1.6528,897.1396 4.4436,9.7848 14.22,16.5529 24.2305,16.7744 2.1359,0.047 145.685896,-23.087 318.999996,-51.4096 z" style="fill:white" inkscape:connector-curvature="0" />
    <path id="path2999" d="m 1032.6304,2306.0245 c 164.741,-26.6343 575.66,-94.0669 579.5635,-95.1074 5.5121,-1.4694 11.6905,-6.7303 15.1897,-12.934 l 3.1023,-5.5 0.5,-174.5442 c 0.471,-164.4164 0.6021,-174.7 2.2594,-177.2292 0.9677,-1.4767 2.9932,-3.323 4.5011,-4.1027 3.1506,-1.6293 -2.9563,-0.6085 275.2883,-46.0171 162.6538,-26.5445 211.4781,-34.835 214.6344,-36.4452 5.4721,-2.7916 10.19,-7.6658 12.7287,-13.1504 l 2.0881,-4.5112 0,-276.5 0,-276.5 -2.7008,-5.1197 c -4.5974,-8.7148 -13.5016,-14.4512 -22.5728,-14.5421 -2.5995,-0.026 -10.5764,0.9179 -17.7264,2.0977 -7.15,1.1798 -56.875,9.3085 -110.5,18.0638 -53.625,8.7553 -152.5198,24.9371 -219.7663,35.9595 -67.2465,11.0224 -123.6313,20.0408 -125.2997,20.0408 -4.2584,0 -8.6821,-2.5389 -10.9745,-6.2985 -1.9075,-3.1285 -1.9521,-5.9536 -1.9558,-123.9167 l 0,-120.71519 3.0927,-3.5225 c 1.7011,-1.9373 4.7386,-4.004 6.75,-4.5925 2.0115,-0.5885 129.6925,-21.6955 283.7355,-46.9044 212.7751,-34.8203 281.0334,-46.3216 284.0529,-47.8621 5.3321,-2.7202 10.1634,-7.7196 12.7447,-13.1881 l 2.1242,-4.5 0,-281 0,-281.00001 -2.2022,-4.1165 c -5.4351,-10.1595 -13.8167,-15.5977 -24.0216,-15.5858 -5.9164,0.01 -1208.17899,196.3699 -1213.99159,198.2787 -4.9987,1.6415 -12.7333,9.21462 -15.151,14.83469 l -2.1381,4.96998 0.2523,894.30943 c 0.2406,853.1686 0.3336,894.4584 2.0209,897.546 4.9934,9.1374 14.1385,15.2354 22.8757,15.2537 2.5545,0.01 21.22949,-2.6716 41.50009,-5.9488 z" style="fill:white" inkscape:connector-curvature="0" />
    <path id="path2995" d="m 3152.9859,1984.5713 c 166.9778,-14.3471 314.6906,-59.734 454.4092,-139.6236 187.5452,-107.2364 345.8879,-268.5146 452.6674,-461.0595 14.2098,-25.6232 27.5855,-52.7827 30.9704,-62.8859 5.52,-16.4762 3.4067,-27.5908 -6.1963,-32.5878 -5.2057,-2.7089 -56.4098,-18.0515 -326.8507,-97.9363 -84.975,-25.1006 -164.175,-48.5716 -176,-52.158 -34.0166,-10.3167 -37.7004,-9.6934 -51.2356,8.6687 -13.4914,18.3027 -27.398,36.1862 -35.7661,45.9942 -11.2965,13.2403 -33.5202,35.6521 -45.9064,46.2953 -51.3672,44.1382 -111.7504,70.0225 -184.0919,78.9141 -13.7112,1.6853 -55.3965,1.6764 -69,-0.015 -74.1197,-9.2141 -133.3906,-44.4787 -170.3932,-101.3794 -7.2693,-11.1783 -18.4926,-34.4008 -23.1088,-47.8153 -19.68,-57.1884 -20.0724,-125.0962 -1.1048,-191.18259 29.8123,-103.871 106.9064,-198.2728 199.6068,-244.4185 33.3685,-16.6106 63.0906,-25.4307 104.5,-31.0105 16.1735,-2.1794 54.6361,-2.5042 68,-0.5743 47.3095,6.8319 82.6475,23.5395 122,57.6808 14.9967,13.0108 22.0877,15.8053 32.9355,12.9799 9.0454,-2.3561 -4.2462,8.2342 146.0645,-116.3788 83.5787,-69.2897 282.9286,-234.78801 322.877,-268.04921 17.9437,-14.94 27.8181,-23.8618 29.7082,-26.8423 3.8847,-6.1254 4.644,-12.1273 2.5494,-20.1516 -2.3174,-8.8776 -6.8763,-16.6132 -19.301,-32.7502 -82.6265,-107.313 -194.9494,-186.5964 -326.3336,-230.343202 -141.8143,-47.2196 -299.1951,-52.0397 -468,-14.3333 C 3046.9681,101.3629 2896.1376,169.4757 2767.8394,265.9852 c -127.2849,95.7474 -229.5361,218.4098 -300.7542,360.79051 -70.2575,140.4603 -108.2941,288.7961 -119.2895,465.20739 -1.6908,27.1268 -1.6855,126.9869 0.01,152.5 7.9324,119.5048 27.8235,214.8635 63.7645,305.6908 65.1116,164.5449 176.49,288.552 324.9177,361.7586 45.1908,22.2887 89.7445,38.6074 139.5,51.0947 50.6974,12.7236 93.5644,19.0177 159,23.3456 15.041,0.9948 100.6703,-0.3125 118,-1.8015 z" style="fill:white" inkscape:connector-curvature="0" />
  </g>
</svg>
