<?xml version="1.0" encoding="UTF-8" standalone="no"?>
<svg
   xmlns:dc="http://purl.org/dc/elements/1.1/"
   xmlns:cc="http://creativecommons.org/ns#"
   xmlns:rdf="http://www.w3.org/1999/02/22-rdf-syntax-ns#"
   xmlns:svg="http://www.w3.org/2000/svg"
   xmlns="http://www.w3.org/2000/svg"
   xmlns:sodipodi="http://sodipodi.sourceforge.net/DTD/sodipodi-0.dtd"
   xmlns:inkscape="http://www.inkscape.org/namespaces/inkscape"
   version="1.1"
   id="Layer_1"
   x="0px"
   y="0px"
   viewBox="0 0 1000 570.00001"
   xml:space="preserve"
   inkscape:version="1.0.1 (3bc2e813f5, 2020-09-07)"
   width="1000"
   height="570"
   sodipodi:docname="Ion Television (2021).svg"><metadata
   id="metadata44"><rdf:RDF><cc:Work
       rdf:about=""><dc:format>image/svg+xml</dc:format><dc:type
         rdf:resource="http://purl.org/dc/dcmitype/StillImage" /><dc:title>Ion (US, 2021)</dc:title></cc:Work></rdf:RDF></metadata><defs
   id="defs42" /><sodipodi:namedview
   pagecolor="#ffffff"
   bordercolor="#666666"
   borderopacity="1"
   objecttolerance="10"
   gridtolerance="10"
   guidetolerance="10"
   inkscape:pageopacity="0"
   inkscape:pageshadow="2"
   inkscape:window-width="1920"
   inkscape:window-height="1017"
   id="namedview40"
   showgrid="true"
   fit-margin-top="0"
   fit-margin-left="0"
   fit-margin-right="0"
   fit-margin-bottom="0"
   inkscape:zoom="0.5"
   inkscape:cx="162.83044"
   inkscape:cy="325.2179"
   inkscape:window-x="-8"
   inkscape:window-y="-8"
   inkscape:window-maximized="1"
   inkscape:current-layer="New_Logo"
   inkscape:document-rotation="0"><inkscape:grid
     type="xygrid"
     id="grid3855"
     empspacing="5"
     visible="true"
     enabled="true"
     snapvisiblegridlinesonly="true"
     originx="-0.3901594"
     originy="-5.1101001e-05"
     spacingx="1.0666667"
     spacingy="1.0666667" /></sodipodi:namedview>
<style
   type="text/css"
   id="style3">
	.st0{fill:none;}
	.st1{fill:#FFFFFF;}
</style>
<title
   id="title5">Ion (US, 2021)</title>

<g
   id="IONTV"
   style="fill:#000000"
   transform="matrix(1.8288222,0,0,1.8288222,-127.83468,-364.7604)">
	<g
   id="New_Logo"
   style="fill:#000000">
		<path
   class="st1"
   d="m 270.84902,289.67299 c -61.19646,0 -110.72701,49.53055 -110.72701,110.72701 0,61.19645 49.53055,110.72699 110.72701,110.72699 61.19644,0 110.72699,-49.53054 110.72699,-110.72699 v 0 C 381.47724,339.30241 331.94659,289.77185 270.84902,289.67299 Z m 0,164.90415 c -29.85674,0 -54.17716,-24.22154 -54.17716,-54.17714 0,-29.9556 24.22156,-54.17715 54.17716,-54.17715 29.9556,0 54.17712,24.22155 54.17712,54.17715 0,29.9556 -24.32036,54.17714 -54.17712,54.17714 0,0 0,0 0,0 z"
   id="path12"
   style="fill:#000000;stroke-width:0.988268"
   inkscape:connector-curvature="0" />
		<path
   class="st1"
   d="M 124.22527,290.76659 H 78.375626 c -4.697297,0 -8.475426,3.74864 -8.47543,8.40911 l -1.92e-4,203.54133 c -4e-6,4.66047 3.77826,8.40912 8.475555,8.40912 h 45.849701 c 4.69729,0 8.47555,-3.74865 8.47555,-8.40912 l -1.2e-4,-203.54132 c 0.10211,-4.66047 -3.77814,-8.40912 -8.47542,-8.40912 z"
   id="path14"
   style="fill:#000000;stroke-width:1.01676"
   inkscape:connector-curvature="0"
   sodipodi:nodetypes="ssssssscs" />
		
		
		
		
		
		
		
		
		
		
		<path
   class="st1"
   d="M 123.14868,199.45099 H 78.207663 c -4.604209,0 -8.307471,3.79241 -8.307471,8.28341 v 44.9102 c 0,4.59081 3.803353,8.28331 8.307471,8.28331 h 44.941017 c 4.60421,0 8.30748,-3.6926 8.30748,-8.28342 V 207.7344 c 0.10009,-4.491 -3.70327,-8.28341 -8.30748,-8.28341 z"
   id="path36"
   style="fill:#000000;stroke-width:0.999087"
   inkscape:connector-curvature="0"
   sodipodi:nodetypes="ssssssscs" />
		<path
   class="st1"
   d="m 512.2202,287.48579 c -57.40859,0 -104.17854,45.74211 -104.17854,102.03229 V 502.707 c 0,4.66551 3.81386,8.41818 8.33028,8.41818 h 45.46519 c 4.41606,0 8.02916,-3.4484 8.33028,-7.91105 V 393.27079 c 0,-22.61751 18.86856,-40.97521 42.05279,-40.97521 23.18423,0 42.0528,18.3577 42.0528,40.97521 v 109.94334 c 0.3011,4.46265 3.91423,7.91105 8.33026,7.91105 h 45.76629 c 4.61677,0 8.33029,-3.75267 8.33029,-8.41818 V 389.61952 C 616.8002,333.32934 569.92988,287.48579 512.2202,287.48579 Z"
   id="path38"
   style="fill:#000000;stroke-width:1.00855"
   inkscape:connector-curvature="0" />
	</g>
</g>
</svg>
