<?xml version="1.0" encoding="UTF-8" standalone="no"?>
<!-- Generator: Adobe Illustrator 16.0.0, SVG Export Plug-In . SVG Version: 6.00 Build 0)  -->

<svg
   xmlns:dc="http://purl.org/dc/elements/1.1/"
   xmlns:cc="http://creativecommons.org/ns#"
   xmlns:rdf="http://www.w3.org/1999/02/22-rdf-syntax-ns#"
   xmlns:svg="http://www.w3.org/2000/svg"
   xmlns="http://www.w3.org/2000/svg"
   xmlns:sodipodi="http://sodipodi.sourceforge.net/DTD/sodipodi-0.dtd"
   xmlns:inkscape="http://www.inkscape.org/namespaces/inkscape"
   version="1.1"
   id="Layer_1"
   x="0px"
   y="0px"
   width="969.68298"
   height="1000"
   viewBox="0 0 969.68301 1000"
   enable-background="new 0 0 969.686 1000"
   xml:space="preserve"
   sodipodi:docname="Logo TV Logo 2015.svg"
   inkscape:version="0.92.2 (5c3e80d, 2017-08-06)"><metadata
     id="metadata35280"><rdf:RDF><cc:Work
         rdf:about=""><dc:format>image/svg+xml</dc:format><dc:type
           rdf:resource="http://purl.org/dc/dcmitype/StillImage" /><dc:title></dc:title></cc:Work></rdf:RDF></metadata><defs
     id="defs35278" /><sodipodi:namedview
     pagecolor="#ffffff"
     bordercolor="#666666"
     borderopacity="1"
     objecttolerance="10"
     gridtolerance="10"
     guidetolerance="10"
     inkscape:pageopacity="0"
     inkscape:pageshadow="2"
     inkscape:window-width="1366"
     inkscape:window-height="705"
     id="namedview35276"
     showgrid="false"
     inkscape:zoom="0.39103005"
     inkscape:cx="321.73236"
     inkscape:cy="474.3367"
     inkscape:window-x="-8"
     inkscape:window-y="-8"
     inkscape:window-maximized="1"
     inkscape:current-layer="Layer_1" /><g
     id="g35273"
     transform="translate(-0.00370441,-0.00172603)"><path
       d="m 105.869,4.592 c 23.227,-6.018 48.156,-6.279 71.348,0.155 9.02,2.386 17.701,7.489 22.683,15.567 5.818,10.258 4.658,23.1 0.897,33.872 -12.392,37.705 -23.225,75.909 -31.965,114.621 C 150.14,252.718 133.198,337 118.53,421.701 c -5.201,33.344 -11.298,66.611 -14.112,100.262 -0.434,8.265 -0.713,16.557 0.016,24.821 14.744,-8.943 28.393,-19.561 42.487,-29.467 35.482,-26.204 70.467,-53.113 104.35,-81.352 2.307,-1.794 4.256,-3.99 5.695,-6.531 -5.74,-5.815 -10.475,-12.486 -15.799,-18.657 -3.572,-4.117 -8.478,-7.505 -9.901,-13.045 -1.115,-5.168 2.507,-9.609 5.569,-13.323 10.274,-11.387 22.669,-21.12 30.437,-34.567 9.609,-16.261 21.491,-30.992 32.973,-45.925 15.488,-19.463 39.672,-32.723 64.877,-31.997 13.131,-0.218 26.539,3.901 37.928,10.438 20.381,11.7 28.972,25.831 35.785,49.813 34.503,-9.917 68.904,-21.275 102.821,-33.049 14.326,-4.842 28.593,-9.948 42.519,-15.89 6.545,-2.754 14.468,-3.344 20.607,0.757 10.217,6.979 14.768,19.189 23.432,27.635 8.213,6.374 19.292,2.399 28.746,4.009 4.534,0.897 7.196,5.414 7.549,9.765 0.452,5.721 0.11,11.523 -0.974,17.174 -4.051,21.415 -5.061,43.247 -6.671,64.94 5.945,-3.961 11.375,-8.636 17.099,-12.905 11.548,-8.48 20.612,-19.715 30.64,-29.816 9.254,-9.348 18.66,-18.571 28.782,-26.97 9.774,-8.294 18.797,-17.58 29.702,-24.434 8.081,-5.011 16.235,-10.209 25.426,-12.934 16.215,-4.935 34.938,-2.415 48.4,8.215 14.188,10.956 22.154,27.961 26.368,44.997 7.238,28.503 3.014,58.627 -5.897,86.231 -7.261,20.888 -18.787,40.138 -33.039,56.983 -15.703,19.313 -38.125,33.702 -63.035,37.063 -16.909,2.409 -35.68,1.794 -50.242,-8.233 -14.094,-9.238 -21.164,-25.315 -27.683,-40.198 -8.181,-18.15 -12.142,-37.939 -12.994,-57.746 -5.461,1.223 -10.322,4.024 -14.915,7.089 -4.908,31.981 -7.844,64.209 -11.884,96.316 -4.44,35.017 -7.724,70.138 -12.348,105.139 -8.449,66.455 -17.082,133.101 -32.817,198.304 -6.607,25.652 -14.141,51.398 -27.33,74.547 -15.283,27.635 -31.918,55.997 -57.681,75.184 -16.093,12.1 -37.165,18.676 -57.172,14.299 -16.711,-3.73 -33.515,-11.484 -43.926,-25.563 -14.793,-19.329 -24.418,-41.93 -33.099,-64.493 -8.912,-24.385 -16.108,-49.421 -20.749,-74.983 -3.248,-17.467 -3.574,-35.695 0.821,-52.993 7.875,-33.249 24.384,-63.594 41.79,-92.713 31.166,-50.167 67.65,-96.769 105.422,-142.091 26.999,-32.66 55.424,-64.099 83.412,-95.867 3.451,-17.624 5.881,-35.479 7.875,-53.319 -9.559,16.774 -22.59,36.497 -34.254,51.43 -15.304,20.099 -36.026,36.487 -59.868,45.152 -21.699,7.476 -53.706,4.482 -55.857,-23.658 -1.3,-16.48 1.533,-33.052 6.329,-48.787 5.911,-16.99 12.718,-33.762 22.156,-49.126 4.706,-8.389 10.911,-15.162 16.109,-23.222 -7.904,4.835 -45.291,19.107 -51.23,22.632 -0.281,18.963 -2.536,41.067 -6.721,62.726 -5.671,29.353 -16.701,57.901 -35.908,76.744 -15.144,16.508 -39.409,31.244 -63.281,33.737 -15.598,1.631 -31.031,-1.962 -43.639,-13.699 -16.74,-14.22 -20.346,-37.1 -27.959,-56.521 -46.064,37.534 -90.855,76.575 -134.628,116.742 -14.486,12.783 -28.472,26.12 -43.31,38.483 -10.351,7.055 -23.658,4.809 -34.814,1.157 C 33.662,624.224 17.616,613.781 6.429,599.093 1.555,592.228 -2.343,582.895 1.665,574.725 4.958,568.907 10.979,565.193 13.994,559.158 26.141,537.126 32.113,512.447 38.767,488.373 57.383,412.974 68.846,336.057 79.184,259.156 84.306,214.809 89.722,170.434 92.676,125.887 95.215,91.891 98.292,57.883 99.157,23.782 99.109,17.079 97.315,6.852 105.869,4.592 Z M 326.5,358.789 c 5.787,1.005 11.343,-1.334 16.851,-2.696 19.667,-5.477 41.816,-10.164 60.787,-17.884 -2.167,-14.157 -8.793,-30.111 -24.963,-27.009 -8.188,1.57 -16.698,8.154 -22.771,13.407 -12.298,10.64 -24.114,24.694 -29.904,34.182 z m 218.743,2.846 c -22.175,18.628 -35.622,45.193 -45.833,71.779 -5.298,12.766 -3.799,36.321 15.119,30.339 11.106,-3.417 19.976,-11.587 27.493,-20.159 13.994,-16.617 27.994,-38.342 36.316,-61.147 5.393,-14.783 8.401,-30.024 7.471,-44.61 -14.509,5.99 -28.587,13.523 -40.566,23.798 z m 247.661,-7.365 c -3.341,0.989 -6.345,2.799 -9.375,4.485 -12.427,6.994 -25.163,13.57 -36.795,21.88 -8.775,6.437 -11.405,18.042 -11.284,28.377 -0.495,25.392 -0.711,52.114 10.526,75.539 3.557,7.814 10.532,15.843 19.897,15.396 12.499,-0.542 24.168,-7.736 31.438,-17.763 15.178,-17.406 25.947,-39.299 26.926,-62.649 2.751,-19.991 -2.058,-40.708 -12.689,-57.793 -3.929,-6.02 -11.573,-9.624 -18.644,-7.472 z m -466.93,50.61 c -2.428,15.661 -2.181,36.857 -1.254,55.3 0.852,9.735 1.007,19.575 3.422,29.105 1.563,6.269 3.714,13.103 9.144,17.111 3.977,3.077 9.314,2.63 14.033,2.383 10.569,-1.389 19.389,-8.465 25.949,-16.49 17.203,-21.906 24.484,-50.028 28.648,-77.174 1.636,-10.664 2.875,-22.93 1.849,-35.627 -27.449,7.581 -56.391,16.595 -81.791,25.392 z m 256.652,88.724 c -33.964,50.065 -69.133,99.35 -101.706,150.348 -14.73,23.564 -28.951,47.596 -39.47,73.39 -11.313,28.22 -15.938,59.153 -12.566,89.403 0.884,21.26 3.575,42.393 6.932,63.389 2.909,16.898 6.205,33.844 12.255,49.937 4.133,11.4 9.267,22.99 18.276,31.438 3.493,3.341 8.167,6.161 13.197,5.787 9.007,-1.515 15.178,-9.006 20.191,-15.998 9.485,-14.283 15.829,-30.345 21.633,-46.375 10.832,-31.271 18.523,-63.515 25.341,-95.854 19.034,-91.986 29.635,-185.398 38.794,-278.795 0.742,-10.658 2.384,-21.259 2.058,-31.979 -1.952,1.5 -3.587,3.266 -4.935,5.309 z"
       id="path35269"
       inkscape:connector-curvature="0"
       style="clip-rule:evenodd;fill-rule:evenodd" /><path
       d="m 904.219,411.192 c 5.119,-2.32 10.985,-1.344 16.462,-1.575 6.671,-0.358 12.379,3.527 18.365,5.848 7.134,3.001 15.52,5.276 19.808,12.315 6.839,12.163 11.432,25.965 10.769,40.046 -0.215,13.491 -5.603,28.485 -18.134,35.183 -11.453,7.317 -25.763,8.822 -38.931,6.281 -16.803,-2.457 -32.865,-13.736 -38.715,-30.014 -8.186,-26.057 6.281,-56.044 30.376,-68.084 z"
       id="path35271"
       inkscape:connector-curvature="0"
       style="clip-rule:evenodd;fill-rule:evenodd;fill:#80e5ff;fill-opacity:1" /></g></svg>