<?xml version="1.0" encoding="UTF-8" standalone="no"?>
<svg
   id="Layer_1"
   data-name="Layer 1"
   viewBox="0 0 1000 316.5625"
   version="1.1"
   sodipodi:docname="MeTV.svg"
   width="1000"
   height="316.5625"
   inkscape:version="1.3 (0e150ed6c4, 2023-07-21)"
   xml:space="preserve"
   xmlns:inkscape="http://www.inkscape.org/namespaces/inkscape"
   xmlns:sodipodi="http://sodipodi.sourceforge.net/DTD/sodipodi-0.dtd"
   xmlns="http://www.w3.org/2000/svg"
   xmlns:svg="http://www.w3.org/2000/svg"><sodipodi:namedview
     id="namedview20"
     pagecolor="#ffffff"
     bordercolor="#999999"
     borderopacity="1"
     inkscape:showpageshadow="2"
     inkscape:pageopacity="0"
     inkscape:pagecheckerboard="0"
     inkscape:deskcolor="#d1d1d1"
     inkscape:zoom="0.69456134"
     inkscape:cx="334.02377"
     inkscape:cy="69.828246"
     inkscape:window-width="1920"
     inkscape:window-height="991"
     inkscape:window-x="-9"
     inkscape:window-y="-9"
     inkscape:window-maximized="1"
     inkscape:current-layer="Layer_1" /><defs
     id="defs5"><style
       id="style1">.cls-1{fill:#fed96c;}.cls-2{fill:#020305;}.cls-3{fill:#fff;}.cls-4{opacity:0.5;}.cls-5{fill:url(#linear-gradient);}.cls-6{fill:url(#linear-gradient-2);}</style><linearGradient
       id="linear-gradient"
       x1="7019.0098"
       y1="-7038.5601"
       x2="7018.7202"
       y2="-7024.7598"
       gradientTransform="matrix(6.5854462,0,0,-6.5854462,-45723.214,-46183.273)"
       gradientUnits="userSpaceOnUse"><stop
         offset="0"
         stop-color="#f7fbff"
         stop-opacity="0.4"
         id="stop1"
         style="stop-color:#f7fbff;stop-opacity:0.34;" /><stop
         offset="1"
         stop-color="#fff"
         stop-opacity="0.1"
         id="stop2" /></linearGradient><linearGradient
       id="linear-gradient-2"
       x1="7019.04"
       y1="-7012.9502"
       x2="7019.04"
       y2="-7018.9502"
       gradientTransform="matrix(6.5854462,0,0,-6.5854462,-45723.214,-46183.273)"
       gradientUnits="userSpaceOnUse"><stop
         offset="0"
         stop-color="#f7fbff"
         stop-opacity="0.6"
         id="stop3" /><stop
         offset="0.67"
         stop-color="#fff"
         stop-opacity="0.03"
         id="stop4" /><stop
         offset="1"
         stop-color="#fff"
         stop-opacity="0"
         id="stop5" /></linearGradient></defs><title
     id="title5">metv_kaza_logo</title><rect
     class="cls-1"
     x="0.32927245"
     y="0.46108598"
     width="999.20972"
     height="316.10141"
     rx="36.417519"
     ry="36.417519"
     id="rect5"
     style="stroke-width:6.58545" /><path
     class="cls-2"
     d="M 362.19954,275.14004 H 234.63945 v -13.17089 q 5.66348,-0.52683 13.89529,-1.64636 a 48.732302,48.732302 0 0 0 11.19526,-2.43662 17.846559,17.846559 0 0 0 8.82449,-6.58544 20.678301,20.678301 0 0 0 2.63418,-10.93184 V 64.735042 L 190.31939,271.32048 h -20.94171 q -1.51466,-5.46592 -7.3757,-21.66611 -5.86105,-16.2002 -9.5489,-26.34179 L 92.85479,62.035009 V 205.00504 a 133.22358,133.22358 0 0 0 2.70003,31.21502 28.580836,28.580836 0 0 0 8.89036,15.6075 43.134672,43.134672 0 0 0 14.7514,6.58545 107.07935,107.07935 0 0 0 14.94896,3.622 V 275.2059 H 32.92723 v -13.17089 c 2.76589,0 7.30985,-1.11953 13.56602,-2.23906 a 37.602898,37.602898 0 0 0 15.34409,-5.9269 23.971024,23.971024 0 0 0 8.95621,-15.60751 160.75074,160.75074 0 0 0 2.17319,-31.34672 V 90.41828 A 50.1811,50.1811 0 0 0 70.33257,72.769285 25.024695,25.024695 0 0 0 62.36418,61.574028 33.783339,33.783339 0 0 0 48.7323,54.988581 103.72078,103.72078 0 0 0 34.63945,53.012948 V 39.842055 H 143.43102 L 201.05367,194.66589 250.24695,69.081435 a 158.05071,158.05071 0 0 0 4.80738,-16.529469 89.035232,89.035232 0 0 0 2.50247,-12.512347 h 104.24761 v 13.170892 a 102.66711,102.66711 0 0 0 -11.1294,1.317089 80.605861,80.605861 0 0 0 -11.12941,2.634179 13.170892,13.170892 0 0 0 -8.49522,6.585446 24.49786,24.49786 0 0 0 -1.97564,10.273295 v 166.41422 a 22.127099,22.127099 0 0 0 1.97564,10.00988 17.056306,17.056306 0 0 0 8.56108,7.04643 50.378663,50.378663 0 0 0 10.86598,2.83174 c 5.00494,0.92196 8.89036,1.51465 11.65624,1.84392 z"
     id="path5"
     style="stroke-width:6.58545" /><path
     class="cls-2"
     d="m 515.04774,235.49566 a 100.23049,100.23049 0 0 1 -13.96114,17.51728 84.359565,84.359565 0 0 1 -18.63681,14.29042 102.33783,102.33783 0 0 1 -22.45638,9.48304 96.67435,96.67435 0 0 1 -26.34178,3.22687 116.16727,116.16727 0 0 1 -42.34442,-6.98057 82.910767,82.910767 0 0 1 -29.10767,-18.43925 74.876523,74.876523 0 0 1 -17.45143,-27.92229 102.33783,102.33783 0 0 1 -5.72934,-34.77115 86.005927,86.005927 0 0 1 6.19032,-32.4004 87.388871,87.388871 0 0 1 17.64899,-27.59302 84.359565,84.359565 0 0 1 28.44913,-19.03194 97.464603,97.464603 0 0 1 38.39315,-7.30984 109.45012,109.45012 0 0 1 38.12973,5.66348 67.171551,67.171551 0 0 1 24.69543,15.60751 56.371419,56.371419 0 0 1 13.76358,22.25881 83.635166,83.635166 0 0 1 4.28054,26.93447 v 11.12941 H 398.61706 q 0,33.9809 13.17089,51.62989 13.17089,17.649 41.68587,17.71485 a 48.732302,48.732302 0 0 0 27.92229,-8.75864 80.276589,80.276589 0 0 0 21.271,-21.46855 z m -63.08857,-63.28614 q 0,-9.94402 -0.98782,-20.41488 a 68.291077,68.291077 0 0 0 -3.49028,-17.31972 25.946658,25.946658 0 0 0 -7.77083,-11.78795 19.163648,19.163648 0 0 0 -12.44649,-3.95127 23.049062,23.049062 0 0 0 -20.48074,13.17089 87.981561,87.981561 0 0 0 -8.36352,40.96148 z"
     id="path6"
     style="stroke-width:6.58545" /><rect
     class="cls-2"
     x="532.49921"
     y="28.778505"
     width="434.96875"
     height="258.28122"
     rx="24.300297"
     ry="24.300297"
     id="rect6"
     style="stroke-width:6.58545" /><path
     class="cls-3"
     d="m 561.40929,63.286245 v 44.846885 h 56.96411 v 136.91143 h 61.17879 V 108.13313 h 55.64702 V 63.286245 Z"
     id="path7"
     style="stroke-width:6.58545" /><polygon
     class="cls-3"
     points="133.55,19.18 128.28,37.1 122.63,19.18 112.5,19.18 123.23,46.78 133.07,46.78 143.7,19.18 "
     id="polygon7"
     transform="matrix(6.5854462,0,0,6.5854462,0,-63.088468)" /><path
     class="cls-5"
     d="M 987.09253,9.3514402 A 39.512677,39.512677 0 0 0 961.47515,1.06596e-4 H 36.417517 A 36.417517,36.417517 0 0 0 0,36.417624 v 0 215.739216 C 401.25124,67.764348 999.1439,159.10449 999.1439,159.10449 V 36.417624 A 36.285809,36.285809 0 0 0 987.09253,9.3514402 Z"
     id="path8"
     style="opacity:0.5;fill:url(#linear-gradient);stroke-width:6.58545" /><path
     class="cls-6"
     d="m 1000,39.644492 h -1.58051 c 0,-21.20514 -19.03194,-32.9272298 -40.56635,-32.9272298 L 35.4297,6.1904222 A 35.363846,35.363846 0 0 0 2.50247,34.90297 H 0.65854 A 36.549226,36.549226 0 0 1 36.1541,0.13181223 h 926.243 c 20.74416,0 37.6029,13.50016977 37.6029,39.51267977 z"
     id="path9"
     style="fill:url(#linear-gradient-2);stroke-width:6.58545" /></svg>
