<?xml version="1.0" encoding="UTF-8" standalone="no"?>
<!-- Generator: Adobe Illustrator 24.0.3, SVG Export Plug-In . SVG Version: 6.00 Build 0)  -->

<svg
   version="1.1"
   x="0px"
   y="0px"
   viewBox="0 0 1000 420.31251"
   xml:space="preserve"
   id="svg18"
   sodipodi:docname="MGM+.svg"
   width="1000"
   height="420.3125"
   inkscape:version="1.2.1 (9c6d41e410, 2022-07-14)"
   xmlns:inkscape="http://www.inkscape.org/namespaces/inkscape"
   xmlns:sodipodi="http://sodipodi.sourceforge.net/DTD/sodipodi-0.dtd"
   xmlns:xlink="http://www.w3.org/1999/xlink"
   xmlns="http://www.w3.org/2000/svg"
   xmlns:svg="http://www.w3.org/2000/svg"><defs
   id="defs22"><radialGradient
   id="radialGradient2673"
   cx="0"
   cy="0"
   r="1"
   gradientUnits="userSpaceOnUse"
   gradientTransform="matrix(0,348.9599,-515.26077,0,556.5961,3.902652)"><stop
     offset="0.0001"
     stop-color="#E0C479"
     id="stop2667" /><stop
     offset="0.3681"
     stop-color="#C7AA59"
     id="stop2669" /><stop
     offset="1"
     stop-color="#8D6F2F"
     id="stop2671" /></radialGradient><radialGradient
   id="radialGradient2649"
   cx="0"
   cy="0"
   r="1"
   gradientUnits="userSpaceOnUse"
   gradientTransform="matrix(0,348.9599,-515.26077,0,556.5961,3.902652)"><stop
     offset="0.14742354"
     stop-color="#E0C479"
     id="stop2643" /><stop
     offset="0.3681"
     stop-color="#C7AA59"
     id="stop2645" /><stop
     offset="1"
     stop-color="#8D6F2F"
     id="stop2647" /></radialGradient><radialGradient
   id="radialGradient2548"
   cx="0"
   cy="0"
   r="1"
   gradientUnits="userSpaceOnUse"
   gradientTransform="matrix(0,348.9599,-515.26077,0,556.5961,3.902652)"><stop
     offset="0"
     stop-color="#E0C479"
     id="stop2542" /><stop
     offset="0.09288006"
     stop-color="#C7AA59"
     id="stop2544" /><stop
     offset="1"
     stop-color="#8D6F2F"
     id="stop2546" /></radialGradient>
	

		
		
		
		
	
	
<radialGradient
   id="paint0_radial_463_5918"
   cx="0"
   cy="0"
   r="1"
   gradientUnits="userSpaceOnUse"
   gradientTransform="matrix(0,348.9599,-515.26077,0,557.49972,3.902652)"><stop
     stop-color="#E0C479"
     id="stop14" /><stop
     offset="0.3688"
     stop-color="#C7AA59"
     id="stop16" /><stop
     offset="1"
     stop-color="#8D6F2F"
     id="stop18" /></radialGradient><radialGradient
   id="paint1_radial_463_5918"
   cx="0"
   cy="0"
   r="1"
   gradientUnits="userSpaceOnUse"
   gradientTransform="matrix(0,348.9599,-515.26077,0,557.08893,2.55338)"><stop
     stop-color="#E0C479"
     id="stop21" /><stop
     offset="0.3688"
     stop-color="#C7AA59"
     id="stop23" /><stop
     offset="1"
     stop-color="#8D6F2F"
     id="stop25" /></radialGradient><radialGradient
   id="paint2_radial_463_5918"
   cx="0"
   cy="0"
   r="1"
   gradientUnits="userSpaceOnUse"
   gradientTransform="matrix(0,348.9599,-515.26077,0,556.5961,3.902652)"><stop
     offset="0.00122938"
     stop-color="#E0C479"
     id="stop28" /><stop
     offset="0.3681"
     stop-color="#C7AA59"
     id="stop30" /><stop
     offset="1"
     stop-color="#8D6F2F"
     id="stop32" /></radialGradient><radialGradient
   id="paint3_radial_463_5918"
   cx="0"
   cy="0"
   r="1"
   gradientUnits="userSpaceOnUse"
   gradientTransform="matrix(0,348.9599,-515.26077,0,622.51301,7.572324)"><stop
     stop-color="#E0C479"
     id="stop35" /><stop
     offset="0.3688"
     stop-color="#C7AA59"
     id="stop37" /><stop
     offset="1"
     stop-color="#8D6F2F"
     id="stop39" /></radialGradient><radialGradient
   inkscape:collect="always"
   xlink:href="#paint1_radial_463_5918"
   id="radialGradient2320"
   cx="291.6149"
   cy="98.449936"
   fx="291.6149"
   fy="98.449936"
   r="500"
   gradientTransform="matrix(-0.00396843,0.68001612,-1.015949,-0.00592888,721.17347,-197.71913)"
   gradientUnits="userSpaceOnUse" /><radialGradient
   inkscape:collect="always"
   xlink:href="#paint1_radial_463_5918"
   id="radialGradient2472"
   gradientUnits="userSpaceOnUse"
   gradientTransform="matrix(-0.00117333,0.71201021,-1.058484,-0.00174431,709.43906,-205.98698)"
   cx="289.2641"
   cy="143.8653"
   fx="289.2641"
   fy="143.8653"
   r="500" /><radialGradient
   inkscape:collect="always"
   xlink:href="#paint1_radial_463_5918"
   id="radialGradient2476"
   gradientUnits="userSpaceOnUse"
   gradientTransform="matrix(-6.3670622e-4,0.70401064,-0.9799945,-8.8631164e-4,689.00332,-204.97654)"
   cx="293.07861"
   cy="65.374557"
   fx="293.07861"
   fy="65.374557"
   r="500" /><radialGradient
   inkscape:collect="always"
   xlink:href="#paint0_radial_463_5918"
   id="radialGradient2538"
   gradientUnits="userSpaceOnUse"
   gradientTransform="matrix(-0.00445429,0.7120188,-1.0448289,-0.00653634,706.39322,-206.82654)"
   cx="291.78903"
   cy="142.70035"
   fx="291.78903"
   fy="142.70035"
   r="500" /><radialGradient
   inkscape:collect="always"
   xlink:href="#radialGradient2673"
   id="radialGradient2540"
   gradientUnits="userSpaceOnUse"
   gradientTransform="matrix(-0.00254464,0.71236265,-1.0374932,-0.00370605,708.10896,-207.37871)"
   cx="291.86798"
   cy="144.93605"
   fx="291.86798"
   fy="144.93605"
   r="500" /></defs><sodipodi:namedview
   id="namedview20"
   pagecolor="#ffffff"
   bordercolor="#666666"
   borderopacity="1.0"
   inkscape:showpageshadow="2"
   inkscape:pageopacity="0.0"
   inkscape:pagecheckerboard="0"
   inkscape:deskcolor="#d1d1d1"
   showgrid="false"
   inkscape:zoom="0.5"
   inkscape:cx="526"
   inkscape:cy="232"
   inkscape:window-width="1366"
   inkscape:window-height="705"
   inkscape:window-x="-8"
   inkscape:window-y="-8"
   inkscape:window-maximized="1"
   inkscape:current-layer="svg18" />
<style
   type="text/css"
   id="style2">
	.st0{display:none;}
	.st1{display:inline;fill:#C7AA59;}
	.st2{fill:#C7AA59;}
</style>


<g
   id="g1111"
   style="fill-opacity:1;fill:url(#radialGradient2320)"><path
     id="path1103"
     style="fill:url(#radialGradient2540);fill-opacity:1;stroke-width:31.25"
     d="M 17.058594 9.3046875 C 15.437227 9.1758264 14.0625 10.486166 14.0625 12.5 L 14.0625 281.5625 C 14.0625 295.31237 11.83741 303.03204 2.8125 314.0625 L 0 317.5 L 70.3125 317.5 L 67.5 314.0625 C 58.63046 303.22194 56.25 295.31237 56.25 281.5625 L 56.25 136.5625 L 127.8125 230 L 199.375 136.5625 L 199.375 281.5625 C 199.375 295.31237 196.99453 303.22194 188.125 314.0625 L 185.3125 317.5 L 255.625 317.5 L 252.8125 314.0625 C 243.78759 303.03204 241.5625 295.31237 241.5625 281.5625 L 241.5625 12.5 C 241.5625 10.486168 240.18774 9.1758269 238.56641 9.3046875 C 237.59359 9.3820041 236.53222 9.9772691 235.625 11.25 L 127.8125 162.5 L 20 11.25 C 19.092786 9.9772705 18.031411 9.3820039 17.058594 9.3046875 z " /><path
     id="path1629"
     style="fill:url(#radialGradient2538);fill-opacity:1;stroke-width:31.25"
     d="m 405.625,0 c -68.12479,0 -141.25,52.812848 -141.25,168.75 0,108.12467 63.12518,157.5 121.5625,157.5 21.87494,0 40.31253,-6.87503 55,-20.625 v 10.625 c 0,52.18735 -17.81295,75.97602 -56.25,75.625 -30.00029,-0.27398 -56.25,-22.8125 -56.25,-22.8125 l -9.6875,24.375 c -0.77424,1.9481 -1.91997,4.38885 -0.9375,7.5 0.89274,2.82702 6.29133,6.16952 10,8.125 13.4799,7.10757 28.12506,11.25 51.25,11.25 55.62482,0 107.5,-23.43783 109.0625,-129.6875 0,0 0.625,-59.06256 0.625,-82.8125 -0.9375,-23.43744 -6.56253,-35.00003 -17.5,-44.375 l -43.4375,26.875 c 9.99997,12.18747 11.875,15.62506 13.125,35 1.25,19.37494 0,40.625 0,40.625 -10.93747,15.93744 -28.12506,26.25 -45.9375,26.25 -66.56229,0 -73.75,-84.37512 -73.75,-120.9375 0,-87.187239 31.25015,-137.5 85.9375,-137.5 29.68741,0 55.62503,17.500048 65.625,33.4375 C 477.5,54.687536 480.46336,45.369075 482.5,38.75 485,30.625024 482.85013,25.262601 475,19.375 457.84999,6.5124831 434.68741,0 405.625,0 Z"
     sodipodi:nodetypes="ssscsscssssccccscssscsss" /><path
     style="fill:url(#radialGradient2476);fill-opacity:1;stroke-width:31.25"
     d="M 517.99609,9.3047205 C 516.37473,9.1758597 515,10.486195 515,12.500033 V 281.56253 c 0,13.74989 -2.22507,21.46952 -11.25,32.5 l -2.8125,3.4375 H 571.25 l -2.8125,-3.4375 c -8.86956,-10.84058 -11.25,-18.75011 -11.25,-32.5 v -145 l 71.5625,93.4375 71.5625,-93.4375 v 145 c 0,13.74989 -2.38045,21.65942 -11.25,32.5 l -2.8125,3.4375 h 70.3125 l -2.8125,-3.4375 c -9.02493,-11.03048 -11.25,-18.75011 -11.25,-32.5 V 12.500033 c 0,-2.013836 -1.37474,-3.3241723 -2.99609,-3.1953125 -0.97282,0.07732 -2.03419,0.6725843 -2.94141,1.9453125 L 628.75,162.50003 520.9375,11.250033 c -0.90722,-1.2727322 -1.96859,-1.8679955 -2.94141,-1.9453125 z"
     id="path1101" /><path
     style="fill:url(#radialGradient2472);fill-opacity:1;stroke-width:31.25"
     d="m 863.4375,47.5 v 93.75 h -93.75 v 42.8125 h 93.75 v 93.75 H 906.25 v -93.75 H 1000 V 141.25 H 906.25 V 47.5 Z"
     id="path1105" /></g></svg>
