<?xml version="1.0" encoding="UTF-8" standalone="no"?>
<!-- Created with Inkscape (http://www.inkscape.org/) -->

<svg
   width="78.932922mm"
   height="31.054417mm"
   viewBox="0 0 78.932922 31.054417"
   version="1.1"
   id="svg5"
   xml:space="preserve"
   xmlns="http://www.w3.org/2000/svg"
   xmlns:svg="http://www.w3.org/2000/svg"><defs
     id="defs2"><filter
       id="a"
       x="123.799"
       y="0"
       width="130.024"
       height="128.08"
       filterUnits="userSpaceOnUse"><feOffset
         dx="7.159"
         dy="7.446"
         input="SourceAlpha"
         id="feOffset182" /><feGaussianBlur
         stdDeviation="1.989"
         result="b"
         id="feGaussianBlur184" /><feFlood
         flood-color="#231f20"
         flood-opacity="0.349"
         id="feFlood186" /><feComposite
         operator="in"
         in2="b"
         id="feComposite188"
         result="result1" /><feComposite
         in="SourceGraphic"
         in2="result1"
         id="feComposite190" /></filter><filter
       id="a-1"
       x="123.799"
       y="0"
       width="130.024"
       height="128.08"
       filterUnits="userSpaceOnUse"><feOffset
         dx="7.159"
         dy="7.446"
         input="SourceAlpha"
         id="feOffset182-4" /><feGaussianBlur
         stdDeviation="0.00034948703"
         result="b"
         id="feGaussianBlur184-3" /><feFlood
         flood-color="#231f20"
         flood-opacity="0.349"
         id="feFlood186-0" /><feComposite
         operator="in"
         in2="b"
         id="feComposite188-2"
         result="result1" /><feComposite
         in="SourceGraphic"
         in2="result1"
         id="feComposite190-4" /></filter></defs><path
     d="m 33.603934,28.617073 c 2.945341,3.781425 12.708995,1.12686 22.044289,-5.908146 -7.62,4.85775 -14.917737,6.410325 -17.291315,3.346186 C 35.601802,22.497261 40.523317,14.073986 49.349288,7.240592 54.391717,3.335342 59.618296,0.79560665 63.685735,4.57453e-6 59.055527,-0.00608084 52.080317,2.9604275 45.410965,8.1534045 35.873265,15.581846 30.587948,24.744631 33.603934,28.617073 Z"
     fill="#ff812c"
     id="path195"
     style="fill:#f48128;fill-opacity:1;stroke-width:0.264999;stroke-dasharray:none" /><path
     d="m 0.00185,10.14783 h 4.161631 v 2.27198 h 0.04604 c 0.226483,-1.65814 1.728258,-2.4548 3.864768,-2.4548 h 1.661319 c 2.068777,0 3.477154,0.88794 4.297363,2.70483 0.727604,-2.09021 1.659466,-2.70483 4.138083,-2.70483 h 1.340644 c 3.981185,0 5.412052,1.93145 5.412052,5.25198 v 6.52436 h -4.366684 v -6.23041 c 0,-1.59041 -0.410104,-2.13545 -2.957248,-2.13545 -2.091795,0 -2.95566,0.45323 -2.95566,1.97829 v 6.38704 h -4.365625 v -6.5704 c 0,-1.43007 -0.522552,-1.7952 -3.161242,-1.7952 -1.863195,0 -2.751666,0.45323 -2.751666,2.25134 v 6.11399 H 0 Z"
     fill="#ececec"
     id="path199"
     style="fill:#bbbbba;fill-opacity:1;stroke-width:0.264583" /><path
     d="m 73.290379,2.41062 c -2.94746,-3.77745 -12.71085,-1.11548 -22.03635,5.92667 7.6155,-4.86542 14.91006,-6.42011 17.28602,-3.35862 1.26709,1.63115 0.91096,4.29286 -0.69241,7.35383 h 3.63061 c 2.63525,-4.12353 3.45784,-7.81077 1.81213,-9.92188 z m -15.72445,21.39051 c -5.04058,3.91107 -10.26187,6.45213 -14.3301,7.25328 4.62889,0.002 11.60304,-2.97127 18.26577,-8.16927 q 1.46712,-1.14485 2.78951,-2.33389 v -3.10171 a 45.864727,45.864727 0 0 1 -6.72545,6.35106 z"
     fill="#0250a0"
     id="path201"
     style="fill:#004b8d;fill-opacity:1;stroke-width:0.264583" /><path
     d="m 63.402369,10.20445 h 4.36562 v 1.86664 h 0.0474 c 0.77126,-1.61555 2.29473,-2.0484 4.63709,-2.0484 2.7051,0 6.48044,0.11562 6.48044,5.1173 v 6.65983 h -4.36721 v -6.66009 c 0,-1.13771 -0.90885,-1.70683 -2.81782,-1.70683 h -1.00092 c -1.86531,0 -2.9792,0.86439 -2.9792,2.52439 v 5.84253 h -4.36563 z"
     fill="#ececec"
     id="path203"
     style="fill:#bbbbba;fill-opacity:1;stroke-width:0.264583" /><path
     d="m 26.991729,17.67338 v 0.95435 c 0,2.7268 1.70551,3.31708 4.36563,3.29538 h 0.9525 a 20.932775,20.932775 0 0 1 1.41949,-2.72811 h -0.21035 c -1.70656,0 -2.29658,-0.29528 -2.29658,-1.04537 0,-0.95647 0.38444,-1.36578 2.22726,-1.36578 h 1.9222 c 0.5207,-0.69162 1.08479,-1.39383 1.69492,-2.09524 -0.82762,-0.32411 -1.97908,-0.35877 -3.66236,-0.35877 -4.22831,2.6e-4 -6.41271,0.18362 -6.41271,3.34354 z m 12.50527,4.06717 h 2.8194 v -5.83353 c -1.46077,2.10238 -2.43734,4.10527 -2.8194,5.83353 z M 37.724289,9.96421 h -5.07127 c -3.68273,0 -5.22816,0.52414 -5.22816,3.66131 h 4.22936 c 0.0439,-0.81889 0.40799,-0.93187 1.68169,-0.93187 h 2.57016 c 1.42584,0 1.8968,0.28708 2.01269,1.0467 0.90752,-0.98214 1.8968,-1.96427 2.95831,-2.93688 -0.76095,-0.55245 -1.81531,-0.83926 -3.1541,-0.83926 z"
     fill="#ececec"
     id="path205"
     style="fill:#bbbbba;fill-opacity:1;stroke-width:0.264583" /><path
     d="m 49.539249,18.18561 c 0,0.635 0.22649,1.06786 2.7051,1.06786 h 1.54702 c 2.06799,0 2.59107,-0.15875 2.59107,-0.86228 0,-0.68368 -0.33999,-0.95673 -1.88595,-0.95673 h -4.09311 c -4.07035,-0.0225 -5.27499,-0.9099 -5.27499,-4.09284 0,-2.88634 2.31933,-3.3192 5.31812,-3.3192 h 3.04641 c 5.70839,0 6.70825,0.79587 6.75455,3.52425 h -4.36562 c -0.2294,-0.68157 -0.63791,-0.79639 -3.25173,-0.79639 -2.52439,0 -3.00144,0.0683 -3.00144,0.86439 0,0.50086 0.33946,0.68262 2.61356,0.68262 h 3.02445 c 5.23028,0 5.61843,1.75102 5.61843,3.819 0,3.07102 -1.22873,3.86636 -6.20977,3.86636 h -4.1365 c -4.02352,0 -5.50333,-0.93292 -5.50333,-3.79677 z"
     fill="#ececec"
     id="path207"
     style="fill:#bbbbba;fill-opacity:1;stroke-width:0.264583" /></svg>
