<?xml version="1.0" encoding="UTF-8" standalone="no"?>
<!-- Generator: Adobe Illustrator 22.0.0, SVG Export Plug-In . SVG Version: 6.00 Build 0)  -->

<svg
   version="1.1"
   id="Layer_1"
   x="0px"
   y="0px"
   viewBox="0 0 1000 185.8158"
   xml:space="preserve"
   width="1000"
   height="185.8158"
   xmlns="http://www.w3.org/2000/svg"
   xmlns:svg="http://www.w3.org/2000/svg"><defs
   id="defs2">
	
	
</defs>
<style
   type="text/css"
   id="style1">
	.st0{fill:#A6A8AB;}
	.st1{fill:#EC1C24;}
</style>
<path
   class="st0"
   d="m 551.28033,1.206597 -4.55825,30.298967 h 19.8418 L 543.77262,184.47513 H 581.9815 L 604.77276,31.505564 h 19.8418 l 4.55825,-30.298967 z m 88.48371,0 -27.34951,183.268533 h 38.07481 l 10.85937,-72.6639 h 2.68132 c 5.63078,0 8.17804,1.34067 8.17804,5.63079 0,1.34066 0,2.68132 -0.26813,4.02199 l -9.5187,63.01112 h 38.20887 l 8.84837,-59.5254 c 0.67033,-4.02199 0.93847,-7.90991 0.93847,-11.1275 0,-10.18903 -3.88792,-15.551684 -13.94289,-18.769273 18.09894,-6.032981 20.37806,-16.892345 23.19346,-37.002279 l 2.68132,-18.903339 c 1.07253,-7.239576 1.87693,-12.870358 1.87693,-17.428609 0,-18.098941 -12.60223,-20.512133 -40.35394,-20.512133 z m 33.91876,29.628636 h 3.21759 c 5.63078,0 7.90991,0.670331 7.90991,5.228583 0,0.268132 -0.26814,2.681325 -0.93847,6.971444 l -3.35165,22.791259 c -1.34067,8.982437 -1.74286,12.200027 -9.9209,12.200027 -1.07253,0 -2.27913,-0.268133 -3.88792,-0.268133 z M 740.71591,1.206597 713.3664,184.47513 h 61.1342 l 4.29012,-29.7627 h -22.79126 l 8.31211,-56.039685 h 22.79126 l 4.55825,-29.762703 h -23.05939 l 5.63078,-38.208875 h 23.05939 L 801.85011,1.07253 h -61.1342 z m 72.93203,0 -27.34951,183.268533 h 32.98029 l 13.27256,-89.824372 h 1.6088 l 4.96045,89.824372 h 35.39348 L 901.86352,1.206597 h -32.71216 l -14.21102,93.84636 h -1.60879 l -4.02199,-93.84636 z m 101.75627,0 -27.34951,183.268533 h 44.24185 c 19.57367,0 31.7737,-0.40219 39.54954,-8.17804 6.83738,-6.56924 8.17804,-16.08794 10.18904,-29.7627 L 998.12307,38.879207 C 999.46374,30.567101 1000,24.668187 1000,21.316531 1000,2.815391 986.72744,1.206597 959.64607,1.206597 Z m 33.78469,29.360504 c 1.34066,0 2.54726,-0.268133 3.61979,-0.268133 5.36265,0 7.50771,1.340662 7.50771,5.630782 0,0.402198 -0.26814,2.547258 -0.93847,6.301113 L 944.22845,143.85307 c -1.07253,8.3121 -1.6088,11.26156 -9.65277,11.26156 -1.07253,0 -2.27913,-0.26813 -3.88792,-0.26813 z"
   id="path1"
   style="fill:#ec1c24;fill-opacity:1;stroke-width:1.34066" /><path
   class="st1"
   d="M 27.349511,1.206597 0,184.47513 H 34.589087 L 50.408902,78.830943 h 1.340662 L 49.738571,184.47513 H 71.189167 L 100.54967,78.830943 h 1.6088 L 86.338651,184.47513 H 120.65961 L 148.00912,1.206597 h -46.65505 l -26.813247,92.77383 h -1.608795 l 1.07253,-92.77383 z M 244.40273,37.940743 C 245.47526,30.298968 246.1456,24.400054 246.1456,19.841802 246.1456,1.07253 233.00711,0 205.92573,0 186.08392,0 173.4817,0.268133 165.70586,8.312107 c -6.30111,6.569245 -7.64178,16.222013 -9.65277,29.628636 L 139.96514,147.47286 c -1.34066,8.58023 -1.74286,15.28355 -1.74286,20.10993 0,16.22201 13.94289,18.23301 40.21987,18.23301 19.8418,0 32.04183,-0.67033 39.54954,-8.17804 6.97144,-6.97145 8.17804,-16.75828 10.18903,-30.29897 z m -38.34294,1.206596 -16.08794,107.252991 c -0.93847,6.03298 -2.011,9.25057 -7.23958,9.25057 -3.61979,0 -4.96045,-1.6088 -4.96045,-5.36265 0,-1.07253 0,-2.27913 0.26813,-3.88792 L 194.1279,39.147339 c 0.93846,-5.630781 1.87693,-8.982437 6.83738,-8.982437 4.02198,0 5.63078,1.608795 5.63078,5.362649 -0.13407,0.268133 -0.13407,1.340662 -0.53627,3.619788 M 260.62475,1.206597 256.0665,31.505564 h 19.8418 L 253.11704,184.47513 h 38.07481 L 313.98311,31.505564 h 19.8418 l 4.55825,-30.298967 z m 170.26411,36.734146 c 1.07253,-7.641775 1.74286,-13.540689 1.74286,-18.098941 C 432.63172,1.07253 419.49323,0 392.41185,0 c -19.8418,0 -32.44403,0.268133 -40.21987,8.312107 -6.30111,6.569245 -7.64177,16.222013 -9.65277,29.628636 L 326.3172,147.47286 c -1.34066,8.58023 -1.87693,15.28355 -1.87693,20.10993 0,16.22201 13.94289,18.23301 40.21987,18.23301 19.8418,0 32.04183,-0.67033 39.54954,-8.17804 6.97144,-6.97145 8.17804,-16.75828 10.18903,-30.29897 z m -38.34294,1.206596 -16.08795,107.252991 c -0.93846,6.03298 -2.01099,9.25057 -7.23958,9.25057 -3.61978,0 -4.96045,-1.6088 -4.96045,-5.36265 0,-1.07253 0,-2.27913 0.26814,-3.88792 L 380.61402,39.147339 c 0.93847,-5.630781 1.87693,-8.982437 6.83738,-8.982437 4.02199,0 5.63078,1.608795 5.63078,5.362649 -0.13406,0.268133 -0.13406,1.340662 -0.53626,3.619788 M 450.46253,1.206597 423.11302,184.47513 h 38.20887 l 10.85937,-72.6639 h 2.68132 c 5.63078,0 8.17804,1.34067 8.17804,5.63079 0,1.34066 0,2.68132 -0.26813,4.02199 l -9.5187,63.01112 h 38.20887 l 8.84837,-59.5254 c 0.67033,-4.02199 0.93847,-7.90991 0.93847,-10.99343 0,-10.18904 -3.88792,-15.551688 -13.94289,-18.769277 18.09894,-6.03298 20.37807,-16.892345 23.19346,-37.002279 l 2.68132,-18.903338 c 1.07253,-7.239577 1.74286,-12.870358 1.74286,-17.42861 0,-18.098941 -12.60222,-20.512133 -40.35393,-20.512133 h -44.10779 z m 33.91875,29.628636 h 3.21759 c 5.63079,0 7.90991,0.670331 7.90991,5.228583 0,0.268132 -0.26813,2.681325 -0.93846,6.971444 l -3.35166,22.791259 c -1.34066,8.982437 -1.74286,12.200027 -9.9209,12.200027 -1.07253,0 -2.27912,-0.268133 -3.88792,-0.268133 z"
   id="path2"
   style="stroke-width:1.34066" />
</svg>
