<?xml version="1.0" encoding="UTF-8" standalone="no"?>
<!-- Created with Inkscape (http://www.inkscape.org/) -->

<svg
   width="1000"
   height="1000"
   viewBox="0 0 264.58333 264.58333"
   version="1.1"
   id="svg9470"
   inkscape:version="1.2.1 (9c6d41e4, 2022-07-14)"
   sodipodi:docname="NBATVLogo.svg"
   xmlns:inkscape="http://www.inkscape.org/namespaces/inkscape"
   xmlns:sodipodi="http://sodipodi.sourceforge.net/DTD/sodipodi-0.dtd"
   xmlns="http://www.w3.org/2000/svg"
   xmlns:svg="http://www.w3.org/2000/svg">
  <sodipodi:namedview
     id="namedview9472"
     pagecolor="#ffffff"
     bordercolor="#000000"
     borderopacity="0.25"
     inkscape:showpageshadow="2"
     inkscape:pageopacity="0.0"
     inkscape:pagecheckerboard="0"
     inkscape:deskcolor="#d1d1d1"
     inkscape:document-units="mm"
     showgrid="false"
     inkscape:zoom="0.46903409"
     inkscape:cx="458.38885"
     inkscape:cy="327.26832"
     inkscape:window-width="1390"
     inkscape:window-height="1205"
     inkscape:window-x="0"
     inkscape:window-y="25"
     inkscape:window-maximized="0"
     inkscape:current-layer="g6345" />
  <defs
     id="defs9467" />
  <g
     inkscape:label="Layer 1"
     inkscape:groupmode="layer"
     id="layer1">
    <g
       id="g6345"
       transform="matrix(0.17805596,0,0,0.17805596,31.347568,15.272223)"
       style="stroke-width:1.48595">
      <g
         id="g755"
         transform="matrix(4.4224883,0,0,4.4224883,611.14833,303.40692)"
         style="stroke-width:0.335999">
        <path
           sodipodi:nodetypes="ccccccccc"
           d="M 123.13664,-88 H -143.1363 C -162.39112,-88 -178,-72.39112 -178,-53.13664 V 213.13664 C -178,232.39112 -162.39112,248 -143.1363,248 H 123.13664 C 142.39112,248 158,232.39112 158,213.13664 V -53.13664 C 158,-72.39112 142.39112,-88 123.13664,-88 Z"
           id="path41927"
           inkscape:connector-curvature="0"
           style="fill:#ffffff;stroke:none;stroke-width:0.112897" />
        <path
           sodipodi:nodetypes="cccccccccccccccccccccccccccc"
           d="m -68.027872,208.22264 c -4.21176,-3.74405 -1.403808,-5.38205 -1.638,-7.01938 -2.807952,-11.69952 -12.167232,-18.71889 -7.253568,-22.46294 -1.00296,-2.95042 -2.175264,-5.84136 -3.50952,-8.65738 -14.5068,-8.18932 -26.67403,-21.7607 -28.78008,-23.63222 -2.10571,-1.87152 -6.78518,-5.61557 -7.72128,-7.72195 -0.9361,-2.10538 -20.35656,-27.3756 -24.33446,-36.03264 l -6.78519,-0.93643 c -3.04181,-12.868468 -13.57104,-23.631892 -13.80489,-36.267172 0.30811,-5.873616 1.32955,-11.68776 3.0418,-17.314752 1.35879,-2.098656 3.01392,-3.99 4.91367,-5.615568 v -3.50952 c -14.97485,0.468048 -10.76343,-1.169616 -13.33685,-7.019712 -2.57376,-5.84976 -0.46805,-4.913664 0.23386,-7.72128 2.10571,-8.189664 8.65737,-21.058464 11.46499,-26.908224 2.80795,-5.84976 3.74371,-10.061184 3.74371,-10.061184 11.23147,-22.696464 15.4429,-21.0588 28.78008,-22.462608 l 0.70157,-0.93576 c 13.33718,-0.467712 11.23147,-1.637664 13.10299,-14.5068 -1.87152,0.93576 -2.57376,-3.977904 -2.57376,-3.977904 -1.16962,-7.253568 2.10605,-5.84976 3.50986,-6.083616 0.23419,-11.933376 1.63766,-15.910944 10.295372,-19.186608 H -143.1363 c -14.73192,0 -26.67404,11.942112 -26.67404,26.674032 V 213.1363 c 0,14.73092 11.94212,26.67404 26.67404,26.67404 h 78.618284 c -9.125424,-4.91367 -3.743712,-14.03876 -3.509856,-31.5877"
           id="path41929"
           style="fill:#00438c;fill-opacity:1;stroke:none;stroke-width:0.112897"
           inkscape:connector-curvature="0" />
        <path
           sodipodi:nodetypes="ccccccccccccccccccccccccccccccccccccccccccccccccccccc"
           d="M 123.13664,-79.810672 H -90.022432 c 3.237696,0.869568 6.00768,2.968224 7.72128,5.84976 3.276,0.233856 7.253568,7.72128 1.169952,18.484704 2.807616,1.871856 0.701904,4.445616 -1.404144,7.487424 -2.105712,3.041808 -1.169616,2.807952 -2.807616,2.57376 -2.339568,4.913664 -5.14752,9.593472 -7.253232,9.827664 -0.929712,1.045296 -1.026144,2.590224 -0.233856,3.743712 3.125808,1.275456 6.043632,3.01056 8.657376,5.14752 v 1.169952 c 2.339904,1.403808 3.50952,2.57376 6.08328,3.977568 6.317472,3.977568 14.272944,11.231136 13.337184,36.033312 1.871856,5.381712 2.57376,15.910944 4.21176,19.4208 1.638,3.509856 5.615568,10.996944 6.551664,17.080896 0,0 0.936096,9.125088 2.105712,10.29504 h 0.70224 c 5.381712,1.169952 4.445616,1.871856 4.913664,2.807952 l 1.403808,1.169616 c 1.404144,0.70224 3.743712,1.404144 3.743712,3.977568 v 0 l 1.169952,1.872192 c 0.714336,1.119216 1.340304,2.292864 1.871856,3.50952 v 0 c 1.873536,5.29872 1.873536,11.079936 0,16.378656 v 0.70224 c -2.0664,5.124 -5.879328,9.350876 -10.763424,11.933376 h -0.468048 l -0.701568,0.46805 c -3.147984,1.49117 -6.57888,2.28917 -10.061184,2.34024 -13.066368,-1.73511 -22.252608,-13.73333 -20.518176,-26.799698 1.140048,-8.587488 6.843648,-15.883056 14.902608,-19.060944 -2.807952,-6.78552 -8.42352,-17.7828 -10.06152,-21.292656 -1.637664,-3.509856 -5.615232,-26.20632 -6.317472,-30.652272 -0.701568,-4.44528 -10.29504,5.84976 -10.29504,6.317808 0,0.468048 -7.48776,18.71856 -7.721276,19.654656 -0.17002,1.00464 -0.24831,2.023056 -0.2342,3.041808 0,0 3.50986,0.467712 5.381716,6.317472 1.87152,5.84976 7.955472,27.609792 7.955472,27.609792 l -1.638,1.638 c 7.487088,25.03536 4.913328,35.798784 8.188992,43.286544 3.275664,7.48776 5.381712,8.89157 8.891232,17.78314 3.509856,8.89089 5.381712,31.3535 6.551664,32.2896 3.977904,5.14752 6.317472,9.12508 6.317472,11.93337 0,2.80728 -3.50952,11.46533 -2.105712,16.61285 1.403808,5.14685 1.169952,9.59314 2.57376,10.76309 1.403808,1.16928 1.169952,2.57309 0.701904,3.50952 -0.261072,0.42605 -0.421008,0.90552 -0.468048,1.40381 2.105712,7.95513 9.35928,21.29265 -2.105712,28.31203 l -0.701904,0.46805 H 123.60435 c 14.54947,-0.12735 26.31317,-11.89004 26.44018,-26.43951 V -53.13664 c -0.12869,-14.769552 -12.138,-26.674704 -26.90789,-26.674032 z"
           id="path41931"
           style="fill:#da1a32;fill-opacity:1;stroke:none;stroke-width:0.112897"
           inkscape:connector-curvature="0" />
        <path
           sodipodi:nodetypes="ccccccccccccccccccc"
           d="M 117.98912,-16.401424 H 91.314416 L 85.464992,80.701568 81.487424,144.81339 77.50952,81.638336 70.958192,-16.401088 H 43.114208 L 63.470432,176.63494 H 97.164176 Z M -29.420464,7.698848 H -9.531952 V 176.40109 H 16.440512 V 7.698848 H 36.796736 V -16.63528 h -66.2172 z"
           id="path41933"
           inkscape:connector-curvature="0"
           style="fill:#ffffff;stroke:none;stroke-width:0.112897" />
        <path
           sodipodi:nodetypes="ccccccccccccccccccccccccccccccccccccccccccccccccccccccc"
           d="m -128.39565,223.19782 v -48.20088 h 9.35928 c 5.38171,0 8.65738,2.80796 8.65738,9.59381 v 7.25357 c 0,4.44528 -1.40415,6.55133 -3.27567,7.72128 2.23407,1.61448 3.47357,4.27022 3.27567,7.01938 v 7.01937 c 0,6.552 -3.50986,9.59381 -8.65738,9.59381 h -9.35928 z m 6.55167,-21.05846 v 14.97485 h 2.57376 c 2.10571,0 2.80795,-1.16995 2.80795,-3.51019 v -8.18933 c 0,-2.33957 -0.70224,-3.27533 -2.80795,-3.27533 z m 0,-21.05846 v 15.91094 h 2.3399 c 2.33957,0 2.80762,-0.70224 2.80762,-3.50952 v -9.35995 c 0,-2.33957 -0.70191,-3.27533 -2.80762,-3.27533 h -2.3399 z m 26.90822,32.2896 h -5.84976 l -0.7019,9.82732 h -6.55133 l 5.84942,-48.20088 h 9.125426 l 5.615568,48.20088 h -6.78552 z m -3.041808,-32.99184 h -0.234192 c -0.467712,5.84908 -1.169616,15.91094 -1.403808,19.18694 l -0.701902,8.42352 h 4.913662 l -0.701904,-8.42352 c -0.233856,-3.276 -1.170288,-13.33786 -1.871856,-19.18694 m -49.370492,42.81916 h -5.61557 v -48.20088 h 8.89157 l 7.25323,39.54351 c -0.70191,-9.35928 -1.40381,-20.82495 -1.40381,-30.65227 v -8.89157 h 5.61557 v 48.20088 h -8.18967 l -7.25323,-38.60707 c 0.46805,8.89156 0.70191,16.14513 0.70191,23.3987 z"
           id="path41935"
           inkscape:connector-curvature="0"
           style="fill:#ffffff;stroke:none;stroke-width:0.112897" />
      </g>
    </g>
  </g>
</svg>
