<?xml version="1.0" encoding="UTF-8" standalone="no"?>
<!-- Created with Inkscape (http://www.inkscape.org/) -->

<svg
   version="1.1"
   id="svg1"
   width="1000"
   height="313.47412"
   viewBox="0 0 1000 313.47412"
   xml:space="preserve"
   xmlns="http://www.w3.org/2000/svg"
   xmlns:svg="http://www.w3.org/2000/svg"><defs
     id="defs1"><style
       id="style1">.cls-1{fill:#fff;}.cls-2{fill:#5a5a96;}.cls-3{fill:#b42846;}.cls-4{fill:#008cc3;}.cls-5{fill:#e16428;}.cls-6{fill:#00a846;}.cls-7{fill:#f0b428;}</style><style
       id="style1-5">.cls-1{fill:#fff;}.cls-2{fill:#5a5a96;}.cls-3{fill:#b42846;}.cls-4{fill:#008cc3;}.cls-5{fill:#e16428;}.cls-6{fill:#00a846;}.cls-7{fill:#f0b428;}</style><style
       id="style1-1">.cls-1{fill:#fff;}.cls-2{fill:#5a5a96;}.cls-3{fill:#b42846;}.cls-4{fill:#008cc3;}.cls-5{fill:#e16428;}.cls-6{fill:#00a846;}.cls-7{fill:#f0b428;}</style></defs><g
     id="g2"
     style="fill:#fccc12;fill-opacity:1"
     transform="matrix(1.3262957,0,0,1.3262957,272.25893,332.29138)"><path
       d="m 251.66301,-185.06684 c -5.9,-4.59 -14.31,-1 -14.31,-1 -16.11,5.2 -33.61,18.08 -47.41,30.14 6.33,-7.26 13.51,-15.08 21.66,-23.53 0,0 5.82,-3 1.36,-7.4 -4.46,-4.4 -9.72,-8.58 -9.72,-8.58 0,0 -2.12,-1.87 -3.14,-1.1 -1.02,0.77 -0.26,2.8 -0.09,3.1 0.17,0.3 -2.63,3.78 -2.63,3.78 a 4.18,4.18 0 0 0 -0.47,0.47 c -4.67,4.12 -13.17,8.2 -17.46,10.15 -9.26,3.36 -21.11,7.39 -33.86,11.9 a 12.88,12.88 0 0 0 -2.63,-2 c -15.26,-9.6 -60.8,-10.4 -78.3,-11.73 -18.86,-1.4 -23.11,-2.63 -23.83,-5.77 -0.94,-4 5,-9.82 13.55,-16 33.05,-24.09 78.67,-29 93.46,-28.76 16.18,0.26 20.73,2.17 21,3.36 a 2.4,2.4 0 0 1 -0.5,2 c -2.64,3.06 -6.21,5 -10.07,7.44 a 251.91,251.91 0 0 1 -31,16.74 c -3.53,3.27 3.31,4.12 3.31,4.12 a 83,83 0 0 0 26.93,-5.87 c 17.59,-6.71 21.8,-12.78 22.31,-16.39 0.76,-5.7 -1.4,-11.64 -1.49,-12.15 -4.49,-19.15 -34.74,-18.39 -34.74,-18.39 -26.08,0.09 -65.21,7.57 -99.92,33 -17.8,13 -15.12,22.39 -15.12,22.39 0,0 -0.3,18.1 13.47,22.52 5.52,1.78 9.55,2.72 18.6,3.61 17.59,1.74 30.59,2 48.81,3.23 10.71,0.76 18.19,1.95 23.24,3.31 a 435.62,435.62 0 0 0 -43.58,18.35 c -11.69,5.86 -29.19,15.68 -35.43,23.49 -6.8,8.54 -1.66,15.51 -1.28,15.51 1.36,2.38 6.37,10.11 25.66,7.65 9.73,-1.24 21.11,-5.87 29.95,-10.67 a 128.52,128.52 0 0 0 27.61,-20.26 c 11.3,-10.92 14.49,-19.37 14.53,-26.68 a 18.78,18.78 0 0 0 -1.27,-7 c 13.63,-4.71 25.57,-8.32 33.52,-10.57 -18.82,22.6 -48.56,62.74 -47.2,88.78 a 23.53,23.53 0 0 0 4.06,12.66 27.83,27.83 0 0 0 2,2.85 8.81,8.81 0 0 1 1.49,1.32 c 0,0 0,0 0.08,0 0.94,0.55 2.25,1.1 2.93,0.17 1.11,-1.49 -2.16,-3.06 -2.16,-3.06 -0.94,-1.19 -1.53,-3.06 -1.11,-6.16 a 55.18,55.18 0 0 1 1.11,-6 71.39,71.39 0 0 1 2.84,-9.13 l 4.59,-10.33 v 0.09 c 0,0 0,-0.09 0,-0.13 a 179.64,179.64 0 0 1 27.15,-35.13 c 29.31,-29.1 55.44,-41.08 60.79,-42.78 3.87,-1.23 5.61,-0.94 6.24,-0.34 3.74,3.36 -5.56,18.35 -5.56,18.35 a 8,8 0 0 1 -0.51,0.68 c -16.78,24.51 -26.59,31.31 -35.39,34.67 -6.07,1.82 -9.77,-0.22 -10.92,-1 -2.12,-2 -3.31,-4.8 -3.1,-6.16 0.39,-2.59 -0.76,-2.51 -0.76,-2.51 -4.21,1.4 -1.87,8.8 -1.87,8.8 3.1,14 22.47,17.54 40.87,3.78 24.3,-18.18 29.1,-32.8 32.58,-41.63 3.48,-8.83 -3,-15.57 -8.87,-20.2 z m -112.79,31.18 c -6.11,10.66 -26.8,23.37 -33.73,27.27 a 150.87,150.87 0 0 1 -23.49,11.22 c -12,4.37 -22.73,6.37 -23.75,3.44 -0.38,-1.23 -1.19,-1.78 2.72,-5.9 4.55,-4.81 18.53,-13.77 31.44,-20.44 a 414.76,414.76 0 0 1 47.18,-20.31 c 0.65,1.19 0.78,2.72 -0.37,4.72 z"
       id="path20"
       style="fill:#fccc12;fill-opacity:1" /><path
       d="m 548.64301,-195.33684 c -1.34,-8 -13.48,-9.87 -34.77,-8.17 -11.25,0.9 -32.5,3.91 -51.57,6.95 l 18.74,-20.9 c 0,0 4.08,-2.62 -0.11,-5.85 a 54,54 0 0 0 -8.75,-5.39 c 0,0 -1.87,-1.84 -5.14,1.16 -1.9,1.76 -13.95,14 -30.84,35.09 -18.81,2.51 -40.46,4 -46,4.69 0,0 -2.75,0.57 -3.82,-1.32 0,0 -2.44,-1.7 -1.87,2.38 0,0 0.6,10.83 11,8.86 5.91,-1.12 17.93,-2.7 32.94,-4.71 -2.54,3.31 -6.43,8.25 -10.57,14.06 -18.72,20.42 -50.46,53.24 -57.56,48.89 0,0 -1.56,-1.44 -0.47,-4.94 1.6,-5.22 7.63,-14.68 19.73,-28.87 0,0 5.57,-6.62 5.35,-9.55 -0.36,-4.48 -2.86,-4.38 -2.86,-4.38 0,0 -16.09,-4.76 -21.46,-9.58 2.24,-3.5 6.37,-11.31 1.11,-15 0,0 -6.77,-4.29 -11.73,5.89 -2,4.06 -1.82,8 0.79,11.58 -3.69,3.91 -13.88,13.88 -24,16.82 -0.58,-3.54 -2.08,-5.7 -4.34,-6.83 0,0 -5.59,-2.81 -8.63,0.69 -3.04,3.5 -0.34,7 2.76,9.34 -0.92,2.76 -3.48,6.39 -7.06,12 a 65.88,65.88 0 0 1 -18.67,19.52 c -2.76,1.89 -14.06,8.4 -17,-0.52 -1.62,-4.92 1.09,-14.43 8.06,-25.23 14.27,-22.25 34.34,-29.56 39.73,-26.08 0,0 2.54,2.52 1,5.29 0,0 -0.58,1.54 1.48,1.72 2.06,0.18 3.21,-1.6 3.55,-3.4 0.85,-4.72 -3.43,-10.13 -8.3,-14 a 29.1,29.1 0 0 0 -5.08,-2.93 c 0,0 -8.53,-3 -20.16,2.78 -3.54,1.74 -18.8,10.17 -29.88,29.92 -3.52,6.26 -5.74,13 -5.66,19.45 a 24.19,24.19 0 0 0 3.11,12.37 34.09,34.09 0 0 0 11.8,10.83 c 12.51,6.41 27.17,-5.76 32.89,-11 10.06,-9.21 17.75,-21.4 19.51,-26.7 13.18,-3.41 26.21,-16.61 30.46,-21.25 0.78,0.51 1.57,1 2.47,1.52 l 7.92,4.2 a 106.1,106.1 0 0 0 -9.59,12.4 c -5.06,7.14 -17.62,24 -9.51,34.77 a 17.07,17.07 0 0 0 7.31,6.19 c 10.73,4.25 22.88,-6.29 41.7,-26.07 3,-3.13 5.85,-6.25 8.58,-9.31 -1.17,2.35 -2.25,4.72 -3.14,7 -4.38,11.43 -1.84,21.73 7.37,27.84 5.45,3.61 12.55,2 20.65,-3.36 16,-10.57 39.63,-34.35 54.64,-50.17 -0.54,2.17 -1.06,4.55 -1.53,7.22 -3.56,19.89 -15.61,45.37 -20.36,38.89 -0.09,1 -0.15,-4.42 -2.73,-6.59 -2.36,-2 -4.41,-2.47 -7,-0.75 -3.41,2.24 -1.71,10.59 8.78,16 a 19.22,19.22 0 0 0 6.51,2.1 c 5.7,1 17.25,1.06 30.87,-9.14 18.43,-13.85 38.38,-33.68 38.38,-33.68 0,0 4,-3.54 0.22,-5.72 a 3.24,3.24 0 0 0 -3.57,0.59 16.85,16.85 0 0 0 -1.89,2.06 c 0.27,-0.27 -27.95,26.62 -44.64,35.64 2.7,-3.3 4.38,-8.08 5.79,-13.72 1.18,-4.75 3.22,-17.54 5.37,-26.92 a 62,62 0 0 1 3.29,-10.51 c 2,-4.57 4.84,-4.19 5.49,-5.52 0.46,-0.94 0.29,-1.8 -0.93,-3.29 a 33.17,33.17 0 0 0 -3.48,-3.61 c -1.32,-1.21 -4.09,-3.09 -5.56,-3.37 a 3.84,3.84 0 0 0 -3.2,0.68 18.32,18.32 0 0 0 -4.32,5.25 c -10.11,11 -43.27,46.42 -63.57,58.47 1.09,-0.65 -16.48,11.22 -12.76,-4.22 1.7,-7 8.75,-22.76 28.56,-47.59 l 10.3,-11.49 c 8.45,-1.21 17.25,-2.53 26,-4 0,0 77.4,-9.6 56.45,6.89 0,0 1.34,2.59 4.59,0 6.73,-5.34 9.24,-10 8.85,-12.44 z"
       id="path21"
       style="fill:#fccc12;fill-opacity:1" /></g><g
     id="g4"
     transform="matrix(4.4308312,0,0,4.4308312,6.77541,-4.41379)"
     style="fill:#000000;fill-opacity:1"><path
       style="font-style:italic;font-weight:500;font-size:23.9944px;line-height:1.1;font-family:'Gotham Black';-inkscape-font-specification:'Gotham Black,  Medium Italic';letter-spacing:0px;fill:#000000;fill-opacity:1;fill-rule:evenodd;stroke-width:41.3036;stroke-linejoin:round;paint-order:markers stroke fill"
       d="m 181.7847,71.744532 h 5.11284 l 2.03544,-3.028929 h 6.54249 l 0.41194,3.028929 h 4.9432 l -2.64123,-17.083161 h -4.60396 z m 9.52296,-6.687876 3.17432,-4.870518 0.60578,4.870518 z"
       id="path12" /><path
       style="font-style:italic;font-weight:500;font-size:23.9944px;line-height:1.1;font-family:'Gotham Black';-inkscape-font-specification:'Gotham Black,  Medium Italic';letter-spacing:0px;fill:#000000;fill-opacity:1;fill-rule:evenodd;stroke-width:41.3036;stroke-linejoin:round;paint-order:markers stroke fill"
       d="m 174.33617,71.744532 h 4.7009 l 4.5555,-16.962004 h -4.70089 z"
       id="path11" /><path
       style="font-style:italic;font-weight:500;font-size:23.9944px;line-height:1.1;font-family:'Gotham Black';-inkscape-font-specification:'Gotham Black,  Medium Italic';letter-spacing:0px;fill:#000000;fill-opacity:1;fill-rule:evenodd;stroke-width:41.3036;stroke-linejoin:round;paint-order:markers stroke fill"
       d="m 154.76788,71.744532 h 4.72513 l 1.72043,-6.445562 h 5.98517 l -1.74467,6.445562 h 4.72513 l 4.55551,-16.962004 h -4.72513 l -1.6962,6.348636 h -5.98516 l 1.72043,-6.348636 h -4.72513 z"
       id="path10" /><path
       style="font-style:italic;font-weight:500;font-size:23.9944px;line-height:1.1;font-family:'Gotham Black';-inkscape-font-specification:'Gotham Black,  Medium Italic';letter-spacing:0px;fill:#000000;fill-opacity:1;fill-rule:evenodd;stroke-width:41.3036;stroke-linejoin:round;paint-order:markers stroke fill"
       d="m 137.30055,71.744532 h 4.72512 l 1.3085,-4.870519 h 2.78662 c 5.01591,0 8.43254,-2.616995 8.43254,-6.833263 0,-1.405424 -0.43617,-2.568533 -1.33273,-3.465096 -1.23581,-1.235803 -3.05316,-1.793126 -5.81555,-1.793126 h -5.549 z m 7.00288,-8.529465 1.18734,-4.482815 h 1.74467 c 0.87233,0 1.55081,0.193851 2.0112,0.654249 0.31501,0.315008 0.48463,0.726943 0.48463,1.187339 0,1.599276 -1.33273,2.641227 -3.65894,2.641227 z"
       id="path9" /><path
       style="font-style:italic;font-weight:500;font-size:23.9944px;line-height:1.1;font-family:'Gotham Black';-inkscape-font-specification:'Gotham Black,  Medium Italic';letter-spacing:0px;fill:#000000;fill-opacity:1;fill-rule:evenodd;stroke-width:41.3036;stroke-linejoin:round;paint-order:markers stroke fill"
       d="m 121.10534,71.744532 h 12.81843 l 1.11465,-4.119344 h -8.0933 l 3.44086,-12.84266 h -4.72514 z"
       id="path8" /><path
       style="font-style:italic;font-weight:500;font-size:23.9944px;line-height:1.1;font-family:'Gotham Black';-inkscape-font-specification:'Gotham Black,  Medium Italic';letter-spacing:0px;fill:#000000;fill-opacity:1;fill-rule:evenodd;stroke-width:41.3036;stroke-linejoin:round;paint-order:markers stroke fill"
       d="m 103.73817,71.744532 h 13.71499 l 1.06618,-3.998187 h -9.06255 l 0.72694,-2.689689 h 8.0933 l 0.99348,-3.70741 h -8.09329 l 0.70271,-2.568531 h 8.91717 l 1.0904,-3.998187 h -13.59382 z"
       id="path7" /><path
       style="font-style:italic;font-weight:500;font-size:23.9944px;line-height:1.1;font-family:'Gotham Black';-inkscape-font-specification:'Gotham Black,  Medium Italic';letter-spacing:0px;fill:#000000;fill-opacity:1;fill-rule:evenodd;stroke-width:41.3036;stroke-linejoin:round;paint-order:markers stroke fill"
       d="m 84.552305,71.744532 h 6.833264 c 3.925491,0 6.857501,-1.090415 8.892941,-3.125856 1.81736,-1.817357 2.78661,-4.143574 2.78661,-6.687875 0,-2.059672 -0.58155,-3.707409 -1.84159,-4.967444 -1.284256,-1.284265 -3.34394,-2.180829 -6.63941,-2.180829 h -5.476306 z m 5.839776,-4.167807 2.326213,-8.62639 h 1.356966 c 1.64774,0 2.68969,0.387703 3.3197,1.041952 0.5331,0.533091 0.84811,1.284265 0.84811,2.326217 0,1.332729 -0.55732,2.641226 -1.45389,3.53779 -1.11465,1.114645 -2.88354,1.720431 -4.846288,1.720431 z"
       id="path6" /><path
       style="font-style:italic;font-weight:500;font-size:23.9944px;line-height:1.1;font-family:'Gotham Black';-inkscape-font-specification:'Gotham Black,  Medium Italic';letter-spacing:0px;fill:#000000;fill-opacity:1;fill-rule:evenodd;stroke-width:41.3036;stroke-linejoin:round;paint-order:markers stroke fill"
       d="m 64.048932,71.744532 h 5.112832 l 2.035441,-3.028929 h 6.542487 l 0.411934,3.028929 h 4.943212 L 80.453613,54.661371 H 75.84964 Z m 9.522953,-6.687876 3.174317,-4.870518 0.605786,4.870518 z"
       id="path5" /><path
       style="font-style:italic;font-weight:500;font-size:23.9944px;line-height:1.1;font-family:'Gotham Black';-inkscape-font-specification:'Gotham Black,  Medium Italic';letter-spacing:0px;fill:#000000;fill-opacity:1;fill-rule:evenodd;stroke-width:41.3036;stroke-linejoin:round;paint-order:markers stroke fill"
       d="m 49.432881,71.744532 h 12.818428 l 1.114646,-4.119344 h -8.093299 l 3.440864,-12.84266 h -4.725129 z"
       id="path4" /><path
       style="font-style:italic;font-weight:500;font-size:23.9944px;line-height:1.1;font-family:'Gotham Black';-inkscape-font-specification:'Gotham Black,  Medium Italic';letter-spacing:0px;fill:#000000;fill-opacity:1;fill-rule:evenodd;stroke-width:41.3036;stroke-linejoin:round;paint-order:markers stroke fill"
       d="m 40.363709,71.744532 h 4.700899 l 4.555509,-16.962004 h -4.700898 z"
       id="path3" /><path
       style="font-style:italic;font-weight:500;font-size:23.9944px;line-height:1.1;font-family:'Gotham Black';-inkscape-font-specification:'Gotham Black,  Medium Italic';letter-spacing:0px;fill:#000000;fill-opacity:1;fill-rule:evenodd;stroke-width:41.3036;stroke-linejoin:round;paint-order:markers stroke fill"
       d="m 20.771997,71.744532 h 4.72513 l 1.720431,-6.445562 h 5.985165 l -1.744664,6.445562 h 4.72513 l 4.555509,-16.962004 h -4.72513 l -1.6962,6.348636 h -5.985163 l 1.720431,-6.348636 h -4.725129 z"
       id="path2" /><path
       style="font-style:italic;font-weight:500;font-size:23.9944px;line-height:1.1;font-family:'Gotham Black';-inkscape-font-specification:'Gotham Black,  Medium Italic';letter-spacing:0px;fill:#000000;fill-opacity:1;fill-rule:evenodd;stroke-width:41.3036;stroke-linejoin:round;paint-order:markers stroke fill"
       d="m 3.3275433,71.744532 h 4.7251298 l 1.308496,-4.870519 h 2.7866139 c 5.015907,0 8.43254,-2.616995 8.43254,-6.833263 0,-1.405424 -0.436167,-2.568533 -1.332729,-3.465096 C 18.01179,55.339851 16.194433,54.782528 13.43205,54.782528 H 7.8830526 Z m 7.0028827,-8.529465 1.18734,-4.482815 h 1.744664 c 0.872331,0 1.550811,0.193851 2.011208,0.654249 0.315009,0.315008 0.484629,0.726943 0.484629,1.187339 0,1.599276 -1.332729,2.641227 -3.658946,2.641227 z"
       id="text2" /></g><g
     id="g5"><path
       id="path4144-7"
       style="fill:#6e55dc;fill-opacity:1;stroke:none;stroke-width:6.20989;stroke-linecap:round;stroke-linejoin:round;paint-order:stroke markers fill"
       d="m 190.04427,7.01672 c -12.84919,0 -24.95866,7.25278 -29.34638,18.83239 -1.74532,4.60602 -2.47011,9.21089 -2.10745,14.1213 h 13.32841 c 5.51759,0 8.86841,2.85358 8.86841,4.78134 -13.96461,5.45791 -19.55187,12.85108 -18.73438,18.66573 l 12.36201,87.92857 43.63882,-100.49769 c 2.93361,-6.73743 3.54,-12.39735 1.4341,-20.62744 C 217.50391,22.46769 212.77228,14.8717 202.3055,9.82664 198.64354,8.16346 194.02441,7.01672 190.04427,7.01672 Z" /><path
       style="fill:#ef1541;fill-opacity:1;stroke:none;stroke-width:6.20989;stroke-linecap:round;stroke-linejoin:round;paint-order:stroke markers fill"
       d="m 115.98779,7.01672 c -3.98014,0 -8.59935,0.9102 -12.2613,2.57338 -10.46679,5.04507 -15.43497,12.87785 -17.41886,20.63108 -2.10591,8.2301 -0.74676,15.32547 1.67054,20.86404 l 43.75865,100.26101 15.68976,-109.26289 c 0.78209,-5.44643 0.15195,-11.11982 -1.87702,-16.23436 C 140.98329,14.33859 129.65007,7.01672 115.98779,7.01672 Z"
       id="path1016-2" /><path
       style="fill:#ff7112;fill-opacity:1;stroke:none;stroke-width:6.20989;stroke-linecap:round;stroke-linejoin:round;paint-order:stroke markers fill"
       d="m 39.39866,56.09007 c -3.40782,2.05628 -6.84091,5.32568 -8.99154,8.72433 -5.98494,9.45798 -6.44495,20.33657 -4.18556,27.3193 2.40351,7.42814 7.1321,12.62299 13.03404,16.5793 L 127.83687,168.07776 84.80119,70.10165 C 82.58838,65.06392 78.70833,60.53678 74.21818,57.35657 64.28462,50.32097 50.06289,49.65528 39.39866,56.09007 Z"
       id="path4151-3" /><path
       style="fill:#fccc12;fill-opacity:1;stroke:none;stroke-width:6.20989;stroke-linecap:round;stroke-linejoin:round;paint-order:stroke markers fill"
       d="m 2.62096,140.42694 c -1.76435,3.56773 -2.71838,8.23232 -2.61308,12.25288 0.29301,11.18871 4.13559,18.83559 11.73059,24.82184 4.64623,3.66208 12.95168,6.72027 20.05698,6.72077 l 103.2383,0.007 -85.91653,-57.53773 c -2.94148,-1.96989 -9.27858,-5.41349 -17.62317,-5.47472 -7.01683,-0.0515 -13.28393,2.30146 -18.27242,6.15508 -6.4608,4.99099 -8.69833,9.20791 -10.60067,13.05466 z"
       id="path4155-4" /><path
       style="fill:#069de0;fill-opacity:1;stroke:none;stroke-width:6.20989;stroke-linecap:round;stroke-linejoin:round;paint-order:stroke markers fill"
       d="m 266.59546,56.09007 c 3.40781,2.05628 6.8409,5.32568 8.99154,8.72433 5.98494,9.45798 6.44494,20.33657 4.18556,27.3193 -2.40352,7.42814 -7.13211,12.62299 -13.03404,16.5793 l -88.58128,59.36476 43.03569,-97.97611 c 2.21281,-5.03773 6.09286,-9.56487 10.58302,-12.74508 9.93355,-7.0356 24.15527,-7.70129 34.81951,-1.2665 z"
       id="path4161-2" /><path
       style="fill:#05ac3f;fill-opacity:1;stroke:none;stroke-width:6.20989;stroke-linecap:round;stroke-linejoin:round;paint-order:stroke markers fill"
       d="m 303.45899,140.42694 c 1.76436,3.56773 2.71838,8.23232 2.61309,12.25288 -0.293,11.18871 -4.13559,18.83559 -11.73061,24.82184 -4.64622,3.66208 -12.95167,6.72027 -20.05697,6.72077 l -103.47744,0.007 86.0361,-57.53773 c 2.94275,-1.968 9.34994,-5.47472 18.12536,-5.47472 7.01703,0 13.16437,2.30146 18.15285,6.15508 6.4608,4.99099 8.43529,9.20791 10.33762,13.05466 z"
       id="path4163-3" /></g></svg>
