<?xml version="1.0" encoding="UTF-8" standalone="no"?>
<!-- Created with Inkscape (http://www.inkscape.org/) -->

<svg
   xmlns:dc="http://purl.org/dc/elements/1.1/"
   xmlns:cc="http://creativecommons.org/ns#"
   xmlns:rdf="http://www.w3.org/1999/02/22-rdf-syntax-ns#"
   xmlns:svg="http://www.w3.org/2000/svg"
   xmlns="http://www.w3.org/2000/svg"
   xmlns:sodipodi="http://sodipodi.sourceforge.net/DTD/sodipodi-0.dtd"
   xmlns:inkscape="http://www.inkscape.org/namespaces/inkscape"
   width="837.09222"
   height="526.20184"
   viewBox="0 0 837.09221 526.20187"
   version="1.1"
   id="svg87"
   inkscape:version="0.92.4 (5da689c313, 2019-01-14)"
   sodipodi:docname="NESN 2019 Stacked.svg">
  <defs
     id="defs81" />
  <sodipodi:namedview
     id="base"
     pagecolor="#ffffff"
     bordercolor="#666666"
     borderopacity="1.0"
     inkscape:pageopacity="0.0"
     inkscape:pageshadow="2"
     inkscape:zoom="0.49497475"
     inkscape:cx="220.38686"
     inkscape:cy="132.82095"
     inkscape:document-units="px"
     inkscape:current-layer="layer1"
     showgrid="false"
     inkscape:window-width="1600"
     inkscape:window-height="837"
     inkscape:window-x="-8"
     inkscape:window-y="-8"
     inkscape:window-maximized="1"
     units="px"
     fit-margin-top="0"
     fit-margin-left="0"
     fit-margin-right="0"
     fit-margin-bottom="0" />
  <metadata
     id="metadata84">
    <rdf:RDF>
      <cc:Work
         rdf:about="">
        <dc:format>image/svg+xml</dc:format>
        <dc:type
           rdf:resource="http://purl.org/dc/dcmitype/StillImage" />
        <dc:title></dc:title>
      </cc:Work>
    </rdf:RDF>
  </metadata>
  <g
     inkscape:label="Layer 1"
     inkscape:groupmode="layer"
     id="layer1"
     transform="translate(98.961118,-121.479)">
    <path
       d="m 433.92097,301.3915 c 8.65503,-11.31958 18.28042,-24.1329 29.00785,-38.70719 l 70.54731,-99.20942 c 23.73208,-36.4579 73.05569,-50.37426 91.92272,-37.01842 0,0 -16.28744,3.70789 -58.12118,61.18732 -13.72499,18.82465 -81.99594,115.9627 -104.74061,148.35615 z"
       style="fill:#383a3f;fill-opacity:1;fill-rule:nonzero;stroke:none;stroke-width:9.02601528"
       id="path214"
       inkscape:connector-curvature="0" />
    <path
       d="M 167.69778,126.49615 C 148.67095,113.0339 98.929477,127.05667 74.992486,163.835 L 3.8402275,263.88927 C -82.167044,380.71481 -98.961118,387.49874 -98.961118,387.49874 c 32.662982,12.04072 69.862621,-4.32166 94.9380708,-39.0366 0,0 96.4501942,-137.39218 113.0932572,-160.26325 42.19843,-57.95873 58.62757,-61.70274 58.62757,-61.70274"
       style="fill:#383a3f;fill-opacity:1;fill-rule:nonzero;stroke:none;stroke-width:9.02601528"
       id="path216"
       inkscape:connector-curvature="0" />
    <path
       d="m 435.18911,302.92953 v 0 c -3.06881,-4.01026 -9.61629,-12.67164 -9.61629,-12.67164 L 337.00413,164.46052 C 317.25705,137.1171 289.99305,121.15636 263.34284,121.49395 h -2.63288 c -23.18062,0 -55.99467,14.55629 -74.0783,42.34466 l -71.153,100.05425 C 29.480602,380.71751 12.677608,387.5024 12.677608,387.5024 c 32.663067,12.03976 69.862417,-4.32978 94.938502,-39.03668 0,0 90.37481,-128.9447 107.02597,-151.81576 5.0257,-6.90849 19.52504,-32.48283 46.06788,-31.21104 6.33356,0.30259 11.99106,1.89363 17.00774,4.2323 6.79564,3.17442 12.65805,8.04759 17.32811,13.91629 8.65502,10.8755 18.66218,23.78718 30.19021,39.08086 34.13912,48.26662 88.56869,125.79735 88.56869,125.79735 19.74714,27.33441 47.04722,43.29604 73.68748,42.95845 h 2.61573 c 23.17158,0 55.98571,-14.54722 74.07018,-42.34464 l 71.1521,-100.04527 c 86.00711,-116.83453 102.80093,-123.61039 102.80093,-123.61039 -32.65344,-12.0488 -69.85324,4.32165 -94.92846,39.03665 0,0 -90.37473,128.94566 -107.02687,151.81579 -5.02567,6.90934 -19.53408,32.48279 -46.06788,31.21191 -10.49631,-0.50705 -19.12521,-4.56173 -26.0635,-9.65691 z"
       style="fill:#383a3f;fill-opacity:1;fill-rule:nonzero;stroke:none;stroke-width:9.02601528"
       id="path218"
       inkscape:connector-curvature="0" />
    <path
       d="m 656.52418,467.80592 v 88.13004 l 19.27598,41.65049 -19.27598,-21.5189 v 0.3114 L 558.45563,467.80592 h -22.15796 v 178.7945 h 36.69257 V 537.58246 l 98.07756,109.01796 h 22.14084 v -178.7945 z"
       style="fill:#383a3f;fill-opacity:1;fill-rule:nonzero;stroke:none;stroke-width:9.02601528"
       id="path220"
       inkscape:connector-curvature="0" />
    <path
       d="M 61.488676,556.36108 80.640072,597.7986 58.589511,573.17655 -36.589192,467.80409 h -22.148937 v 178.79457 h 36.692552 V 537.58063 L 76.032291,646.59866 H 98.172208 V 467.80409 H 61.488676 Z"
       style="fill:#383a3f;fill-opacity:1;fill-rule:nonzero;stroke:none;stroke-width:9.02601528"
       id="path222"
       inkscape:connector-curvature="0" />
    <path
       d="m 201.70148,571.68359 h 68.39461 v -31.54051 h -68.39461 v -38.23595 h 75.85821 v -34.10121 h -113.716 v 178.7945 h 116.29567 v -34.1192 h -78.43788 z"
       style="fill:#383a3f;fill-opacity:1;fill-rule:nonzero;stroke:none;stroke-width:9.02601528"
       id="path224"
       inkscape:connector-curvature="0" />
    <path
       d="m 362.72468,642.30139 c 11.42152,3.50295 24.18612,5.37944 39.25415,5.37944 11.43956,0 17.91484,-1.21852 25.86672,-3.46774 8.11259,-2.28538 15.34425,-5.85969 21.48195,-10.6083 6.12866,-4.73954 11.06586,-10.79515 14.66819,-17.98883 3.59413,-7.20275 5.42643,-15.74858 5.42643,-25.40557 0,-10.1362 -1.98393,-18.33541 -5.89758,-24.36388 -3.92273,-6.04654 -8.93941,-10.9287 -14.89929,-14.53008 -6.00409,-3.61045 -12.53348,-6.43739 -19.40956,-8.40327 -6.93826,-1.98299 -13.51192,-3.99219 -19.54222,-5.97516 -6.07535,-1.99207 -11.1814,-4.4372 -15.17542,-7.26505 -4.09147,-2.89917 -6.16478,-7.12248 -6.16478,-12.56419 0,-3.39744 0.86291,-6.33181 2.57153,-8.7237 1.68968,-2.36478 3.92272,-4.29456 6.62688,-5.73512 2.67715,-1.42247 5.56819,-2.48121 8.57473,-3.14828 2.94428,-0.65801 5.22154,-1.00462 8.80578,-1.00462 5.9337,0 12.25735,1.2718 18.92032,3.1483 5.43456,1.52904 10.95849,4.04547 16.09974,7.91405 l 18.31559,-30.34008 c -5.57722,-2.72133 -12.22215,-6.10968 -18.51957,-8.34092 -13.64558,-4.84609 -23.07415,-6.50956 -33.89997,-6.50956 -10.55859,0 -17.01583,0.42715 -25.1555,2.83684 -8.03222,2.37386 -15.21962,5.98424 -21.36544,10.73285 -6.13772,4.7486 -11.11915,10.7238 -14.80173,17.74879 -3.67363,7.03392 -5.54202,15.32076 -5.54202,24.64912 0,9.64792 2.02816,17.50869 6.01317,23.36836 4.012,5.88676 9.10906,10.68859 15.14832,14.28097 6.08445,3.61038 12.7384,6.52669 19.80036,8.66044 7.07189,2.13464 13.77013,4.31352 19.91686,6.46537 6.14671,2.16081 11.34115,4.81895 15.42363,7.90494 4.16367,3.14735 6.28029,7.4961 6.28029,12.91984 0,3.2277 -0.82675,6.08267 -2.44604,8.46552 -1.61026,2.36567 -3.75396,4.33968 -6.36873,5.85971 -2.60674,1.51182 -5.57722,2.65905 -8.83287,3.40642 -3.13119,0.72025 -5.09705,1.12914 -9.14426,1.12914 -7.11611,0 -14.61496,-1.1653 -23.49202,-4.1529 l -0.56052,-0.18687 c -7.54308,-2.53448 -13.91183,-5.19268 -19.75615,-9.07838 l -19.97907,32.83851 0.77443,0.43594 c 6.68916,3.81435 13.1112,7.22889 20.98367,9.64792"
       style="fill:#383a3f;fill-opacity:1;fill-rule:nonzero;stroke:none;stroke-width:9.02601528"
       id="path226"
       inkscape:connector-curvature="0" />
  </g>
</svg>
