<?xml version="1.0" encoding="UTF-8" standalone="no"?>
<!DOCTYPE svg PUBLIC "-//W3C//DTD SVG 1.1//EN" "http://www.w3.org/Graphics/SVG/1.1/DTD/svg11.dtd">
<!-- Created with Vectornator (http://vectornator.io/) -->
<svg height="141.06368420600893pt" stroke-miterlimit="10" style="fill-rule:nonzero;clip-rule:evenodd;stroke-linecap:round;stroke-linejoin:round;" version="1.1" viewBox="0 0 329.57 141.064" width="329.5703291702266pt" xml:space="preserve" xmlns="http://www.w3.org/2000/svg" xmlns:xlink="http://www.w3.org/1999/xlink">
<defs/>
<clipPath id="ArtboardFrame">
<rect height="141.064" width="329.57" x="0" y="0"/>
</clipPath>
<g clip-path="url(#ArtboardFrame)" id="layer1">
<path d="M54.6875-6.6992e-14C24.4788-6.6992e-14-7.62939e-06 24.1446 0 53.9062C0 83.6823 24.4788 107.813 54.6875 107.812C84.8962 107.812 109.406 83.6823 109.406 53.9062C109.406 28.3695 91.3689 7.0034 67.1875 1.4375C67.1587 1.42308 67.1226 1.40625 67.0938 1.40625C66.5602 1.27648 66.0335 1.16344 65.5 1.0625C62.1835 0.370368 58.7876 7.94728e-08 55.3125-6.6992e-14C55.2116-6.6992e-14 55.1154-6.6992e-14 55-6.6992e-14C54.8991-6.6992e-14 54.774-6.6992e-14 54.6875-6.6992e-14ZM54.6875 14.625C61.1186 14.625 66.5564 16.8761 70.9688 21.375C73.795 24.2877 75.6517 27.9314 76.5312 32.3437C77.2378 36.1505 77.5937 43.2382 77.5938 53.5625C77.5938 63.9012 77.2378 70.9577 76.5312 74.75C75.6517 79.1623 73.795 82.8373 70.9688 85.75C66.5564 90.2489 61.1186 92.5 54.6875 92.5C48.2276 92.5 42.8018 90.2489 38.375 85.75C35.5632 82.8373 33.6921 79.1623 32.8125 74.75C32.0915 70.9577 31.7812 63.9012 31.7812 53.5625C31.7812 43.2382 32.0915 36.1505 32.8125 32.3437C33.6921 27.9314 35.5632 24.2877 38.375 21.375C42.8018 16.8761 48.2276 14.625 54.6875 14.625Z" fill="#000000" fill-rule="nonzero" opacity="1" stroke="none"/>
<path d="M227.5 2.25L227.5 2.28125C225.379 2.28125 217.563 2.28125 217.562 2.28125C217.562 2.28125 212.716 4.09807 210.625 11.625L194.844 68.0625L179.594 13.4062C179.507 13.1179 179.433 12.8509 179.375 12.5625L176.5 2.28125L160.438 2.28125L142.375 66.9375L126.438 9.9375C124.808 3.1027 119.562 2.28125 119.562 2.28125C119.562 2.28125 102.813 2.28125 102.812 2.28125C102.812 2.28125 104.455 8.85931 105.781 13.3437C106.055 14.2666 106.315 15.2046 106.531 16.1562L128.031 96.5625L130.25 104.75L150.5 104.75L168.438 41.375L187.25 104.75L191.781 104.75L193.75 104.75L197.719 104.781L197.719 104.75L200.812 104.75L200.812 104.781L206.719 104.781L234.094 2.28125L227.5 2.25Z" fill="#000000" fill-rule="nonzero" opacity="1" stroke="none"/>
<path d="M240.625 2.28125C240.625 2.28125 240.531 10.5969 240.531 13.625C240.531 13.625 240.563 104.75 240.562 104.75L256.25 104.75C256.25 104.75 260.531 104.044 260.531 96.5312L260.531 39.9375C260.581 40.0035 304.156 97.9547 306.75 101.312C309.374 104.658 314.531 104.75 314.531 104.75L314.562 104.781L329.562 104.75L329.562 2.28125L314.5 2.28125C314.5 2.28125 309.75 4.84735 309.75 9.5625C309.75 14.2837 309.719 61.9861 309.719 62.1562C302.841 53.2017 277.245 20.1869 267.438 7.0625C264.196 2.73069 257.539 2.28586 257.469 2.28125L240.625 2.28125Z" fill="#000000" fill-rule="nonzero" opacity="1" stroke="none"/>
<g opacity="1">
<path d="M41.074 133.091C41.074 136.292 40.9731 137.446 39.9782 138.47C39.2428 139.191 38.3199 139.551 37.2673 139.551C36.2147 139.551 35.2774 139.191 34.5565 138.47C33.5615 137.446 33.4606 136.292 33.4606 133.091C33.4606 129.876 33.5615 128.736 34.5565 127.713C35.2774 126.992 36.2147 126.617 37.2673 126.617C38.3199 126.617 39.2428 126.992 39.9782 127.713C40.9731 128.736 41.074 129.876 41.074 133.091M42.7467 133.091C42.7467 129.501 42.6457 128.131 41.1605 126.66C40.1944 125.694 38.8967 125.117 37.2673 125.117C35.6379 125.117 34.3257 125.694 33.3452 126.66C31.8744 128.131 31.7879 129.501 31.7879 133.091C31.7879 136.682 31.8744 138.051 33.3452 139.508C34.3257 140.488 35.6379 141.065 37.2673 141.065C38.8967 141.065 40.1944 140.488 41.1605 139.508C42.6457 138.051 42.7467 136.682 42.7467 133.091" fill="#000000" fill-rule="nonzero" opacity="1" stroke="none"/>
<path d="M54.8143 129.854C54.8143 131.916 53.4733 132.969 51.5122 132.969L47.4892 132.969L47.4892 126.754L51.5122 126.754C53.4733 126.754 54.8143 127.778 54.8143 129.854M56.4869 129.854C56.4869 127.071 54.4826 125.254 51.642 125.254L45.8166 125.254L45.8166 140.928L47.4892 140.928L47.4892 134.483L51.642 134.483C54.4826 134.483 56.4869 132.651 56.4869 129.854" fill="#000000" fill-rule="nonzero" opacity="1" stroke="none"/>
<path d="M68.2157 129.629C68.2157 131.547 66.9324 132.498 65.1011 132.498L60.9195 132.498L60.9195 126.745L65.1011 126.745C66.9324 126.745 68.2157 127.711 68.2157 129.629M70.2056 140.934L66.4853 133.811C68.5041 133.393 69.8883 131.907 69.8883 129.615C69.8883 126.904 67.9705 125.26 65.2453 125.26L59.2468 125.26L59.2468 140.934L60.9195 140.934L60.9195 133.969L64.6685 133.969L68.2445 140.934C68.2445 140.934 70.2056 140.934 70.2056 140.934Z" fill="#000000" fill-rule="nonzero" opacity="1" stroke="none"/>
<path d="M81.5176 135.926L75.6633 135.926L78.6049 127.649L81.5176 135.926ZM85.0359 140.93L79.297 125.256L77.8839 125.256L72.1161 140.93L73.8897 140.93L75.1586 137.382L81.9934 137.382L83.2623 140.93C83.2623 140.93 85.0359 140.93 85.0359 140.93Z" fill="#000000" fill-rule="nonzero" opacity="1" stroke="none"/>
<path d="M98.7964 140.928L98.7964 125.254L97.1237 125.254L97.1237 132.262L89.6833 132.262L89.6833 125.254L88.0106 125.254L88.0106 140.928L89.6833 140.928L89.6833 133.776L97.1237 133.776L97.1237 140.928L98.7964 140.928Z" fill="#000000" fill-rule="nonzero" opacity="1" stroke="none"/>
<path d="M129.397 125.256L127.624 125.256L124.552 137.901L121.106 125.256L119.606 125.256L116.146 137.901L113.089 125.256L111.301 125.256L115.309 140.93L116.867 140.93L120.342 128.385L123.817 140.93L125.389 140.93C125.389 140.93 129.397 125.256 129.397 125.256Z" fill="#000000" fill-rule="nonzero" opacity="1" stroke="none"/>
<path d="M132.024 140.935L133.697 140.935L133.697 125.261L132.024 125.261L132.024 140.935Z" fill="#000000" fill-rule="nonzero" opacity="1" stroke="none"/>
<path d="M148.918 140.928L148.918 125.254L147.26 125.254L147.26 137.77L138.926 125.254L137.339 125.254L137.339 140.928L139.012 140.928L139.012 128.354L147.332 140.928L148.918 140.928Z" fill="#000000" fill-rule="nonzero" opacity="1" stroke="none"/>
<path d="M162.304 126.749L162.304 125.25L152.571 125.25L152.571 140.924L154.243 140.924L154.243 134.017L161.121 134.017L161.121 132.517L154.243 132.517L154.243 126.749L162.304 126.749Z" fill="#000000" fill-rule="nonzero" opacity="1" stroke="none"/>
<path d="M174.331 129.629C174.331 131.547 173.033 132.498 171.202 132.498L167.02 132.498L167.02 126.745L171.202 126.745C173.033 126.745 174.331 127.711 174.331 129.629M176.292 140.934L172.586 133.811C174.619 133.393 175.989 131.907 175.989 129.615C175.989 126.904 174.086 125.26 171.361 125.26L165.333 125.26L165.333 140.934L167.02 140.934L167.02 133.969L170.784 133.969L174.345 140.934C174.345 140.934 176.292 140.934 176.292 140.934Z" fill="#000000" fill-rule="nonzero" opacity="1" stroke="none"/>
<path d="M189.068 140.928L189.068 139.428L181.022 139.428L181.022 133.776L187.885 133.776L187.885 132.262L181.022 132.262L181.022 126.754L189.068 126.754L189.068 125.254L179.335 125.254L179.335 140.928L189.068 140.928Z" fill="#000000" fill-rule="nonzero" opacity="1" stroke="none"/>
<path d="M201.873 125.256L200.057 125.256L196.394 132.754L192.703 125.256L190.886 125.256L195.572 134.455L195.572 140.93L197.245 140.93L197.245 134.455C197.245 134.455 201.873 125.256 201.873 125.256Z" fill="#000000" fill-rule="nonzero" opacity="1" stroke="none"/>
<path d="M223.573 140.928L223.573 125.254L221.886 125.254L221.886 137.77L213.581 125.254L211.994 125.254L211.994 140.928L213.667 140.928L213.667 128.354L221.987 140.928L223.573 140.928Z" fill="#000000" fill-rule="nonzero" opacity="1" stroke="none"/>
<path d="M236.513 140.928L236.513 139.428L228.453 139.428L228.453 133.776L235.316 133.776L235.316 132.262L228.453 132.262L228.453 126.754L236.513 126.754L236.513 125.254L226.78 125.254L226.78 140.928L236.513 140.928Z" fill="#000000" fill-rule="nonzero" opacity="1" stroke="none"/>
<path d="M249.129 126.749L249.129 125.25L238.386 125.25L238.386 126.749L242.914 126.749L242.914 140.924L244.587 140.924L244.587 126.749L249.129 126.749Z" fill="#000000" fill-rule="nonzero" opacity="1" stroke="none"/>
<path d="M268.666 125.256L266.892 125.256L263.835 137.901L260.389 125.256L258.875 125.256L255.414 137.901L252.357 125.256L250.569 125.256L254.592 140.93L256.15 140.93L259.625 128.385L263.114 140.93L264.671 140.93C264.671 140.93 268.666 125.256 268.666 125.256Z" fill="#000000" fill-rule="nonzero" opacity="1" stroke="none"/>
<path d="M279.767 133.091C279.767 136.292 279.652 137.446 278.657 138.47C277.95 139.191 277.013 139.551 275.96 139.551C274.908 139.551 273.985 139.191 273.25 138.47C272.269 137.446 272.154 136.292 272.154 133.091C272.154 129.876 272.269 128.736 273.25 127.713C273.985 126.992 274.908 126.617 275.96 126.617C277.013 126.617 277.95 126.992 278.657 127.713C279.652 128.736 279.767 129.876 279.767 133.091M281.44 133.091C281.44 129.501 281.339 128.131 279.854 126.66C278.888 125.694 277.59 125.117 275.96 125.117C274.331 125.117 273.004 125.694 272.024 126.66C270.568 128.131 270.481 129.501 270.481 133.091C270.481 136.682 270.568 138.051 272.024 139.508C273.004 140.488 274.331 141.065 275.96 141.065C277.59 141.065 278.888 140.488 279.854 139.508C281.339 138.051 281.44 136.682 281.44 133.091" fill="#000000" fill-rule="nonzero" opacity="1" stroke="none"/>
<path d="M293.477 129.629C293.477 131.547 292.179 132.498 290.363 132.498L286.166 132.498L286.166 126.745L290.363 126.745C292.179 126.745 293.477 127.711 293.477 129.629M295.467 140.934L291.732 133.811C293.765 133.393 295.15 131.907 295.15 129.615C295.15 126.904 293.232 125.26 290.507 125.26L284.508 125.26L284.508 140.934L286.166 140.934L286.166 133.969L289.944 133.969L293.52 140.934C293.52 140.934 295.467 140.934 295.467 140.934Z" fill="#000000" fill-rule="nonzero" opacity="1" stroke="none"/>
<path d="M309.794 140.928L304.156 131.31L309.088 125.254L307.026 125.254L299.744 134.252L299.744 125.254L298.057 125.254L298.057 140.928L299.744 140.928L299.744 136.545L303.031 132.579L307.819 140.928C307.819 140.928 309.794 140.928 309.794 140.928Z" fill="#000000" fill-rule="nonzero" opacity="1" stroke="none"/>
</g>
</g>
</svg>
