<?xml version="1.0" encoding="UTF-8" standalone="no"?>
<svg version="1.1" width="850.42371" height="565.46301" xml:space="preserve" viewBox="0 0 850.42371 565.46302" xmlns="http://www.w3.org/2000/svg" xmlns:svg="http://www.w3.org/2000/svg">
  <g>
    <path d="M255.64999 334.23031c0-39.64186-42.02132-58.73028-91.94446-58.73028-53.40349 0-102.40253 23.67364-120.38738 60.38143-4.96351 9.77988-7.54278 20.59849-7.52878 31.5682-.22702 9.48566 2.39625 18.82022 7.52878 26.79682 7.7058 11.385 21.4682 18.54103 41.65628 18.54103 24.77855 0 44.41557-13.58554 44.41557-37.26019 0 0 .36404-6.60262-7.34175-6.60262-6.23965 0-7.89381 4.40208-7.70879 6.60262.92209 18.53803-10.09304 33.40649-29.73106 33.40649-22.01627 0-31.20021-18.72116-31.20021-38.72522 0-40.93076 30.83217-68.09785 62.94847-79.84211 15.00855-5.67097 30.94718-8.47596 46.98983-8.26481 36.33675 0 66.06781 13.95181 66.06781 51.39713 0 31.19692-26.2427 57.81162-57.62893 60.19929l1.28413-4.21995c6.42566-22.94513 14.31648-48.0878 27.15979-66.62682.73908-1.10779 2.02021-2.93807 3.48937-4.77136l-1.8332-2.20455a76.31203 76.31203 0 0 0-7.89781 5.50487c-60.18919 46.98901-62.01738 179.13688-142.22363 179.13688-2.76229 0-5.51957-.18513-8.25685-.55139-16.69772-2.75193-25.51263-13.95079-25.51263-29.54475 0-3.1202 1.10311-7.34416 1.10311-9.72684.12702-4.43312-3.36134-8.12871-7.7918-8.25779-.035-.001-.068-.001-.101-.001h-.9151c-7.15574 0-10.09304 5.68197-10.27706 13.76365-.54806 23.31038 16.69772 36.88792 43.31346 39.46174 2.9333.18213 5.8706.36426 8.99092.36426 62.57744 0 100.93339-47.35329 117.26907-104.80265 8.27385-.97068 16.44269-2.6889 24.40551-5.13461 29.00298-8.08568 61.65834-27.53134 61.65834-61.85747Z"/>
    <path d="M436.00483 260.46827c-2.00143-.8304-5.28234-4.5127.17582-14.76662l12.67929-26.50632c.38498-.8011-.54045-1.8041-1.11834-1.12349l-11.08643 11.14946c-5.24574 5.47663-14.14435 20.87012-15.86743 23.71876l-13.46877 22.2704c1.0003-.03175 1.83782.7547 1.86957 1.75527.00977.32972-.06919.65537-.23034.94357l-12.31057 20.68206c-3.00581 5.129 2.39456 8.7144 3.12627 7.53392 19.34938-31.1737 30.60348-28.68492 30.60348-28.68492l6.45929-14.9612c.34022-.74981.00814-1.63314-.74148-1.97345-.02768-.01383-.05861-.02522-.09036-.03744ZM479.99572 0C369.36739 0 279.68617 89.65971 279.68617 200.2612c-.05861 42.81571 13.67388 84.512 39.16187 118.90963 8.40293-3.62774 13.07241-9.05063 16.40786-13.2035l37.29636-47.68824c.78543-1.00545 1.81098-1.79597 2.98304-2.29991l5.61443-2.41552 61.32498-77.76859 8.89211-6.95995 18.27254-25.4276a7.56285 7.56285 0 0 1 1.70437-1.71293l7.97237-5.79413c1.96969-1.43124 4.62959-1.45403 6.62207-.05536l9.67428 6.789c5.1326 3.60088 9.29255 8.41643 12.11117 14.0168l38.75084 68.04954c.63242 1.29854 1.7076 2.32841 3.03106 2.90482 7.59958 3.78242 12.24221 4.45083 22.18833 15.25264 4.64098 5.03619 24.97765 27.77555 53.47878 63.11595 4.14204 5.66958 9.68728 10.16355 16.09042 13.0423 25.41065-34.37159 39.09595-76.006 39.03573-118.75495C680.29878 89.65891 590.6216 0 479.99572 0ZM333.70619 211.29913l-12.98777-4.21718-8.02282 11.03954v-13.64311l-12.98859-4.21799 12.98859-4.21799v-13.6472l8.02282 11.04199 12.98777-4.21717-8.02445 11.04118Zm-3.07907 44.65399-4.21855 12.97962-4.21856-12.97962h-13.65029l11.04249-8.02239-4.21776-12.9788 11.0433 8.0224 11.04411-8.0224-4.21856 12.9788 11.04412 8.02239Zm2.60699-103.36959 4.21857 12.97879-11.04411-8.0224-11.0433 8.0224 4.21775-12.97879-11.04249-8.0224h13.65029l4.21855-12.9788 4.21937 12.9788h13.65031Zm21.91975-29.35984-8.01876-11.04199-12.98776 4.21718 8.02363-11.04037-8.02363-11.04117 12.98776 4.21717 8.02364-11.04118v13.64801l12.98776 4.20984-12.98776 4.21881v13.64719Zm34.13836-47.7778-4.21858 12.97961-4.21856-12.9788h-13.6511l11.04411-8.02239-4.21774-12.97963 11.04329 8.02077 11.04249-8.02238-4.21775 12.99017 11.04412 8.02242h-13.65109v-.00977Zm43.01824-21.91466-8.02366 11.04199V50.92929l-12.98858-4.21718 12.98858-4.21879V28.84611l8.02366 11.042 12.98205-4.21717-8.02363 11.04117 8.02445 11.04037Zm54.51082-12.50986 4.21855 12.97881-11.04411-8.02241-11.04411 8.02241 4.21366-12.9731-11.04247-8.02241h13.6503l4.22018-12.97879 4.21857 12.97879h13.65028Zm48.87847 9.90792v13.6472l-8.0204-11.042-12.98693 4.21799 8.02365-11.04037-8.02282-11.04117 12.98774 4.21717 8.0204-11.042v13.64721l12.98776 4.21879Zm90.57981 138.29073 12.98694 4.21717 8.0212-11.04199v13.6472l12.98857 4.21799-12.98857 4.21799v13.64637l-8.0212-11.04037-12.98694 4.21718 8.03259-11.04117Zm-51.3634-100.79127-4.22099-12.9796h-13.64949l11.04005-8.02242-4.2088-12.98041 11.03923 8.0224 11.03924-8.02078-4.20961 12.97879 11.04086 8.02242h-13.65031Zm29.92062 34.79821v-13.64638l-12.98778-4.21882 12.98778-4.20985v-13.6537l8.02038 11.04119 12.98776-4.21718-8.02039 11.04117 8.02039 11.04036-12.98776-4.21716Zm24.52021 21.33823 4.22262-12.97879 4.22102 12.97879h13.64948l-11.03924 8.02241 4.22101 12.9788-11.05063-8.02241-11.04004 8.02241 4.221-12.9788-11.05144-8.02241Zm8.44283 111.38793-4.22101 12.97962-4.22264-12.97962H615.7067l11.05144-8.02239-4.22101-12.9788 11.04006 8.0224 11.05062-8.0224-4.221 12.9788 11.03922 8.02239Zm-85.25106 60.04345c.96207-1.39867 2.52561-5.23484-.4094-12.34379l-8.86361-23.83192c-1.20298-3.04238 1.43169-4.88801 3.19954-2.8877 0 0 16.75215 19.3127 21.08138 27.37661l8.26132 13.71234c7.10718.45917 26.72108.99404 45.60163.99404-1.90132-1.88795-3.65695-3.91675-5.2555-6.06849-32.21749-39.93532-52.65019-62.15039-52.85448-62.37021-6.52929-7.09675-9.54731-8.4604-14.52769-10.72855-.72117-.32727-1.50334-.68063-2.3083-1.06408v6.06281c.04965.40951-.24335.78157-.65358.83042-.33126.03907-.64951-.14654-.77729-.45511l-47.36622-83.19067-.13186-.26295c-1.97538-3.9184-4.88679-7.28888-8.47618-9.81186l-4.62065-3.24754-22.59692 52.12116c2.69979-.00081 4.89005 2.18756 4.89167 4.88801a4.8725 4.8725 0 0 1-.40208 1.94414l-20.87792 48.28746h19.16462c7.40668 0 14.74339 1.4418 21.59823 4.24974l5.05122 2.07031s-15.2407 31.35119-15.2407 47.85923c.02198 3.00249.44115 5.9879 1.24449 8.88048h35.13135l-1.62705-9.89569a376.29976 376.29976 0 0 0 41.76317 6.88669v-.00488Z"/>
    <path d="M849.68959 348.06761h-22.0321l-4.94969 11.55701-8.63021 19.44103h-10.27044l-3.13344 6.60401h10.65349l-12.85479 28.43003c-9.16228 19.99103-23.4823 39.61706-31.74246 39.61706-1.83227 0-2.94042-.738-2.94042-2.56501 0-1.827.54708-3.49 2.57137-8.62301 2.57136-6.05701 6.79696-14.85802 9.91539-21.27603 4.58065-9.35301 11.92568-23.84303 11.92568-30.99604 0-7.15401-4.58165-12.84101-13.58091-12.84101-10.09242 0-19.26971 6.059-27.7219 14.85402l5.51178-13.20402h-20.73191l-16.89136 38.51705c-6.78296 13.57302-20.55589 36.13305-29.1861 36.13305-1.83225 0-2.57137-1.103-2.57137-2.93501.17903-1.647.61209-3.257 1.28618-4.771.73812-1.65001 10.83151-25.30904 10.83151-25.30904l18.3536-42.00205h-22.38714l-17.80751 40.89805c-5.49677 12.65802-19.44572 34.11705-28.44598 34.11705-1.56723.153-2.96442-.992-3.11744-2.56301v-.741c0-2.198 1.65524-6.23601 2.94142-9.17201l9.3543-20.53803 19.2687-42.00205h-22.19511l-4.41862 9.53701c-3.29445 6.41801-8.80724 13.93802-17.61347 13.93802-4.2256 0-6.23588-1.646-7.15201-3.30001-1.28517-14.12301-10.28444-21.64402-23.49628-21.64402-18.3536 0-31.38541 10.82101-40.01662 24.02903-5.6538 9.10301-10.09542 18.90502-13.20785 29.15804-7.89411 13.02601-16.14827 23.11603-22.75719 23.11603-1.65325 0-2.7564-.922-2.7564-3.12001 0-2.201 2.20431-7.15101 2.93842-8.99201l14.49903-30.81104c4.03756-9.53301 6.79695-15.77002 6.79695-22.00803 0-6.60401-4.58064-11.37601-12.1177-11.37601-10.46146 0-21.84307 6.057-30.83433 15.95702.30505-1.571.42707-3.17301.36606-4.77101 0-7.33801-3.66752-11.19101-11.19658-11.19101-9.54034 0-19.44972 5.692-28.44198 15.95802l5.87383-14.31302h-20.19185l-17.06438 38.52805c-8.07414 18.16002-21.10496 36.13905-28.44899 36.13905-1.64923 0-2.75139-.924-2.75139-3.12201 0-3.483 3.85454-12.10401 5.32074-15.59002l22.57617-51.17007c1.65123-3.85-9.17929-6.238-22.94323-6.238-14.13097 0-28.63101 6.97301-39.2725 15.95702-7.52405 6.23301-13.03083 9.35401-15.78922 9.35401-.89912.192-1.78525-.381-1.97927-1.279a1.6468 1.6468 0 0 1-.036-.37c0-3.11901 7.52405-11.92702 7.52405-18.71103 0-3.117-1.64924-5.137-5.87583-5.137-8.07012 0-17.61847 7.70501-24.59144 15.77202l5.87381-14.12502h-19.81778L293.0455 417.3927c-8.07714 18.16002-21.47502 37.05405-28.81605 37.05405-1.65324 0-2.74937-.915-2.74937-3.12001 0-3.484 3.6705-11.91701 5.68778-16.32402l22.57517-51.35307c1.65123-3.85-9.17829-6.238-22.94523-6.238-20.37184 0-40.19463 13.75601-50.6541 27.88003-11.56062 15.21802-19.44973 31.36104-19.63575 44.56906-.18002 10.63702 5.31875 17.23902 16.33329 17.23902 12.29772 0 22.21112-9.71901 27.89692-17.05802-.33704 1.452-.58409 2.92201-.73911 4.40401 0 7.33201 2.93741 12.65301 11.92867 12.65301 7.89011 0 18.35258-6.603 26.79576-17.05802l-6.79895 15.59202h21.47002l21.10795-47.87206c6.98998-15.58702 14.88208-23.65403 17.0764-23.65403.50508-.097.99315.233 1.09115.738.01.058.016.118.016.178 0 1.652-3.30147 6.05901-3.30147 10.08701 0 4.02901 2.19533 7.15101 8.07714 7.15101 4.58065 0 9.72237-2.202 14.31201-5.14-10.82751 14.67901-18.17555 30.08404-18.17555 42.74305-.18102 10.63802 5.31875 17.23902 16.33529 17.23902 11.55964 0 22.38815-11.00501 28.26097-18.34202a44.55187 44.55187 0 0 0-.36604 5.13501c0 7.15701 4.03954 13.20701 12.29671 13.20701 9.17329 0 16.51733-5.689 25.69361-16.87202l-6.79695 15.40602h22.01908l20.18584-45.67206c8.81024-19.80902 20.73691-30.45104 26.61074-30.45104 1.4672-.151 2.78238.915 2.93541 2.38401 0 .003 0 .006.001.009v.546c-.24205 2.228-.86314 4.399-1.83427 6.418l-28.97106 66.94809h22.57416l20.55689-46.59006c8.80424-19.98902 18.5356-29.71504 25.87562-29.71504 2.20133 0 3.12245 1.108 3.12245 3.48601-.19603 2.554-.88212 5.047-2.01929 7.34501l-19.82377 42.18105a39.04642 39.04642 0 0 0-3.30447 12.83602c0 6.42101 3.48549 12.11601 13.40089 12.11601 12.85579 0 22.57416-9.72101 33.5817-24.21003v3.11601c.92114 11.55501 7.34303 21.64303 24.40943 21.64303 20.18682 0 36.52913-13.94002 46.43052-36.12805 3.74451-7.80101 6.16785-16.17302 7.166-24.77003 2.21031 1.121 4.68065 1.63 7.152 1.478 3.33547.037 6.62194-.785 9.54635-2.38801l-3.48651 7.51701c-4.04956 8.43902-8.45317 17.79403-11.92567 25.68604-2.1993 4.666-3.50849 9.70201-3.85553 14.85002 0 7.88401 4.40262 13.57502 13.38788 13.57502s21.29398-8.43802 30.10222-20.35903h.19102c-.59009 2.465-.90112 4.98501-.93113 7.51801 0 6.60501 2.02429 12.84202 11.20057 12.84202 10.6545 0 18.90066-7.70501 26.98279-17.42803l-6.79696 15.40902h22.20912l17.80849-40.35105c10.09343-22.74303 20.18585-36.49605 29.53815-36.49605 1.60723-.057 2.98142 1.148 3.13344 2.75001v.542c0 3.855-5.51177 14.31001-10.46247 24.76303-4.59564 9.53801-8.08312 16.87102-10.46246 22.56303-2.2083 4.794-3.51449 9.95201-3.85554 15.21902 0 6.96601 3.85554 12.28701 12.48675 12.28701 12.84081 0 25.87462-12.47201 32.8346-21.82802-1.57022 4.485-2.43334 9.18601-2.55736 13.93601 0 12.84502 7.69808 19.26303 18.52961 19.26303 7.19701-.055 14.19299-2.363 20.0088-6.60001 8.43819-5.87201 15.23613-14.67402 20.92494-22.74403l-3.85553-3.672c-5.31975 7.52201-11.20058 14.67702-17.26043 19.07902-3.19345 2.699-7.20001 4.24901-11.3796 4.40201-4.57965 0-7.52106-2.38701-7.52106-8.25101 0-5.86301 2.74839-13.75902 6.97598-24.39904.17602-.179 6.23487-13.75501 11.92468-26.77303 4.77267-11.01302 9.54533-21.64603 10.46246-23.84703h14.49704l2.93842-6.60401h-14.31702ZM223.66676 453.89875c-3.11844 0-5.32074-1.1-5.32074-5.13501.18202-10.82301 9.17228-30.08004 20.37485-45.48906 7.88912-10.63801 18.16555-18.52102 29.17809-18.52102l-13.94995 31.17404c-10.46147 23.48103-21.84006 37.97105-30.28225 37.97105Zm137.28026 0c-3.11744 0-5.31974-1.1-5.50076-5.13501.18202-10.82301 9.17328-30.08004 20.37184-45.48906 7.88712-10.63801 18.16756-18.52102 29.1791-18.52102l-13.95196 31.17504c-10.6415 24.03403-21.46901 37.97105-30.10122 37.97105h.003Zm243.72219-60.70608c-.54709 11.91801-11.00955 40.71005-23.30427 57.95807-4.94969 6.96801-9.17729 8.98302-12.84079 8.98302-5.14373 0-6.62094-4.22101-5.88282-10.45402 1.09413-10.82001 10.09339-36.13105 22.58016-53.55607 5.6888-7.88701 9.54633-11.18901 13.94895-11.18901 4.40461.001 5.68981 3.671 5.49877 8.25801Z"/>
    <path d="M564.23438 509.26953c-3.8094 0-7.35965.69659-10.6543 2.08594-3.29461 1.38935-6.15273 3.31718-8.57227 5.78711-2.368 2.46999-4.24677 5.45598-5.63672 8.95508-1.3899 3.44768-2.08593 7.20436-2.08593 11.26953 0 4.1166.69603 7.89809 2.08593 11.3457 1.38995 3.44766 3.26872 6.40701 5.63672 8.87695 2.41954 2.46996 5.27766 4.3978 8.57227 5.78711 3.29465 1.38937 6.84491 2.08594 10.6543 2.08594 3.80943 0 7.36162-.69657 10.65624-2.08594 3.29465-1.38931 6.12613-3.31715 8.49415-5.78711 2.41952-2.46994 4.30018-5.42929 5.63867-8.87695 1.38992-3.44761 2.08398-7.2291 2.08398-11.3457 0-4.06517-.69406-7.82185-2.08398-11.26953-1.33849-3.4991-3.21915-6.48509-5.63867-8.95508-2.36802-2.46993-5.19948-4.39776-8.49415-5.78711-3.29462-1.38935-6.84681-2.08594-10.65624-2.08594zm-350.64844 1.15039v53.94336h10.11523v-36.29687l26.71485 36.29687h9.34375v-53.94336h-10.11524v36.06446l-26.63867-36.06446h-9.41992zm90.16015 0v53.94336h37.37305v-9.40234h-26.25586v-14.29883h22.39453v-9.32422h-22.39453V519.7207h26.25586v-9.30078h-37.37305zm68.1543 0v9.30078h15.59766v44.64258h11.12109V519.7207h15.5957v-9.30078h-42.31445zm72.20703 0 14.28516 53.94336h11.8164l8.88086-36.14258 8.95508 36.14258h11.81641l14.28515-53.94336h-11.8164l-8.95508 39.5332-9.80859-39.5332h-8.72461l-9.73047 39.5332-8.95508-39.5332h-12.04883zm176.81836 0v53.94336h11.1211v-23.58203h7.10351l15.21094 23.58203h12.58594l-16.0625-24.42773c3.3976-.92474 6.15309-2.59515 8.26367-5.00977 2.16214-2.46599 3.24219-5.62733 3.24218-9.48047 0-4.72651-1.56879-8.49901-4.70898-11.11914-3.08872-2.6715-7.18093-3.90625-12.27734-3.90625h-24.47852zm81.70117 0v53.94336h11.01953v-19.80469l5.01954-5.24023 16.0625 25.04492h12.8164l-21.3125-33.05859 19.61328-20.88477h-12.27734l-19.92188 22.34766v-22.34766h-11.01953zm-138.39257 8.73047c2.11066 0 4.11875.41304 6.02343 1.23633 1.90473.82333 3.55342 2.02982 4.94336 3.625 1.38992 1.54371 2.49472 3.44879 3.31836 5.71289.82367 2.26415 1.23633 4.8124 1.23633 7.64258 0 5.66034-1.46611 10.11169-4.40039 13.35351-2.93424 3.19037-6.64245 4.78321-11.12109 4.78321-4.47862 0-8.18485-1.59284-11.11915-4.78321-2.93427-3.24182-4.40039-7.69317-4.40039-13.35351 0-5.66033 1.4414-10.11363 4.32422-13.35547 2.93425-3.24184 6.66519-4.86133 11.19532-4.86133zm67.8125.20703h11.89062c2.52245 0 4.44613.61856 5.68164 1.85156 1.23548 1.233 1.85352 2.80029 1.85352 4.70118 0 1.90086-.66296 3.46623-1.89844 4.69922-1.18404 1.23297-3.0381 1.85156-5.56055 1.85156h-11.96679v-13.10352z"/>
  </g>
</svg>
