<?xml version="1.0" encoding="UTF-8" standalone="no"?>
<!-- Created with Inkscape (http://www.inkscape.org/) -->

<svg xmlns:dc="http://purl.org/dc/elements/1.1/" xmlns:cc="http://creativecommons.org/ns#" xmlns:rdf="http://www.w3.org/1999/02/22-rdf-syntax-ns#" xmlns:svg="http://www.w3.org/2000/svg" xmlns="http://www.w3.org/2000/svg" xmlns:sodipodi="http://sodipodi.sourceforge.net/DTD/sodipodi-0.dtd" xmlns:inkscape="http://www.inkscape.org/namespaces/inkscape" width="1000" height="524.79474" id="svg16423" version="1.1" inkscape:version="0.48.5 r10040" sodipodi:docname="Pop_channel_blue.svg">
  <defs id="defs16425" />
  <sodipodi:namedview id="base" pagecolor="#ffffff" bordercolor="#666666" borderopacity="1.0" inkscape:pageopacity="0.0" inkscape:pageshadow="2" inkscape:zoom="0.22775807" inkscape:cx="520.27211" inkscape:cy="225.6523" inkscape:document-units="px" inkscape:current-layer="layer1" showgrid="false" fit-margin-left="0.5" fit-margin-top="0.5" fit-margin-bottom="0.5" fit-margin-right="0.5" inkscape:window-width="1366" inkscape:window-height="706" inkscape:window-x="-8" inkscape:window-y="-8" inkscape:window-maximized="1">
    <inkscape:grid type="xygrid" id="grid16442" empspacing="5" visible="true" enabled="true" snapvisiblegridlinesonly="true" originx="3131.4661px" originy="801.1714px" />
  </sodipodi:namedview>
  <metadata id="metadata16428">
    <rdf:RDF>
      <cc:Work rdf:about="">
        <dc:format>image/svg+xml</dc:format>
        <dc:type rdf:resource="http://purl.org/dc/dcmitype/StillImage" />
        <dc:title></dc:title>
      </cc:Work>
    </rdf:RDF>
  </metadata>
  <g inkscape:label="Layer 1" inkscape:groupmode="layer" id="layer1" transform="translate(95.5,-700.53017)">
    <g id="g3020">
      <path inkscape:connector-curvature="0" id="rect3006" d="m -94.999947,701.01715 998.959847,0 0,523.78185 -998.959847,0 z" style="fill:#e6e6e6;fill-opacity:1;fill-rule:evenodd;stroke:none" />
      <path sodipodi:nodetypes="cccccccccccccccccccccccccc" inkscape:connector-curvature="0" id="path16468" d="m 58.466399,1143.1946 -98.671288,0 102.122445,-380.14299 123.478614,0 c 92.86657,0 142.75162,40.67032 148.89127,104.78315 0,0 32.0452,-24.69209 85.47265,-24.69209 63.85575,0 119.5096,31.14621 137.63667,96.76659 l 23.91722,-91.17394 97.92424,0 -3.90431,15.40619 c 0,0 21.18949,-21.42093 62.67997,-21.42093 73.33521,0 115.86293,55.47933 115.86293,127.25928 0,113.61784 -85.69339,178.62174 -162.99884,178.62174 -59.54999,0 -82.76144,-34.69 -82.76144,-34.69 l -29.033,110.9133 324.91647,0 0,-523.79473 -999,0 0,523.79473 576.2714,0 35.26818,-132.4086 c -24.29144,28.9006 -68.19705,57.1553 -124.30889,57.1553 -85.61599,0 -142.95418,-55.4609 -142.81347,-136.5458 0,0 -31.35268,21.0415 -108.63971,21.0415 l -52.976778,0 z" style="fill:#798fff;fill-opacity:1;stroke:none" />
      <path sodipodi:nodetypes="cccccc" inkscape:connector-curvature="0" id="path16472" d="m 135.40522,853.34928 45.2168,0 c 35.73711,0 53.126,14.88407 53.126,37.60607 0.47484,33.90289 -34.57782,54.76753 -77.15209,54.76753 l -44.91836,0 z" style="fill:#798fff;fill-opacity:1;stroke:none" />
      <path sodipodi:nodetypes="ccccc" inkscape:connector-curvature="0" id="path16474" d="m 345.15619,1010.3947 c 0,-45.83111 36.59176,-81.99042 70.59409,-81.99042 32.21996,0 50.96703,20.89871 50.96703,53.81611 0,43.83611 -33.86571,81.77941 -70.80513,81.77941 -28.41992,0 -50.75599,-16.515 -50.75599,-53.6051 z" style="fill:#798fff;fill-opacity:1;stroke:none" />
      <path style="fill:#798fff;fill-opacity:1;stroke:none" d="m 640.40619,1010.3948 c 0,-45.83119 35.49822,-81.3573 69.8572,-81.3573 32.55789,0 52.97891,22.16497 52.97891,53.18295 0,43.83605 -32.11048,81.77945 -71.54778,81.77945 -28.71798,0 -51.28833,-16.5152 -51.28833,-53.6051 z" id="path16476" inkscape:connector-curvature="0" sodipodi:nodetypes="ccccc" />
    </g>
  </g>
</svg>
