<?xml version="1.0" encoding="UTF-8" standalone="no"?>
<!-- Created with Inkscape (http://www.inkscape.org/) -->

<svg
   xmlns:dc="http://purl.org/dc/elements/1.1/"
   xmlns:cc="http://creativecommons.org/ns#"
   xmlns:rdf="http://www.w3.org/1999/02/22-rdf-syntax-ns#"
   xmlns:svg="http://www.w3.org/2000/svg"
   xmlns="http://www.w3.org/2000/svg"
   xmlns:sodipodi="http://sodipodi.sourceforge.net/DTD/sodipodi-0.dtd"
   xmlns:inkscape="http://www.inkscape.org/namespaces/inkscape"
   width="1000"
   height="466.16541"
   id="svg3792"
   version="1.1"
   inkscape:version="0.48.5 r10040"
   sodipodi:docname="drawing-1.svg">
  <defs
     id="defs3794">
	
	
	
	
</defs>
  <sodipodi:namedview
     id="base"
     pagecolor="#ffffff"
     bordercolor="#666666"
     borderopacity="1.0"
     inkscape:pageopacity="0.0"
     inkscape:pageshadow="2"
     inkscape:zoom="0.5"
     inkscape:cx="769.98188"
     inkscape:cy="120.16287"
     inkscape:document-units="px"
     inkscape:current-layer="layer1"
     showgrid="false"
     showguides="true"
     inkscape:guide-bbox="true"
     fit-margin-top="0"
     fit-margin-left="0"
     fit-margin-right="0"
     fit-margin-bottom="0"
     inkscape:window-width="1020"
     inkscape:window-height="1026"
     inkscape:window-x="891"
     inkscape:window-y="-12"
     inkscape:window-maximized="0">
    <inkscape:grid
       type="xygrid"
       id="grid4020"
       empspacing="5"
       visible="true"
       enabled="true"
       snapvisiblegridlinesonly="true"
       originx="-1920px"
       originy="2560px" />
    <sodipodi:guide
       orientation="0,1"
       position="-239.00003,2848"
       id="guide4022" />
    <sodipodi:guide
       orientation="0,1"
       position="-240.00003,3176"
       id="guide4024" />
    <sodipodi:guide
       orientation="0,1"
       position="513.0535,193.52335"
       id="guide4176" />
    <sodipodi:guide
       orientation="0,1"
       position="687.0418,498.19915"
       id="guide4178" />
  </sodipodi:namedview>
  <metadata
     id="metadata3797">
    <rdf:RDF>
      <cc:Work
         rdf:about="">
        <dc:format>image/svg+xml</dc:format>
        <dc:type
           rdf:resource="http://purl.org/dc/dcmitype/StillImage" />
        <dc:title></dc:title>
      </cc:Work>
    </rdf:RDF>
  </metadata>
  <g
     inkscape:label="Layer 1"
     inkscape:groupmode="layer"
     id="layer1"
     transform="translate(-1920,-3146.1967)">
    <g
       id="g4140"
       transform="matrix(0.41290118,0,0,0.41290118,1709.0075,2629.0949)">
      <path
         style="fill:#529ee9;fill-opacity:1;stroke:none"
         d="m 2526.0223,1552.4759 87.5566,1e-4 0,-47.1137 c 0,-31.9939 -9.7747,-68.0328 -37.0994,-97.6085 -25.6716,-27.212 -63.653,-41.0025 -101.692,-41.0025 -50.1088,0 -82.5007,19.9086 -102.8633,39.7547 -26.1732,27.1316 -41.2918,58.0598 -41.2918,105.8561 l 0,340 c 0,45.0338 13.7046,75.2566 39.2163,102.6642 29.2232,28.0119 62.0418,38.9035 107.1606,38.9035 47.7821,0 77.9236,-22.6711 97.7541,-41.4401 23.4623,-23.8617 38.8155,-55.2397 38.8155,-100.1276 l 0,-37 -87.5566,0 0,37.9634 c 0,29.6257 -18.3678,52.6759 -52.9513,52.6759 -15.6382,0 -29.4034,-3.6583 -40.1092,-15.3471 -10.2343,-11.174 -14.9395,-32.0896 -14.9395,-42.2922 l 0,-329 c 0,-22.1436 9.7124,-45.2048 17.4538,-52.0621 9.5481,-8.5152 20.2329,-12.3262 37.9849,-12.3262 33.4273,0 52.5613,27.9978 52.5613,61.3883 z"
         id="path4157"
         inkscape:connector-curvature="0"
         sodipodi:nodetypes="ccccccccccccccccscccccc" />
      <path
         style="fill:#529ee9;fill-opacity:1;fill-rule:evenodd;stroke:none"
         d="m 1359.2434,2911.8658 129,0 0,-43.4766 -82,0 0,-88 65,0 0,-44 -65,0 0,-84 82,0 0,-45.197 -129,0 -19,20.197 0,268 z"
         id="path4159"
         inkscape:connector-curvature="0"
         transform="matrix(2.0232975,0,0,2.0232975,-1110.1538,-3901.764)"
         sodipodi:nodetypes="ccccccccccccccc" />
      <path
         style="fill:#529ee9;fill-opacity:1;fill-rule:evenodd;stroke:none"
         d="m 1518.2434,2911.8658 0,-304.6758 59,0 49.5581,185.5117 0,-185.5117 42.4419,0 0,305.1992 -49,0 -59.4375,-222.125 0,220.4766 z"
         id="path4161"
         inkscape:connector-curvature="0"
         transform="matrix(2.0232975,0,0,2.0232975,-1110.1538,-3901.764)"
         sodipodi:nodetypes="ccccccccccc" />
      <path
         sodipodi:nodetypes="ccccccccccccc"
         inkscape:connector-curvature="0"
         id="path4180"
         d="m 2671.8816,1989.8068 261.0054,0 0,-87.9661 -165.9104,0 0,-178.0502 131.5144,0 0,-89.0251 -131.5144,0 0,-169.957 165.9104,0 0,-91.4469 -261.0054,0 z"
         style="fill:#529ee9;fill-opacity:1;fill-rule:evenodd;stroke:none" />
      <path
         transform="translate(1118.7566,506.97294)"
         inkscape:connector-curvature="0"
         id="path4092"
         d="m -607.7566,1874.3892 0,-866 263,-262.99996 866,0 0,870.99996 -258,258 z"
         style="fill:#529ee9;fill-opacity:1;stroke:none" />
      <path
         sodipodi:nodetypes="cccccccccccccccccccczccccccccc"
         transform="translate(1118.7566,506.97294)"
         inkscape:connector-curvature="0"
         id="path4084"
         d="m -319.7566,1308.3892 87,0 0,16.7701 c 0,9.6885 -3.77626,73.8436 63.87843,73.8436 22.59062,0 35.88132,-5.0751 47.12157,-15.6137 9.41248,-8.9943 16.98321,-21.1551 16.98321,-78.0482 0,-37.6443 -1.79673,-57.5497 -15.98321,-72.3279 -6.95849,-7.1774 -24.37602,-15.7659 -52,-26.6239 l -57.50023,-23.9233 c -18.95445,-8.9242 -35.25506,-19.6511 -49.77549,-34.5804 -21.80004,-23.1628 -35.17016,-61.4536 -35.17016,-117.9882 0,-49.32583 13.61814,-99.44452 47.30201,-131.37561 25.13007,-23.08956 55.83735,-38.76109 104.36542,-38.76109 50.05249,0 83.523084,20.99451 106.622571,43.58531 26.737609,30.5881 36.662783,59.3647 36.662783,93.30833 l 0,48.73496 -87.506904,0 0,-26 c 0,-28.09608 -8.50422,-71.40818 -59.88083,-71.40818 -38.49754,0 -59.53357,24.22796 -59.53357,81.12458 0,26.2858 1.35532,41.2004 9.66221,53.9964 8.30689,12.796 24.42746,19.1763 37.1673,25.8193 l 71.7045,28.1231 c 24.170148,9.9106 41.516026,19.8202 55.88039,34.3448 25.005553,25.5673 36.158289,60.908 36.158289,133.0144 0,61.912 -11.81819,112.3173 -46.158289,145.9856 -24.457802,22.4649 -55.68328,36.5406 -104.96355,36.5406 -50.18276,0 -84.16026,-17.9625 -111.03645,-44.5406 -26.87619,-26.578 -41,-62.5895 -41,-99 z"
         style="fill:#ffffff;stroke:none" />
      <rect
         transform="translate(1118.7566,506.97294)"
         y="866.38922"
         x="359.24341"
         height="616.44897"
         width="86.999992"
         id="rect4086"
         style="fill:#ffffff;stroke:none" />
      <path
         sodipodi:nodetypes="ccccccccccccccccscccccc"
         inkscape:connector-curvature="0"
         id="path4090"
         d="m 221.2434,1045.503 87.5566,10e-5 0,-47.11373 c 0,-31.99391 -9.7747,-68.03281 -37.09943,-97.60853 -25.67156,-27.21199 -63.65294,-41.00248 -101.69195,-41.00248 -50.10881,0 -82.500691,19.90862 -102.863329,39.75472 -26.173127,27.13155 -41.291817,58.05976 -41.291817,105.85612 l 0,340 c 0,45.0338 13.704619,75.2566 39.216318,102.6642 29.223212,28.0119 62.041818,38.9035 107.160608,38.9035 47.78208,0 77.92357,-22.6711 97.75409,-41.4401 C 293.44685,1421.6551 308.8,1390.2771 308.8,1345.3892 l 0,-37 -87.5566,0 0,37.9634 c 0,29.6257 -18.36777,52.6759 -52.95125,52.6759 -15.63828,0 -29.40341,-3.6583 -40.10919,-15.3471 -10.23431,-11.174 -14.93956,-32.0896 -14.93956,-42.2922 l 0,-329 c 0,-22.14366 9.71243,-45.20484 17.45386,-52.0621 9.54807,-8.51521 20.23281,-12.3262 37.98481,-12.3262 33.42733,0 52.56133,27.9978 52.56133,61.3883 z"
         style="fill:#ffffff;stroke:none"
         transform="translate(1118.7566,506.97294)" />
    </g>
  </g>
</svg>
