<?xml version="1.0" encoding="UTF-8" standalone="no"?>
<!-- Generator: Adobe Illustrator 25.4.1, SVG Export Plug-In . SVG Version: 6.00 Build 0)  -->

<svg
   version="1.1"
   id="svg2"
   inkscape:version="1.2 (dc2aedaf03, 2022-05-15)"
   sodipodi:docname="Showtime_Women_(2022-).svg"
   x="0px"
   y="0px"
   viewBox="0 0 1000.0073 451.9527"
   xml:space="preserve"
   width="1000.0073"
   height="451.9527"
   xmlns:inkscape="http://www.inkscape.org/namespaces/inkscape"
   xmlns:sodipodi="http://sodipodi.sourceforge.net/DTD/sodipodi-0.dtd"
   xmlns="http://www.w3.org/2000/svg"
   xmlns:svg="http://www.w3.org/2000/svg"><defs
   id="defs25" />
<style
   type="text/css"
   id="style2">
	.st0{fill-rule:evenodd;clip-rule:evenodd;fill:#FF0000;}
	.st1{fill:#FF0000;}
</style>
<sodipodi:namedview
   bordercolor="#666666"
   borderopacity="1"
   gridtolerance="10"
   guidetolerance="10"
   id="namedview11"
   inkscape:current-layer="layer1"
   inkscape:cx="519.9966"
   inkscape:cy="278.31902"
   inkscape:pageopacity="0"
   inkscape:pageshadow="2"
   inkscape:window-height="705"
   inkscape:window-maximized="1"
   inkscape:window-width="1366"
   inkscape:window-x="-8"
   inkscape:window-y="-8"
   inkscape:zoom="0.64135035"
   objecttolerance="10"
   pagecolor="#ffffff"
   showgrid="false"
   inkscape:showpageshadow="0"
   inkscape:pagecheckerboard="0"
   inkscape:deskcolor="#d1d1d1">
	</sodipodi:namedview>
<g
   id="layer1"
   transform="translate(451.6073,-301.8)"
   inkscape:groupmode="layer"
   inkscape:label="Layer 1">
	<path
   id="path3680"
   inkscape:connector-curvature="0"
   class="st0"
   d="m -416.2,564.2 c 11.4,0 19.6,-10.1 19.6,-24.7 0,-30.3 -26.6,-36.2 -55,-61.8 -0.4,51.9 15.7,86.5 35.4,86.5" />
	<path
   id="path3682"
   inkscape:connector-curvature="0"
   class="st0"
   d="m -215.1,601.7 h -41 v -102 h -44.3 v 102 h -41.1 V 366.4 h 41 v 94.7 h 44.3 v -94.7 h 41 V 601.7 Z M -198,483.4 c 0,-71.8 26.5,-117 58.2,-121.8 -31.7,-39 -84.6,-59.8 -132.7,-59.8 -52.9,0 -100.5,23 -133.3,59.5 31.3,6.2 41.9,32.4 41.9,73 h -38.2 c 0,-23.9 -5,-36.3 -19.1,-36.3 -6.4,0 -11.4,3.2 -14.3,8.7 -0.4,1 -0.8,1.8 -1.2,2.8 -1.1,3.1 -1.7,6.6 -1.7,10.6 0,49.6 81.5,47.2 81.5,123.4 0,29.8 -22.8,57.6 -48.5,57.6 33.8,36.9 79.9,59 133,59 51.6,0 98.2,-21.9 130.9,-56.8 -30.3,-7.7 -56.5,-51.1 -56.5,-119.9" />
	<path
   id="path3684"
   inkscape:connector-curvature="0"
   class="st0"
   d="m -157.3,479.6 c 0,-39.6 11.5,-79.2 32.5,-79.2 25,0 31.3,61.2 31.3,80.5 0,42.4 -13.3,80.7 -31.3,80.7 -21.5,0.1 -32.5,-40.3 -32.5,-82" />
	<path
   id="path3686"
   inkscape:connector-curvature="0"
   class="st1"
   d="M 252,369.7 H 79.3 L 62.9,504 H 62.3 L 43.9,369.7 H 6.3 L -13.6,504 h -0.7 L -29,369.7 h -37.9 l 30.5,228.8 H 0.2 L 20.8,453.6 h 0.6 L 41.3,598.5 H 79.2 L 104.5,405 H 140 v 193.5 h 41.7 V 405 H 220 v 193.5 h 41.8 V 369.7 H 252" />
	<path
   id="path3688"
   inkscape:connector-curvature="0"
   class="st1"
   d="m 282.3,369.7 h 55.6 L 356.6,487 h 0.6 l 19.6,-117.3 h 54.3 V 598.5 H 393.8 V 430.7 h -0.7 l -28.3,167.8 h -23.2 l -28,-167.8 H 313 v 167.8 h -30.9 l 0.2,-228.8" />
	<path
   id="path3690"
   inkscape:connector-curvature="0"
   class="st1"
   d="m 451.6,369.7 h 94.5 V 405 h -52.7 v 58.5 h 38.9 v 37.3 h -38.9 v 62.4 h 55 v 35.4 H 451.6 V 369.7" />
</g>
<g
   id="g22"
   transform="translate(0.03608174,0.05271)">
	<path
   d="m 513,348.1 h 21 l -28.4,102.3 h -24.4 l -18.9,-72.7 -18.9,72.7 H 419 L 390.8,348.1 H 413 l 18.9,78.6 19.4,-78.6 h 23.4 l 19.4,78.8 z"
   id="path12" />
	<path
   d="m 560,436.7 c -10.3,-10.1 -15.5,-22.6 -15.5,-37.4 0,-14.8 5.2,-27.3 15.5,-37.4 10.3,-10.1 23.1,-15.2 38.3,-15.2 15.2,0 28,5.1 38.3,15.2 10.3,10.1 15.5,22.6 15.5,37.4 0,14.8 -5.2,27.3 -15.5,37.4 -10.3,10.1 -23.1,15.2 -38.3,15.2 -15.2,0 -27.9,-5 -38.3,-15.2 z m 15.4,-61.2 c -6.2,6.4 -9.3,14.4 -9.3,23.8 0,9.5 3.1,17.4 9.3,23.8 6.2,6.4 13.8,9.6 22.9,9.6 9.2,0 16.8,-3.2 23,-9.6 6.1,-6.4 9.2,-14.4 9.2,-23.8 0,-9.5 -3.1,-17.4 -9.2,-23.8 -6.1,-6.4 -13.8,-9.6 -23,-9.6 -9,-0.1 -16.7,3.1 -22.9,9.6 z"
   id="path14" />
	<path
   d="m 784.5,450.5 h -19.7 v -70.6 l -28.7,70.6 h -16.2 l -28.7,-70.6 v 70.6 H 671.5 V 348.1 h 27.3 l 29.8,72.9 29.7,-72.9 h 26.2 z"
   id="path16" />
	<path
   d="M 809.7,450.5 V 348.1 h 68.1 v 18.6 h -47.2 v 23.4 h 45.8 v 18.4 h -45.8 v 23.4 h 47.2 v 18.6 z"
   id="path18" />
	<path
   d="m 971,348.1 h 20.9 v 102.3 h -20.3 l -50.3,-67.5 v 67.5 H 900.4 V 348.1 h 20.3 l 50.3,67.7 z"
   id="path20" />
</g>
</svg>
