<?xml version="1.0" encoding="utf-8"?>
<!-- Generator: Adobe Illustrator 16.0.0, SVG Export Plug-In . SVG Version: 6.00 Build 0)  -->
<!DOCTYPE svg PUBLIC "-//W3C//DTD SVG 1.1//EN" "http://www.w3.org/Graphics/SVG/1.1/DTD/svg11.dtd">
<svg version="1.1" id="Layer_1" xmlns="http://www.w3.org/2000/svg" xmlns:xlink="http://www.w3.org/1999/xlink" x="0px" y="0px"
	 width="1000px" height="490.879px" viewBox="0 0 1000 490.879" enable-background="new 0 0 1000 490.879" xml:space="preserve">
<g>
	<path d="M4.981,359.663c3.2,9.422,13.417,31.594,34.6,31.594c15.182,0,24.766-10.17,24.766-25.795
		c0-16.99-12.98-23.932-25.78-30.182c-6.603-3.17-33.585-12.604-33.585-36.566c0-19.803,14.986-36.793,41.172-36.793
		c5.612,0,12.41,1.201,16.594,2.613c2.6,0.766,5.402,1.832,7.602,2.207c0.819,6.973,1.998,14.965,3.583,26.971l-4.966,0.584
		c-3.403-11.764-9.014-25.766-27.2-25.766c-14.182,0-21.604,10.381-21.604,22.189c0,14.814,10.606,21.395,25.818,28.17
		c13.167,5.816,34.171,13.986,34.171,38.807c0,23.168-18.991,40.188-44.388,40.188c-7.181,0-13.987-1.412-18.968-3.037
		c-5.017-1.59-8.615-3.211-11.011-4.203C4.2,385.475,2,371.278,0,360.506L4.981,359.663z"/>
	<path d="M106.533,330.698c0-11.973-0.383-12.199-13.566-13.838v-3.545c9.179-1.982,18.997-4.416,29.168-8.008v15.01
		c3.801-2.629,8.015-5.424,13.582-8.82c6.001-3.605,11.004-5.766,18.013-5.766c9.99,0,18.989,5.766,22.587,15.578
		c5.581-4.193,11.786-8.203,14.986-9.977c5.994-3.441,10.982-5.602,17.577-5.602c16.188,0,25.188,10.771,25.188,26.543v44.59
		c0,11.195,1,12.201,12.596,13.389v4.611h-42.365v-4.611c13.167-1.188,14.182-2.193,14.182-13.389v-38.369
		c0-11.6-3.793-21.635-18.615-21.635c-6.962,0-14.782,3.215-22.167,9.615c0.204,2.193,0.383,3.803,0.383,5.635v44.754
		c0,11.195,1.021,12.201,12.8,13.389v4.611h-42.366v-4.611c13.003-1.188,14.017-2.193,14.017-13.389V337.7
		c0-11.586-4.214-20.84-17.999-20.84c-7.984,0-15.999,4.254-22.399,9.451v50.553c0,11.195,1.014,12.201,13.01,13.389v4.611H91.75
		v-4.611c13.813-1.188,14.783-2.193,14.783-13.389V330.698z"/>
	<path d="M286.816,376.864c0,11.195,1.051,12.201,14.416,13.389v4.611h-44.162v-4.611c13.198-1.188,14.167-2.193,14.167-13.389
		v-46.166c0-12.006-0.383-12.199-13.574-13.838v-3.545c9.203-1.982,18.989-4.416,29.153-8.008V376.864z M289.438,269.522
		c0,6.01-4.605,10.787-10.389,10.787c-5.597,0-10.396-4.777-10.396-10.787c0-6.207,4.799-10.967,10.396-10.967
		C284.833,258.555,289.438,263.315,289.438,269.522"/>
	<path d="M337.993,368.454c0,15.607,7.4,18.402,12.832,18.402c3.552,0,7.969-1.578,11.763-3.803l1.991,4.389l-16.384,8.203
		c-2.005,1.004-4.589,1.607-6.001,1.607c-12.786,0-19.816-8.188-19.816-24.172V315.69h-14.536l-0.819-1.998l5.784-5.574h9.571
		v-12.59l13.033-13.205h2.583v25.795h23.197c1.6,2.164,1.014,5.379-1.412,7.572h-21.785V368.454z"/>
	<path d="M399.163,319.713c6.782-7.209,17.6-13.609,28.41-14c17.156-0.406,27.568,10.982,27.568,28.756v42.381
		c0,11.209,0.984,12.199,13.168,13.176v4.82h-42.367v-4.594c12.598-1.203,13.589-2.193,13.589-13.402v-36.342
		c0-14.408-5.176-23.813-19.771-23.813c-8.203,0.406-15.618,3.396-20.597,9.225v50.93c0,11.209,1.013,12.199,13.199,13.402v4.594
		h-42.368v-4.594c12.598-1.203,13.582-2.193,13.582-13.402v-99.742c0-12.184-0.413-11.973-14.197-13.191v-3.98
		c9.398-1.816,22.197-5.002,29.785-7V319.713z"/>
	<path d="M484.301,366.889c3.215,11.584,12.228,24.367,24.014,24.367c7.212,0,14.152-5,14.152-14.783
		c0-8.217-4.552-14-15.587-18.793c-12.95-5.797-23.984-12.621-23.984-25.795c0-14.408,12.432-26.172,29.799-26.172
		c7.189,0,12.8,1.594,16.788,3.396c1.999,4.582,3.997,15.773,4.38,19.201l-4.814,1.154c-5.949-13.16-12.365-17.758-19.952-17.758
		c-8.983,0-13.199,7.018-13.199,13.582c0,8.217,8.602,13.793,17.369,17.383c14.633,5.992,24.202,13.838,24.202,27.178
		c0,18.402-16.984,27.402-32.143,27.402c-10.209,0-19.425-4.238-23.211-7.406c-1.202-2.99-2.366-13.988-2.366-21.754
		L484.301,366.889z"/>
	<path d="M550.87,353.864c0-33.563,25.983-48.15,44.2-48.15c25.352,0,43.553,19.379,43.553,44.381
		c0,31.156-23.197,47.158-43.365,47.158C567.059,397.252,550.87,374.67,550.87,353.864 M620.422,354.465
		c0-22.191-9.57-42.771-27.785-42.771c-13.379,0-23.58,13.807-23.58,34.811c0,25.357,10.998,44.752,28.395,44.752
		C609.838,391.256,620.422,381.448,620.422,354.465"/>
	<path d="M682.011,320.301c3.786-2.824,8.157-5.588,13.386-8.805c5.987-3.605,10.982-5.783,17.202-5.783
		c16.384,0,25.368,10.789,25.368,26.561v44.576c0,11.209,0.998,12.199,12.598,13.402v4.594h-42.383v-4.594
		c13.198-1.203,14.197-2.193,14.197-13.402v-38.34c0-11.629-3.816-21.635-18.584-21.635c-7.783,0-15.797,4.221-21.784,9.436v50.539
		c0,11.209,0.985,12.199,12.786,13.402v4.594h-43.186v-4.594c13.783-1.203,14.806-2.193,14.806-13.402v-46.168
		c0-11.957-0.421-12.184-13.589-13.807v-3.576c9.172-1.967,18.982-4.387,29.183-7.992V320.301z"/>
	<path d="M791.135,376.864c0,11.195,0.999,12.201,14.369,13.389v4.611h-44.139v-4.611c13.184-1.188,14.182-2.193,14.182-13.389
		v-46.166c0-12.006-0.397-12.199-13.596-13.838v-3.545c9.187-1.982,19.013-4.416,29.184-8.008V376.864z M793.748,269.522
		c0,6.01-4.611,10.787-10.41,10.787c-5.589,0-10.389-4.777-10.389-10.787c0-6.207,4.8-10.967,10.389-10.967
		C789.137,258.555,793.748,263.315,793.748,269.522"/>
	<path d="M874.058,397.252c-6.753-1.201-9.766-7.979-10.982-13.039c-8.368,5.451-19.185,13.039-23.384,13.039
		c-14.582,0-23.985-11.975-23.985-22.971c0-9.195,4.799-16.002,15.204-20.209c9.795-3.996,26.163-9.793,32.165-14v-6.791
		c0-12.393-5.785-18.99-16.384-18.99c-9.803,0-14.001,8.369-16.188,16.797c-0.578,2.404-2.396,3.787-4.598,3.787
		c-3.185,0-8.616-3.172-8.616-6.762c0-2.613,2.419-5.453,6.814-8.654c4.785-3.592,16.601-11.16,30.769-13.746
		c5.617,0,11.815,1.787,15.789,4.822c6.641,5.168,7.609,12.125,7.609,19.352v44.98c0,7.375,2.622,10.771,5.589,10.771
		c1.614,0,5.048-0.783,8.586-2.586l1.81,4.404L874.058,397.252z M863.075,346.504c-4.388,1.74-16.384,7.195-20.169,9.162
		c-7.001,3.832-10.396,7.799-10.396,14.965c0,10.619,7.182,15.625,13.168,15.625c4.582,0,12.012-3.592,17.397-7.799V346.504z"/>
	<path d="M931.433,320.301c3.785-2.824,8.217-5.588,13.415-8.805c5.974-3.605,10.983-5.783,17.172-5.783
		c16.384,0,25.383,10.789,25.383,26.561v44.576c0,11.209,1,12.199,12.598,13.402v4.594h-42.366v-4.594
		c13.168-1.203,14.182-2.193,14.182-13.402v-38.34c0-11.629-3.815-21.635-18.584-21.635c-7.813,0-15.797,4.221-21.799,9.436v50.539
		c0,11.209,1.014,12.199,12.784,13.402v4.594h-43.185v-4.594c13.813-1.203,14.799-2.193,14.799-13.402v-46.168
		c0-11.957-0.369-12.184-13.582-13.807v-3.576c9.218-1.967,19.027-4.387,29.184-7.992V320.301z"/>
	<polygon points="357.404,426.217 357.404,451.368 331.609,451.368 331.609,426.217 317.606,426.217 317.606,489.768 
		331.609,489.768 331.609,464.258 357.404,464.258 357.404,489.768 371.376,489.768 371.376,426.217 	"/>
	<path d="M423.125,442.547l8.467,20.629h-16.925L423.125,442.547z M416.868,425.752l-27.245,64.029h14.257l5.814-14.271h26.892
		l5.785,14.271h14.632l-27.261-64.029H416.868z"/>
	<polygon points="517.969,426.217 517.969,465.338 488.184,426.217 475.294,426.217 475.294,489.768 489.109,489.768 
		489.109,449.34 519.892,489.768 531.782,489.768 531.782,426.217 	"/>
	<polygon points="599.284,426.217 599.284,465.338 569.484,426.217 556.578,426.217 556.578,489.768 570.394,489.768 
		570.394,449.34 601.162,489.768 613.067,489.768 613.067,426.217 	"/>
	<polygon points="637.88,426.217 637.88,489.768 686.314,489.768 686.314,477.342 651.791,477.342 651.791,463.973 681.74,463.973 
		681.74,451.547 651.791,451.547 651.791,438.67 685.835,438.67 685.835,426.217 	"/>
	<polygon points="708.686,426.217 708.686,489.768 754.357,489.768 754.357,477.057 722.664,477.057 722.664,426.217 	"/>
	<path d="M744.734,434.963h-1.51v-7.498h-2.816v-1.293h7.105v1.293h-2.779V434.963z M756.761,434.963h-1.502l0.06-5.426l0.09-1.803
		l-0.428,1.488l-1.803,5.74h-1.367l-1.788-5.74l-0.443-1.441l0.12,1.756l0.029,5.426h-1.471v-8.791h2.088l2.2,6.926l2.142-6.926
		h2.073V434.963z"/>
	<path d="M239.514,458.172v-0.166c0-18.088,13.611-32.916,33.149-32.916c11.981,0,19.155,4.012,25.044,9.84l-8.894,10.277
		c-4.89-4.479-9.885-7.197-16.24-7.197c-10.728,0-18.449,8.893-18.449,19.787v0.209c0,10.893,7.557,19.967,18.449,19.967
		c7.256,0,11.719-2.93,16.722-7.465l8.878,8.998c-6.528,7.002-13.784,11.373-26.051,11.373
		C253.418,490.879,239.514,476.442,239.514,458.172"/>
	<path fill="#FDB714" d="M470.118,220.877c16.841-9.797,17.029-25.287,17-27.21c0.029,0,0.029,0,0.029,0.017l13.642,65.365
		l13.619-65.365l0.016-0.017c0.631,0.708,11.83,13.388,12.123,32.451c0.211,14.394,17.811,26.818,31.332,18.886
		c0,0-21.258-2.343-14.152-29.177c4.957-18.869-5.859-29.957-7.241-31.323h0.029l55.858,36.628l-36.568-55.889v-0.031
		c0.813,0.061,17.78,1.083,31.521,14.409c10.292,10.005,31.572,6.384,35.522-8.834c0,0-16.721,13.385-30.678-10.578
		c-9.826-16.886-25.321-17.081-27.23-17.036v-0.045l65.383-13.611l-65.383-13.626v-0.031c0.602-0.556,13.311-11.839,32.466-12.124
		c14.37-0.211,26.825-17.818,18.893-31.325c0,0-2.358,21.257-29.235,14.167c-18.893-5.002-29.995,5.904-31.258,7.226l36.568-55.872
		l-45.492,29.821l-10.366,6.776c0,0,0-0.015-0.029-0.015c0.06-0.556,0.969-17.712,14.399-31.535
		c10.014-10.321,6.378-31.58-8.803-35.53c0,0,13.355,16.706-10.631,30.677c-16.907,9.841-17.043,25.405-16.998,27.238h-0.045
		L500.789,0l-13.642,65.366c-0.39-0.45-11.83-13.206-12.109-32.466c-0.248-14.392-17.833-26.846-31.354-18.899
		c0,0,21.244,2.358,14.167,29.19c-4.995,18.975,5.942,30.077,7.234,31.31c0,0.015-0.015,0.015-0.045,0.029l-55.85-36.597
		l36.59,55.857c-0.571-0.03-17.714-0.975-31.513-14.407c-10.336-9.991-31.58-6.34-35.538,8.819c0,0,16.698-13.356,30.663,10.651
		c9.833,16.87,25.397,17.037,27.26,16.991c-0.029,0-0.029,0.031-0.029,0.031l-65.383,13.642l65.383,13.611v0.029
		c-0.541,0.467-13.273,11.824-32.443,12.125c-14.386,0.179-26.833,17.803-18.893,31.338c0,0,2.352-21.272,29.198-14.197
		c18.909,5.019,29.987-5.888,31.257-7.227c0.038,0.015,0.038,0.015,0.053,0.045l-36.605,55.842l29.491-19.306l26.389-17.275
		c-0.045,0.781-1.06,17.786-14.4,31.535c-10.013,10.334-6.37,31.579,8.796,35.515C459.466,251.553,446.118,234.847,470.118,220.877"
		/>
</g>
</svg>
