<?xml version="1.0" encoding="UTF-8" standalone="no"?>
<!-- Generator: Adobe Illustrator 16.0.0, SVG Export Plug-In . SVG Version: 6.00 Build 0)  -->

<svg
   version="1.1"
   id="Layer_1"
   x="0px"
   y="0px"
   width="1000"
   height="123.42166"
   viewBox="0 0 1000 123.42165"
   enable-background="new 0 0 1000.104 197.033"
   xml:space="preserve"
   inkscape:version="1.1.2 (b8e25be833, 2022-02-05)"
   sodipodi:docname="SundanceTV_2014.svg"
   xmlns:inkscape="http://www.inkscape.org/namespaces/inkscape"
   xmlns:sodipodi="http://sodipodi.sourceforge.net/DTD/sodipodi-0.dtd"
   xmlns="http://www.w3.org/2000/svg"
   xmlns:svg="http://www.w3.org/2000/svg"
   xmlns:rdf="http://www.w3.org/1999/02/22-rdf-syntax-ns#"
   xmlns:cc="http://creativecommons.org/ns#"
   xmlns:dc="http://purl.org/dc/elements/1.1/"><metadata
     id="metadata33"><rdf:RDF><cc:Work
         rdf:about=""><dc:format>image/svg+xml</dc:format><dc:type
           rdf:resource="http://purl.org/dc/dcmitype/StillImage" /><dc:title /></cc:Work></rdf:RDF></metadata><defs
     id="defs31" /><sodipodi:namedview
     pagecolor="#ffffff"
     bordercolor="#666666"
     borderopacity="1"
     objecttolerance="10"
     gridtolerance="10"
     guidetolerance="10"
     inkscape:pageopacity="0"
     inkscape:pageshadow="2"
     inkscape:window-width="1366"
     inkscape:window-height="705"
     id="namedview29"
     showgrid="false"
     inkscape:zoom="0.5"
     inkscape:cx="511"
     inkscape:cy="90"
     inkscape:window-x="-8"
     inkscape:window-y="-8"
     inkscape:window-maximized="1"
     inkscape:current-layer="g3"
     inkscape:pagecheckerboard="0" /><g
     id="g3"
     transform="translate(339.34113,97.99767)"><g
       id="g13853"><path
         d="m -293.41678,25.086315 c 24.48172,0 44.74246,-12.325283 44.74246,-37.820045 0,-26.5078 -22.6245,-32.079502 -40.52148,-36.638168 -12.66296,-3.039111 -22.79333,-5.571703 -22.79333,-13.844838 0,-7.766617 8.27314,-11.312246 16.54627,-11.312246 9.62385,0 18.06582,4.727506 18.06582,15.026715 h 25.15708 c 0,-23.637529 -15.36438,-38.157724 -42.54754,-38.157724 -26.17012,0 -42.88524,12.831801 -42.88524,35.456292 0,25.494762 21.61146,30.728786 39.50845,35.118613 12.8318,2.870271 23.63753,5.402863 23.63753,14.689035 0,8.7796532 -9.45501,13.8448378 -19.07887,13.8448378 -10.46804,0 -19.92306,-5.5717026 -19.92306,-16.8839488 h -25.83244 c 0,25.325923 18.74119,40.521477 45.92435,40.521477 z"
         id="path8336"
         style="font-weight:800;font-size:157.827px;line-height:1.25;font-family:Mont;-inkscape-font-specification:'Mont Ultra-Bold';letter-spacing:-11.23px;fill:#000000;fill-opacity:1;stroke-width:4.22099" /><path
         d="m -192.47683,25.423994 c 27.85851,0 48.79461,-19.4165412 48.79461,-47.106217 v -73.782855 h -25.66361 v 72.600979 c 0,14.6890355 -9.62384,24.1440463 -23.131,24.1440463 -13.67601,0 -23.29986,-9.4550108 -23.29986,-24.1440463 v -72.600979 h -25.6636 v 73.782855 c 0,27.6896758 20.93609,47.106217 48.96346,47.106217 z"
         id="path8338"
         style="font-weight:800;font-size:157.827px;line-height:1.25;font-family:Mont;-inkscape-font-specification:'Mont Ultra-Bold';letter-spacing:-11.23px;fill:#000000;fill-opacity:1;stroke-width:4.22099" /><path
         d="m -55.388053,-95.465078 v 72.09446 l -51.833727,-72.09446 h -22.96216 v 118.18764 h 24.98823 v -73.782855 l 53.522125,73.782855 h 21.442615 v -118.18764 z"
         id="path8340"
         style="font-weight:800;font-size:157.827px;line-height:1.25;font-family:Mont;-inkscape-font-specification:'Mont Ultra-Bold';letter-spacing:-11.23px;fill:#000000;fill-opacity:1;stroke-width:4.22099" /><path
         d="m 26.669059,-95.465078 h -44.573624 v 118.18764 h 44.573624 c 34.780934,0 59.938017,-24.8194044 59.938017,-59.09382 0,-34.274416 -25.157083,-59.09382 -59.938017,-59.09382 z M 26.16254,-0.9149661 H 7.5901965 V -71.658711 H 26.16254 c 20.260738,0 34.274416,14.351357 34.274416,35.287453 0,20.598417 -14.013678,35.4562919 -34.274416,35.4562919 z"
         id="path8342"
         style="font-weight:800;font-size:157.827px;line-height:1.25;font-family:Mont;-inkscape-font-specification:'Mont Ultra-Bold';letter-spacing:-11.23px;fill:#000000;fill-opacity:1;stroke-width:4.22099" /><path
         d="m 170.17941,22.722562 h 27.85851 L 150.25634,-95.465078 H 126.1123 L 79.681444,22.722562 H 106.8646 l 8.1043,-22.28681218 h 46.93737 z m -31.74183,-86.952335 15.53323,42.378711 h -31.06646 z"
         id="path8344"
         style="font-weight:800;font-size:157.827px;line-height:1.25;font-family:Mont;-inkscape-font-specification:'Mont Ultra-Bold';letter-spacing:-11.23px;fill:#000000;fill-opacity:1;stroke-width:4.22099" /><path
         d="m 279.05593,-95.465078 v 72.09446 l -51.83373,-72.09446 h -22.96217 v 118.18764 h 24.98825 v -73.782855 l 53.52212,73.782855 h 21.44261 v -118.18764 z"
         id="path8346"
         style="font-weight:800;font-size:157.827px;line-height:1.25;font-family:Mont;-inkscape-font-specification:'Mont Ultra-Bold';letter-spacing:-11.23px;fill:#000000;fill-opacity:1;stroke-width:4.22099" /><path
         d="m 374.803,25.423994 c 29.20923,0 52.17141,-19.5853806 57.57427,-48.794612 H 406.54483 C 402.32384,-8.5127425 390.33624,0.94226829 374.803,0.94226829 c -20.09189,0 -35.1186,-15.87091129 -35.1186,-37.14468729 0,-21.273774 15.02671,-37.313526 35.1186,-37.313526 14.85788,0 26.67665,8.779653 31.57299,22.624492 h 25.49476 C 426.46788,-78.918809 403.50572,-97.99767 374.803,-97.99767 c -34.78093,0 -61.11989,26.676638 -61.11989,61.795251 0,34.9497739 26.33896,61.626413 61.11989,61.626413 z"
         id="path8348"
         style="font-weight:800;font-size:157.827px;line-height:1.25;font-family:Mont;-inkscape-font-specification:'Mont Ultra-Bold';letter-spacing:-11.23px;fill:#000000;fill-opacity:1;stroke-width:4.22099" /><path
         d="M 465.22429,-0.9149661 V -25.227852 h 41.02799 V -48.358861 H 465.22429 V -71.82755 h 45.41783 v -23.637528 h -70.91259 v 118.18764 h 72.76981 V -0.9149661 Z"
         id="path8350"
         style="font-weight:800;font-size:157.827px;line-height:1.25;font-family:Mont;-inkscape-font-specification:'Mont Ultra-Bold';letter-spacing:-11.23px;fill:#000000;fill-opacity:1;stroke-width:4.22099" /><path
         d="m 585.79249,-95.465078 h -54.8251 v 14.288976 h 19.76136 v 56.649225 h 15.30238 v -56.649225 h 19.76136 z"
         style="font-weight:800;font-size:102.588px;line-height:1.25;font-family:Mont;-inkscape-font-specification:'Mont Ultra-Bold';letter-spacing:-11.23px;baseline-shift:super;fill:#566068;fill-opacity:1;stroke-width:3.89771"
         id="path8352" /><path
         d="m 643.93772,-95.465078 -17.43052,50.163441 -17.93724,-50.163441 h -16.92382 l 27.6659,70.938201 h 14.49165 l 26.85518,-70.938201 z"
         style="font-weight:800;font-size:102.588px;line-height:1.25;font-family:Mont;-inkscape-font-specification:'Mont Ultra-Bold';letter-spacing:-11.23px;baseline-shift:super;fill:#566068;fill-opacity:1;stroke-width:3.89771"
         id="path8354" /></g></g></svg>
