<?xml version="1.0" encoding="UTF-8" standalone="no"?>
<svg
   version="1.1"
   width="999.62088"
   height="369.46288"
   viewBox="0,0,999.62088,369.46288"
   id="svg45"
   sodipodi:docname="The_Movie_Channel_2006.svg"
   inkscape:version="1.4 (86a8ad7, 2024-10-11)"
   xmlns:inkscape="http://www.inkscape.org/namespaces/inkscape"
   xmlns:sodipodi="http://sodipodi.sourceforge.net/DTD/sodipodi-0.dtd"
   xmlns="http://www.w3.org/2000/svg"
   xmlns:svg="http://www.w3.org/2000/svg">
  <defs
     id="defs45" />
  <sodipodi:namedview
     id="namedview45"
     pagecolor="#ffffff"
     bordercolor="#000000"
     borderopacity="0.25"
     inkscape:showpageshadow="2"
     inkscape:pageopacity="0.0"
     inkscape:pagecheckerboard="0"
     inkscape:deskcolor="#d1d1d1"
     inkscape:zoom="0.88383511"
     inkscape:cx="392.04145"
     inkscape:cy="123.89189"
     inkscape:window-width="1920"
     inkscape:window-height="991"
     inkscape:window-x="-9"
     inkscape:window-y="-9"
     inkscape:window-maximized="1"
     inkscape:current-layer="g43" />
  <g
     transform="translate(423.20014,-113.86092)"
     id="g45">
    <g
       data-paper-data="{&quot;isPaintingLayer&quot;:true}"
       fill-rule="nonzero"
       stroke="none"
       stroke-width="1"
       stroke-linecap="butt"
       stroke-linejoin="miter"
       stroke-miterlimit="10"
       stroke-dasharray=""
       stroke-dashoffset="0"
       style="mix-blend-mode: normal"
       id="g44">
      <g
         fill="#000000"
         font-family="&quot;Helvetica Neue&quot;, Helvetica, Arial, sans-serif"
         font-weight="400"
         font-size="16"
         text-anchor="start"
         id="g1" />
      <g
         id="g43">
        <g
           fill="#c2d087"
           id="g3">
          <g
             id="g2">
            <path
               d="M-1.15413,474.25005l-18.96603,-50.60077c17.70657,-5.63054 34.49941,-15.08886 49.06966,-28.52313c15.55807,-14.29861 26.79446,-31.56066 33.78324,-50.10687l49.73644,21.11453c-9.90284,25.36213 -25.53499,48.97088 -46.94586,68.72716c-19.83037,18.29926 -42.64887,31.3631 -66.67745,39.38908"
               id="path1" />
          </g>
        </g>
        <g
           id="g6">
          <g
             fill="#e6eccb"
             id="g4">
            <path
               d="M53.309,234.30015c-9.13728,-16.15076 -21.85539,-30.64693 -38.00615,-42.15496c-16.96571,-12.10072 -35.78356,-19.50933 -55.09533,-22.59625c-6.84061,-1.11129 -13.8294,-1.67928 -20.89227,-1.67928c-10.34735,0 -20.86757,1.21007 -31.3384,3.80308c-20.52184,5.06255 -38.69761,14.74312 -53.71239,27.6341l-33.4622,-42.45131c20.94166,-17.48431 46.00744,-30.64693 74.25892,-37.58632c14.79252,-3.65491 29.63442,-5.40828 44.20468,-5.40828c10.32266,0 20.49714,0.88903 30.49876,2.56832v-0.04939c26.86854,4.44516 53.19379,14.94069 76.87663,31.80761c21.97886,15.65685 39.43848,35.28966 52.25536,57.19443l-45.58762,28.91826"
               id="path3" />
          </g>
          <g
             fill="#8ba330"
             id="g5">
            <path
               d="M-187.93248,436.17723l34.57349,-41.51288c13.63183,12.59463 30.17772,22.49746 49.06966,28.49843c20.15141,6.42079 40.69794,7.65556 60.25666,4.51925l6.29731,53.663c-26.96732,3.97595 -55.2188,2.07441 -82.95168,-6.74183c-25.70786,-8.19886 -48.3535,-21.53435 -67.24544,-38.42597"
               id="path4" />
          </g>
        </g>
        <g
           id="g42"
           style="fill:#000000;fill-opacity:1">
          <g
             fill="#221e1f"
             id="g7"
             style="fill:#000000;fill-opacity:1">
            <path
               d="M-399.34443,326.37182v-55.41637h-23.85571v-7.4333h57.24382v7.4333h-23.85571v55.41637z"
               id="path6"
               style="fill:#000000;fill-opacity:1" />
          </g>
          <g
             fill="#221e1f"
             id="g8"
             style="fill:#000000;fill-opacity:1">
            <path
               d="M-359.14534,326.37182v-62.84967h9.53241v25.80664h37.66041v-25.80664h9.5571v62.84967h-9.5571v-29.63442h-37.66041v29.63442z"
               id="path7"
               style="fill:#000000;fill-opacity:1" />
          </g>
          <g
             fill="#221e1f"
             id="g9"
             style="fill:#000000;fill-opacity:1">
            <path
               d="M-291.75666,326.37182v-62.84967h52.28006v7.4333h-42.74765v19.16359h40.00647v7.4333h-40.00647v21.41087h44.47633v7.40861z"
               id="path8"
               style="fill:#000000;fill-opacity:1" />
          </g>
          <g
             fill="#221e1f"
             id="g10"
             style="fill:#000000;fill-opacity:1">
            <path
               d="M-218.32504,263.64069h29.46155l11.23638,38.15432l11.28578,-38.15432h29.31338v62.72619h-18.27456v-47.88429l-14.15044,47.88429h-16.49649l-14.10105,-47.88429v47.88429h-18.27456z"
               id="path9"
               style="fill:#000000;fill-opacity:1" />
          </g>
          <g
             fill="#221e1f"
             id="g11"
             style="fill:#000000;fill-opacity:1">
            <path
               d="M-109.08515,295.14948c0,6.34671 1.35824,10.89065 4.05004,13.65653c2.71649,2.76588 6.3961,4.17351 11.06352,4.17351c4.7662,0 8.47051,-1.35824 11.08821,-4.07473c2.6424,-2.71649 3.95126,-7.58147 3.95126,-14.61965c0,-5.90219 -1.38294,-10.22388 -4.12412,-12.96506c-2.71649,-2.71649 -6.44549,-4.07473 -11.1376,-4.07473c-4.46986,0 -8.07538,1.38294 -10.81656,4.14882c-2.71649,2.76588 -4.07473,7.35921 -4.07473,13.75531M-131.40975,295.0507c0,-10.24857 3.28448,-18.24986 9.85345,-23.95449c6.56896,-5.70463 15.70624,-8.56929 27.41184,-8.56929c12.02664,0 21.28739,2.79057 27.78227,8.42111c6.49488,5.60584 9.75466,13.48366 9.75466,23.58406c0,7.33452 -1.40764,13.36018 -4.2476,18.0523c-2.86466,4.71681 -6.96409,8.37172 -12.32298,10.98943c-5.35889,2.59301 -12.05133,3.90187 -20.07732,3.90187c-8.12477,0 -14.8666,-1.11129 -20.2008,-3.38326c-5.3342,-2.24728 -9.68058,-5.8281 -12.98975,-10.71778c-3.30918,-4.86498 -4.96377,-10.98943 -4.96377,-18.32395"
               id="path10"
               style="fill:#000000;fill-opacity:1" />
          </g>
          <g
             fill="#221e1f"
             id="g12"
             style="fill:#000000;fill-opacity:1">
            <path
               d="M-61.83554,263.64069h23.3618l16.27424,45.1431l16.05198,-45.1431h22.67033l-26.84385,62.72619h-24.20144z"
               id="path11"
               style="fill:#000000;fill-opacity:1" />
          </g>
          <path
             d="M18.98988,263.65056h22.3246v62.72619h-22.3246z"
             fill="#221e1f"
             id="path12"
             style="fill:#000000;fill-opacity:1" />
          <g
             fill="#221e1f"
             id="g13"
             style="fill:#000000;fill-opacity:1">
            <path
               d="M51.48155,263.64069h59.78744v13.40958h-37.46285v9.92753h34.82044v12.79219h-34.82044v12.39707h38.57414v14.19983h-60.89874z"
               id="path13"
               style="fill:#000000;fill-opacity:1" />
          </g>
          <g
             fill="#221e1f"
             id="g14"
             style="fill:#000000;fill-opacity:1">
            <path
               d="M181.45565,304.28676l9.53241,2.0991c-2.00032,6.81592 -5.60584,12.02664 -10.81656,15.63216c-5.21072,3.58083 -11.60681,5.35889 -19.1389,5.35889c-7.77904,0 -14.12574,-1.38294 -19.01542,-4.12412c-4.86498,-2.76588 -8.59398,-6.76653 -11.1376,-11.97725c-2.56832,-5.23541 -3.82778,-10.84126 -3.82778,-16.84223c0,-6.54427 1.43233,-12.24889 4.32169,-17.11388c2.86466,-4.88968 6.96409,-8.56929 12.27359,-11.11291c5.3342,-2.51893 11.1623,-3.77839 17.55839,-3.77839c7.23574,0 13.31079,1.5805 18.24986,4.7909c4.93907,3.2104 8.37172,7.70495 10.32266,13.48366l-9.43362,1.95093c-1.67928,-4.56864 -4.12412,-7.90251 -7.30982,-10.00162c-3.1857,-2.07441 -7.21104,-3.13631 -12.05133,-3.13631c-5.55645,0 -10.22388,1.16068 -13.95287,3.48204c-3.729,2.32136 -6.34671,5.43298 -7.85312,9.33484c-1.53111,3.90187 -2.27197,7.90251 -2.27197,12.05133c0,5.35889 0.88903,10.00162 2.69179,14.00226c1.77807,3.97595 4.56864,6.96409 8.37172,8.93972c3.77839,1.97563 7.87782,2.93875 12.29828,2.93875c5.35889,0 9.90284,-1.33355 13.63183,-4.02534c3.7043,-2.6671 6.24792,-6.66774 7.55678,-11.95255"
               id="path14"
               style="fill:#000000;fill-opacity:1" />
          </g>
          <g
             fill="#221e1f"
             id="g15"
             style="fill:#000000;fill-opacity:1">
            <path
               d="M197.58172,326.37182v-62.84967h9.5571v25.80664h37.63571v-25.80664h9.5571v62.84967h-9.5571v-29.63442h-37.63571v29.63442z"
               id="path15"
               style="fill:#000000;fill-opacity:1" />
          </g>
          <g
             fill="#221e1f"
             id="g16"
             style="fill:#000000;fill-opacity:1">
            <path
               d="M279.72339,300.48615h24.57187l-7.53208,-17.38553c-2.27197,-5.28481 -4.00065,-9.65588 -5.16133,-13.06384c-0.98781,4.07473 -2.29667,8.12477 -3.97595,12.10072zM258.92991,326.36688l27.68349,-62.82497h10.47083l29.53564,62.82497h-10.91535l-8.37172,-19.08951h-30.44937l-7.85312,19.08951z"
               id="path16"
               style="fill:#000000;fill-opacity:1" />
          </g>
          <g
             fill="#221e1f"
             id="g17"
             style="fill:#000000;fill-opacity:1">
            <path
               d="M330.62051,326.37182v-62.84967h9.77936l38.03084,49.36601v-49.36601h9.13728v62.84967h-9.77936l-38.03084,-49.34131v49.34131z"
               id="path17"
               style="fill:#000000;fill-opacity:1" />
          </g>
          <g
             fill="#221e1f"
             id="g18"
             style="fill:#000000;fill-opacity:1">
            <path
               d="M398.11044,326.37182v-62.84967h9.77936l38.03084,49.36601v-49.36601h9.13728v62.84967h-9.77936l-38.03084,-49.34131v49.34131z"
               id="path18"
               style="fill:#000000;fill-opacity:1" />
          </g>
          <g
             fill="#221e1f"
             id="g19"
             style="fill:#000000;fill-opacity:1">
            <path
               d="M467.92666,326.37182v-62.84967h52.28006v7.4333h-42.74765v19.16359h40.00647v7.4333h-40.00647v21.41087h44.47633v7.40861z"
               id="path19"
               style="fill:#000000;fill-opacity:1" />
          </g>
          <g
             fill="#221e1f"
             id="g20"
             style="fill:#000000;fill-opacity:1">
            <path
               d="M531.25295,326.37182v-62.84967h9.53241v55.44106h35.63539v7.40861z"
               id="path20"
               style="fill:#000000;fill-opacity:1" />
          </g>
          <g
             fill="#000000"
             font-family="&quot;Helvetica Neue&quot;, Helvetica, Arial, sans-serif"
             font-weight="400"
             font-size="16"
             text-anchor="start"
             id="g21"
             style="fill:#000000;fill-opacity:1" />
          <g
             fill="#000000"
             font-family="&quot;Helvetica Neue&quot;, Helvetica, Arial, sans-serif"
             font-weight="400"
             font-size="16"
             text-anchor="start"
             id="g22"
             style="fill:#000000;fill-opacity:1" />
          <g
             fill="#000000"
             font-family="&quot;Helvetica Neue&quot;, Helvetica, Arial, sans-serif"
             font-weight="400"
             font-size="16"
             text-anchor="start"
             id="g23"
             style="fill:#000000;fill-opacity:1" />
          <g
             fill="#000000"
             font-family="&quot;Helvetica Neue&quot;, Helvetica, Arial, sans-serif"
             font-weight="400"
             font-size="16"
             text-anchor="start"
             id="g24"
             style="fill:#000000;fill-opacity:1" />
          <g
             fill="#000000"
             font-family="&quot;Helvetica Neue&quot;, Helvetica, Arial, sans-serif"
             font-weight="400"
             font-size="16"
             text-anchor="start"
             id="g25"
             style="fill:#000000;fill-opacity:1" />
          <g
             fill="#000000"
             font-family="&quot;Helvetica Neue&quot;, Helvetica, Arial, sans-serif"
             font-weight="400"
             font-size="16"
             text-anchor="start"
             id="g26"
             style="fill:#000000;fill-opacity:1" />
          <g
             fill="#000000"
             font-family="&quot;Helvetica Neue&quot;, Helvetica, Arial, sans-serif"
             font-weight="400"
             font-size="16"
             text-anchor="start"
             id="g27"
             style="fill:#000000;fill-opacity:1" />
          <g
             fill="#000000"
             font-family="&quot;Helvetica Neue&quot;, Helvetica, Arial, sans-serif"
             font-weight="400"
             font-size="16"
             text-anchor="start"
             id="g28"
             style="fill:#000000;fill-opacity:1" />
          <g
             fill="#000000"
             font-family="&quot;Helvetica Neue&quot;, Helvetica, Arial, sans-serif"
             font-weight="400"
             font-size="16"
             text-anchor="start"
             id="g29"
             style="fill:#000000;fill-opacity:1" />
          <g
             fill="#000000"
             font-family="&quot;Helvetica Neue&quot;, Helvetica, Arial, sans-serif"
             font-weight="400"
             font-size="16"
             text-anchor="start"
             id="g30"
             style="fill:#000000;fill-opacity:1" />
          <g
             fill="#000000"
             font-family="&quot;Helvetica Neue&quot;, Helvetica, Arial, sans-serif"
             font-weight="400"
             font-size="16"
             text-anchor="start"
             id="g31"
             style="fill:#000000;fill-opacity:1" />
          <g
             fill="#000000"
             font-family="&quot;Helvetica Neue&quot;, Helvetica, Arial, sans-serif"
             font-weight="400"
             font-size="16"
             text-anchor="start"
             id="g32"
             style="fill:#000000;fill-opacity:1" />
          <g
             fill="#000000"
             font-family="&quot;Helvetica Neue&quot;, Helvetica, Arial, sans-serif"
             font-weight="400"
             font-size="16"
             text-anchor="start"
             id="g33"
             style="fill:#000000;fill-opacity:1" />
          <g
             fill="#000000"
             font-family="&quot;Helvetica Neue&quot;, Helvetica, Arial, sans-serif"
             font-weight="400"
             font-size="16"
             text-anchor="start"
             id="g34"
             style="fill:#000000;fill-opacity:1" />
          <g
             fill="#000000"
             font-family="&quot;Helvetica Neue&quot;, Helvetica, Arial, sans-serif"
             font-weight="400"
             font-size="16"
             text-anchor="start"
             id="g35"
             style="fill:#000000;fill-opacity:1" />
          <g
             fill="#000000"
             font-family="&quot;Helvetica Neue&quot;, Helvetica, Arial, sans-serif"
             font-weight="400"
             font-size="16"
             text-anchor="start"
             id="g36"
             style="fill:#000000;fill-opacity:1" />
          <g
             fill="#000000"
             font-family="&quot;Helvetica Neue&quot;, Helvetica, Arial, sans-serif"
             font-weight="400"
             font-size="16"
             text-anchor="start"
             id="g37"
             style="fill:#000000;fill-opacity:1" />
          <g
             fill="#000000"
             font-family="&quot;Helvetica Neue&quot;, Helvetica, Arial, sans-serif"
             font-weight="400"
             font-size="16"
             text-anchor="start"
             id="g38"
             style="fill:#000000;fill-opacity:1" />
          <g
             fill="#000000"
             font-family="&quot;Helvetica Neue&quot;, Helvetica, Arial, sans-serif"
             font-weight="400"
             font-size="16"
             text-anchor="start"
             id="g39"
             style="fill:#000000;fill-opacity:1" />
          <g
             fill="#000000"
             font-family="&quot;Helvetica Neue&quot;, Helvetica, Arial, sans-serif"
             font-weight="400"
             font-size="16"
             text-anchor="start"
             id="g40"
             style="fill:#000000;fill-opacity:1" />
          <g
             fill="#221e1f"
             id="g41"
             style="fill:#000000;fill-opacity:1">
            <path
               id="path40"
               style="fill:#000000;fill-opacity:1" />
          </g>
        </g>
      </g>
    </g>
  </g>
</svg>
