<?xml version="1.0" encoding="utf-8"?>
<!-- Generator: Adobe Illustrator 23.0.3, SVG Export Plug-In . SVG Version: 6.00 Build 0)  -->
<svg version="1.1" id="Layer_1" xmlns="http://www.w3.org/2000/svg" xmlns:xlink="http://www.w3.org/1999/xlink" x="0px" y="0px"
	 viewBox="0 0 1000 999.8" style="enable-background:new 0 0 1000 999.8;" xml:space="preserve">
<g>
	<path d="M323.9,350.6h98c24.7,0,37,6.9,49.3,27.3l101.2,157.7h3.5v-185h401.4C913.8,147.4,724.1,0,500,0S86.2,147.4,22.7,350.6
		H323.9z"/>
	<path d="M994.1,423.2L994.1,423.2H884.3v295.4h-99.6V423.2H670.9v295.4h-66.5c-24.7,0-36.5-7-49.3-27.3L426.3,498.4h-2.1v220.2
		h-96.8V423.2H213.9v295.4H112.6V423.2H5.9h0C2,448.2,0,473.9,0,500c0,276.1,223.9,500,500,500s500-223.9,500-500
		C1000,473.9,998,448.2,994.1,423.2z"/>
</g>
</svg>
