<?xml version="1.0" encoding="UTF-8" standalone="no"?>
<!-- Generator: Adobe Illustrator 16.0.0, SVG Export Plug-In . SVG Version: 6.00 Build 0)  -->

<svg
   xmlns:dc="http://purl.org/dc/elements/1.1/"
   xmlns:cc="http://creativecommons.org/ns#"
   xmlns:rdf="http://www.w3.org/1999/02/22-rdf-syntax-ns#"
   xmlns:svg="http://www.w3.org/2000/svg"
   xmlns="http://www.w3.org/2000/svg"
   xmlns:sodipodi="http://sodipodi.sourceforge.net/DTD/sodipodi-0.dtd"
   xmlns:inkscape="http://www.inkscape.org/namespaces/inkscape"
   version="1.1"
   id="svg2"
   sodipodi:docname="TruTV_2014.svg"
   inkscape:version="0.48.5 r10040"
   x="0px"
   y="0px"
   width="1000"
   height="385.13794"
   viewBox="0 0 1000 385.13794"
   enable-background="new 0 0 1000 385.896"
   xml:space="preserve"><metadata
   id="metadata15"><rdf:RDF><cc:Work
       rdf:about=""><dc:format>image/svg+xml</dc:format><dc:type
         rdf:resource="http://purl.org/dc/dcmitype/StillImage" /></cc:Work></rdf:RDF></metadata><defs
   id="defs13">
	
	
	
	
		
	
	
</defs>
<sodipodi:namedview
   fit-margin-top="0"
   fit-margin-left="0"
   showgrid="false"
   inkscape:cy="28.38449"
   inkscape:cx="924.97547"
   inkscape:zoom="0.54709742"
   borderopacity="1.0"
   bordercolor="#666666"
   pagecolor="#ffffff"
   id="base"
   inkscape:window-maximized="0"
   inkscape:window-y="-21"
   inkscape:window-x="876"
   inkscape:window-height="1036"
   inkscape:window-width="1035"
   inkscape:current-layer="svg2"
   inkscape:document-units="px"
   inkscape:pageopacity="0.0"
   fit-margin-right="0"
   fit-margin-bottom="0"
   inkscape:pageshadow="2">
	<inkscape:grid
   type="xygrid"
   enabled="true"
   visible="true"
   empspacing="5"
   id="grid2996"
   snapvisiblegridlinesonly="true"
   originx="-37.505px"
   originy="631.338px">
		</inkscape:grid>
</sodipodi:namedview>

<path
   style="fill:#b7d433;fill-opacity:1"
   d="m 2521.3895,1859.2762 a 263.76547,263.76547 0 1 1 -527.5309,0 263.76547,263.76547 0 1 1 527.5309,0 z"
   sodipodi:type="arc"
   sodipodi:cx="2257.624"
   sodipodi:cy="1859.2762"
   sodipodi:rx="263.76547"
   sodipodi:ry="263.76547"
   id="path3004"
   transform="matrix(0.51596054,0,0,0.51596054,-300.93748,-823.2206)" /><path
   d="M 52.082536,381.25155 V 165.16071 H -7.088424e-7 V 88.15516 H 52.082536 V 6.3742502 H 152.66659 V 88.15416 h 52.08253 v 77.00555 H 152.66659 V 381.25155 H 52.082536 z"
   inkscape:connector-curvature="0"
   sodipodi:nodetypes="ccccccccccccc"
   id="path2998" /><path
   d="M 219.37456,381.25155 V 88.15516 h 93.12266 v 48.94902 c 15.04692,-26.2435 37.67835,-48.94902 86.40011,-48.94902 h 12.69127 v 101.77839 h -18.7721 c -23.97795,0 -45.70437,4.42398 -58.76605,17.20835 -10.96032,11.26365 -14.09084,24.86294 -14.09084,43.08142 V 381.25155 H 219.37456 z"
   inkscape:connector-curvature="0"
   sodipodi:nodetypes="cccccccccccc"
   id="path3000" /><path
   d="m 426.06487,88.15516 h 99.83821 v 153.41343 c 0,31.03989 16.32134,49.84802 43.6911,49.84802 29.52919,0 43.76119,-22.80463 43.76119,-49.20029 V 88.15516 h 100.43388 v 293.09739 h -92.9725 V 337.6766 c -16.76884,34.15335 -47.54443,47.46135 -86.0427,47.46135 -65.88906,0 -108.70818,-41.9832 -108.70818,-107.25755 V 88.15516 z"
   inkscape:connector-curvature="0"
   sodipodi:nodetypes="ccccccccccccc"
   id="path3002" /><path
   style="fill:#000000;fill-opacity:1"
   d="m 817.50682,189.93355 h -26.86219 l 13.73043,-78.49722 h -29.13475 l 4.06257,-23.28117 h 83.47382 l -4.08059,23.28117 h -27.55797 l -13.63132,78.49722 z"
   inkscape:connector-curvature="0"
   id="path3006" /><path
   style="fill:#000000;fill-opacity:1"
   d="M 909.1368,189.93355 964.0545,88.15516 h -28.35384 l -35.40279,68.7723 -5.32599,-68.7723 h -26.04627 l 10.36465,101.77839 h 29.84654 z"
   inkscape:connector-curvature="0"
   sodipodi:nodetypes="cccccccc"
   id="path3008" /></svg>