<svg xmlns="http://www.w3.org/2000/svg" viewBox="0 0 975.6045 230.4478"><g fill="#007351"><path d="M626.449.001c58.771 0 110.195 38.07 110.195 114.104 0 70.871-51.89 111.443-110.195 111.443H509.31V61.974l26.521 26.52v110.452h89.701c47.406-.515 85.678-39.097 85.678-86.624V112.309c0-47.527-38.272-86.11-85.678-86.623v-.001H509.31V0h117.139"/><path d="M509.31 61.973V35.218h116.216v.119h.007v-.119c42.144.514 76.152 34.831 76.156 77.098-.004 42.266-34.012 76.583-76.156 77.096v-.118h-.007v.118h-80.043V98.428l-.01-.009v-.282l25.715 25.714v39.9h57.605c28.428 0 50.565-22.58 50.565-50.946 0-26.909-18.98-50.832-50.565-50.832zM0 0h230.662v26.182H0zM0 35.834h230.662v26.094l-84.367.045H84.367v-.045H0zM146.295 123.9v102.19h-26.138V97.764z"/><path d="M110.505 226.09H84.367V61.973l26.138 26.138v137.437zM482.747 0v120.255c0 58.774-37.964 110.193-114.05 110.193-70.718 0-111.472-51.758-111.472-110.193V0h26.13v120.536c.516 47.407 39.098 85.679 86.625 85.679H369.993c47.527 0 86.109-38.272 86.624-85.68V.002z"/><path d="M319.075 0v122.603c0 28.473 22.501 50.534 50.975 50.534 26.833 0 50.72-18.931 50.72-50.534V0h26.32v.001h-.007v120.53h-.118v.005h.118c-.513 42.146-34.83 76.154-77.097 76.157-42.266-.003-76.583-34.011-77.097-76.157h.118v-.006h-.118V.001h-.007zM975.604.387V226.09H920.79l-96.409-123.814V226.09h-26.185V35.218h5.257l127.665 163.728h18.3V.386z"/><path d="M935.773 189.413 808.107 25.685h-19.445V226.09h-26.187V.387h58.362l92.86 119.3V.387h26.186v189.026z"/></g></svg>