<?xml version="1.0" encoding="UTF-8" standalone="no"?>
<svg
   xmlns:dc="http://purl.org/dc/elements/1.1/"
   xmlns:cc="http://creativecommons.org/ns#"
   xmlns:rdf="http://www.w3.org/1999/02/22-rdf-syntax-ns#"
   xmlns:svg="http://www.w3.org/2000/svg"
   xmlns="http://www.w3.org/2000/svg"
   xmlns:sodipodi="http://sodipodi.sourceforge.net/DTD/sodipodi-0.dtd"
   xmlns:inkscape="http://www.inkscape.org/namespaces/inkscape"
   width="1000"
   height="484.99765"
   viewBox="0 0 999.99999 484.99764"
   version="1.1"
   id="svg9"
   sodipodi:docname="Turner_Classic_Movies_2021.svg"
   inkscape:version="1.0.2 (e86c870879, 2021-01-15)">
  <metadata
     id="metadata13">
    <rdf:RDF>
      <cc:Work
         rdf:about="">
        <dc:format>image/svg+xml</dc:format>
        <dc:type
           rdf:resource="http://purl.org/dc/dcmitype/StillImage" />
      </cc:Work>
    </rdf:RDF>
  </metadata>
  <sodipodi:namedview
     pagecolor="#ffffff"
     bordercolor="#666666"
     borderopacity="1"
     objecttolerance="10"
     gridtolerance="10"
     guidetolerance="10"
     inkscape:pageopacity="0"
     inkscape:pageshadow="2"
     inkscape:window-width="1366"
     inkscape:window-height="705"
     id="namedview11"
     showgrid="false"
     inkscape:zoom="0.5"
     inkscape:cx="485.79361"
     inkscape:cy="306.9953"
     inkscape:window-x="-8"
     inkscape:window-y="-8"
     inkscape:window-maximized="1"
     inkscape:current-layer="svg9" />
  <defs
     id="defs4">
    <style
       id="style2">
      .cls-1 {
        fill: #000;
        fill-rule: evenodd;
      }
    </style>
  </defs>
  <g
     transform="matrix(2.4847005,0,0,2.4847005,-40.709333,0.22859245)"
     id="g7">
    <path
       id="logo"
       class="cls-1"
       d="M 26.412,173.1 H 20.1 v -2.511 h 15.5 v 2.511 h -6.321 v 21.447 h -2.867 z m 12.082,13.778 v -16.285 h 2.868 v 16.085 c 0,3.971 1.775,5.838 5.94,5.838 4.165,0 5.974,-1.867 5.974,-5.838 v -16.085 h 2.834 v 16.289 c 0,5.6 -2.73,8.212 -8.807,8.212 -6.044,0 -8.809,-2.613 -8.809,-8.212 z m 28.96,-3.122 h -3.619 v 10.791 h -2.867 v -23.954 h 8.875 c 3.926,0 6.315,1.188 7.34,3.461 a 7.578,7.578 0 0 1 0.581,3.021 7.666,7.666 0 0 1 -0.581,3.087 c -0.99,2.207 -3.072,3.428 -6.417,3.6 l 8.466,10.791 h -3.415 z m -3.619,-2.41 h 5.394 c 2.868,0 4.54,-0.712 5.189,-2.171 a 4.607,4.607 0 0 0 0.41,-2.036 4.544,4.544 0 0 0 -0.375,-1.935 c -0.683,-1.561 -2.424,-2.172 -5.223,-2.172 h -5.395 z m 18.3,-10.757 H 85.2 l 12.9,19.751 v -19.747 h 2.8 v 23.958 H 97.765 L 84.93,174.8 v 19.75 h -2.8 v -23.957 z m 23.764,0 h 14.338 v 2.511 h -11.475 v 8.009 h 11.367 v 2.511 h -11.367 v 8.416 h 11.471 v 2.511 H 105.9 v -23.954 z m 24.686,13.167 h -3.618 v 10.791 H 124.1 v -23.954 h 8.876 c 3.926,0 6.315,1.188 7.339,3.461 a 7.583,7.583 0 0 1 0.58,3.021 7.672,7.672 0 0 1 -0.58,3.087 c -0.99,2.207 -3.073,3.428 -6.418,3.6 l 8.466,10.791 h -3.413 z m -3.618,-2.41 h 5.394 c 2.866,0 4.54,-0.712 5.188,-2.171 a 4.616,4.616 0 0 0 0.41,-2.036 4.546,4.546 0 0 0 -0.376,-1.935 c -0.682,-1.561 -2.423,-2.172 -5.222,-2.172 h -5.394 z m 25.4,7.907 a 15.8,15.8 0 0 1 -1.263,-6.685 16.242,16.242 0 0 1 1.263,-6.685 c 1.6,-3.6 4.916,-5.837 10.036,-5.837 a 10.952,10.952 0 0 1 7.612,2.613 8.858,8.858 0 0 1 2.8,6.414 h -3 a 6.686,6.686 0 0 0 -2.014,-4.615 8.109,8.109 0 0 0 -5.5,-1.8 c -3.687,0 -6.008,1.595 -7.169,4.14 a 17.307,17.307 0 0 0 0,11.539 c 1.195,2.578 3.516,4.139 7.169,4.139 a 8.053,8.053 0 0 0 5.564,-1.8 6.353,6.353 0 0 0 2.014,-4.75 h 3 a 8.941,8.941 0 0 1 -2.8,6.584 11.108,11.108 0 0 1 -7.681,2.578 c -5.12,0.006 -8.432,-2.234 -10.036,-5.831 z m 24.532,-18.664 h 2.868 v 21.451 h 8.125 v 2.511 h -10.998 v -23.958 z m 29.418,17.714 h -11.271 l -2.219,6.244 h -3 l 8.706,-23.958 h 4.3 l 8.7,23.958 h -2.97 z m -0.854,-2.409 -4.745,-13.269 H 200.65 L 195.9,185.9 h 9.558 z m 8.355,4.887 a 9.807,9.807 0 0 1 -0.785,-4.107 h 3.107 a 7.969,7.969 0 0 0 0.545,3.122 c 0.854,1.833 2.765,2.851 5.838,2.851 2.9,0 4.949,-0.95 5.7,-2.579 a 4,4 0 0 0 0.376,-1.765 4.1,4.1 0 0 0 -0.342,-1.662 c -0.921,-2 -3.823,-2.58 -7.066,-3.36 -3.345,-0.814 -6.076,-1.8 -7.1,-4.106 a 6.044,6.044 0 0 1 -0.513,-2.477 6.415,6.415 0 0 1 0.581,-2.681 c 1.092,-2.444 4.028,-3.971 7.92,-3.971 3.993,0 6.657,1.527 7.851,4.14 a 9.32,9.32 0 0 1 0.718,3.869 h -2.97 a 7.083,7.083 0 0 0 -0.512,-2.918 c -0.786,-1.731 -2.527,-2.716 -5.155,-2.716 -2.595,0 -4.472,0.95 -5.121,2.478 a 3.4,3.4 0 0 0 -0.307,1.527 3.347,3.347 0 0 0 0.273,1.494 c 0.819,1.865 3.653,2.375 6.9,3.189 3.414,0.848 6.315,1.8 7.441,4.276 a 6.252,6.252 0 0 1 0.513,2.68 6.377,6.377 0 0 1 -0.615,2.851 c -1.2,2.681 -4.3,4.174 -8.671,4.174 -4.617,0.004 -7.416,-1.659 -8.611,-4.305 z m 21.75,0 a 9.807,9.807 0 0 1 -0.785,-4.107 h 3.106 a 7.968,7.968 0 0 0 0.547,3.122 c 0.853,1.833 2.765,2.851 5.837,2.851 2.9,0 4.95,-0.95 5.7,-2.579 a 4.011,4.011 0 0 0 0.376,-1.765 4.132,4.132 0 0 0 -0.341,-1.662 c -0.923,-2 -3.824,-2.58 -7.067,-3.36 -3.345,-0.814 -6.077,-1.8 -7.1,-4.106 a 6.028,6.028 0 0 1 -0.512,-2.477 6.414,6.414 0 0 1 0.579,-2.681 c 1.093,-2.444 4.028,-3.971 7.92,-3.971 3.995,0 6.657,1.527 7.852,4.14 a 9.32,9.32 0 0 1 0.717,3.869 h -2.97 a 7.051,7.051 0 0 0 -0.513,-2.918 c -0.784,-1.731 -2.526,-2.716 -5.154,-2.716 -2.594,0 -4.472,0.95 -5.12,2.478 a 3.4,3.4 0 0 0 -0.308,1.527 3.36,3.36 0 0 0 0.273,1.494 c 0.82,1.865 3.653,2.375 6.9,3.189 3.413,0.848 6.315,1.8 7.442,4.276 a 6.268,6.268 0 0 1 0.512,2.68 6.363,6.363 0 0 1 -0.615,2.851 c -1.2,2.681 -4.3,4.174 -8.67,4.174 -4.617,0.004 -7.416,-1.659 -8.611,-4.305 z m 21.772,-20.192 h 2.86 v 23.958 h -2.866 v -23.954 z m 8.247,18.664 a 15.812,15.812 0 0 1 -1.264,-6.685 16.242,16.242 0 0 1 1.264,-6.685 c 1.6,-3.6 4.916,-5.837 10.037,-5.837 a 10.954,10.954 0 0 1 7.612,2.613 8.853,8.853 0 0 1 2.8,6.414 h -3 a 6.682,6.682 0 0 0 -2.014,-4.615 8.11,8.11 0 0 0 -5.5,-1.8 c -3.686,0 -6.007,1.595 -7.168,4.14 a 17.307,17.307 0 0 0 0,11.539 c 1.195,2.578 3.516,4.139 7.168,4.139 a 8.05,8.05 0 0 0 5.565,-1.8 6.353,6.353 0 0 0 2.014,-4.75 h 3 a 8.941,8.941 0 0 1 -2.8,6.584 11.105,11.105 0 0 1 -7.68,2.578 c -5.121,0.006 -8.435,-2.234 -10.039,-5.831 z m 31.374,-18.664 h 3.687 l 8.193,19.343 8.329,-19.343 h 3.55 v 23.958 h -2.731 v -19.678 l -8.431,19.682 h -1.434 l -8.432,-19.682 v 19.682 h -2.731 v -23.958 z m 29.168,18.732 a 18.608,18.608 0 0 1 0,-13.472 c 1.6,-3.529 4.882,-5.8 10,-5.8 5.155,0 8.432,2.24 10,5.769 a 18.229,18.229 0 0 1 0,13.506 c -1.6,3.529 -4.848,5.769 -10,5.769 -5.123,0.001 -8.401,-2.239 -10.005,-5.768 z m 17.239,-1.086 a 16.178,16.178 0 0 0 0,-11.334 c -1.126,-2.545 -3.413,-4.208 -7.237,-4.208 -3.789,0 -6.076,1.663 -7.236,4.208 a 16.7,16.7 0 0 0 0,11.334 c 1.16,2.546 3.447,4.209 7.236,4.209 3.819,0.004 6.106,-1.659 7.232,-4.205 z m 26.469,-17.646 -9.218,23.958 h -2.935 l -9.251,-23.958 h 3.038 l 7.68,20.531 7.681,-20.531 h 3 z m 2.9,0 h 2.863 v 23.958 h -2.867 v -23.954 z m 7.8,0 h 14.337 V 173.1 H 383.4 v 8.009 h 11.368 v 2.511 H 383.4 v 8.416 h 11.47 v 2.511 h -14.341 v -23.954 z m 17.626,20.192 a 9.792,9.792 0 0 1 -0.786,-4.107 h 3.107 a 7.987,7.987 0 0 0 0.546,3.122 c 0.854,1.833 2.766,2.851 5.838,2.851 2.9,0 4.949,-0.95 5.7,-2.579 a 4.011,4.011 0 0 0 0.376,-1.765 4.1,4.1 0 0 0 -0.342,-1.662 c -0.921,-2 -3.823,-2.58 -7.066,-3.36 -3.346,-0.814 -6.076,-1.8 -7.1,-4.106 a 6.044,6.044 0 0 1 -0.512,-2.477 6.4,6.4 0 0 1 0.581,-2.681 c 1.093,-2.444 4.028,-3.971 7.92,-3.971 3.993,0 6.656,1.527 7.851,4.14 a 9.32,9.32 0 0 1 0.717,3.869 h -2.97 a 7.083,7.083 0 0 0 -0.512,-2.918 c -0.785,-1.731 -2.526,-2.716 -5.155,-2.716 -2.594,0 -4.471,0.95 -5.12,2.478 a 3.4,3.4 0 0 0 -0.307,1.527 3.347,3.347 0 0 0 0.273,1.494 c 0.819,1.865 3.653,2.375 6.9,3.189 3.413,0.848 6.314,1.8 7.441,4.276 a 6.253,6.253 0 0 1 0.512,2.68 6.363,6.363 0 0 1 -0.614,2.851 c -1.195,2.681 -4.3,4.174 -8.67,4.174 -4.622,0.004 -7.421,-1.659 -8.616,-4.305 z M 124.962,5.8 H 16.384 V 31.63 H 54.227 V 140.874 H 86.175 V 31.63 h 38.787 V 5.8 Z M 381.9,5.8 347.061,89.408 312.419,5.8 h -37.337 v 135.074 h 30.023 V 56.5 l 34.835,84.373 h 14.05 L 388.631,56.5 v 84.373 h 30.216 V 5.8 Z m -117.489,40.277 -0.365,-1.1 C 254.989,17.6 228.511,-0.092 196.591,-0.092 c -21.816,0 -40.522,7.17 -54.1,20.734 -13.541,13.532 -20.7,32.14 -20.7,53.812 0,45.532 29.275,74.952 74.58,74.952 16.139,0 31.177,-4.645 43.487,-13.434 a 62.727,62.727 0 0 0 23.98,-33.087 l 0.314,-1.074 -12.668,-3.493 c -3.545,11.525 -10.081,21.244 -18.5,27.445 a 59.385,59.385 0 0 1 -35.513,11.323 c -36.975,0 -60.866,-24.722 -60.866,-62.982 0,-18.159 5.844,-33.779 16.9,-45.17 11.1,-11.437 26.362,-17.482 44.133,-17.482 24.981,0 46.84,15.214 54.73,37.955 z M 196.493,27.848 c 17.746,0 31.284,9.725 36.211,26.013 l 0.3,0.988 14.596,-4.066 c -7.291,-20.6 -27.255,-34.376 -49.988,-34.376 -16.393,0 -30.425,5.53 -40.58,15.992 -10.155,10.462 -15.512,24.876 -15.512,41.706 0,35.249 21.952,58.024 55.925,58.024 a 54.475,54.475 0 0 0 32.588,-10.366 c 7.516,-5.531 13.422,-14.326 16.7,-24.816 l -13.119,-3.659 -0.291,1 c -5.006,17.268 -18.43,27.173 -36.828,27.173 -25.364,0 -41.752,-18.6 -41.752,-47.395 0,-13.861 3.9,-25.516 11.285,-33.7 7.385,-8.184 17.917,-12.518 30.465,-12.518 z" />
  </g>
</svg>
