<?xml version="1.0" encoding="UTF-8" standalone="no"?>
<!-- Created with Inkscape (http://www.inkscape.org/) -->

<svg
   xmlns:dc="http://purl.org/dc/elements/1.1/"
   xmlns:cc="http://creativecommons.org/ns#"
   xmlns:rdf="http://www.w3.org/1999/02/22-rdf-syntax-ns#"
   xmlns:svg="http://www.w3.org/2000/svg"
   xmlns="http://www.w3.org/2000/svg"
   xmlns:sodipodi="http://sodipodi.sourceforge.net/DTD/sodipodi-0.dtd"
   xmlns:inkscape="http://www.inkscape.org/namespaces/inkscape"
   width="1000"
   height="345.51181"
   id="svg4297"
   version="1.1"
   inkscape:version="0.48.5 r10040"
   sodipodi:docname="A.svg">
  <defs
     id="defs4299" />
  <sodipodi:namedview
     id="base"
     pagecolor="#ffffff"
     bordercolor="#666666"
     borderopacity="1.0"
     inkscape:pageopacity="0.0"
     inkscape:pageshadow="2"
     inkscape:zoom="0.5"
     inkscape:cx="727.81805"
     inkscape:cy="173.10925"
     inkscape:document-units="px"
     inkscape:current-layer="layer1"
     showgrid="false"
     fit-margin-left="0.5"
     fit-margin-bottom="0.5"
     fit-margin-top="0.5"
     fit-margin-right="0.5"
     inkscape:window-width="1036"
     inkscape:window-height="1030"
     inkscape:window-x="881"
     inkscape:window-y="-12"
     inkscape:window-maximized="0">
    <inkscape:grid
       type="xygrid"
       id="grid4316"
       empspacing="5"
       visible="true"
       enabled="true"
       snapvisiblegridlinesonly="true"
       originx="151.37891px"
       originy="513.49962px" />
  </sodipodi:namedview>
  <metadata
     id="metadata4302">
    <rdf:RDF>
      <cc:Work
         rdf:about="">
        <dc:format>image/svg+xml</dc:format>
        <dc:type
           rdf:resource="http://purl.org/dc/dcmitype/StillImage" />
        <dc:title></dc:title>
      </cc:Work>
    </rdf:RDF>
  </metadata>
  <g
     inkscape:label="Layer 1"
     inkscape:groupmode="layer"
     id="layer1"
     transform="translate(151.37891,-1220.35)">
    <path
       style="fill:#ffffff;stroke:none"
       d="m 233.107,345.01181 6.20941,-46.54297 67.56793,-54.0733 69.29647,27.57717 -0.70711,37.47665 -99.3487,23.99995 -39.90625,10.6875 z"
       id="path4360"
       inkscape:connector-curvature="0"
       transform="translate(-151.37891,1220.35)"
       sodipodi:nodetypes="cccccccc" />
    <path
       inkscape:connector-curvature="0"
       id="path4354"
       d="m -150.87891,1535.9829 37.8815,-284.9002 355.36956,-26.3355 -4.79332,39.8699 610.54226,-43.7671 -36.90829,292.8386 -729.48471,51.6732 113.53375,-54.1373 z"
       style="fill:#294658;fill-opacity:1;stroke:none"
       sodipodi:nodetypes="ccccccccc" />
    <path
       inkscape:connector-curvature="0"
       id="path4338"
       d="m -71.515334,1490.835 23.201836,-163.8191 -37.300712,2.5416 5.661844,-41.2113 122.432934,-8.6045 -5.48265,41.2488 -38.2046571,2.51 -22.7467219,164.2469 z"
       style="fill:#ffffff;stroke:none" />
    <path
       sodipodi:nodetypes="cccccccc"
       inkscape:connector-curvature="0"
       id="path4340"
       d="M 67.695684,1480.9918 52.628348,1278.97 l 47.409292,-3.2793 4.02316,142.5928 44.48977,-146.1083 47.56482,-3.4054 -72.56052,208.3779 z"
       style="fill:#ffffff;stroke:none" />
    <path
       inkscape:connector-curvature="0"
       id="path4342"
       d="m 234.32705,1506.3029 28.3951,-205.3396 47.38204,-3.2412 -22.76498,164.0237 57.37547,-3.9356 -5.2861,41.0541 z"
       style="fill:#ffffff;stroke:none" />
    <path
       style="fill:#ffffff;stroke:none"
       d="m 479.35251,1285.8285 -57.27954,3.9329 -72.39588,208.421 47.69999,-3.2078 11.13952,-40.6692 36.97793,-2.4608 0.90082,39.329 47.89774,-3.1639 -14.94058,-202.1812 z m -33.9239,38.2962 0.32957,91.9066 -27.04683,1.6917 26.71726,-93.5983 z"
       id="path4344"
       inkscape:connector-curvature="0" />
    <path
       inkscape:connector-curvature="0"
       id="path4348"
       d="m 503.91524,1487.0574 28.35977,-205.1742 49.08365,-3.2094 20.73547,112.7627 11.48636,-115.4092 44.90869,-2.9466 -28.17039,205.1022 -48.77109,3.5498 -20.97908,-112.9414 -11.65007,115.3274 z"
       style="fill:#ffffff;stroke:none" />
    <path
       style="fill:#ffffff;stroke:none"
       d="m 742.08694,1267.3945 c -4.27322,0.016 -18.91744,1.0326 -18.91744,1.0326 l -50.44642,3.4275 -28.36509,205.433 71.82466,-5.0973 c 36.20204,-3.5341 57.15548,-23.6767 62.00332,-60.9489 l 10.91984,-79.9979 c 0,0 2.50475,-16.5295 2.50475,-24.1686 0,-24.2215 -10.14539,-39.6804 -49.52362,-39.6804 z m -17.3355,38.0545 c 14.52871,0 18.28024,4.5009 18.28024,15.2262 0,4.9415 -2.04331,18.5219 -2.04331,18.5219 l -9.16206,68.0016 c -3.09203,22.5607 -12.24719,29.5077 -34.8687,29.5077 l 18.10446,-131.0816 c 0,0 4.89615,-0.1758 9.68937,-0.1758 z"
       id="path4350"
       inkscape:connector-curvature="0" />
  </g>
</svg>
