<?xml version="1.0" encoding="UTF-8" standalone="no"?>
<!-- Created with Inkscape (http://www.inkscape.org/) -->

<svg
   version="1.1"
   id="svg1"
   width="999.99994"
   height="254.44771"
   viewBox="0 0 999.9999 254.44771"
   xmlns="http://www.w3.org/2000/svg"
   xmlns:svg="http://www.w3.org/2000/svg">
  <defs
     id="defs1" />
  <path
     id="rect1"
     style="fill:#d83157;fill-opacity:1;stroke-width:0.83961;stroke-linecap:round;paint-order:markers fill stroke"
     d="m 716.14051,0 v 19.235594 l 57.50261,0.34926 v 94.097426 h 20.84266 V 19.584854 l 57.85933,-0.34926 V 0 Z" />
  <path
     id="path3"
     style="fill:#d83157;fill-opacity:1;stroke-width:0.83961;stroke-linecap:round;paint-order:markers fill stroke"
     d="m 863.08103,0 61.62632,113.68187 h 13.6833 L 999.99995,0 h -23.8387 L 931.53755,85.613978 886.96105,0 Z" />
  <path
     id="rect4"
     style="fill:#d83157;stroke-width:0.83961;stroke-linecap:round;paint-order:markers fill stroke"
     d="m 432.70411,0 v 206.37677 c 0,30.72884 22.64202,48.07094 48.69573,48.07094 H 687.77825 V 150.18664 H 482.22383 L 687.77825,113.76921 V 47.965995 C 687.77825,21.912277 670.07289,0 638.00185,0 Z" />
  <path
     id="rect5"
     style="fill:#d83157;fill-opacity:1;stroke-width:0.83961;stroke-linecap:round;paint-order:markers fill stroke"
     d="m 0,0 38.25144,203.79563 c 3.46597,18.46577 5.6226,29.3734 18.89122,40.21928 9.19006,7.51202 17.86631,10.4328 34.65359,10.4328 H 322.6119 c 16.78728,0 25.46353,-2.92078 34.65358,-10.4328 13.26916,-10.84631 15.42531,-21.76258 18.88959,-40.21928 L 414.40651,0 H 299.58002 L 263.56699,205.48304 V 0 H 150.84444 V 205.50272 L 114.82813,0 Z" />
</svg>
