<?xml version="1.0" encoding="utf-8"?>
<!-- Generator: Adobe Illustrator 16.0.0, SVG Export Plug-In . SVG Version: 6.00 Build 0)  -->
<!DOCTYPE svg PUBLIC "-//W3C//DTD SVG 1.1//EN" "http://www.w3.org/Graphics/SVG/1.1/DTD/svg11.dtd">
<svg version="1.1"
	 id="Layer_1" xmlns:rdf="http://www.w3.org/1999/02/22-rdf-syntax-ns#" xmlns:dc="http://purl.org/dc/elements/1.1/" xmlns:cc="http://creativecommons.org/ns#"
	 xmlns="http://www.w3.org/2000/svg" xmlns:xlink="http://www.w3.org/1999/xlink" x="0px" y="0px" width="927.52px" height="1000px"
	 viewBox="193.74 208.9 927.52 1000" enable-background="new 193.74 208.9 927.52 1000" xml:space="preserve">
<g>
	<path fill="#EE2624" d="M193.74,1009.017c79.018-76.563,268.028-137.981,466.89-163.69c36.919-4.773,73.706-8.445,109.671-11.197
		c1.337-0.104,12.218-0.576,12.218-0.576l16.5,38.061l20.061-40.497c0,0,15.397-1.012,15.933-1.036
		c101.472-4.957,192.24-2.972,254.883,1.494c-16.17,34.923-51.736,110.755-51.736,110.755
		c-58.825-19.281-241.508-40.425-418.548-25.894c-215.551,17.686-403.806,84.199-425.848,92.575"/>
	<path d="M799.362,867.112l-134.271-329.63L530.83,867.112L208.932,208.909l124.756,346.93L526.8,1055.455l138.291-313.18
		l138.299,313.18l193.113-499.616L1121.26,208.9L799.362,867.112"/>
	<path d="M1053.873,209.878L805.25,536.53L665.531,218.872L525.823,536.53L277.199,209.878l250.482,494.221l137.85-353.797
		L803.39,704.099L1053.873,209.878"/>
	<g>
		<path d="M852.173,1178.571v-17.722h29.683l3.945,4.25v8.342l-4.831,5.131L852.173,1178.571L852.173,1178.571z M898.884,1208.9
			l-9.901-24.28l8.429-7.813v-15.737l-9.073-8.932h-47.947v56.541h12.205v-21.82h24.851l9.092,22.041h12.344"/>
		<path d="M368.021,1208.503h-14.716l-30.84-44.225v44.225h-10.318v-56.409h15.198l30.514,44.401v-44.401h10.164v56.409"/>
		<path d="M430.443,1176.146h33.494v8.359h-33.468v16.081h36.607v7.918h-48.2v-55.951h47.844v7.839h-36.277v15.756"/>
		<path d="M543.606,1161v47.504h-11.231v-47.195h-22.175v-8.745h55.568V1161H543.606"/>
		<path d="M680.449,1151.892l-10.874,46.578l-13.226-46.578h-15.173l-13.225,46.578l-10.874-46.578h-11.902l13.959,56.427h16.752
			l12.877-44.286l12.876,44.286h16.754l13.959-56.427H680.449"/>
		<path d="M780.66,1195.102l-4.829,5.132H749.68l-4.827-5.132v-29.519l4.827-5.13h26.151l4.829,5.13V1195.102z M782.319,1151.742
			h-40.006l-9.372,9.813v36.916l9.362,9.813h40.006l9.368-9.813v-36.916l-9.368-9.813"/>
		<path d="M852.093,1178.173v-17.721h29.684l3.945,4.25v8.341l-4.827,5.13H852.093z M898.806,1208.503l-9.896-24.28l8.425-7.812
			v-15.737l-9.072-8.933h-47.949v56.543h12.205v-21.822h24.851l9.094,22.042L898.806,1208.503"/>
		<path d="M990.349,1208.283h13.924l-24.819-32.771l24.711-23.408h-14.808l-32.363,30.937v-31.299H945.09v56.541h11.903v-11.496
			l13.869-13.137L990.349,1208.283"/>
	</g>
	<path d="M871.306,963.883v-18.428h-6.885v-2.468h16.563v2.468h-6.912v18.428H871.306"/>
	<path d="M883.729,963.883v-20.896h4.16l4.946,14.796c0.456,1.378,0.788,2.409,0.999,3.093c0.236-0.761,0.607-1.875,1.11-3.35
		l5.004-14.537h3.72v20.896h-2.665v-17.49l-6.071,17.49h-2.495l-6.044-17.788v17.788h-2.664"/>
</g>
</svg>
