<?xml version="1.0" encoding="UTF-8" standalone="no"?>
<!-- Created with Inkscape (http://www.inkscape.org/) -->

<svg
   xmlns:dc="http://purl.org/dc/elements/1.1/"
   xmlns:cc="http://creativecommons.org/ns#"
   xmlns:rdf="http://www.w3.org/1999/02/22-rdf-syntax-ns#"
   xmlns:svg="http://www.w3.org/2000/svg"
   xmlns="http://www.w3.org/2000/svg"
   xmlns:sodipodi="http://sodipodi.sourceforge.net/DTD/sodipodi-0.dtd"
   xmlns:inkscape="http://www.inkscape.org/namespaces/inkscape"
   width="105.83332mm"
   height="104.84763mm"
   viewBox="0 0 105.83332 104.84762"
   version="1.1"
   id="svg845"
   inkscape:version="0.92.4 (5da689c313, 2019-01-14)"
   sodipodi:docname="WWOR My 9.svg">
  <metadata
     id="metadata50">
    <rdf:RDF>
      <cc:Work
         rdf:about="">
        <dc:format>image/svg+xml</dc:format>
        <dc:type
           rdf:resource="http://purl.org/dc/dcmitype/StillImage" />
        <dc:title></dc:title>
      </cc:Work>
    </rdf:RDF>
  </metadata>
  <defs
     id="defs839" />
  <sodipodi:namedview
     id="base"
     pagecolor="#ffffff"
     bordercolor="#666666"
     borderopacity="1.0"
     inkscape:pageopacity="0.0"
     inkscape:pageshadow="2"
     inkscape:zoom="1"
     inkscape:cx="88.77094"
     inkscape:cy="-13.02507"
     inkscape:document-units="px"
     inkscape:current-layer="layer1"
     showgrid="false"
     inkscape:window-width="1600"
     inkscape:window-height="837"
     inkscape:window-x="-8"
     inkscape:window-y="-8"
     inkscape:window-maximized="1"
     units="mm"
     inkscape:snap-smooth-nodes="true"
     inkscape:snap-grids="true"
     inkscape:snap-intersection-paths="false"
     inkscape:snap-object-midpoints="false"
     inkscape:snap-center="false"
     inkscape:snap-global="true"
     inkscape:measure-start="0,0"
     inkscape:measure-end="0,0"
     showguides="true"
     fit-margin-top="0"
     fit-margin-left="0"
     fit-margin-right="0"
     fit-margin-bottom="0"
     inkscape:snap-bbox="false"
     inkscape:snap-text-baseline="true">
    <inkscape:grid
       type="xygrid"
       id="grid883"
       originx="112.4479"
       originy="-15.571027" />
  </sodipodi:namedview>
  <g
     inkscape:label="レイヤー 1"
     inkscape:groupmode="layer"
     id="layer1"
     transform="translate(-202.14632,283.93994)">
    <path
       inkscape:connector-curvature="0"
       style="fill:#c0c0c0;fill-opacity:1;stroke:none;stroke-width:0.52916676;stroke-linecap:square;stroke-linejoin:miter;stroke-miterlimit:10;stroke-dasharray:none;stroke-opacity:1"
       d="m 254.53382,-200.33159 v -41.275 h -52.3875 v 26.45833 a 14.816681,14.816681 0 0 0 14.81666,14.81667 z"
       id="path1340" />
    <path
       id="path1342"
       d="m 255.59213,-200.3316 v -41.275 h 52.3875 v 26.45834 a 14.816681,14.816681 0 0 1 -14.81667,14.81666 z"
       style="fill:#70d0ff;fill-opacity:1;stroke:none;stroke-width:0.52916676;stroke-linecap:square;stroke-linejoin:miter;stroke-miterlimit:10;stroke-dasharray:none;stroke-opacity:1"
       inkscape:connector-curvature="0" />
    <path
       id="path1338"
       d="m 254.53382,-283.93994 v 41.275 h -52.3875 v -26.45833 a 14.816681,14.816681 0 0 1 14.81666,-14.81667 z"
       style="fill:#00a0e0;fill-opacity:1;stroke:none;stroke-width:0.52916676;stroke-linecap:square;stroke-linejoin:miter;stroke-miterlimit:10;stroke-dasharray:none;stroke-opacity:1"
       inkscape:connector-curvature="0" />
    <path
       inkscape:connector-curvature="0"
       style="fill:#606060;fill-opacity:1;stroke:none;stroke-width:0.52916676;stroke-linecap:square;stroke-linejoin:miter;stroke-miterlimit:10;stroke-dasharray:none;stroke-opacity:1"
       d="m 255.59214,-283.93993 v 41.275 h 52.3875 v -26.45833 a 14.816681,14.816681 0 0 0 -14.81667,-14.81667 z"
       id="path853" />
    <g
       aria-label="my"
       transform="matrix(1.0366078,0,0,0.96468501,-0.54641,2.2e-5)"
       style="font-style:normal;font-variant:normal;font-weight:normal;font-stretch:normal;font-size:49.12282944px;line-height:1.25;font-family:'Avant Garde BQ';-inkscape-font-specification:'Avant Garde BQ';letter-spacing:0px;word-spacing:0px;fill:#ffffff;fill-opacity:1;stroke:none;stroke-width:0.26458335"
       id="text859">
      <path
         d="m 236.37293,-266.4326 c 0,-1.47369 -0.0491,-2.9965 -0.39298,-4.42106 -1.17895,-4.81403 -5.10878,-7.46667 -9.92282,-7.46667 -3.43859,0 -5.55087,1.32632 -6.58245,2.21053 -0.49123,0.44211 -1.03158,0.98246 -1.42457,1.42456 -0.34386,-0.39298 -0.63859,-0.78596 -1.42456,-1.52281 -0.19649,-0.19649 -0.4421,-0.39298 -0.68772,-0.58947 -1.96491,-1.42456 -4.27368,-1.57193 -5.10877,-1.57193 -0.88421,0 -3.09474,0.14737 -5.05965,1.62105 -0.49123,0.39299 -1.17895,1.08071 -1.22807,1.12983 l -0.0491,-2.45614 h -5.89474 v 26.52632 h 6.14036 v -14.19649 c 0,-1.7193 0.0491,-3.34036 1.0807,-4.76492 0.49123,-0.68772 1.62105,-1.86667 3.78246,-1.86667 0.58947,0 1.96491,0.0491 3.19298,1.22808 1.52281,1.5228 1.57193,3.48772 1.62105,5.45263 v 14.14737 h 6.14036 v -14.29474 c 0.0982,-2.06316 0.29473,-4.32281 2.21053,-5.69825 1.0807,-0.78596 2.30877,-0.83509 2.75087,-0.83509 3.38948,0 4.27369,2.50527 4.5193,3.68422 0.14737,0.54035 0.1965,1.17894 0.1965,2.35789 v 14.78597 h 6.14035 z"
         style="font-style:normal;font-variant:normal;font-weight:normal;font-stretch:normal;font-family:'Avant Garde BQ';-inkscape-font-specification:'Avant Garde BQ';letter-spacing:-4.23333311px;fill:#ffffff;fill-opacity:1;stroke-width:0.26458335"
         id="path908"
         inkscape:connector-curvature="0" />
      <path
         d="m 234.82293,-277.97647 9.08772,23.92282 -4.56842,10.61053 h 6.72983 l 14.54035,-34.48423 h -6.92632 l -4.22456,10.56141 c -0.34386,0.83509 -0.68772,1.67018 -0.98246,2.50527 -0.4421,1.22807 -0.78596,2.45614 -1.0807,3.73333 -0.39298,-1.32631 -0.73684,-2.65263 -1.12982,-3.97895 -0.39299,-1.27719 -0.78597,-2.55438 -1.22807,-3.83158 l -3.09474,-9.0386 z"
         style="font-style:normal;font-variant:normal;font-weight:normal;font-stretch:normal;font-family:'Avant Garde BQ';-inkscape-font-specification:'Avant Garde BQ';letter-spacing:-4.23333311px;fill:#ffffff;fill-opacity:1;stroke-width:0.26458335"
         id="path910"
         inkscape:connector-curvature="0" />
    </g>
    <path
       style="font-style:normal;font-variant:normal;font-weight:normal;font-stretch:normal;font-size:medium;line-height:1.25;font-family:'Trendex Black SSi';-inkscape-font-specification:'Trendex Black SSi';letter-spacing:-1.05833328px;word-spacing:0px;fill:#000000;fill-opacity:1;stroke:none;stroke-width:0.26458332"
       d="m 279.92142,-241.6065 c -2.19412,0 -4.23524,0.36953 -6.12364,1.10691 -1.8884,0.73736 -3.5788,1.8162 -5.07154,3.237 -1.47473,1.4208 -2.62675,3.1023 -3.45403,5.04466 -0.80932,1.92436 -1.21336,4.02872 -1.21336,6.3128 0,2.21212 0.37738,4.19888 1.13274,5.96137 0.77334,1.74454 1.7811,3.21068 3.02203,4.39768 1.24094,1.18698 2.62504,2.0949 4.15374,2.72438 1.54668,0.62946 3.0672,0.94464 4.55994,0.94464 0.98916,0 1.65404,-0.0722 1.99574,-0.216 l 0.1086,0.1074 -8.40672,11.65405 h 12.06954 l 9.58287,-14.29781 c 2.58978,-3.86672 3.90174,-7.62489 3.93774,-11.27579 0,-4.46022 -1.14208,-7.88648 -3.42614,-10.27844 -1.45676,-1.74452 -3.30918,-3.08418 -5.55727,-4.0194 -2.2481,-0.9352 -4.68438,-1.40353 -7.31016,-1.40353 z m 0.21602,9.28109 c 1.47476,0 2.77888,0.51172 3.9119,1.53686 1.15102,1.00714 1.726,2.39226 1.726,4.15478 0,0.98916 -0.23418,1.89708 -0.70178,2.72438 -0.4676,0.8273 -1.13246,1.4932 -1.99574,1.99678 -0.84528,0.50358 -1.82534,0.75549 -2.94038,0.75549 -1.74452,0 -3.12078,-0.56711 -4.12792,-1.70015 -1.00714,-1.13302 -1.51102,-2.44604 -1.51102,-3.93876 0,-1.58268 0.54934,-2.89464 1.64642,-3.93776 1.11504,-1.0611 2.44584,-1.59162 3.99252,-1.59162 z"
       id="path940"
       inkscape:connector-curvature="0" />
    <g
       id="g1112"
       transform="translate(-205.37531,-32.157381)">
      <g
         transform="translate(76.78124,-37.195995)"
         id="text1109-3"
         style="font-style:normal;font-weight:normal;font-size:14.61786366px;line-height:1.25;font-family:sans-serif;letter-spacing:0px;word-spacing:0px;fill:#606060;fill-opacity:1;stroke:none;stroke-width:0.26458332"
         aria-label="WWOR TV">
        <path
           inkscape:connector-curvature="0"
           id="path1009"
           style="font-style:normal;font-variant:normal;font-weight:bold;font-stretch:expanded;font-family:'Eurostile LT W03 2';-inkscape-font-specification:'Eurostile LT W03 2 Bold Expanded';letter-spacing:-0.79374999px;fill:#606060;fill-opacity:1;stroke-width:0.26458332"
           d="m 333.03998,-127.80321 h 3.17207 l 2.25116,7.7767 h 0.0292 l 2.68969,-7.7767 h 3.01128 l 2.68968,7.7767 h 0.0292 l 2.25115,-7.7767 h 3.17208 l -3.4352,10.58333 h -3.72756 l -2.47041,-6.98734 h -0.0292 l -2.47042,6.98734 h -3.72755 z" />
        <path
           inkscape:connector-curvature="0"
           id="path1011"
           style="font-style:normal;font-variant:normal;font-weight:bold;font-stretch:expanded;font-family:'Eurostile LT W03 2';-inkscape-font-specification:'Eurostile LT W03 2 Bold Expanded';letter-spacing:-0.79374999px;fill:#606060;fill-opacity:1;stroke-width:0.26458332"
           d="m 351.74623,-127.80321 h 3.17208 l 2.25115,7.7767 h 0.0292 l 2.68969,-7.7767 h 3.01128 l 2.68969,7.7767 h 0.0292 l 2.25115,-7.7767 h 3.17208 l -3.4352,10.58333 H 363.879 l -2.47042,-6.98734 h -0.0292 l -2.47042,6.98734 h -3.72755 z" />
        <path
           inkscape:connector-curvature="0"
           id="path1013"
           style="font-style:normal;font-variant:normal;font-weight:bold;font-stretch:expanded;font-family:'Eurostile LT W03 2';-inkscape-font-specification:'Eurostile LT W03 2 Bold Expanded';letter-spacing:-0.79374999px;fill:#606060;fill-opacity:1;stroke-width:0.26458332"
           d="m 371.21261,-124.09028 q 0,-1.15481 0.30697,-1.90032 0.3216,-0.74551 0.92093,-1.16943 0.61395,-0.43853 1.4764,-0.59933 0.86246,-0.1608 1.9588,-0.1608 h 5.20396 q 1.09634,0 1.95879,0.1608 0.86245,0.1608 1.46179,0.59933 0.61395,0.42392 0.92092,1.16943 0.3216,0.74551 0.3216,1.90032 v 3.15746 q 0,1.16943 -0.3216,1.91494 -0.30697,0.7309 -0.92092,1.16943 -0.59934,0.42392 -1.46179,0.58472 -0.86245,0.16079 -1.95879,0.16079 h -5.20396 q -1.09634,0 -1.9588,-0.16079 -0.86245,-0.1608 -1.4764,-0.58472 -0.59933,-0.43853 -0.92093,-1.16943 -0.30697,-0.74551 -0.30697,-1.91494 z m 3.33287,2.14883 q 0,0.5701 0.0731,0.9794 0.0731,0.4093 0.27774,0.6578 0.20465,0.24851 0.5701,0.36545 0.36544,0.11694 0.93554,0.11694 h 4.15147 q 0.5701,0 0.93555,-0.11694 0.36544,-0.11694 0.57009,-0.36545 0.20465,-0.2485 0.27774,-0.6578 0.0731,-0.4093 0.0731,-0.9794 v -1.14019 q 0,-0.49701 -0.0877,-0.87707 -0.0731,-0.39469 -0.29236,-0.67243 -0.21927,-0.27774 -0.61395,-0.42391 -0.39468,-0.14618 -1.03787,-0.14618 h -3.80065 q -0.64318,0 -1.03786,0.14618 -0.39469,0.14617 -0.61395,0.42391 -0.21927,0.27774 -0.30698,0.67243 -0.0731,0.38006 -0.0731,0.87707 z" />
        <path
           inkscape:connector-curvature="0"
           id="path1015"
           style="font-style:normal;font-variant:normal;font-weight:bold;font-stretch:expanded;font-family:'Eurostile LT W03 2';-inkscape-font-specification:'Eurostile LT W03 2 Bold Expanded';letter-spacing:-0.79374999px;fill:#606060;fill-opacity:1;stroke-width:0.26458332"
           d="m 390.14316,-122.59925 h 5.36475 q 0.65781,0 0.92093,-0.26312 0.27774,-0.27774 0.27774,-0.84784 v -0.35083 q 0,-0.70166 -0.36545,-0.90631 -0.35083,-0.20465 -1.12557,-0.20465 h -5.0724 z m -3.24517,-5.20396 h 9.79397 q 0.93554,0 1.54949,0.23388 0.61395,0.21927 0.96478,0.62857 0.36545,0.4093 0.51163,0.99402 0.14618,0.57009 0.14618,1.28637 v 0.67242 q 0,0.52624 -0.0731,0.95016 -0.0731,0.42392 -0.27774,0.74551 -0.19004,0.3216 -0.55548,0.55548 -0.35083,0.21927 -0.90631,0.35083 v 0.0292 q 0.36545,0.0731 0.68704,0.20465 0.32159,0.11694 0.55548,0.38006 0.2485,0.26312 0.38006,0.68704 0.14618,0.4093 0.14618,1.0671 v 1.798 h -3.24516 v -1.27175 q 0,-0.83322 -0.29236,-1.15481 -0.27774,-0.3216 -1.03787,-0.3216 h -5.10163 v 2.74816 h -3.24517 z" />
        <path
           inkscape:connector-curvature="0"
           id="path1017"
           style="font-style:normal;font-variant:normal;font-weight:bold;font-stretch:expanded;font-family:'Eurostile LT W03 2';-inkscape-font-specification:'Eurostile LT W03 2 Bold Expanded';letter-spacing:-0.79374999px;fill:#606060;fill-opacity:1;stroke-width:0.26458332"
           d="m 406.91935,-127.80321 h 12.36671 v 2.63121 h -4.56077 v 7.95212 h -3.24517 v -7.95212 h -4.56077 z" />
        <path
           inkscape:connector-curvature="0"
           id="path1019"
           style="font-style:normal;font-variant:normal;font-weight:bold;font-stretch:expanded;font-family:'Eurostile LT W03 2';-inkscape-font-specification:'Eurostile LT W03 2 Bold Expanded';letter-spacing:-0.79374999px;fill:#606060;fill-opacity:1;stroke-width:0.26458332"
           d="m 418.89613,-127.80321 h 3.55214 l 4.13685,7.86441 4.13686,-7.86441 h 3.55214 l -5.68635,10.58333 h -4.0053 z" />
      </g>
      <g
         transform="translate(-15.67927)"
         id="text860-7-6"
         style="font-style:normal;font-weight:normal;font-size:5.31241846px;line-height:1.25;font-family:sans-serif;letter-spacing:1.07723248px;word-spacing:0px;fill:#606060;fill-opacity:1;stroke:none;stroke-width:0.26458329"
         aria-label="SECAUCUS, NEW JERSEY">
        <path
           inkscape:connector-curvature="0"
           id="path1048"
           style="font-style:normal;font-variant:normal;font-weight:bold;font-stretch:normal;font-family:'Trendex Black SSi';-inkscape-font-specification:'Trendex Black SSi Bold';letter-spacing:1.00541663px;fill:#606060;fill-opacity:1;stroke-width:0.26458329"
           d="m 437.28298,-150.61057 h -0.99349 q -0.0259,-0.1712 -0.0934,-0.28014 -0.0674,-0.10895 -0.26718,-0.10895 -0.13748,0 -0.24124,0.0882 -0.10375,0.0856 -0.10375,0.22568 0,0.11932 0.0545,0.19195 0.0571,0.07 0.18417,0.13748 0.1271,0.0674 0.57326,0.27496 0.35797,0.16082 0.5577,0.33462 0.19974,0.1712 0.28015,0.36575 0.0804,0.19454 0.0804,0.43837 0,0.31647 -0.13488,0.59143 -0.13229,0.27496 -0.43838,0.45134 -0.30609,0.1738 -0.79634,0.1738 -0.40207,0 -0.68221,-0.11673 -0.27756,-0.11673 -0.44098,-0.30868 -0.16082,-0.19195 -0.22826,-0.40725 -0.0675,-0.21789 -0.0675,-0.428 v -0.12711 h 0.99867 q 0,0.29831 0.1323,0.42022 0.13488,0.12192 0.27755,0.12192 0.16861,0 0.27496,-0.11932 0.10635,-0.11932 0.10635,-0.26199 0,-0.13229 -0.0648,-0.21271 -0.0649,-0.0804 -0.19454,-0.14526 -0.12711,-0.0649 -0.51101,-0.22826 -0.2179,-0.0882 -0.42282,-0.21012 -0.20492,-0.12191 -0.37093,-0.35277 -0.16602,-0.23346 -0.16602,-0.57327 0,-0.35796 0.19974,-0.62514 0.19973,-0.26718 0.51619,-0.40725 0.31906,-0.14267 0.65887,-0.14267 0.31127,0 0.59661,0.11932 0.28533,0.11673 0.46691,0.33462 0.15564,0.19455 0.20233,0.37094 0.0467,0.17379 0.0571,0.41503 z" />
        <path
           inkscape:connector-curvature="0"
           id="path1050"
           style="font-style:normal;font-variant:normal;font-weight:bold;font-stretch:normal;font-family:'Trendex Black SSi';-inkscape-font-specification:'Trendex Black SSi Bold';letter-spacing:1.00541663px;fill:#606060;fill-opacity:1;stroke-width:0.26458329"
           d="m 438.80459,-147.80132 v -3.96875 h 2.18411 v 0.88714 h -1.22175 v 0.61736 h 1.18543 v 0.89232 h -1.18543 v 0.67961 h 1.22175 v 0.89232 z" />
        <path
           inkscape:connector-curvature="0"
           id="path1052"
           style="font-style:normal;font-variant:normal;font-weight:bold;font-stretch:normal;font-family:'Trendex Black SSi';-inkscape-font-specification:'Trendex Black SSi Bold';letter-spacing:1.00541663px;fill:#606060;fill-opacity:1;stroke-width:0.26458329"
           d="m 445.45964,-149.28765 h 1.05055 q -0.11154,0.45913 -0.40206,0.81709 -0.28793,0.35538 -0.70037,0.54992 -0.40985,0.19455 -0.88454,0.19455 -0.44875,0 -0.83266,-0.16601 -0.38131,-0.16861 -0.65886,-0.45913 -0.27756,-0.29312 -0.42801,-0.66406 -0.15044,-0.37353 -0.15044,-0.77818 0,-0.5162 0.25161,-0.99089 0.25161,-0.4747 0.72112,-0.77041 0.4721,-0.29571 1.08687,-0.29571 0.44097,0 0.79634,0.15045 0.35537,0.14786 0.60958,0.39428 0.25421,0.24383 0.40206,0.51879 0.14786,0.27237 0.18936,0.52139 h -1.05055 q -0.0623,-0.16861 -0.18677,-0.32425 -0.12451,-0.15563 -0.31905,-0.26199 -0.19455,-0.10635 -0.44616,-0.10635 -0.24643,0 -0.44357,0.0986 -0.19455,0.096 -0.33203,0.26718 -0.13747,0.1712 -0.20751,0.37353 -0.0674,0.20233 -0.0674,0.42022 0,0.30349 0.12969,0.57586 0.1297,0.27236 0.37094,0.43838 0.24383,0.16601 0.55511,0.16601 0.63033,0 0.94679,-0.66924 z" />
        <path
           inkscape:connector-curvature="0"
           id="path1054"
           style="font-style:normal;font-variant:normal;font-weight:bold;font-stretch:normal;font-family:'Trendex Black SSi';-inkscape-font-specification:'Trendex Black SSi Bold';letter-spacing:1.00541663px;fill:#606060;fill-opacity:1;stroke-width:0.26458329"
           d="m 450.17182,-148.37458 h -1.36442 l -0.20752,0.57326 h -1.07909 l 1.57972,-3.96875 h 0.79116 l 1.56156,3.96875 h -1.08946 z m -0.68481,-2.16336 -0.40206,1.35664 h 0.82228 l -0.40465,-1.35664 h -0.005 z" />
        <path
           inkscape:connector-curvature="0"
           id="path1056"
           style="font-style:normal;font-variant:normal;font-weight:bold;font-stretch:normal;font-family:'Trendex Black SSi';-inkscape-font-specification:'Trendex Black SSi Bold';letter-spacing:1.00541663px;fill:#606060;fill-opacity:1;stroke-width:0.26458329"
           d="m 452.64282,-151.77007 h 1.00386 v 2.39682 q 0,0.31127 0.0934,0.53435 0.0934,0.22049 0.41763,0.22049 0.22567,0 0.33721,-0.11154 0.11154,-0.11413 0.13489,-0.26458 0.0259,-0.15305 0.0259,-0.37872 v -2.39682 h 1.00386 v 2.39682 q 0,0.32165 -0.0441,0.54732 -0.0441,0.22308 -0.1297,0.37872 -0.0856,0.15564 -0.21789,0.29052 -0.41244,0.4306 -1.09984,0.4306 -0.28533,0 -0.5992,-0.0934 -0.31387,-0.096 -0.53176,-0.33203 -0.23605,-0.26199 -0.31646,-0.5162 -0.0778,-0.2568 -0.0778,-0.70555 z" />
        <path
           inkscape:connector-curvature="0"
           id="path1058"
           style="font-style:normal;font-variant:normal;font-weight:bold;font-stretch:normal;font-family:'Trendex Black SSi';-inkscape-font-specification:'Trendex Black SSi Bold';letter-spacing:1.00541663px;fill:#606060;fill-opacity:1;stroke-width:0.26458329"
           d="m 460.22131,-149.28765 h 1.05056 q -0.11154,0.45913 -0.40207,0.81709 -0.28793,0.35538 -0.70037,0.54992 -0.40984,0.19455 -0.88453,0.19455 -0.44876,0 -0.83266,-0.16601 -0.38131,-0.16861 -0.65887,-0.45913 -0.27755,-0.29312 -0.428,-0.66406 -0.15045,-0.37353 -0.15045,-0.77818 0,-0.5162 0.25161,-0.99089 0.25162,-0.4747 0.72112,-0.77041 0.4721,-0.29571 1.08687,-0.29571 0.44097,0 0.79634,0.15045 0.35538,0.14786 0.60958,0.39428 0.25421,0.24383 0.40207,0.51879 0.14785,0.27237 0.18936,0.52139 h -1.05056 q -0.0623,-0.16861 -0.18676,-0.32425 -0.12451,-0.15563 -0.31906,-0.26199 -0.19454,-0.10635 -0.44616,-0.10635 -0.24642,0 -0.44356,0.0986 -0.19455,0.096 -0.33203,0.26718 -0.13748,0.1712 -0.20752,0.37353 -0.0674,0.20233 -0.0674,0.42022 0,0.30349 0.1297,0.57586 0.1297,0.27236 0.37093,0.43838 0.24384,0.16601 0.55511,0.16601 0.63033,0 0.94679,-0.66924 z" />
        <path
           inkscape:connector-curvature="0"
           id="path1060"
           style="font-style:normal;font-variant:normal;font-weight:bold;font-stretch:normal;font-family:'Trendex Black SSi';-inkscape-font-specification:'Trendex Black SSi Bold';letter-spacing:1.00541663px;fill:#606060;fill-opacity:1;stroke-width:0.26458329"
           d="m 462.78829,-151.77007 h 1.00386 v 2.39682 q 0,0.31127 0.0934,0.53435 0.0934,0.22049 0.41763,0.22049 0.22567,0 0.33721,-0.11154 0.11154,-0.11413 0.13489,-0.26458 0.0259,-0.15305 0.0259,-0.37872 v -2.39682 h 1.00386 v 2.39682 q 0,0.32165 -0.0441,0.54732 -0.0441,0.22308 -0.1297,0.37872 -0.0856,0.15564 -0.21789,0.29052 -0.41244,0.4306 -1.09983,0.4306 -0.28534,0 -0.59921,-0.0934 -0.31387,-0.096 -0.53176,-0.33203 -0.23605,-0.26199 -0.31646,-0.5162 -0.0778,-0.2568 -0.0778,-0.70555 z" />
        <path
           inkscape:connector-curvature="0"
           id="path1062"
           style="font-style:normal;font-variant:normal;font-weight:bold;font-stretch:normal;font-family:'Trendex Black SSi';-inkscape-font-specification:'Trendex Black SSi Bold';letter-spacing:1.00541663px;fill:#606060;fill-opacity:1;stroke-width:0.26458329"
           d="m 470.05292,-150.61057 h -0.99349 q -0.0259,-0.1712 -0.0934,-0.28014 -0.0674,-0.10895 -0.26718,-0.10895 -0.13747,0 -0.24123,0.0882 -0.10376,0.0856 -0.10376,0.22568 0,0.11932 0.0545,0.19195 0.0571,0.07 0.18417,0.13748 0.12711,0.0674 0.57327,0.27496 0.35796,0.16082 0.5577,0.33462 0.19973,0.1712 0.28014,0.36575 0.0804,0.19454 0.0804,0.43837 0,0.31647 -0.13489,0.59143 -0.13229,0.27496 -0.43838,0.45134 -0.30608,0.1738 -0.79634,0.1738 -0.40206,0 -0.68221,-0.11673 -0.27755,-0.11673 -0.44097,-0.30868 -0.16083,-0.19195 -0.22827,-0.40725 -0.0674,-0.21789 -0.0674,-0.428 v -0.12711 h 0.99867 q 0,0.29831 0.13229,0.42022 0.13489,0.12192 0.27755,0.12192 0.16861,0 0.27496,-0.11932 0.10635,-0.11932 0.10635,-0.26199 0,-0.13229 -0.0648,-0.21271 -0.0649,-0.0804 -0.19455,-0.14526 -0.12711,-0.0649 -0.51101,-0.22826 -0.21789,-0.0882 -0.42282,-0.21012 -0.20492,-0.12191 -0.37093,-0.35277 -0.16601,-0.23346 -0.16601,-0.57327 0,-0.35796 0.19973,-0.62514 0.19974,-0.26718 0.5162,-0.40725 0.31905,-0.14267 0.65886,-0.14267 0.31128,0 0.59661,0.11932 0.28534,0.11673 0.46691,0.33462 0.15564,0.19455 0.20233,0.37094 0.0467,0.17379 0.0571,0.41503 z" />
        <path
           inkscape:connector-curvature="0"
           id="path1064"
           style="font-style:normal;font-variant:normal;font-weight:bold;font-stretch:normal;font-family:'Trendex Black SSi';-inkscape-font-specification:'Trendex Black SSi Bold';letter-spacing:1.00541663px;fill:#606060;fill-opacity:1;stroke-width:0.26458329"
           d="m 472.6199,-148.71439 v 1.12578 q 0,0.35018 -0.17639,0.50063 -0.1738,0.15305 -0.36575,0.15305 h -0.37872 v -0.47729 h 0.18677 q 0.1271,0 0.17638,-0.07 0.0519,-0.0674 0.0519,-0.13748 v -0.18158 h -0.41503 v -0.91307 z" />
        <path
           inkscape:connector-curvature="0"
           id="path1066"
           style="font-style:normal;font-variant:normal;font-weight:bold;font-stretch:normal;font-family:'Trendex Black SSi';-inkscape-font-specification:'Trendex Black SSi Bold';letter-spacing:1.00541663px;fill:#606060;fill-opacity:1;stroke-width:0.26458329"
           d="m 476.74999,-147.80132 v -3.96875 h 0.86638 l 1.52006,2.49279 0.0104,-0.0104 -0.0441,-2.48242 h 0.96235 v 3.96875 h -0.87156 l -1.49672,-2.41756 -0.0104,0.0104 0.0259,2.40718 z" />
        <path
           inkscape:connector-curvature="0"
           id="path1068"
           style="font-style:normal;font-variant:normal;font-weight:bold;font-stretch:normal;font-family:'Trendex Black SSi';-inkscape-font-specification:'Trendex Black SSi Bold';letter-spacing:1.00541663px;fill:#606060;fill-opacity:1;stroke-width:0.26458329"
           d="m 481.7916,-147.80132 v -3.96875 h 2.18411 v 0.88714 h -1.22175 v 0.61736 h 1.18544 v 0.89232 h -1.18544 v 0.67961 h 1.22175 v 0.89232 z" />
        <path
           inkscape:connector-curvature="0"
           id="path1070"
           style="font-style:normal;font-variant:normal;font-weight:bold;font-stretch:normal;font-family:'Trendex Black SSi';-inkscape-font-specification:'Trendex Black SSi Bold';letter-spacing:1.00541663px;fill:#606060;fill-opacity:1;stroke-width:0.26458329"
           d="m 485.32871,-151.77007 h 1.01943 l 0.52657,2.5758 h 0.0104 l 0.57845,-2.5758 h 0.7704 l 0.56808,2.58877 h 0.0104 l 0.53694,-2.58877 h 1.01424 l -1.04018,3.96875 h -0.88194 l -0.58883,-2.5706 h -0.013 l -0.58882,2.5706 h -0.90789 z" />
        <path
           inkscape:connector-curvature="0"
           id="path1072"
           style="font-style:normal;font-variant:normal;font-weight:bold;font-stretch:normal;font-family:'Trendex Black SSi';-inkscape-font-specification:'Trendex Black SSi Bold';letter-spacing:1.00541663px;fill:#606060;fill-opacity:1;stroke-width:0.26458329"
           d="m 495.80622,-151.77007 h 1.00386 v 2.39682 q 0,0.48507 -0.0545,0.72112 -0.0545,0.23605 -0.18936,0.40465 -0.19455,0.25681 -0.49804,0.3891 -0.3009,0.13229 -0.61218,0.13229 -0.18676,0 -0.47728,-0.0726 -0.28793,-0.0726 -0.56549,-0.37353 -0.27755,-0.3009 -0.28014,-0.90529 h 1.06871 q 0.0104,0.19455 0.0674,0.32684 0.0597,0.13229 0.23605,0.13229 0.19455,0 0.24642,-0.14267 0.0545,-0.14267 0.0545,-0.35796 z" />
        <path
           inkscape:connector-curvature="0"
           id="path1074"
           style="font-style:normal;font-variant:normal;font-weight:bold;font-stretch:normal;font-family:'Trendex Black SSi';-inkscape-font-specification:'Trendex Black SSi Bold';letter-spacing:1.00541663px;fill:#606060;fill-opacity:1;stroke-width:0.26458329"
           d="m 498.53402,-147.80132 v -3.96875 h 2.18411 v 0.88714 h -1.22176 v 0.61736 h 1.18544 v 0.89232 h -1.18544 v 0.67961 h 1.22176 v 0.89232 z" />
        <path
           inkscape:connector-curvature="0"
           id="path1076"
           style="font-style:normal;font-variant:normal;font-weight:bold;font-stretch:normal;font-family:'Trendex Black SSi';-inkscape-font-specification:'Trendex Black SSi Bold';letter-spacing:1.00541663px;fill:#606060;fill-opacity:1;stroke-width:0.26458329"
           d="m 502.34091,-147.80132 v -3.96875 h 1.2425 q 0.32684,0 0.55511,0.0311 0.22826,0.0285 0.37093,0.0882 0.14526,0.0571 0.28534,0.16342 0.15304,0.11932 0.26458,0.2983 0.11154,0.17898 0.16601,0.37872 0.0545,0.19714 0.0545,0.40465 0,0.19196 -0.0519,0.3865 -0.0493,0.19455 -0.16602,0.37872 -0.11413,0.18158 -0.30349,0.31128 -0.18676,0.12969 -0.45653,0.17379 l 1.06871,1.35404 h -1.14913 l -0.90788,-1.28141 h -0.0104 v 1.28141 z m 0.96235,-3.08161 v 1.10502 h 0.35538 q 0.26977,0 0.41503,-0.0934 0.14785,-0.0934 0.19454,-0.21789 0.0493,-0.12711 0.0493,-0.2568 0,-0.2594 -0.1738,-0.39688 -0.1712,-0.14007 -0.47469,-0.14007 z" />
        <path
           inkscape:connector-curvature="0"
           id="path1078"
           style="font-style:normal;font-variant:normal;font-weight:bold;font-stretch:normal;font-family:'Trendex Black SSi';-inkscape-font-specification:'Trendex Black SSi Bold';letter-spacing:1.00541663px;fill:#606060;fill-opacity:1;stroke-width:0.26458329"
           d="m 509.34614,-150.61057 h -0.99349 q -0.0259,-0.1712 -0.0934,-0.28014 -0.0674,-0.10895 -0.26717,-0.10895 -0.13748,0 -0.24124,0.0882 -0.10376,0.0856 -0.10376,0.22568 0,0.11932 0.0545,0.19195 0.0571,0.07 0.18417,0.13748 0.12711,0.0674 0.57327,0.27496 0.35796,0.16082 0.5577,0.33462 0.19973,0.1712 0.28014,0.36575 0.0804,0.19454 0.0804,0.43837 0,0.31647 -0.13489,0.59143 -0.13229,0.27496 -0.43838,0.45134 -0.30608,0.1738 -0.79634,0.1738 -0.40206,0 -0.68221,-0.11673 -0.27755,-0.11673 -0.44097,-0.30868 -0.16083,-0.19195 -0.22827,-0.40725 -0.0674,-0.21789 -0.0674,-0.428 v -0.12711 h 0.99867 q 0,0.29831 0.13229,0.42022 0.13489,0.12192 0.27755,0.12192 0.16861,0 0.27496,-0.11932 0.10635,-0.11932 0.10635,-0.26199 0,-0.13229 -0.0648,-0.21271 -0.0649,-0.0804 -0.19455,-0.14526 -0.1271,-0.0649 -0.51101,-0.22826 -0.21789,-0.0882 -0.42281,-0.21012 -0.20493,-0.12191 -0.37094,-0.35277 -0.16601,-0.23346 -0.16601,-0.57327 0,-0.35796 0.19973,-0.62514 0.19974,-0.26718 0.5162,-0.40725 0.31905,-0.14267 0.65886,-0.14267 0.31128,0 0.59661,0.11932 0.28534,0.11673 0.46691,0.33462 0.15564,0.19455 0.20233,0.37094 0.0467,0.17379 0.0571,0.41503 z" />
        <path
           inkscape:connector-curvature="0"
           id="path1080"
           style="font-style:normal;font-variant:normal;font-weight:bold;font-stretch:normal;font-family:'Trendex Black SSi';-inkscape-font-specification:'Trendex Black SSi Bold';letter-spacing:1.00541663px;fill:#606060;fill-opacity:1;stroke-width:0.26458329"
           d="m 510.86775,-147.80132 v -3.96875 h 2.18411 v 0.88714 h -1.22175 v 0.61736 h 1.18544 v 0.89232 h -1.18544 v 0.67961 h 1.22175 v 0.89232 z" />
        <path
           inkscape:connector-curvature="0"
           id="path1082"
           style="font-style:normal;font-variant:normal;font-weight:bold;font-stretch:normal;font-family:'Trendex Black SSi';-inkscape-font-specification:'Trendex Black SSi Bold';letter-spacing:1.00541663px;fill:#606060;fill-opacity:1;stroke-width:0.26458329"
           d="m 515.54102,-147.80132 v -1.44483 l -1.17506,-2.52392 h 1.08946 l 0.58623,1.59529 0.58883,-1.59529 h 1.07909 l -1.16469,2.52392 v 1.44483 z" />
      </g>
      <circle
         style="fill:#606060;fill-opacity:1;stroke:none;stroke-width:0.13229166;stroke-linecap:square;stroke-linejoin:miter;stroke-miterlimit:4;stroke-dasharray:none;stroke-opacity:1"
         id="path1119-6"
         cx="480.79013"
         cy="-159.70753"
         r="1.5874999" />
    </g>
  </g>
</svg>
