<svg viewBox="0 0 545.12 268.27" xmlns="http://www.w3.org/2000/svg"><g fill="#0a2240"><path d="m305.73 98.72 5.32 21.12h24.28v-45.73h-168.44v24.61h9.48l-16.29 28.44-16.29-28.44h9.64v-24.61h-58v24.61h9.82l37.07 50.72v20.12h-12.67v24.59h61.53v-24.59h-13v-19.13l34.41-51.71h20.95v70.84h-11.44v24.59h113.23v-47.54h-24.28l-5.32 22.95h-36.24v-21.95h25.62v-26.93h-25.62v-22z"/><path d="m416 107.87a31 31 0 0 0 -11.15-9.64c-4.48-2.35-9.8-3.5-16.29-3.5-6.66 0-14.64 2.16-14.64 8.65 0 10.48 19 10.15 37.92 14s37.91 11.8 37.91 39.06c0 26.61-19.63 40.41-45.4 40.41-11.47 0-23.77-2.82-31.91-12.3v9.63h-29.8v-37.77h30.6a25 25 0 0 0 10.13 11 29.77 29.77 0 0 0 14.64 3.5c7.81 0 17-1.66 17-9.82 0-10.64-19.12-10.64-38.24-14.46s-38.24-11.3-38.24-37.07c0-19.47 16.45-38.09 46.05-38.09 12.79 0 21.94 2.83 31.59 11.81v-9.17h29.93v33.76z"/><path d="m499.29 0h-453.46a45.83 45.83 0 0 0 -45.83 45.83v176.62a45.82 45.82 0 0 0 45.83 45.82h453.46a45.82 45.82 0 0 0 45.83-45.82v-176.62a45.83 45.83 0 0 0 -45.83-45.83zm-18.61 76.15v116a40.1 40.1 0 0 1 -40.1 40.09h-336a40.09 40.09 0 0 1 -40.1-40.09v-116a40.1 40.1 0 0 1 40.1-40.1h336a40.1 40.1 0 0 1 40.1 40.1z"/></g></svg>