<svg width="1280" height="1138" viewBox="0 0 1280 1138" fill="none" xmlns="http://www.w3.org/2000/svg">
<g clip-path="url(#clip0_19_81)">
<path d="M686.47 6.61C694.9 10.41 722.79 28.51 731.87 62.47C736.72 80.6 733.96 95.51 731.87 106.18C723.92 146.7 695.38 184.93 655.41 203.32C638.72 211 616.08 212.68 594.6 203.32C561.15 188.75 546.39 150.63 545.49 120.75C544.33 82.19 561.57 30.08 607.62 9.04C642.75 -7.01 676.99 2.34 686.47 6.61Z" fill="#FC6E5E"/>
<path d="M312.01 116.95C374.96 218.57 365.48 339.61 290.82 387.3C216.16 434.99 104.6 391.27 41.65 289.66C-21.31 188.03 -11.82 66.99 62.84 19.3C137.5 -28.39 249.06 15.33 312.01 116.94V116.95Z" fill="white"/>
<path d="M214.835 347.017C256.129 321.969 257.736 249.125 218.423 184.314C179.111 119.504 113.767 87.2709 72.4724 112.319C31.178 137.367 29.5713 210.212 68.8835 275.022C108.196 339.832 173.54 372.065 214.835 347.017Z" fill="#FC6E5E"/>
<path d="M967.99 116.95C905.04 218.57 914.52 339.61 989.18 387.3C1063.84 434.99 1175.4 391.27 1238.35 289.66C1301.3 188.04 1291.82 67 1217.16 19.31C1142.5 -28.38 1030.94 15.34 967.99 116.95Z" fill="white"/>
<path d="M1211.14 275.034C1250.45 210.224 1248.84 137.379 1207.55 112.331C1166.25 87.2832 1100.91 119.517 1061.6 184.327C1022.28 249.137 1023.89 321.981 1065.19 347.03C1106.48 372.078 1171.82 339.844 1211.14 275.034Z" fill="#FC6E5E"/>
<path d="M1280 697.31C1280 982.45 993.46 1137.78 640 1137.78C286.54 1137.78 0 982.45 0 697.31C0 412.17 286.54 105.21 640 105.21C993.46 105.21 1280 412.18 1280 697.31Z" fill="white"/>
<path d="M458.74 428.22C402.3 388.03 317.82 403.25 273.85 457.13C243.55 494.26 227.31 556.1 256.07 605.29C290.09 663.48 367.79 671 419.63 652.27C425.85 650.02 504.1 620.25 512.07 543.86C517.09 495.73 491.84 451.8 458.74 428.22ZM433.85 540.24C410.29 540.24 391.18 520.83 391.18 496.88C391.18 472.93 410.28 453.52 433.85 453.52C457.42 453.52 476.52 472.93 476.52 496.88C476.52 520.83 457.42 540.24 433.85 540.24Z" fill="#291F7B"/>
<path d="M1006.15 457.13C962.18 403.25 877.7 388.03 821.26 428.22C788.15 451.8 762.9 495.72 767.93 543.86C775.9 620.25 854.16 650.02 860.37 652.27C912.21 671 989.91 663.48 1023.93 605.29C1052.69 556.1 1036.46 494.27 1006.15 457.13ZM846.15 540.24C822.59 540.24 803.48 520.83 803.48 496.88C803.48 472.93 822.58 453.52 846.15 453.52C869.72 453.52 888.82 472.93 888.82 496.88C888.82 520.83 869.72 540.24 846.15 540.24Z" fill="#291F7B"/>
<path d="M407.505 341.077C423.478 326.3 429.885 307.249 421.814 298.524C413.744 289.8 394.252 294.705 378.278 309.482C362.304 324.258 355.898 343.309 363.968 352.034C372.039 360.759 391.531 355.853 407.505 341.077Z" fill="#291F7B"/>
<path d="M915.995 351.917C924.066 343.192 917.659 324.141 901.685 309.364C885.712 294.588 866.22 289.682 858.149 298.407C850.078 307.132 856.485 326.183 872.459 340.959C888.433 355.736 907.924 360.642 915.995 351.917Z" fill="#291F7B"/>
<path d="M181.52 686.6C168.98 692.25 127.47 719.18 113.96 769.71C106.75 796.69 110.84 818.88 113.96 834.75C125.79 895.04 168.25 951.92 227.74 979.29C252.57 990.72 286.26 993.21 318.22 979.29C368 957.61 389.96 900.88 391.3 856.43C393.03 799.05 367.37 721.51 298.86 690.2C246.59 666.32 195.64 680.23 181.53 686.59L181.52 686.6Z" fill="#FC6E5E"/>
<path d="M1098.48 686.6C1111.02 692.25 1152.53 719.18 1166.04 769.71C1173.25 796.69 1169.16 818.88 1166.04 834.75C1154.21 895.04 1111.75 951.92 1052.26 979.29C1027.43 990.72 993.74 993.21 961.78 979.29C912 957.61 890.04 900.88 888.7 856.43C886.97 799.05 912.63 721.51 981.14 690.2C1033.41 666.32 1084.36 680.23 1098.47 686.59L1098.48 686.6Z" fill="#FC6E5E"/>
<path d="M749.28 609.78C747.22 605.95 742.24 604.97 738.85 607.64C735.77 610.07 732.42 612.17 728.91 613.93C723.97 616.35 718.71 618.09 713.16 619.03C710.14 619.5 707.08 619.75 704.02 619.75C678.99 619.75 657.8 603.38 650.15 580.61C649.95 580.02 649.76 579.42 649.58 578.82C648.59 575.54 650.09 572.09 653.08 570.51C669.31 561.93 687.63 541.91 682.22 532.29C673.26 516.39 606.74 516.39 597.78 532.29C592.37 541.91 610.71 561.95 626.92 570.52C629.91 572.1 631.4 575.55 630.42 578.82C630.24 579.42 630.05 580.01 629.85 580.6C622.24 603.37 601.01 619.74 576.02 619.74C572.93 619.74 569.87 619.49 566.85 619.02C561.3 618.08 556.04 616.35 551.13 613.92C547.6 612.17 544.24 610.06 541.15 607.63C537.76 604.96 532.78 605.94 530.72 609.77C530.7 609.81 530.67 609.86 530.65 609.9C528.98 613.01 529.71 616.92 532.47 619.08C536.15 621.97 540.13 624.51 544.35 626.64C548.44 628.71 551.13 632.84 551.13 637.49V670.33C551.13 670.94 551.13 671.52 551.17 672.14C552.09 721.21 591.49 760.67 640.02 760.67C688.55 760.67 727.91 721.21 728.84 672.14C728.91 671.53 728.91 670.95 728.91 670.33V637.48C728.91 632.84 731.59 628.71 735.68 626.64C739.88 624.51 743.86 621.97 747.53 619.09C750.29 616.92 751.02 613.02 749.35 609.91C749.33 609.87 749.3 609.82 749.28 609.78ZM617.83 539.52C622.56 531.17 657.44 531.17 662.17 539.52C665.83 546.02 648.66 561.71 639.98 561.71C631.3 561.71 614.17 546.03 617.83 539.52Z" fill="#291F7B"/>
<path d="M583.26 679.92C583.21 680.94 583.11 681.95 583.11 682.98C583.11 714.91 608.58 740.8 640 740.8C671.42 740.8 696.89 714.91 696.89 682.98C696.89 674.02 694.83 665.58 691.25 658.01C678.88 648.76 663.65 643.23 647.11 643.23C620 643.23 596.34 657.96 583.26 679.92Z" fill="#FC6E5E"/>
<path d="M653.79 30.08C654.15 32.37 654.1 40.91 647.77 48.55C644.39 52.63 640.63 54.68 637.92 56.12C627.65 61.6 614.92 62.7 605 58.14C600.86 56.24 597.21 52.14 596.22 46.36C594.67 37.36 601.13 27.89 607.73 22.54C616.25 15.63 630.47 9.94 641.86 15.22C650.55 19.24 653.39 27.49 653.79 30.07V30.08Z" fill="white"/>
</g>
<defs>
<clipPath id="clip0_19_81">
<rect width="1280" height="1137.78" fill="white"/>
</clipPath>
</defs>
</svg>
