<svg width="140" height="40" viewBox="0 0 294 88" fill="none" xmlns="http://www.w3.org/2000/svg">
    <rect width="294" height="87.128" rx="14" fill="#00ACC1"/>
    <path d="M275.814 70.392C275.814 70.648 275.798 70.9147 275.766 71.192H269.574C269.617 71.7467 269.793 72.1734 270.102 72.472C270.422 72.76 270.812 72.904 271.27 72.904C271.953 72.904 272.428 72.616 272.694 72.04H275.606C275.457 72.6267 275.185 73.1547 274.79 73.624C274.406 74.0934 273.921 74.4614 273.334 74.728C272.748 74.9947 272.092 75.128 271.366 75.128C270.492 75.128 269.713 74.9414 269.03 74.568C268.348 74.1947 267.814 73.6614 267.43 72.968C267.046 72.2747 266.854 71.464 266.854 70.536C266.854 69.608 267.041 68.7974 267.414 68.104C267.798 67.4107 268.332 66.8774 269.014 66.504C269.697 66.1307 270.481 65.944 271.366 65.944C272.23 65.944 272.998 66.1254 273.67 66.488C274.342 66.8507 274.865 67.368 275.238 68.04C275.622 68.712 275.814 69.496 275.814 70.392ZM273.014 69.672C273.014 69.2027 272.854 68.8294 272.534 68.552C272.214 68.2747 271.814 68.136 271.334 68.136C270.876 68.136 270.486 68.2694 270.166 68.536C269.857 68.8027 269.665 69.1814 269.59 69.672H273.014Z" fill="white"/>
    <path d="M265.955 70.392C265.955 70.648 265.939 70.9147 265.907 71.192H259.715C259.758 71.7467 259.934 72.1734 260.243 72.472C260.563 72.76 260.952 72.904 261.411 72.904C262.094 72.904 262.568 72.616 262.835 72.04H265.747C265.598 72.6267 265.326 73.1547 264.931 73.624C264.547 74.0934 264.062 74.4614 263.475 74.728C262.888 74.9947 262.232 75.128 261.507 75.128C260.632 75.128 259.854 74.9414 259.171 74.568C258.488 74.1947 257.955 73.6614 257.571 72.968C257.187 72.2747 256.995 71.464 256.995 70.536C256.995 69.608 257.182 68.7974 257.555 68.104C257.939 67.4107 258.472 66.8774 259.155 66.504C259.838 66.1307 260.622 65.944 261.507 65.944C262.371 65.944 263.139 66.1254 263.811 66.488C264.483 66.8507 265.006 67.368 265.379 68.04C265.763 68.712 265.955 69.496 265.955 70.392ZM263.155 69.672C263.155 69.2027 262.995 68.8294 262.675 68.552C262.355 68.2747 261.955 68.136 261.475 68.136C261.016 68.136 260.627 68.2694 260.307 68.536C259.998 68.8027 259.806 69.1814 259.731 69.672H263.155Z" fill="white"/>
    <path d="M253.431 67.56C253.751 67.0693 254.151 66.6853 254.631 66.408C255.111 66.12 255.644 65.976 256.231 65.976V68.872H255.479C254.796 68.872 254.284 69.0213 253.943 69.32C253.602 69.608 253.431 70.12 253.431 70.856V75H250.695V66.072H253.431V67.56Z" fill="white"/>
    <path d="M249.257 63.768V65.96H244.681V68.328H248.105V70.456H244.681V75H241.945V63.768H249.257Z" fill="white"/>
    <path d="M234.447 67.56C234.767 67.0693 235.167 66.6853 235.647 66.408C236.127 66.12 236.66 65.976 237.247 65.976V68.872H236.495C235.812 68.872 235.3 69.0213 234.959 69.32C234.617 69.608 234.447 70.12 234.447 70.856V75H231.711V66.072H234.447V67.56Z" fill="white"/>
    <path d="M225.587 75.128C224.713 75.128 223.923 74.9414 223.219 74.568C222.526 74.1947 221.977 73.6614 221.571 72.968C221.177 72.2747 220.979 71.464 220.979 70.536C220.979 69.6187 221.182 68.8134 221.587 68.12C221.993 67.416 222.547 66.8774 223.251 66.504C223.955 66.1307 224.745 65.944 225.619 65.944C226.494 65.944 227.283 66.1307 227.987 66.504C228.691 66.8774 229.246 67.416 229.651 68.12C230.057 68.8134 230.259 69.6187 230.259 70.536C230.259 71.4534 230.051 72.264 229.635 72.968C229.23 73.6614 228.67 74.1947 227.955 74.568C227.251 74.9414 226.462 75.128 225.587 75.128ZM225.587 72.76C226.11 72.76 226.553 72.568 226.915 72.184C227.289 71.8 227.475 71.2507 227.475 70.536C227.475 69.8214 227.294 69.272 226.931 68.888C226.579 68.504 226.142 68.312 225.619 68.312C225.086 68.312 224.643 68.504 224.291 68.888C223.939 69.2614 223.763 69.8107 223.763 70.536C223.763 71.2507 223.934 71.8 224.275 72.184C224.627 72.568 225.065 72.76 225.587 72.76Z" fill="white"/>
    <path d="M220.085 63.768V65.96H215.509V68.328H218.933V70.456H215.509V75H212.773V63.768H220.085Z" fill="white"/>
    <path d="M204.093 75.128C203.314 75.128 202.621 74.9947 202.013 74.728C201.405 74.4614 200.925 74.0987 200.573 73.64C200.221 73.1707 200.023 72.648 199.981 72.072H202.685C202.717 72.3814 202.861 72.632 203.117 72.824C203.373 73.016 203.687 73.112 204.061 73.112C204.402 73.112 204.663 73.048 204.845 72.92C205.037 72.7814 205.133 72.6054 205.133 72.392C205.133 72.136 204.999 71.9494 204.733 71.832C204.466 71.704 204.034 71.5654 203.437 71.416C202.797 71.2667 202.263 71.112 201.837 70.952C201.41 70.7814 201.042 70.52 200.733 70.168C200.423 69.8054 200.269 69.32 200.269 68.712C200.269 68.2 200.407 67.736 200.685 67.32C200.973 66.8934 201.389 66.5574 201.933 66.312C202.487 66.0667 203.143 65.944 203.901 65.944C205.021 65.944 205.901 66.2214 206.541 66.776C207.191 67.3307 207.565 68.0667 207.661 68.984H205.133C205.09 68.6747 204.951 68.4294 204.717 68.248C204.493 68.0667 204.194 67.976 203.821 67.976C203.501 67.976 203.255 68.04 203.085 68.168C202.914 68.2854 202.829 68.4507 202.829 68.664C202.829 68.92 202.962 69.112 203.229 69.24C203.506 69.368 203.933 69.496 204.509 69.624C205.17 69.7947 205.709 69.9654 206.125 70.136C206.541 70.296 206.903 70.5627 207.213 70.936C207.533 71.2987 207.698 71.7894 207.709 72.408C207.709 72.9307 207.559 73.4 207.261 73.816C206.973 74.2214 206.551 74.5414 205.997 74.776C205.453 75.0107 204.818 75.128 204.093 75.128Z" fill="white"/>
    <path d="M199.017 70.392C199.017 70.648 199.001 70.9147 198.969 71.192H192.777C192.82 71.7467 192.996 72.1734 193.305 72.472C193.625 72.76 194.015 72.904 194.473 72.904C195.156 72.904 195.631 72.616 195.897 72.04H198.809C198.66 72.6267 198.388 73.1547 197.993 73.624C197.609 74.0934 197.124 74.4614 196.537 74.728C195.951 74.9947 195.295 75.128 194.569 75.128C193.695 75.128 192.916 74.9414 192.233 74.568C191.551 74.1947 191.017 73.6614 190.633 72.968C190.249 72.2747 190.057 71.464 190.057 70.536C190.057 69.608 190.244 68.7974 190.617 68.104C191.001 67.4107 191.535 66.8774 192.217 66.504C192.9 66.1307 193.684 65.944 194.569 65.944C195.433 65.944 196.201 66.1254 196.873 66.488C197.545 66.8507 198.068 67.368 198.441 68.04C198.825 68.712 199.017 69.496 199.017 70.392ZM196.217 69.672C196.217 69.2027 196.057 68.8294 195.737 68.552C195.417 68.2747 195.017 68.136 194.537 68.136C194.079 68.136 193.689 68.2694 193.369 68.536C193.06 68.8027 192.868 69.1814 192.793 69.672H196.217Z" fill="white"/>
    <path d="M187.258 65.144C186.778 65.144 186.384 65.0054 186.074 64.728C185.776 64.44 185.626 64.088 185.626 63.672C185.626 63.2454 185.776 62.8934 186.074 62.616C186.384 62.328 186.778 62.184 187.258 62.184C187.728 62.184 188.112 62.328 188.41 62.616C188.72 62.8934 188.874 63.2454 188.874 63.672C188.874 64.088 188.72 64.44 188.41 64.728C188.112 65.0054 187.728 65.144 187.258 65.144ZM188.618 66.072V75H185.882V66.072H188.618Z" fill="white"/>
    <path d="M179.883 72.44L181.819 66.072H184.731L181.563 75H178.187L175.019 66.072H177.947L179.883 72.44Z" fill="white"/>
    <path d="M169.743 75.128C168.869 75.128 168.079 74.9414 167.375 74.568C166.682 74.1947 166.133 73.6614 165.727 72.968C165.333 72.2747 165.135 71.464 165.135 70.536C165.135 69.6187 165.338 68.8134 165.743 68.12C166.149 67.416 166.703 66.8774 167.407 66.504C168.111 66.1307 168.901 65.944 169.775 65.944C170.65 65.944 171.439 66.1307 172.143 66.504C172.847 66.8774 173.402 67.416 173.807 68.12C174.213 68.8134 174.415 69.6187 174.415 70.536C174.415 71.4534 174.207 72.264 173.791 72.968C173.386 73.6614 172.826 74.1947 172.111 74.568C171.407 74.9414 170.618 75.128 169.743 75.128ZM169.743 72.76C170.266 72.76 170.709 72.568 171.071 72.184C171.445 71.8 171.631 71.2507 171.631 70.536C171.631 69.8214 171.45 69.272 171.087 68.888C170.735 68.504 170.298 68.312 169.775 68.312C169.242 68.312 168.799 68.504 168.447 68.888C168.095 69.2614 167.919 69.8107 167.919 70.536C167.919 71.2507 168.09 71.8 168.431 72.184C168.783 72.568 169.221 72.76 169.743 72.76Z" fill="white"/>
    <path d="M163.712 63.768V75H160.976V68.264L158.464 75H156.256L153.728 68.248V75H150.992V63.768H154.224L157.376 71.544L160.496 63.768H163.712Z" fill="white"/>
    <path fill-rule="evenodd" clip-rule="evenodd" d="M148.135 54.3887C135.822 45.9571 120.485 45.6164 107.4 51.8361C101.276 54.7525 97.7149 57.9115 90.5474 59.6787C75.8149 63.2997 61.3128 57.3687 59.4806 40.3784C53.4367 63.5249 74.7836 77.8182 96.5856 68.5665C101.172 66.6203 104.865 63.6866 109.538 61.8039C122.703 56.5313 136.635 59.465 148.129 75V54.3887H148.135ZM144.69 53.5917C143.941 53.1644 143.169 52.7717 142.385 52.3963V54.9662C143.169 55.3762 143.935 55.8036 144.69 56.2598V53.5917ZM144.69 65.8811C143.941 65.1766 143.186 64.4893 142.385 63.8483V66.8744C143.186 67.5963 143.952 68.3298 144.69 69.1152V65.8811ZM137.799 50.5598C137.05 50.3115 136.278 50.0863 135.494 49.8899V52.2808C136.278 52.4945 137.044 52.7255 137.799 52.9854V50.5598ZM137.799 60.5969C137.05 60.1407 136.278 59.7133 135.494 59.3206V61.9252C136.278 62.3525 137.044 62.8261 137.799 63.317V60.5969ZM130.902 49.0237C130.136 48.9255 129.364 48.862 128.597 48.81V51.12C129.364 51.172 130.13 51.2528 130.902 51.351V49.0237ZM130.902 57.4206C130.153 57.1896 129.381 56.9644 128.597 56.7796V59.1532C129.381 59.3495 130.147 59.5978 130.902 59.8577V57.4206ZM124.011 48.758C123.245 48.8042 122.478 48.8562 121.706 48.937V51.2644C122.473 51.1835 123.245 51.12 124.011 51.068V48.758ZM124.011 56.0462C123.406 56 122.818 55.9653 122.213 55.948C122.052 55.948 121.874 55.948 121.706 55.948V58.2407C121.856 58.258 122 58.258 122.15 58.258C122.79 58.2753 123.389 58.31 124.011 58.3562V56.0462ZM117.103 49.6936C116.337 49.8726 115.564 50.0689 114.815 50.2826V52.6735C115.564 52.4598 116.337 52.2462 117.103 52.0671V49.6936ZM117.103 56.2425C116.337 56.3407 115.564 56.4735 114.815 56.6352V58.9914C115.564 58.8124 116.337 58.6796 117.103 58.5641V56.2425ZM110.212 51.8534C109.446 52.1826 108.679 52.506 107.907 52.8699V55.4398C108.674 55.0471 109.44 54.689 110.212 54.3598V51.8534ZM110.212 57.8942C109.446 58.1541 108.679 58.4486 107.907 58.7604V61.2495C108.674 60.9203 109.44 60.6085 110.212 60.3313V57.8942ZM103.321 55.3878C102.572 55.8614 101.806 56.3234 101.016 56.7623V59.3668C101.8 58.9741 102.566 58.5468 103.321 58.0905V55.3878ZM103.321 60.9723C102.537 61.3997 101.771 61.8386 101.016 62.3121V65.0149C101.8 64.5586 102.549 64.0677 103.321 63.6057V60.9723ZM96.4243 58.9568C95.658 59.2687 94.9032 59.5632 94.1196 59.8231V62.2486C94.8859 62.0003 95.658 61.7404 96.4243 61.4459V58.9568ZM96.4243 64.8532C95.6753 65.2112 94.9032 65.5231 94.1196 65.8349V68.2893C94.9032 68.0121 95.6695 67.7003 96.4243 67.3711V64.8532ZM89.5334 61.0878C88.7671 61.2495 88.0008 61.3823 87.2287 61.4978V63.8194C87.995 63.7212 88.7613 63.5884 89.5334 63.444V61.0878ZM89.5334 67.2267C88.7671 67.4057 88.0008 67.5559 87.2287 67.6541V69.993C87.995 69.8775 88.7613 69.7447 89.5334 69.583V67.2267ZM82.6252 61.8559C81.8762 61.8559 81.1041 61.8386 80.3378 61.775V64.0677C81.0868 64.1313 81.8589 64.1486 82.6252 64.1486V61.8559ZM82.6252 67.9948C81.8589 67.9948 81.0926 67.9602 80.3378 67.914V70.1258C80.6143 70.1605 80.8794 70.172 81.1559 70.1893C81.6457 70.224 82.1354 70.2529 82.6252 70.2529V67.9948ZM75.7342 61.1051C74.9679 60.9261 74.2016 60.7124 73.4469 60.4525V62.7279C74.1844 62.9878 74.9507 63.2015 75.7342 63.3805V61.1051ZM75.7342 67.2556C74.9679 67.0766 74.2016 66.8629 73.4469 66.603V68.503C74.1959 68.7802 74.9679 69.0459 75.7342 69.2538V67.2556ZM68.8433 58.3215C68.5322 58.1252 68.2038 57.9288 67.8984 57.7152C67.4259 57.386 66.9823 57.0626 66.5444 56.6987V58.9741C67.2819 59.5632 68.0482 60.106 68.8491 60.5969V58.3215H68.8433ZM68.8433 64.524C68.0424 64.0331 67.2761 63.5076 66.5386 62.9185V64.293C67.2761 64.9456 68.0424 65.5346 68.8433 66.0948V64.524ZM61.9466 51.4954C60.9844 49.9708 60.2296 48.3191 59.642 46.5866C60.0683 49.1565 60.8519 51.4492 61.9466 53.4474V51.4954ZM61.9466 57.7152C61.5375 57.0452 61.1457 56.358 60.8058 55.6188C61.1169 56.537 61.4914 57.4495 61.9466 58.3389V57.7152Z" fill="white"/>
    <path d="M26.8392 58.263H17V13.4128H32.8552L36.1162 38.6551L39.4897 13.4128H55.5135V58.263H45.6743V19.1036L39.4897 58.263H32.8552L26.8392 19.1036V58.263Z" fill="white"/>
    <path fill-rule="evenodd" clip-rule="evenodd" d="M97.4946 18.7246C106.459 27.6717 106.459 42.1946 97.4946 51.1464C88.5449 60.0935 74.0319 60.0935 65.0679 51.1417C56.1134 42.1946 56.1134 27.6717 65.0679 18.7246C74.0319 9.75847 88.5449 9.75847 97.4946 18.7246ZM82.2386 33.976C82.7673 34.5046 82.7673 35.3664 82.2386 35.895C81.7099 36.4235 80.8621 36.4235 80.3191 35.895C79.7904 35.3664 79.7904 34.5046 80.3191 33.976C80.8621 33.4475 81.7147 33.4475 82.2386 33.976ZM99.6427 39.8471C98.8997 42.585 96.0895 44.2087 93.3508 43.4802C90.612 42.7517 88.9878 39.9281 89.7166 37.1901C90.4453 34.4522 93.2698 32.8285 96.0085 33.557C98.7521 34.2998 100.371 37.1044 99.6427 39.8471ZM94.713 21.5054C96.723 23.5052 96.723 26.7574 94.713 28.7525C92.7125 30.7619 89.4594 30.7619 87.4637 28.7525C85.4537 26.7527 85.4537 23.5005 87.4637 21.5054C89.4641 19.4912 92.7173 19.4912 94.713 21.5054ZM76.3658 16.5771C79.1046 15.8486 81.9147 17.4675 82.6578 20.2055C83.3865 22.9434 81.7671 25.767 79.0236 26.4955C76.2849 27.2241 73.4604 25.6051 72.7316 22.8624C72.0077 20.1245 73.6271 17.3199 76.3658 16.5771ZM62.9341 30.0191C63.6628 27.2812 66.4873 25.648 69.2118 26.386C71.9505 27.1146 73.589 29.9382 72.8459 32.6618C72.1172 35.3998 69.2927 37.033 66.5683 36.2949C63.8248 35.5664 62.1911 32.7475 62.9341 30.0191ZM67.8448 48.3656C65.8348 46.3658 65.8348 43.1136 67.8448 41.1042C69.8548 39.1043 73.0984 39.1043 75.1084 41.1042C77.1041 43.1136 77.1041 46.3705 75.1084 48.3656C73.0984 50.375 69.8452 50.375 67.8448 48.3656ZM86.2062 53.2749C83.4675 54.0177 80.643 52.3844 79.9143 49.6417C79.1712 46.9133 80.805 44.0945 83.5485 43.3659C86.292 42.6231 89.0974 44.2564 89.8261 46.9991C90.5692 49.7275 88.9355 52.5463 86.2062 53.2749Z" fill="white"/>
    <path d="M150.965 58.263V13.4128H174.411V22.2589H161.704V30.7105H172.949V39.613H161.704V49.4169H174.917V58.263H150.965Z" fill="white"/>
    <path d="M177.755 44.6276C177.755 44.0078 177.755 43.3316 177.811 42.7119H188.157C188.1 43.557 188.1 44.4585 188.1 45.3037C188.1 47.2194 188.1 50.7691 191.53 50.7691C194.791 50.7691 194.791 47.8392 194.791 47.5011C194.791 44.0078 191.699 42.0357 188.663 39.6693L185.514 37.2464C180.004 32.9643 178.317 29.978 178.317 25.1887C178.317 23.4421 178.317 12.5676 191.98 12.5676C204.911 12.5676 204.911 22.2588 204.911 25.6958C204.911 26.4847 204.855 27.2735 204.743 28.0623H194.735C194.735 27.6679 194.735 27.0481 194.735 26.541C194.735 24.0618 194.735 20.7939 191.642 20.7939C188.663 20.7939 188.663 23.4984 188.663 23.9492C188.663 25.0197 188.663 26.3156 194.735 31.2739L200.02 35.5561C205.417 39.8946 205.417 44.4022 205.417 46.2052C205.417 47.9519 205.417 59.1081 191.586 59.1081C177.755 59.1081 177.755 49.0224 177.755 44.6276Z" fill="white"/>
    <path d="M208.256 40.6835C208.256 40.5144 214.553 25.4705 214.722 13.6381H224.954C223.774 24.2872 220.569 31.443 213.991 41.754H221.3V35.7252C221.3 35.6688 226.248 28.5131 227.372 22.5405H231.083V41.754H234.456V49.5859H231.083V58.0376H221.3V49.5859H208.256V40.6835Z" fill="white"/>
    <path fill-rule="evenodd" clip-rule="evenodd" d="M268.756 13.7852L276.875 21.8423C276.981 21.5386 277.023 21.2053 276.988 20.8648L276.419 15.3264C276.29 14.063 275.143 13.1356 273.874 13.2637L268.756 13.7852ZM255.726 15.1104L265.083 24.3969L271.597 23.7339L262.241 14.4474L255.726 15.1104ZM242.696 16.4348L252.053 25.7213L258.568 25.0582L249.212 15.7717L242.696 16.4348ZM239.811 32.4836H263.496C264.771 32.4836 265.816 33.523 265.816 34.7936V40.3598C265.816 41.6303 264.771 42.6697 263.496 42.6697H239.811C238.533 42.6697 237.49 41.6303 237.49 40.3598V34.7936C237.49 33.523 238.533 32.4836 239.811 32.4836ZM239.811 48.2386H245.475C246.752 48.2386 247.798 49.2762 247.798 50.5467V56.1147C247.798 57.3835 246.752 58.4238 245.475 58.4238H239.811C238.533 58.4238 237.49 57.3835 237.49 56.1147V50.5467C237.49 49.2762 238.533 48.2386 239.811 48.2386ZM245.54 26.3843L237.419 18.3254C237.315 18.631 237.272 18.9625 237.307 19.303L237.876 24.8414C238.005 26.1039 239.151 27.0322 240.42 26.9031L245.54 26.3843Z" fill="white"/>
    <path fill-rule="evenodd" clip-rule="evenodd" d="M112.638 47.9306C114.687 47.2814 116.895 46.7694 119.183 46.5152C119.74 46.4534 120.286 46.3967 120.823 46.3457L117.851 13.4128H107.056L112.638 47.9306ZM120.952 46.3336C123.898 46.0586 126.585 45.9598 129.239 46.1591L134.493 13.4128H123.923L120.952 46.3336ZM126.541 58.263C124.576 57.9161 122.5 57.7659 120.319 57.8666C119.389 57.9182 118.329 58.0543 117.191 58.263H126.541Z" fill="white"/>
    <path fill-rule="evenodd" clip-rule="evenodd" d="M137.332 47.7718C140.559 48.8214 144.043 50.4212 148.127 52.7537V13.4128H137.332V47.7718Z" fill="white"/>
</svg>
    