<svg width="16" height="16" viewBox="0 0 16 16" fill="none" xmlns="http://www.w3.org/2000/svg">
<g clip-path="url(#clip0_349_2)">
<rect width="16" height="16" rx="8" fill="white"/>
<g clip-path="url(#clip1_349_2)">
<path fill-rule="evenodd" clip-rule="evenodd" d="M7.02 11.46L8.92 13.36L8.38 14.99L6.25 14.97H6.19L3.27 13.51L4.63 11.46H7.02ZM12.34 12.38L13.35 12.98L13.23 13.21C13.2245 13.2189 13.2177 13.227 13.21 13.234L13.17 13.27L9.74 14.98C9.72 14.99 9.68 14.99 9.68 14.99H9.17L9.57 13.78V13.79L12.34 12.38ZM6.53 1L9.84 1.06L13.16 2.76L13.21 2.81L14.94 6.22C14.953 6.233 14.958 6.256 14.96 6.269V6.49L13.57 6.32L12.73 3.76L12.78 3.38L9.59 1.76H7.22L8.83 3.5L7.1 5.25L4.16 5.75L3.38 3.28L3.24 3.35L1.73 6.37V9.26H2.53L4.02 11.02L2.66 13.07L1.01 9.76C1.00381 9.74438 1.00043 9.72779 1 9.711V6.19C1 6.187 1.044 6.097 1.117 5.95L1.218 5.745L1.278 5.625L1.561 5.059L1.639 4.903L1.801 4.58L1.964 4.255L2.2 3.785L2.344 3.499L2.47 3.247L2.592 3.005L2.637 2.915L2.7 2.79L2.75 2.76H2.76C2.77 2.76 2.78 2.74 2.78 2.74L6.2 1.01C6.21562 1.00381 6.23221 1.00043 6.249 1H6.53ZM13.5 7.07L14.97 7.25V9.72C14.97 9.74 14.96 9.78 14.96 9.78L13.7 12.3L12.52 11.6L12.13 9.298L13.5 7.07ZM7.08 6.02L8.36 8.46L7.22 10.71H4.74L3.19 8.89L4.12 6.52L7.08 6.02ZM9.51 3.88L12.17 4.43L12.89 6.61L11.63 8.66L9.08 8.24L7.74 5.67L9.51 3.88Z" fill="black"/>
</g>
</g>
<defs>
<clipPath id="clip0_349_2">
<rect width="16" height="16" rx="8" fill="white"/>
</clipPath>
<clipPath id="clip1_349_2">
<rect width="16" height="16" fill="white"/>
</clipPath>
</defs>
</svg>
