<svg xmlns="http://www.w3.org/2000/svg" viewBox="0 0 487.26 236"><defs><style>.a{fill:#fff;}</style></defs><title>vl_logo</title><path class="a" d="M712.41,495.48a12.71,12.71,0,0,1-7.54-2.34,15.4,15.4,0,0,1-5.12-6.48,23.3,23.3,0,0,1-1.85-9.6V411.61a3.24,3.24,0,0,1,1-2.46,3.37,3.37,0,0,1,2.4-.89,3.08,3.08,0,0,1,3.35,3.35v65.45a15.08,15.08,0,0,0,2.18,8.43,6.47,6.47,0,0,0,5.63,3.29h2.79a2.58,2.58,0,0,1,2,.9,3.61,3.61,0,0,1,.77,2.45,3.41,3.41,0,0,1-.89,2.41,3.2,3.2,0,0,1-2.45.94Z" transform="translate(-387.76 -260.04)"/><path class="a" d="M735.75,421.55a5,5,0,0,1-3.63-1.51,5.1,5.1,0,0,1-1.51-3.74,4.56,4.56,0,0,1,1.62-3.85,5.73,5.73,0,0,1,3.63-1.29,5.53,5.53,0,0,1,3.52,1.29A4.62,4.62,0,0,1,741,416.3a5.19,5.19,0,0,1-5.25,5.25Zm.11,73.93a3.23,3.23,0,0,1-3.35-3.35V437.74a3.21,3.21,0,0,1,1-2.45,3.33,3.33,0,0,1,5.76,2.45v54.39a3.46,3.46,0,0,1-.9,2.41,3.22,3.22,0,0,1-2.46.94Z" transform="translate(-387.76 -260.04)"/><path class="a" d="M782.54,495.6a3.32,3.32,0,0,1-3.13-2.35L754,438.75a3.31,3.31,0,0,1,0-2.4,3.07,3.07,0,0,1,1.68-1.73,3,3,0,0,1,2.4-.12,3.1,3.1,0,0,1,1.73,1.68l25,54.05h-4.13l24.58-54.16a3,3,0,0,1,1.84-1.68,3.26,3.26,0,0,1,2.51.11,3.38,3.38,0,0,1,1.74,1.73,2.9,2.9,0,0,1-.06,2.41l-25.13,54.61A3.74,3.74,0,0,1,782.54,495.6Z" transform="translate(-387.76 -260.04)"/><path class="a" d="M848.54,496a30.78,30.78,0,0,1-15.68-4,28.36,28.36,0,0,1-10.78-11A32.5,32.5,0,0,1,818.17,465a34.06,34.06,0,0,1,3.68-16.14,28.21,28.21,0,0,1,10.16-11,27.45,27.45,0,0,1,14.84-4,27.73,27.73,0,0,1,14.64,3.86,26.71,26.71,0,0,1,9.94,10.61A32.74,32.74,0,0,1,875,463.88a3,3,0,0,1-.89,2.29,3.35,3.35,0,0,1-2.35.84H822.62v-5.82h50.92l-4.91,3.69A27.4,27.4,0,0,0,866.18,452a21,21,0,0,0-7.65-8.77,21.22,21.22,0,0,0-11.68-3.18,20.52,20.52,0,0,0-11.33,3.18A22.2,22.2,0,0,0,827.7,452,28.36,28.36,0,0,0,824.85,465a26.6,26.6,0,0,0,3,12.85,22.31,22.31,0,0,0,8.37,8.76,23.56,23.56,0,0,0,12.29,3.19,27.26,27.26,0,0,0,8.77-1.51,18.65,18.65,0,0,0,7-4,3.22,3.22,0,0,1,2.18-1,3,3,0,0,1,2.18.73,3.09,3.09,0,0,1,1.28,2.23,2.79,2.79,0,0,1-1.06,2.24,28.42,28.42,0,0,1-9.32,5.36A31.85,31.85,0,0,1,848.54,496Z" transform="translate(-387.76 -260.04)"/><circle class="a" cx="43.72" cy="43.72" r="43.72"/><circle class="a" cx="296.34" cy="87.44" r="43.72"/><polygon class="a" points="146.22 235.76 109.26 236 40.17 76.22 71.41 62.77 146.22 235.76"/><polygon class="a" points="260.92 236 225.02 236 266.07 114.79 298.28 125.72 260.92 236"/></svg>