<?xml version="1.0" encoding="UTF-8" standalone="no"?>
<!-- Created with Inkscape (http://www.inkscape.org/) -->

<svg
   width="512"
   height="512"
   viewBox="0 0 135.46666 135.46667"
   version="1.1"
   id="svg1"
   xml:space="preserve"
   sodipodi:docname="Shortcut-Icon-Mazespin.svg"
   inkscape:version="1.4 (86a8ad7, 2024-10-11)"
   xmlns:inkscape="http://www.inkscape.org/namespaces/inkscape"
   xmlns:sodipodi="http://sodipodi.sourceforge.net/DTD/sodipodi-0.dtd"
   xmlns="http://www.w3.org/2000/svg"
   xmlns:svg="http://www.w3.org/2000/svg"><sodipodi:namedview
     id="namedview1"
     pagecolor="#505050"
     bordercolor="#ffffff"
     borderopacity="1"
     inkscape:showpageshadow="0"
     inkscape:pageopacity="0"
     inkscape:pagecheckerboard="1"
     inkscape:deskcolor="#505050"
     inkscape:zoom="0.71187533"
     inkscape:cx="-35.820879"
     inkscape:cy="77.963089"
     inkscape:window-width="2560"
     inkscape:window-height="1351"
     inkscape:window-x="-9"
     inkscape:window-y="-9"
     inkscape:window-maximized="1"
     inkscape:current-layer="svg1" /><defs
     id="defs1"><filter
       inkscape:collect="always"
       style="color-interpolation-filters:sRGB"
       id="filter48"
       x="-0.090274396"
       y="-0.15257083"
       width="1.1805488"
       height="1.3051417"><feGaussianBlur
         inkscape:collect="always"
         stdDeviation="0.72547628"
         id="feGaussianBlur48" /></filter><filter
       inkscape:collect="always"
       style="color-interpolation-filters:sRGB"
       id="filter46"
       x="-0.023649407"
       y="-0.039969357"
       width="1.0472988"
       height="1.0799387"><feGaussianBlur
         inkscape:collect="always"
         stdDeviation="0.18136907"
         id="feGaussianBlur46" /></filter><filter
       inkscape:collect="always"
       style="color-interpolation-filters:sRGB"
       id="filter36"
       x="-0.0071896236"
       y="-0.012151029"
       width="1.0143792"
       height="1.0243021"><feGaussianBlur
         inkscape:collect="always"
         stdDeviation="0.051589424"
         id="feGaussianBlur36" /></filter></defs><rect
     style="fill:none;stroke-width:0.396875;stroke-miterlimit:5"
     id="rect1"
     width="135.46667"
     height="135.46667"
     x="-2.8421709e-14"
     y="0" /><g
     id="g71"
     transform="matrix(5.1200002,0,0,5.1200002,-914.56111,-1527.293)"
     inkscape:export-filename="icon.png"
     inkscape:export-xdpi="96"
     inkscape:export-ydpi="96"><g
       id="g69"
       transform="matrix(1.1063586,0,0,1.1063586,487.37316,-157.94234)"><path
         id="path65"
         style="opacity:0.5;fill:#ff7300;fill-opacity:1;stroke:#ff7300;stroke-width:0.175154;stroke-linecap:round;stroke-miterlimit:5;stroke-dasharray:none;stroke-opacity:1;paint-order:stroke fill markers;filter:url(#filter48)"
         d="m -272.86794,418.34581 v 1.40304 h 4.27365 v 0.33112 h -4.27365 l -0.88216,1.52835 h -1.64886 v 2.8312 h -0.62515 v -2.95232 l -1.21397,0.70096 v 6.00353 l 1.21397,0.70071 v -2.95206 h 0.62515 v 2.83086 h 1.69988 l 2.70291,1.56065 h 11.48081 l -3.3e-4,-1.56065 h 0.62054 v 1.56065 h 1.05217 l 0.86225,-0.85669 v -7.00494 l -0.86191,-0.8619 h -1.05251 v 1.56064 h -0.62054 l 3.3e-4,-1.56064 h -1.61783 l -1.52834,-1.52835 h -4.19963 v -0.33112 h 4.19963 v -1.40304 z m 0.33087,0.33087 h 9.54476 v 0.74139 h -4.19963 v 0.99268 h 4.3934 l 1.52834,1.52835 -3.42208,2.86282 1.27893,3.05652 h -1.37039 l -0.19966,-0.50712 h -1.32184 l -0.19428,0.50712 h -1.34876 l 0.26804,-0.64063 -3.32703,2.78326 h -9e-5 l -2.70291,-1.56065 h -1.45791 v -2.83086 h -1.28671 v 2.71009 l -0.55241,-0.3189 v -5.62164 l 0.55241,-0.3189 v 2.71009 h 1.28671 v -2.83121 h 1.50894 l 0.88259,-1.52834 h 4.41314 v -0.99268 h -4.27356 z m 4.95683,8.54113 1.90699,-1.59526 0.0316,-0.0841 0.0165,0.0438 0.93285,-0.78037 -0.31265,-0.7472 h -1.25176 z m 1.95511,-1.63552 -0.0481,0.0403 -0.31369,0.8331 h 0.69062 z m 4.29305,-1.5815 c 0.83088,0 1.39207,0.40461 1.7104,0.98191 l -1.04132,0.60968 c -0.14028,-0.26977 -0.33994,-0.45856 -0.68524,-0.45856 -0.42623,0 -0.70677,0.37228 -0.70677,0.82549 v 0.0108 c 0,0.49098 0.29133,0.83627 0.70677,0.83627 0.35609,0 0.5557,-0.19425 0.71216,-0.4748 l 1.04132,0.58813 c -0.31833,0.56112 -0.84708,1.0197 -1.78587,1.0197 -1.0467,0 -1.95844,-0.78774 -1.95844,-1.95853 v -0.0108 c 0,-1.12762 0.87936,-1.96929 2.00699,-1.96929 z m -9.75212,0.0702 -0.60968,1.82356 -0.53421,-1.81279 h -1.32184 l 1.2356,3.80372 h 1.10064 l 0.66361,-1.87759 0.66361,1.87759 h 1.10064 l 1.23551,-3.80372 h -1.30022 l -0.5342,1.81279 -0.6096,-1.82356 z" /><path
         id="path66"
         style="fill:#ff7300;fill-opacity:1;stroke:#ff7300;stroke-width:0.175154;stroke-linecap:round;stroke-miterlimit:5;stroke-dasharray:none;stroke-opacity:1;paint-order:stroke fill markers;filter:url(#filter48)"
         d="m -272.86794,418.34581 v 1.40304 h 4.27365 v 0.33112 h -4.27365 l -0.88216,1.52835 h -1.64886 v 2.8312 h -0.62515 v -2.95232 l -1.21397,0.70096 v 6.00353 l 1.21397,0.70071 v -2.95206 h 0.62515 v 2.83086 h 1.69988 l 2.70291,1.56065 h 11.48081 l -3.3e-4,-1.56065 h 0.62054 v 1.56065 h 1.05217 l 0.86225,-0.85669 v -7.00494 l -0.86191,-0.8619 h -1.05251 v 1.56064 h -0.62054 l 3.3e-4,-1.56064 h -1.61783 l -1.52834,-1.52835 h -4.19963 v -0.33112 h 4.19963 v -1.40304 z m 0.33087,0.33087 h 9.54476 v 0.74139 h -4.19963 v 0.99268 h 4.3934 l 1.52834,1.52835 -3.42208,2.86282 1.27893,3.05652 h -1.37039 l -0.19966,-0.50712 h -1.32184 l -0.19428,0.50712 h -1.34876 l 0.26804,-0.64063 -3.32703,2.78326 h -9e-5 l -2.70291,-1.56065 h -1.45791 v -2.83086 h -1.28671 v 2.71009 l -0.55241,-0.3189 v -5.62164 l 0.55241,-0.3189 v 2.71009 h 1.28671 v -2.83121 h 1.50894 l 0.88259,-1.52834 h 4.41314 v -0.99268 h -4.27356 z m 4.95683,8.54113 1.90699,-1.59526 0.0316,-0.0841 0.0165,0.0438 0.93285,-0.78037 -0.31265,-0.7472 h -1.25176 z m 1.95511,-1.63552 -0.0481,0.0403 -0.31369,0.8331 h 0.69062 z m 4.29305,-1.5815 c 0.83088,0 1.39207,0.40461 1.7104,0.98191 l -1.04132,0.60968 c -0.14028,-0.26977 -0.33994,-0.45856 -0.68524,-0.45856 -0.42623,0 -0.70677,0.37228 -0.70677,0.82549 v 0.0108 c 0,0.49098 0.29133,0.83627 0.70677,0.83627 0.35609,0 0.5557,-0.19425 0.71216,-0.4748 l 1.04132,0.58813 c -0.31833,0.56112 -0.84708,1.0197 -1.78587,1.0197 -1.0467,0 -1.95844,-0.78774 -1.95844,-1.95853 v -0.0108 c 0,-1.12762 0.87936,-1.96929 2.00699,-1.96929 z m -9.75212,0.0702 -0.60968,1.82356 -0.53421,-1.81279 h -1.32184 l 1.2356,3.80372 h 1.10064 l 0.66361,-1.87759 0.66361,1.87759 h 1.10064 l 1.23551,-3.80372 h -1.30022 l -0.5342,1.81279 -0.6096,-1.82356 z" /><path
         id="path67"
         style="fill:#ff8b2b;fill-opacity:1;stroke:#ff8b2b;stroke-width:0.0875771;stroke-linecap:round;stroke-miterlimit:5;stroke-dasharray:none;stroke-opacity:1;paint-order:stroke fill markers;filter:url(#filter46)"
         d="m -272.86794,418.34581 v 1.40304 h 4.27365 v 0.33112 h -4.27365 l -0.88216,1.52835 h -1.64886 v 2.8312 h -0.62515 v -2.95232 l -1.21397,0.70096 v 6.00353 l 1.21397,0.70071 v -2.95206 h 0.62515 v 2.83086 h 1.69988 l 2.70291,1.56065 h 11.48081 l -3.3e-4,-1.56065 h 0.62054 v 1.56065 h 1.05217 l 0.86225,-0.85669 v -7.00494 l -0.86191,-0.8619 h -1.05251 v 1.56064 h -0.62054 l 3.3e-4,-1.56064 h -1.61783 l -1.52834,-1.52835 h -4.19963 v -0.33112 h 4.19963 v -1.40304 z m 0.33087,0.33087 h 9.54476 v 0.74139 h -4.19963 v 0.99268 h 4.3934 l 1.52834,1.52835 -3.42208,2.86282 1.27893,3.05652 h -1.37039 l -0.19966,-0.50712 h -1.32184 l -0.19428,0.50712 h -1.34876 l 0.26804,-0.64063 -3.32703,2.78326 h -9e-5 l -2.70291,-1.56065 h -1.45791 v -2.83086 h -1.28671 v 2.71009 l -0.55241,-0.3189 v -5.62164 l 0.55241,-0.3189 v 2.71009 h 1.28671 v -2.83121 h 1.50894 l 0.88259,-1.52834 h 4.41314 v -0.99268 h -4.27356 z m 4.95683,8.54113 1.90699,-1.59526 0.0316,-0.0841 0.0165,0.0438 0.93285,-0.78037 -0.31265,-0.7472 h -1.25176 z m 1.95511,-1.63552 -0.0481,0.0403 -0.31369,0.8331 h 0.69062 z m 4.29305,-1.5815 c 0.83088,0 1.39207,0.40461 1.7104,0.98191 l -1.04132,0.60968 c -0.14028,-0.26977 -0.33994,-0.45856 -0.68524,-0.45856 -0.42623,0 -0.70677,0.37228 -0.70677,0.82549 v 0.0108 c 0,0.49098 0.29133,0.83627 0.70677,0.83627 0.35609,0 0.5557,-0.19425 0.71216,-0.4748 l 1.04132,0.58813 c -0.31833,0.56112 -0.84708,1.0197 -1.78587,1.0197 -1.0467,0 -1.95844,-0.78774 -1.95844,-1.95853 v -0.0108 c 0,-1.12762 0.87936,-1.96929 2.00699,-1.96929 z m -9.75212,0.0702 -0.60968,1.82356 -0.53421,-1.81279 h -1.32184 l 1.2356,3.80372 h 1.10064 l 0.66361,-1.87759 0.66361,1.87759 h 1.10064 l 1.23551,-3.80372 h -1.30022 l -0.5342,1.81279 -0.6096,-1.82356 z" /><path
         id="path68"
         style="fill:#ffaa57;fill-opacity:1;stroke:#ffaa57;stroke-width:0.0436562;stroke-linecap:round;stroke-miterlimit:5;stroke-dasharray:none;stroke-opacity:1;paint-order:stroke fill markers;filter:url(#filter36)"
         d="m -272.86794,418.34581 v 1.40304 h 4.27365 v 0.33112 h -4.27365 l -0.88216,1.52835 h -1.64886 v 2.8312 h -0.62515 v -2.95232 l -1.21397,0.70096 v 6.00353 l 1.21397,0.70071 v -2.95206 h 0.62515 v 2.83086 h 1.69988 l 2.70291,1.56065 h 11.48081 l -3.3e-4,-1.56065 h 0.62054 v 1.56065 h 1.05217 l 0.86225,-0.85669 v -7.00494 l -0.86191,-0.8619 h -1.05251 v 1.56064 h -0.62054 l 3.3e-4,-1.56064 h -1.61783 l -1.52834,-1.52835 h -4.19963 v -0.33112 h 4.19963 v -1.40304 z m 0.33087,0.33087 h 9.54476 v 0.74139 h -4.19963 v 0.99268 h 4.3934 l 1.52834,1.52835 -3.42208,2.86282 1.27893,3.05652 h -1.37039 l -0.19966,-0.50712 h -1.32184 l -0.19428,0.50712 h -1.34876 l 0.26804,-0.64063 -3.32703,2.78326 h -9e-5 l -2.70291,-1.56065 h -1.45791 v -2.83086 h -1.28671 v 2.71009 l -0.55241,-0.3189 v -5.62164 l 0.55241,-0.3189 v 2.71009 h 1.28671 v -2.83121 h 1.50894 l 0.88259,-1.52834 h 4.41314 v -0.99268 h -4.27356 z m 4.95683,8.54113 1.90699,-1.59526 0.0316,-0.0841 0.0165,0.0438 0.93285,-0.78037 -0.31265,-0.7472 h -1.25176 z m 1.95511,-1.63552 -0.0481,0.0403 -0.31369,0.8331 h 0.69062 z m 4.29305,-1.5815 c 0.83088,0 1.39207,0.40461 1.7104,0.98191 l -1.04132,0.60968 c -0.14028,-0.26977 -0.33994,-0.45856 -0.68524,-0.45856 -0.42623,0 -0.70677,0.37228 -0.70677,0.82549 v 0.0108 c 0,0.49098 0.29133,0.83627 0.70677,0.83627 0.35609,0 0.5557,-0.19425 0.71216,-0.4748 l 1.04132,0.58813 c -0.31833,0.56112 -0.84708,1.0197 -1.78587,1.0197 -1.0467,0 -1.95844,-0.78774 -1.95844,-1.95853 v -0.0108 c 0,-1.12762 0.87936,-1.96929 2.00699,-1.96929 z m -9.75212,0.0702 -0.60968,1.82356 -0.53421,-1.81279 h -1.32184 l 1.2356,3.80372 h 1.10064 l 0.66361,-1.87759 0.66361,1.87759 h 1.10064 l 1.23551,-3.80372 h -1.30022 l -0.5342,1.81279 -0.6096,-1.82356 z" /><path
         id="path69"
         style="fill:#ffb980;fill-opacity:1;stroke-width:2.00002;stroke-linecap:round;stroke-miterlimit:5;paint-order:stroke fill markers"
         d="m -272.8679,418.34581 v 1.40305 h 4.27369 v 0.33113 h -4.27369 l -0.88217,1.52836 h -1.64887 v 2.83123 h -0.62516 v -2.95235 l -1.21398,0.70097 v 6.00358 l 1.21398,0.70072 v -2.95209 h 0.62516 v 2.83089 h 1.69989 l 2.70294,1.56066 h 11.48092 l -3.3e-4,-1.56066 h 0.62054 v 1.56066 h 1.05218 l 0.86226,-0.85669 v -7.00501 l -0.86192,-0.86191 h -1.05252 v 1.56066 h -0.62054 l 3.3e-4,-1.56066 h -1.61785 l -1.52835,-1.52836 h -4.19967 v -0.33113 h 4.19967 v -1.40305 z m 0.33087,0.33087 h 9.54486 v 0.7414 h -4.19967 v 0.99269 h 4.39344 l 1.52835,1.52836 -3.42211,2.86285 1.27894,3.05655 h -1.3704 l -0.19966,-0.50712 h -1.32186 l -0.19428,0.50712 h -1.34877 l 0.26804,-0.64064 -3.32706,2.78329 h -9e-5 l -2.70294,-1.56066 h -1.45792 v -2.83089 h -1.28672 v 2.71011 l -0.55242,-0.3189 v -5.62169 l 0.55242,-0.3189 v 2.71011 h 1.28672 v -2.83124 h 1.50895 l 0.8826,-1.52835 h 4.41319 v -0.99269 h -4.27361 z m 4.95688,8.54121 1.90701,-1.59527 0.0316,-0.0841 0.0165,0.0438 0.93286,-0.78038 -0.31265,-0.74721 h -1.25178 z m 1.95513,-1.63553 -0.0481,0.0403 -0.31369,0.83311 h 0.69062 z m 4.29309,-1.58152 c 0.83089,0 1.39208,0.40462 1.71042,0.98192 l -1.04133,0.60969 c -0.14028,-0.26977 -0.33995,-0.45857 -0.68525,-0.45857 -0.42623,0 -0.70678,0.37229 -0.70678,0.8255 v 0.0108 c 0,0.49099 0.29134,0.83628 0.70678,0.83628 0.35609,0 0.55571,-0.19425 0.71217,-0.4748 l 1.04133,0.58813 c -0.31834,0.56113 -0.84709,1.01971 -1.78589,1.01971 -1.04671,0 -1.95846,-0.78775 -1.95846,-1.95855 v -0.0108 c 0,-1.12763 0.87937,-1.96931 2.00701,-1.96931 z m -9.75221,0.0702 -0.60969,1.82358 -0.53421,-1.81281 h -1.32185 l 1.23561,3.80376 h 1.10065 l 0.66361,-1.87761 0.66362,1.87761 h 1.10065 l 1.23552,-3.80376 h -1.30023 l -0.53421,1.81281 -0.6096,-1.82358 z" /></g><rect
       style="opacity:1;fill:none;fill-opacity:1;stroke:none;stroke-width:4.8156;stroke-miterlimit:5;stroke-dasharray:none;stroke-opacity:1;paint-order:stroke fill markers"
       id="rect70"
       width="26.458332"
       height="26.458332"
       x="178.62521"
       y="298.29941"
       inkscape:export-filename="icon.png"
       inkscape:export-xdpi="96"
       inkscape:export-ydpi="96" /></g></svg>
