<svg width="32" height="32" xmlns="http://www.w3.org/2000/svg"><path d="M15.999 0C7.163 0 0 7.163 0 16s7.163 16 15.999 16 15.999-7.163 15.999-16S24.835 0 15.999 0zm-3.677 2.38a.342.342 0 01.307.097c.15.09.205.222.285.265.08.044.354.375.607.737l.46.658.022 1.032c.03 1.436.024 1.443-1.44 1.77l-.94.21-.843.822c-.463.453-.996.961-1.183 1.13l-.34.307-1.431.226c-1.32.209-1.434.238-1.468.373-.02.08.122.957.315 1.949l.352 1.803-.22 1.153c-.122.635-.263 1.237-.314 1.338-.18.354-.76.5-1.16.292-.114-.058-.422-.451-.787-1.002l-.6-.906-.62-.284c-.34-.156-.686-.356-.77-.444-.145-.155-.177-.307-.229-1.333A14.11 14.11 0 0112.322 2.38zm7.443.03A14.11 14.11 0 0130.108 16 14.11 14.11 0 0123.424 28c.166-.109.332-.217.493-.332l.567-.406-.264-.113c-.36-.154-.51-.341-.55-.689-.039-.353-.105-.216 1.366-2.811l1.126-1.989.55-1.749.551-1.748-.302-.565c-.348-.652-.211-.63-1.386-.22-.59.205-.867.27-1.025.24-.277-.051-3.121-2.108-3.25-2.35-.098-.182-.073-1.617.058-3.414l.057-.775.473-.983c.609-1.265.638-1.29 1.676-1.442.438-.064.88-.135.982-.16l.186-.043-.6-.741-.599-.742-.948-.401c-.521-.221-1.01-.449-1.086-.506-.112-.085-1.62-3.27-1.734-3.65zM8.91 13.938c.63.013 1.702.45 3.67 1.455 1.142.583 2.158 1.136 2.258 1.23.118.11.211.296.262.525.044.195.098.382.12.416.023.033.83.374 1.794.756.964.383 1.846.751 1.96.82.41.243.448.552.2 1.651-.2.88-1.348 3.6-1.625 3.849-.093.082-.342.2-.554.26-.657.19-.922.386-1.199.89-.145.266-.473.681-.795 1.01-.44.447-.598.565-.8.597l-.252.04-.307.986c-.295.944-.385 1.222-.491 1.366a14.108 14.108 0 01-1.788-.494 53.95 53.95 0 00-.488-.553c-.496-.552-.916-1.053-.934-1.112-.019-.06-.215-1.03-.436-2.159-.244-1.247-.436-2.07-.49-2.102a52.875 52.875 0 01-.661-.412l-.573-.361-.295-.671c-.162-.369-.521-1.182-.8-1.807-.403-.908-.497-1.181-.468-1.36.02-.122.19-.58.378-1.016.311-.722.343-.84.343-1.304 0-.28.028-.61.064-.732.067-.236 1.101-1.444 1.408-1.646a.845.845 0 01.499-.122z" fill="#00b0ee"/></svg>