<svg width="133" height="146" viewBox="0 0 133 146" fill="none" xmlns="http://www.w3.org/2000/svg">
<path d="M0.00202876 73.425C0.00202876 64.525 0.00202876 55.625 0.00202876 46.725C0.00202876 39.025 3.30203 33.325 9.80203 29.525C25.002 20.625 40.202 11.725 55.502 2.925C61.902 -0.975 69.902 -0.975 76.302 2.925C91.302 11.525 106.302 20.125 121.302 28.925C128.502 33.125 132.202 39.625 132.202 48.025C132.202 64.825 132.302 81.625 132.202 98.325C132.202 106.825 128.802 113.425 121.102 117.725C107.302 125.525 93.702 133.625 79.902 141.525C70.702 146.825 61.302 146.825 52.002 141.525C38.002 133.525 24.002 125.525 10.102 117.225C3.50203 113.425 -0.0979712 107.625 0.00202876 99.725C0.202029 90.925 0.00202876 82.225 0.00202876 73.425ZM41.002 92.825C43.802 91.625 45.702 91.125 47.202 90.125C51.302 87.425 55.202 84.525 59.202 81.825C64.502 78.225 67.402 78.225 72.602 81.825C76.402 84.425 80.102 87.125 83.902 89.725C89.102 93.225 93.702 92.725 96.702 88.425C99.402 84.625 98.402 80.025 93.802 76.525C87.102 71.425 80.302 66.425 73.402 61.525C69.002 58.425 63.802 58.025 59.502 60.825C51.402 66.225 43.702 72.225 36.002 78.325C33.002 80.725 32.802 84.625 34.702 87.725C36.202 89.825 39.002 91.225 41.002 92.825Z" fill="#3B4856"/>
<path d="M40.8908 92.8817C38.8908 91.2817 36.0908 89.9817 34.6908 87.7817C32.7908 84.6817 32.9908 80.7817 35.9908 78.3817C43.5908 72.2817 51.2908 66.2817 59.4908 60.8817C63.6908 58.0817 68.9908 58.4817 73.3908 61.5817C80.2908 66.4817 87.0908 71.4817 93.7908 76.5817C98.4908 80.1817 99.3908 84.6817 96.6908 88.4817C93.6908 92.7817 89.0908 93.2817 83.7908 89.7817C79.9908 87.2817 76.2908 84.5817 72.4908 81.8817C67.2908 78.2817 64.4908 78.1817 59.0908 81.8817C55.0908 84.5817 51.1908 87.5817 47.0908 90.1817C45.5908 91.1817 43.6908 91.6817 40.8908 92.8817Z" fill="white"/>
</svg>
