<svg width="411" height="179" viewBox="0 0 411 179" fill="none" xmlns="http://www.w3.org/2000/svg">
<path d="M97.709 158.519C95.0167 158.835 92.2775 159 89.5 159C75.1964 159 61.9026 154.678 50.8516 147.271L72.6553 109.663L97.709 158.519ZM158.955 87.0049C158.984 87.833 159 88.6648 159 89.5C159 116 144.167 139.034 122.353 150.758L97.5273 102.348L158.955 87.0049ZM89.5 20C91.3744 20 93.2314 20.0751 95.0684 20.2207L32.1436 128.76C24.4828 117.589 20 104.068 20 89.5C20 51.1162 51.1162 20 89.5 20ZM120.435 27.2471C135.151 34.5738 146.9 46.9657 153.405 62.1396L91.1982 77.6777L120.435 27.2471Z" fill="#FF510D"/>
<path d="M192.736 102.29C192.736 103.544 191.748 104.19 190.836 104.19C189.924 104.19 188.936 103.544 188.936 102.29V87.888H188.822L184.908 95.336C184.528 96.02 183.92 96.438 183.236 96.438C182.514 96.438 181.982 95.982 181.564 95.298L177.688 87.964H177.612V102.29C177.612 103.544 176.624 104.19 175.712 104.19C174.8 104.19 173.812 103.544 173.812 102.29V83.404C173.812 82.378 174.686 81.504 175.712 81.504H177.232C177.84 81.504 178.524 81.998 178.866 82.454L183.236 90.472L187.72 82.416C188.062 81.96 188.746 81.504 189.316 81.504H190.836C191.862 81.504 192.736 82.378 192.736 83.404V102.29ZM213.694 102.176C213.694 103.354 212.744 104.114 211.718 104.114C210.768 104.114 210.084 103.81 209.476 103.126C208.488 103.81 207.538 104.038 206.208 104.038H202.028C199.368 104.038 196.138 103.088 196.138 99.098C196.138 95.526 198.38 94.576 201.382 94.196C202.446 94.082 206.93 93.512 206.93 93.512C207.918 93.398 207.918 93.132 208.108 92.866C208.146 92.79 208.108 92.6 208.108 92.486C207.956 91.612 207.348 91.346 206.322 91.346H202.522C201.306 91.346 200.774 91.726 200.546 92.068C200.09 92.714 199.558 93.056 198.95 93.056C197.962 93.056 196.936 92.258 196.936 91.194C196.936 90.89 197.05 90.51 197.24 90.168C198.418 88.116 200.394 87.546 202.332 87.546H206.322C209.704 87.546 212.136 89.864 212.136 93.436V98.718C212.136 100.01 212.364 100.01 213.124 100.808C213.504 101.188 213.694 101.72 213.694 102.176ZM208.222 98.3V98.262C208.222 97.768 208.222 97.008 208.222 97.008C207.804 97.122 207.462 97.274 206.968 97.312L201.496 97.844C200.85 97.92 200.014 98.034 200.014 98.984C200.014 99.896 200.622 100.124 201.61 100.124H206.132C207.956 100.124 208.222 99.326 208.222 98.3ZM232.915 102.214C232.915 103.468 231.965 104.114 231.015 104.114C230.065 104.114 229.115 103.468 229.115 102.214V93.436C229.115 91.992 228.393 91.308 227.025 91.308L222.845 91.346C221.515 91.346 220.755 92.03 220.755 93.436V102.252C220.755 103.506 219.805 104.152 218.855 104.152C217.905 104.152 216.955 103.506 216.955 102.252V93.094V89.294C216.955 88.04 217.905 87.394 218.855 87.394C219.425 87.394 219.957 87.622 220.299 88.154C221.021 87.736 221.933 87.546 222.845 87.546H227.025C230.369 87.546 232.915 89.788 232.915 93.436V102.214ZM252.658 104.874C252.658 108.408 249.618 110.954 245.932 110.954C243.006 110.954 241.372 110.878 240.08 110.536C239.092 110.27 238.636 109.548 238.636 108.788C238.636 107.8 239.32 106.812 240.46 106.812C240.65 106.812 240.802 106.85 240.992 106.888C241.752 107.078 242.93 107.192 245.932 107.192C247.946 107.192 248.858 105.938 248.858 104.874V103.734C248.25 104.038 247.528 104.152 246.768 104.152H242.588C239.358 104.152 236.698 101.948 236.698 98.262V93.436C236.698 89.75 239.358 87.546 242.588 87.546H246.768C250.112 87.546 252.658 89.788 252.658 93.436V98.262V104.874ZM248.858 98.262V93.436C248.858 91.992 248.136 91.308 246.768 91.308L242.588 91.346C241.258 91.346 240.498 92.03 240.498 93.436V98.262C240.498 99.668 241.258 100.39 242.588 100.39H246.768C248.136 100.39 248.858 99.706 248.858 98.262ZM273.323 102.176C273.323 103.354 272.373 104.114 271.347 104.114C270.397 104.114 269.713 103.81 269.105 103.126C268.117 103.81 267.167 104.038 265.837 104.038H261.657C258.997 104.038 255.767 103.088 255.767 99.098C255.767 95.526 258.009 94.576 261.011 94.196C262.075 94.082 266.559 93.512 266.559 93.512C267.547 93.398 267.547 93.132 267.737 92.866C267.775 92.79 267.737 92.6 267.737 92.486C267.585 91.612 266.977 91.346 265.951 91.346H262.151C260.935 91.346 260.403 91.726 260.175 92.068C259.719 92.714 259.187 93.056 258.579 93.056C257.591 93.056 256.565 92.258 256.565 91.194C256.565 90.89 256.679 90.51 256.869 90.168C258.047 88.116 260.023 87.546 261.961 87.546H265.951C269.333 87.546 271.765 89.864 271.765 93.436V98.718C271.765 100.01 271.993 100.01 272.753 100.808C273.133 101.188 273.323 101.72 273.323 102.176ZM267.851 98.3V98.262C267.851 97.768 267.851 97.008 267.851 97.008C267.433 97.122 267.091 97.274 266.597 97.312L261.125 97.844C260.479 97.92 259.643 98.034 259.643 98.984C259.643 99.896 260.251 100.124 261.239 100.124H265.761C267.585 100.124 267.851 99.326 267.851 98.3ZM293.228 102.29C293.228 103.316 292.278 104.19 291.252 104.19C290.758 104.19 290.226 103.962 289.808 103.43L283.158 94.652L280.384 97.958V102.252C280.384 103.506 279.434 104.152 278.484 104.152C277.534 104.152 276.584 103.506 276.584 102.252V83.29C276.584 82.036 277.534 81.39 278.484 81.39C279.434 81.39 280.384 82.036 280.384 83.29V92.296L288.858 82.036C289.276 81.542 289.77 81.352 290.264 81.352C291.29 81.352 292.24 82.226 292.24 83.252C292.24 83.67 292.088 84.088 291.746 84.506L285.666 91.726L292.772 101.112C293.076 101.492 293.228 101.91 293.228 102.29ZM312.272 102.176C312.272 103.354 311.322 104.114 310.296 104.114C309.346 104.114 308.662 103.81 308.054 103.126C307.066 103.81 306.116 104.038 304.786 104.038H300.606C297.946 104.038 294.716 103.088 294.716 99.098C294.716 95.526 296.958 94.576 299.96 94.196C301.024 94.082 305.508 93.512 305.508 93.512C306.496 93.398 306.496 93.132 306.686 92.866C306.724 92.79 306.686 92.6 306.686 92.486C306.534 91.612 305.926 91.346 304.9 91.346H301.1C299.884 91.346 299.352 91.726 299.124 92.068C298.668 92.714 298.136 93.056 297.528 93.056C296.54 93.056 295.514 92.258 295.514 91.194C295.514 90.89 295.628 90.51 295.818 90.168C296.996 88.116 298.972 87.546 300.91 87.546H304.9C308.282 87.546 310.714 89.864 310.714 93.436V98.718C310.714 100.01 310.942 100.01 311.702 100.808C312.082 101.188 312.272 101.72 312.272 102.176ZM306.8 98.3V98.262C306.8 97.768 306.8 97.008 306.8 97.008C306.382 97.122 306.04 97.274 305.546 97.312L300.074 97.844C299.428 97.92 298.592 98.034 298.592 98.984C298.592 99.896 299.2 100.124 300.188 100.124H304.71C306.534 100.124 306.8 99.326 306.8 98.3ZM331.644 102.252C331.644 103.278 330.694 104.19 329.668 104.19C329.212 104.19 328.756 104.038 328.338 103.582L322.296 97.198L319.294 99.706V102.252C319.294 103.506 318.344 104.152 317.394 104.152C316.444 104.152 315.494 103.506 315.494 102.252V81.618C315.494 80.364 316.444 79.756 317.394 79.756C318.344 79.756 319.294 80.364 319.294 81.618V94.88L327.616 87.888C327.996 87.584 328.414 87.432 328.794 87.432C329.82 87.432 330.694 88.382 330.694 89.408C330.694 89.902 330.466 90.396 329.972 90.852L325.26 94.842L331.074 100.96C331.454 101.378 331.644 101.834 331.644 102.252ZM351.035 102.176C351.035 103.354 350.085 104.114 349.059 104.114C348.109 104.114 347.425 103.81 346.817 103.126C345.829 103.81 344.879 104.038 343.549 104.038H339.369C336.709 104.038 333.479 103.088 333.479 99.098C333.479 95.526 335.721 94.576 338.723 94.196C339.787 94.082 344.271 93.512 344.271 93.512C345.259 93.398 345.259 93.132 345.449 92.866C345.487 92.79 345.449 92.6 345.449 92.486C345.297 91.612 344.689 91.346 343.663 91.346H339.863C338.647 91.346 338.115 91.726 337.887 92.068C337.431 92.714 336.899 93.056 336.291 93.056C335.303 93.056 334.277 92.258 334.277 91.194C334.277 90.89 334.391 90.51 334.581 90.168C335.759 88.116 337.735 87.546 339.673 87.546H343.663C347.045 87.546 349.477 89.864 349.477 93.436V98.718C349.477 100.01 349.705 100.01 350.465 100.808C350.845 101.188 351.035 101.72 351.035 102.176ZM345.563 98.3V98.262C345.563 97.768 345.563 97.008 345.563 97.008C345.145 97.122 344.803 97.274 344.309 97.312L338.837 97.844C338.191 97.92 337.355 98.034 337.355 98.984C337.355 99.896 337.963 100.124 338.951 100.124H343.473C345.297 100.124 345.563 99.326 345.563 98.3ZM360.299 102.214C360.299 103.24 359.463 104.076 358.437 104.076C357.943 104.076 357.563 104.038 357.183 103.924C356.423 103.696 355.739 103.278 355.321 102.746C354.713 101.948 354.295 100.884 354.295 99.06V82.796C354.295 81.542 355.283 80.934 356.195 80.934C357.107 80.934 358.095 81.542 358.095 82.796V98.49C358.095 99.82 358.323 100.238 358.551 100.314C358.779 100.39 358.969 100.428 359.159 100.504C359.843 100.77 360.299 101.416 360.299 102.214ZM380.785 98.148C380.785 101.796 378.239 104.038 374.895 104.038H370.715C367.485 104.038 364.825 101.834 364.825 98.148V93.436C364.825 89.75 367.485 87.546 370.715 87.546H374.895C378.239 87.546 380.785 89.788 380.785 93.436V98.148ZM376.985 98.148V93.436C376.985 91.992 376.263 91.308 374.895 91.308L370.715 91.346C369.385 91.346 368.625 92.03 368.625 93.436V98.148C368.625 99.554 369.385 100.276 370.715 100.276H374.895C376.263 100.276 376.985 99.592 376.985 98.148ZM395.788 102.138C395.788 103.05 395.142 104.038 393.888 104.038H393.356C390.012 104.038 387.504 101.796 387.504 98.148V91.308H386.326C385.072 91.308 384.464 90.358 384.464 89.446C384.464 88.534 385.072 87.546 386.326 87.546H387.504V82.796C387.504 81.542 388.454 80.896 389.366 80.896C390.278 80.896 391.266 81.542 391.266 82.796V87.546H393.812C395.066 87.546 395.712 88.534 395.712 89.446C395.712 90.358 395.066 91.308 393.812 91.308H391.266V98.148C391.266 99.592 391.988 100.276 393.356 100.276H393.888C395.142 100.276 395.788 101.226 395.788 102.138Z" fill="#FF510D"/>
</svg>
