<?xml version="1.0" encoding="utf-8"?>
<!-- Generator: Adobe Illustrator 24.3.0, SVG Export Plug-In . SVG Version: 6.00 Build 0)  -->
<svg version="1.1" id="Слой_1" xmlns="http://www.w3.org/2000/svg" xmlns:xlink="http://www.w3.org/1999/xlink" x="0px" y="0px"
	 viewBox="0 0 512 127.7" style="enable-background:new 0 0 512 127.7;" xml:space="preserve">
<style type="text/css">
	.st0{fill:#FF6700;}
</style>
<g>
	<path id="path3339" class="st0" d="M308.5,118.9h-1.8v5.1h-1.1v-5.1h-1.8v-1h4.8V118.9z M310,117.9h-0.2v6.2h1.1v-3.8l1.9,2.3h0.2
		l1.9-2.3v3.8h1.1v-6.2h-0.2l-2.9,3.3L310,117.9z"/>
	<g id="g3341">
		<path id="path3343" class="st0" d="M43,41.5c11.9,0,22.1,4.2,30.5,12.6c8.4,8.3,12.6,18.4,12.6,30.4V124H53.4V85.1
			c0-4.6-1-8.5-3-11.8c-2-3.3-4.5-4.9-7.4-4.9c-2.8,0-5.3,1.6-7.3,4.9c-2,3.3-3,7.2-3,11.8V124H0V84.5c0-12,4.2-22.1,12.6-30.4
			C20.9,45.7,31.1,41.5,43,41.5z"/>
		<path id="path3345" class="st0" d="M117.5,35c-3.5,3.4-5.3,6-5.4,7.6v0.2c0,1.7,1.5,4.1,4.6,7.1l3.6,3.6c3.2,3.3,4.8,7.2,4.8,11.7
			V124h-33V65.2c0-4.6,1.6-8.5,4.8-11.7l3.7-3.6c3-3,4.5-5.4,4.5-7.1v-0.2c-0.2-1.6-2-4.1-5.4-7.5l-3.9-4c-3.6-3.5-5.4-7.8-5.4-12.8
			c0-5,1.8-9.3,5.4-12.8c3.5-3.6,7.7-5.4,12.8-5.4c5.1,0,9.4,1.8,12.8,5.3c3.6,3.5,5.4,7.8,5.4,12.8c0,5.1-1.8,9.4-5.4,12.8
			L117.5,35z"/>
		<path id="path3347" class="st0" d="M179.8,98.3c1.4-2.7,2.4-5.9,2.8-9.6h32.6c-0.9,10.3-5,19.1-12.4,26.3v0.1
			c-8.3,8.4-18.4,12.6-30.2,12.6h-0.4c-11.8,0-21.9-4.2-30.3-12.6V115c-8.4-8.3-12.6-18.3-12.6-30.2v-0.4c0-11.8,4.2-21.9,12.6-30.2
			c8.3-8.4,18.5-12.6,30.4-12.6c11.9,0,22,4.2,30.4,12.6c7.3,7.3,11.4,16,12.4,26.3h-32.6c-0.4-3.7-1.4-6.9-2.8-9.6
			c-2.1-3.7-4.5-5.6-7.4-5.6c-2.8,0-5.3,1.9-7.3,5.6c-2,3.8-3,8.4-3,13.7c0,5.3,1,9.8,3,13.6c2,3.7,4.5,5.6,7.3,5.7
			C175.2,104,177.7,102.1,179.8,98.3z"/>
		<path id="path3349" class="st0" d="M283.6,88.1l16.5,25.3c1.4,2.1,2.1,4,2.1,5.6c0,0.7-0.1,1.3-0.3,1.9c-0.7,2.1-2.4,3.1-4.8,3.1
			h-27l-17-26.1v26h-32.7V57.8c0-4.5,1.6-8.3,4.8-11.6c3.2-3.2,7-4.7,11.5-4.7c4.5,0,8.4,1.6,11.6,4.7c3.2,3.2,4.8,7.1,4.8,11.6
			v17.7L267.9,49c2.3-3.9,5.6-6.4,10-7.5c1.4-0.4,2.9-0.6,4.3-0.6c2.8,0,5.5,0.7,8.1,2.2c3.9,2.4,6.4,5.7,7.5,10.1
			c0.4,1.4,0.6,2.8,0.6,4.2c0,2.8-0.8,5.5-2.3,8.1L283.6,88.1z"/>
	</g>
	<g>
		<g id="g3363">
			<g id="g3555" transform="translate(117.5346,512.6573)">
				<path id="path3557" d="M204.7-461.9h15.7v22.6h22v-22.6h15.7v60.2h-15.7v-24.4h-22v24.4h-15.7V-461.9z"/>
			</g>
			<g id="g3567" transform="translate(125.3945,508.2247)">
				<path id="path3569" d="M279.5-410.8h6.9c9.3,0,15-7.4,15-17.5c0-9.2-6.1-16-14.5-16h-7.4L279.5-410.8L279.5-410.8z M263.6-457.4
					h25.1c16.2,0,28.6,12,28.6,29.4c0,17.6-11.7,30.8-28.4,30.8h-25.3V-457.4z"/>
			</g>
			<path id="path3571" d="M442.4,44.4H322.2v-6.6h120.2V44.4z"/>
			<path id="path3573" d="M442.5,124H322.2v-6.6h120.3V124z"/>
		</g>
		<path d="M512,80.9c0,3.6-2.9,6.5-6.5,6.5h-16.8v16.8c0,1.8-0.7,3.4-1.9,4.6c-1.2,1.2-2.8,1.9-4.6,1.9c-3.6,0-6.5-2.9-6.5-6.5V87.3
			h-16.8c-1.8,0-3.4-0.7-4.6-1.9c-1.2-1.2-1.9-2.8-1.9-4.6c0-3.6,2.9-6.5,6.5-6.5h16.8V57.6c0-1.8,0.7-3.4,1.9-4.6
			c1.2-1.2,2.8-1.9,4.6-1.9c3.6,0,6.5,2.9,6.5,6.5v16.8h16.8c1.8,0,3.4,0.7,4.6,1.9C511.3,77.5,512,79.1,512,80.9z"/>
	</g>
</g>
</svg>
