<?xml version="1.0" encoding="UTF-8" standalone="no"?>
<svg
   xmlns:dc="http://purl.org/dc/elements/1.1/"
   xmlns:cc="http://creativecommons.org/ns#"
   xmlns:rdf="http://www.w3.org/1999/02/22-rdf-syntax-ns#"
   xmlns:svg="http://www.w3.org/2000/svg"
   xmlns="http://www.w3.org/2000/svg"
   version="1.1"
   id="svg4334"
   viewBox="0 0 213.94345 86.291477"
   height="24.353373mm"
   width="60.379597mm">
  <defs
     id="defs4336" />
  <metadata
     id="metadata4339">
    <rdf:RDF>
      <cc:Work
         rdf:about="">
        <dc:format>image/svg+xml</dc:format>
        <dc:type
           rdf:resource="http://purl.org/dc/dcmitype/StillImage" />
        <dc:title></dc:title>
      </cc:Work>
    </rdf:RDF>
  </metadata>
  <g
     transform="translate(104.11458,-820.64502)"
     id="layer1">
    <path
       id="path3792"
       style="fill:#000000;fill-opacity:1;fill-rule:nonzero;stroke:none"
       d="m -77.41238,900.0765 -21.76625,6.86 24.285,-66.70375 21.055,-5.32625 13.60375,59.3975 -20.02125,-1.2825 -0.835,-10.89125 -10.94,2.8775 -5.38125,15.06875 z m 12.695,-28.5675 -2.185,-8.71875 c -0.3825,-2.1075 -0.5725,-4.31 -0.765,-6.44375 l -0.62875,0.075 -3.93875,15.115 7.5175,-0.0275 z" />
    <path
       id="path3794"
       style="fill:#000000;fill-opacity:1;fill-rule:nonzero;stroke:none"
       d="m -17.75013,869.0325 c -1.625,-0.8275 -3.53125,-2.32625 -5.38125,-2.13625 -3.76,0.385 -6.98875,3.1975 -6.5225,7.245 l 2.3475,14.84125 -13.055,-0.19375 -3.71875,-32.56375 10.48125,-1.0775 0.165,4.38875 0.33875,-0.035 c 2.08875,-4.56 12.09375,-9.75125 16.9925,-10.13 l -1.6475,19.66125 z" />
    <path
       id="path3796"
       style="fill:#000000;fill-opacity:1;fill-rule:nonzero;stroke:none"
       d="m 3.79237,839.19562 4.83875,0.44251 -2.08625,13.905 -4.86125,0.52499 -6.3475,38.945 -13.83875,-5.07499 5.7825,-37.47125 -5.165,-0.30501 1.97625,-12.38249 5.08,0.8525 1.73125,-10.8575 14.86875,-0.17625 -1.97875,11.5975 z" />
    <path
       id="path3798"
       style="fill:#000000;fill-opacity:1;fill-rule:nonzero;stroke:none"
       d="m 12.68862,827.68637 14.6975,-1.3325 -1.665,22.9075 -0.47125,8.295 0.2225,0.0125 c 2.95625,-3.33125 4.9575,-3.75 9.125,-3.48125 7.4325,0.48625 9.6325,6.81125 9.11125,14.0125 l 0.4275,24.72125 -14.79125,2.46751 -0.77375,-19.99875 c 0.78125,-5.88 0.71,-8.04875 -1.37375,-8.18125 -2.25125,-0.14875 -2.8925,1.6625 -3.0375,3.695 l -1.49875,20.66 -14.58375,-0.185 4.61125,-63.5925 z" />
    <path
       id="path3800"
       style="fill:#000000;fill-opacity:1;fill-rule:nonzero;stroke:none"
       d="m 58.18837,852.16862 3.01125,16.88375 c 0.29,1.89 0.83375,6.93375 3.18,6.61 2.34625,-0.3275 1.69375,-2.27625 1.4,-4.17 l -2.5825,-16.72375 15.3475,-0.1025 0.19375,16.64625 c 1.58375,10.25625 -4.27375,15.74625 -12.8775,16.94 -8.6,1.195 -17.46125,-2.2475 -19.04875,-12.50125 l -2.82625,-18.31125 14.2025,-5.27125 z" />
    <path
       id="path3802"
       style="fill:#000000;fill-opacity:1;fill-rule:nonzero;stroke:none"
       d="m 101.25512,885.88763 c -1.1,-1.40625 -2.83875,-3.26876 -4.6,-3.84751 -3.5775,-1.17499 -6.755,0.83376 -8.15625,4.68126 l -5.62625,14.68625 -10.205,-6.5675 11.3125,-30.95125 12.27125,1.61375 -2.62,6.1925 0.31875,0.10499 c 3.9475,-3.27374 11.285,-1.7225 15.87875,-0.08 l -8.57375,14.1675 z" />
    <path
       id="path3804"
       style="fill:#ff0000;fill-opacity:1;fill-rule:nonzero;stroke:none"
       d="m -81.991255,894.82325 -21.627495,3.8175 24.143745,-63.69875 19.59625,-5.235 12.845,55.70875 -17.915,4.635 -0.70625,-13.185 -10.9525,2.8825 -5.38375,15.075 z m 14.925,-28.52375 -2.18875,-8.72875 c -0.38375,-2.10875 -0.5725,-4.31 -0.76625,-6.4425 l -0.62375,0.0725 -3.945,15.12625 7.52375,-0.0275 z" />
    <path
       d="m -81.991255,894.82325 -21.627495,3.8175 24.143745,-63.69875 19.59625,-5.235 12.845,55.70875 -17.915,4.635 -0.70625,-13.185 -10.9525,2.8825 -5.38375,15.075 z m 14.925,-28.52375 -2.18875,-8.72875 c -0.38375,-2.10875 -0.5725,-4.31 -0.76625,-6.4425 l -0.62375,0.0725 -3.945,15.12625 7.52375,-0.0275 z"
       style="fill:none;stroke:#000000;stroke-width:0.63625002;stroke-linecap:butt;stroke-linejoin:miter;stroke-miterlimit:4;stroke-dasharray:none;stroke-opacity:1"
       id="path3808" />
    <path
       id="path3810"
       style="fill:#ff0000;fill-opacity:1;fill-rule:nonzero;stroke:none"
       d="m -22.234255,863.6745 c -1.62625,-0.8275 -2.785,-1.51375 -4.64,-1.325 -3.76625,0.3875 -6.99375,3.20125 -6.5325,7.2475 l 1.605,14.03 -13.07125,-0.195 -3.72875,-32.56375 10.50125,-1.07875 0.16,4.38875 0.34,-0.035 c 2.09125,-4.55875 8.62625,-6.16 13.53,-6.53875 l 1.83625,16.07 z" />
    <path
       d="m -22.234255,863.6745 c -1.62625,-0.8275 -2.785,-1.51375 -4.64,-1.325 -3.76625,0.3875 -6.99375,3.20125 -6.5325,7.2475 l 1.605,14.03 -13.07125,-0.195 -3.72875,-32.56375 10.50125,-1.07875 0.16,4.38875 0.34,-0.035 c 2.09125,-4.55875 8.62625,-6.16 13.53,-6.53875 l 1.83625,16.07 z"
       style="fill:none;stroke:#000000;stroke-width:0.63499999;stroke-linecap:butt;stroke-linejoin:miter;stroke-miterlimit:4;stroke-dasharray:none;stroke-opacity:1"
       id="path3814" />
    <path
       id="path3816"
       style="fill:#ff0000;fill-opacity:1;fill-rule:nonzero;stroke:none"
       d="m -0.785505,834.65825 6.14625,0.4575 -2.50375,14.905 -5.6075,-1.42375 -6.41625,39.07125 -13.68125,-7.35625 5.595,-34.4975 -8.13875,-0.90875 2.81375,-13.9775 7.28875,0.9475 1.6875,-9.4575 14.88875,-0.17375 -2.0725,12.41375 z" />
    <path
       d="m -0.785505,834.65825 6.14625,0.4575 -2.50375,14.905 -5.6075,-1.42375 -6.41625,39.07125 -13.68125,-7.35625 5.595,-34.4975 -8.13875,-0.90875 2.81375,-13.9775 7.28875,0.9475 1.6875,-9.4575 14.88875,-0.17375 -2.0725,12.41375 z"
       style="fill:none;stroke:#000000;stroke-width:0.63499999;stroke-linecap:butt;stroke-linejoin:miter;stroke-miterlimit:4;stroke-dasharray:none;stroke-opacity:1"
       id="path3820" />
    <path
       id="path3822"
       style="fill:#ff0000;fill-opacity:1;fill-rule:nonzero;stroke:none"
       d="m 8.175995,822.32875 14.70625,-1.33375 -1.6625,22.90875 -0.47875,8.29625 0.22875,0.015 c 2.96125,-3.3325 4.9625,-3.755 9.13,-3.48375 7.44375,0.485 9.645,6.81375 9.12125,14.015 l 0.2675,26.99875 -13.98875,-3.9625 -0.77,-20 c 0.12375,-1.725 0.05,-3.89375 -2.03,-4.03 -2.255,-0.145 -2.9,1.665 -3.0425,3.6975 l -1.445,19.90625 -14.65625,0.57 4.62,-63.5975 z" />
    <path
       d="m 8.175995,822.32875 14.70625,-1.33375 -1.6625,22.90875 -0.47875,8.29625 0.22875,0.015 c 2.96125,-3.3325 4.9625,-3.755 9.13,-3.48375 7.44375,0.485 9.645,6.81375 9.12125,14.015 l 0.2675,26.99875 -13.98875,-3.9625 -0.77,-20 c 0.12375,-1.725 0.05,-3.89375 -2.03,-4.03 -2.255,-0.145 -2.9,1.665 -3.0425,3.6975 l -1.445,19.90625 -14.65625,0.57 4.62,-63.5975 z"
       style="fill:none;stroke:#000000;stroke-width:0.63499999;stroke-linecap:butt;stroke-linejoin:miter;stroke-miterlimit:4;stroke-dasharray:none;stroke-opacity:1"
       id="path3826" />
    <path
       id="path3828"
       style="fill:#ff0000;fill-opacity:1;fill-rule:nonzero;stroke:none"
       d="m 54.482745,846.85788 3.01375,16.885 c 0.2925,1.89375 0.8375,6.935 3.18875,6.61 2.34625,-0.32375 1.695,-2.27375 1.40125,-4.17125 l -2.58625,-16.72625 12.95375,-0.255 2.59625,16.805 c 1.5875,10.2575 -4.2775,15.745 -12.885,16.94125 -8.61,1.1975 -17.47875,-2.25125 -19.0675,-12.505 l -2.82875,-18.31375 14.21375,-5.27 z" />
    <path
       d="m 54.482745,846.85788 3.01375,16.885 c 0.2925,1.89375 0.8375,6.935 3.18875,6.61 2.34625,-0.32375 1.695,-2.27375 1.40125,-4.17125 l -2.58625,-16.72625 12.95375,-0.255 2.59625,16.805 c 1.5875,10.2575 -4.2775,15.745 -12.885,16.94125 -8.61,1.1975 -17.47875,-2.25125 -19.0675,-12.505 l -2.82875,-18.31375 14.21375,-5.27 z"
       style="fill:none;stroke:#000000;stroke-width:0.63499999;stroke-linecap:butt;stroke-linejoin:miter;stroke-miterlimit:4;stroke-dasharray:none;stroke-opacity:1"
       id="path3832" />
    <path
       id="path3834"
       style="fill:#ff0000;fill-opacity:1;fill-rule:nonzero;stroke:none"
       d="m 99.608745,880.14425 c -1.09625,-1.40625 -2.8425,-3.27 -4.6025,-3.8475 -3.575,-1.17375 -6.75875,0.83625 -8.16625,4.68375 l -4.34625,11.8925 -11.49375,-3.775 11.32125,-30.96 12.2825,1.6175 -2.62625,6.1925 0.32125,0.105 c 3.94875,-3.2725 11.291255,-1.72125 15.888755,-0.0812 l -8.578755,14.1725 z" />
    <path
       d="m 99.608745,880.14425 c -1.09625,-1.40625 -2.8425,-3.27 -4.6025,-3.8475 -3.575,-1.17375 -6.75875,0.83625 -8.16625,4.68375 l -4.34625,11.8925 -11.49375,-3.775 11.32125,-30.96 12.2825,1.6175 -2.62625,6.1925 0.32125,0.105 c 3.94875,-3.2725 11.291255,-1.72125 15.888755,-0.0812 l -8.578755,14.1725 z"
       style="fill:none;stroke:#000000;stroke-width:0.63499999;stroke-linecap:butt;stroke-linejoin:miter;stroke-miterlimit:4;stroke-dasharray:none;stroke-opacity:1"
       id="path3838" />
    <path
       id="path3840"
       style="fill:#000000;fill-opacity:1;fill-rule:nonzero;stroke:none"
       d="m 93.137495,888.81375 c -0.23875,-0.009 -0.3225,-0.15625 -0.315,-0.34875 0.0037,-0.12625 0.0525,-0.25125 0.0575,-0.3825 0,-0.0362 -0.0025,-0.0638 -0.005,-0.0875 -0.2175,0.0438 -0.43375,0.0113 -0.64875,0.006 -0.07625,-0.004 -0.20625,-0.0138 -0.28125,0.0137 -0.02375,0.34 -0.02875,0.65875 -0.0375,0.98625 -0.01,0.22875 -0.02625,0.45625 -0.03625,0.68375 -0.0037,0.135 -0.075,0.18375 -0.0775,0.2925 -0.0125,0.27875 0.02125,0.565 0.015,0.8425 -0.0025,0.1025 -0.02375,0.20125 -0.02625,0.29625 0,0.007 -0.0012,0.015 0.0025,0.0263 l 0.0088,0.006 c 0.03625,-0.006 0.06625,-0.0112 0.09875,-0.0137 0.31375,0.01 0.4025,0.29125 0.395,0.55 -0.0725,0.0175 -0.0825,0.025 -0.10375,0.0312 l -0.05875,0.025 c -0.055,0.025 -0.11,0.04 -0.14625,0.0387 -0.07,-0.001 -0.1125,-0.045 -0.14125,-0.0462 -0.105,-0.004 -0.285,0.0512 -0.3875,0.08 -0.15875,0.0425 -0.335,0.09 -0.515,0.085 -0.18375,-0.005 -0.41125,-0.1125 -0.4075,-0.35125 0.0075,-0.1425 0.17625,-0.22125 0.27375,-0.2525 0.0475,0 0.07625,0.0125 0.09,0.0125 l 0.02125,0.009 0.005,0 c 0.02875,0 0.1725,-0.035 0.2375,-0.0612 0.02125,-0.15 0.08875,-0.2925 0.09375,-0.44125 0.005,-0.16125 -0.03375,-0.3175 -0.0575,-0.46875 -0.0037,-0.04 -0.015,-0.085 -0.015,-0.11625 0.0012,-0.0575 0.05,-0.1025 0.0625,-0.15375 0.0325,-0.2125 0.03375,-0.29125 0.05125,-0.5 0.02875,-0.34625 0.07125,-0.69 0.08,-1.03 0.0025,-0.08 0.01,-0.42625 -0.04875,-0.495 -0.255,-0.0425 -0.5275,-0.07 -0.7875,-0.10625 -0.0625,0.0788 -0.10125,0.17875 -0.1025,0.27875 -0.0038,0.0675 0.015,0.14375 0.03625,0.22875 -0.03375,0.1 -0.14125,0.23375 -0.2375,0.23125 -0.1375,-0.004 -0.35125,-0.2225 -0.34625,-0.34625 0.0087,-0.26375 0.0875,-0.52125 0.09875,-0.79 0.005,-0.12125 0.06,-0.20875 0.13125,-0.32625 0.19625,0.0137 0.26625,0.0662 0.4325,0.13875 0.22,0.0913 0.885,0.11125 1.19125,0.12125 0.1225,0.002 0.24,-0.0612 0.37375,-0.0575 0.03375,0 0.07,0.0287 0.0875,0.0287 0.1775,0.009 0.3575,0.004 0.50625,-0.045 0.14375,-0.0375 0.20625,-0.1 0.37625,-0.0963 0.0725,0.004 0.23125,0.09 0.34375,0.1525 -0.0075,0.20625 0.085,0.37375 0.07625,0.57625 0,0.0512 -0.0012,0.11875 -0.005,0.19625 -0.01375,0.1975 -0.05625,0.58625 -0.35875,0.57875" />
    <path
       id="path3842"
       style="fill:#000000;fill-opacity:1;fill-rule:nonzero;stroke:none"
       d="m 97.78337,887.72925 c 0.0025,-0.1325 0.17125,-0.2225 0.27625,-0.21625 0.08125,0.002 0.20875,0.0888 0.24125,0.0888 0.135,0.006 0.2975,-0.1425 0.475,-0.13625 0.13375,0.005 0.39625,0.14 0.38875,0.32375 0,0.0937 -0.16625,0.2575 -0.27375,0.3225 0.06625,1.0625 0.12,2.1175 0.33125,3.1625 l 0.02,0 c 0.035,0 0.06375,-0.008 0.1,-0.005 0.14,0.005 0.32125,0.2525 0.315,0.355 0,0.11875 -0.2775,0.34625 -0.39,0.345 l -0.6875,-0.0213 c -0.06125,-0.07 -0.17625,-0.28625 -0.17375,-0.36125 0.005,-0.11125 0.04,-0.16875 0.1125,-0.19875 0.035,-0.009 0.06625,-0.015 0.0925,-0.03 0.0087,-0.0837 0.01375,-0.1525 -0.0125,-0.26125 0.0475,-0.0362 0.0475,-0.0425 0.04375,-0.0588 0.0062,-0.0438 -0.1225,-0.215 -0.115,-0.425 0.005,-0.0988 -0.06375,-0.13625 -0.07,-0.22875 -0.04875,-0.43375 -0.07625,-0.89625 -0.08375,-1.33875 l -0.0475,-0.085 c -0.0087,-0.0987 -0.0062,-0.1825 -0.0087,-0.275 -0.11,0.1475 -0.3325,0.6275 -0.3725,0.7125 -0.0275,0.085 -0.24375,0.66625 -0.25875,0.76 -0.13875,0.54 -0.45875,1.02875 -0.5725,1.585 -0.08,0.0312 -0.1775,0.11 -0.2625,0.10875 -0.11375,-0.004 -0.285,-0.305 -0.40875,-0.65125 -0.0125,-0.055 -0.215,-0.7175 -0.2725,-0.795 -0.0525,-0.0687 -0.10375,-0.12125 -0.13375,-0.1975 -0.05,-0.17125 -0.02625,-0.3475 -0.07125,-0.525 -0.02625,-0.10375 -0.20875,-0.70875 -0.315,-0.995 -0.19125,0.635 -0.27375,1.29 -0.43375,1.9225 -0.045,0.21 -0.15125,0.4375 -0.1575,0.65625 -0.0062,0.20375 0.4375,0.0875 0.42875,0.41625 -0.0025,0.0963 -0.16875,0.24 -0.2575,0.26125 -0.07875,0.006 -0.16875,-0.004 -0.2525,-0.005 -0.07,-0.003 -0.09375,0.004 -0.115,0.0225 l -0.01625,0.015 c -0.03875,0.0375 -0.075,0.0662 -0.13625,0.0788 -0.09125,0.0212 -0.30375,0.0187 -0.41125,0.0125 -0.1675,-0.004 -0.455,-0.14625 -0.44875,-0.3775 0,-0.0138 0,-0.0225 0.01125,-0.0412 0.11125,-0.14 0.2,-0.135 0.36125,-0.1475 0.07125,-0.008 0.15,-0.004 0.16875,-0.0388 0.1125,-0.1475 0.2725,-0.9275 0.30125,-1.185 l 0.0625,-0.0775 c 0.0825,-0.3675 0.17,-0.735 0.2425,-1.1025 0.055,-0.27 0.21875,-0.68625 0.23,-0.92875 0.0025,-0.0763 -0.03875,-0.11375 -0.0975,-0.11375 -0.0125,0.006 -0.035,0.0212 -0.08,0.0212 -0.10875,-0.002 -0.29,-0.1775 -0.28,-0.285 0,-0.085 0.04375,-0.16875 0.12875,-0.24 0.145,-0.0125 0.64,-0.0237 0.74125,-0.0888 l 0.04625,-0.0237 c 0.0275,-0.0175 0.07,-0.0388 0.12875,-0.0388 0.085,0.001 0.33125,0.16125 0.32625,0.28125 -0.0063,0.0913 -0.125,0.19625 -0.13125,0.23 -0.0125,0.43125 0.3125,0.7025 0.29625,1.1575 -0.005,0.10875 0.1425,0.24 0.15125,0.3925 0.035,0.40625 -0.03625,0.44375 0.2325,0.85 0.11125,0.16625 0.09125,0.39625 0.1875,0.53 0.31125,-0.575 0.42125,-1.21875 0.715,-1.8 0.1,-0.20125 0.4725,-0.7375 0.48625,-0.915 -0.13125,-0.0937 -0.30125,-0.22 -0.295,-0.3975" />
  </g>
</svg>
