<svg xmlns="http://www.w3.org/2000/svg" xmlns:xlink="http://www.w3.org/1999/xlink" width="1000" height="999.99832" viewBox="0 0 1000 999.99832"><defs><style>.a{fill:url(#a);filter:url(#e);}.b{fill:url(#b);}.c{fill:#b2b200;}.d{fill:url(#c);}.e{fill:#ec6725;}.f{fill:#fff;}.g{fill:#ed6e6b;}.h{fill:#00456f;}.i{mask:url(#d);}.j,.l{opacity:0.8;}.j{fill:url(#f);}.k{mask:url(#g);}.l{fill:url(#i);}.m{filter:url(#h);}</style><linearGradient id="a" x1="499.8362" y1="1369.75635" x2="538.19963" y2="1369.75635" gradientTransform="matrix(18.45162, -16.61391, -16.61391, -18.45162, 13622.87854, 34329.26784)" gradientUnits="userSpaceOnUse"><stop offset="0"/><stop offset="0.12676" stop-color="#040404"/><stop offset="0.25248" stop-color="#101010"/><stop offset="0.37783" stop-color="#242424"/><stop offset="0.50303" stop-color="#404040"/><stop offset="0.62814" stop-color="#646464"/><stop offset="0.75328" stop-color="#909090"/><stop offset="0.87668" stop-color="#c4c4c4"/><stop offset="1" stop-color="#fff"/></linearGradient><linearGradient id="b" x1="522.43877" y1="1362.17235" x2="560.8022" y2="1362.17235" gradientTransform="matrix(19.26694, -0.00007, -0.00007, -19.26694, -9989.83307, 26575.42871)" gradientUnits="userSpaceOnUse"><stop offset="0"/><stop offset="0.13123" stop-color="#040404"/><stop offset="0.25751" stop-color="#0f0f0f"/><stop offset="0.38188" stop-color="#232323"/><stop offset="0.50506" stop-color="#3e3e3e"/><stop offset="0.6274" stop-color="#616161"/><stop offset="0.74912" stop-color="#8c8c8c"/><stop offset="0.87044" stop-color="#bfbfbf"/><stop offset="0.98854" stop-color="#f9f9f9"/><stop offset="1" stop-color="#fff"/></linearGradient><linearGradient id="c" x1="478.69669" y1="1372.15472" x2="517.06055" y2="1372.15472" gradientTransform="matrix(24.97397, 0, 0, -24.97397, -11933.98483, 34768.15763)" gradientUnits="userSpaceOnUse"><stop offset="0" stop-color="#d2d100"/><stop offset="0.57593" stop-color="#bdbd00"/><stop offset="1" stop-color="#b3b300"/></linearGradient><filter id="e" x="-387.32637" y="-418.21796" width="1681.50731" height="1681.12331" filterUnits="userSpaceOnUse" color-interpolation-filters="sRGB"><feFlood flood-color="#fff" result="bg"/><feBlend in="SourceGraphic" in2="bg"/></filter><mask id="d" x="-387.32637" y="-418.21796" width="1681.50731" height="1681.12331" maskUnits="userSpaceOnUse"><polygon class="a" points="1294.181 464.677 499.252 -418.218 -387.326 380.048 407.64 1262.905 1294.181 464.677"/></mask><linearGradient id="f" x1="499.8355" y1="1370.00237" x2="538.19999" y2="1370.00237" gradientTransform="matrix(18.45162, -16.61392, -16.61392, -18.45162, 13622.88015, 34329.27135)" gradientUnits="userSpaceOnUse"><stop offset="0" stop-color="#fff"/><stop offset="1" stop-color="#fff"/></linearGradient><filter id="h" x="-190.44686" y="-295.72379" width="1364.6648" height="1252.44989" filterUnits="userSpaceOnUse" color-interpolation-filters="sRGB"><feFlood flood-color="#fff" result="bg"/><feBlend in="SourceGraphic" in2="bg"/></filter><mask id="g" x="-190.44686" y="-295.72379" width="1364.6648" height="1252.44989" maskUnits="userSpaceOnUse"><g class="m"><rect class="b" x="30.79824" y="-225.94361" width="922.1746" height="1112.88838" transform="translate(10.56221 676.20256) rotate(-69.5845)"/></g></mask><linearGradient id="i" x1="522.43937" y1="1360.6388" x2="560.80251" y2="1360.6388" gradientTransform="matrix(6.72074, -18.05676, -18.05676, -6.72074, 21432.01647, 19308.73985)" xlink:href="#f"/></defs><title>Artboard 1</title><path class="c" d="M999.87554,488.988c6.09965,276.06351-212.76379,504.82455-488.86535,510.88587C234.94711,1005.97379,6.18593,787.11035.12447,511.04713-5.97533,234.94557,212.88811,6.22257,488.98967.12292,765.05289-5.93839,993.81393,212.92476,999.87554,488.988"/><path class="d" d="M21.09057,510.55921c5.79291,264.51661,224.96368,474.21126,489.44048,468.37854,264.51661-5.83038,474.24872-225.00115,468.41834-489.478-5.79291-260.91067-219.056-468.49327-478.77721-468.49327-3.52867,0-7.13461.03746-10.74055.11473C224.95249,26.91164,15.22038,246.08241,21.09057,510.55921Z"/><path class="e" d="M285.0496,265.65136a11.8969,11.8969,0,0,1-1.45789,1.87994Q233.47,299.75645,201.14876,305.05062c-22.903,3.4912-39.51443-2.91549-49.604-19.2584-3.03066-4.83378-6.25317-6.98212-9.78257-6.71343-3.60623.4604-6.67523,3.06885-9.16895,7.71091-3.22251,5.4092-4.52688,11.96955-4.06648,19.41207q.63309,12.94756,9.1688,24.821c12.69834,17.80081,32.68569,25.51172,60.11555,23.325q40.91451-4.14318,92.76275-35.14092l6.36834-4.06663c1.8798-17.07172-5.33252-31.53469-11.43232-50.94646l-.46025,1.4576"/><path class="e" d="M683.18523,715.55092h0c19.91051,28.92624,27.77508,62.60927,17.07171,67.09766-10.742,4.48869-118.92687,24.6679-131.04949,24.09247-12.08458-.61406-34.25875-3.64457-44.92378-10.35829-8.59337-5.4092-16.34263-14.15594-23.018-26.27886-3.64458-6.40668-7.40418-11.62417-12.27629-13.00537-10.358-2.91549-19.83383,7.48115-22.59594,13.73417q-4.37367,8.97694-1.76492,19.68046c1.61126,7.90291,5.25583,17.83915,13.27377,24.82126s48.29967,22.903,89.88561,24.78263a447.23318,447.23318,0,0,0,79.64235-3.33754c17.07171-2.49372,38.67046-7.40418,52.82669-9.6292,14.15594-2.225,51.75223-4.105,59.65515-10.3583,2.49342-1.87965,3.18388-4.25805,1.87965-7.02045-2.03331-4.4884-6.56005-9.4372-13.69583-15.15343-16.64966-13.42714-25.243-27.58337-25.97182-42.315-1.30452-12.39132,2.91548-25.3964,12.54468-38.63183a232.43758,232.43758,0,0,1-51.48354,1.87965"/><path class="e" d="M650.74906,708.822c1.45759,2.302,2.91548,4.75709,4.37337,7.0591,12.12262,20.71628,18.83634,48.37634,19.105,73.08229,0,0,23.133-5.25583,26.54725-6.56006,7.2508-2.83909,4.37366-33.52966-17.22508-68.09515-3.72126-5.98463-31.343-5.02577-32.80057-5.48618"/><path class="f" d="M812.97645,484.02367c-29.8084-8.40137-15.99784-32.30183-108.76059-40.6268a265.06457,265.06457,0,0,0-26.89262-.92051h-.42206c-10.31966-.11532-20.33257-.72909-30.03846-1.45789q-145.87716-12.775-163.735-137.14944l.46011-2.68543v-.30674q13.23558-20.83131,15.2304-47.95429,2.935-42.58373-28.19714-75.576c-21.25337-22.25087-47.6856-34.64218-79.33546-36.90555q-47.99264-4.20113-82.48144,25.8568c-23.13317,20.02583-33.45283,50.10263-29.1178,89.38686.15337,1.49623,14.61649,40.93384,12.69835,58.38927l8.82357,9.51388c52.5962,29.19463,99.47632,24.05412,99.47632,24.05412,58.696,10.28131,92.34069,109.94949,92.34069,109.94949,14.578,37.596,25.16634,107.07235,32.3788,137.26418,5.94629,24.8596,18.3376,48.14629,40.6268,68.86258,33.18429,30.76726,75.88275,41.5476,80.83184,42.85183a222.36767,222.36767,0,0,0,26.58589,4.6804c3.60594.42206,7.17382.88246,10.74171.99749a220.61544,220.61544,0,0,0,61.57315-3.68292h.26869a184.18315,184.18315,0,0,0,62.30223-27.04629c32.14846-21.98217,52.481-85.24355,52.481-85.24355,13.96423-36.82885,39.39926-67.28937,71.8164-98.97772-38.7088,9.43749-119.65537-13.27377-119.65537-13.27377"/><path d="M592.93141,523.281a5.125,5.125,0,0,0-.26868,3.33784q15.07687,56.509,64.45057,79.37395c20.02583,9.51417,44.233,14.73137,72.35349,16.03588h.4604c21.75183,0,36.33012-6.25331,43.4656-18.95166q10.76118-18.18393-.42205-54.13063l-.46011-.4604q-31.47747-69.342-115.39733-74.96223c-2.91577-.115-5.98463-.30674-9.1688-.30674a3.8584,3.8584,0,0,0-2.91577,1.1892,4.2687,4.2687,0,0,0,0,5.83125,3.21372,3.21372,0,0,0,2.91577,1.4576c2.91548,0,5.98463.15366,9.1688.42206q78.14642,5.2368,107.68612,69.47635c6.40669,20.98468,6.82875,36.75217,1.15086,47.4172-6.253,9.59086-18.22257,14.42463-36.02309,14.42463-29.04126-1.18949-53.24846-6.86708-72.81389-17.07171-28.46554-14.57829-47.11017-38.5171-56.3176-71.93144a3.98014,3.98014,0,0,0-5.25583-2.91577,3.3367,3.3367,0,0,0-2.60846,1.76462"/><path class="g" d="M408.59526,565.98734h-.57557c-5.29418,0-9.13046-2.033-11.509-6.06132-1.91815-2.72377-2.839-6.82874-2.5704-12.23794l.07683-.7288,1.76462-20.83131a35.56578,35.56578,0,0,0-10.43483,10.0896,6.298,6.298,0,0,1-4.02814,2.87714,5.57838,5.57838,0,0,1-1.57291.23005,6.0904,6.0904,0,0,1-3.33754-1.03553,6.42592,6.42592,0,0,1-3.03081-4.02829,5.77385,5.77385,0,0,1,.844-4.91046c4.25835-7.21246,11.96941-13.61915,22.903-19.22006l1.64974-19.14337a6.75267,6.75267,0,0,1,2.37855-4.48869,6.21581,6.21581,0,0,1,4.29668-1.57291h.46026a6.76329,6.76329,0,0,1,4.41186,2.37869,6.604,6.604,0,0,1,1.53457,4.75708L410.782,504.49088c11.0486-3.64458,26.93111-7.67257,47.76243-12.08458a9.43087,9.43087,0,0,1,1.41925-.15337,6.343,6.343,0,0,1,3.52955,1.07418,6.55377,6.55377,0,0,1-2.18669,11.89257c-24.24569,5.10246-41.43243,9.66783-51.71389,13.69583L407.099,548.0718v.19171a11.2961,11.2961,0,0,0,.53709,4.64206l.38357-.07669q6.73281-.403,21.1-10.70337a6.45936,6.45936,0,0,1,3.79794-1.18949c.34523,0,.72895.03864,1.15086.077a7.76119,7.76119,0,0,1,2.45523,1.03583c-2.954-6.40669-4.10483-13.73418-3.56774-22.02081a6.13062,6.13062,0,0,1,2.18668-4.56508,6.2754,6.2754,0,0,1,4.37352-1.57292h.38357a5.97076,5.97076,0,0,1,4.48839,2.18669,6.52616,6.52616,0,0,1,1.6496,4.75709c-.65211,11.16377,2.99246,19.7188,11.12543,25.78011,2.45538-14.15594,9.05378-29.8084,19.64212-46.80343a6.83449,6.83449,0,0,1,4.14332-2.91549,6.0762,6.0762,0,0,1,1.45789-.192,6.24233,6.24233,0,0,1,3.45256,1.11281,6.16378,6.16378,0,0,1,2.91549,4.028,5.74268,5.74268,0,0,1,.15366,1.41955v.03834a6.51942,6.51942,0,0,1-.95915,3.45257c-11.77754,18.91332-18.10754,35.75469-18.72131,50.63972a6.84169,6.84169,0,0,1-1.45789,3.83657,6.53621,6.53621,0,0,1-3.56789,2.26337,5.84372,5.84372,0,0,1-1.61125.23006,5.58775,5.58775,0,0,1-2.53177-.61377c-9.20743-3.913-16.07452-9.09212-20.6396-15.80584l-.07669,1.30452a6.66925,6.66925,0,0,1-2.64708,4.29669c-12.42981,8.78508-21.82881,13.08177-28.12032,13.08177"/><path class="h" d="M118.54074,473.22839v100.282H95.10068V562.807c-3.261,4.52674-6.25331,7.63423-8.97709,9.20714a23.43022,23.43022,0,0,1-12.04608,3.14583q-13.3506,0-20.4094-11.2788c-4.68026-7.5192-7.02046-16.688-7.02046-27.43,0-12.04594,2.60874-21.25309,7.7494-27.65977,5.21734-6.36835,11.77754-9.55252,19.79549-9.55252a25.18825,25.18825,0,0,1,10.62668,2.18669,24.46638,24.46638,0,0,1,8.44,6.56v-34.7572m.19186,63.75983c0-5.71594-1.07432-9.93594-3.261-12.73639a9.94437,9.94437,0,0,0-8.24814-4.22,8.8929,8.8929,0,0,0-7.32735,4.028c-1.95663,2.68543-2.954,7.21246-2.954,13.54246,0,5.94629,1.03583,10.28132,3.069,13.04343,2.03332,2.76211,4.52689,4.14332,7.5192,4.14332a9.70009,9.70009,0,0,0,8.01809-4.18166c2.10985-2.80046,3.18417-7.32749,3.18417-13.61915"/><path class="h" d="M202.67558,573.52556H179.27386V561.748c-3.49105,4.83377-6.98226,8.28663-10.55,10.31995a25.49728,25.49728,0,0,1-13.08191,3.10748c-6.86709,0-12.27629-2.302-16.1894-6.86708q-5.86945-6.90558-5.8696-21.17669V500.86533h25.16648V540.84c0,4.527.7288,7.78789,2.26337,9.70588a7.71244,7.71244,0,0,0,6.40669,2.87744,8.6857,8.6857,0,0,0,7.32749-3.83629c1.91814-2.5704,2.87714-7.13577,2.87714-13.77251V500.86533h25.05146"/><path class="h" d="M266.61219,545.06382l23.82363,3.03081a39.16083,39.16083,0,0,1-6.48337,14.3096,30.49682,30.49682,0,0,1-11.47066,9.39914c-4.6804,2.26337-10.58834,3.37589-17.76231,3.37589a59.51885,59.51885,0,0,1-17.30192-2.14834,29.60042,29.60042,0,0,1-11.93106-6.98212,35.28619,35.28619,0,0,1-7.78774-11.31714c-1.8798-4.335-2.83894-10.0896-2.83894-17.22538q0-11.22129,3.45271-18.64463a32.88637,32.88637,0,0,1,6.86709-9.82091,31.71975,31.71975,0,0,1,9.01543-6.445c4.87211-2.26337,11.12543-3.37617,18.75965-3.37617q15.99755,0,24.36087,6.36834c5.6394,4.25834,9.55251,10.435,11.81588,18.60629l-23.59357,3.4912a12.23439,12.23439,0,0,0-4.02815-7.02046,13.27926,13.27926,0,0,0-17.87734,2.60875c-2.57026,3.2992-3.87463,8.28634-3.87463,15.00005,0,5.94629,1.30437,10.473,3.83629,13.58052a11.98809,11.98809,0,0,0,9.706,4.64206,12.58861,12.58861,0,0,0,8.28648-2.80046c2.225-1.88,3.913-4.75709,5.02563-8.632"/><polyline class="h" points="301.922 473.228 327.51 473.228 327.51 524.981 346.232 500.888 377.037 500.888 353.597 526.323 378.419 573.511 350.183 573.511 336.948 544.393 327.51 554.636 327.51 573.511 301.922 573.511"/><path d="M938.09488,496.48435a4.48211,4.48211,0,0,0-4.98743-2.18669,96.28309,96.28309,0,0,1-21.98218,2.14835c-39.97468,0-94.87274-15.26875-95.40983-15.42212-8.86206-2.49372-13.27377-6.36834-18.91332-11.31743-12.04594-10.58806-27.046-23.7468-90.65275-29.463-7.21217-.65211-14.578-.95915-22.5576-.95915-1.61125,0-3.22251.03835-4.75708.03835h-.34538c-8.90011-.115-18.3376-.57543-29.69308-1.4576-95.44847-8.36332-147.66081-51.75223-159.592-132.62241l.26869-1.49623c8.82343-14.27126,13.96423-30.80589,15.34514-49.18183,2.03332-29.57835-7.86428-56.16424-29.42468-78.95218-22.02052-23.09469-49.68058-35.98474-82.21275-38.28646-33.03092-2.91577-61.91852,6.138-85.78064,26.89263-24.13051,20.86966-38.59363,54.39932-34.10508,95.14144.03834.38342.11517.80548.57557,3.22251.34523,1.803.65211,3.49091.99734,5.17886-30.0386,18.64463-55.01309,29.69337-74.38666,32.8392a72.94685,72.94685,0,0,1-10.85689.88246c-15.57548,0-26.73926-5.90794-34.25846-18.10754-3.72125-5.83126-8.09477-8.82372-12.96688-8.82372-.30689,0-.65212.03834-1.15086.07668-5.14066.61377-9.399,3.98995-12.50649,9.85955-3.64457,6.09966-5.21748,13.50383-4.71874,21.94383.49874,9.51417,3.87477,18.64463,10.01292,27.19966,12.12277,16.95669,30.614,25.5884,54.97474,25.5884,2.954,0,6.02312-.15337,9.24563-.38372,27.54489-2.80045,58.84952-14.578,93.14632-34.91057l9.1306,4.91046c39.13057,21.75212,74.96209,24.97463,92.83944,24.97463,4.37337,0,7.36583-.19171,8.63171-.307,55.05158,10.2816,87.96747,105.88315,88.35089,107.034,10.12794,26.08714,18.29955,67.67309,24.8596,101.12606,2.80046,14.23292,5.21749,26.50921,7.36584,35.563,6.63674,27.85177,20.37091,51.10012,41.931,71.12566,15.88252,14.73166,38.74715,27.00794,56.356,34.56549a189.06249,189.06249,0,0,0,26.7776,9.43749c.53709.84382,2.99246,4.83377,3.60623,5.79291,10.74171,18.37594,17.49377,43.27389,18.37623,67.21269-35.2176,7.21217-90.30766,16.88-99.82184,16.88h-.34508c-11.9312-.57572-33.14594-3.60623-42.77543-9.66783-7.97931-5.02548-15.23012-13.31212-21.52177-24.6676-3.83629-6.75206-8.28634-13.23543-14.92338-15.11509a17.58639,17.58639,0,0,0-4.87211-.69074c-11.39383,0-20.1792,10.39663-23.018,16.765a32.61037,32.61037,0,0,0-2.11,22.5576c1.6496,8.05629,5.52423,19.33538,14.73137,27.315,8.93874,7.74925,49.71921,23.93851,92.571,25.89514,6.82875.34538,13.81086.49874,20.83132.49874a477.33726,477.33726,0,0,0,59.69349-3.913c9.59086-1.38121,20.37091-3.49121,30.80589-5.52452,8.17131-1.61126,15.84417-3.10749,22.05885-4.10468,3.7599-.57543,9.1691-1.15115,15.42212-1.80327,23.17166-2.37839,40.05167-4.48839,46.30469-9.43719,4.18166-3.18417,5.37086-7.86458,3.26086-12.42995-2.3784-5.17915-7.13549-10.55-15.00006-16.803-15.46046-12.46829-23.63177-25.5884-24.28388-39.05418l-.03835-.23005c-1.18949-11.24046,2.76212-23.17166,11.70086-35.52463l.19171-.2684c3.10749-.49874,9.82092-1.72628,10.0896-1.76492a189.31463,189.31463,0,0,0,63.83681-27.73674c32.60886-22.28891,52.90309-83.517,54.169-87.46858,15.00006-39.4376,44.15635-71.27932,70.70389-97.2128a4.48517,4.48517,0,0,0,.80578-5.37086m-278.40357,218.403c4.71875.84383,17.99252,2.53177,19.45041,2.68543l.34508.53709a143.11962,143.11962,0,0,1,12.66,22.48091c8.51669,20.60126,8.63171,34.83389,6.7904,37.63434a.85145.85145,0,0,0-.192.11532c-2.60874.88217-12.1996,3.18418-20.1792,5.02549-1.15086-24.32252-8.05629-49.37384-18.87469-68.47858M745.31858,798.136c6.52171,5.21749,10.70337,9.74423,12.42965,13.58051.34538.69075.38372.80578-.61377,1.57292-4.71874,3.72125-27.89011,6.13829-41.701,7.55754-6.40669.69075-11.9312,1.26617-15.88252,1.88-6.36834.99748-14.15623,2.53205-22.40423,4.14331-10.31994,1.995-20.985,4.10468-30.2688,5.44754a464.71522,464.71522,0,0,1-58.50429,3.83629c-6.86709,0-13.69554-.15337-20.40926-.49875-41.01051-1.87965-80.14109-17.68548-87.12349-23.70845-7.28886-6.33-10.43468-15.65246-11.85423-22.48092-1.49623-6.17663-1.03583-11.62417,1.49623-16.80331,2.11-4.71875,8.59337-11.54749,14.885-11.54749a10.43726,10.43726,0,0,1,2.41674.307c3.56789,1.03583,6.98241,6.36834,9.55251,10.85674,7.02075,12.66,15.26875,22.05915,24.59121,27.89041,11.89257,7.5192,35.17926,10.473,47.07183,11.04845a5.5834,5.5834,0,0,0,.80548,0c10.01292,0,105.72979-17.95388,105.84481-17.99223,13.23543-2.7624,23.24835-5.1408,26.3172-6.445a15.58653,15.58653,0,0,0,3.52955-2.417,13.49883,13.49883,0,0,0,3.10749-5.63954c2.83879-9.66754-.99749-26.5856-9.28412-44.11771-1.99468-4.56538-4.9488-10.70338-7.59589-15.4988,11.20212.38342,22.97966,1.41925,33.91338.23005-6.40669,11.31714-9.09212,22.48091-7.9796,33.29931.84382,16.07452,10.12794,31.38132,27.66006,45.49921M858.1455,595.99887c-.03863.077-.03863.15366-.077.23034-.19171.61377-20.25588,62.07189-50.7164,82.9035a181.0739,181.0739,0,0,1-60.30726,26.27885c-.23005,0-17.68548,4.29669-43.38891,4.37337-29.04126.115-53.36378-6.82874-62.76264-8.78508-9.3608-1.91829-46.61172-17.30206-70.28183-39.24589-20.21755-18.75966-33.06926-40.55012-39.28423-66.59892-2.14835-8.86206-4.52674-21.1-7.28886-35.2176-6.637-33.79835-14.885-75.8447-25.24332-102.46893-1.41954-4.143-35.17926-102.27663-95.7934-112.90331a2.86328,2.86328,0,0,0-.80563-.077,1.85612,1.85612,0,0,0-.4604.03863c-.03834,0-3.069.30674-8.36317.30674-16.995,0-51.10012-3.10748-88.50441-23.86211,0,0-12.4298-6.90543-12.4298-6.86709l-2.11,1.26617c-32.80072,19.2584-67.09752,31.88007-92.87778,34.52715-25.93377,2.07137-44.30986-4.94909-56.12574-21.52206-5.14066-7.13549-7.94126-14.65468-8.32483-22.44257-.38372-6.63674.76728-12.31463,3.56774-17.03338,1.76477-3.2992,3.68291-5.10216,5.60106-5.33251l.2302-.03834c1.995,0,4.02814,2.53206,5.33251,4.60371,11.01026,17.8772,29.1178,25.16635,54.13078,21.33006,21.13834-3.41452,51.06177-16.88,83.13354-36.94418,0,0-2.225-11.35548-2.30171-11.62388-.2302-1.34286-.42206-2.26366-.4604-2.49371-4.18166-37.673,9.24563-68.55555,31.03594-87.3919,19.25855-16.765,42.12318-25.24332,67.9033-25.24332,3.64457,0,7.44251.15367,11.31728.49875,30.26866,2.14834,55.97224,14.11789,76.38149,35.52463,19.75715,20.908,28.84926,45.19218,27.00795,72.16149-1.30452,17.22538-6.215,32.68583-14.57829,45.84458a5.1663,5.1663,0,0,0-.69046,2.34005l-.38371,2.34006a4.1747,4.1747,0,0,0,0,1.3812c12.23794,84.85983,68.67057,132.277,167.80167,140.94709,11.62417.92081,21.25337,1.38121,30.38383,1.49623h.49874c1.57292,0,3.10749-.03834,4.6804-.03834,7.71091,0,14.80835.307,21.75212.9208,60.691,5.44754,74.4632,17.57046,85.55029,27.27635C796.84046,481.676,802.48,486.6248,813.29841,489.694c2.26366.61377,56.58629,15.72885,97.82686,15.72885,3.56789,0,6.98212-.115,10.20463-.34508-24.43754,24.821-49.41217,54.591-63.1844,90.92115"/><path d="M346.28147,200.55247c-1.57292-7.74925-5.10246-12.23765-10.51166-13.84891-5.37086-2.187-11.08709-.72909-17.07172,4.06634-5.10231,3.95161-8.86191,9.78257-11.35563,17.53212-2.76211,7.44251-3.37588,14.27126-1.91814,20.67794,1.45789,7.44252,5.10231,12.12292,10.81854,13.73418,5.10232,2.18668,10.665.88217,16.61132-3.95161,5.25583-4.22,9.05377-10.05125,11.54734-17.49377,2.76226-7.44251,3.33769-14.30931,1.88-20.71629"/><g class="i"><path class="j" d="M891.51711,327.25816c-.03746-40.70261-2.33918-81.21555-11.8153-119.34717C792.65588,94.96786,656.46616,22.15368,503.93266,20.96653h-7.28915c-2.41645.03746-4.79543.03746-7.21188.11473C224.95249,26.91164,15.22038,246.08241,21.09057,510.55921A476.70544,476.70544,0,0,0,99.39093,762.76178c76.18831,38.55544,150.99747,64.33555,245.10308,64.33555C646.72077,827.05752,891.63419,603.28333,891.51711,327.25816Z"/></g><g class="k"><path class="l" d="M968.55071,399.99507C922.66867,183.7793,731.31279,22.615,503.70319,20.96653h-7.05968c-2.41645.03746-4.79543.03746-7.21188.11473C224.95249,26.91164,15.22038,246.08241,21.09057,510.55921A480.1129,480.1129,0,0,0,30.29741,594.615c3.2992,4.94763,9.86014,14.23174,20.40868,14.53848h1.11222c15.34631-.42147,38.78724-19.90992,72.47-96.59932C217.78042,299.48307,477.998,205.30253,703.84444,271.516c37.86469,8.90245,110.94581,43.19867,187.4432,90.73148C939.70321,392.32426,962.87487,430.99443,968.55071,399.99507Z"/></g></svg>