<?xml version="1.0" encoding="UTF-8" standalone="no"?>
<!-- Created with Inkscape (http://www.inkscape.org/) -->

<svg
   width="80.001907mm"
   height="73.611427mm"
   viewBox="0 0 80.001907 73.611427"
   version="1.1"
   id="svg5"
   inkscape:version="1.1.2 (b8e25be833, 2022-02-05)"
   sodipodi:docname="Hot Ones.svg"
   xmlns:inkscape="http://www.inkscape.org/namespaces/inkscape"
   xmlns:sodipodi="http://sodipodi.sourceforge.net/DTD/sodipodi-0.dtd"
   xmlns="http://www.w3.org/2000/svg"
   xmlns:svg="http://www.w3.org/2000/svg">
  <sodipodi:namedview
     id="namedview7"
     pagecolor="#ffffff"
     bordercolor="#666666"
     borderopacity="1.0"
     inkscape:pageshadow="2"
     inkscape:pageopacity="0.0"
     inkscape:pagecheckerboard="0"
     inkscape:document-units="mm"
     showgrid="false"
     inkscape:zoom="2.5620932"
     inkscape:cx="106.35835"
     inkscape:cy="126.06879"
     inkscape:window-width="1920"
     inkscape:window-height="1017"
     inkscape:window-x="-8"
     inkscape:window-y="-8"
     inkscape:window-maximized="1"
     inkscape:current-layer="layer1" />
  <defs
     id="defs2" />
  <g
     inkscape:label="Layer 1"
     inkscape:groupmode="layer"
     id="layer1"
     transform="translate(-90.627351,-95.701595)">
    <g
       id="g876"
       transform="matrix(0.42549959,0,0,0.42549959,54.757736,91.446599)">
      <g
         id="g874">
        <g
           id="g830">
          <path
             d="m 269.3,23.1 c -0.7,-0.5 -1.7,-0.7 -2.5,-0.7 h -0.1 c 0.8,-2.6 1.4,-5.2 1.3,-7.4 -0.1,-2.2 -1.6,-4 -3.7,-4.8 -0.5,-0.1 -1.1,-0.2 -1.6,-0.2 -1.6,0 -3.1,0.7 -4.1,1.9 -4.6,5.7 -5.7,6.4 -8,8.1 -0.1,0.1 -0.3,0.2 -0.5,0.3 0,-0.7 0,-1.5 0,-2.1 0,-2.4 -1.7,-4.5 -4,-5 -0.3,-0.1 -0.8,-0.1 -1.4,-0.1 -1.9,0 -3.7,1.1 -4.6,2.6 -3.4,6.2 -5.9,7.5 -9.1,9.2 -1.5,0.8 -3.2,1.7 -5,3.1 -1.5,1.1 -2.5,2.1 -3.7,3 0,-0.1 0,-0.2 0,-0.2 -0.6,-2.2 -2.5,-3.7 -4.9,-3.8 H 217 c -2.2,0 -4.2,1.6 -5,3.8 -0.7,2.3 -1.4,4 -3.9,9.1 -0.8,1.8 -1.7,3.2 -2.6,4.8 -1.3,2.1 -2.5,4.1 -4,7.3 0,0.1 0,0.1 -0.1,0.2 0,0 0,0.1 -0.1,0.1 -0.8,2.2 -2.1,4.1 -3.2,5.6 -0.7,-0.6 -1.6,-1.1 -2.5,-1.4 -0.7,-0.1 -1.6,-0.2 -2.4,-0.2 -2.1,0 -4,0.5 -5.7,1.1 -0.3,-0.3 -0.6,-0.6 -0.6,-0.6 l -0.2,-0.1 c -0.8,-0.6 -1.8,-1.1 -2.7,-1.6 0.1,-0.7 0.1,-1.6 0,-2.3 -0.8,-4.5 -4.6,-9.4 -10.7,-9.4 -3.2,0 -5.8,1.4 -7.6,3.8 -0.2,0 -0.5,0 -0.7,0 -3.5,0 -6.4,1.7 -8.2,4.8 -0.6,1.1 -1.1,2.3 -1.4,3.4 -0.7,0.1 -1.4,0.2 -1.9,0.6 -3.9,2.2 -5.6,5.9 -4.6,9.8 0.1,0.3 0.2,0.6 0.3,0.8 -0.3,0.2 -0.7,0.6 -1.1,1 v -4.3 c 0,-1.3 -0.3,-2.3 -1.1,-3.2 0.6,-0.8 1.1,-1.9 1.1,-3.2 0,-3 -2.3,-5.2 -5.2,-5.2 h -15.2 c -2.7,0 -5.1,2.2 -5.2,5 -0.1,-2.7 -2.4,-5 -5.2,-5 h -15.4 c -3,0 -5.2,2.3 -5.2,5.2 v 55.6 c 0,2.1 1.3,3.8 3,4.8 -3.8,1.6 -6.8,4 -9.2,7.2 -4.1,5.6 -6.2,14 -6.2,25.1 0,11.2 1.9,19.2 6.1,24.7 4.3,5.7 11.4,8.7 20.9,8.7 9.5,0 16.6,-3 21,-8.8 0.5,-0.6 0.8,-1.3 1.3,-1.8 v 4.3 c 0,3 2.3,5.2 5.2,5.2 h 13.6 c 3,0 5.2,-2.3 5.2,-5.2 v -2.6 l 2.2,4.9 c 0.8,1.9 2.6,3.2 4.8,3.2 H 179 c 1.1,0 2.2,-0.3 3,-1 0.8,0.6 1.9,1.1 3.2,1.1 h 30 c 1.8,0 3.4,-0.8 4.3,-2.3 0.2,0.1 0.5,0.2 0.8,0.3 5.8,1.9 11.8,2.7 17.8,2.7 7.1,0 12.7,-2.1 16.7,-6.2 4,-4.1 6.1,-9.7 6.1,-16.8 0,-4 -0.8,-7.6 -2.6,-10.8 -1.7,-3.1 -3.9,-5.6 -6.5,-7.3 -0.2,-0.1 -0.5,-0.3 -0.7,-0.5 0.1,0 0.2,0 0.3,0.1 0.3,0.1 0.8,0.1 1.3,0.1 1.1,0 2.1,-0.3 3,-1 1.3,-0.8 2.1,-2.2 2.2,-3.5 l 1.3,-8.2 c 0.1,-1.3 0,-2.3 -0.6,-3.4 0.6,-0.7 1,-1.5 1.3,-2.4 0.5,-2.7 -1.4,-5.6 -4.1,-6.1 -5,-1 -9.8,-1.5 -14.6,-1.6 0.6,-0.8 0.8,-1.8 0.8,-3 V 75.7 h 5.1 c 2.7,0 5.1,-2.2 5.2,-4.9 l 0.8,-12.7 c 2.5,-1.1 3.3,-5.7 6.3,-8.6 2.1,-1.8 4.1,-4.3 7.6,-9.7 3,-4.6 5.1,-10.2 5.2,-10.5 0.5,-2.2 -0.6,-4.8 -2.9,-6.2 z"
             id="path828" />
        </g>
        <g
           id="g872">
          <path
             style="color:#000000;fill:#ffce00;stroke-linecap:round;stroke-linejoin:round;stroke-miterlimit:10;-inkscape-stroke:none"
             d="M 101.59961,55.357422 A 1.6420142,1.6420142 0 0 0 99.958984,57 v 55.59961 a 1.6420142,1.6420142 0 0 0 1.640626,1.64258 H 117 a 1.6420142,1.6420142 0 0 0 1.64258,-1.64258 V 93.242187 h 7.11523 v 19.357423 a 1.6420142,1.6420142 0 0 0 1.64258,1.64258 h 15.19922 a 1.6420142,1.6420142 0 0 0 1.64258,-1.64258 V 62.699219 a 1.64185,1.64185 0 0 0 -1.64258,-1.640625 1.64185,1.64185 0 0 0 -1.64063,1.640625 V 110.95898 H 129.04102 V 91.599609 a 1.6420142,1.6420142 0 0 0 -1.64063,-1.640625 H 117 a 1.6420142,1.6420142 0 0 0 -1.64258,1.640625 V 110.95898 H 103.24219 V 58.642578 h 12.11523 V 78.900391 A 1.6420142,1.6420142 0 0 0 117,80.541016 h 10.5 a 1.6420142,1.6420142 0 0 0 1.64258,-1.640625 V 58.642578 h 13.55664 A 1.64185,1.64185 0 0 0 144.3418,57 1.64185,1.64185 0 0 0 142.69922,55.357422 H 127.5 A 1.6420142,1.6420142 0 0 0 125.85742,57 v 20.257812 h -7.21484 V 57 A 1.6420142,1.6420142 0 0 0 117,55.357422 Z"
             id="path832" />
          <path
             style="color:#000000;fill:#ffce00;stroke-linecap:round;stroke-linejoin:round;stroke-miterlimit:10;-inkscape-stroke:none"
             d="m 210.59766,55.361328 a 1.64185,1.64185 0 0 0 -1.73633,1.541016 l -0.80078,13.5 a 1.6420142,1.6420142 0 0 0 1.63867,1.740234 h 9.35937 v 40.257812 a 1.6420142,1.6420142 0 0 0 1.64063,1.64063 H 236 a 1.64185,1.64185 0 0 0 0.0996,-0.041 1.64185,1.64185 0 0 0 0.0996,0.041 1.64185,1.64185 0 0 0 1.64258,-1.64063 V 72.142578 H 246.5 a 1.6420142,1.6420142 0 0 0 1.63867,-1.544922 l 0.80078,-13.5 a 1.64185,1.64185 0 0 0 -1.54297,-1.736328 1.64185,1.64185 0 0 0 -1.73632,1.541016 l -0.70704,11.955078 h -8.7539 A 1.6420142,1.6420142 0 0 0 234.55859,70.5 v 40.25781 H 222.3418 V 70.5 a 1.6420142,1.6420142 0 0 0 -1.64258,-1.642578 h -9.25586 l 0.69531,-11.759766 a 1.64185,1.64185 0 0 0 -1.54101,-1.736328 z"
             id="path834" />
          <g
             id="g844">
            <path
               style="color:#000000;fill:#ffce00;stroke-linecap:round;stroke-linejoin:round;stroke-miterlimit:10;-inkscape-stroke:none"
               d="m 108.55078,118.75977 c -7.16704,0.21394 -12.317521,3.52622 -15.564452,7.85546 a 1.6420142,1.6420142 0 0 0 -0.01367,0.0176 c -3.81778,5.23582 -5.513672,12.87885 -5.513672,22.9668 0,10.17512 1.555901,17.71666 5.353516,22.51953 3.775023,4.77429 9.97917,7.12305 18.08789,7.12305 8.20236,0 14.43716,-2.36423 18.20508,-7.34766 3.76326,-4.87645 5.43555,-12.41216 5.43555,-22.49414 0,-10.06842 -1.69731,-17.59626 -5.38086,-22.81641 -3.13058,-4.79015 -8.52764,-7.19663 -15.13086,-7.7207 a 1.64185,1.64185 0 0 0 -1.76563,1.50586 1.64185,1.64185 0 0 0 1.50586,1.76758 c 5.98692,0.47515 10.18277,2.4642 12.6543,6.25976 a 1.6420142,1.6420142 0 0 0 0.0371,0.0527 c 3.10157,4.3787 4.79687,11.23914 4.79687,20.95117 0,9.71204 -1.72578,16.57229 -4.75781,20.49609 a 1.6420142,1.6420142 0 0 0 -0.01,0.0137 c -3.03242,4.0135 -7.99466,6.04882 -15.58984,6.04882 -7.49127,0 -12.486748,-2.05125 -15.511718,-5.87695 -3.002378,-3.79712 -4.646485,-10.65756 -4.646485,-20.48242 0,-9.70466 1.701354,-16.65669 4.878907,-21.02149 2.752933,-3.66623 6.799386,-6.3512 13.027346,-6.5371 a 1.64185,1.64185 0 0 0 1.59179,-1.68946 1.64185,1.64185 0 0 0 -1.68945,-1.59179 z m -0.35351,13.32617 c -2.13751,0.40078 -3.49934,1.94027 -3.95313,3.41211 -0.82389,2.26876 -1.38672,6.02305 -1.38672,11.60156 v 2.20117 c 0,5.89435 0.36964,9.72365 1.57422,12.13281 1.18282,2.36565 3.73118,3.50782 6.66797,3.50782 2.93679,0 5.48887,-1.11015 6.58594,-3.44141 a 1.6420142,1.6420142 0 0 0 0.0332,-0.0742 c 0.89358,-2.17012 1.42383,-5.90226 1.42383,-11.32617 v -2.69922 c 0,-5.5995 -0.42734,-9.39149 -1.54492,-11.875 a 1.6420142,1.6420142 0 0 0 -0.004,-0.004 c -0.64891,-1.4276 -1.85925,-2.64123 -3.47461,-3.17968 a 1.64185,1.64185 0 0 0 -2.07617,1.03906 1.64185,1.64185 0 0 0 1.03711,2.07617 c 0.78405,0.26135 1.17451,0.64868 1.52539,1.41992 2.6e-4,5.8e-4 -2.6e-4,0.001 0,0.002 0.68171,1.51858 1.25195,5.12524 1.25195,10.52148 v 2.69922 c 0,5.13905 -0.65899,8.76972 -1.16406,10.02539 -0.50478,1.04734 -1.35239,1.5332 -3.59375,1.5332 -2.26321,0 -3.1133,-0.45901 -3.73047,-1.69336 -0.59542,-1.19083 -1.22656,-4.95842 -1.22656,-10.66406 v -2.20117 c 0,-5.38059 0.63109,-8.99449 1.19726,-10.53125 a 1.6420142,1.6420142 0 0 0 0.0332,-0.0957 c 0.15572,-0.51908 0.3818,-0.96173 1.42968,-1.15821 a 1.64185,1.64185 0 0 0 1.31055,-1.91797 1.64185,1.64185 0 0 0 -1.91601,-1.31054 z"
               id="path836" />
            <path
               style="color:#000000;fill:#ffce00;stroke-linecap:round;stroke-linejoin:round;stroke-miterlimit:10;-inkscape-stroke:none"
               d="m 138.40039,119.55859 a 1.6420142,1.6420142 0 0 0 -1.64258,1.64063 V 176.5 v 0.0996 a 1.64185,1.64185 0 0 0 1.64258,1.64258 1.64185,1.64185 0 0 0 0.24023,-0.0996 H 152 A 1.6420142,1.6420142 0 0 0 153.64258,176.5 v -19.6543 l 9.05859,20.32227 a 1.6420142,1.6420142 0 0 0 1.49805,0.97461 h 14.60156 A 1.6420142,1.6420142 0 0 0 180.44141,176.5 v -50.19922 a 1.64185,1.64185 0 0 0 -1.64063,-1.64258 1.64185,1.64185 0 0 0 -1.64258,1.64258 v 48.55664 h -11.89258 l -11.0664,-24.82617 a 1.6420142,1.6420142 0 0 0 -1.5,-0.97266 H 152 a 1.6420142,1.6420142 0 0 0 -1.64258,1.64063 v 24.1582 h -10.3164 V 122.8418 h 12.36132 l 10.58008,25.58593 a 1.6420142,1.6420142 0 0 0 1.51758,1.01368 h 0.69922 a 1.6420142,1.6420142 0 0 0 1.64258,-1.64063 V 122.8418 h 11.95898 a 1.64185,1.64185 0 0 0 1.64063,-1.64258 1.64185,1.64185 0 0 0 -1.64063,-1.64063 h -13.60156 a 1.6420142,1.6420142 0 0 0 -1.64063,1.64063 v 20.02734 l -8.54101,-20.65429 A 1.6420142,1.6420142 0 0 0 153.5,119.55859 Z"
               id="path838" />
            <path
               style="color:#000000;fill:#ffce00;stroke-linecap:round;stroke-linejoin:round;stroke-miterlimit:10;-inkscape-stroke:none"
               d="m 185,119.75781 a 1.64185,1.64185 0 0 0 -1.64258,1.64258 1.64185,1.64185 0 0 0 0.0215,0.0488 1.64185,1.64185 0 0 0 -0.0215,0.0508 v 55.40039 A 1.6420142,1.6420142 0 0 0 185,178.54102 h 30 a 1.6420142,1.6420142 0 0 0 1.63867,-1.53711 l 0.80078,-12.59961 a 1.6420142,1.6420142 0 0 0 -1.63867,-1.7461 H 201.8418 v -5.91601 H 213 a 1.6420142,1.6420142 0 0 0 1.64258,-1.64258 V 143.30078 A 1.6420142,1.6420142 0 0 0 213,141.6582 h -11.05859 v -4.91601 H 215 a 1.6420142,1.6420142 0 0 0 1.63867,-1.53125 l 0.59961,-8.79883 a 1.64185,1.64185 0 0 0 -1.52734,-1.75 1.64185,1.64185 0 0 0 -1.74805,1.52539 l -0.49609,7.27148 h -13.16602 a 1.6420142,1.6420142 0 0 0 -1.64258,1.64063 v 8.20117 a 1.6420142,1.6420142 0 0 0 1.64258,1.64063 h 11.05664 v 8.51757 h -11.1582 a 1.6420142,1.6420142 0 0 0 -1.64063,1.64063 v 9.20117 a 1.6420142,1.6420142 0 0 0 1.64063,1.64063 h 13.85156 l -0.5918,9.3164 h -26.8164 v -52.21679 h 29.1582 a 1.64185,1.64185 0 0 0 1.64063,-1.64063 1.64185,1.64185 0 0 0 -1.64063,-1.64258 z"
               id="path840" />
            <path
               style="color:#000000;fill:#ffce00;stroke-linecap:round;stroke-linejoin:round;stroke-miterlimit:10;-inkscape-stroke:none"
               d="m 237.59961,118.55859 c -5.83832,0 -10.4707,1.89063 -13.96094,5.38086 a 1.6420142,1.6420142 0 0 0 -0.0371,0.0371 c -3.29104,3.51045 -5.04297,8.19952 -5.04297,13.92383 0,3.62535 0.76224,6.75341 2.32227,9.42773 1.4943,2.56166 3.26418,4.57108 5.39258,6.02735 a 1.6420142,1.6420142 0 0 0 0.0508,0.0332 c 1.93482,1.22199 3.87063,2.34227 5.81055,3.36328 a 1.6420142,1.6420142 0 0 0 0.1289,0.0606 c 1.78711,0.75247 3.26254,1.58752 4.55469,2.50781 1.00764,0.78304 1.24023,1.38068 1.24023,1.87891 0,0.7766 -0.16291,1.0326 -0.39453,1.23242 -0.23161,0.19982 -0.75448,0.42578 -1.76367,0.42578 -1.87174,0 -6.13012,-0.82623 -11.80664,-2.40039 a 1.64185,1.64185 0 0 0 -1.07227,-0.59375 1.64185,1.64185 0 0 0 -1.47265,0.94727 1.64185,1.64185 0 0 0 -0.42774,0.53906 1.64185,1.64185 0 0 0 0.0879,0.75976 l -0.94531,12.66797 a 1.6420142,1.6420142 0 0 0 1.12695,1.6836 c 5.38041,1.75897 11.05224,2.58008 16.8086,2.58008 5.89318,0 10.62545,-1.64303 14.0625,-5.08008 a 1.6420142,1.6420142 0 0 0 0.0195,-0.0195 c 3.24782,-3.35981 4.96094,-8.23495 4.96094,-14.24219 0,-3.34716 -0.7742,-6.37016 -2.32422,-9.02735 a 1.6420142,1.6420142 0 0 0 -0.0156,-0.0254 c -1.48006,-2.43153 -3.21422,-4.52352 -5.375,-6.00195 a 1.6420142,1.6420142 0 0 0 -0.0508,-0.0332 c -1.93481,-1.22199 -3.87258,-2.34227 -5.8125,-3.36328 a 1.6420142,1.6420142 0 0 0 -0.0605,-0.0312 c -1.83958,-0.87138 -3.39638,-1.74715 -4.78907,-2.54297 -1.14413,-0.65379 -1.27343,-1.23197 -1.27343,-1.07422 0,-0.79308 0.16186,-1.03578 0.46289,-1.27344 0.30102,-0.23765 0.96867,-0.48437 2.0957,-0.48437 1.85173,0 5.86328,0.66674 11.7207,2.05664 a 1.6420142,1.6420142 0 0 0 2.00196,-1.35157 l 1.40039,-9.19921 a 1.64185,1.64185 0 0 0 -1.375,-1.8711 1.64185,1.64185 0 0 0 -1.8711,1.37696 l -1.13867,7.47851 c -4.85999,-1.10763 -8.48519,-1.77344 -10.73828,-1.77344 -1.57297,0 -3.00494,0.30211 -4.12891,1.18946 -1.12397,0.88734 -1.71289,2.34464 -1.71289,3.85156 0,1.75774 1.27188,2.97957 2.92774,3.92578 1.40731,0.80418 3.05129,1.72958 5.01172,2.6582 l -0.0625,-0.0312 c 1.84898,0.97315 3.70066,2.047 5.55468,3.2168 1.62782,1.1184 3.08397,2.81462 4.39649,4.9668 1.24703,2.14084 1.87304,4.5138 1.87304,7.36328 0,5.38673 -1.48429,9.30911 -4.03125,11.94922 -2.76168,2.75559 -6.4287,4.10937 -11.72851,4.10937 -5.01065,0 -9.89441,-0.74237 -14.5586,-2.12695 l 0.72461,-9.7168 c 5.11317,1.38347 9.08938,2.22852 11.53516,2.22852 1.4908,0 2.86677,-0.32444 3.91016,-1.22461 1.04338,-0.90018 1.53125,-2.29536 1.53125,-3.71875 0,-1.69704 -0.97333,-3.29409 -2.54102,-4.5 a 1.6420142,1.6420142 0 0 0 -0.0469,-0.0352 c -1.50231,-1.07307 -3.21474,-2.03398 -5.2168,-2.87695 l 0.12695,0.0605 c -1.84724,-0.97223 -3.69655,-2.04634 -5.54883,-3.21485 -1.66592,-1.14306 -3.09423,-2.72851 -4.39648,-4.96094 -1.23997,-2.12566 -1.87695,-4.59683 -1.87695,-7.77148 0,-5.06303 1.44274,-8.76785 4.13867,-11.6543 2.90644,-2.8979 6.46819,-4.40429 11.61914,-4.40429 5.29865,0 10.79401,0.49012 16.2832,1.56836 a 1.64185,1.64185 0 0 0 1.92774,-1.29297 1.64185,1.64185 0 0 0 -1.29493,-1.92774 c -5.71079,-1.12176 -11.41467,-1.63086 -16.91601,-1.63086 z"
               id="path842" />
          </g>
          <path
             style="color:#000000;fill:#ffce00;stroke-linecap:round;stroke-linejoin:round;stroke-miterlimit:10;-inkscape-stroke:none"
             d="m 151.39648,69.537109 a 1.64185,1.64185 0 0 0 -0.95703,0.814453 c -2.1222,4.138291 -3.18164,8.705987 -3.18164,13.449219 0,16.788029 13.65338,30.441409 30.44141,30.441409 16.69365,0 30.3418,-13.65338 30.3418,-30.441409 0,-3.782424 -0.62872,-7.494415 -2.01954,-10.917969 a 1.64185,1.64185 0 0 0 -2.13867,-0.904296 1.64185,1.64185 0 0 0 -0.90429,2.138671 c 1.20917,2.976441 1.77929,6.266025 1.77929,9.683594 0,15.011941 -12.15227,27.158199 -27.05859,27.158199 -15.01194,0 -27.1582,-12.146258 -27.1582,-27.158199 0,-4.256758 0.94251,-8.28947 2.82031,-11.951172 a 1.64185,1.64185 0 0 0 -0.71289,-2.210937 1.64185,1.64185 0 0 0 -1.25196,-0.101563 z"
             id="path846" />
          <path
             style="color:#000000;fill:#e4332f;stroke-linecap:round;stroke-linejoin:round;stroke-miterlimit:10;-inkscape-stroke:none"
             d="m 173.19922,47.158203 c -2.83377,0 -4.68279,1.764823 -5.42383,3.345703 -0.15481,0.330267 -0.17035,0.583162 -0.26562,0.894531 -0.46839,-0.153547 -0.8694,-0.329841 -1.44141,-0.419921 -0.97495,-0.153535 -2.111,-0.17321 -3.26367,0.226562 -1.15268,0.399773 -2.27488,1.267529 -3.02735,2.576172 -1.39794,2.431208 -1.10702,4.803536 -0.35742,6.302734 0.7496,1.499198 1.9082,2.337891 1.9082,2.337891 a 1.64185,1.64185 0 0 0 2.29493,-0.349609 1.64185,1.64185 0 0 0 -0.34961,-2.294922 c 0,0 -0.54257,-0.41131 -0.91797,-1.16211 -0.3754,-0.750799 -0.63448,-1.628478 0.26758,-3.197265 0.39753,-0.691355 0.78861,-0.948601 1.25781,-1.111328 0.4692,-0.162727 1.06323,-0.180449 1.67578,-0.08398 1.2251,0.19293 2.32227,0.798828 2.32227,0.798828 a 1.6420142,1.6420142 0 0 0 2.46289,-1.421875 c 0,0 0.0242,-0.884007 0.4082,-1.703125 0.38396,-0.819117 0.78299,-1.455078 2.44922,-1.455078 1.59326,0 2.50423,0.877031 3.2168,1.960938 0.71256,1.083906 0.98828,2.18164 0.98828,2.18164 a 1.64185,1.64185 0 0 0 1.98047,1.212891 1.64185,1.64185 0 0 0 1.21093,-1.980469 c 0,0 -0.37311,-1.602659 -1.43554,-3.21875 -1.06243,-1.616091 -3.0542,-3.439453 -5.96094,-3.439453 z"
             id="path848" />
          <path
             style="color:#000000;fill:#ffffff;stroke-linecap:round;stroke-linejoin:round;stroke-miterlimit:10;-inkscape-stroke:none"
             d="m 178.97461,57.708984 c -2.10403,-0.206237 -4.29553,0.06704 -6.45703,0.59375 -5.24533,1.256693 -9.20773,4.626735 -11.11719,9.400391 -1.90946,4.773656 -1.84651,10.83619 0.33594,17.695312 a 1.6420142,1.6420142 0 0 0 0.004,0.01367 c 2.06199,6.279669 1.32972,12.694298 0.73438,16.960941 a 1.64185,1.64185 0 0 0 1.39844,1.85351 1.64185,1.64185 0 0 0 1.85351,-1.40039 c 0.60466,-4.33335 1.47083,-11.31718 -0.86719,-18.437498 l 0.006,0.01367 c -2.01754,-6.340864 -1.95655,-11.629133 -0.41601,-15.480469 1.54053,-3.851336 4.47932,-6.382476 8.83398,-7.425781 a 1.6420142,1.6420142 0 0 0 0.006,-0.002 c 3.84462,-0.937713 6.96932,-0.888842 9.54492,1.070312 0.0532,0.05226 0.93936,0.91552 1.32422,1.621094 a 1.64185,1.64185 0 0 0 2.22852,0.65625 1.64185,1.64185 0 0 0 0.6543,-2.228516 c -0.80365,-1.473348 -2.03711,-2.527344 -2.03711,-2.527344 a 1.6420142,1.6420142 0 0 0 -0.0996,-0.08398 c -1.80678,-1.398794 -3.82371,-2.08654 -5.92969,-2.292969 z"
             id="path850" />
          <path
             style="color:#000000;fill:#ffffff;stroke-linecap:round;stroke-linejoin:round;stroke-miterlimit:10;-inkscape-stroke:none"
             d="m 188.85547,75.796875 a 1.64185,1.64185 0 0 0 -1.95899,1.246094 c -0.42374,1.906848 -0.52834,3.658045 0.28321,8.527343 a 1.6420142,1.6420142 0 0 0 0.0137,0.06445 c 1.11756,5.364301 4.86294,10.483591 7.625,12.90039 a 1.64185,1.64185 0 0 0 2.31641,-0.154297 1.64185,1.64185 0 0 0 -0.1543,-2.316406 c -2.03521,-1.780806 -5.67774,-6.849767 -6.56641,-11.082031 -0.77596,-4.66968 -0.68495,-5.541725 -0.31054,-7.226563 a 1.64185,1.64185 0 0 0 -1.24805,-1.958984 z"
             id="path852" />
          <path
             style="color:#000000;fill:#e4332f;stroke-linecap:round;stroke-linejoin:round;stroke-miterlimit:10;-inkscape-stroke:none"
             d="m 194.38672,77.060547 a 1.64185,1.64185 0 0 0 -1.72656,1.552734 c 0,0 -0.0332,0.596128 0.0449,1.314453 0.0781,0.718325 0.15929,1.638806 0.95898,2.552735 l -0.14844,-0.199219 c 0.43881,0.689552 0.37086,0.825973 0.35352,1.070312 a 1.64185,1.64185 0 0 0 -1.91016,0.5625 1.64185,1.64185 0 0 0 0.6543,2.226563 c 0.95089,0.518668 2.105,0.528766 2.93945,0.125 0.83445,-0.403766 1.386,-1.077552 1.625,-1.914063 a 1.6420142,1.6420142 0 0 0 0.0469,-0.21875 c 0.14334,-1.003397 -0.1081,-2.308818 -0.93945,-3.615234 a 1.6420142,1.6420142 0 0 0 -0.15039,-0.199219 c 0.0997,0.11393 -0.11715,-0.31442 -0.16407,-0.746093 -0.0469,-0.431674 -0.0312,-0.785157 -0.0312,-0.785157 a 1.64185,1.64185 0 0 0 -1.55273,-1.726562 z"
             id="path854" />
          <path
             style="color:#000000;fill:#ffce00;stroke-linecap:round;stroke-linejoin:round;stroke-miterlimit:10;-inkscape-stroke:none"
             d="m 172.08594,68.611328 a 1.64185,1.64185 0 0 0 -1.00196,0.757813 1.64185,1.64185 0 0 0 0.58594,2.246093 l 7.5,4.400391 a 1.64185,1.64185 0 0 0 2.2461,-0.583984 1.64185,1.64185 0 0 0 -0.58594,-2.248047 l -7.5,-4.400391 a 1.64185,1.64185 0 0 0 -1.24414,-0.171875 z"
             id="line856" />
          <path
             style="color:#000000;fill:#ffce00;stroke-linecap:round;stroke-linejoin:round;stroke-miterlimit:10;-inkscape-stroke:none"
             d="m 177.9707,67.015625 a 1.64185,1.64185 0 0 0 -0.99414,0.767578 l -4.30078,7.5 a 1.64185,1.64185 0 0 0 0.60742,2.240234 1.64185,1.64185 0 0 0 2.24024,-0.607421 l 4.30078,-7.5 a 1.64185,1.64185 0 0 0 -0.60742,-2.240235 1.64185,1.64185 0 0 0 -1.2461,-0.160156 z"
             id="line858" />
          <path
             style="color:#000000;fill:#e4332f;stroke-linecap:round;stroke-linejoin:round;stroke-miterlimit:10;-inkscape-stroke:none"
             d="m 155.12109,58.955078 c -0.79367,0.427364 -1.67619,1.036366 -2.32031,2.021484 -0.64411,0.985119 -0.93824,2.37424 -0.59766,3.804688 a 1.6420142,1.6420142 0 0 0 0.01,0.03906 c 0.57623,2.176881 2.10141,3.444505 3.38672,3.9375 1.28531,0.492996 2.45312,0.376954 2.45312,0.376954 a 1.64185,1.64185 0 0 0 1.48243,-1.78711 1.64185,1.64185 0 0 0 -1.78907,-1.482422 c 0,0 -0.43101,0.03318 -0.9707,-0.173828 -0.53456,-0.205038 -1.0525,-0.493616 -1.37695,-1.6875 -0.15088,-0.651122 -0.0529,-0.919538 0.15039,-1.230469 0.20588,-0.31488 0.62258,-0.655098 1.1289,-0.927734 a 1.64185,1.64185 0 0 0 0.66797,-2.224609 1.64185,1.64185 0 0 0 -2.22461,-0.666016 z"
             id="path860" />
          <path
             style="color:#000000;fill:#ffce00;stroke-linecap:round;stroke-linejoin:round;stroke-miterlimit:10;-inkscape-stroke:none"
             d="m 191.34766,60.34375 c -3.65122,0.597098 -6.4043,2.722656 -6.4043,2.722656 a 1.64185,1.64185 0 0 0 -0.37695,2.291016 1.64185,1.64185 0 0 0 2.29101,0.376953 c 0,0 2.32738,-1.505245 4.9082,-2.039063 l -2.2246,3.283204 a 1.64185,1.64185 0 0 0 0.4375,2.28125 1.64185,1.64185 0 0 0 2.28125,-0.4375 l 4,-5.900391 a 1.6420142,1.6420142 0 0 0 -1.03125,-2.53125 c -1.34802,-0.275731 -2.66379,-0.245908 -3.88086,-0.04687 z"
             id="path862" />
          <path
             style="color:#000000;fill:#ffce00;stroke-linecap:round;stroke-linejoin:round;stroke-miterlimit:10;-inkscape-stroke:none"
             d="m 191.70117,71.886719 a 1.64185,1.64185 0 0 0 -1.91601,1.3125 1.64185,1.64185 0 0 0 1.31445,1.914062 l 7.5,1.400391 a 1.64185,1.64185 0 0 0 1.91406,-1.3125 1.64185,1.64185 0 0 0 -1.3125,-1.916016 z"
             id="line864" />
          <path
             style="color:#000000;fill:#e4332f;stroke-linecap:round;stroke-linejoin:round;stroke-miterlimit:10;-inkscape-stroke:none"
             d="m 205.76953,66.263672 c -1.6533,0.132264 -3.15132,0.801263 -4.3125,1.402344 -1.16118,0.601081 -1.99805,1.189453 -1.99805,1.189453 a 1.64185,1.64185 0 0 0 -0.40429,2.285156 1.64185,1.64185 0 0 0 2.28711,0.404297 c 0,0 0.66118,-0.46202 1.625,-0.960938 0.96382,-0.498918 2.21775,-0.979139 3.06445,-1.046875 a 1.64185,1.64185 0 0 0 1.50586,-1.767578 1.64185,1.64185 0 0 0 -1.76758,-1.505859 z"
             id="path866" />
          <path
             style="color:#000000;fill:#ffce00;stroke-linecap:round;stroke-linejoin:round;stroke-miterlimit:10;-inkscape-stroke:none"
             d="M 210.80078,55.357422 A 1.64185,1.64185 0 0 0 209.1582,57 a 1.64185,1.64185 0 0 0 1.64258,1.642578 h 31.5 A 1.64185,1.64185 0 0 0 243.94141,57 1.64185,1.64185 0 0 0 242.30078,55.357422 Z"
             id="line868" />
          <path
             style="color:#000000;fill:#e4332f;stroke-linecap:round;stroke-linejoin:round;stroke-miterlimit:10;-inkscape-stroke:none"
             d="m 263.28906,13.632813 a 1.6420142,1.6420142 0 0 0 -1.76953,0.539062 c -6.41744,7.997116 -6.65229,7.081215 -11.21875,10.826172 -5.4e-4,4.14e-4 -0.001,-4.15e-4 -0.002,0 -2.22074,1.705038 -4.101,2.716051 -5.79102,3.605469 0.34501,-0.675494 0.4244,-0.773664 0.75586,-1.460938 1.62061,-3.13558 1.47852,-6.291661 1.47852,-8.642578 a 1.6420142,1.6420142 0 0 0 -3.08594,-0.783203 c -2.75539,5.075717 -5.08275,7.267215 -7.40039,8.800781 -2.31593,1.532428 -4.83602,2.412846 -7.65039,4.576172 -0.002,0.0016 -0.004,0.0023 -0.006,0.0039 -5.27162,3.955771 -7.45978,6.40486 -8.61524,8.369141 l 0.0391,-0.06055 c -0.089,0.137143 -0.0586,0.07474 -0.13867,0.197266 -0.0304,-0.667798 -0.0859,-1.378907 -0.0859,-1.378907 l 0.0391,0.478516 c 0.22099,-3.535803 -0.65234,-6.726563 -0.65234,-6.726563 a 1.6420142,1.6420142 0 0 0 -3.14844,-0.07617 c -0.80484,2.515128 -1.33344,4.321183 -4.10547,9.865234 -2.07854,4.057313 -3.25043,6.008088 -6.64844,11.804687 a 1.6420142,1.6420142 0 0 0 -0.0566,0.103516 c -3.12633,6.347395 -8.55469,11.533203 -8.55469,11.533203 a 1.64185,1.64185 0 0 0 -0.0645,2.322266 1.64185,1.64185 0 0 0 2.32031,0.0625 c 0,0 5.77243,-5.414206 9.2461,-12.466797 l -0.0566,0.105469 c 3.39803,-5.796652 4.62721,-7.849371 6.74414,-11.982422 a 1.6420142,1.6420142 0 0 0 0.008,-0.01367 c 0.84825,-1.696494 1.22427,-2.63779 1.74609,-3.8125 0.0127,0.131247 0.0302,0.07167 0.0176,0.587891 -0.0221,0.907247 -0.15743,2.43654 -0.64062,4.755859 a 1.6420142,1.6420142 0 0 0 2.86523,1.390625 c 1.01071,-1.203218 1.26259,-1.372233 1.74414,-1.900391 0.48156,-0.528157 0.96399,-1.194324 2.17578,-3.0625 a 1.6420142,1.6420142 0 0 0 0.0371,-0.06055 c 0.84307,-1.433214 2.65771,-3.584589 7.77149,-7.419921 a 1.6420142,1.6420142 0 0 0 0.0156,-0.01172 c 2.38311,-1.833156 4.75945,-2.653882 7.4668,-4.445313 1.42278,-0.941439 2.88176,-2.225329 4.36914,-3.947265 -0.0507,0.109192 -0.0395,0.227549 -0.0957,0.335937 a 1.6420142,1.6420142 0 0 0 -0.0215,0.04297 c -1.27038,2.638497 -2.95898,5.722656 -2.95898,5.722656 a 1.6420142,1.6420142 0 0 0 1.94922,2.351563 c 0,0 5.17934,-1.69822 10.99023,-6.160157 a 1.6420142,1.6420142 0 0 0 0.041,-0.0332 c 3.08431,-2.535986 4.99162,-4.025185 7.79297,-6.982422 -0.66115,1.912384 -1.62222,3.988447 -2.9668,5.853516 a 1.6420142,1.6420142 0 0 0 -0.0234,0.03516 c -4.30328,6.304811 -3.53168,5.246753 -5.92187,8.931641 a 1.6420142,1.6420142 0 0 0 1.78515,2.484375 c 0,0 4.49751,-1.169992 9.20117,-4.373047 -0.48422,0.898869 -0.86569,1.765427 -1.39453,2.599609 -7.8e-4,0.0012 -0.001,0.0027 -0.002,0.0039 -2.49084,3.856476 -4.28884,5.886838 -5.8418,7.52539 -1.54841,1.633761 -2.94092,2.951732 -4.33984,5.150391 -1.56414,2.303293 -2.01563,3.771484 -2.01563,3.771484 a 1.64185,1.64185 0 0 0 1.15235,2.015625 1.64185,1.64185 0 0 0 2.01562,-1.152343 c 0,0 0.16032,-0.732922 1.57422,-2.806641 a 1.6420142,1.6420142 0 0 0 0.0293,-0.04492 c 1.19517,-1.884694 2.34669,-2.96638 3.9668,-4.675781 1.6201,-1.709401 3.62224,-3.979538 6.22656,-8.013672 a 1.6420142,1.6420142 0 0 0 0.006,-0.01172 c 2.72484,-4.29687 4.93359,-9.759765 4.93359,-9.759765 a 1.6420142,1.6420142 0 0 0 -2.79297,-1.654297 c 0,0 -1.06475,1.356684 -5.25781,4.283203 -1.27742,0.879998 -2.31307,1.29029 -3.44727,1.851562 0.62133,-0.947646 0.77471,-1.257225 2.81055,-4.240234 3.32301,-4.609334 4.85436,-9.79095 4.60547,-13.275391 a 1.6420142,1.6420142 0 0 0 -1.14844,-1.451171 z"
             id="path870" />
        </g>
      </g>
    </g>
  </g>
  <style
     type="text/css"
     id="style824">
	.st0{fill:none;stroke:#FFCE00;stroke-width:3.2837;stroke-linecap:round;stroke-linejoin:round;stroke-miterlimit:10;}
	.st1{fill:none;stroke:#E4332F;stroke-width:3.2837;stroke-linecap:round;stroke-linejoin:round;stroke-miterlimit:10;}
	.st2{fill:none;stroke:#FFFFFF;stroke-width:3.2837;stroke-linecap:round;stroke-linejoin:round;stroke-miterlimit:10;}
</style>
</svg>
