<?xml version="1.0" encoding="UTF-8" standalone="no"?><svg viewBox="0 0 418.07285 173.85094" version="1.1" xml:space="preserve" width="418.07285" height="173.85094" xmlns="http://www.w3.org/2000/svg" xmlns:svg="http://www.w3.org/2000/svg"><path d="M207.76056.00235754c-.00002 36.53171846-.08488 73.06489446.01993 109.61739246-.12578 13.5512 11.46925 22.48742 18.86957 32.48455 63.81492-.20784 127.62885-.10223 191.42279-.03988-.25156-47.346059.1051-94.692075-.16743-142.03814156-70.06227.1247042-140.08262.1631355-210.14486-.0239209ZM304.23741 35.421192v22.05106l-21.62844.083722v51.661106h-29.93698V57.512118h-22.05504l-.08373-22.007199v-.023923Zm6.89722.039869 26.39667.019935 14.34852 52.936887h2.13694l14.35253-52.936887 26.56412.023923v15.22962l-19.59518 58.422741h-44.82772l-19.37588-57.976219Z" fill="#ff4b44"/><path d="M51.83671.06144504c15.27047-.0783097 30.56048-.0783097 45.83093-.0195936C78.14888 27.939797 58.63011 55.857329 39.2288 83.833585c12.49044-.039169 25.00047-.195788 37.49093.137044C96.25806 56.013939 115.7181 27.998551 135.23688.04185144c16.7975-.0587161 33.57542-.0195751 50.37291-.0391409C153.22859 46.22519 121.08234 92.623874 88.64241 138.84636c14.60482.1762 29.19006-.0783 43.77532.15664-22.69035 11.64861-45.3415 23.45383-68.18846 34.84794-5.83409-7.831-12.47087-15.13341-17.60017-23.49301-4.67903-7.59607-3.52396-17.56101 1.35084-24.76553 9.04481-13.9196 19.06848-27.193174 28.26992-41.034462C56.57447 94.15092 37.3102 104.58573 17.71313 114.31577c-4.63986-7.0675-10.66974-13.11695-14.95721-20.419363-4.63987-7.71354-3.03450996-17.776369 1.93817-24.922163C20.35609 45.990261 36.33133 23.182472 51.83671.06144504Z" fill="#ff4b44"/></svg>