<?xml version="1.0" encoding="UTF-8" standalone="no"?><!--Generator: Adobe Illustrator 23.0.1, SVG Export Plug-In . SVG Version: 6.00 Build 0)--><svg xmlns="http://www.w3.org/2000/svg" xml:space="preserve" x="0" y="0" version="1.1" viewBox="0 0 3586.5537 500"><defs><linearGradient id="a" x1="361.97241" x2="361.97241" y1="275.19421" y2="-167.3197" gradientTransform="matrix(1.0016877 0 0 -1 0 304)" gradientUnits="userSpaceOnUse"><stop offset="0" stop-color="#002a91"/><stop offset=".8" stop-color="#002672"/></linearGradient><linearGradient id="b" x1="365.5015" x2="359.65079" y1="40.698799" y2="208.2287" gradientTransform="matrix(1.0016877 0 0 -1 0 304)" gradientUnits="userSpaceOnUse"><stop offset="0" stop-color="#fff"/><stop offset=".1203" stop-color="#fff" stop-opacity=".8347"/><stop offset=".2693" stop-color="#fff" stop-opacity=".6576"/><stop offset=".4195" stop-color="#fff" stop-opacity=".5107"/><stop offset=".5684" stop-color="#fff" stop-opacity=".3965"/><stop offset=".7156" stop-color="#fff" stop-opacity=".3152"/><stop offset=".8603" stop-color="#fff" stop-opacity=".2664"/><stop offset="1" stop-color="#fff" stop-opacity=".25"/></linearGradient><linearGradient id="c" x1="1832.0896" x2="1832.0896" y1="22.230801" y2="41.461498" gradientTransform="matrix(79.787815 0 0 26 -144610.85 -578)" gradientUnits="userSpaceOnUse"><stop offset=".4" stop-color="red"/><stop offset="1" stop-color="#d42321"/></linearGradient><linearGradient id="d" x1="1568.9945" x2="1560.2958" y1="74.039398" y2="323.14291" gradientTransform="matrix(.99986865 0 0 -1 1.45339 304)" gradientUnits="userSpaceOnUse"><stop offset="0" stop-color="#fff"/><stop offset=".1203" stop-color="#fff" stop-opacity=".8347"/><stop offset=".2693" stop-color="#fff" stop-opacity=".6576"/><stop offset=".4195" stop-color="#fff" stop-opacity=".5107"/><stop offset=".5684" stop-color="#fff" stop-opacity=".3965"/><stop offset=".7156" stop-color="#fff" stop-opacity=".3152"/><stop offset=".8603" stop-color="#fff" stop-opacity=".2664"/><stop offset="1" stop-color="#fff" stop-opacity=".25"/></linearGradient></defs><path fill="#002a91" d="M3553.3531 0H2297.9469c-18.4 0-33.3 14.9-33.3 33.3v433.4c0 18.4 14.9 33.3 33.3 33.3h1255.3062c18.4 0 33.3-14.9 33.3-33.3V33.3c.1-18.4-14.8-33.3-33.2-33.3m0 10c12.9 0 23.3 10.5 23.3 23.3v433.4c0 12.8-10.5 23.3-23.3 23.3H2297.9469c-12.9 0-23.3-10.5-23.3-23.3V33.3c0-12.9 10.5-23.3 23.3-23.3h1255.4062"/><path fill="#ffffff" d="M3553.3531 10c12.9 0 23.3 10.5 23.3 23.3v433.4c0 12.8-10.5 23.3-23.3 23.3H2297.9469c-12.9 0-23.3-10.5-23.3-23.3V33.3c0-12.9 10.5-23.3 23.3-23.3h1255.4062"/><path fill="#002a91" d="M2758.8221 264.5h-151.4c4.4 37.8 30.5 59 69.2 59 16.7 0 29.7-3.2 41.9-7.3 8.5-2.8 12.2-4 15.4-4 9.4 0 15.5 7.7 13.9 25.6-17.5 7.7-44.4 16.3-72.4 16.3-61.1 0-102.1-41.1-102.1-102.1 0-58.6 43.5-100.9 96.8-100.9 60.2 0 89.9 46.8 89.9 94 0 5.5-.4 12.4-1.2 19.4m-151.4-26.1h120c-1.2-33.4-22.8-59.4-57.3-59.4-30.1 0-57.4 20.8-62.7 59.4"/><path fill="#002a91" d="M2973.197 233.9v105.4c0 7.7-4.5 12.6-17.9 12.6-5.7 0-12.2-.8-15.5-1.6V238.4c0-39.1-19.1-57.8-48-57.8-22.4 0-46.8 15.5-56.6 33.8v124.9c0 7.7-4.5 12.6-17.9 12.6-5.7 0-12.2-.8-15.5-1.6V154.6c3.2-.8 9.8-1.7 15.5-1.7 13.4 0 17.9 4.9 17.9 12.7v16.6c14.2-17.5 35.8-31.3 64.7-31.3 39.9.1 73.3 25.3 73.3 83"/><path fill="#002a91" d="M3195.9469 233.9v105.4c0 7.7-4.5 12.6-17.9 12.6-5.7 0-12.2-.8-15.5-1.6V238.4c0-39.1-19.1-57.8-48-57.8-22.4 0-46.8 15.5-56.6 33.8v124.9c0 7.7-4.5 12.6-17.9 12.6-5.7 0-12.2-.8-15.5-1.6V154.6c3.2-.8 9.8-1.7 15.5-1.7 13.4 0 17.9 4.9 17.9 12.7v16.6c14.2-17.5 35.8-31.3 64.7-31.3 39.9.1 73.3 25.3 73.3 83"/><path fill="#002a91" d="M3241.8466 110.3c0-12.2 9.8-21.1 21.2-21.1 12.2 0 21.6 8.9 21.6 21.1 0 11-9.4 21.1-21.6 21.1-11.4 0-21.2-10.2-21.2-21.1m4.5 240V165.6c0-7.7 4.5-12.6 17.9-12.6 5.7 0 11.8.8 15.1 1.6v184.7c0 8.2-4.1 12.6-17.5 12.6-5.7 0-12.3-.8-15.5-1.6"/><path fill="#002a91" d="M3321.5469 340.5c-2.5-17.1 2.9-26 12.6-26 9.4 0 32.1 10.2 63.8 10.2 33.4 0 46-11.8 46-27.3 0-11-4.9-20.8-35-28.9l-34.6-9.4c-38.3-10.2-53.3-29.3-53.3-52.9 0-29.3 23.2-55.3 75.7-55.3 23.6 0 52.9 5.3 70.8 12.2 3.2 16.7-2 25.6-12.2 25.6-9 0-29.3-8.5-58.2-8.5-30.9 0-42.3 10.6-42.3 24.4 0 9.8 4.5 18.7 32.2 26.4l35.4 9.8c39.4 11 55.3 29.3 55.3 55.3 0 30.5-23.6 57.8-80.6 57.8-25.1.1-56.5-6-75.6-13.4"/><path fill="#002a91" d="M2558.998 340.5c-17.1 8.2-36.6 13.4-56.1 13.4-38.7 0-61.8-22.8-61.8-60.6v-168c0-8.5 4.9-14.2 17.9-14.2 5.7 0 12.2 1.3 15.5 2v42.3h76.1c.4 2.8 1.2 8.5 1.2 13.4 0 11.8-4.9 15.9-12.2 15.9h-65.1v106.2c0 22.8 10.6 33.8 32.1 33.8 19.5 0 30.5-8.6 39.9-8.6 9.6 0 14.5 8.2 12.5 24.4"/><path fill="url(#a)" d="M500.54334 464.2c10.51772 4.6 21.8368 7.1 33.25604 7.1 26.14404.6 40.46818-9.4 50.9859-32.8l140.33645-312c-9.11536-4.1-19.03207-6.4-29.04895-6.7-18.13054-.4-42.37139 3.3-57.69721 40.1l-45.37645 106.9-89.15021-144.6c-9.81654-2.6-19.93358-4-30.05063-4.2-31.55316 0-49.0827 11.5-67.31341 31.3l-86.64599 94.4 69.6173 109.4c12.92177 19.9 29.85029 30.1 57.3967 30.1 13.72312.2 27.34608-2.3 40.06751-7.5l-83.94143-126 59.50025-62.9 97.56438 152.7ZM316.53331 346.3c0 23-9.01519 36.2-54.09113 36.2-5.40912 0-10.81823-.4-16.12717-1.1V76.2c0-23.2 7.91333-47.4 53.28978-47.4 5.70962 0 11.41924.6 16.92852 1.7Zm-93.05678-46.1c0 43-28.14743 74.2-85.24363 80.4-41.3697 4.4-101.27062-.8-129.71855-4-1.0017-4.9-1.6027-9.9-1.70287-15 0-37.4 20.23409-46 39.26615-46 19.83342 0 50.9859 3.5 74.12489 3.5 25.54304 0 33.25604-8.6 33.25604-16.9 0-10.7-10.21722-15.2-30.05064-19l-54.29147-10.4C24.0405 264.2 0 233 0 200c0-40.1 28.44793-73.6 84.44227-79.8 42.37139-4.6 93.95831.6 122.2059 4 1.00169 4.7 1.50253 9.5 1.50253 14.4 0 37.4-19.83341 45.5-38.86548 45.5-14.62464 0-37.36295-2.7-63.30666-2.7-26.34439 0-37.36295 7.3-37.36295 16.1 0 9.4 10.41755 13.2 26.9454 16.1l51.78725 9.6c53.18962 9.7 76.12827 40 76.12827 77Z" style="fill:url(#a);stroke-width:1.00009"/><path fill="url(#b)" d="m725.22189 126.5-51.38657 114.2c-4.00676 8.2-12.32076 13.4-21.43612 13.4l-46.87899 1.6c-5.1086.3-9.6162 3.7-11.41924 8.5v-.1l44.2746-104.2c15.42599-36.8 39.66683-40.5 57.69721-40.1 10.11705.3 19.93359 2.6 29.14911 6.7ZM590.59507 263.1l-86.74616-140.9c-9.81654-2.6-19.93358-4-30.05063-4.2-31.55316 0-49.0827 11.5-67.31341 31.3l-86.64599 94.4 6.91165 10.9c4.50759 6.8 12.32076 10.7 20.5346 10.3 4.10692-.1 45.97746-1.6 49.3832-1.7 8.51434-.7 16.72818 3 21.83679 9.8l-15.52616-23.3 59.50025-62.9 39.96734 62.5c4.90827 6.2 12.5211 9.7 20.43443 9.5 2.10354-.1 54.39164-1.9 56.79569-2 4.40743.1 8.61452 2.5 10.9184 6.3ZM299.60479 28.9c-45.37645 0-53.28978 24.2-53.28978 47.4v209c0-9.6 7.71299-17.4 17.32919-17.7l35.15924-1.2c9.81654 0 17.83004-8 17.83004-17.8v-218c-5.70962-1.2-11.31907-1.8-17.02869-1.7ZM147.44843 223.1l-51.78726-9.6c-16.52784-2.9-26.9454-6.7-26.9454-16.1 0-8.8 11.01857-16.1 37.36296-16.1 25.94371 0 48.68202 2.7 63.30666 2.7 19.03207 0 38.86548-8.1 38.86548-45.5 0-4.8-.50084-9.7-1.50253-14.4-28.24759-3.5-79.83451-8.6-122.2059-4C28.44794 126.3 0 159.9 0 199.9c.10017 21.4 10.21721 41.6 27.34607 54.5 12.62127 7.8 26.84523 12.9 41.57004 14.8 19.2324 2.6 38.56498 3.6 57.89755 3 6.1103-.2 51.78726-1.8 61.80413-2.2 23.13899-.8 35.76025 18.9 34.45806 38.7 0-.3 0-.5.10017-.8v-.2c.20034-2.6.30051-5.2.30051-7.8 0-36.7-22.93865-67-76.0281-76.8Z" opacity=".25" style="fill:url(#b);stroke-width:1.00009"/><path fill="url(#c)" d="M2301.2509 0H833.64407c-18.29761 0-33.29562 15-33.29562 33.3v433.4c0 18.3 14.99801 33.3 33.29562 33.3H2301.6516c18.2972 0 33.2953-15 33.2953-33.3V33.3c-.3999-18.3-15.398-33.3-33.696-33.3Z" style="fill:url(#c);stroke-width:1.00009"/><path fill="url(#d)" d="M824.34528 248s1.09988-.1 3.19957-.2c98.58707-3.5 1482.40545-51.7 1482.40545-51.7 13.8979-.1 24.9966-11.5 24.8964-25.3V33.3c0-18.4-14.8979-33.3-33.2953-33.3H833.64407c-18.39758 0-33.29562 14.9-33.29562 33.3V274c-.39995-13.6 10.29863-25.3 23.99683-26Z" opacity=".4" style="fill:url(#d);stroke-width:1.00009"/><path fill="#ffffff" d="M895.10168 359.31667c-2.90421-20.4 3.30482-31.2 15.42245-31.2 11.21632 0 38.85655 12.1 77.21239 12.1 40.45878 0 55.48068-14.2 55.48068-32.9 0-13.3-5.8085-25-42.1613-35l-41.76077-11.2c-46.26735-12.1-64.29358-35.4-64.29358-63.8 0-35.4 27.94065-66.7 91.33292-66.7 28.34123 0 63.89263 6.2 85.52443 14.6 3.8054 20-2.5037 30.8-14.6214 30.8-10.8156 0-35.4515-10.4-70.10187-10.4-37.55465 0-51.27462 12.9-51.27462 29.6 0 11.7 5.40788 22.5 38.85656 32.1l42.56193 11.7c47.5692 13.3 66.7971 35.4 66.7971 66.7 0 36.7-28.3413 69.6-97.24139 69.6-30.84489.2-68.80015-7.3-91.73353-16Z" style="stroke-width:1.00009"/><path fill="#ffffff" d="M1368.1043 253.01667c0 77.1-54.2391 122.5-113.3818 122.5-35.4255 0-64.2463-16.7-81.7589-40.4v99.1c0 9.2-5.4039 15.4-21.2153 15.4-7.9057 0-15.4112-.8-19.2139-2.1v-312.5c3.8027-.8 11.2081-2.1 19.2139-2.1 15.8114 0 21.2153 5.8 21.2153 15.4v22.5c17.1124-23.8 46.2332-40.4 81.7589-40.4 59.1427 0 113.3818 45.8 113.3818 122.6Zm-40.8295 0c0-51.7-34.2246-87.1-80.458-87.1-31.2225 0-60.4436 18.3-73.8532 44.6v85c13.3096 26.7 42.1303 44.6 73.8532 44.6 46.2334 0 80.458-35.4 80.458-87.1Z" style="stroke-width:1.00009"/><path fill="#ffffff" d="M1406.662 252.81668c0-70.11448 51.8003-122.29968 121.0342-122.29968 69.7351 0 121.4353 52.1852 121.4353 122.29968 0 69.71381-51.8003 122.70032-121.4353 122.70032-69.2339 0-121.0342-52.98651-121.0342-122.70032Zm201.6904 0c0-54.28864-36.2701-87.24244-80.5558-87.24244-43.8851 0-80.1555 32.9538-80.1555 87.24244 0 53.38716 36.2704 87.64308 80.1555 87.64308 44.1854-.40064 80.5558-34.25592 80.5558-87.64308Z" style="stroke-width:1.00009"/><path fill="#ffffff" d="M1844.8046 152.51667c0 16.2-6.6991 19.6-23.7968 19.6-33.7957 0-62.4918 15.8-79.9896 52.5v132.9c0 10-5.3993 15.4-21.6972 15.4-6.6991 0-14.598-.8-18.7974-2.1v-235.8c3.7995-.8 11.6984-2.1 18.7974-2.1 16.1979 0 21.6972 5.8 21.6972 15.4v32.9c22.897-35 57.8924-52.5 101.6866-46.7.5 3.4 2.0998 10.9 2.0998 18Z" style="stroke-width:1.00009"/><path fill="#ffffff" d="M2021.3813 359.20594c-20.3973 10.00684-44.1942 16.21106-67.8911 16.21106-46.6939 0-74.5902-27.51876-74.5902-73.35002V99.32868c0-10.4071 5.7993-17.11168 21.6972-17.11168 6.6991 0 14.5981 1.70116 18.7975 2.5017v51.23496h91.6879c.4 3.30224 1.6998 10.4071 1.6998 16.21106 0 14.20968-5.7992 19.2131-14.5981 19.2131h-78.2897v127.9873c0 27.51878 12.8983 40.82786 38.795 40.82786 23.7968 0 36.6951-10.4071 47.8937-10.4071 11.0985.20014 17.2977 9.80668 14.798 29.42006Z" style="stroke-width:1.00009"/><path fill="#ffffff" d="M2049.2046 359.31667c-2.8996-20.4 3.2996-31.2 15.398-31.2 11.2986 0 38.7949 12.1 77.0899 12.1 40.3947 0 55.3927-14.2 55.3927-32.9 0-13.3-5.7992-25-42.0945-35l-41.6945-11.2c-46.194-12.1-64.1916-35.4-64.1916-63.8 0-35.4 27.8964-66.7 91.288-66.7 28.2963 0 63.6916 6.2 85.3888 14.6 3.7995 20-2.4996 30.8-14.598 30.8-10.7986 0-35.3955-10.4-69.9908-10.4-37.4951 0-51.1933 12.9-51.1933 29.6 0 11.7 5.3992 22.5 38.7949 32.1l42.4944 11.7c47.4938 13.3 66.6912 35.4 66.6912 66.7 0 36.7-28.2962 69.6-97.0872 69.6-30.7959.2-68.7909-7.3-91.688-16Z"/></svg>