<?xml version="1.0" encoding="UTF-8" standalone="no"?><svg version="1.1" x="0" y="0" viewBox="0 0 1407.2 250.10001" xml:space="preserve" xmlns:xlink="http://www.w3.org/1999/xlink" xmlns="http://www.w3.org/2000/svg" xmlns:svg="http://www.w3.org/2000/svg"><defs><linearGradient id="b"><stop offset="0" stop-color="#f29a27"/><stop offset=".5" stop-color="#f4ad25"/><stop offset="1" stop-color="#f6a923"/></linearGradient><linearGradient id="c"><stop offset="0" stop-color="#f2bc27"/><stop offset="1" stop-color="#f69e23"/></linearGradient><linearGradient id="i" x1="216.026" y1="313.495" x2="216.026" y2="182.119" gradientUnits="userSpaceOnUse" gradientTransform="matrix(.4619414 0 0 .46010918 431.72392 40.225457)"><stop stop-color="#b75118" stop-opacity=".75907588" offset="0"/><stop offset=".144" stop-color="#c0611c" stop-opacity=".6419"/><stop offset=".55339998" stop-color="#e1a438" stop-opacity=".47660002"/><stop offset=".84579998" stop-color="#f6d148" stop-opacity=".35850003"/><stop offset=".99080002" stop-color="#fbcb32" stop-opacity=".30000001"/></linearGradient><linearGradient id="j" gradientUnits="userSpaceOnUse" x1="902.81458" y1="-344.08273" x2="898.88348" y2="-216.23422" gradientTransform="matrix(1 0 0 -1 0 -226.1845)"><stop offset="0" stop-color="#fff"/><stop offset=".25" stop-color="#fff" stop-opacity=".73000002"/><stop offset=".51999998" stop-color="#fff" stop-opacity=".44"/><stop offset=".75" stop-color="#fff" stop-opacity=".30000001"/><stop offset="1" stop-color="#fff" stop-opacity=".2"/></linearGradient><linearGradient id="a" gradientUnits="userSpaceOnUse" x1="903.33038" y1="-344.34064" x2="898.88348" y2="-216.23422" gradientTransform="matrix(1 0 0 -1 0 -226.2845)"><stop offset="0" stop-color="#fff"/><stop offset=".17958134" stop-color="#fff" stop-opacity=".73000002"/><stop offset=".45145735" stop-color="#fff" stop-opacity=".44"/><stop offset=".67812586" stop-color="#fff" stop-opacity=".30000001"/><stop offset="1" stop-color="#fff" stop-opacity=".23"/></linearGradient><linearGradient xlink:href="#a" id="d" gradientUnits="userSpaceOnUse" gradientTransform="matrix(1 0 0 -1 0 -226.1845)" x1="187.50011" y1="-358.58463" x2="183.95378" y2="-262.89908"/><linearGradient id="g" x1="105.54769" y1="64.869476" x2="341.75668" y2="113.36259" gradientUnits="userSpaceOnUse" gradientTransform="matrix(.4619414 0 0 .46010918 431.72392 40.225457)"><stop offset=".2066" stop-color="#faa005"/><stop offset=".4014" stop-color="#f6ac2b"/><stop offset=".6663" stop-color="#fccf41"/><stop offset=".87489998" stop-color="#ffe151"/><stop offset="1" stop-color="#FEE55A"/></linearGradient><linearGradient id="h" x1="306.737" y1="334.30499" x2="215.56184" y2="184.21756" gradientUnits="userSpaceOnUse" gradientTransform="matrix(.4619414 0 0 .46010918 431.72392 40.225457)"><stop offset=".4326" stop-color="#B55727"/><stop offset=".48454916" stop-color="#CB8331" stop-opacity=".8833"/><stop offset=".56183988" stop-color="#e6b23c" stop-opacity=".67450982"/><stop offset=".70163488" stop-color="#f8c44c" stop-opacity=".51050001"/><stop offset=".86049998" stop-color="#ffda4f" stop-opacity=".38670003"/><stop offset=".99080002" stop-color="#ffe252" stop-opacity=".2"/></linearGradient><linearGradient xlink:href="#b" id="f" x1="450.06985" y1="55.942303" x2="611.87311" y2="193.41733" gradientUnits="userSpaceOnUse"/><linearGradient xlink:href="#c" id="e" gradientUnits="userSpaceOnUse" x1="450.06985" y1="55.942303" x2="611.87311" y2="193.41733" gradientTransform="matrix(1 0 0 1.0078987 0 -.33482157)"/></defs><path d="M1390.5 250.1H416c-9.2 0-16.7-7.5-16.7-16.7V16.8c0-9.2 7.5-16.7 16.7-16.7h974.5c9.2 0 16.7 7.5 16.7 16.7v216.7c-.1 9.1-7.5 16.6-16.7 16.6"/><path d="M249.8 232.1c3 1.5 9 3.4 16.6 3.5 13.1.3 20.2-4.7 25.5-16.4l70-155.9c-2.9-1.5-9.3-3.3-14.5-3.4-9-.2-21.1 1.6-28.8 20l-22.7 53.4-44.5-72.2c-2.9-.9-9.9-2.1-15-2.1-15.7 0-24.5 5.8-33.6 15.6l-43.2 47.2 34.8 54.7c6.4 10 14.9 15 28.6 15 9 0 16.5-2.1 20-3.7l-41.9-63 29.7-31.4 48.7 76.3Zm-91.9-59c0 11.5-4.5 18.1-27 18.1-3 0-5.6-.2-8.1-.6V38.2c0-11.6 3.9-23.7 26.6-23.7 2.9 0 5.8.3 8.5.9Zm-46.4-23c0 21.5-14 37.1-42.6 40.2-20.7 2.2-50.5-.4-64.8-2-.5-2.3-.9-5.2-.9-7.5 0-18.7 10.1-23 19.6-23 9.9 0 25.5 1.7 37 1.7 12.8 0 16.6-4.3 16.6-8.4 0-5.4-5.1-7.6-15-9.5l-27.1-5.2C12 132.1 0 116.6 0 100.1c0-20 14.2-36.8 42.2-39.9 21.1-2.3 46.9.3 61 2 .5 2.4.8 4.7.8 7.2-.1 18.7-10 22.7-19.5 22.7-7.3 0-18.6-1.3-31.6-1.3-13.2 0-18.6 3.6-18.6 8.1 0 4.7 5.2 6.6 13.4 8.1l25.8 4.8c26.6 4.8 38 19.8 38 38.3"/><path opacity=".3" d="m361.9 63.4-25.6 57.1c-.8 1.5-3.6 6.4-10.7 6.7-1.7.1-23.4.8-23.4.8-4.3.1-5.7 4.2-5.7 4.3l22.1-52.1c7.7-18.4 19.8-20.2 28.8-20 5.2-.1 11.6 1.6 14.5 3.2Zm-67.2 68.2-43.3-70.4c-2.9-.9-9.9-2.1-15-2.1-15.8 0-24.5 5.8-33.6 15.6l-43.3 47.2 3.5 5.4c1.5 2 4.4 5.4 10.2 5.2 2.1-.1 22.9-.8 24.6-.9 5.4-.2 8.8 2.1 10.9 4.9l-7.7-11.6 29.7-31.5 19.9 31.3c3.6 4.7 9 4.8 10.2 4.8 1 0 27.2-1 28.3-1 1.9-.2 4 .8 5.6 3.1ZM149.4 14.5c-22.7 0-26.6 12.1-26.6 23.7v104.5c0-4.2 3.2-8.6 8.6-8.8 3.8-.1 14.4-.5 17.5-.6 3.5-.1 8.8-2.5 8.9-8.9v-109c-2.6-.6-5.5-.9-8.4-.9Zm-75.8 97.2-25.8-4.8c-8.3-1.4-13.5-3.4-13.5-8.1 0-4.4 5.5-8.1 18.6-8.1 13 0 24.3 1.3 31.6 1.3 9.5 0 19.4-4 19.4-22.7 0-2.5-.3-4.8-.8-7.2-14.1-1.7-39.9-4.3-61-2C14.2 63.3 0 80 0 100.1c0 10.3 4.7 20.2 13.7 27.3 6.8 4.5 13.8 6.2 20.8 7.4 5.7 1 19 1.9 28.9 1.5 3.1-.1 25.9-.9 30.8-1.1 11.6-.4 17.8 9.5 17.2 19.4v-.5c.1-1.3.2-2.6.2-3.9-.1-18.6-11.5-33.6-38-38.5Z" fill="url(#d)"/><path d="M662.37012 215.075V35.298207h9.84585V215.075Z" fill="#ff1e1e"/><path d="M711.43 69.047676h24.22777V112.575h44.99446V69.047676H804.88V181.5h-24.22777v-45.838h-44.99446V181.5H711.43Z" fill="#ffffff"/><path d="M854.55 69.047676V181.5h-24.1953V69.047676Z" fill="#ffffff"/><path d="M890.96241 144.82142c3.85151 9.68165 11.9507 16.10315 21.72759 16.10315 7.9005 0 14.40752-4.05049 14.40752-11.26233 0-5.43358-3.65399-9.16288-11.75201-12.02787l-13.52961-4.84084c-16.39355-5.92753-26.75207-15.93036-26.75207-32.1323 0-20.351228 15.6035-33.688199 36.73736-33.688199 16.68981 0 31.30574 9.16053 38.21869 24.176969l-20.04752 11.58587C926.61464 95.227653 920.55897 89.25 912.29497 89.25c-7.40673 0-12.54206 3.994247-12.54206 9.929348 0 5.341582 4.03811 8.574402 10.95106 11.146272l14.61594 5.63834c17.97368 6.72645 26.65009 16.94654 26.65009 32.08105 0 22.44303-18.73867 35.51168-39.57628 35.51168-18.66494 0-35.03326-9.69247-42.14372-27.59669Z" fill="#ffffff"/><path d="M961.47544 69.047671H1044.95V91.525h-29.5782v89.97469h-24.19522V91.525h-29.70114Z" fill="#ffffff"/><path d="M1205.0272 181.5003h-23.904V69.047673h37.4366c24.2004 0 41.0912 13.052226 41.0912 35.992507 0 16.11751-9.7002 27.29101-23.134 32.43279l31.0161 44.00183h-28.4478l-27.6375-41.13429h-6.4206Zm0-61.03477h13.6314c9.68 0 16.7664-5.6362 16.7664-14.93095 0-9.492532-7.1851-14.832081-16.7664-14.832081h-13.6314Z" fill="#ffffff"/><path d="M1326.2912 181.5h-24.1954v-48.83004l-40.1447-63.622289h27.6346l24.8547 41.126039 24.9038-41.126039h27.1408l-40.1938 63.622289Z" fill="#ffffff"/><g transform="translate(0 .1)"><path d="m452.16703 208.26586 9.70344-3.12449c2.83364-1.74832 3.52907-6.72828 4.01499-9.9615.11255-.74755.12753-1.89663.10194-2.65489 0 0 .00004-2.52645-.00509-2.52645V57.310939c-.06138-1.660388.13206-10.616065-4.369-13.230418l-9.54347-1.640283h61.70928l-8.36831 2.666373c-4.49607 2.614308-4.8836 10.877425-4.93997 12.517175l-.02587 2.320385-.00509.649753v1.438623l.06144 40.707333h62.17564l.06143-40.702187s0-2.08833-.00508-2.08833V57.64957c-.05635-1.665582-.23281-10.100927-4.75984-12.730775l-8.54186-2.630136 61.51977-.099652-10.28551 2.641497c-4.48083 2.604008-3.58104 11.122551-3.64247 12.757156v132.41087h-.01017v2.54732c-.01018.27317-1.53696 8.95082 3.77768 12.03935l10.1554 3.68574h-61.63002l10.5217-3.45247c4.16855-2.41843 2.82126-9.28192 2.95937-11.29273v-.04681l.02034-57.93433-62.8567-.19974.08215 57.2576.05636 1.60872c.13303 2.01124-.36397 9.16174 4.02757 11.71722l9.27576 2.33188h-61.23581Zm27.62399-14.39929h5.57798v-73.38371h93.047l.00019 73.51898h4.59161l.10022-141.034785h-4.59161v62.796085h-94.04775V52.872h-4.67764Z" opacity=".754258" fill="url(#e)"/><path d="M450.26663 208.96591v-2.89573l1.8939-.01058c.03067 0 .0972.00507.18413.00507 2.61372 0 4.90844-.99858 7.10271-2.33886 2.83364-1.73461 4.15174-4.53545 4.63766-7.74332.11255-.7417.12753-1.8818.10194-2.63409 0 0 .00004-2.50667-.00509-2.50667L464.182 55.194c-.06138-1.647376-.36873-7.116658-4.86979-9.710523-3.38609-2.148725-6.72829-2.242799-7.56199-2.242799-.08698 0-.14834-.000003-.18418.005113l-1.29604-.025582V40.54h65.409v2.785769l-.79499.020461c-.03605 0-.09194-.005112-.17925-.005112-.8338 0-4.12132.068903-7.53276 2.227882-4.49607 2.59382-4.64479 8.308494-4.70116 9.935394l-.02587 2.302202-.00509.64466v1.42735l.06144 40.403984h58.27596l.06143-40.398877s0-2.071964-.00508-2.071964v-2.281772c-.05635-1.652529-.33313-7.575402-4.86016-10.184636-3.38603-2.148724-6.63405-2.205234-7.47292-2.205234-.08685 0-.14829-.000004-.17878.005112l-.89525-.020461.00509-2.635758h65.51977l-.00508 2.587186-1.41169.025581c-.03096 0-.09239-.005112-.18432-.005112-.83379 0-4.01811-.006641-7.42956 2.152338-4.48083 2.583605-4.8359 8.453365-4.89733 10.075158V190.84173h-.01017v2.52738c-.01018.271-.43654 7.42195 4.8781 10.48628 3.38603 2.14871 6.21971 2.20944 7.0535 2.20944.09192 0 .15338 0 .18433-.00507l1.81662.01565v2.89555h-65.52949l.02541-2.85747h.98552c.0254 0 .07667.00505.15337.00505.8338 0 4.03247-.13 7.47487-2.30954 4.16855-2.39947 4.60379-7.47265 4.7419-9.46768v-.04647l.02034-57.69597-58.8567-.19974.08215 57.02611.05636 1.59611c.4486 6.72922 5.26782 11.03864 12.3263 11.03864.09194 0 .1534 0 .18388-.00507l.79315.01013v2.89531h-65.13621Zm27.52439-13.29427h6.77798v-75.20533l91.847 2 .00019 73.24076h8.59161l.10022-144.624125h-8.59161v62.700635h-90.04775V50.987996h-8.67764Z" fill="url(#f)"/><path d="M450.9296 208.21178v-1.48891l1.29404-.01013c.03066 0 .09719.00506.18412.00506.83373 0 3.82594-.16886 7.23244-2.32769 5.29389-3.04915 5.10977-9.99174 5.10465-10.2885v-2.50668h-.00514V54.740199c-.06136-1.647375-.61903-7.141999-5.12009-9.735819-3.38604-2.148769-6.37813-2.317596-7.21186-2.317596-.08693 0-.1483-.000004-.18412.005111l-1.39635-.025583v-1.473416h64.20176v1.478539l-.89536.02046c-.03557 0-.09192-.005111-.17877-.005111-.8338 0-3.82073.168832-7.23262 2.327811-4.4956 2.593819-4.95036 8.103857-5.00673 9.735864l-.02034 2.302203-.00508.644658v1.427351l.06144 41.910649h59.68295l.06144-41.905542v-2.071964h-.00509v-2.281771c-.05635-1.652484-.59401-7.362219-5.12057-9.971407-3.38603-2.148768-6.27331-2.217863-7.11219-2.217863-.08685 0-.14829-.000004-.17924.005111l-.89479-.02046-.00552-1.419459h64.01246l.00507 1.314684-1.41169.025583c-.03048 0-.09195-.005111-.18385-.005111-.83381 0-3.82073.168832-7.23262 2.327811-4.48035 2.583605-5.03285 8.277892-5.09429 9.899685V191.59493h-.01015v2.52738c-.01017.27101-.1894 7.21359 5.12477 10.27792 3.38603 2.14871 6.3734 2.318 7.2072 2.318.09194 0 .15337 0 .18386-.00506l1.61689.01518v1.48848h-64.32279v-1.38336h1.08548c.02541 0 .07668.00504.15336.00504.8338 0 3.62539-.26887 7.06269-2.4484 4.16856-2.39947 5.03632-7.30055 5.17445-9.29604v-.04602l.0203-59.00293-60.35338-.19974.22027 59.22337v.02025c.13306 1.99549.83323 6.89658 5.02719 9.31123 3.38604 2.14871 6.37295 2.31757 7.20675 2.31757.09238 0 .15338 0 .18432-.00506l.89015.01013v1.48891Zm28.4164-13.7874h5.88533v-73.50561h92.83964l.00019 73.54149h5.69931l.20753-76.46073-.007-65.670521h-5.99888l-.00023 62.700451H484.681V52.234062h-5.435Z" fill="url(#g)"/><path d="M450.9296 208.21224v-1.48891l1.29404-.01013c.03066 0 .09719.00506.18412.00506.83373 0 3.82594-.16886 7.23244-2.3277 5.29389-3.04913 5.10977-9.99173 5.10465-10.28849v-2.50714h-.00514V54.740567c-.06136-1.647376-.61898-7.141999-5.12009-9.735864-3.38604-2.148742-6.37813-2.31757-7.21186-2.31757-.08693 0-.1483-.000004-.18412.005112l-1.39635-.025582v-1.473417h64.20176v1.478538l-.89536.020461c-.03557 0-.09192-.005112-.17877-.005112-.8338 0-3.82073.168833-7.23262 2.327831-4.4956 2.593819-4.94531 8.108918-5.00165 9.735817l-.02542 2.302248-.00508.644615v1.427395l.06144 41.910751h59.68295l.06144-41.905643v-2.072011h-.00509v-2.281772c-.05635-1.652482-.59401-7.362218-5.12057-9.971405-3.38603-2.148742-6.27331-2.217837-7.11219-2.217837-.08685 0-.14829-.000004-.17924.005112l-.89479-.020461.00511-1.429692h64.01199l-.00509 1.324919-1.41169.025582c-.03048 0-.09195-.005112-.18385-.005112-.83381 0-3.82073.168833-7.23262 2.327831-4.48035 2.583604-5.03285 8.27789-5.09429 9.899683V191.59493h-.01015v2.52738c-.01017.27147-.1894 7.21359 5.12477 10.27839 3.38649 2.1487 6.3734 2.31799 7.2072 2.31799.09194 0 .15337 0 .18386-.00506l1.61689.01519v1.48847h-64.32279l.02584-1.45008h1.08505c.02587 0 .07669.00506.15383.00506.83336 0 3.59951-.20263 7.04189-2.38171 4.16856-2.39946 5.03632-7.30054 5.17444-9.29603v-.04602l.02079-59.00293-60.35894-.19974.22027 59.22291v.02071c.13306 1.99503.83323 6.89658 5.02719 9.31124 3.38604 2.1487 6.37295 2.31756 7.20675 2.31756.09238 0 .15338 0 .18432-.00506l.89015.01013v1.48891Zm28.4164-13.7874h5.88533v-73.50561h92.83964l.00019 73.54149h5.69931l.20753-76.36118-.007-65.770208h-5.99888l-.00023 62.700598H484.681v-62.7955h-5.435Z" fill="url(#h)"/><path d="M450.92942 208.21224v-1.48891l1.29408-.01013c.03066 0 .09715.00506.18412.00506 2.61373 0 5.14557-1.04905 7.33985-2.38935 2.83363-1.73414 4.35272-4.7681 4.83864-7.976.11255-.74169.18927-1.49903.16367-2.25084 0 0 0-2.50714-.00508-2.50714V54.740567c-.06137-1.647376-.61903-7.141999-5.12009-9.735864-3.38607-2.148742-6.37814-2.31757-7.2119-2.31757-.08692 0-.14832-.000004-.18412.005112l-1.39636-.025582v-1.473417h64.20188v1.478538l-.89534.020461c-.03558 0-.09194-.005112-.17876-.005112-.83381 0-3.82119.168833-7.23262 2.327831-4.49609 2.593819-4.94531 8.108918-5.00167 9.735817l-.02539 2.302248-.0051.644615v1.427395l.06145 41.910751h59.68293l.06144-41.905643s0-2.072011-.00507-2.072011v-2.281772c-.05637-1.652482-.59401-7.362218-5.12058-9.971405-3.38603-2.148742-6.27377-2.217837-7.1122-2.217837-.08731 0-.14874-.000004-.17923.005112l-.89524-.020461.00509-1.429692h64.01246L612.2012 42.467l-1.4117.025582c-.03049 0-.09192-.005112-.18385-.005112-.83381 0-3.82119.168833-7.23262 2.327831-4.48083 2.583604-5.03285 8.27789-5.09429 9.899683V191.59493h-.01016v2.52738c-.01063.27147-.18939 7.21359 5.12478 10.27839 3.38603 2.1487 6.3734 2.31799 7.20674 2.31799.09237 0 .15384 0 .18432-.00506l1.6169.01519v1.48847H548.0785l.02587-1.45008h1.08504c.02541 0 .07669.00506.15337.00506.83381 0 3.59996-.20263 7.04235-2.38171 4.16855-2.39946 5.03632-7.30054 5.17445-9.29603v-.04602l.02032-59.00316-60.36401-.19974.08262 58.33329.0559 1.59612c.13303 1.99504 1.07895 6.56392 5.27293 8.97858 3.38603 2.1487 6.21958 1.9596 7.05337 1.9596.09193 0 .15337 0 .18432-.00506l.7927.01012v1.48892h-63.72831Zm28.41658-13.7874h5.88533v-73.50561h93.18457l.00019 73.06493h4.95469l.10022-141.355105h-5.1v62.400875h-93.69v-62.7955h-5.435Z" fill="url(#i)"/></g><path d="M1106.357 183.54803c-32.5896 0-58.76-25.8836-58.76-58.2875 0-32.403893 26.1704-58.287499 58.76-58.287499 32.5895 0 58.76 25.883606 58.76 58.287499 0 32.4039-26.1705 58.2875-58.76 58.2875Zm0-93.161204c-19.06 0-34.0709 15.411604-34.0709 34.873704 0 19.4621 14.9121 34.8737 34.0709 34.8737 19.06 0 34.0709-15.4116 34.0709-34.8737s-14.9122-34.873704-34.0709-34.873704Z" fill="#ffffff"/><path opacity=".3" d="M411.3 124.1s.5 0 1.6-.1c49.3-1.8 981.8-34.3 981.8-34.3 6.3-.2 12.4-4.9 12.4-12.7V16.7c0-9.2-7.5-16.7-16.7-16.7H416c-9.2 0-16.7 7.5-16.7 16.7v120.4c0-1.3.4-11.9 12-13Z" fill="url(#j)"/></svg>