<?xml version="1.0" encoding="UTF-8" standalone="no"?>
<!-- Created with Inkscape (http://www.inkscape.org/) -->

<svg
   xmlns:dc="http://purl.org/dc/elements/1.1/"
   xmlns:cc="http://creativecommons.org/ns#"
   xmlns:rdf="http://www.w3.org/1999/02/22-rdf-syntax-ns#"
   xmlns:svg="http://www.w3.org/2000/svg"
   xmlns="http://www.w3.org/2000/svg"
   xmlns:sodipodi="http://sodipodi.sourceforge.net/DTD/sodipodi-0.dtd"
   xmlns:inkscape="http://www.inkscape.org/namespaces/inkscape"
   width="1000"
   height="422.76135"
   viewBox="0 0 264.58333 111.85561"
   version="1.1"
   id="svg8"
   inkscape:version="0.92.4 (5da689c313, 2019-01-14)"
   sodipodi:docname="a.svg">
  <defs
     id="defs2">
    <clipPath
       clipPathUnits="userSpaceOnUse"
       id="clipPath10543">
      <path
         d="m 296.602,448.241 h 35.077 v 18.03 h -35.077 z"
         id="path10541"
         inkscape:connector-curvature="0" />
    </clipPath>
    <clipPath
       clipPathUnits="userSpaceOnUse"
       id="clipPath10499">
      <path
         d="m 297.153,455.984 c -0.304,0 -0.551,-0.247 -0.551,-0.552 v 0 -5.112 c 0,-0.304 0.247,-0.551 0.551,-0.551 v 0 h 33.973 c 0.303,0 0.551,0.248 0.551,0.551 v 0 5.112 c 0,0.304 -0.248,0.552 -0.551,0.552 v 0 z"
         id="path10497"
         inkscape:connector-curvature="0" />
    </clipPath>
    <clipPath
       clipPathUnits="userSpaceOnUse"
       id="clipPath10463">
      <path
         d="m 296.602,448.241 h 35.077 v 18.03 h -35.077 z"
         id="path10461"
         inkscape:connector-curvature="0" />
    </clipPath>
    <clipPath
       clipPathUnits="userSpaceOnUse"
       id="clipPath10447">
      <path
         d="m 296.602,449.769 h 35.077 v 14.829 h -35.077 z"
         id="path10445"
         inkscape:connector-curvature="0" />
    </clipPath>
    <clipPath
       clipPathUnits="userSpaceOnUse"
       id="clipPath10401">
      <path
         d="m 296.602,448.241 h 35.077 v 18.03 h -35.077 z"
         id="path10399"
         inkscape:connector-curvature="0" />
    </clipPath>
  </defs>
  <sodipodi:namedview
     id="base"
     pagecolor="#ffffff"
     bordercolor="#666666"
     borderopacity="1.0"
     inkscape:pageopacity="0.0"
     inkscape:pageshadow="2"
     inkscape:zoom="0.7"
     inkscape:cx="686.2555"
     inkscape:cy="140.84888"
     inkscape:document-units="px"
     inkscape:current-layer="layer1"
     showgrid="false"
     units="px"
     inkscape:window-width="1920"
     inkscape:window-height="1017"
     inkscape:window-x="1912"
     inkscape:window-y="-8"
     inkscape:window-maximized="1"
     fit-margin-top="0"
     fit-margin-left="0"
     fit-margin-right="0"
     fit-margin-bottom="0" />
  <metadata
     id="metadata5">
    <rdf:RDF>
      <cc:Work
         rdf:about="">
        <dc:format>image/svg+xml</dc:format>
        <dc:type
           rdf:resource="http://purl.org/dc/dcmitype/StillImage" />
        <dc:title></dc:title>
      </cc:Work>
    </rdf:RDF>
  </metadata>
  <g
     inkscape:label="Layer 1"
     inkscape:groupmode="layer"
     id="layer1"
     transform="translate(-99.646146,-39.593378)">
    <g
       id="g10395"
       transform="matrix(7.5429294,0,0,-7.5429294,-2137.6018,3544.0248)">
      <g
         id="g10397"
         clip-path="url(#clipPath10401)">
        <g
           id="g10403"
           transform="translate(297.1554,464.5982)">
          <path
             d="M 0,0 C -0.305,0 -0.551,-0.247 -0.551,-0.551 V -7.719 C -0.551,-8.023 -0.305,-8.27 0,-8.27 H 13.211 V 0 H 0"
             style="fill:#ffffff;fill-opacity:1;fill-rule:nonzero;stroke:none"
             id="path10405"
             inkscape:connector-curvature="0" />
        </g>
        <g
           id="g10407"
           transform="translate(297.16,456.3276)">
          <path
             d="M 0,0 H 13.352 V 0.172 H 0 c -0.209,0 -0.379,0.17 -0.379,0.379 v 7.165 c 0,0.209 0.17,0.379 0.379,0.379 H 13.352 V 8.267 H 0 c -0.304,0 -0.551,-0.247 -0.551,-0.551 V 0.551 C -0.551,0.247 -0.304,0 0,0"
             style="fill:#93918f;fill-opacity:1;fill-rule:nonzero;stroke:none"
             id="path10409"
             inkscape:connector-curvature="0" />
        </g>
        <path
           d="m 310.51,464.421 h -0.144 v 0.002 h 0.144 z"
           style="fill:#ffffff;fill-opacity:1;fill-rule:nonzero;stroke:none"
           id="path10411"
           inkscape:connector-curvature="0" />
        <g
           id="g10413"
           transform="translate(296.6069,458.9506)">
          <path
             d="M 0,0 V 5.091 C 0,5.243 0.062,5.381 0.161,5.48 0.063,5.381 0.002,5.244 0.002,5.093 V 0.058 C 0.001,0.039 0,0.02 0,0 m 0.286,5.362 c 0.069,0.068 0.163,0.11 0.267,0.11 H 13.76 V 5.47 H 0.551 C 0.448,5.47 0.354,5.429 0.286,5.362"
             style="fill:#ffffff;fill-opacity:1;fill-rule:nonzero;stroke:none"
             id="path10415"
             inkscape:connector-curvature="0" />
        </g>
        <g
           id="g10417"
           transform="translate(296.6089,459.0087)">
          <path
             d="m 0,0 v 5.035 c 0,0.151 0.061,0.288 0.159,0.387 0.1,0.1 0.238,0.162 0.39,0.162 H 13.902 V 5.414 H 13.758 0.551 C 0.447,5.414 0.353,5.372 0.284,5.304 0.214,5.235 0.17,5.139 0.17,5.033 V 0.446 C 0.073,0.321 0.012,0.167 0,0"
             style="fill:#a9a7a6;fill-opacity:1;fill-rule:nonzero;stroke:none"
             id="path10419"
             inkscape:connector-curvature="0" />
        </g>
        <g
           id="g10421"
           transform="translate(331.128,464.5982)">
          <path
             d="M 0,0 H -20.761 V -8.27 H 0 c 0.303,0 0.551,0.248 0.551,0.551 v 7.168 C 0.551,-0.248 0.303,0 0,0"
             style="fill:#a42c2a;fill-opacity:1;fill-rule:nonzero;stroke:none"
             id="path10423"
             inkscape:connector-curvature="0" />
        </g>
        <g
           id="g10425"
           transform="translate(331.128,464.5982)">
          <path
             d="m 0,0 h -20.761 v -4.292 l 21.312,0.868 v 2.869 C 0.551,-0.244 0.305,0 0,0"
             style="fill:#ca2e33;fill-opacity:1;fill-rule:nonzero;stroke:none"
             id="path10427"
             inkscape:connector-curvature="0" />
        </g>
        <g
           id="g10429"
           transform="translate(326.705,458.7181)">
          <path
             d="m 0,0 c -0.04,0.322 0.064,0.491 0.233,0.491 0.177,0 0.628,-0.21 1.263,-0.21 0.676,0 0.933,0.25 0.933,0.572 0,0.217 -0.096,0.402 -0.708,0.571 L 1.03,1.617 c -0.74,0.201 -1.038,0.571 -1.038,1.037 0,0.563 0.45,1.086 1.48,1.086 0.466,0 1.046,-0.112 1.391,-0.249 C 2.896,3.177 2.799,3.008 2.638,3.008 2.477,3.008 2.051,3.201 1.48,3.201 0.853,3.201 0.619,2.976 0.619,2.678 c 0,-0.193 0.089,-0.37 0.652,-0.53 l 0.7,-0.193 C 2.743,1.729 3.065,1.367 3.065,0.869 3.065,0.273 2.59,-0.257 1.48,-0.257 0.981,-0.257 0.362,-0.145 0,0"
             style="fill:#ffffff;fill-opacity:1;fill-rule:nonzero;stroke:none"
             id="path10431"
             inkscape:connector-curvature="0" />
        </g>
        <g
           id="g10433"
           transform="translate(326.1904,462.3135)">
          <path
             d="m 0,0 -1.03,-3.531 c -0.064,-0.217 -0.225,-0.274 -0.45,-0.274 -0.129,0 -0.257,0.025 -0.37,0.057 l -0.989,3.137 -0.933,-2.92 c -0.073,-0.225 -0.242,-0.274 -0.451,-0.274 -0.128,0 -0.265,0.025 -0.378,0.057 L -5.695,0 c 0.089,0.048 0.25,0.097 0.394,0.097 0.169,0 0.266,-0.057 0.314,-0.226 l 0.788,-2.96 h 0.008 L -3.217,0 c 0.104,0.056 0.249,0.097 0.394,0.097 0.241,0 0.37,-0.065 0.442,-0.29 l 0.901,-2.896 h 0.01 l 0.762,2.96 C -0.659,0.04 -0.571,0.097 -0.394,0.097 -0.249,0.097 -0.088,0.048 0,0"
             style="fill:#ffffff;fill-opacity:1;fill-rule:nonzero;stroke:none"
             id="path10435"
             inkscape:connector-curvature="0" />
        </g>
        <g
           id="g10437"
           transform="translate(317.105,460.7289)">
          <path
             d="M 0,0 H 2.405 C 2.381,0.66 1.955,1.182 1.263,1.182 0.652,1.182 0.105,0.772 0,0 M 2.992,-0.523 H 0 c 0.097,-0.748 0.619,-1.174 1.392,-1.174 0.329,0 0.587,0.072 0.828,0.153 0.161,0.056 0.249,0.088 0.314,0.088 0.161,0 0.281,-0.153 0.241,-0.499 -0.338,-0.152 -0.861,-0.313 -1.408,-0.313 -1.198,0 -2.019,0.812 -2.019,2.011 0,1.15 0.861,1.986 1.915,1.986 1.182,0 1.761,-0.941 1.761,-1.858 0,-0.12 -0.008,-0.249 -0.032,-0.394"
             style="fill:#ffffff;fill-opacity:1;fill-rule:nonzero;stroke:none"
             id="path10439"
             inkscape:connector-curvature="0" />
        </g>
      </g>
    </g>
    <g
       id="g10441"
       transform="matrix(7.5429294,0,0,-7.5429294,-2137.6018,3544.0248)">
      <g
         id="g10443"
         clip-path="url(#clipPath10447)">
        <g
           id="g10449"
           transform="translate(315.7239,460.8174)">
          <path
             d="m 0,0 v -2.067 c 0,-0.153 -0.08,-0.241 -0.33,-0.241 -0.104,0 -0.225,0.016 -0.289,0.032 v 2.196 c 0,0.788 -0.394,1.166 -0.966,1.166 -0.458,0 -0.949,-0.322 -1.15,-0.692 v -2.461 c 0,-0.153 -0.08,-0.241 -0.33,-0.241 -0.112,0 -0.233,0.016 -0.289,0.032 v 3.828 c 0.056,0.017 0.177,0.041 0.289,0.041 0.25,0 0.33,-0.097 0.33,-0.242 V 1.022 c 0.282,0.337 0.708,0.619 1.287,0.619 C -0.66,1.641 0,1.134 0,0"
             style="fill:#ffffff;fill-opacity:1;fill-rule:nonzero;stroke:none"
             id="path10451"
             inkscape:connector-curvature="0" />
        </g>
        <g
           id="g10453"
           transform="translate(331.1258,455.9838)">
          <path
             d="m 0,0 h -33.973 c -0.304,0 -0.551,-0.247 -0.551,-0.551 v -5.112 c 0,-0.305 0.247,-0.552 0.551,-0.552 H 0 c 0.303,0 0.551,0.248 0.551,0.552 v 5.112 C 0.551,-0.248 0.303,0 0,0"
             style="fill:#253765;fill-opacity:1;fill-rule:nonzero;stroke:none"
             id="path10455"
             inkscape:connector-curvature="0" />
        </g>
      </g>
    </g>
    <g
       id="g10457"
       transform="matrix(7.5429294,0,0,-7.5429294,-2137.6018,3544.0248)">
      <g
         id="g10459"
         clip-path="url(#clipPath10463)">
        <g
           id="g10465"
           transform="translate(305.555,452.7036)">
          <path
             d="m 0,0 c 0.053,-0.204 0.098,-0.406 0.136,-0.606 0.038,-0.2 0.075,-0.391 0.113,-0.572 h 0.012 c 0.03,0.181 0.066,0.381 0.107,0.6 0.042,0.219 0.081,0.425 0.119,0.618 L 0.821,1.83 C 0.836,1.905 0.87,1.958 0.92,1.988 0.971,2.018 1.037,2.034 1.116,2.034 1.172,2.034 1.225,2.027 1.275,2.014 1.324,2 1.363,1.988 1.393,1.977 L 0.668,-1.445 C 0.646,-1.554 0.598,-1.624 0.527,-1.654 0.455,-1.684 0.363,-1.699 0.249,-1.699 c -0.053,0 -0.114,0.002 -0.184,0.008 -0.07,0.006 -0.127,0.018 -0.173,0.037 L -0.68,0.595 -0.844,1.393 H -0.855 C -0.886,1.246 -0.919,1.098 -0.955,0.949 -0.99,0.8 -1.023,0.663 -1.054,0.538 L -1.116,0.289 c -0.072,-0.295 -0.144,-0.583 -0.218,-0.864 -0.074,-0.281 -0.146,-0.569 -0.218,-0.864 -0.027,-0.109 -0.072,-0.18 -0.136,-0.212 -0.064,-0.032 -0.151,-0.048 -0.261,-0.048 -0.053,0 -0.117,0.002 -0.192,0.008 -0.076,0.006 -0.138,0.018 -0.187,0.037 l -0.782,3.62 c 0.038,0.018 0.081,0.034 0.13,0.048 0.049,0.013 0.106,0.02 0.17,0.02 0.087,0 0.157,-0.016 0.21,-0.046 0.053,-0.03 0.087,-0.089 0.102,-0.175 l 0.317,-1.615 c 0.045,-0.23 0.089,-0.463 0.13,-0.699 0.042,-0.236 0.078,-0.462 0.108,-0.677 h 0.011 c 0.042,0.226 0.088,0.462 0.139,0.705 0.051,0.244 0.114,0.501 0.19,0.773 l 0.362,1.445 c 0.027,0.094 0.073,0.166 0.139,0.215 0.066,0.049 0.164,0.074 0.292,0.074 0.136,0 0.243,-0.029 0.323,-0.085 L 0,0"
             style="fill:#ffffff;fill-opacity:1;fill-rule:nonzero;stroke:none"
             id="path10467"
             inkscape:connector-curvature="0" />
        </g>
        <g
           id="g10469"
           transform="translate(307.7811,451.0439)">
          <path
             d="m 0,0 c -0.121,0 -0.199,0.025 -0.235,0.074 -0.036,0.049 -0.054,0.111 -0.054,0.187 v 3.16 c 0,0.076 0.018,0.138 0.054,0.187 C -0.199,3.657 -0.121,3.682 0,3.682 H 1.909 C 1.917,3.656 1.923,3.619 1.929,3.572 1.934,3.524 1.937,3.476 1.937,3.427 1.937,3.329 1.916,3.26 1.872,3.22 1.829,3.181 1.777,3.161 1.716,3.161 H 0.283 V 2.09 H 1.767 C 1.771,2.064 1.776,2.029 1.782,1.985 1.787,1.942 1.79,1.898 1.79,1.852 1.79,1.754 1.771,1.686 1.733,1.648 1.696,1.611 1.647,1.592 1.586,1.592 H 0.283 V 0.521 H 1.954 C 1.958,0.491 1.963,0.455 1.969,0.414 1.974,0.372 1.977,0.327 1.977,0.278 1.977,0.176 1.957,0.104 1.917,0.062 1.878,0.021 1.826,0 1.762,0 H 0"
             style="fill:#ffffff;fill-opacity:1;fill-rule:nonzero;stroke:none"
             id="path10471"
             inkscape:connector-curvature="0" />
        </g>
        <g
           id="g10473"
           transform="translate(311.1458,452.5507)">
          <path
             d="M 0,0 H 1.156 L 0.589,1.694 H 0.572 L 0,0 M 2.238,-1.473 C 2.196,-1.492 2.149,-1.508 2.096,-1.521 2.043,-1.534 1.994,-1.541 1.949,-1.541 1.873,-1.541 1.805,-1.53 1.745,-1.51 1.684,-1.489 1.641,-1.439 1.614,-1.359 L 1.32,-0.493 h -1.484 l -0.295,-0.866 c -0.026,-0.076 -0.066,-0.125 -0.119,-0.148 -0.053,-0.022 -0.117,-0.034 -0.192,-0.034 -0.046,0 -0.099,0.006 -0.159,0.017 -0.06,0.012 -0.108,0.027 -0.142,0.046 L 0.204,2.153 C 0.355,2.183 0.48,2.198 0.578,2.198 0.657,2.198 0.724,2.192 0.779,2.181 0.834,2.17 0.879,2.151 0.915,2.124 0.951,2.098 0.981,2.065 1.005,2.025 1.03,1.985 1.054,1.935 1.076,1.875 l 1.162,-3.348"
             style="fill:#ffffff;fill-opacity:1;fill-rule:nonzero;stroke:none"
             id="path10475"
             inkscape:connector-curvature="0" />
        </g>
        <g
           id="g10477"
           transform="translate(314.216,454.2047)">
          <path
             d="m 0,0 h -1.15 c -0.015,0.057 -0.023,0.142 -0.023,0.255 0,0.109 0.022,0.181 0.065,0.215 0.044,0.034 0.101,0.051 0.173,0.051 H 1.711 C 1.726,0.464 1.733,0.385 1.733,0.283 1.733,0.094 1.654,0 1.495,0 H 0.572 v -2.957 c 0,-0.068 -0.022,-0.124 -0.065,-0.17 -0.044,-0.045 -0.12,-0.068 -0.23,-0.068 -0.117,0 -0.209,0.01 -0.277,0.028 L 0,0"
             style="fill:#ffffff;fill-opacity:1;fill-rule:nonzero;stroke:none"
             id="path10479"
             inkscape:connector-curvature="0" />
        </g>
        <g
           id="g10481"
           transform="translate(319.3821,451.2478)">
          <path
             d="m 0,0 c 0,-0.068 -0.022,-0.125 -0.065,-0.17 -0.044,-0.045 -0.12,-0.068 -0.23,-0.068 -0.053,0 -0.105,0.003 -0.158,0.009 -0.053,0.005 -0.095,0.012 -0.125,0.019 V 1.394 H -2.379 V 0 c 0,-0.068 -0.022,-0.125 -0.065,-0.17 -0.044,-0.045 -0.12,-0.068 -0.23,-0.068 -0.117,0 -0.209,0.01 -0.277,0.028 v 3.462 c 0,0.064 0.021,0.119 0.065,0.167 0.043,0.047 0.12,0.07 0.229,0.07 0.117,0 0.21,-0.009 0.278,-0.028 V 1.892 h 1.801 v 1.36 c 0,0.064 0.022,0.119 0.065,0.167 0.044,0.047 0.12,0.07 0.23,0.07 0.053,0 0.105,-0.002 0.158,-0.008 C -0.072,3.475 -0.03,3.469 0,3.461 V 0"
             style="fill:#ffffff;fill-opacity:1;fill-rule:nonzero;stroke:none"
             id="path10483"
             inkscape:connector-curvature="0" />
        </g>
        <g
           id="g10485"
           transform="translate(320.5206,451.0439)">
          <path
             d="m 0,0 c -0.121,0 -0.199,0.025 -0.235,0.074 -0.036,0.049 -0.054,0.111 -0.054,0.187 v 3.16 c 0,0.076 0.018,0.138 0.054,0.187 C -0.199,3.657 -0.121,3.682 0,3.682 H 1.909 C 1.917,3.656 1.923,3.619 1.929,3.572 1.934,3.524 1.937,3.476 1.937,3.427 1.937,3.329 1.916,3.26 1.872,3.22 1.829,3.181 1.777,3.161 1.716,3.161 H 0.283 V 2.09 H 1.767 C 1.771,2.064 1.776,2.029 1.782,1.985 1.787,1.942 1.79,1.898 1.79,1.852 1.79,1.754 1.771,1.686 1.733,1.648 1.696,1.611 1.646,1.592 1.586,1.592 H 0.283 V 0.521 H 1.954 C 1.958,0.491 1.963,0.455 1.969,0.414 1.974,0.372 1.977,0.327 1.977,0.278 1.977,0.176 1.957,0.104 1.917,0.062 1.878,0.021 1.826,0 1.762,0 H 0"
             style="fill:#ffffff;fill-opacity:1;fill-rule:nonzero;stroke:none"
             id="path10487"
             inkscape:connector-curvature="0" />
        </g>
        <g
           id="g10489"
           transform="translate(324.2875,452.9698)">
          <path
             d="m 0,0 c 0.302,0 0.517,0.057 0.646,0.17 0.128,0.113 0.192,0.268 0.192,0.464 0,0.193 -0.058,0.341 -0.175,0.445 -0.117,0.104 -0.3,0.156 -0.55,0.156 H -0.538 V 0 H 0 m 0.113,1.756 c 0.42,0 0.741,-0.101 0.966,-0.303 C 1.304,1.251 1.416,0.978 1.416,0.634 1.416,0.34 1.323,0.092 1.136,-0.11 0.949,-0.312 0.685,-0.432 0.346,-0.47 l 1.2,-1.399 C 1.437,-1.93 1.312,-1.96 1.173,-1.96 c -0.102,0 -0.185,0.016 -0.25,0.048 -0.064,0.032 -0.126,0.088 -0.187,0.167 l -1.014,1.252 h -0.26 v -1.229 c 0,-0.068 -0.022,-0.125 -0.065,-0.17 -0.044,-0.045 -0.12,-0.068 -0.23,-0.068 -0.053,0 -0.105,0.003 -0.158,0.009 -0.053,0.005 -0.095,0.012 -0.125,0.019 v 3.427 c 0,0.076 0.018,0.138 0.054,0.187 0.036,0.049 0.116,0.074 0.241,0.074 h 0.934"
             style="fill:#ffffff;fill-opacity:1;fill-rule:nonzero;stroke:none"
             id="path10491"
             inkscape:connector-curvature="0" />
        </g>
      </g>
    </g>
    <g
       id="g10493"
       transform="matrix(7.5429294,0,0,-7.5429294,-2137.6018,3544.0248)">
      <g
         id="g10495"
         clip-path="url(#clipPath10499)">
        <g
           id="g10501"
           transform="translate(296.6019,453.311)">
          <path
             d="m 0,0 v 2.121 c 0,0.305 0.247,0.552 0.551,0.552 h 33.973 c 0.303,0 0.551,-0.248 0.551,-0.552 V 0.735 l -6.01,-0.126 c -0.049,0.2 -0.149,0.367 -0.3,0.503 -0.225,0.202 -0.547,0.303 -0.966,0.303 H 26.864 C 26.74,1.415 26.659,1.39 26.624,1.341 26.588,1.292 26.57,1.23 26.57,1.154 V 0.557 l -2.368,-0.05 v 0.387 h 1.433 c 0.06,0 0.112,0.02 0.156,0.059 0.043,0.04 0.065,0.109 0.065,0.207 0,0.049 -0.003,0.097 -0.008,0.144 -0.006,0.048 -0.013,0.084 -0.02,0.111 H 23.919 C 23.798,1.415 23.72,1.39 23.684,1.341 23.648,1.292 23.63,1.23 23.63,1.154 V 0.495 L 22.78,0.477 v 0.921 c -0.03,0.007 -0.072,0.014 -0.124,0.02 -0.053,0.005 -0.106,0.008 -0.159,0.008 -0.11,0 -0.186,-0.023 -0.229,-0.071 C 22.224,1.308 22.202,1.252 22.202,1.188 V 0.465 L 20.401,0.427 v 0.971 c -0.068,0.019 -0.16,0.028 -0.277,0.028 -0.11,0 -0.187,-0.023 -0.23,-0.071 C 19.851,1.308 19.829,1.252 19.829,1.188 V 0.415 L 18.186,0.381 v 0.513 h 0.924 c 0.158,0 0.237,0.094 0.237,0.283 0,0.102 -0.007,0.181 -0.022,0.238 H 16.679 C 16.608,1.415 16.55,1.398 16.507,1.364 16.463,1.33 16.442,1.258 16.442,1.149 c 0,-0.114 0.007,-0.199 0.022,-0.255 h 1.15 V 0.369 L 15.891,0.333 15.62,1.115 c -0.022,0.06 -0.046,0.11 -0.071,0.15 -0.024,0.039 -0.054,0.072 -0.09,0.099 -0.036,0.026 -0.081,0.045 -0.136,0.057 -0.055,0.011 -0.122,0.017 -0.201,0.017 -0.099,0 -0.223,-0.016 -0.374,-0.046 L 14.365,0.301 11.462,0.24 v 0.654 h 1.434 c 0.06,0 0.112,0.02 0.155,0.059 0.044,0.04 0.066,0.109 0.066,0.207 0,0.049 -0.003,0.097 -0.009,0.144 -0.006,0.048 -0.012,0.084 -0.02,0.111 H 11.179 C 11.058,1.415 10.98,1.39 10.944,1.341 10.908,1.292 10.89,1.23 10.89,1.154 V 0.228 L 10.101,0.212 10.347,1.37 c -0.031,0.011 -0.07,0.023 -0.119,0.036 -0.05,0.014 -0.102,0.02 -0.159,0.02 C 9.99,1.426 9.925,1.411 9.874,1.381 9.823,1.351 9.789,1.298 9.774,1.222 L 9.584,0.201 8.755,0.183 8.466,1.341 C 8.387,1.398 8.279,1.426 8.143,1.426 8.015,1.426 7.917,1.402 7.851,1.353 7.785,1.303 7.739,1.232 7.713,1.137 L 7.466,0.156 6.664,0.14 6.455,1.205 C 6.44,1.292 6.406,1.351 6.353,1.381 6.3,1.411 6.23,1.426 6.143,1.426 6.079,1.426 6.023,1.42 5.974,1.406 5.924,1.393 5.881,1.377 5.843,1.358 L 6.109,0.128 0,0 M 7.957,0.167 C 7.97,0.223 7.984,0.281 7.999,0.341 8.034,0.491 8.067,0.639 8.098,0.786 H 8.109 L 8.235,0.173 7.957,0.167 m 6.949,0.145 0.21,0.621 h 0.017 L 15.338,0.321 14.906,0.312"
             style="fill:#4d507b;fill-opacity:1;fill-rule:nonzero;stroke:none"
             id="path10503"
             inkscape:connector-curvature="0" />
        </g>
        <g
           id="g10505"
           transform="translate(302.7108,453.439)">
          <path
             d="m 0,0 -0.266,1.23 c 0.038,0.019 0.082,0.035 0.131,0.048 0.049,0.014 0.105,0.02 0.17,0.02 0.086,0 0.156,-0.015 0.209,-0.045 C 0.297,1.223 0.331,1.164 0.346,1.077 L 0.555,0.012 0,0 M 1.357,0.028 1.604,1.009 C 1.63,1.104 1.676,1.175 1.742,1.225 1.808,1.274 1.906,1.298 2.034,1.298 2.17,1.298 2.278,1.27 2.357,1.213 L 2.647,0.055 2.126,0.045 2,0.658 H 1.989 C 1.959,0.511 1.926,0.363 1.89,0.214 1.875,0.153 1.861,0.095 1.848,0.039 L 1.357,0.028 M 3.475,0.073 3.666,1.094 C 3.681,1.17 3.714,1.223 3.765,1.253 3.816,1.283 3.881,1.298 3.96,1.298 4.017,1.298 4.07,1.292 4.119,1.278 4.168,1.265 4.207,1.253 4.238,1.242 L 3.992,0.084 3.475,0.073"
             style="fill:#ffffff;fill-opacity:1;fill-rule:nonzero;stroke:none"
             id="path10507"
             inkscape:connector-curvature="0" />
        </g>
        <g
           id="g10509"
           transform="translate(307.4922,453.5392)">
          <path
             d="M 0,0 V 0.926 C 0,1.002 0.018,1.064 0.054,1.113 0.09,1.162 0.168,1.187 0.289,1.187 H 2.198 C 2.205,1.16 2.212,1.123 2.218,1.076 2.223,1.029 2.226,0.981 2.226,0.932 2.226,0.834 2.204,0.765 2.161,0.725 2.118,0.685 2.066,0.666 2.005,0.666 H 0.572 V 0.012 L 0,0"
             style="fill:#ffffff;fill-opacity:1;fill-rule:nonzero;stroke:none"
             id="path10511"
             inkscape:connector-curvature="0" />
        </g>
        <g
           id="g10513"
           transform="translate(310.9666,453.612)">
          <path
             d="M 0,0 0.383,1.091 C 0.534,1.121 0.659,1.137 0.757,1.137 0.836,1.137 0.903,1.131 0.958,1.12 1.013,1.108 1.058,1.089 1.094,1.063 1.13,1.036 1.16,1.003 1.185,0.964 1.209,0.924 1.233,0.874 1.255,0.814 L 1.527,0.032 0.973,0.02 0.768,0.632 H 0.751 L 0.542,0.011 0,0"
             style="fill:#ffffff;fill-opacity:1;fill-rule:nonzero;stroke:none"
             id="path10515"
             inkscape:connector-curvature="0" />
        </g>
        <g
           id="g10517"
           transform="translate(314.216,453.6801)">
          <path
             d="m 0,0 v 0.525 h -1.15 c -0.015,0.056 -0.023,0.141 -0.023,0.255 0,0.109 0.022,0.181 0.065,0.215 0.044,0.034 0.101,0.051 0.173,0.051 H 1.711 C 1.726,0.989 1.733,0.91 1.733,0.808 1.733,0.619 1.654,0.525 1.495,0.525 H 0.572 V 0.012 L 0,0"
             style="fill:#ffffff;fill-opacity:1;fill-rule:nonzero;stroke:none"
             id="path10519"
             inkscape:connector-curvature="0" />
        </g>
        <g
           id="g10521"
           transform="translate(316.4308,453.7265)">
          <path
             d="m 0,0 v 0.773 c 0,0.064 0.022,0.12 0.065,0.167 0.044,0.047 0.12,0.071 0.23,0.071 0.117,0 0.209,-0.01 0.277,-0.029 V 0.012 L 0,0 m 2.373,0.05 v 0.723 c 0,0.064 0.022,0.12 0.066,0.167 0.043,0.047 0.119,0.071 0.229,0.071 0.053,0 0.106,-0.003 0.159,-0.009 C 2.879,0.997 2.921,0.99 2.951,0.982 V 0.062 L 2.373,0.05"
             style="fill:#ffffff;fill-opacity:1;fill-rule:nonzero;stroke:none"
             id="path10523"
             inkscape:connector-curvature="0" />
        </g>
        <g
           id="g10525"
           transform="translate(323.7494,453.8798)">
          <path
             d="m 0,0 v 0.325 h 0.651 c 0.25,0 0.433,-0.052 0.55,-0.156 0.045,-0.04 0.082,-0.088 0.11,-0.142 L 0,0"
             style="fill:#4d507b;fill-opacity:1;fill-rule:nonzero;stroke:none"
             id="path10527"
             inkscape:connector-curvature="0" />
        </g>
        <g
           id="g10529"
           transform="translate(320.2317,453.8061)">
          <path
             d="M 0,0 V 0.659 C 0,0.735 0.018,0.797 0.054,0.846 0.09,0.895 0.168,0.92 0.289,0.92 H 2.198 C 2.205,0.893 2.212,0.856 2.218,0.809 2.223,0.762 2.226,0.714 2.226,0.665 2.226,0.567 2.204,0.498 2.161,0.458 2.118,0.418 2.066,0.399 2.005,0.399 H 0.572 V 0.012 L 0,0"
             style="fill:#ffffff;fill-opacity:1;fill-rule:nonzero;stroke:none"
             id="path10531"
             inkscape:connector-curvature="0" />
        </g>
        <g
           id="g10533"
           transform="translate(323.1716,453.8678)">
          <path
             d="M 0,0 V 0.598 C 0,0.673 0.018,0.735 0.054,0.784 0.09,0.833 0.17,0.858 0.295,0.858 H 1.229 C 1.648,0.858 1.97,0.757 2.195,0.555 2.346,0.419 2.446,0.252 2.496,0.052 L 1.889,0.04 C 1.861,0.094 1.824,0.141 1.779,0.181 1.662,0.285 1.478,0.337 1.229,0.337 H 0.578 V 0.012 L 0,0"
             style="fill:#ffffff;fill-opacity:1;fill-rule:nonzero;stroke:none"
             id="path10535"
             inkscape:connector-curvature="0" />
        </g>
      </g>
    </g>
    <g
       id="g10537"
       transform="matrix(7.5429294,0,0,-7.5429294,-2137.6018,3544.0248)">
      <g
         id="g10539"
         clip-path="url(#clipPath10543)">
        <g
           id="g10545"
           transform="translate(301.7478,459.7127)">
          <path
             d="m 0,0 c 0,-0.646 -0.422,-1.117 -1.279,-1.211 -0.622,-0.066 -1.521,0.012 -1.948,0.061 -0.016,0.07 -0.028,0.157 -0.028,0.225 0,0.565 0.305,0.694 0.591,0.694 0.297,0 0.765,-0.052 1.114,-0.052 0.382,0 0.499,0.131 0.499,0.254 0,0.162 -0.155,0.23 -0.452,0.286 l -0.813,0.157 c -0.677,0.129 -1.038,0.598 -1.038,1.095 0,0.604 0.428,1.109 1.268,1.202 0.636,0.069 1.41,-0.008 1.834,-0.061 0.016,-0.073 0.024,-0.141 0.024,-0.217 0,-0.563 -0.297,-0.685 -0.583,-0.685 -0.22,0 -0.561,0.041 -0.951,0.041 -0.397,0 -0.561,-0.11 -0.561,-0.243 0,-0.141 0.157,-0.199 0.405,-0.243 L -1.141,1.159 C -0.342,1.012 0,0.558 0,0 m 1.395,-0.693 c 0,-0.347 -0.136,-0.546 -0.812,-0.546 -0.089,0 -0.168,0.006 -0.243,0.017 v 4.595 c 0,0.348 0.119,0.712 0.802,0.712 0.086,0 0.173,-0.008 0.253,-0.025 v -4.753 m 2.764,-1.778 c 0.088,-0.045 0.271,-0.1 0.5,-0.106 0.392,-0.009 0.606,0.142 0.765,0.493 L 7.53,2.615 C 7.443,2.662 7.251,2.714 7.093,2.717 6.823,2.722 6.459,2.667 6.227,2.113 L 5.545,0.503 4.207,2.682 C 4.121,2.708 3.91,2.746 3.755,2.746 3.284,2.746 3.02,2.572 2.746,2.275 L 1.445,0.852 2.491,-0.794 c 0.193,-0.3 0.448,-0.453 0.862,-0.453 0.271,0 0.496,0.061 0.6,0.111 L 2.694,0.764 3.586,1.71 5.051,-0.589 4.159,-2.471"
             style="fill:#0c0a00;fill-opacity:1;fill-rule:nonzero;stroke:none"
             id="path10547"
             inkscape:connector-curvature="0" />
        </g>
        <g
           id="g10549"
           transform="translate(300.4996,459.9038)">
          <path
             d="M 0,0 C -0.067,0.025 -0.149,0.046 -0.249,0.065 -0.149,0.046 -0.065,0.025 0.002,0 H 0 m -0.251,0.065 c 0,0.001 0,0.001 0,0.001 0,0 0,0 0,-0.001 m -0.002,0.001 c 0,0 -0.001,0 -0.001,0 l -0.814,0.157 c -0.677,0.129 -1.038,0.598 -1.038,1.094 0,-0.496 0.361,-0.965 1.038,-1.094 l 0.814,-0.157 c 0,0 0.001,0 0.001,0 m 0.369,0.9 c 0,0 -0.001,0 -0.001,0 0,0 0.001,0 0.001,0 M 0.112,0.967 c 0,0 -0.001,0 -0.001,0 0,0 0.001,0 0.001,0 M 0.996,2.459 C 0.995,2.459 0.994,2.46 0.993,2.46 0.994,2.46 0.995,2.459 0.996,2.459 M 0.993,2.46 c -0.002,0 -0.003,0 -0.004,0 0.001,0 0.002,0 0.004,0 M 0.982,2.461 c -0.003,0 -0.005,0.001 -0.007,0.001 0.002,0 0.004,-0.001 0.007,-0.001 M 0.974,2.462 C 0.97,2.463 0.966,2.463 0.963,2.463 c 0.003,0 0.007,0 0.011,-10e-4 M -0.837,2.52 c 0.003,10e-4 0.007,10e-4 0.01,10e-4 -0.003,0 -0.007,0 -0.01,-10e-4 m 0.016,0.002 c 0.174,0.018 0.358,0.025 0.542,0.025 -0.184,0 -0.368,-0.007 -0.542,-0.025 m 0.543,0.025 v 0 0"
             style="fill:#ffffff;fill-opacity:1;fill-rule:nonzero;stroke:none"
             id="path10551"
             inkscape:connector-curvature="0" />
        </g>
        <g
           id="g10553"
           transform="translate(300.5015,459.9039)">
          <path
             d="m 0,0 c -0.067,0.025 -0.151,0.046 -0.251,0.065 -0.001,0 -0.001,0 -0.002,0 0,0 0,0 0,0.001 -0.001,0 -0.001,0 -0.002,0 0,0 -0.001,0 -0.001,0 l -0.813,0.157 c -0.677,0.129 -1.039,0.598 -1.039,1.094 0,0.604 0.428,1.11 1.269,1.203 0.003,10e-4 0.007,10e-4 0.01,10e-4 0.002,0 0.004,10e-4 0.006,10e-4 0.174,0.018 0.358,0.025 0.542,0.025 h 0.001 v 0 c 0.467,0 0.935,-0.047 1.241,-0.084 0.004,0 0.007,-10e-4 0.011,-10e-4 0,0 0.001,0 0.001,0 0.002,0 0.004,-0.001 0.007,-0.001 0.002,0 0.005,-10e-4 0.007,-10e-4 0.001,0 0.003,0 0.004,0 0,0 0,0 0,0 0.001,0 0.002,-10e-4 0.003,-10e-4 C 1.01,2.386 1.018,2.317 1.018,2.242 1.018,1.678 0.721,1.557 0.435,1.557 c -0.22,0 -0.561,0.041 -0.951,0.041 -0.396,0 -0.561,-0.11 -0.561,-0.243 0,-0.141 0.157,-0.2 0.405,-0.243 L 0.106,0.968 c 0.001,0 0.002,-0.001 0.003,-0.001 0,0 0.001,0 0.001,0 0.001,0 0.002,0 0.003,-0.001 0,0 0.001,0 0.001,0 C 0.788,0.84 1.134,0.493 1.222,0.05 L 0,0"
             style="fill:#36342f;fill-opacity:1;fill-rule:nonzero;stroke:none"
             id="path10555"
             inkscape:connector-curvature="0" />
        </g>
        <g
           id="g10557"
           transform="translate(303.5344,460.0274)">
          <path
             d="M 0,0 -0.342,0.538 0.959,1.96 c 0.274,0.297 0.538,0.471 1.01,0.471 0.154,0 0.365,-0.038 0.451,-0.064 L 3.758,0.188 4.44,1.798 c 0.224,0.534 0.57,0.605 0.837,0.605 0.01,0 0.02,0 0.03,0 C 5.465,2.399 5.657,2.347 5.744,2.3 L 4.8,0.195 2.621,0.107 1.8,1.395 0.907,0.449 1.173,0.048 0,0"
             style="fill:#36342f;fill-opacity:1;fill-rule:nonzero;stroke:none"
             id="path10559"
             inkscape:connector-curvature="0" />
        </g>
        <g
           id="g10561"
           transform="translate(302.088,459.9685)">
          <path
             d="M 0,0 V 3.117 C 0,3.466 0.119,3.83 0.802,3.83 0.888,3.83 0.974,3.821 1.055,3.804 V 0.043 L 0,0"
             style="fill:#36342f;fill-opacity:1;fill-rule:nonzero;stroke:none"
             id="path10563"
             inkscape:connector-curvature="0" />
        </g>
      </g>
    </g>
  </g>
</svg>
