<svg
   xmlns="http://www.w3.org/2000/svg"
   xmlns:xlink="http://www.w3.org/1999/xlink"
   fill="none"
   viewBox="0 0 1033.5 250"
   id="svg32">
  <linearGradient
     id="a"
     gradientUnits="userSpaceOnUse"
     x1="50.370098"
     x2="50.370098"
     y1="0"
     y2="32"
     gradientTransform="scale(7.9268901,7.8125)">
    <stop
       offset=".4"
       stop-color="#e90e10"
       id="stop2" />
    <stop
       offset="1"
       stop-color="#bc0000"
       id="stop4" />
  </linearGradient>
  <linearGradient
     id="b">
    <stop
       offset="0"
       stop-color="#fff"
       id="stop7" />
    <stop
       offset="1"
       stop-color="#fff"
       stop-opacity=".25"
       id="stop9" />
  </linearGradient>
  <linearGradient
     id="c"
     gradientUnits="userSpaceOnUse"
     x1="126.877"
     x2="126.85"
     xlink:href="#b"
     y1="14.9546"
     y2="-0.98253202"
     gradientTransform="scale(7.9268901,7.8125)" />
  <linearGradient
     id="d"
     gradientUnits="userSpaceOnUse"
     x1="36.674801"
     x2="36.617699"
     xlink:href="#b"
     y1="16.771999"
     y2="6.0527301"
     gradientTransform="scale(7.9268901,7.8125)" />
  <path
     d="M 1016.8377,0 H 416.02618 c -9.16666,0 -16.66629,7.5 -16.66629,16.666641 V 233.33359 C 399.35989,242.5 406.85952,250 416.02618,250 h 600.81152 c 9.1635,0 16.6623,-7.5 16.6623,-16.66641 V 16.666641 C 1033.5,7.5 1026.0012,0 1016.8377,0 Z"
     fill="url(#a)"
     id="path14" />
  <path
     d="m 411.23437,123.95859 h 1.66703 c 49.37263,-1.66718 608.1058,-21.25 608.1058,-21.25 C 1027.2536,102.5 1033.5,97.916406 1033.5,90 V 16.666641 C 1033.5,7.5 1026.0012,0 1016.8377,0 H 416.02618 c -9.16666,0 -16.66629,7.5 -16.66629,16.666641 V 137.08359 c 0,-1.45859 0.20848,-11.875 11.87448,-13.125 z"
     fill="url(#c)"
     opacity="0.35"
     id="path16" />
  <path
     clip-rule="evenodd"
     d="m 157.91078,173.125 c 0,11.45859 -4.58332,18.125 -27.08222,18.125 -2.9163,0 -5.62492,-0.20859 -8.12506,-0.625 V 38.124922 c 0,-11.666641 3.95869,-23.75 26.66606,-23.75 2.9163,0 5.83261,0.208359 8.54122,0.833359 z m 91.87187,58.95859 c 2.9163,1.45782 8.95738,3.33282 16.66549,3.54141 13.12455,0.20859 20.20802,-4.79141 25.41599,-16.45859 L 361.86174,63.333438 c -2.9171,-1.45836 -9.37513,-3.33336 -14.5831,-3.33336 C 338.32046,59.791797 326.2375,61.666797 318.52939,80 l -22.70736,53.33359 -44.37315,-72.291793 c -2.9163,-0.833359 -9.99977,-2.083359 -14.99926,-2.083359 -15.83317,0 -24.58287,5.833359 -33.54026,15.625 L 159.57702,121.66641 194.36734,176.25 c 6.45883,10 14.79158,15 28.54077,15 8.95818,0 16.45781,-2.08359 19.99955,-3.75 l -41.8738,-62.70859 29.58236,-31.457816 48.748,76.249996 z m -180.826871,-41.875 c 28.540213,-3.125 42.498671,-18.75 42.498671,-40.20859 0,-18.54141 -11.458317,-33.54141 -37.707183,-37.91641 L 47.91488,107.29141 c -8.333064,-1.45782 -13.54119,-3.33282 -13.54119,-8.125004 0,-4.582812 5.416524,-8.125 18.540996,-8.125 7.519686,0 14.423849,0.410157 20.320742,0.760938 4.395302,0.260937 8.230807,0.489062 11.344489,0.489062 9.58361,0 19.374903,-3.957812 19.374903,-22.708203 0,-2.5 -0.41695,-5 -0.83391,-7.29164 C 88.954768,60.416562 63.122618,57.916562 42.081719,60.208203 14.166145,63.124922 0,80 0,100 c 0,16.45859 12.082879,32.08359 34.582009,36.25 l 27.082379,5.20859 c 9.999613,2.08282 14.99942,4.16641 14.99942,9.58282 0,3.95859 -3.958214,8.33359 -16.666049,8.33359 -6.088486,0 -13.254949,-0.45391 -20.107825,-0.88828 -6.278018,-0.39766 -12.292783,-0.77813 -16.974088,-0.77813 -9.582975,0 -19.5826363,4.16641 -19.5826363,22.91641 0,2.29141 0.4166532,5.20859 0.8332985,7.5 14.1661688,1.66641 44.1650088,4.375 64.7892708,2.08359 z"
     fill="#ebebeb"
     fill-rule="evenodd"
     id="path18" />
  <path
     clip-rule="evenodd"
     d="m 149.36956,14.374922 c -22.70737,0 -26.45758,12.083359 -26.45758,23.75 V 142.70859 c 0,-4.16718 3.33326,-8.54218 8.54122,-8.75 1.79386,-0.1 5.15962,-0.19922 8.52537,-0.29922 h 0.002 c 3.67094,-0.10859 7.34268,-0.21718 8.97245,-0.32578 3.54173,-0.20859 8.7497,-2.5 8.95817,-8.95859 V 15.208281 c -2.70782,-0.416718 -5.62492,-0.833359 -8.54122,-0.833359 z m 102.07932,46.666875 43.33155,70.416793 c -1.66623,-2.29218 -3.74942,-3.33359 -5.62492,-3.33359 -0.65318,0 -8.08146,0.28516 -15.17207,0.55625 h -7.9e-4 c -6.47231,0.24844 -12.66241,0.48516 -13.15943,0.48516 -1.24928,0 -6.66572,0 -10.20746,-4.79141 l -19.99954,-31.25 -29.58236,31.45859 7.70811,11.66641 c -2.08319,-2.70859 -5.41645,-5 -10.83289,-4.79141 -0.78635,0 -5.8445,0.18594 -11.18564,0.38204 h -0.002 -7.9e-4 -8e-4 c -5.97132,0.21875 -12.29381,0.45078 -13.39327,0.45078 -5.8334,0.20859 -8.7497,-3.125 -10.20825,-5.20782 l -3.54173,-5.41718 43.33234,-47.082972 c 8.95739,-9.791641 17.70709,-15.625 33.54026,-15.625 4.99949,0 12.08296,1.25 14.99926,2.083359 z m 84.78839,59.374613 25.62447,-57.083129 c -2.9171,-1.666719 -9.37513,-3.333359 -14.37462,-3.333359 C 338.52894,59.791562 326.44598,61.666562 318.73787,80 l -21.98523,51.85391 c -0.0159,0.0359 -0.0301,0.0672 -0.042,0.0953 -0.01,0.0211 -0.0174,0.0406 -0.0246,0.057 l -0.0301,0.0773 0.0967,-0.22968 c 0.38683,-0.84688 1.96983,-3.75938 5.52742,-3.9375 0,0 21.66578,-0.83282 23.3328,-0.83282 6.94396,-0.20468 9.68349,-5.01484 10.57368,-6.57734 z M 47.706561,106.875 l 25.832308,4.79141 c 26.457264,4.7914 37.915581,19.7914 38.123271,38.33359 0,1.30156 0,2.4375 -0.14824,3.55547 0.32501,-9.63203 -6.07754,-18.75 -17.142688,-18.34766 -2.046723,0.0859 -7.062067,0.24063 -12.486438,0.4086 -7.824633,0.24218 -16.500059,0.51015 -18.345518,0.63359 -9.999614,0.41641 -23.124086,-0.41719 -28.957247,-1.45859 -7.083072,-1.25 -13.957747,-3.125 -20.832501,-7.5 C 4.5831614,120.20781 0,110.20781 0,100 0,80 14.166145,63.124844 41.8734,59.791484 c 21.249218,-2.29164 46.87289,0.416719 61.03904,2.08336 0.62543,2.5 0.8339,4.79164 0.8339,7.29164 0,18.749922 -9.79129,22.708516 -19.3749,22.708516 -3.127951,0 -7.022591,-0.230469 -11.470527,-0.492969 -5.91996,-0.35 -12.819525,-0.757031 -20.194545,-0.757031 -13.124552,0 -18.540996,3.75 -18.540996,8.125 0,4.79141 5.208125,6.66641 13.541189,8.125 z m 63.807339,46.68047 c -0.0174,0.13437 -0.0373,0.26875 -0.0595,0.40234 v 0.2086 0.4164 c 0.0285,-0.34218 0.0484,-0.68515 0.0595,-1.02734 z"
     fill="url(#d)"
     fill-rule="evenodd"
     id="path20" />
  <g
     fill="#ffffff"
     id="g30"
     transform="scale(7.9268901,7.8125)">
    <path
       d="m 70.1699,14.7733 v 8.1334 c 0,0.5866 -0.3416,0.9866 -1.3666,0.9866 -0.4205,0 -0.9198,-0.0533 -1.1826,-0.1333 v -8.64 c 0,-3.0133 -1.4455,-4.4533 -3.6531,-4.4533 -1.7082,0 -3.5479,1.2 -4.31,2.6133 v 9.6533 c 0,0.5867 -0.3417,0.9867 -1.3666,0.9867 -0.4205,0 -0.9199,-0.0533 -1.1827,-0.1333 V 8.64001 c 0.2366,-0.05333 0.7359,-0.13333 1.1827,-0.13333 1.0249,0 1.3666,0.37333 1.3666,0.98667 v 1.27995 c 1.0775,-1.35995 2.7332,-2.42662 4.9145,-2.42662 3.0486,0 5.5978,1.94662 5.5978,6.42662 z"
       id="path22" />
    <path
       clip-rule="evenodd"
       d="m 75.794,17.12 h 11.511 c 0.0789,-0.5333 0.1052,-1.0667 0.0526,-1.52 0,-3.6533 -2.2602,-7.25332 -6.833,-7.25332 -4.0473,0 -7.3587,3.25332 -7.3587,7.78662 0,4.72 3.1275,7.8934 7.7792,7.8934 2.155,0 4.1786,-0.6667 5.519,-1.2534 C 86.5955,21.3867 86.1224,20.8 85.4128,20.8 c -0.2146,0 -0.4291,0.0711 -0.8583,0.2133 -0.0965,0.032 -0.2038,0.0676 -0.3243,0.1067 -0.9199,0.32 -1.9185,0.56 -3.18,0.56 -2.9435,0 -4.9145,-1.6267 -5.2562,-4.56 z m 9.1458,-2 H 75.794 c 0.3942,-2.9867 2.4704,-4.5867 4.7831,-4.5867 2.6281,0 4.2575,2 4.3627,4.5867 z"
       fill-rule="evenodd"
       id="path24" />
    <path
       d="m 110.748,8.88004 -3.943,13.89336 c -0.236,0.88 -0.893,1.0933 -1.839,1.0933 -0.526,0 -1.051,-0.1067 -1.498,-0.2133 L 99.7096,11.44 96.188,22.7734 c -0.2891,0.88 -0.9724,1.0933 -1.7871,1.0933 -0.5257,0 -1.1038,-0.1067 -1.5506,-0.2133 L 88.6454,8.88004 c 0.3679,-0.18667 1.0512,-0.37333 1.6031,-0.37333 0.7096,0 1.0775,0.21333 1.2615,0.90666 L 94.4797,21.0134 H 94.506 L 98.1853,8.88004 c 0.4205,-0.24 0.9987,-0.37333 1.5769,-0.37333 0.9728,0 1.4978,0.21333 1.7608,1.12 l 3.416,11.35999 h 0.027 l 2.891,-11.59999 c 0.184,-0.69334 0.552,-0.90667 1.261,-0.90667 0.631,0.02667 1.262,0.21333 1.63,0.4 z"
       id="path26" />
    <path
       d="m 112.43,22.9867 c -0.184,-1.3067 0.21,-2 0.972,-2 0.71,0 2.444,0.7733 4.862,0.7733 2.549,0 3.495,-0.9067 3.495,-2.1067 0,-0.8533 -0.368,-1.6 -2.654,-2.24 l -2.628,-0.72 c -2.917,-0.7733 -4.047,-2.2666 -4.047,-4.08 0,-2.2666 1.76,-4.26662 5.755,-4.26662 1.787,0 4.021,0.4 5.388,0.93333 0.236,1.27999 -0.158,1.97329 -0.92,1.97329 -0.684,0 -2.234,-0.6666 -4.415,-0.6666 -2.366,0 -3.233,0.8266 -3.233,1.8933 0,0.7467 0.342,1.44 2.444,2.0533 l 2.681,0.7467 c 2.996,0.8533 4.205,2.2667 4.205,4.2667 0,2.3466 -1.787,4.4533 -6.124,4.4533 -1.944,0.0267 -4.336,-0.4533 -5.781,-1.0133 z"
       id="path28" />
  </g>
</svg>
