<?xml version="1.0" encoding="utf-8"?>
<!-- Generator: Adobe Illustrator 16.0.0, SVG Export Plug-In . SVG Version: 6.00 Build 0)  -->
<!DOCTYPE svg PUBLIC "-//W3C//DTD SVG 1.1//EN" "http://www.w3.org/Graphics/SVG/1.1/DTD/svg11.dtd">
<svg version="1.1" id="Layer_1" xmlns="http://www.w3.org/2000/svg" xmlns:xlink="http://www.w3.org/1999/xlink" x="0px" y="0px"
	 width="1000px" height="463.723px" viewBox="0 0 1000 463.723" enable-background="new 0 0 1000 463.723" xml:space="preserve">
<g>
	<path fill="#FFDD00" d="M527.108,427.674c-3.225-66.169-53.978-116.687-118.751-116.687c-64.772,0-117.296,52.499-117.296,117.271
		c0,1.128,0.049,2.239,0.083,3.351c0.317,13.554,109.125,40.166,230.298,16.244C529.531,446.222,527.409,433.814,527.108,427.674
		 M431.954,365.742c9.358-20.021,22.377-27.925,28.459-23.405c6.468,4.789,3.493,17.723-10.478,32.789
		c-12.885,13.878-24.649,23.746-27.591,21.731C419.254,394.678,423.582,383.646,431.954,365.742 M407.021,324.039
		c8.039,0.358,12.818,12.751,9.659,33.047c-2.908,18.725-7.152,33.489-10.695,33.438c-3.777-0.05-6.367-11.621-9.459-31.141
		C393.083,337.558,399.451,323.696,407.021,324.039 M353.628,338.603c6.835-4.228,17.764,3.284,26.605,21.834
		c8.172,17.095,13.018,31.675,10.043,33.647c-3.158,2.089-11.814-6.008-25.384-20.38
		C349.75,357.612,347.177,342.588,353.628,338.603 M344.337,431.477c-21.825,3.433-35.679-2.925-35.345-10.496
		c0.368-8.037,12.75-12.817,33.055-9.668c18.7,2.907,33.49,7.137,33.439,10.697C375.437,425.794,363.855,428.375,344.337,431.477
		 M380.032,405.306c-1.42,3.51-13.135,1.746-32.453-2.441c-21.608-4.677-32.22-15.624-29.145-22.559
		c3.225-7.353,16.511-7.336,34.292,2.941C369.119,392.729,381.369,402.021,380.032,405.306 M404.08,442.89
		c-10.862,0-19.669-8.815-19.669-19.661c0-10.871,8.807-19.686,19.669-19.686c10.863,0,19.669,8.814,19.669,19.686
		C423.749,434.074,414.942,442.89,404.08,442.89 M432.004,410.704c-1.638-3.41,7.537-10.905,23.596-22.42
		c17.964-12.858,33.205-13.385,36.297-6.475c3.292,7.361-5.649,17.188-25.202,23.463
		C448.648,411.055,433.542,413.896,432.004,410.704 M469.604,438.896c-18.716-2.992-33.457-7.304-33.389-10.862
		c0.066-3.761,11.647-6.318,31.2-9.292c21.824-3.334,35.662,3.1,35.26,10.645C502.292,437.424,489.892,442.153,469.604,438.896"/>
	<path fill="#EEB111" d="M405.399,390.399c-2.206-4.738-4.11-14.406-6.233-27.859c-3.442-21.814,2.941-35.678,10.496-35.334
		c1.704,0.083,3.258,0.735,4.628,1.863c-1.838-3.142-4.328-4.889-7.27-5.03c-7.57-0.343-13.937,13.519-10.495,35.336
		C399.451,377.858,401.94,389.188,405.399,390.399"/>
	<path fill="#EEB111" d="M322.312,391.101c-1.772-2.724-2.223-5.39-1.253-7.612c3.258-7.376,16.527-7.36,34.325,2.926
		c10.745,6.207,19.669,12.341,24.181,16.752c-2.439-4.277-13.186-12.03-26.838-19.919c-17.781-10.286-31.067-10.304-34.292-2.925
		C317.064,383.422,318.451,387.325,322.312,391.101"/>
	<path fill="#EEB111" d="M356.269,341.778c4.328-2.683,10.277-0.652,16.327,5.907c-6.901-9.007-14.021-12.149-18.967-9.075
		c-6.149,3.803-4.077,17.648,9.275,32.871C351.94,357.536,350.553,345.304,356.269,341.778"/>
	<path fill="#EEB111" d="M424.016,397.024c0.15-4.754,4.178-14.421,10.578-28.117c9.224-19.76,22.025-27.698,28.209-23.544
		c-0.552-1.214-1.337-2.239-2.39-3.026c-6.083-4.52-19.101,3.384-28.459,23.412c-8.372,17.897-12.7,28.936-9.609,31.108
		C422.746,397.134,423.314,397.167,424.016,397.024"/>
	<path fill="#EEB111" d="M458.241,391.453c14.989-10.73,28.075-12.853,33.79-9.242c-0.049-0.142-0.083-0.259-0.133-0.394
		c-3.092-6.918-18.317-6.4-36.281,6.467c-16.076,11.498-25.251,19.01-23.613,22.42c0.317,0.668,1.27,1.062,2.673,1.227
		C436.098,407.979,444.722,401.137,458.241,391.453"/>
	<path fill="#EEB111" d="M311.649,424.148c0.351-8.04,12.734-12.81,33.038-9.667c13.92,2.154,25.636,5.046,30.732,7.853
		c0.017-0.116,0.05-0.217,0.066-0.341c0.05-3.536-14.723-7.779-33.439-10.681c-20.304-3.141-32.687,1.631-33.038,9.668
		c-0.1,2.248,1.069,4.37,3.309,6.183C311.833,426.188,311.6,425.191,311.649,424.148"/>
	<path fill="#EEB111" d="M470.039,421.9c15.325-2.34,26.672,0.143,31.969,4.419c-2.975-6.089-15.809-10.46-34.592-7.586
		c-19.552,2.998-31.134,5.532-31.2,9.308c-0.018,0.911,0.935,1.872,2.707,2.858C439.625,427.289,451.071,424.808,470.039,421.9"/>
	<path fill="#EEB111" d="M387.051,426.386c0-10.869,8.807-19.659,19.652-19.659c5.365,0,10.194,2.122,13.753,5.571
		c-3.526-5.272-9.558-8.755-16.376-8.755c-10.879,0-19.669,8.807-19.669,19.677c0,5.524,2.272,10.503,5.932,14.08
		C388.271,434.165,387.051,430.423,387.051,426.386"/>
	<path fill="#EEB111" d="M527.108,427.666c-2.322-47.688-29.345-87.234-68.5-105.616c33.071,19.033,57.37,57.068,59.442,99.374
		c0.301,5.892,2.307,17.729-5.397,19.334c-110.212,23.055-195.389,1.973-221.508-15.517c-0.017,1.012-0.067,1.998-0.067,3.01
		c0,1.128,0.051,2.239,0.083,3.374c0.301,13.537,109.108,40.143,230.299,16.22C529.515,446.24,527.393,433.814,527.108,427.666"/>
	<path fill="#FFDD00" d="M72.745,394.61c0,0-53.51-71.09,89.422-231.602C305.115,2.496,503.83-14.307,607.021,7.852
		c103.192,22.159,223.18,65.734,337.835,217.84c114.656,152.098,28.276,188.79-58.104,212.486
		c-86.364,23.703-213.103,51.987-304.947-22.929c-78.744-64.205-77.975-120.012-171.994-120.765
		c-95.02-0.769-125.351,107.771-197.962,131.46C144.052,448.071,91.846,431.301,72.745,394.61"/>
	<path fill="#EEB111" d="M82.738,277.438c13.202-25.894,32.922-57.228,62.2-94.36C114.807,219.458,95.188,250.843,82.738,277.438"/>
	<path fill="#EEB111" d="M944.856,225.692c-6.667-8.848-13.352-17.321-20.053-25.451c104.479,142.156,31.885,193.184-57.538,216.337
		c-83.339,21.583-204.813,49.95-293.082-22.042c-75.669-61.707-74.933-115.317-165.274-116.053
		c-91.328-0.735-113.587,92.238-190.258,126.338c-77.341,34.416-120.957,16.209-144.202-7.137
		c20.404,34.534,71.541,49.768,137.399,28.276c72.611-23.705,102.942-132.245,197.979-131.477
		c93.984,0.769,93.232,56.552,171.976,120.765c91.861,74.916,218.583,46.625,304.947,22.929
		C973.149,414.472,1059.513,377.799,944.856,225.692"/>
	<path fill="#EEB111" d="M785.682,229.335c16.294,0,29.563-13.261,29.563-29.545c0-16.294-13.269-29.554-29.563-29.554
		c-16.293,0-29.546,13.26-29.546,29.554C756.136,216.075,769.389,229.335,785.682,229.335"/>
	<path fill="#EEB111" d="M944.856,225.842c-17.413-23.12-34.959-43.708-52.556-62.107c-8.725,13.285-11.265,29.403-6.617,42.497
		c0.115,0.284,0.249,0.576,0.351,0.869c-7.588-4.554-17.014-7.545-28.761-7.236c-12.501,0.326-23.063,5.64-30.499,15.399
		c-6.233,8.164-9.909,19.218-10.812,31.368c-5.715-7.653-14.405-10.679-22.293-10.679c-1.069,0-1.888,0.05-2.356,0.101
		c-7.453,0.769-13.52,4.061-17.563,9.483c-4.027,5.423-5.465,12.183-5.715,18.583c-0.753-0.944-1.521-1.83-2.34-2.665
		c-6.384-6.459-14.84-9.584-25.302-9.301c-1.219,0.042-2.372,0.059-3.442,0.059c-2.355,0-4.077-0.092-5.313-0.209
		c0.385-1.044,0.802-2.205,1.203-3.25l0.518-1.403c6-16.294,8.94-26.321,10.16-34.651c1.822-12.65-3.81-27.983-20.521-31.727
		c-2.908-0.652-5.816-0.978-8.59-0.978c-8.522,0-28.727,3.542-32.62,36.348l-0.034,0.326c-0.016,0.184-0.869,10.795-3.459,24.849
		c-0.117-9.275-2.271-17.012-6.451-23.086c-5.063-7.345-12.733-11.916-22.826-13.57c-4.195-0.702-6.869-1.321-8.573-1.813
		c0.567-0.978,1.203-2.022,1.804-2.983l0.753-1.262c8.991-14.856,13.804-24.148,16.577-32.103
		c4.212-12.065,1.588-28.183-14.104-35.035c-4.897-2.139-9.76-3.234-14.49-3.234c-10.527,0-24.748,5.239-32.686,30.106l-0.102,0.326
		c-0.082,0.309-8.64,30.991-23.312,55.272c-0.985,1.638-1.988,3.233-2.975,4.771c11.563-22.535,17.497-47.369,18.834-55.958
		c1.137-7.378,0.017-13.428-3.393-18.015c-3.158-4.278-7.938-6.902-14.204-7.788c-1.555-0.225-3.092-0.342-4.579-0.342
		c-13.186,0-22.561,8.54-27.874,25.376c-1.087,3.509-2.106,7.529-3.159,11.774c-2.858,11.497-7.202,30.907-14.672,31.107
		c-0.285,0-2.156-0.066-3.009-1.027c-1.37-2.34-1.036-7.855,8.223-23.404c0.534-0.911,1.504-2.332,2.59-3.986
		c9.074-13.586,18.517-29.211,15.809-42.664c-1.086-5.515-4.194-10.094-8.957-13.244c-5.364-3.559-10.813-5.356-16.227-5.356
		c-7.62,0-18.666,3.593-28.143,20.656l-0.1,0.167c-0.786,1.487-17.915,34.141-22.543,59.709c-3.876-8.573-12.3-13.987-15.775-16.21
		c-4.696-3.007-2.506-17.028-0.584-29.378l0.534-3.476c1.22-8.005,3.843-8.005,6.885-8.005c1.17,0,2.424,0.1,3.627,0.184
		c0.986,0.083,1.905,0.151,2.724,0.192c0.568,0.018,1.153,0.067,1.754,0.101c1.104,0.066,2.39,0.149,3.727,0.149
		c8.138,0,18.098-3.743,19.235-21.574c0.417-6.709-1.287-12.224-5.114-16.344c-6.785-7.311-17.346-7.445-25.033-7.529
		c-0.184,0-0.334-0.016-0.485-0.016c0.134-0.719,0.285-1.454,0.434-2.072c0.201-1.044,0.417-2.089,0.602-3.117
		c2.323-13.11,0.485-23.338-5.448-30.406c-4.68-5.582-11.648-8.656-19.619-8.656c-7.771,0-15.426,2.924-19.987,7.628
		c-8.473,8.749-5.883,20.706-4.179,28.626c0.385,1.696,0.769,3.542,0.97,4.963c-0.068,0-0.134,0-0.218,0
		c-2.557,0-6.2-0.426-10.428-0.919l-0.735-0.092c-8.138-0.953-15.107,1.646-19.435,7.177c-4.194,5.39-5.565,13.119-3.676,20.74
		c2.323,9.224,12.5,12.082,20.671,14.371c2.625,0.735,6.835,1.914,8.541,2.891c1.252,6.727-4.646,31.142-7.236,41.787
		c-0.352,1.47-0.702,2.891-1.037,4.278c-0.016-0.05-0.033-0.1-0.05-0.15c-2.473-5.991-6.918-10.319-12.834-12.525
		c-1.487-0.551-2.991-0.961-4.479-1.22c4.111-5.423,6.3-12.834,2.657-21.315c-4.896-11.447-17.931-41.896-53.776-42.731
		c-12.751-0.292-23.647,4.671-31.568,14.288c-10.996,13.344-15.191,35.219-10.963,57.069c1.889,9.651,5.181,18.792,9.576,27.022
		c-5.482-7.771-11.314-17.238-16.595-29.062c-1.755-3.969-3.526-8.055-5.297-12.183c-12.115-28.183-24.633-57.261-45.271-62.324
		c-10.795,8.146-21.44,16.929-31.885,26.336c0.819,9.977,5.782,22.334,15.023,37.409c1.905,3.133,7.972,15.742,14.372,29.111
		c1.387,2.875,2.824,5.882,4.295,8.933c-8.289-7.169-19.486-12.784-34.643-12.784c-1.253,0-2.54,0.033-3.827,0.117
		c-12.5,0.786-22.845,6.484-29.947,16.52c-10.06,14.238-12.5,36.547-6.333,58.213c4.044,14.146,11.18,26.897,20.137,37.016
		c-5.431-5.614-11.129-10.694-16.126-15.148c-2.189-1.93-4.211-3.743-5.982-5.39c-15.643-14.581-29.68-36.297-29.88-41.652
		c0-4.086,5.965-12,19.034-19.729c8.355-4.947,14.138-13.795,15.475-23.671c1.102-8.298-0.87-16.594-5.598-24.022
		c-36.782,42.179-59.81,78.033-73.848,107.88c1.454,2.047,2.958,4.604,3.911,6.158c0.452,0.784,0.919,1.537,1.354,2.256
		c0.886,1.437,2.975,5.289,5.632,10.169c11.448,21.015,32.721,60.128,46.625,73.17c7.955,7.463,17.43,11.572,26.688,11.572
		c15.258,0,27.607-10.736,33.088-28.735c5.649-18.583-3.007-33.981-15.692-47.919c11.264,11.363,23.48,17.204,37.267,18.249
		c1.805,0.15,3.576,0.217,5.297,0.217c21.224,0,36.732-10.52,43.65-29.62c3.46-9.535,4.295-19.144,2.491-27.04
		c9.04,7.479,17.529,9.008,22.877,9.008c6.033,0,11.965-1.83,17.146-5.289c5.966-3.969,9.76-9.826,10.963-16.895
		c1.704-10.161-2.257-20.723-7.086-28.109c8.874,8.214,19.151,13.771,29.847,15.517c3.575,0.585,7.068,0.894,10.411,0.894
		c18.6,0,33.105-9.241,40.842-26.011c0.835-1.78,1.554-3.576,2.189-5.373c1.035,3.827,2.623,7.336,4.779,10.386
		c5.131,7.302,13.186,11.773,23.262,12.901c2.056,0.226,4.128,0.343,6.133,0.343c16.862,0,29.846-8.281,35.194-17.664
		c2.674,21.825,17.296,37.225,32.236,41.469c5.632,1.588,11.197,2.39,16.562,2.39c11.598,0,22.175-3.776,31.316-11.038
		c-7.286,9.058-12.333,16.16-12.584,24.507c-0.501,15.693,11.498,28.887,26.756,29.438c4.444,0.15,4.444,0.15,6.115,4.036
		c0.2,0.477,0.401,0.961,0.603,1.454c3.776,8.523,16.26,21.198,35.26,21.198h0.017c6.418,0,13.152-1.421,20.021-4.236
		c14.79-6.091,26.153-16.686,34.409-28.585c-2.441,4.98-4.813,9.467-6.986,13.453c-6.601,12.341-11.363,21.257-9.876,30.564
		c2.223,13.754,14.188,24.132,27.857,24.132c1.354,0,2.707-0.109,4.011-0.326c1.104-0.175,2.056-0.26,2.841-0.26
		c1.872,0,1.872,0,3.944,3.068c0.284,0.425,0.585,0.868,0.885,1.293c3.561,5.157,14.606,14.892,30.716,14.892h0.017
		c8.924,0,17.915-2.942,26.772-8.741c20.02-13.186,30.598-34.876,34.81-54.629c0.3,2.999,0.617,6.166,0.919,9.55
		c2.957,33.423,23.295,36.021,29.444,36.021c5.782,0,11.916-1.747,18.216-5.18c23.646-12.927,14.238-38.354,11.13-46.709
		c-0.218-0.576-0.401-1.128-0.602-1.604c-0.585-1.696-1.371-4.069-2.289-6.952c11.797,17.221,28.509,29.094,45.839,31.065
		c2.573,0.301,5.146,0.443,7.588,0.443c20.034,0,35.093-9.942,42.411-28.016c4.981-12.351,5.466-25.001,1.305-33.85
		c-2.757-5.882-7.404-9.993-13.419-11.89c-1.521-0.477-3.042-0.819-4.53-0.995c3.844-5.631,5.649-13.127,1.621-21.423
		c-1.638-3.351-4.077-8.365-7.652-13.737c7.603,3.726,15.792,5.882,22.008,7.528c2.54,0.685,5.699,1.504,6.802,1.98
		c0.668,0.534,1.137,1.128,0.283,2.657c-7.721,13.67-8.104,26.229-1.068,35.369c5.497,7.119,14.589,10.879,26.303,10.879
		c5.466,0,11.231-0.835,16.645-2.423c1.305-0.376,2.641-0.911,3.994-1.529C971.779,264.254,960.132,246.08,944.856,225.842
		 M203.327,244.376c-1.955,0-3.56-1.597-3.56-3.561c0-1.954,1.605-3.559,3.56-3.559c1.972,0,3.559,1.604,3.559,3.559
		C206.886,242.779,205.298,244.376,203.327,244.376 M224.533,277.297c-1.504,1.045-3.493,0.936-4.061-1.145
		c-0.852-3.217,6.785-12.291,8.724-10.135C230.867,268.223,226.038,276.235,224.533,277.297 M335.212,160.861
		c-1.956-0.15-3.409-1.88-3.242-3.827c0.167-1.838,1.705-3.275,3.542-3.275c0.101,0,0.201,0,0.301,0.025
		c1.287,0.101,2.072,0.836,2.423,1.245c0.351,0.426,0.936,1.32,0.836,2.598C338.889,159.566,337.167,161.036,335.212,160.861
		 M352.291,195.312c-2.138,0-2.958-1.044-2.673-2.432c0.535-2.632,8.406-8.765,9.525-8.247
		C360.246,185.125,355.868,195.294,352.291,195.312 M618.018,261.146c-2.189,4.295-5.247,8.331-6.45,7.904
		c-1.136-0.785,0.417-5.581,2.606-9.876c2.189-4.262,5.215-8.489,6.467-7.889C621.744,251.712,620.207,256.884,618.018,261.146
		 M720.676,313.318c-1.338,4.621-3.627,9.392-4.848,8.982c-1.286-0.803-0.635-5.564,0.703-10.178
		c1.336-4.604,3.475-9.466,4.862-8.974C722.613,303.459,722.012,308.714,720.676,313.318 M862.57,257.276h-0.017
		c-1.27-0.033-2.088-0.719-2.473-1.128c-0.368-0.393-0.986-1.27-0.953-2.557c0.084-1.913,1.638-3.418,3.56-3.418h0.134
		c1.955,0.067,3.493,1.73,3.426,3.677C866.181,255.772,864.626,257.276,862.57,257.276 M882.207,291.21
		c-1.104,0.835-3.26,0.802-3.694-1.555c-0.751-4.161,7.253-10.696,9.109-9.793C889.275,280.581,884.964,289.12,882.207,291.21"/>
	<path fill="#EE80B3" d="M770.993,222.417c16.293,0,29.562-13.26,29.562-29.554s-13.269-29.554-29.562-29.554
		c-16.294,0-29.546,13.26-29.546,29.554S754.699,222.417,770.993,222.417"/>
	<path fill="#EE80B3" d="M991.414,220.169c-4.244-20.814-17.63-32.479-39.807-34.709c-6.935-0.677-24.131-2.464-26.971-5.047
		c-1.054-1.195,0.935-5.765,1.771-9.132c0.416-1.663,0.835-3.426,1.286-5.322c3.393-14.706-3.392-22.401-8.172-24.799
		c-3.878-2.056-8.004-3.101-12.283-3.101c-10.462,0-20.871,6.283-28.592,17.237c-9.56,13.554-12.501,30.406-7.654,44.01
		c0.116,0.292,0.25,0.584,0.352,0.876c-7.587-4.553-17.013-7.528-28.761-7.244c-12.5,0.326-23.062,5.649-30.498,15.408
		c-6.233,8.154-9.91,19.218-10.813,31.368c-5.715-7.655-14.405-10.68-22.293-10.68c-1.069,0-1.872,0.05-2.356,0.1
		c-7.437,0.769-13.52,4.053-17.563,9.476c-4.011,5.432-5.448,12.19-5.716,18.591c-0.752-0.943-1.521-1.83-2.34-2.673
		c-6.384-6.451-14.839-9.585-25.301-9.292c-1.221,0.033-2.373,0.05-3.442,0.05c-2.356,0-4.077-0.084-5.314-0.2
		c0.368-1.044,0.802-2.215,1.203-3.251l0.519-1.403c5.999-16.293,8.939-26.32,10.16-34.66c1.821-12.642-3.794-27.974-20.521-31.726
		c-2.908-0.644-5.816-0.969-8.59-0.969c-8.522,0-28.744,3.534-32.62,36.338l-0.033,0.334c-0.017,0.184-0.869,10.795-3.46,24.842
		c-0.116-9.275-2.272-16.988-6.449-23.087c-5.064-7.336-12.718-11.907-22.828-13.57c-4.178-0.701-6.869-1.312-8.573-1.813
		c0.567-0.953,1.203-2.013,1.806-2.974l0.751-1.271c9.008-14.848,13.804-24.14,16.577-32.085
		c4.212-12.074,1.588-28.201-14.104-35.044c-4.88-2.138-9.76-3.216-14.506-3.216c-10.527,0-24.731,5.222-32.67,30.08l-0.101,0.326
		c-0.083,0.31-8.64,30.992-23.312,55.272c-0.986,1.646-1.973,3.243-2.976,4.78c11.564-22.543,17.497-47.368,18.834-55.957
		c1.137-7.379,0-13.436-3.393-18.024c-3.158-4.278-7.938-6.893-14.204-7.787c-1.555-0.217-3.092-0.334-4.563-0.334
		c-13.201,0-22.577,8.53-27.892,25.392c-1.086,3.485-2.104,7.512-3.158,11.757c-2.857,11.498-7.203,30.899-14.672,31.108
		c-0.284,0-2.156-0.067-3.008-1.028c-1.371-2.339-1.037-7.854,8.221-23.413c0.552-0.902,1.505-2.323,2.591-3.985
		c9.074-13.586,18.516-29.212,15.825-42.656c-1.103-5.515-4.211-10.102-8.974-13.251c-5.364-3.56-10.813-5.356-16.226-5.356
		c-7.605,0-18.668,3.601-28.159,20.655l-0.084,0.175c-0.768,1.488-17.898,34.141-22.543,59.702
		c-3.86-8.574-12.299-13.979-15.775-16.202c-4.696-3.017-2.506-17.029-0.584-29.386l0.535-3.468
		c1.236-8.013,3.844-8.013,6.885-8.013c1.169,0,2.423,0.108,3.643,0.192c0.969,0.083,1.889,0.151,2.708,0.185
		c0.568,0.017,1.152,0.067,1.754,0.1c1.103,0.075,2.39,0.159,3.727,0.159c8.138,0,18.098-3.751,19.234-21.583
		c0.434-6.702-1.303-12.216-5.114-16.335c-6.785-7.311-17.33-7.445-25.034-7.528c-0.167,0-0.334-0.025-0.484-0.025
		c0.134-0.719,0.285-1.454,0.435-2.063c0.2-1.044,0.417-2.088,0.618-3.117c2.306-13.11,0.468-23.346-5.464-30.406
		c-4.68-5.582-11.631-8.649-19.619-8.649c-7.771,0-15.425,2.917-19.987,7.621c-8.473,8.74-5.883,20.705-4.161,28.626
		c0.367,1.696,0.769,3.542,0.953,4.963c-0.067,0-0.134,0-0.201,0c-2.573,0-6.216-0.426-10.444-0.928l-0.735-0.083
		c-8.139-0.961-15.108,1.646-19.418,7.169c-4.212,5.389-5.582,13.127-3.694,20.722c2.324,9.241,12.501,12.099,20.672,14.396
		c2.624,0.735,6.834,1.914,8.54,2.891c1.253,6.726-4.646,31.141-7.237,41.786c-0.351,1.471-0.702,2.891-1.036,4.279
		c-0.017-0.051-0.033-0.1-0.049-0.15c-2.474-5.991-6.919-10.319-12.835-12.534c-1.487-0.543-2.974-0.952-4.461-1.211
		c4.094-5.423,6.283-12.833,2.639-21.324c-4.896-11.447-17.931-41.886-53.776-42.73c-12.75-0.292-23.629,4.671-31.551,14.296
		c-11.013,13.344-15.225,35.211-10.98,57.069c1.889,9.651,5.181,18.784,9.592,27.014c-5.497-7.763-11.347-17.229-16.61-29.053
		c-1.755-3.969-3.527-8.063-5.298-12.182c-13.352-31.024-27.139-63.11-51.738-63.11c-4.195,0-8.489,0.986-12.751,2.958
		c-5.849,2.716-9.894,7.344-11.731,13.343c-3.443,11.381,1.169,27.156,14.087,48.229c1.905,3.125,7.971,15.742,14.372,29.103
		c1.387,2.874,2.825,5.891,4.295,8.932c-8.289-7.169-19.468-12.784-34.643-12.784c-1.237,0-2.54,0.042-3.827,0.125
		c-12.5,0.785-22.844,6.484-29.946,16.511c-10.06,14.238-12.5,36.556-6.334,58.214c4.028,14.154,11.18,26.905,20.137,37.017
		c-5.431-5.616-11.129-10.696-16.126-15.142c-2.172-1.938-4.211-3.752-5.983-5.389c-15.642-14.581-29.679-36.281-29.88-41.654
		c0-4.094,5.966-11.999,19.034-19.736c8.356-4.938,14.138-13.787,15.475-23.663c1.487-11.038-2.491-22.076-11.18-31.075
		c-6.685-6.91-13.971-10.419-21.658-10.419c-12.717,0-24.966,9.049-39.723,29.378c-17.329,23.905-47.995,48.17-50.101,49.816
		c-16.761,12.083-25.602,26.145-24.95,39.648c0.452,9.55,5.649,17.681,14.589,22.86c4.696,2.725,9.742,4.111,15.006,4.111
		c18.183,0,32.587-16.394,37.166-22.269c1.788,2.057,4.061,5.875,5.315,7.964c0.451,0.785,0.918,1.537,1.353,2.256
		c0.887,1.438,2.976,5.289,5.632,10.16c11.447,21.015,32.737,60.136,46.625,73.179c7.954,7.462,17.43,11.565,26.688,11.565
		c15.241,0,27.607-10.729,33.089-28.736c5.648-18.582-3.009-33.981-15.692-47.911c11.264,11.364,23.479,17.18,37.266,18.241
		c1.804,0.159,3.577,0.225,5.297,0.225c21.223,0,36.731-10.527,43.649-29.62c3.46-9.534,4.295-19.151,2.491-27.039
		c9.041,7.478,17.53,8.999,22.877,8.999c6.033,0,11.965-1.829,17.146-5.289c5.966-3.969,9.759-9.817,10.963-16.887
		c1.704-10.161-2.256-20.723-7.086-28.117c8.875,8.213,19.151,13.778,29.847,15.524c3.576,0.577,7.085,0.886,10.411,0.886
		c18.599,0,33.105-9.242,40.859-26.011c0.819-1.781,1.537-3.577,2.172-5.373c1.036,3.834,2.624,7.344,4.78,10.385
		c5.146,7.312,13.184,11.773,23.261,12.901c2.056,0.225,4.128,0.351,6.15,0.351c16.845,0,29.83-8.29,35.177-17.664
		c2.674,21.833,17.296,37.216,32.236,41.444c5.631,1.613,11.196,2.415,16.561,2.415c11.598,0,22.176-3.785,31.317-11.038
		c-7.285,9.032-12.333,16.151-12.583,24.507c-0.519,15.692,11.497,28.886,26.755,29.43c4.445,0.158,4.445,0.158,6.115,4.043
		c0.201,0.477,0.401,0.953,0.619,1.455c3.76,8.522,16.243,21.198,35.244,21.198h0.017c6.417,0,13.169-1.421,20.02-4.245
		c14.79-6.092,26.153-16.678,34.409-28.577c-2.44,4.981-4.813,9.468-6.969,13.453c-6.617,12.333-11.381,21.257-9.895,30.565
		c2.224,13.754,14.189,24.121,27.859,24.121c1.354,0,2.707-0.099,4.01-0.324c1.104-0.168,2.057-0.251,2.841-0.251
		c1.872,0,1.872,0,3.929,3.058c0.299,0.427,0.601,0.879,0.901,1.304c3.56,5.148,14.606,14.89,30.716,14.89
		c8.94,0,17.931-2.949,26.788-8.749c20.02-13.175,30.598-34.876,34.81-54.62c0.301,2.992,0.635,6.158,0.919,9.551
		c2.958,33.415,23.296,36.021,29.445,36.021c5.782,0,11.915-1.747,18.215-5.188c23.646-12.918,14.238-38.345,11.131-46.7
		c-0.218-0.585-0.402-1.128-0.586-1.604c-0.602-1.696-1.387-4.078-2.307-6.952c11.799,17.213,28.511,29.095,45.84,31.059
		c2.574,0.31,5.147,0.442,7.587,0.442c20.037,0,35.11-9.935,42.414-28.024c4.979-12.342,5.464-24.983,1.319-33.832
		c-2.773-5.892-7.421-9.994-13.436-11.891c-1.521-0.484-3.025-0.827-4.53-0.994c3.846-5.632,5.649-13.127,1.622-21.424
		c-1.639-3.342-4.076-8.373-7.653-13.745c7.603,3.735,15.792,5.891,22.008,7.528c2.54,0.686,5.699,1.513,6.802,1.989
		c0.668,0.527,1.137,1.128,0.285,2.648c-7.723,13.679-8.105,26.237-1.07,35.379c5.497,7.119,14.59,10.879,26.286,10.879
		c5.482,0,11.248-0.836,16.679-2.432C977.845,270.546,996.93,247.291,991.414,220.169 M188.637,237.448
		c-1.938,0-3.559-1.587-3.559-3.559c0-1.947,1.621-3.561,3.559-3.561c1.972,0,3.56,1.613,3.56,3.561
		C192.197,235.861,190.609,237.448,188.637,237.448 M209.844,270.378c-1.504,1.036-3.492,0.937-4.061-1.17
		c-0.852-3.2,6.786-12.266,8.741-10.126C216.177,261.305,211.348,269.31,209.844,270.378 M320.523,153.942
		c-1.938-0.159-3.409-1.879-3.242-3.852c0.167-1.813,1.705-3.25,3.543-3.25c0.1,0,0.2,0,0.3,0.017c1.288,0.1,2.072,0.835,2.44,1.253
		c0.334,0.426,0.919,1.312,0.819,2.599C324.2,152.639,322.479,154.109,320.523,153.942 M337.602,188.393
		c-2.139,0-2.957-1.044-2.673-2.431c0.535-2.641,8.406-8.766,9.525-8.247C345.557,178.207,341.178,188.376,337.602,188.393
		 M603.328,254.219c-2.189,4.295-5.23,8.339-6.45,7.904c-1.137-0.785,0.417-5.573,2.624-9.868c2.188-4.262,5.197-8.489,6.467-7.888
		C607.055,244.793,605.518,249.957,603.328,254.219 M705.986,306.399c-1.338,4.621-3.627,9.393-4.847,8.983
		c-1.286-0.803-0.635-5.582,0.701-10.187c1.337-4.604,3.477-9.458,4.863-8.966C707.941,296.54,707.322,301.796,705.986,306.399
		 M847.881,250.351h-0.017c-1.286-0.034-2.088-0.719-2.473-1.128c-0.368-0.394-0.986-1.263-0.953-2.549
		c0.084-1.914,1.639-3.418,3.561-3.418h0.133c1.956,0.067,3.493,1.722,3.426,3.677C851.491,248.846,849.937,250.351,847.881,250.351
		 M867.518,284.282c-1.104,0.844-3.259,0.811-3.694-1.555c-0.751-4.161,7.253-10.694,9.108-9.784
		C874.586,273.662,870.274,282.202,867.518,284.282"/>
	<path fill="#009CD9" d="M30.03,230.372c0,0,33.038-25.669,51.839-51.613c18.833-25.919,33.823-33.28,48.58-18.032
		c14.722,15.249,9.892,34.308-2.557,41.686c-12.45,7.37-23.145,17.539-23.145,26.947c0,9.401,17.547,33.799,32.553,47.779
		c14.99,13.979,48.045,38.896,40.174,64.823c-7.904,25.943-29.746,28.735-46.023,13.486c-16.276-15.267-46.022-73.723-50.835-81.61
		c-4.83-7.871-11.949-22.109-20.088-11.431c-8.138,10.679-25.35,26.012-41.694,16.511C3.075,269.76,3.844,249.18,30.03,230.372"/>
	<path fill="#009CD9" d="M239.991,248.178c-11.932-3.326-16.294,7.921-17.012,11.171c-1.037,4.588-5.866,21.357-16.795,18.566
		c-13.904-3.56-8.891-16.787-1.521-22.385c9.443-7.152,15.76-11.689,19.836-14.731c0,0,12.701-7.628,6.602-19.067
		c-6.116-11.447-19.134-35.437-49.315-33.557c-28.476,1.781-37.116,34.568-28.726,64.055c8.389,29.504,31.534,52.365,54.645,54.146
		c23.146,1.779,35.262-9.634,40.425-23.89C253.461,267.738,251.94,251.479,239.991,248.178 M176.706,233.421
		c0-6.6,5.348-11.94,11.932-11.94c6.618,0,11.949,5.34,11.949,11.94c0,6.61-5.331,11.949-11.949,11.949
		C182.053,245.37,176.706,240.031,176.706,233.421"/>
	<path fill="#009CD9" d="M370.741,169c-11.631-4.312-16.929,6.5-17.931,9.701c-1.404,4.462-7.654,20.772-18.299,17.045
		c-13.57-4.721-7.437-17.471,0.385-22.418c10.01-6.333,16.711-10.303,21.023-12.994c0,0,13.318-6.517,8.205-18.424
		c-5.097-11.932-16.026-36.949-46.273-37.651c-28.526-0.651-39.94,31.284-34.074,61.381c5.832,30.088,26.921,54.863,49.833,58.614
		c22.894,3.744,35.929-6.592,42.296-20.362C382.489,189.654,382.355,173.311,370.741,169 M308.925,148.903
		c0.568-6.567,6.351-11.447,12.918-10.879s11.447,6.351,10.879,12.918c-0.552,6.576-6.351,11.447-12.918,10.887
		C313.237,161.262,308.357,155.48,308.925,148.903"/>
	<path fill="#009CD9" d="M898.783,262.95c-11.83-3.734-16.609,7.328-17.446,10.553c-1.169,4.538-6.617,21.124-17.446,17.924
		c-13.786-4.062-8.271-17.079-0.701-22.402c9.692-6.81,16.192-11.104,20.354-13.995c0,0,13.001-7.169,7.32-18.825
		c-5.683-11.657-17.814-36.105-48.062-35.336c-28.51,0.718-38.37,33.18-31.051,62.952c7.287,29.779,29.563,53.493,52.624,56.117
		c23.045,2.632,35.578-8.322,41.261-22.385C911.519,283.004,910.582,266.693,898.783,262.95 M836.066,245.888
		c0.233-6.584,5.782-11.739,12.366-11.497c6.602,0.242,11.748,5.782,11.498,12.392c-0.234,6.584-5.783,11.731-12.367,11.48
		C840.979,258.021,835.815,252.48,836.066,245.888"/>
	<path fill="#009CD9" d="M260.847,168.598c11.38,25.568,25.167,40.424,33.038,50.844c7.888,10.42,12.199,27.449,0,35.595
		c-12.199,8.131-29.997,4.57-44.101-21.239c-13.536-24.725-36.731-75.87-41.561-83.749c-4.829-7.888-24.883-40.826-5.983-49.574
		C229.698,87.766,244.938,132.886,260.847,168.598"/>
	<path fill="#009CD9" d="M440.092,79.97c-1.237,7.035-4.328,14.747,5.081,15.006c9.408,0.243,25.435-1.028,24.398,14.991
		c-1.002,16.018-9.392,13.72-16.009,13.469c-6.617-0.259-19.067-3.56-21.858,14.747c-2.807,18.291-6.099,34.827,3.811,41.177
		c9.909,6.359,14.99,12.709,13.736,20.597c-1.271,7.871-14.238,19.326-34.592,17.029c-20.321-2.29-24.899-20.346-20.589-38.636
		c4.329-18.316,12.718-49.324,7.638-55.666c-5.081-6.367-25.919-6.117-27.958-14.238c-2.038-8.147,1.003-19.068,13.971-17.547
		c12.985,1.529,20.338,2.54,20.856-5.08c0.501-7.629-7.119-21.867,0.769-29.997C417.215,47.692,446.192,45.402,440.092,79.97"/>
	<path fill="#009CD9" d="M485.781,132.719c0,0-20.02,37.935-22.493,62.717c-2.49,24.792,12.199,41.955,26.304,45.949
		c14.104,4.002,34.493,4.294,50.719-18.107c18.114-24.967,26.27-61.49,27.456-69.018c1.337-8.573-1.152-14.864-10.494-16.201
		c-9.342-1.337-17.915,2.289-23.246,19.251c-5.347,16.971-9.157,50.912-28.041,48.238c-18.851-2.666-4.563-28.593,0.2-36.606
		c4.763-8.005,28.342-37.801,12.016-48.614C502.358,109.841,491.496,122.416,485.781,132.719"/>
	<path fill="#009CD9" d="M632.957,205.739c-21.925-3.626-18.549-7.562-11.797-18.684c7.604-12.583,12.951-22.318,15.808-30.514
		c2.858-8.197,1.872-19.611-9.542-24.591c-10.478-4.57-27.072-5.715-35.829,21.733c0,0-8.773,31.852-24.215,57.396
		c-18.132,29.997-36.028,42.505-36.413,54.52c-0.367,11.823,8.957,20.43,18.684,20.789c10.678,0.385,11.697,4.997,14.104,10.479
		c2.858,6.483,17.547,23.646,44.418,12.592c26.89-11.071,41.377-39.857,45.389-59.484
		C657.573,230.329,655.702,209.491,632.957,205.739 M610.799,257.577c-4.931,9.593-13.119,15.241-18.3,12.592
		c-5.181-2.648-5.381-12.592-0.467-22.209c4.929-9.601,13.118-15.249,18.298-12.601C615.511,238.017,615.729,247.96,610.799,257.577
		"/>
	<path fill="#009CD9" d="M725.939,253.157c-22.209,0.609-19.67-3.902-15.141-16.102c5.08-13.795,8.473-24.373,9.709-32.963
		c1.253-8.589-1.889-19.61-14.021-22.334c-11.162-2.49-27.674-0.46-31.065,28.175c0,0-2.54,32.921-12.852,60.93
		c-12.099,32.896-27.289,48.604-25.367,60.462c1.872,11.673,12.667,18.365,22.293,16.854c10.562-1.654,12.433,2.688,15.843,7.604
		c4.044,5.815,21.725,19.877,46.021,3.918c24.282-15.984,33.022-46.992,33.206-67.028
		C754.766,272.609,748.968,252.522,725.939,253.157 M714.041,308.255c-3.009,10.369-9.977,17.472-15.559,15.851
		c-5.599-1.63-7.688-11.347-4.695-21.717c3.008-10.368,9.976-17.455,15.574-15.851C714.959,288.167,717.065,297.886,714.041,308.255
		"/>
	<path fill="#1762AE" d="M698.466,324.105c-5.582-1.63-7.671-11.347-4.679-21.717c3.008-10.368,9.976-17.455,15.574-15.851
		c4.161,1.22,6.384,6.902,5.999,13.979c1.472-10.537-1.336-19.436-7.235-21.148c-7.069-2.056-15.877,6.919-19.686,20.021
		c-3.795,13.11-1.137,25.376,5.932,27.432c3.793,1.094,8.088-1.012,11.832-5.197C703.68,323.829,700.939,324.824,698.466,324.105"/>
	<path fill="#009CD9" d="M749.836,192.387c0-11.681,9.476-21.166,21.174-21.166c11.681,0,21.139,9.484,21.139,21.166
		c0,11.689-9.458,21.173-21.139,21.173C759.312,213.56,749.836,204.076,749.836,192.387"/>
	<path fill="#009CD9" d="M777.477,237.006c2.089-0.226,18.499-0.961,21.357,18.308c2.857,19.251,10.294,43.658,13.169,51.663
		c2.856,8.005,11.797,28.034-6.686,38.126c-18.499,10.111-32.987,1.713-35.277-24.214c-2.273-25.928-5.531-40.608-6.467-46.132
		C762.604,269.226,755.368,239.295,777.477,237.006"/>
	<path fill="#009CD9" d="M915.696,148.16c0,0,6.685,3.05,3.826,15.433c-2.74,11.865-5.532,18.5-0.385,22.694
		c5.13,4.194,18.3,5.731,31.651,7.069c13.337,1.337,28.026,6.467,32.403,28.008c4.797,23.53-12.768,42.129-23.83,45.388
		c-11.063,3.233-26.889,3.626-33.94-5.531c-7.052-9.158-0.752-21.733,1.721-26.128c2.474-4.387,2.29-9.91-2.875-13.729
		c-5.13-3.81-38.485-6.057-45.354-25.359C870.124,171.414,894.924,136.913,915.696,148.16"/>
	<path fill="#79BDE8" d="M37.768,234.115c0,0,32.152-24.984,50.468-50.201c10.411-14.355,19.619-22.845,28.275-24.8
		c-10.644-3.025-21.909,5.407-35.177,23.705c-17.631,24.315-48.63,48.388-48.63,48.388c-23.262,16.72-25.117,34.944-12.634,44.102
		C12.684,265.057,17.029,249.005,37.768,234.115"/>
	<path fill="#79BDE8" d="M90.659,278.617c-3.509-5.715-8.255-14.856-13.703-14.856c2.624,3.041,4.93,7.27,6.852,10.42
		c4.528,7.395,32.419,62.207,47.677,76.512c1.938,1.831,3.978,3.367,6.049,4.621C121.325,337.308,95.104,285.887,90.659,278.617"/>
	<path fill="#79BDE8" d="M160.563,254.636c-8.172-28.743,0.267-60.729,28.025-62.458c3.091-0.184,5.999-0.1,8.74,0.226
		c-4.513-1.354-9.626-2.005-15.408-1.646c-26.738,1.68-34.876,32.479-26.972,60.203c5.181,18.207,16.343,33.748,29.562,42.731
		C173.814,284.124,165.041,270.354,160.563,254.636"/>
	<path fill="#79BDE8" d="M291.094,166.634c-5.531-28.526,4.847-58.707,30.966-59.751c-1.085-0.108-2.205-0.175-3.359-0.209
		c-26.787-0.618-37.483,29.363-32.002,57.621c4.011,20.706,15.742,38.72,30.164,48.254
		C304.48,202.046,294.738,185.41,291.094,166.634"/>
	<path fill="#79BDE8" d="M821.076,267.922c-6.968-28.459,2.423-59.484,29.68-60.169c5.164-0.142,9.742,0.509,13.87,1.696
		c-5.615-2.966-12.4-4.796-20.655-4.587c-26.27,0.66-35.345,30.556-28.609,57.988c3.96,16.228,12.783,30.482,23.696,39.94
		C830.819,293.448,824.352,281.333,821.076,267.922"/>
	<path fill="#79BDE8" d="M255.5,230.939c-12.917-23.629-35.093-72.501-39.706-80.031c-4.629-7.537-23.781-39.02-5.715-47.368
		c3.008-1.403,5.85-2.055,8.573-2.088c-4.312-1.504-8.975-1.354-14.105,1.028c-17.396,8.055,1.036,38.377,5.499,45.655
		c4.445,7.252,25.819,54.345,38.269,77.123c5.314,9.718,11.18,16.001,17.046,19.527C261.967,241.226,258.642,236.654,255.5,230.939"
		/>
	<path fill="#79BDE8" d="M394.203,95.762c12.601,1.722,19.752,0.25,20.237-7.169c0.502-7.427-6.918-21.307,0.752-29.228
		c3.058-3.15,7.052-4.98,13.186-4.437c-7.07-2.774-13.637-0.736-17.414,3.15c-7.386,7.628-0.218,20.997-0.702,28.167
		c-0.468,7.152-7.336,8.414-19.502,6.994c-12.182-1.438-15.107,6.609-13.185,14.238C377.959,109.072,378.344,93.589,394.203,95.762"
		/>
	<path fill="#79BDE8" d="M399.985,180.455c4.211-17.831,12.383-48.037,7.438-54.228c-0.786-0.961-1.905-1.763-3.293-2.481
		c3.259,7.921-2.289,34.325-6.132,50.584c-2.574,10.955-3.46,22.293,2.406,29.296C397.946,196.965,398.03,188.735,399.985,180.455"
		/>
	<path fill="#79BDE8" d="M509.127,207.811c-3.743-0.526-5.815,2.089,1.387,3.117c18.416,2.598,24.198-30.106,28.961-46.783
		c6.233-21.909,24.198-22.594,19.084-23.313c-8.79-1.245-16.845,2.156-21.874,18.107
		C531.671,174.89,526.874,210.326,509.127,207.811"/>
	<path fill="#79BDE8" d="M466.313,199.614c2.406-24.172,23.497-61.514,23.497-61.514c9.658-16.569,26.621-15.04,24.147-16.569
		c-11.714-7.236-21.39,2.874-26.771,12.55c0,0-18.817,35.679-21.157,58.982c-0.367,3.694-0.334,7.186,0.05,10.487
		C466.112,202.271,466.179,200.951,466.313,199.614"/>
	<path fill="#79BDE8" d="M575.304,214.997c14.856-24.549,23.278-55.164,23.278-55.164c8.439-26.387,31.468-23.279,29.412-24.165
		c-9.709-4.245-25.083-5.306-33.188,20.12c0,0-8.522,29.262-22.442,53.175c-21.809,37.492-37.351,47.076-37.701,58.198
		C534.562,270.262,557.873,243.841,575.304,214.997"/>
	<path fill="#79BDE8" d="M669.556,275.543c9.959-27.106,12.416-58.95,12.416-58.95c2.941-32.287,29.378-30.306,25.101-31.259
		c-10.395-2.331-25.786-0.435-28.928,26.245c0,0-2.406,30.699-11.998,56.81c-11.281,30.666-25.436,45.305-23.647,56.352
		c0.385,2.473,1.237,4.679,2.374,6.643C645.357,320.179,658.727,304.979,669.556,275.543"/>
	<path fill="#79BDE8" d="M757.005,196.13c0-10.862,8.808-19.694,19.687-19.694c1.555,0-1.672-2.139-5.214-2.139
		c-10.479,0-18.968,8.489-18.968,18.975C752.51,200.667,757.005,201.645,757.005,196.13"/>
	<path fill="#79BDE8" d="M776.574,322.551c-2.122-24.13-5.147-37.784-6.033-42.938c-0.886-5.132-7.62-32.989,12.951-35.111
		c0.953-0.101-4.061-4.521-5.431-4.361c-19.837,2.047-13.353,28.885-12.5,33.849c0.869,4.946,3.776,18.115,5.832,41.36
		c0.902,10.277,3.944,17.472,8.489,21.524C778.212,333.004,777.075,328.25,776.574,322.551"/>
	<path fill="#79BDE8" d="M935.266,261.897c-6.668-8.665-0.719-20.555,1.638-24.716c2.338-4.137,2.155-9.375-2.709-12.985
		c-0.868-0.635-2.623-1.229-4.896-1.88c3.191,3.351,3.093,7.662,1.103,11.188c-2.256,4.002-7.987,15.466-1.57,23.806
		c1.771,2.272,4.111,3.885,6.802,4.979C935.516,262.148,935.365,262.031,935.266,261.897"/>
	<path fill="#79BDE8" d="M886.318,196.79c-7.019-19.645,8.622-45.981,25.518-47.285c-18.183-5.423-37.918,23.771-30.349,44.937
		c2.439,6.885,8.606,11.38,15.459,14.53C892.149,205.965,888.205,202.046,886.318,196.79"/>
	<path fill="#1762AE" d="M592.499,270.161c-5.181-2.648-5.397-12.592-0.467-22.209c4.913-9.601,13.118-15.241,18.298-12.593
		c2.44,1.246,3.76,4.12,3.978,7.805c1.487-7.771-0.067-14.322-4.579-16.603c-6.602-3.317-17.045,3.751-23.329,15.792
		c-6.249,12.049-5.999,24.507,0.602,27.833c1.922,0.969,4.161,1.044,6.518,0.393C593.168,270.47,592.816,270.337,592.499,270.161"/>
	<path fill="#1762AE" d="M76.288,266.794c-5.013-19.97-16.595-17.864-23.211-9.551c-7.972,10.026-23.797,24.591-39.439,17.664
		c1.454,1.504,3.208,2.857,5.214,4.02c16.327,9.475,33.556-5.857,41.677-16.52C66.495,254.569,71.926,260.151,76.288,266.794"/>
	<path fill="#1762AE" d="M137.3,277.146c-14.99-13.979-32.537-38.386-32.537-47.794c0-9.408,10.678-19.578,23.128-26.939
		c12.449-7.37,17.296-26.437,2.54-41.694c-2.875-2.966-5.748-5.072-8.656-6.35c0.401,0.393,0.802,0.786,1.203,1.195
		c14.74,15.249,9.927,34.309-2.54,41.686c-12.45,7.378-23.129,17.539-23.129,26.956c0,9.392,17.531,33.807,32.521,47.777
		c15.007,13.979,48.062,38.896,40.191,64.841c-6.585,21.624-22.877,27.14-37.567,19.519c16.16,14.203,37.283,11.021,45.003-14.372
		C185.345,316.042,152.291,291.125,137.3,277.146"/>
	<path fill="#1762AE" d="M206.468,193.415c8.723,7.412,13.92,17.062,17.18,23.153c6.099,11.447-6.468,19.987-6.468,19.987
		c-4.061,3.05-6.901,5.289-16.528,12.199c-9.107,6.543-17.345,24.231,3.293,28.442c-11.063-4.361-6.233-16.394,0.718-21.666
		c2.357-1.779,4.513-3.4,6.501-4.888c5.949-4.437,10.277-7.57,13.335-9.844c0,0,8.39-5.03,8.256-13.06
		c-0.034-1.847-0.501-3.868-1.654-6.007c-0.067-0.134-0.151-0.268-0.218-0.41c-0.133-0.268-0.3-0.543-0.451-0.836
		c-0.083-0.175-0.185-0.342-0.267-0.493c-0.185-0.359-0.385-0.719-0.585-1.078c-0.083-0.142-0.15-0.276-0.234-0.418
		c-0.568-1.061-1.203-2.155-1.888-3.3c-0.034-0.067-0.084-0.133-0.117-0.2c-0.351-0.551-0.685-1.12-1.053-1.679
		c-0.017-0.034-0.034-0.051-0.05-0.083c-0.768-1.254-1.621-2.516-2.541-3.819c-4.161-5.833-9.726-11.84-17.212-16.001
		C206.468,193.415,206.468,193.415,206.468,193.415"/>
	<path fill="#1762AE" d="M239.991,248.169c-0.033,0-0.05,0-0.083-0.017c4.879,6.743,4.696,18.366,0.769,29.178
		c-5.164,14.255-17.28,25.669-40.408,23.89c-6.769-0.519-13.521-2.858-19.921-6.609c8.456,6.776,17.915,11.037,27.356,11.772
		c23.129,1.779,35.262-9.634,40.425-23.905C253.461,267.746,251.94,251.47,239.991,248.169"/>
	<path fill="#1762AE" d="M334.895,173.336c10.01-6.333,16.711-10.303,21.023-12.994v-0.017c0,0,9.475-4.637,9.375-13.243
		c-0.018-1.588-0.368-3.317-1.17-5.189c-0.033-0.083-0.083-0.167-0.117-0.25c-0.15-0.376-0.317-0.761-0.484-1.146
		c-0.083-0.159-0.15-0.334-0.217-0.501c-0.2-0.46-0.418-0.944-0.635-1.437c-0.033-0.067-0.067-0.151-0.1-0.226
		c-0.25-0.576-0.535-1.161-0.802-1.779c-0.05-0.1-0.117-0.218-0.167-0.317c-0.267-0.568-0.551-1.153-0.852-1.747
		c-0.017-0.059-0.05-0.125-0.083-0.175c-0.317-0.668-0.669-1.337-1.02-2.022c-0.033-0.067-0.067-0.117-0.1-0.185
		c-0.352-0.635-0.702-1.287-1.069-1.955c-0.034-0.05-0.067-0.117-0.117-0.184c-0.802-1.404-1.671-2.858-2.657-4.295
		c-0.034-0.051-0.067-0.117-0.117-0.175c-0.97-1.438-2.023-2.875-3.159-4.295c-0.05-0.05-0.083-0.1-0.134-0.15
		c-1.153-1.403-2.406-2.791-3.76-4.127c-0.051-0.034-0.084-0.083-0.133-0.118c-1.354-1.337-2.825-2.598-4.396-3.801
		c-0.033-0.034-0.083-0.05-0.117-0.083c-0.768-0.585-1.554-1.129-2.373-1.655c-0.05-0.025-0.084-0.059-0.117-0.092
		c-0.853-0.543-1.738-1.078-2.641-1.571c-0.016,0-0.016,0-0.016,0c9.859,8.473,14.906,20.087,17.931,27.139
		c5.114,11.907-8.222,18.433-8.222,18.433c-4.312,2.682-11.079,6.517-21.005,12.984c-9.359,6.125-15.492,18.808,3.509,25.894
		C322.228,188.476,327.876,177.764,334.895,173.336"/>
	<path fill="#1762AE" d="M370.724,169c-0.401-0.15-0.802-0.276-1.187-0.393c5.046,7.002,3.96,19.167-1.087,30.122
		c-6.366,13.77-19.418,24.107-42.313,20.363c-5.13-0.836-10.16-2.758-14.973-5.531c6.902,5.615,14.556,9.399,22.426,10.678
		c22.895,3.751,35.963-6.584,42.314-20.346C382.489,189.654,382.355,173.311,370.724,169"/>
	<path fill="#1762AE" d="M883.409,231.048c5.664,11.656-7.318,18.81-7.318,18.81c-4.179,2.891-10.662,7.202-20.355,14.013
		c-7.569,5.305-13.402,19.71-0.234,25.459c3.159,1.37,5.816,1.821,7.938,1.955c-13.185-4.228-7.737-17.012-0.25-22.26
		c9.709-6.817,16.176-11.112,20.37-14.004c0,0,1.019-0.56,2.357-1.637c2.557-2.023,6.266-5.875,6.365-11.113
		c0.051-1.847-0.367-3.878-1.419-6.059c-0.066-0.117-0.117-0.25-0.186-0.376c-0.132-0.301-0.301-0.593-0.449-0.919
		c-0.102-0.175-0.186-0.359-0.269-0.551c-0.2-0.36-0.384-0.753-0.568-1.128c-0.083-0.151-0.149-0.293-0.217-0.427
		c-0.283-0.551-0.551-1.094-0.868-1.662c-0.033-0.067-0.066-0.134-0.102-0.201c-0.266-0.518-0.534-1.028-0.835-1.562
		c-0.066-0.118-0.134-0.234-0.201-0.36c-0.669-1.211-1.403-2.481-2.205-3.76c-0.051-0.075-0.084-0.143-0.134-0.209
		c-0.384-0.618-0.786-1.228-1.204-1.846c-0.017-0.05-0.05-0.084-0.083-0.133c-0.886-1.337-1.872-2.691-2.907-4.028
		c-0.05-0.05-0.083-0.1-0.15-0.167c-1.054-1.336-2.206-2.674-3.408-3.952c-0.017-0.017-0.033-0.034-0.052-0.05
		c-0.601-0.618-1.219-1.253-1.871-1.855c-0.033-0.033-0.067-0.067-0.101-0.1c-1.303-1.229-2.707-2.415-4.211-3.526
		c-0.051-0.05-0.117-0.101-0.184-0.134c-1.505-1.111-3.125-2.156-4.83-3.101c0,0,0,0-0.017,0
		C875.054,214.036,880.235,224.547,883.409,231.048"/>
	<path fill="#1762AE" d="M869.289,291.526c-0.017-0.033-0.051-0.083-0.067-0.116c-0.017,0.017-0.051,0.017-0.1,0.033
		C869.188,291.477,869.255,291.493,869.289,291.526"/>
	<path fill="#1762AE" d="M898.767,262.958c-0.167-0.049-0.334-0.1-0.518-0.15c4.912,6.86,4.328,18.717-0.065,29.58
		c-5.699,14.07-18.216,25.024-41.262,22.385c-6.049-0.685-12.031-2.841-17.714-6.158c7.755,6.283,16.395,10.319,25.15,11.33
		c23.045,2.633,35.595-8.339,41.277-22.385C911.519,283.012,910.599,266.702,898.767,262.958"/>
	<path fill="#1762AE" d="M293.885,219.442c-7.887-10.419-21.675-25.276-33.038-50.844c-12.233-27.482-24.098-60.503-41.411-68.5
		c13.436,12.593,23.563,39.974,33.941,63.336c11.38,25.561,25.183,40.416,33.055,50.836c7.888,10.444,12.199,27.465,0,35.595
		c-6.701,4.471-15.074,5.39-23.596,1.078c10.946,9.742,22.41,9.859,31.049,4.094C306.084,246.891,301.773,229.862,293.885,219.442"
		/>
	<path fill="#1762AE" d="M432.589,74.755c-2.156,13.194,0.786,19.352,9.86,19.803c-6.05-1.629-3.51-8.406-2.407-14.631
		c0.201-1.111,0.352-2.156,0.468-3.184c0.05-0.326,0.067-0.618,0.083-0.927c0.083-0.686,0.15-1.388,0.184-2.031
		c0.034-0.367,0.034-0.685,0.034-1.053c0.033-0.56,0.067-1.161,0.067-1.704c0-0.342-0.034-0.669-0.05-0.995
		c-0.017-0.526-0.017-1.061-0.05-1.554c-0.033-0.31-0.066-0.602-0.1-0.911c-0.051-0.494-0.1-0.979-0.167-1.437
		c-0.033-0.293-0.1-0.552-0.151-0.82c-0.083-0.467-0.149-0.927-0.284-1.354c-0.05-0.242-0.117-0.459-0.184-0.701
		c-0.117-0.443-0.235-0.869-0.368-1.27c-0.083-0.218-0.167-0.41-0.25-0.61c-0.151-0.41-0.301-0.811-0.468-1.203
		c-0.101-0.167-0.184-0.326-0.25-0.493c-0.201-0.376-0.385-0.769-0.602-1.128c-0.083-0.142-0.167-0.259-0.25-0.393
		c-0.217-0.36-0.468-0.719-0.702-1.061c-0.083-0.109-0.167-0.209-0.25-0.309c-0.267-0.343-0.534-0.669-0.819-0.978
		c-0.1-0.083-0.167-0.15-0.234-0.242c-0.301-0.301-0.635-0.61-0.953-0.887c-0.05-0.066-0.117-0.117-0.184-0.175
		c-0.352-0.284-0.702-0.56-1.069-0.819c-0.05-0.033-0.101-0.067-0.15-0.1c-0.402-0.259-0.786-0.501-1.187-0.719
		c-0.034-0.017-0.083-0.034-0.118-0.05c-0.401-0.243-0.835-0.451-1.287-0.635c-0.017-0.017-0.05-0.017-0.067-0.033
		c-0.434-0.192-0.902-0.359-1.37-0.519c-0.017,0-0.017,0-0.017,0C432.823,56.14,434.427,63.459,432.589,74.755"/>
	<path fill="#1762AE" d="M460.413,96.279c1.271,2.09,1.938,4.847,1.705,8.523c-1.02,16.018-9.392,13.729-16.009,13.469
		c-6.618-0.242-19.067-3.559-21.858,14.749c-2.791,18.29-6.116,34.826,3.811,41.177c9.91,6.366,14.99,12.708,13.72,20.596
		c-1.254,7.88-14.238,19.327-34.559,17.029c-3.042-0.342-5.749-1.044-8.104-2.056c3.542,3.835,8.64,6.442,15.541,7.228
		c20.354,2.272,33.305-9.158,34.592-17.045c1.27-7.872-3.81-14.238-13.736-20.589c-9.91-6.35-6.618-22.877-3.811-41.185
		c2.791-18.299,15.258-14.99,21.858-14.739c6.601,0.259,15.007,2.54,16.009-13.461C470.106,101.502,465.894,97.875,460.413,96.279"
		/>
	<path fill="#1762AE" d="M401.673,122.675c0.267,0.343,0.501,0.753,0.685,1.212c-1.521-10.962-21.457-11.923-28.258-14.405
		c0.184,0.375,0.484,0.802,0.819,1.228C379.916,116.584,397.11,116.977,401.673,122.675"/>
	<path fill="#1762AE" d="M559.144,138.409c1.555,2.791,1.821,6.476,1.17,10.679c-1.17,7.553-9.342,44.05-27.456,69.034
		c-16.244,22.385-36.615,22.109-50.703,18.106c-1.722-0.476-3.426-1.161-5.13-2.021c3.91,3.51,8.272,5.957,12.567,7.169
		c14.121,4.027,34.476,4.295,50.719-18.099c18.114-24.975,26.287-61.49,27.456-69.018
		C569.004,146.289,566.948,140.298,559.144,138.409"/>
	<path fill="#1762AE" d="M498.916,163.811c-5.314,8.957-18.583,28.618,0.351,38.828c-7.52-7.712,3.125-26.963,7.102-33.657
		c0,0,0,0,0.018,0c3.559-6.007,17.714-24.264,17.681-37.575c-0.017-4.454-1.604-8.339-5.699-11.038c0-0.026-0.017-0.026-0.033-0.042
		c-0.668-0.442-1.337-0.835-1.989-1.195c-0.15-0.083-0.283-0.15-0.417-0.226c-0.668-0.351-1.338-0.676-1.989-0.953h-0.017
		C523.816,130.379,503.312,156.407,498.916,163.811"/>
	<path fill="#1762AE" d="M621.143,187.055L621.143,187.055c7.637-12.583,12.969-22.318,15.825-30.514
		c0.902-2.549,1.404-5.439,1.354-8.331c-0.135-6.367-3.042-12.834-10.88-16.261c-0.216-0.1-0.468-0.184-0.685-0.292
		c4.88,5.699,4.896,13.611,2.757,19.736c-2.858,8.197-8.204,17.914-15.81,30.49c-5.363,8.832-9.825,18.349,12.017,22.418
		C611.969,200.985,615.277,196.74,621.143,187.055"/>
	<path fill="#1762AE" d="M640.577,207.928c8.239,8.64,8.34,23.054,5.532,36.882c-4.01,19.645-18.5,48.431-45.389,59.477
		c-13.334,5.498-23.679,4.027-31.049,0.368c7.02,6.533,19.82,12.482,38.52,4.804c26.872-11.055,41.359-39.857,45.354-59.484
		C657.055,232.794,656.069,214.721,640.577,207.928"/>
	<path fill="#1762AE" d="M560.364,290.416c-4.245-7.17-11.949-8.975-18.216-9.191c-2.056-0.067-4.077-0.535-5.999-1.287l0,0
		c1.755,1.922,3.844,3.476,6.116,4.587c0.017,0,0.033,0.017,0.05,0.017c0.534,0.259,1.069,0.484,1.621,0.686
		c0.051,0.017,0.083,0.05,0.134,0.067c0.518,0.191,1.053,0.342,1.588,0.484c0.083,0.017,0.15,0.05,0.234,0.066
		c0.518,0.134,1.019,0.226,1.554,0.309c0.083,0.018,0.184,0.051,0.284,0.067c0.617,0.083,1.236,0.134,1.854,0.15
		C555.552,286.597,558.509,288.134,560.364,290.416"/>
	<path fill="#1762AE" d="M710.781,237.056L710.781,237.056c5.098-13.803,8.49-24.365,9.743-32.955c0-0.016,0-0.016,0-0.033
		c0.067-0.501,0.116-1.012,0.167-1.538c0.017-0.209,0.017-0.417,0.033-0.602c0.018-0.342,0.034-0.668,0.034-0.994
		c0-0.259,0-0.509,0-0.769c-0.017-0.292-0.017-0.568-0.034-0.86c-0.017-0.285-0.033-0.578-0.066-0.869
		c-0.018-0.243-0.033-0.494-0.066-0.752c-0.034-0.31-0.084-0.635-0.135-0.944c-0.032-0.217-0.083-0.443-0.116-0.668
		c-0.067-0.326-0.15-0.66-0.233-0.986c-0.051-0.209-0.102-0.393-0.15-0.585c-0.101-0.359-0.201-0.701-0.318-1.061
		c-0.051-0.151-0.1-0.326-0.184-0.477c-0.134-0.375-0.268-0.743-0.418-1.094c-0.05-0.142-0.117-0.259-0.167-0.401
		c-0.2-0.376-0.367-0.769-0.568-1.145c-0.05-0.084-0.101-0.167-0.15-0.259c-0.251-0.393-0.484-0.802-0.735-1.179
		c-0.033-0.033-0.066-0.067-0.1-0.1c-1.838-2.673-4.513-4.879-8.189-6.233c-0.017,0-0.033,0-0.049-0.017
		c3.809,4.654,4.778,11.004,3.993,16.394c-1.253,8.615-4.646,19.167-9.743,32.963c-3.242,8.807-6.217,21.148,14.122,21.166
		C704.564,252.222,706.971,247.409,710.781,237.056"/>
	<path fill="#1762AE" d="M671.01,350.284c-5.365-6.667-12.083-8.298-18.984-7.22c-3.242,0.518-6.652,0.066-9.793-1.178
		c1.103,1.211,2.355,2.272,3.693,3.183c0.017,0.017,0.05,0.033,0.066,0.033c0.619,0.41,1.27,0.787,1.905,1.128
		c0.101,0.034,0.167,0.084,0.233,0.119c1.387,0.685,2.841,1.235,4.328,1.577c0.067,0.017,0.15,0.033,0.218,0.05
		c0.636,0.136,1.253,0.243,1.888,0.311c0.201,0.033,0.385,0.05,0.603,0.066c0.518,0.05,1.053,0.066,1.604,0.066
		c0.184,0,0.385,0,0.601,0c0.702-0.017,1.421-0.066,2.123-0.184C665.544,347.292,668.736,348.32,671.01,350.284"/>
	<path fill="#1762AE" d="M737.954,255.171c7.119,7.537,9.292,19.937,9.175,32.328c-0.2,20.037-8.958,51.061-33.238,67.03
		c-15.141,9.959-27.708,8.229-36.014,4.128c6.685,6.324,22.628,14.729,43.467,1.027c24.281-15.969,33.038-46.977,33.222-67.029
		C754.733,276.703,751.073,260.702,737.954,255.171"/>
	<path fill="#1762AE" d="M778.997,172.801c3.526,3.785,5.715,8.849,5.715,14.431c0,11.681-9.475,21.165-21.172,21.165
		c-2.825,0-5.515-0.568-7.988-1.57c3.86,4.119,9.342,6.718,15.458,6.718c11.681,0,21.139-9.459,21.139-21.148
		C792.148,183.529,786.719,175.951,778.997,172.801"/>
	<path fill="#1762AE" d="M811.985,306.977c-2.857-8.014-10.294-32.412-13.151-51.663c-1.588-10.629-7.27-15.149-12.417-17.063
		c2.323,2.724,4.161,6.518,4.964,11.89c2.857,19.252,10.293,43.676,13.151,51.664c2.874,8.013,11.815,28.032-6.685,38.144
		c-7.52,4.11-14.388,5.154-20.054,3.199c6.45,7.396,16.244,8.13,27.523,1.955C823.816,335,814.843,314.981,811.985,306.977"/>
	<path fill="#1762AE" d="M928.464,227.38c0.232-3.267-0.703-8.189-10.545-11.272c-4.077-1.27-20.388-4.278-32.705-10.921l0,0
		c0.017,0,0.017,0.017,0.033,0.017c12.1,11.004,34.876,13.077,39.056,16.177C926.643,223.102,927.963,225.208,928.464,227.38"/>
	<path fill="#1762AE" d="M983.192,221.372c-2.69-13.21-9.258-20.262-17.011-24.047c4.345,4.194,7.786,10.202,9.558,18.875
		c4.779,23.53-12.768,42.146-23.831,45.388c-7.903,2.323-18.214,3.142-26.053,0.101c7.237,8.64,22.645,8.247,33.507,5.063
		C970.425,263.502,987.989,244.902,983.192,221.372"/>
	<path fill="#1762AE" d="M919.522,163.601L919.522,163.601c0.518-2.323,0.736-4.328,0.701-6.024
		c-0.117-7.403-4.527-9.425-4.527-9.425c-0.017,0-0.052-0.017-0.068-0.033c-0.685-0.36-1.353-0.669-2.037-0.928
		c-0.033-0.017-0.083-0.033-0.118-0.05c-0.668-0.259-1.354-0.459-2.022-0.635c0,0,0,0-0.017,0c1.204,2.349,1.972,6.092,0.619,11.933
		c-2.725,11.856-4.446,17.455-0.384,22.685c2.688,3.442,6.516,5.615,10.578,7.002c-1.204-0.552-2.289-1.162-3.109-1.83
		C913.99,182.101,916.782,175.441,919.522,163.601"/>
	<polygon fill="#1762AE" points="949.604,292.128 949.604,295.062 944.673,295.062 944.673,308.631 941.196,308.631 
		941.196,295.062 936.235,295.062 936.235,292.128 	"/>
	<path fill="#1762AE" d="M962.555,292.128h4.963v16.503h-3.208v-11.163c0-0.326,0-0.769,0-1.354c0-0.576,0-1.02,0-1.329
		l-3.109,13.846h-3.359l-3.091-13.846c0,0.31,0,0.753,0.017,1.329c0,0.585,0,1.027,0,1.354v11.163h-3.192v-16.503h5.015l2.99,12.977
		L962.555,292.128z"/>
	<path fill="#1762AE" d="M188.053,245.337c-6.317-0.31-11.347-5.523-11.347-11.908c0-6.608,5.348-11.965,11.932-11.965
		c4.813,0,8.958,2.857,10.863,6.969c-1.153-7.069-7.286-12.475-14.673-12.475c-8.205,0-14.872,6.659-14.872,14.873
		s6.667,14.864,14.872,14.864C185.946,245.695,187,245.563,188.053,245.337"/>
	<path fill="#1762AE" d="M320.456,161.838c-6.317-0.31-11.431-5.406-11.431-11.79c0-6.61,5.331-11.941,11.932-11.941
		c4.813,0,8.958,2.841,10.863,6.944c-1.169-7.069-7.286-12.475-14.672-12.475c-8.222,0-14.873,6.66-14.873,14.873
		c0,8.214,6.651,14.865,14.873,14.865C318.25,162.314,319.403,162.064,320.456,161.838"/>
	<path fill="#1762AE" d="M847.514,258.305c-6.317-0.31-11.347-5.531-11.347-11.915c0-6.601,5.347-11.94,11.948-11.94
		c4.813,0,8.94,2.841,10.846,6.943c-1.153-7.061-7.27-12.475-14.673-12.475c-8.205,0-14.873,6.66-14.873,14.874
		c0,8.213,6.668,14.873,14.873,14.873C845.408,258.664,846.461,258.521,847.514,258.305"/>
</g>
</svg>
