<?xml version="1.0" encoding="utf-8"?>
<!-- Generator: Adobe Illustrator 28.1.0, SVG Export Plug-In . SVG Version: 6.00 Build 0)  -->
<svg version="1.1" id="Layer_1" xmlns="http://www.w3.org/2000/svg" xmlns:xlink="http://www.w3.org/1999/xlink" x="0px" y="0px"
	 viewBox="0 0 2020 1303" style="enable-background:new 0 0 2020 1303;" xml:space="preserve">
<style type="text/css">
	.st0{fill:#FFDD00;}
	.st1{fill:#E30026;}
	.st2{fill-rule:evenodd;clip-rule:evenodd;fill:#E30026;}
	.st3{fill:#0170B8;}
	.st4{fill:#69B022;}
	.st5{fill-rule:evenodd;clip-rule:evenodd;fill:#0170B8;}
	.st6{fill:#771C7F;}
</style>
<g id="Yellow_blob">
	<path id="blob" class="st0" d="M1308.7,173.2c24.3,51.5,56.4,114.2,117.6,130.9c64.9,16.2,123.9-10.7,177-37.5
		c46.5-29.9,115.2-47.9,166.9-17c53.8,32.1,79.8,88.9,73.6,151.3c-6.3,34.2-22.9,64.5-23.7,101.1c-4,42.4,13.6,76.5,43.3,106.4
		l15.9,17.2c24.9-2,50.7-0.2,74.4,4.1c7.9,33.3,13.7,67.2,20.8,100.4l-0.8,0.8c-13.4-4.1-27.1-6.7-40.8-10.3l-0.4,0.4l2.6,13.7
		c26.7,6.7,54.5,17.6,69.9,43.5c16.4,27.4,20.6,68.1,6.7,98.2c-27.1,58-90.8,76.1-150.4,78.8c-86.6,95.1-198.8,148.3-326.9,151.1
		c-69.5,0-131.9-18.6-196.8-30.7c-63.8,34.3-164.7,57.6-226.3,2.8c-6.3-6-12.5-13.1-17.6-20c-118,18-216.6,84.3-312.4,158
		c-108.5,77.2-266.7,119-395.2,55.8c-96.4-44.9-171.7-143.5-164.5-255.4l-1.2-0.4l-41.2,4.2c-30.9-69.3-60-139.4-89.9-209.1
		L23.4,657.7c-7.4-19-15.5-37.5-23.6-56.1l1.2-1.2l126.7-13.8c0.4,0.8,0.8,1.6,1.4,2.4l0.8-0.8C134,482.6,176,386.2,266.3,325
		c97-65.9,230.8-75,350.2-50c44.6,12.4,94.9,3.9,132.3-18.5L747,213l-0.8-0.8l-66.9,2.6c-2-25.6-2.2-51.7-3-77.6l4-0.6l184.5-7.8
		c22.4-37.2,47.1-80.3,89.9-102.3c81.2-47.5,198.6-27.7,268.7,30.7C1262,88.5,1291.1,129.6,1308.7,173.2L1308.7,173.2z"/>
</g>
<g id="The">
	<path id="T" class="st1" d="M880.6,145.1l1.8,45.7L882,192l-65.5,2.4l-0.8,1.2l7.7,194.4l-1.2,1l-52.8,1.4l-0.8-2l-4.8-123.8
		l-2.3-68.9l-1.6-0.9l-66.2,2.1c-1.5-15.4-2.1-31.6-2.3-47.3l3.9-1l182.2-7.1C878.7,143.7,880.6,143.7,880.6,145.1L880.6,145.1z"/>
	<path id="h" class="st1" d="M952.7,195.2c-4.1,29.3-9.7,57.2-13.5,85.9l0.2,0.8c20.4-13.1,51.7-10.9,71.7,0.8
		c36.8,24.9,17.6,76.2,13.3,111.8l-9.7,57.3c-15.7-2-31.1-4.2-46-7.2c5-32.8,10.7-65.3,15.1-98c0.6-10.7-0.4-22.5-10.7-27.7
		c-12.9-6.9-29.9-3.8-41,4.6c-6.9,37-12.3,74.4-19,111.4l-0.4,0.4l-46.1-7.7l11.5-72.1l21.7-129.4c2-12.9,4.2-26.2,6.8-39.4
		l45.7,7.3L952.7,195.2z"/>
	<path id="e" class="st2" d="M1202,290.4c6.9,13.9,11.5,29.1,14.6,44.4l-1.2,0.9l-101.9,14.1c1.4,13.5,13.2,26.3,26.1,31.5
		c28.3,9.1,58-1.2,78.4-22h0.6l7.1,46.3c-33,23.2-85.5,34.7-123.1,12.3c-32.1-20-45-56.4-41.4-94.4c3.4-26.6,20.8-53.3,47.3-62.8
		c24.8-9.5,60-9.5,79.8,10.7C1193.9,277.7,1198.8,283.3,1202,290.4z M1130.5,289.8c-9.9,2.6-18.2,10.5-19.6,20.6c0,2-1.6,4.2,0,6.3
		c17-2.3,33.9-3.9,50.5-6.9c-2-4.8-3.6-10.3-7.1-13.9C1148.5,288.6,1139,288.6,1130.5,289.8z"/>
</g>
<g id="Wiggles">
	<g id="W_00000124853990226971085950000006680989829145570944_">
		<path id="W" class="st3" d="M590,554.1l-37.4,207.7l-30.5,167.9c-2.4,12.5-4.6,25.3-6.7,37.8c-33.1,4.2-66.6,7.9-100.6,11.7
			l-5.8-15.5l-70.6-192.8c-7.6-22-13.1-45.1-18.6-68.3c-0.4,0-0.4-0.8-1.2-0.8c-1,12.5-1.2,25.2-1.2,38.2
			c-1,50.5-10.3,98.8-15.1,147.9l-14,105.1l-99.8,11.5L142,896.6L29.3,632.7l-8.1-18.6l1.2-1.2l94.8-10.7l1.8,2l83.5,204.1
			c8,20.2,13.7,41.6,20.6,62l0.8-0.8c-0.4-58.2,8.7-112.1,15.3-167.3l14.8-115l1.6-0.8l100.2-10.9l1.6,2.8L429,771.9
			c8.8,23.2,14.7,47.9,22.4,71.9c1.2,0.8,1.6-0.8,1.6-2c1.4-53.5,10.7-104.2,19.2-155.4L494,559.9c31.9-4,64.5-7,96.4-11.1
			L590,554.1z"/>
	</g>
	<g id="i">
		<path id="i_base" class="st3" d="M736.9,558.9c-5.7,13.8-15.2,25.9-14.8,42.3c-1,17.7,11.6,29.7,17.8,44.4
			c7.5,19.4,0.2,40.2-10.1,56c-7.7,18.8-4,42.2,8.7,57.6c10.1,15.5,10.1,40.6-0.6,55.5c-6.1,9.1-8.9,18.8-9.1,30.3l-1.2,0.9
			c-28.5,0.8-58,1.2-86.3,1.8c-4.2-20.2,14.6-32.2,16.8-50.3c3-20.4-6.7-36.8-16.8-52.2c-4.2-12.3-5.6-30.1,0.8-41.8
			c11.3-15.6,17.8-39.6,8.5-58.2c-8.5-15.1-19.8-29.9-15.5-49.9c1-12.9,10.1-22.8,14.5-34.1C678.7,559.9,708.2,559.3,736.9,558.9
			L736.9,558.9z"/>
		<path id="i_dot" class="st4" d="M727.2,460.3c8.9,12.4,9.5,30.5,3.8,44.3c-6.4,16.3-24.6,27.3-42,27.9
			c-17.8-0.2-34.1-8.3-42.6-23.9c-8.5-14.9-8.3-37.2,2.6-50.7c11.3-14.7,29.1-21.8,48.3-18.4C708.8,441.9,720.7,449.2,727.2,460.3z"
			/>
	</g>
	<g id="g1">
		<path id="g_1" class="st5" d="M1106.3,633.5c-6.7,23.6-12.8,47.5-19.8,71.1c-4.7-0.8-8.9-4.6-13.8-6.4
			c-16.6-4.7-38.6-8.3-53.5,0.6c-1.2,0.4-0.8,1.6-0.4,2c22.4,25.4,26.2,66.5,12.3,97c-12.1,31.7-44.9,52.3-78.4,54.3
			c-26.5,2.8-52.9-3-78.4-7.3c-6.7-0.2-13.7,0.7-17.2,6.9c-1.6,4.7-3.2,11.7,1,15.4c7.5,8.1,17.6,10.1,26.7,14.5
			c47.5,17,112.9,43.5,120.4,102.7c3.9,44.6-14.7,86-53.7,109.1c-58,33.1-137.4,15.3-193-10.7c-40-18.6-82-56.6-83.8-103.9
			c-1.7-31.9,11.3-61.2,37.1-79.8c23.1-16,52.4-19.2,81.9-16.4c0.8,0,1-0.4,1-1.2c-14.6-7.1-33.2-17.4-35.4-35.3
			c-1.2-12,4.1-21.3,13-28.7c10.7-7.3,25.6-6.5,39.2-5.5l0.4-0.4c-9.7-9.1-20.2-17.2-27.7-28.7c-20.6-26.7-20.4-71.1-3.3-99.4
			c25.3-43.8,76-59,125.5-51.7c22.4,3.4,43.7,10.1,63.3,21c26.2-22.6,55.3-43.9,92.7-37.2C1078.4,618.1,1093.3,623.4,1106.3,633.5
			L1106.3,633.5z M909.4,702c-17.3-2.2-34.3,3.8-42.4,18.8c-6.4,12.1-7.1,30.3,1,41.8c8.9,14,25.1,20.4,41.7,20.2
			c14.1-0.6,28-7.9,34.5-20.4c6.7-11.3,6.5-29.1-1-39.8C935.5,711.1,923,703.8,909.4,702z M821.6,940.4
			c-17.6-0.2-36.6,5.9-44.3,22.4c-5,11.8-5.7,28.3,3,38.2c18.2,22.3,45.1,29.7,73,33.2c19.4,1,39.4-4.3,49.1-21.8
			c6.8-11.8,4.4-28.7-3.5-39C879.1,950.1,851.3,942.2,821.6,940.4L821.6,940.4z"/>
	</g>
	<g id="g2">
		<path id="g_2" class="st5" d="M1258,530l24.4,64.1c-3,2-7.8,1.6-11.9,2.6c-17.8,4.9-37.2,15.4-46,33.4c3.8,2.8,10.1,3.6,15.3,6
			c33.8,14,53.4,47.9,55.8,83.1c3,43.8-32.3,78.4-67.7,97c-13.5,6.8-27.7,11.5-39.6,22c-3.2,3.8-4.1,10.1-1.8,14.5
			c2,5.7,8.1,8.1,13.7,8.5c32.3-4.6,60.8-18.6,94.4-20.6c41.2-4.6,80.6,8.1,102,43.6c20.6,31,23.9,80.3,4.3,112.8
			c-33,56-95.2,82-154,95.2c-49.7,9.7-109.5,3.8-139.4-42.3c-16.2-23.4-21.5-58.6-8.3-85.2c10.5-23.3,31.7-40.6,53.5-54.6l-1.2-1.2
			c-17,3.4-40.8,6.3-51.5-10.9c-4.3-8.3-7.3-19.4-2.8-28.3c5.6-12.5,16.7-20,27.4-27.3c-5.8-1.2-13.3-0.4-19.8-1.8
			c-23.2-3.8-45-13.5-60-33.3c13-28.3,15.4-69.1-0.8-96.6v-0.8c21-2.5,35.4,11.5,51.7,19.4c9.5-33.4,19.4-67.1,28.7-100.5
			c10.3-3.8,21.5-5.6,33-7.4c1.6-4.1,2.4-8.7,3.2-13c5.9-35.3,31.5-71.7,69.1-79.2c7.9-2.2,17-3,26.1-3.2L1258,530z M1180.6,695.3
			c-14.9-7-34.3-4.4-47.1,4.9c-12.3,8.1-20,21.8-17.8,37.6c2.3,15.3,14.2,30.9,30.4,34.3c19.6,3.6,40.2-4.4,50.7-21.6
			c7.9-11.3,7-28.7,0.4-40.2C1193.3,703.4,1186.9,698.8,1180.6,695.3z M1271.5,919.8c-31.3,2.6-61.8,13.7-80.6,40.4
			c-7.3,11.3-6.2,28.7,1.4,39.8c7.3,11.1,20,15.8,32.6,17c32.5-0.6,64.2-10.7,85-37.4c7.7-10.1,10.3-28.3,3.3-39.4
			C1304.7,924.7,1288.3,919,1271.5,919.8L1271.5,919.8z"/>
	</g>
	<g id="l_00000100353360358775105180000001208624759172652690_">
		<path id="l" class="st6" d="M1448.5,391.4c2.5,19-6.6,33.8-16.3,47.5c-7.3,16.8-5.7,39,4.8,53.8c8.5,13.9,9.1,33.9,2.2,48.5
			c-13.5,15.7-20.6,38.3-13.7,58.6c5.1,11.5,13.1,21.8,13.7,34.7c4.9,24.1-15.7,37.8-19.6,58.2c-4.4,18.4,2.7,35.2,11.8,49.3
			c6.4,17.8,3.8,39.8-8.7,53.9c-5.5,7.9-8.5,16.4-8.9,26.7l-0.8,0.8l-86.3-3.4c-3.2-20.6,17-32.5,19.2-50.9
			c7.5-24.5-12.5-40.4-15.4-62.1c-3.2-20.2,8.3-35.3,17.6-50.9c8.9-21.2-0.2-43.4-10.7-61.2c-6.9-20.6,1.6-41.8,13.9-57.4
			c7.7-16.1,5.7-38.2-4.4-52.5c-9.3-13.6-8.7-33.6-3-48.5c9.7-14.4,19.2-29.3,16.7-48.3l0.6-0.8l86.3,3.4L1448.5,391.4z"/>
	</g>
	<g id="e_00000178920511529036179810000017634589633130762906_">
		<path id="e_00000108989923033217575300000015476165595809322638_" class="st5" d="M1714.8,667.8c13.4,30.2,16.2,64.5,14,100.7
			l-8.7-0.4l-164.7-16.2c-0.4,3.6-0.8,8.7,0.2,12.3c2.9,26.7,24.7,50.7,49.7,58.4c39.6,14,83.5,3.9,117.2-15.9
			c-1.8,26.8-3.8,53.9-7.2,80.4c-60.7,24.4-146.9,21.8-197.7-22.5c-46.4-39.6-59.4-104.4-41.8-162.8c11.9-44.7,49.9-84.9,96.2-94.6
			c47.1-8.5,97,0.6,127.7,36.6C1706.4,651.1,1710.6,659.6,1714.8,667.8L1714.8,667.8z M1622.9,664c-16.4-5.2-36.6-3.2-48.9,9.7
			c-6.5,6.9-10.9,14.8-11.3,23.8l85.5,9.3l0.8-0.8c0.6-8.7-2-16.1-4.9-23.2C1639.9,673.7,1631.6,667.2,1622.9,664z"/>
	</g>
	<g id="s_00000170256504888763581880000017361154147668995496_">
		<path id="s" class="st3" d="M1941.2,642.4l1.2,3.2c3.6,21.4,9.3,42.2,12.7,64.1c-14.1-3.1-28.3-6.3-43.9-6.9
			c-19.6-0.2-40.6,1.2-51.9,18.8c-1.6,4.2-1,9.5,1.8,13.3c3.9,3.3,8.3,4.9,13,6.1c48.5,6.1,109.9,7.5,126.3,62
			c12.1,35,2.6,76.2-25.3,99c-45.3,39.2-110.9,42.5-171.1,32.8l-1.7-2.1c-4.4-24.8-10.5-48.9-14.9-73.7c7.9,2,16.6,3.2,24.4,5.6
			c28.3,5.5,61.9,6.7,88.3-4c10.3-5.4,20.6-16,19.2-29.1c-0.6-6.7-2.6-14.1-9.3-17.8c-20-10.1-45.6-7.2-68.1-11.9
			c-26.6-3.8-57.9-15.5-66.4-44.8c-10.3-30.2-3.3-63.9,21.4-84.1C1836.3,640.4,1889.4,635.1,1941.2,642.4L1941.2,642.4z"/>
	</g>
</g>
</svg>
