<?xml version="1.0" encoding="UTF-8" standalone="no"?>
<svg
   version="1.1"
   width="924.32465"
   height="128.86842"
   xml:space="preserve"
   viewBox="0 0 924.32465 128.86842"
   id="svg26930"
   xmlns="http://www.w3.org/2000/svg"
   xmlns:svg="http://www.w3.org/2000/svg"><defs
     id="defs45"><linearGradient
       id="digit"
       x1="4.24333"
       y1="58.3064"
       x2="47.688702"
       y2="58.3064"
       gradientUnits="userSpaceOnUse"
       gradientTransform="matrix(1.9449959,0,0,1.9449959,-1.4091242,0)"><stop
         stop-color="#EBF5F7"
         id="stop10" /><stop
         offset=".1524"
         stop-color="#F1F8FA"
         id="stop12" /><stop
         offset=".5381"
         stop-color="#FCFDFE"
         id="stop14" /><stop
         offset="1"
         stop-color="#fff"
         id="stop16" /></linearGradient><linearGradient
       id="alb"
       x1="52.104401"
       y1="76.5783"
       x2="77.753799"
       y2="15.3213"
       gradientUnits="userSpaceOnUse"
       gradientTransform="matrix(1.9449959,0,0,1.9449959,-1.4091242,0)"><stop
         offset=".1"
         stop-color="#C09"
         id="stop19" /><stop
         offset=".1989"
         stop-color="#CF0090"
         id="stop21" /><stop
         offset=".3602"
         stop-color="#D70078"
         id="stop23" /><stop
         offset=".5638"
         stop-color="#E40050"
         id="stop25" /><stop
         offset=".7995"
         stop-color="#F70019"
         id="stop27" /><stop
         offset=".9"
         stop-color="red"
         id="stop29" /></linearGradient><linearGradient
       id="in"
       x1="52.104401"
       y1="76.5783"
       x2="77.753799"
       y2="15.3213"
       gradientUnits="userSpaceOnUse"
       gradientTransform="matrix(1.9449959,0,0,1.9449959,-1.4091242,0)"><stop
         offset=".1"
         stop-color="#C09"
         id="stop32" /><stop
         offset=".1989"
         stop-color="#CF0090"
         id="stop34" /><stop
         offset=".3602"
         stop-color="#D70078"
         id="stop36" /><stop
         offset=".5638"
         stop-color="#E40050"
         id="stop38" /><stop
         offset=".7995"
         stop-color="#F70019"
         id="stop40" /><stop
         offset=".9"
         stop-color="red"
         id="stop42" /></linearGradient></defs><path
     d="M 195.55088,101.40333 H 182.07945 L 156.68636,36.24422 h 12.16595 l 9.30797,24.726732 c 3.6743,9.745596 7.34859,19.57191 10.77781,29.317506 3.51091,-9.826313 7.10292,-19.813478 10.85871,-29.639792 l 9.22706,-24.404446 h 12.00257 z m 45.23476,-79.012538 c 0,4.107832 -3.34733,7.571091 -7.75664,7.571091 -4.4093,0 -7.75664,-3.463259 -7.75664,-7.571091 0,-4.107598 3.34734,-7.570935 7.75664,-7.570935 4.40931,0 7.75664,3.463337 7.75664,7.570935 z M 227.3146,101.40333 V 36.24422 h 11.43074 v 65.15911 z m 77.40306,-43.895832 v 43.895832 h -10.85891 v -8.618081 c -4.16424,6.604428 -12.32933,10.228931 -22.37329,10.228931 -13.30766,0 -23.35162,-5.879531 -23.35162,-18.76649 0,-16.913878 17.14708,-19.57191 34.86599,-23.437978 l 10.61385,-2.255223 v -0.241568 c 0,-9.906642 -6.77637,-13.77271 -16.00343,-13.77271 -10.12565,0 -17.47384,4.671491 -21.55639,8.215273 l -3.75579,-9.504028 c 5.06283,-4.027114 13.88144,-8.537559 25.80232,-8.537559 16.90201,-0.08052 26.61727,8.859651 26.61727,22.793601 z m -11.10398,16.189173 v -5.960245 l -9.63551,2.094177 c -16.90007,3.705022 -24.41359,6.121291 -24.41359,14.336564 0,6.040768 5.06282,9.342982 13.55468,9.342982 11.10398,-0.08052 20.49442,-5.718482 20.49442,-19.813478 z m 87.61039,-4.913254 c 0,20.860664 -12.41102,34.230763 -30.86319,34.230763 -9.63551,0 -17.31047,-3.543785 -22.37329,-10.309453 V 120.65315 H 316.55685 V 36.24422 h 11.02229 v 10.228928 c 5.06282,-7.651614 13.22792,-11.839774 23.43331,-11.839774 17.96398,0 30.21162,13.370096 30.21162,34.150043 z m -11.59412,0 c 0,-14.739179 -8.24678,-24.082161 -20.6578,-24.082161 -12.41102,0 -21.4747,9.342982 -21.4747,24.323924 0,14.578133 8.65523,24.001638 21.22963,24.001638 12.5744,0 20.90287,-9.423505 20.90287,-24.243401 z m 21.22768,32.619913 V 17.316687 h 11.43269 v 84.086643 z m 77.48669,-43.895832 v 43.895832 h -10.85891 v -8.618081 c -4.16423,6.604428 -12.32933,10.228931 -22.37328,10.228931 -13.30767,0 -23.35163,-5.879531 -23.35163,-18.76649 0,-16.913878 17.14709,-19.57191 34.86406,-23.437978 l 10.61578,-2.255223 v -0.241568 c 0,-9.906642 -6.77636,-13.77271 -16.00342,-13.77271 -10.12565,0 -17.47385,4.671491 -21.55639,8.215273 l -3.75579,-9.504028 c 5.06283,-4.027114 13.88144,-8.537559 25.80232,-8.537559 16.90007,-0.08052 26.61726,8.859651 26.61726,22.793601 z m -11.10398,16.189173 v -5.960245 l -9.63551,2.094177 c -16.90201,3.705022 -24.41358,6.121291 -24.41358,14.336564 0,6.040768 5.06282,9.342982 13.55467,9.342982 11.10398,-0.08052 20.49442,-5.718482 20.49442,-19.813478 z m 54.54158,23.437978 c -6.12285,15.544601 -13.7978,21.665891 -27.84262,24.968111 l -3.59241,-9.10122 c 6.85806,-2.25523 12.98285,-4.42993 17.55554,-10.87331 L 472.1818,36.24422 h 12.16595 l 8.81861,23.437978 c 3.6741,9.826119 8.0834,21.504847 10.85891,29.15646 3.02058,-7.812659 7.26651,-19.330341 11.02229,-29.15646 l 8.81862,-23.437978 h 11.83919 z"
     id="path2"
     style="fill:#212d33;fill-opacity:1" /><path
     d="M 91.3664,77.320976 V 51.547447 L 22.954088,15.389235 C 16.364073,20.933796 10.821827,27.911858 6.8832684,35.611902 L 65.319988,64.434212 6.8832684,93.256327 c 3.9447436,7.767343 9.4341246,14.639013 16.0708196,20.222703 z"
     fill="url(#digit)"
     id="path4"
     style="fill:url(#digit);stroke-width:1.945" /><path
     fill-rule="evenodd"
     clip-rule="evenodd"
     d="m 130.63995,64.434212 c 0,35.586028 -29.24476,64.434208 -65.319962,64.434208 -16.165833,0 -30.960249,-5.79297 -42.3659,-15.38919 L 91.3664,77.320976 V 51.547447 L 22.954088,15.389235 C 34.359739,5.7929368 49.154155,0 65.319988,0 101.39519,0 130.63995,28.848179 130.63995,64.434212 Z"
     fill="url(#alb)"
     id="path6"
     style="fill:url(#alb);stroke-width:1.945" /><path
     d="M 6.8832684,93.256327 65.319988,64.434212 6.8832684,35.612096 C 2.4787864,44.284638 0,54.073802 0,64.434212 0,74.794621 2.4787475,84.583785 6.8832684,93.256327 Z"
     fill="url(#in)"
     id="path8"
     style="fill:url(#in);stroke-width:1.945" /><path
     d="M 579.80776,128.05916 V 0.88066385 h 4.82208 V 128.05916 Z"
     id="path32882"
     style="fill:#8a8c90" /><path
     d="m 681.90403,41.863795 -6.56243,8.394703 q -3.28122,-2.582986 -6.74993,-3.874479 -3.37496,-1.383743 -7.59366,-1.383743 -5.06244,0 -7.87491,2.213988 -2.81247,2.121739 -2.81247,5.350471 0,2.767484 2.24997,4.704723 2.24997,1.937239 7.03118,3.966729 l 6.56242,2.859734 q 5.90618,2.582985 9.5624,5.073721 3.65621,2.398487 5.62494,5.903967 1.96872,3.413231 1.96872,8.394703 0,5.903968 -2.99996,10.331942 -2.90622,4.427976 -8.15616,6.826466 -5.1562,2.39848 -11.90613,2.39848 -7.78115,0 -14.24983,-2.58298 -6.46868,-2.675237 -11.15613,-6.918714 l 6.18743,-8.486953 q 9.1874,7.656708 19.12479,7.656708 5.34369,0 8.4374,-2.306237 3.18747,-2.306237 3.18747,-6.457464 0,-2.582986 -1.40624,-4.335726 -1.40623,-1.844989 -3.8437,-3.136482 -2.34373,-1.383743 -6.74993,-3.228732 l -6.46868,-2.859734 q -8.06241,-3.505481 -11.34362,-7.564458 -3.18747,-4.058978 -3.18747,-9.962945 0,-4.889222 2.71872,-9.040449 2.71872,-4.151227 7.78117,-6.549713 5.15619,-2.490737 12.09362,-2.490737 12.18736,0 20.53102,7.103211 z"
     id="path3354"
     style="fill:#8a8c90;fill-opacity:1" /><path
     d="m 735.4108,77.997772 q 0,7.268885 -2.97725,12.881568 -2.88422,5.612684 -8.00138,8.741065 -5.02412,3.128375 -11.25774,3.128375 -9.21089,0 -14.60717,-5.796701 V 119.03478 H 687.9608 V 54.442903 h 10.04824 v 5.336649 q 2.60509,-3.12838 6.4197,-4.784582 3.90764,-1.656202 8.74569,-1.656202 6.23362,0 11.25774,3.128381 5.11716,3.128382 8.00138,8.741065 2.97725,5.612684 2.97725,12.789558 z m -10.69951,0 q 0,-7.084863 -3.90765,-11.041346 -3.81461,-3.956482 -9.39696,-3.956482 -3.62852,0 -6.69882,1.748214 -3.0703,1.748213 -4.93108,5.152627 -1.76774,3.312404 -1.76774,8.096987 0,4.784582 1.76774,8.188997 1.86078,3.312403 4.93108,5.060617 3.0703,1.748212 6.69882,1.748212 5.58235,0 9.39696,-3.956482 3.90765,-3.956481 3.90765,-11.041344 z"
     id="path3356"
     style="fill:#8a8c90;fill-opacity:1" /><path
     d="m 786.92682,78.036677 q 0,7.284478 -3.25976,13.00141 -3.1666,5.624724 -8.84787,8.852022 -5.58813,3.135091 -12.48017,3.135091 -6.89203,0 -12.5733,-3.135091 -5.58814,-3.227298 -8.84787,-8.852022 -3.25976,-5.716932 -3.25976,-13.00141 0,-7.284479 3.25976,-12.909202 3.25973,-5.716932 8.84787,-8.852024 5.68127,-3.227301 12.5733,-3.227301 6.89204,0 12.48017,3.227301 5.68127,3.135092 8.84787,8.852024 3.25976,5.624723 3.25976,12.909202 z m -38.55813,0 q 0,4.702637 1.86271,8.114356 1.95585,3.411717 5.12245,5.16368 3.25974,1.751963 6.98517,1.751963 3.72542,0 6.89204,-1.751963 3.1666,-1.751963 5.02932,-5.16368 1.95585,-3.411719 1.95585,-8.114356 0,-4.702638 -1.95585,-8.114356 -1.86272,-3.411717 -5.02932,-5.16368 -3.16662,-1.751964 -6.89204,-1.751964 -3.72543,0 -6.98517,1.751964 -3.1666,1.751963 -5.12245,5.16368 -1.86271,3.411718 -1.86271,8.114356 z"
     id="path3358"
     style="fill:#8a8c90;fill-opacity:1" /><path
     d="M 801.36553,80.988844 V 101.60852 H 790.74289 V 54.468989 h 10.15674 v 7.841939 c 1.30453,-2.527373 3.26133,-4.592424 5.87039,-6.195149 2.67119,-1.602725 5.96358,-2.434909 9.87719,-2.496553 l 1.11817,10.171141 c -5.40449,0.123288 -9.50445,1.602727 -12.29988,4.438318 -2.73331,2.773947 -4.09997,7.027333 -4.09997,12.760159 z"
     id="path3360"
     style="fill:#8a8c90;fill-opacity:1" /><path
     d="m 840.33942,85.31096 q 0,4.247687 1.77489,6.002166 1.86832,1.754481 6.16542,1.754481 1.30782,0 2.42881,-0.184683 v 8.864736 q -2.80247,0.73873 -5.97859,0.73873 -7.47323,0 -11.30325,-3.508958 -3.73662,-3.508959 -3.73662,-11.080924 V 63.426134 h -8.87447 v -8.95708 h 8.87447 V 39.509806 h 10.64934 v 14.959248 h 10.83619 v 8.95708 h -10.83619 z"
     id="path3362"
     style="fill:#8a8c90;fill-opacity:1" /><path
     d="m 889.91096,58.211831 -5.21446,7.561104 q -4.93513,-3.596134 -10.80141,-3.596134 -3.5384,0 -5.40071,1.290919 -1.86232,1.198712 -1.86232,3.31951 0,1.844171 1.39674,2.858466 1.48985,1.014294 4.84202,2.397423 l 4.19019,1.659754 q 7.16989,2.858467 10.42895,5.993559 3.25904,3.135091 3.25904,8.667607 0,6.731226 -5.02824,10.696196 -4.93513,3.964965 -12.75684,3.964965 -5.58694,0 -10.61517,-1.75195 -5.02825,-1.844183 -8.65975,-4.979273 l 5.49382,-7.745522 q 2.79346,2.305215 6.33186,3.780553 3.6315,1.383128 7.44924,1.383128 3.44528,0 5.40071,-1.29092 2.04854,-1.383129 2.04854,-4.057177 0,-2.305215 -2.14165,-3.596136 -2.04856,-1.383128 -6.89056,-3.319508 l -4.28333,-1.751963 q -5.86627,-2.397424 -8.38038,-5.440307 -2.42103,-3.042884 -2.42103,-7.468895 0,-3.596135 2.04855,-6.731227 2.04856,-3.135093 6.05251,-5.071473 4.0971,-1.93638 9.77714,-1.93638 5.02825,0 9.03222,1.475338 4.09708,1.475336 6.70432,3.688343 z"
     id="path3364"
     style="fill:#8a8c90;fill-opacity:1" /><path
     d="M 924.32464,101.59935 H 912.88729 V 52.706989 l -14.01229,9.978 -5.67497,-7.650767 21.86197,-16.260839 h 9.26264 z"
     id="path4035"
     style="fill:#ffcf1b;fill-opacity:1" /></svg>
