<?xml version="1.0" encoding="UTF-8" standalone="no"?>
<!-- Generator: Adobe Illustrator 22.0.1, SVG Export Plug-In . SVG Version: 6.00 Build 0)  -->

<svg
   version="1.1"
   id="Layer_1"
   x="0px"
   y="0px"
   width="1000px"
   height="449.62323px"
   viewBox="0 0 1000 449.62323"
   enable-background="new 0 0 1000 449.62323"
   xml:space="preserve"
   sodipodi:docname="Nova_Sport_1.svg"
   inkscape:version="1.3 (0e150ed6c4, 2023-07-21)"
   xmlns:inkscape="http://www.inkscape.org/namespaces/inkscape"
   xmlns:sodipodi="http://sodipodi.sourceforge.net/DTD/sodipodi-0.dtd"
   xmlns="http://www.w3.org/2000/svg"
   xmlns:svg="http://www.w3.org/2000/svg"><defs
   id="defs8" /><sodipodi:namedview
   id="namedview8"
   pagecolor="#ffffff"
   bordercolor="#000000"
   borderopacity="0.25"
   inkscape:showpageshadow="2"
   inkscape:pageopacity="0.0"
   inkscape:pagecheckerboard="0"
   inkscape:deskcolor="#d1d1d1"
   inkscape:zoom="0.636"
   inkscape:cx="500"
   inkscape:cy="224.0566"
   inkscape:window-width="1920"
   inkscape:window-height="1001"
   inkscape:window-x="-9"
   inkscape:window-y="-9"
   inkscape:window-maximized="1"
   inkscape:current-layer="g7" />&#10;<g
   id="g8">&#10;	<rect
   fill="#1F1F1D"
   width="1000"
   height="449.62323"
   id="rect1" />&#10;	<g
   id="g7">&#10;		<path
   fill="#FFFFFF"
   d="M92.6921997,91.9566345h20.1386642v10.5518875    c5.6073837-7.4762115,14.4707794-12.1187057,25.1431961-12.1187057c19.2342529,0,32.4388428,13.9882202,32.4388428,33.0412369    v48.4177933h-20.1386566v-44.8600159c0-10.6724167-7.7782135-18.2691498-18.6311798-18.2691498    c-10.8532104,0-18.8122025,7.5967331-18.8122025,18.2691498v44.8600159H92.6921997V91.9566345z"
   id="path1" />&#10;		<path
   fill="#FFFFFF"
   d="M224.588501,90.4312134c24.178299,0,42.6889648,17.9682999,42.6889648,41.42276    c0,23.5759125-18.5106659,41.5442047-42.6889648,41.5442047c-24.1785278,0-42.6891937-17.9682922-42.6891937-41.5442047    C181.8993073,108.3995132,200.4099731,90.4312134,224.588501,90.4312134 M224.588501,154.9468689    c12.4207153,0,21.8871918-9.948349,21.8871918-23.0928955c0-13.0240173-9.4664764-22.9723663-21.8871918-22.9723663    c-12.4209442,0-21.7063904,9.948349-21.7063904,22.9723663    C202.8821106,144.9985199,212.1675568,154.9468689,224.588501,154.9468689"
   id="path2" />&#10;		<polygon
   fill="#FFFFFF"
   points="266.4818726,91.9566345 288.1880188,91.9566345 310.2562256,150.7450714 332.3847046,91.9566345     352.7646484,91.9566345 320.9286499,171.8488464 298.2573547,171.8488464   "
   id="polygon2" />&#10;		<path
   fill="#FFFFFF"
   d="M416.9610291,161.9418945c-6.3912354,7.1146393-15.1946106,11.4562836-25.927063,11.4562836    c-21.8871765,0-38.649292-17.9682922-38.649292-41.5442047c0-23.4544601,16.7621155-41.42276,38.649292-41.42276    c10.7324524,0,19.5358276,4.3416519,25.927063,11.6366119V91.9382324h20.1386719v79.9520111h-20.1386719V161.9418945z     M395.0738525,154.9468689c12.4207153,0,21.8871765-9.948349,21.8871765-23.0928955    c0-13.0240173-9.4664612-22.9723663-21.8871765-22.9723663c-12.420929,0-21.7063904,9.948349-21.7063904,22.9723663    C373.3674622,144.9985199,382.6529236,154.9468689,395.0738525,154.9468689"
   id="path3" />&#10;		<polygon
   fill="#D32339"
   points="883.2077026,324.6787109 883.2077026,204.2690582 817.6061401,225.1915894     817.6061401,257.4498596 846.668457,251.0583801 846.668457,324.6787109 817.6061401,324.6787109 817.6061401,356.9370117     907.3859863,356.9370117 907.3859863,324.6787109   "
   id="polygon3"
   style="fill:#1d78d1;fill-opacity:1" />&#10;		<path
   fill="#FFFFFF"
   d="M124.5824738,309.315033c2.351387,10.7331543,9.2252045,16.3407593,22.3695221,16.3407593    c11.1547394,0,18.2696075-4.2809143,18.2696075-11.8178711c0-25.8069763-74.4046631-8.3815002-74.4046631-63.2505951    c0-26.4087067,24.299057-46.185791,55.0496368-46.185791c31.4139252,0,52.4572144,16.9424591,56.1350555,42.3271637    l-37.0213165,7.5369263c-2.3516083-11.2152252-8.8031311-16.3398285-20.3799286-16.3398285    c-9.8883209,0-15.9179993,4.2809296-15.9179993,11.5768127c0,23.6955109,74.4046478,6.4512787,74.4046478,63.2496796    c0,26.4694214-24.9624023,46.4277649-57.220459,46.4277649c-32.4388428,0-55.0496368-17.60672-58.2453766-42.5691223    L124.5824738,309.315033z"
   id="path4" />&#10;		<path
   fill="#FFFFFF"
   d="M226.7167816,206.5121002h66.4456635c35.6948242,0,58.2453613,22.369751,58.2453613,52.6977997    c0,30.3289795-22.5505371,51.6130676-58.2453613,51.6130676h-29.9066772v46.246521h-36.5389862V206.5121002z     M293.1624451,278.5646973c12.480957,0,20.4399719-8.3806152,20.4399719-19.7761841    c0-11.6375122-7.9590149-20.0181274-20.4399719-20.0181274h-29.9066772v39.7943115H293.1624451z"
   id="path5" />&#10;		<path
   fill="#FFFFFF"
   d="M444.9623108,204.4024658c44.9200439,0,79.5295105,33.7653046,79.5295105,77.358429    c0,43.6538391-34.6094666,77.4200745-79.5295105,77.4200745c-44.9202576,0-79.59021-33.7662354-79.59021-77.4200745    C365.3721008,238.1677704,400.0420532,204.4024658,444.9623108,204.4024658 M444.9623108,325.6557922    c23.6357117,0,41.7243042-19.1128235,41.7243042-43.8948975c0-24.7204285-18.0885925-43.8341827-41.7243042-43.8341827    c-23.6359253,0-41.7245178,19.1137543-41.7245178,43.8341827    C403.237793,306.5429688,421.3263855,325.6557922,444.9623108,325.6557922"
   id="path6" />&#10;		<path
   fill="#FFFFFF"
   d="M597.4193726,307.6092834H582.586792v49.441803h-36.5392456V206.5544281h66.626709    c34.1873169,0,55.8937378,21.4644318,55.8937378,50.52742c0,21.0430603-11.5767822,38.0462341-30.7505493,46.0054626    l35.0917358,53.9637756h-43.4728394L597.4193726,307.6092834z M612.6742554,274.2653503    c10.9736938,0,18.088562-7.5369263,18.088562-17.6057739c0-10.3706512-7.1148682-17.9075928-18.088562-17.9075928H582.586792    v35.5133667H612.6742554z"
   id="path7" />&#10;		<polygon
   fill="#FFFFFF"
   points="721.4711914,238.7759094 677.3950195,238.7759094 677.3950195,206.5185394     802.0860596,206.5185394 802.0860596,238.7759094 758.0101929,238.7759094 758.0101929,357.0759277 721.4711914,357.0759277   "
   id="polygon7" />&#10;	</g>&#10;</g>&#10;</svg>
