<?xml version="1.0" encoding="utf-8"?>
<!-- Generator: Adobe Illustrator 22.0.1, SVG Export Plug-In . SVG Version: 6.00 Build 0)  -->
<svg version="1.1" id="Layer_1" xmlns="http://www.w3.org/2000/svg" xmlns:xlink="http://www.w3.org/1999/xlink" x="0px" y="0px"
	 width="1000px" height="441.007782px" viewBox="0 0 1000 441.007782" enable-background="new 0 0 1000 441.007782"
	 xml:space="preserve">
<g>
	<rect fill="#1F1F1D" width="1000" height="441.007782"/>
	<g>
		<path fill="#FFFFFF" d="M90.9515076,90.1882935h19.7527695v10.3497009
			c5.499939-7.3329544,14.1934967-11.8864975,24.6614151-11.8864975c18.8657074,0,31.8172607,13.7201843,31.8172607,32.4081192
			v47.490036H147.430191v-44.0004349c0-10.4679108-7.6291809-17.9190826-18.2741852-17.9190826
			c-10.6452408,0-18.4517288,7.4511719-18.4517288,17.9190826v44.0004349H90.9515076V90.1882935z"/>
		<path fill="#FFFFFF" d="M220.3263397,88.6930084c23.7150116,0,41.8709869,17.6239929,41.8709869,40.6290436
			c0,23.1241608-18.1559753,40.7481537-41.8709869,40.7481537c-23.7152405,0-41.8712006-17.6239929-41.8712006-40.7481537
			C178.4551392,106.3170013,196.6110992,88.6930084,220.3263397,88.6930084 M220.3263397,151.9724426
			c12.1827087,0,21.467804-9.7577209,21.467804-22.6503906c0-12.8331223-9.2850952-22.5321884-21.467804-22.5321884
			c-12.1829376,0-21.2904663,9.6990662-21.2904663,22.5321884
			C199.0358734,142.2147217,208.1434021,151.9724426,220.3263397,151.9724426"/>
		<polygon fill="#FFFFFF" points="261.4169617,90.1882935 282.7072144,90.1882935 304.3525391,147.8502502 326.0570068,90.1882935 
			346.0464478,90.1882935 314.8204651,168.5496521 292.5835876,168.5496521 		"/>
		<path fill="#FFFFFF" d="M409.0188293,158.8334351c-6.2687988,6.9783173-14.9034729,11.2367706-25.4302673,11.2367706
			c-21.467804,0-37.9087219-17.6239929-37.9087219-40.7481537c0-23.0050507,16.440918-40.6290436,37.9087219-40.6290436
			c10.5267944,0,19.1614685,4.2584534,25.4302673,11.4136353v-9.9354935h19.7527771v78.4200058h-19.7527771V158.8334351z
			 M387.5510254,151.9724426c12.1827087,0,21.467804-9.7577209,21.467804-22.6503906
			c0-12.8331223-9.2850952-22.5321884-21.467804-22.5321884c-12.1829224,0-21.2904663,9.6990662-21.2904663,22.5321884
			C366.2605591,142.2147217,375.368103,151.9724426,387.5510254,151.9724426"/>
		<path fill="#31BAD4" d="M799.4440308,318.5638733l61.3873291-51.037384
			c5.499939-4.6130981,10.1130371-10.763916,10.1130371-19.1617126c0-8.0431366-5.2634888-15.0214539-17.7422485-15.0214539
			c-10.2903442,0-17.6828613,6.1508026-17.6828613,19.3981323l-37.1398926-4.1988983
			c2.1290283-31.6401672,23.0054932-48.0811157,54.8227539-48.0811157c32.2905884,0,54.8821411,17.5057831,54.8821411,46.8394012
			c0,19.1607971-11.1774292,35.0106506-24.72052,45.5372314l-32.0539551,25.7257996h57.7797241v31.6401672H799.4440308V318.5638733z
			"/>
		<path fill="#FFFFFF" d="M122.2365799,303.3763733c2.3063202,10.5274658,9.0484238,16.0276489,21.9408798,16.0276489
			c10.9409943,0,17.9195404-4.1989136,17.9195404-11.5914307c0-25.3124695-72.9789581-8.2209167-72.9789581-62.03862
			c0-25.9026642,23.8334503-45.3007965,53.9947968-45.3007965c30.8119965,0,51.4520569,16.6178131,55.059433,41.5161133
			l-36.3119354,7.3925018c-2.3065491-10.9407654-8.6344452-16.0267334-19.9894257-16.0267334
			c-9.6988373,0-15.6129837,4.1988983-15.6129837,11.4136353c0,23.1828156,72.9789505,6.3285828,72.9789505,61.9790802
			c0,25.9622192-24.4840851,45.5381165-56.1240387,45.5381165c-31.8172607,0-53.9947968-17.2693481-57.1293106-41.753418
			L122.2365799,303.3763733z"/>
		<path fill="#FFFFFF" d="M222.4140625,202.5550232h65.1724548c35.0108948,0,57.1293335,21.9411163,57.1293335,51.6880341
			c0,29.747818-22.1184387,50.6240997-57.1293335,50.6240997h-29.3336182v45.3603516h-35.8388367V202.5550232z
			 M287.5865173,273.2269897c12.2418213,0,20.0483093-8.2200317,20.0483093-19.3972321
			c0-11.4145355-7.806488-19.634552-20.0483093-19.634552h-29.3336182v39.0317841H287.5865173z"/>
		<path fill="#FFFFFF" d="M436.4833374,200.4858093c44.0593262,0,78.0056152,33.0587616,78.0056152,75.8761292
			s-33.9462891,75.9365845-78.0056152,75.9365845c-44.0595398,0-78.0651245-33.1192017-78.0651245-75.9365845
			S392.4237976,200.4858093,436.4833374,200.4858093 M436.4833374,319.415741
			c23.1828308,0,40.9248047-18.746582,40.9248047-43.0538025c0-24.2467499-17.7419739-42.9942474-40.9248047-42.9942474
			c-23.1830444,0-40.9250183,18.7474976-40.9250183,42.9942474
			C395.5583191,300.6691589,413.300293,319.415741,436.4833374,319.415741"/>
		<path fill="#FFFFFF" d="M586.019043,301.7096252h-14.5483398v48.4944153h-35.8981934v-147.612915h65.4091187
			c33.5322876,0,54.8227539,21.0531311,54.8227539,49.5592499c0,20.6398468-11.3549805,37.317215-30.1613159,45.1239166
			l34.4193115,52.9297485h-42.6397705L586.019043,301.7096252z M600.9816284,269.0046082
			c10.7634888,0,17.7420044-7.3924866,17.7420044-17.2684326c0-10.1719208-6.9785156-17.5644379-17.7420044-17.5644379h-29.5109253
			v34.8328705H600.9816284z"/>
		<polygon fill="#FFFFFF" points="707.7000122,234.2006073 664.4683838,234.2006073 664.4683838,202.5613403 
			786.7702026,202.5613403 786.7702026,234.2006073 743.5388184,234.2006073 743.5388184,350.1751709 707.7000122,350.1751709 		"/>
	</g>
</g>
</svg>
