<?xml version="1.0" encoding="UTF-8" standalone="no"?><svg version="1.1" width="499.44699" height="75.319214" xml:space="preserve" viewBox="0 0 499.44699 75.319214" xmlns="http://www.w3.org/2000/svg" xmlns:svg="http://www.w3.org/2000/svg"><defs><linearGradient id="a" x1="-207.81" y1="282.45001" x2="-207.17999" y2="282.45001" gradientTransform="matrix(806.1 0 0 138.93 167517.78 -39203.255)" gradientUnits="userSpaceOnUse"><stop offset="0" stop-color="#00250d"/><stop offset=".01605486" stop-color="#003010"/><stop offset=".15000001" stop-color="#003412"/><stop offset=".27165318" stop-color="#00441a"/><stop offset=".31669265" stop-color="#004b1d"/><stop offset=".3517018" stop-color="#004b1d"/><stop offset=".45542949" stop-color="#004b1d"/><stop offset=".94975686" stop-color="#004a1c"/></linearGradient><linearGradient id="b" x1="-207.90038" y1="287.54001" x2="-207.28" y2="287.54001" gradientTransform="matrix(341.36 0 0 62.54 71215.732 -17945.435)" gradientUnits="userSpaceOnUse"><stop offset="0" stop-color="#ad0434"/><stop offset=".32456306" stop-color="#a80a33"/><stop offset=".6080668" stop-color="#a41233"/><stop offset=".72253567" stop-color="#941530"/><stop offset=".84" stop-color="#831b2f"/><stop offset="1" stop-color="#51252b"/></linearGradient><linearGradient id="d" x1="-213.14999" y1="272.19" x2="-212.52" y2="272.19" gradientTransform="scale(72.41 -72.41) rotate(45 224.70487798 397.35839756)" gradientUnits="userSpaceOnUse"><stop offset="0" stop-color="#cfd1d2"/><stop offset=".5" stop-color="#fff"/><stop offset="1" stop-color="#cfd1d2"/></linearGradient><linearGradient id="e" x1="-212.89999" y1="272.75" x2="-212.28" y2="272.75" gradientTransform="scale(78.19 -78.120805) rotate(45 225.43549186 397.43862404)" gradientUnits="userSpaceOnUse"><stop offset="0" stop-color="#cfd1d2"/><stop offset=".5" stop-color="#fff"/><stop offset="1" stop-color="#cfd1d2"/></linearGradient><linearGradient id="f" x1="-213.23" y1="273.13" x2="-212.61" y2="273.13" gradientTransform="scale(78.19 -78.120805) rotate(45 226.2039441 399.00388894)" gradientUnits="userSpaceOnUse"><stop offset="0" stop-color="#cfd1d2"/><stop offset=".5" stop-color="#fff"/><stop offset="1" stop-color="#cfd1d2"/></linearGradient><linearGradient id="g" x1="-213.83" y1="272.92001" x2="-213.21001" y2="272.92001" gradientTransform="scale(72.96 -72.969224) rotate(45 225.95181284 400.53493835)" gradientUnits="userSpaceOnUse"><stop offset="0" stop-color="#cfd1d2"/><stop offset=".5" stop-color="#fff"/><stop offset="1" stop-color="#cfd1d2"/></linearGradient><linearGradient id="h" x1="-213.37" y1="272.67999" x2="-212.75" y2="272.67999" gradientTransform="scale(74.14 -74.14) rotate(45 225.53423743 398.76045396)" gradientUnits="userSpaceOnUse"><stop offset="0" stop-color="#cfd1d2"/><stop offset=".5" stop-color="#fff"/><stop offset="1" stop-color="#cfd1d2"/></linearGradient><linearGradient id="i" x1="-211.48" y1="271.32999" x2="-210.86" y2="271.32999" gradientTransform="matrix(55.28867922 -55.25372976 -55.28867922 -55.25372976 26716.80210723 3360.05118498)" gradientUnits="userSpaceOnUse"><stop offset="0" stop-color="#cfd1d2"/><stop offset=".5" stop-color="#fff"/><stop offset="1" stop-color="#cfd1d2"/></linearGradient><linearGradient id="j" x1="-211.64" y1="271.54001" x2="-211.02" y2="271.54001" gradientTransform="matrix(55.2547777 -55.25372976 -55.2547777 -55.25372976 26754.64284849 3366.66698513)" gradientUnits="userSpaceOnUse"><stop offset="0" stop-color="#cfd1d2"/><stop offset=".5" stop-color="#fff"/><stop offset="1" stop-color="#cfd1d2"/></linearGradient><linearGradient id="k" x1="-211.66" y1="271.98999" x2="-211.03" y2="271.98999" gradientTransform="scale(81.42 -81.368534) rotate(45 223.85888347 392.45043596)" gradientUnits="userSpaceOnUse"><stop offset="0" stop-color="#cfd1d2"/><stop offset=".5" stop-color="#fff"/><stop offset="1" stop-color="#cfd1d2"/></linearGradient><linearGradient id="l" x1="-211.28" y1="273.01999" x2="-210.66" y2="273.01999" gradientTransform="scale(94.67 -94.61015801) rotate(45 225.30085106 392.76431323)" gradientUnits="userSpaceOnUse"><stop offset="0" stop-color="#cfd1d2"/><stop offset=".5" stop-color="#fff"/><stop offset="1" stop-color="#cfd1d2"/></linearGradient><linearGradient id="m" x1="-213.3" y1="270.37" x2="-212.67999" y2="270.37" gradientTransform="scale(61.58 -61.541076) rotate(45 221.97999898 395.2559177)" gradientUnits="userSpaceOnUse"><stop offset="0" stop-color="#cfd1d2"/><stop offset=".5" stop-color="#fff"/><stop offset="1" stop-color="#cfd1d2"/></linearGradient><linearGradient id="n" x1="-212.09" y1="272.42001" x2="-211.46001" y2="272.42001" gradientTransform="scale(81.42 -81.368534) rotate(45 224.67184097 394.413089)" gradientUnits="userSpaceOnUse"><stop offset="0" stop-color="#cfd1d2"/><stop offset=".5" stop-color="#fff"/><stop offset="1" stop-color="#cfd1d2"/></linearGradient><linearGradient id="o" x1="-212.41" y1="272.32999" x2="-211.78999" y2="272.32999" gradientTransform="scale(78.18 -78.130582) rotate(45 224.68196806 395.29125616)" gradientUnits="userSpaceOnUse"><stop offset="0" stop-color="#cfd1d2"/><stop offset=".5" stop-color="#fff"/><stop offset="1" stop-color="#cfd1d2"/></linearGradient><filter id="r" x="-.17946677" y="-.08251381" width="1.3589335" height="1.1650276" color-interpolation-filters="sRGB"><feGaussianBlur stdDeviation="1.3527883"/></filter><filter id="q" x="-.047252" y="-.05360125" width="1.094504" height="1.1072025" color-interpolation-filters="sRGB"><feGaussianBlur stdDeviation="1.5124659"/></filter><filter id="p" x="-.00688607" y="-.04541488" width="1.0137721" height="1.0908298" color-interpolation-filters="sRGB"><feGaussianBlur stdDeviation="1.3070801"/></filter><filter id="c" x="-.02732992" y="-.10440467" width="1.0546598" height="1.2088093" color-interpolation-filters="sRGB"><feGaussianBlur stdDeviation="1.7392078"/></filter></defs><path d="M486.58764.28733062c4.33791.04996017 8.58587 2.39808888 10.89477 6.08515058 1.64919 2.6179138 2.2889 5.8453408 1.80911 8.9029048-2.4988 15.147928-5.05755 30.275872-7.64632 45.403816-1.37933 7.783797-8.45593 14.065718-16.52205 14.385463-.18992.019984-.39982.002753-.58971.003l-46.14782.060023c-7.39644.00962-13.9233-7.164291-12.7039-14.988056 2.4988-15.147928 5.05757-30.275873 7.64633-45.403816C424.74737 6.8021388 432.1538.28733062 440.42985.28733062h46.1478M440.53979 2.8253081c-6.9267.0199841-13.45354 5.2058513-14.72293 12.3401649-2.58876 15.127945-5.13754 30.245897-7.62633 45.37384-.91957 5.855335 3.89812 12.06039 10.20508 12.06039h46.11784c6.92666 0 13.38355-5.335748 14.62297-12.350159 2.57876-15.127944 5.13753-30.245896 7.62633-45.37384.91955-5.8453409-3.7482-12.0503959-10.20511-12.0503959Z" fill="#006530"/><path d="M25.202 1.0646653c-7.92 0-14.68 5.7-15.99 13.4899997-2.16 12.92-5.44 32.3-7.62 45.26-.56 3.37.38 6.85 2.61 9.45 2.21 2.64 5.49 4.13 8.92 4.13h461.11c7.92 0 14.67-5.7 15.97-13.49 2.18-12.92 5.44-32.28 7.62-45.25.57-3.38-.38-6.8599997-2.61-9.4699997-2.21-2.62-5.47-4.13-8.91-4.13h-461.1Z" fill="url(#a)"/><path d="M486.5878.28733062c4.33791.04996017 8.58587 2.39808888 10.89476 6.08515058 1.6492 2.6179138 2.28891 5.8453408 1.80912 8.9029048-2.4988 15.147928-5.05755 30.275872-7.64632 45.403816-1.37933 7.783797-8.45593 14.058726-16.52205 14.378471-.18992.019984-.39982.019984-.58971.019984-63.4395.164868-147.13926.22512-230.83902.238861-83.69976.013741-167.399523-.019028-230.839027-.238853C5.4591106 74.997729-1.0877419 67.963397.15166233 60.139632 2.6504608 44.991704 5.2092306 29.863759 7.797986 14.735816 9.1973133 6.7921468 16.623743.36761753 24.909759.30766531c126.879001-.37969741 334.799041-.43964964 461.678041 0M24.8 2.815316c-6.916676.0299762-13.303601 5.1260274-14.553 12.250349C7.6582452 30.19361 5.0488083 45.41137 2.57 60.539313c-.9395482 5.855335 3.9785868 11.990444 10.305546 12.06039 63.434507.214829 146.824414.2476 230.214324.23511 83.38991-.01249 166.77982-.070241 230.21432-.23511 6.92667-.059952 12.98341-5.435627 14.22281-12.450038 2.58876-15.127944 5.54768-30.146017 8.04648-45.273961.90957-5.8453409-3.7682-12.0100944-10.22509-12.0800387-126.839-.4296577-333.68937 0-460.54839 0" fill="#006530"/><path d="m256.942 4.0846653-12.28 66.4299997c51.93 0 142.87.16 194.8 0 6.89-.05 13.31-5.27 14.6-12.27 2.48-14.01 4.93-28.03 7.32-42.06.97-5.88-3.83-12.0599997-10.2-12.1099997-17.26-.06-38.84-.1-61.86-.1-46.06 0-97.88.1-132.38.1" fill="url(#b)"/><g opacity=".37" filter="url(#c)"><path d="M276.08684 19.919665c-2.24 0-4.15.665-5.73 2.025-1.57 1.35-2.56 3.18-2.96 5.48l-1.17984 6.61c-.35 2.05.03 3.78 1.22 5.2 1.19 1.4 2.98 2.38 5.32 2.94l9.62 2.19c.56.14.92.32 1.08.51.16.21.21.59.14 1.14l-.72 4.27c-.22 1.41-1.03 2.115-2.42 2.115h-8.32c-.57 0-.95-.095-1.13-.315-.14-.21-.17-.64-.08-1.25l.68984-3.8h-7.7l-.83 4.78c-.4 2.35 0 4.26 1.21 5.77 1.26 1.54 3.01 2.3 5.28 2.3h12.15c2.23 0 4.15-.68 5.73-2.02 1.57-1.37 2.56-3.19 2.96-5.5l1.24016-7.02c.4-2.05 0-3.77-1.19-5.16-1.22-1.38-3.01-2.37-5.39-2.95l-9.64-2.21c-.54-.14-.89-.3-1.05-.52-.17-.19-.22-.57-.14-1.11l.66984-3.86c.22-1.43 1.03-2.14 2.42-2.14h7.71c.54 0 .89.11 1.07.33.16.22.19.64.08 1.25l-.6 3.35h7.68016l.76-4.34c.41-2.35-.02-4.27-1.27-5.77-1.19-1.53-2.94-2.295-5.22-2.295Z"/><path d="m298.927 20.144665-6.92 39.505009h7.92l2.42-13.897314h12.26c2.27 0 4.2-.719739 5.77-2.048562 1.57-1.368787 2.54-3.187177 2.91-5.495133l1.81-9.981159c.37-2.317947-.08-4.226257-1.32-5.764893-1.24-1.538638-2.99-2.317948-5.23-2.317948Zm6.6 7.513h10.23c.59 0 .95027.099998 1.11027.319803.17.209814.22973.599728.09973 1.229171l-1.21 6.923867c-.29 1.428734-1.08 2.158465-2.42 2.158465h-9.67Z"/><path d="m359.87673 20.164657-6.93 39.505008h7.92l2.59-14.677098h6.15l3.63 14.677098h8.29l-3.83-14.896902c3.69-.889213 5.92-3.277001 6.65-7.26347l1.62527-9.271787c.41-2.34792-.00527-4.266222-1.24527-5.764893-1.24-1.538638-3.01-2.327948-5.28-2.327948h-19.57Zm6.58 7.483371h10.18c.59 0 .92027.129885 1.08027.34969.16.209814.26.619452.15 1.248894l-1.1 6.273995c-.29 1.408754-1.12027 2.108058-2.44027 2.108058H364.722l1.75-9.990628h-.01527Z"/><path d="m387.647 20.144665-1.27 7.340938h10.06l-5.66 32.174067h7.9l5.67-32.174067h10.06l1.26-7.340938Z"/><path d="m346.04484 19.924665-1.3 7.47h1.46c.54 0 .91.11 1.08.33.16.22.17.64.08 1.25l-3.75 21.32c-.24 1.41-1.02 2.13-2.35 2.13h-.88984l-1.3 7.47h3.39c2.24 0 4.14-.68 5.71-2.02 1.57-1.37 2.58-3.19 2.99-5.5l4.28-24.39c.4-2.35-.04-4.27-1.29-5.77-1.21-1.53-2.94-2.3-5.22-2.3h-2.89016Zm-10.11 0c-2.23 0-4.14.67-5.73 2.03-1.57 1.35-2.56 3.18-2.96 5.48l-4.28 24.39c-.43 2.35 0 4.26 1.19 5.77 1.29 1.54 3.05 2.3 5.28 2.3h3.53l1.3-7.47h-2.02c-.59 0-.99-.11-1.13-.33-.17-.21-.21-.64-.1-1.25l3.74-21.3c.3-1.43 1.1-2.14 2.42-2.14h1.46l1.3-7.47h-4Z"/></g><g><path d="M274.58684 18.419665c-2.24 0-4.15.665-5.73 2.025-1.57 1.35-2.56 3.18-2.96 5.48l-1.17984 6.61c-.35 2.05.03 3.78 1.22 5.2 1.19 1.4 2.98 2.38 5.32 2.94l9.62 2.19c.56.14.92.32 1.08.51.16.21.21.59.14 1.14l-.72 4.27c-.22 1.41-1.03 2.115-2.42 2.115h-8.32c-.57 0-.95-.095-1.13-.315-.14-.21-.17-.64-.08-1.25l.68984-3.8h-7.7l-.83 4.78c-.4 2.35 0 4.26 1.21 5.77 1.26 1.54 3.01 2.3 5.28 2.3h12.15c2.23 0 4.15-.68 5.73-2.02 1.57-1.37 2.56-3.19 2.96-5.5l1.24016-7.02c.4-2.05 0-3.77-1.19-5.16-1.22-1.38-3.01-2.37-5.39-2.95l-9.64-2.21c-.54-.14-.89-.3-1.05-.52-.17-.19-.22-.57-.14-1.11l.66984-3.86c.22-1.43 1.03-2.14 2.42-2.14h7.71c.54 0 .89.11 1.07.33.16.22.19.64.08 1.25l-.6 3.35h7.68016l.76-4.34c.41-2.35-.02-4.27-1.27-5.77-1.19-1.53-2.94-2.295-5.22-2.295Z" fill="url(#d)"/><path d="m297.427 18.644665-6.92 39.505009h7.92l2.42-13.897314h12.26c2.27 0 4.2-.719739 5.77-2.048562 1.57-1.368787 2.54-3.187177 2.91-5.495133l1.81-9.981159c.37-2.317947-.08-4.226257-1.32-5.764893-1.24-1.538638-2.99-2.317948-5.23-2.317948Zm6.6 7.513h10.23c.59 0 .95027.099998 1.11027.319803.17.209814.22973.599728.09973 1.229171l-1.21 6.923867c-.29 1.428734-1.08 2.158465-2.42 2.158465h-9.67Z" fill="url(#e)"/><path d="m358.37673 18.664657-6.93 39.505008h7.92l2.59-14.677098h6.15l3.63 14.677098h8.29l-3.83-14.896902c3.69-.889213 5.92-3.277001 6.65-7.26347l1.62527-9.271787c.41-2.34792-.00527-4.266222-1.24527-5.764893-1.24-1.538638-3.01-2.327948-5.28-2.327948h-19.57Zm6.58 7.483371h10.18c.59 0 .92027.129885 1.08027.34969.16.209814.26.619452.15 1.248894l-1.1 6.273995c-.29 1.408754-1.12027 2.108058-2.44027 2.108058H363.222l1.75-9.990628h-.01527Z" fill="url(#f)"/><path d="m386.147 18.644665-1.27 7.340938h10.06l-5.66 32.174067h7.9l5.67-32.174067h10.06l1.26-7.340938Z" fill="url(#g)"/><path d="m344.54484 18.424665-1.3 7.47h1.46c.54 0 .91.11 1.08.33.16.22.17.64.08 1.25l-3.75 21.32c-.24 1.41-1.02 2.13-2.35 2.13h-.88984l-1.3 7.47h3.39c2.24 0 4.14-.68 5.71-2.02 1.57-1.37 2.58-3.19 2.99-5.5l4.28-24.39c.4-2.35-.04-4.27-1.29-5.77-1.21-1.53-2.94-2.3-5.22-2.3h-2.89016Zm-10.11 0c-2.23 0-4.14.67-5.73 2.03-1.57 1.35-2.56 3.18-2.96 5.48l-4.28 24.39c-.43 2.35 0 4.26 1.19 5.77 1.29 1.54 3.05 2.3 5.28 2.3h3.53l1.3-7.47h-2.02c-.59 0-.99-.11-1.13-.33-.17-.21-.21-.64-.1-1.25l3.74-21.3c.3-1.43 1.1-2.14 2.42-2.14h1.46l1.3-7.47h-4Z" fill="url(#h)"/></g><g><path d="m34.982 18.664659-6.92 39.515006h7.9l2.43-13.921194h12.25c2.27 0 4.21-.699558 5.79-2.028717 1.57-1.369134 2.54-3.187984 2.89-5.496524l1.83-9.983685c.37-2.318533-.08-4.227326-1.32-5.766352-1.26-1.539027-2.99-2.318534-5.23-2.318534Zm6.6 7.465278h10.23c.59 0 .95.129918 1.13.349779.16.209867.19.619608.08 1.24921l-1.21 6.925619c-.29 1.429096-1.1 2.11412-2.42 2.11412h-9.69Z" fill="url(#i)"/><path d="m64.877756 18.664659-6.915757 39.515006h7.915143l2.578418-14.690323h6.146229l3.627774 14.690323h8.294911l-3.847639-14.8606c3.707725-.889438 5.926364-3.317902 6.655916-7.305379l1.638995-9.274134c.399755-2.348515-.019988-4.267301-1.259227-5.766353-1.23924-1.539027-3.008155-2.318534-5.276763-2.318534h-19.558Zm6.595953 7.485266h10.15377c.589638 0 .989393.129917 1.129308.349778.169895.209868.20987.619608.099938 1.24921l-1.099326 6.316005c-.289822 1.409109-1.109319 2.07907-2.42851 2.07907h-9.604108l1.748928-10.004057Z" fill="url(#j)"/><path d="m96.09 18.664659-6.92 39.515006h25.43l1.34-7.465278H98.42l1.53-8.991721h14.16l1.32-7.471001h-14.16l1.43-8.104h17.52l1.32-7.493H96.09Z" fill="url(#k)"/><path d="m152.647 18.664659-13.95 23.385209-5.73-23.385209h-8.46l-6.93 39.515006h7.47l4.74-26.343337 4.93 20.037326h5.5l11.77-20.037326-4.72 26.343337h7.47l6.92-39.515006Z" fill="url(#l)"/><path d="m166.282 18.664659-6.93 39.515006h7.92l6.92-39.495019v-.019987Z" fill="url(#m)"/><path d="m178.802 18.664659-6.92 39.515006h25.43l1.34-7.465278h-17.52l1.53-8.982083h14.16l1.32-7.465278h-14.16l1.43-8.119361h17.52l1.32-7.493h-25.45Z" fill="url(#n)"/><path d="m207.222 18.664659-6.93 39.515006h7.92l2.58-14.690999h6.15l3.64 14.690999h8.3l-3.86-14.8606c3.72-.889438 5.92-3.317902 6.66-7.305379l1.64-9.274134c.41-2.348515-.02-4.267301-1.26-5.766353-1.24-1.539027-3.01-2.318534-5.28-2.318534h-19.56Zm6.6 7.485266h10.16c.59 0 .95.129917 1.13.349778.16.209868.19.619608.08 1.24921l-1.1 6.316005c-.3 1.409109-1.1 2.078747-2.42 2.078747h-9.62l1.77-10.003734Z" fill="url(#o)"/></g><path d="M450.37278 5.4437285c3.34.029983 6.59 2.8589432 8.32 5.6873355 1.24 2.028846 1.7 4.497443 1.29 6.846108-2.75 15.271316-5.87978 30.552629-8.72978 45.823946-1.07 5.536853-7.15 9.874593-12.93 9.954547-63.485.529699-136.64517.529453-211.00636.447-74.3612-.082453-148.72364-.247114-212.21364-.447-5.6799996-.059966-11.4399998-5.507075-10.4099998-11.413717C7.4430002 47.050641 10.273 31.779324 13.123 16.498012c1.08-5.556841 7.249778-10.9638433 13.089778-11.013815 126.960002-.379784 297.190002-.4597386 424.150002 0M26.282778 8.7526653c-4.55 0-8.989778 3.6576707-9.859778 8.2250747-2.86 15.271317-5.79 30.53264-8.4499998 45.843934-.67 4.077682 2.8197778 8.435205 7.2897778 8.515159 63.485001.659626 137.795002.424314 212.106252.391832 74.31125-.032481 147.42397.137867 210.91397-.391832 4.49-.059965 9.57-3.448039 10.46-7.935488 2.94-15.261323 5.97978-30.562624 8.72978-45.853929.72-4.127654-2.56-8.7447792-7.13-8.7947507-126.92-.4797272-297.12 0-424.060002 0" opacity=".75" fill="#000" filter="url(#p)"/><path d="M448.37239 3.9441968c3.34.029983 6.59 1.8589432 8.32 4.6873351 1.24 2.0288461 1.7 4.4974431 1.29 6.8461081-2.75 15.271316-5.58 30.552629-8.43 45.823946-1.07 5.536853-6.25 9.97433-12.03 10.054284-126.97 1.059398-297.24.399772-424.220001 0-5.68-.059966-10.64-5.606812-9.61-11.513454 2.75-15.291307 5.58-30.562624 8.43-45.843936 1.08-5.5568401 6.25-9.963843 12.09-10.0138147 126.960001-.379784 297.190001-.4597386 424.150001 0M24.292389 6.4927479c-4.55 0-8.8 3.4180564-9.67 7.9854601-2.86 15.271317-5.79 30.53264-8.45 45.843934-.67 4.077682 2.62 8.435205 7.09 8.515159 126.970001 1.319251 297.240001 1.059399 424.220001 0 4.49-.059965 8.67-3.448039 9.56-7.935488 2.94-15.261323 5.68-30.562624 8.43-45.853929.72-4.127654-2.56-8.4951703-7.13-8.5451418-126.92-.4797272-297.12 0-424.060001 0" fill="#fff"/><path d="M473.542 70.674665h-43.25c-6.52 0-10.86-5.34-9.64-11.85l7.94-42.58c1.22-6.5099997 7.55-11.8499997 14.08-11.8499997h43.25c6.52 0 10.86 5.34 9.64 11.8499997l-7.94 42.58c-1.22 6.51-7.55 11.85-14.08 11.85" fill="#fff"/><path d="M487.59398 5.4746653c3.35313.0300447 6.61591 1.9326988 8.35271 4.7669187 1.24487 2.033027 1.71672 4.506711 1.30511 6.860215-2.76081 15.302787-5.44192 30.615189-8.30312 45.917976-1.07421 5.548262-6.24453 10.188409-12.04723 10.17564l-45.55169-.100237c-5.70232-.012548-11.68182-5.59799-10.65781-11.526818 2.78089-15.302787 5.60194-30.615589 8.48322-45.918376 1.07421-5.568292 6.26453-10.1753187 12.13753-10.1753187Zm-46.22105 2.5048492c-4.56788.0200298-8.81451 3.5343095-9.70801 8.1211405-2.86121 15.302787-5.81276 30.595559-8.46314 45.938406-.68268 4.086084 2.63031 8.50269 7.10783 8.512329l46.56172.100237c4.50764.009705 8.68401-3.455633 9.59759-7.972359 2.95155-15.272742 5.60254-30.715338 8.36336-46.038155.72283-4.136159-2.57007-8.6515836-7.15803-8.6515836Z" opacity=".43" fill="#000" filter="url(#q)"/><path d="M486.03203 3.9746653c3.34.03 6.68997 1.83 8.41997 4.66 1.24 2.0299997 1.71 4.4999997 1.3 6.8499997-2.75 15.28-5.52 30.47-8.37 45.75-1.07 5.54-6.22005 10.16-12.00005 10.16h-46.27c-5.68 0-10.64-5.58-9.62-11.5 2.77-15.28 5.58-30.57 8.45-45.85 1.07-5.5599997 6.34005-10.0699997 12.19005-10.0699997Zm-45.84003 2.505c-4.55.02-8.88005 3.435-9.77005 8.0149997-2.85 15.28-5.79 30.55-8.43 45.87-.68 4.08 2.62 8.49 7.08 8.49h46.28c4.49 0 8.65-3.45 9.56-7.96 2.94-15.25 5.68-30.47 8.43-45.77.72-4.13-2.65997-8.6349997-7.22997-8.6349997Z" fill="#fff"/><path d="m469.441 19.031665-6.8895 39.347256h-8.1303l4.95585-30.504594-8.02682 3.134637 1.00878-7.28382 10.5919-4.603033Z" opacity=".41" fill="#000" filter="url(#r)"/><path d="m466.64186 20.434665-6.64978 37.855h-7.81232l5.19375-29.698499-7.79702 2.472998 1.06856-6.528982 9.80708-4.100517Z" fill="#004b1d"/><path d="m432.84834 6.4494971 7.34366.0301682.00856-2.5236146-7.83476-.0257645Z" fill="#fff"/></svg>