<?xml version="1.0" encoding="UTF-8"?>
<svg id="_Слой_1" data-name="Слой 1" xmlns="http://www.w3.org/2000/svg" width="500" height="75.5" xmlns:xlink="http://www.w3.org/1999/xlink" viewBox="0 0 500 75.5">
  <defs>
    <style>
      .cls-1 {
        fill: url(#_Безымянный_градиент_7);
      }

      .cls-2 {
        fill: url(#_Безымянный_градиент_9);
      }

      .cls-3 {
        fill: #fff;
      }

      .cls-3, .cls-4, .cls-5 {
        fill-rule: evenodd;
      }

      .cls-6 {
        fill: url(#_Безымянный_градиент);
      }

      .cls-7 {
        fill: url(#_Безымянный_градиент_6);
      }

      .cls-8 {
        fill: url(#_Безымянный_градиент_13);
      }

      .cls-9 {
        fill: url(#_Безымянный_градиент_8);
      }

      .cls-10 {
        fill: url(#_Безымянный_градиент_2);
      }

      .cls-11 {
        fill: url(#_Безымянный_градиент_10);
      }

      .cls-12 {
        fill: url(#_Безымянный_градиент_14);
      }

      .cls-13 {
        fill: url(#_Безымянный_градиент_4);
      }

      .cls-14 {
        fill: url(#_Безымянный_градиент_12);
      }

      .cls-4, .cls-15 {
        fill: #002f56;
      }

      .cls-16 {
        fill: url(#_Безымянный_градиент_5);
      }

      .cls-17 {
        fill: url(#_Безымянный_градиент_3);
      }

      .cls-18 {
        fill: url(#_Безымянный_градиент_11);
      }
    </style>
    <linearGradient id="_Безымянный_градиент" data-name="Безымянный градиент" x1="-69.99" y1="279.56" x2="-69.36" y2="279.56" gradientTransform="translate(56416.64 -38800.74) scale(806.1 138.93)" gradientUnits="userSpaceOnUse">
      <stop offset="0" stop-color="#001d34"/>
      <stop offset=".15" stop-color="#002645"/>
      <stop offset=".33" stop-color="#002e52"/>
      <stop offset="1" stop-color="#002f56"/>
    </linearGradient>
    <linearGradient id="_Безымянный_градиент_2" data-name="Безымянный градиент 2" x1="-70.31" y1="281.13" x2="-69.68" y2="281.13" gradientTransform="translate(24247.1 -17542.92) scale(341.36 62.54)" gradientUnits="userSpaceOnUse">
      <stop offset="0" stop-color="#9e1d37"/>
      <stop offset=".65" stop-color="#932136"/>
      <stop offset=".84" stop-color="#752432"/>
      <stop offset="1" stop-color="#51252b"/>
    </linearGradient>
    <linearGradient id="_Безымянный_градиент_3" data-name="Безымянный градиент 3" x1="-72.57" y1="277.47" x2="-71.94" y2="277.47" gradientTransform="translate(18183.32 10546.16) rotate(-45) scale(72.41 -72.41)" gradientUnits="userSpaceOnUse">
      <stop offset="0" stop-color="#cfd1d2"/>
      <stop offset=".5" stop-color="#fff"/>
      <stop offset="1" stop-color="#cfd1d2"/>
    </linearGradient>
    <linearGradient id="_Безымянный_градиент_4" data-name="Безымянный градиент 4" x1="-72.52" y1="277.65" x2="-71.9" y2="277.65" gradientTransform="translate(19644.98 11394.33) rotate(-45) scale(78.19 -78.19)" gradientUnits="userSpaceOnUse">
      <stop offset="0" stop-color="#cfd1d2"/>
      <stop offset=".5" stop-color="#fff"/>
      <stop offset="1" stop-color="#cfd1d2"/>
    </linearGradient>
    <linearGradient id="_Безымянный_градиент_5" data-name="Безымянный градиент 5" x1="-72.85" y1="278.03" x2="-72.23" y2="278.03" gradientTransform="translate(19749.08 11400.95) rotate(-45) scale(78.19 -78.19)" gradientUnits="userSpaceOnUse">
      <stop offset="0" stop-color="#cfd1d2"/>
      <stop offset=".5" stop-color="#fff"/>
      <stop offset="1" stop-color="#cfd1d2"/>
    </linearGradient>
    <linearGradient id="_Безымянный_градиент_6" data-name="Безымянный градиент 6" x1="-73.27" y1="278.14" x2="-72.65" y2="278.14" gradientTransform="translate(18511 10619.62) rotate(-45) scale(72.96 -72.96)" gradientUnits="userSpaceOnUse">
      <stop offset="0" stop-color="#cfd1d2"/>
      <stop offset=".5" stop-color="#fff"/>
      <stop offset="1" stop-color="#cfd1d2"/>
    </linearGradient>
    <linearGradient id="_Безымянный_градиент_7" data-name="Безымянный градиент 7" x1="-72.85" y1="277.84" x2="-72.23" y2="277.84" gradientTransform="translate(18705.98 10801.54) rotate(-45) scale(74.14 -74.14)" gradientUnits="userSpaceOnUse">
      <stop offset="0" stop-color="#cfd1d2"/>
      <stop offset=".5" stop-color="#fff"/>
      <stop offset="1" stop-color="#cfd1d2"/>
    </linearGradient>
    <linearGradient id="_Безымянный_градиент_8" data-name="Безымянный градиент 8" x1="-71.1" y1="276.23" x2="-70.48" y2="276.23" gradientTransform="translate(19225.03 11394.33) rotate(-45) scale(78.19 -78.19)" gradientUnits="userSpaceOnUse">
      <stop offset="0" stop-color="#cfd1d2"/>
      <stop offset=".5" stop-color="#fff"/>
      <stop offset="1" stop-color="#cfd1d2"/>
    </linearGradient>
    <linearGradient id="_Безымянный_градиент_9" data-name="Безымянный градиент 9" x1="-71.26" y1="276.44" x2="-70.64" y2="276.44" gradientTransform="translate(19279.25 11400.95) rotate(-45) scale(78.19 -78.19)" gradientUnits="userSpaceOnUse">
      <stop offset="0" stop-color="#cfd1d2"/>
      <stop offset=".5" stop-color="#fff"/>
      <stop offset="1" stop-color="#cfd1d2"/>
    </linearGradient>
    <linearGradient id="_Безымянный_градиент_10" data-name="Безымянный градиент 10" x1="-71.38" y1="276.66" x2="-70.75" y2="276.66" gradientTransform="translate(20126.04 11876.57) rotate(-45) scale(81.42 -81.42)" gradientUnits="userSpaceOnUse">
      <stop offset="0" stop-color="#cfd1d2"/>
      <stop offset=".5" stop-color="#fff"/>
      <stop offset="1" stop-color="#cfd1d2"/>
    </linearGradient>
    <linearGradient id="_Безымянный_градиент_11" data-name="Безымянный градиент 11" x1="-71.32" y1="277.04" x2="-70.7" y2="277.04" gradientTransform="translate(23439.7 13831.64) rotate(-45) scale(94.67 -94.67)" gradientUnits="userSpaceOnUse">
      <stop offset="0" stop-color="#cfd1d2"/>
      <stop offset=".5" stop-color="#fff"/>
      <stop offset="1" stop-color="#cfd1d2"/>
    </linearGradient>
    <linearGradient id="_Безымянный_градиент_12" data-name="Безымянный градиент 12" x1="-72.28" y1="276.57" x2="-71.66" y2="276.57" gradientTransform="translate(15343.66 8948.21) rotate(-45) scale(61.58 -61.58)" gradientUnits="userSpaceOnUse">
      <stop offset="0" stop-color="#cfd1d2"/>
      <stop offset=".5" stop-color="#fff"/>
      <stop offset="1" stop-color="#cfd1d2"/>
    </linearGradient>
    <linearGradient id="_Безымянный_градиент_13" data-name="Безымянный градиент 13" x1="-71.81" y1="277.1" x2="-71.18" y2="277.1" gradientTransform="translate(20258.39 11876.57) rotate(-45) scale(81.42 -81.42)" gradientUnits="userSpaceOnUse">
      <stop offset="0" stop-color="#cfd1d2"/>
      <stop offset=".5" stop-color="#fff"/>
      <stop offset="1" stop-color="#cfd1d2"/>
    </linearGradient>
    <linearGradient id="_Безымянный_градиент_14" data-name="Безымянный градиент 14" x1="-72.03" y1="277.21" x2="-71.41" y2="277.21" gradientTransform="translate(19506.4 11400.42) rotate(-45) scale(78.18 -78.18)" gradientUnits="userSpaceOnUse">
      <stop offset="0" stop-color="#cfd1d2"/>
      <stop offset=".5" stop-color="#fff"/>
      <stop offset="1" stop-color="#cfd1d2"/>
    </linearGradient>
  </defs>
  <path class="cls-4" d="M487.14,.31c4.34,.05,8.59,2.4,10.9,6.09,1.65,2.62,2.29,5.85,1.81,8.91-2.5,15.16-5.06,30.3-7.65,45.44-1.38,7.79-8.46,14.12-16.53,14.44-.19,.02-.4,.02-.59,.02h-46.17c-7.4,0-13.93-7.17-12.71-15,2.5-15.16,5.06-30.3,7.65-45.44,1.42-7.94,8.83-14.46,17.11-14.46h46.17m-46.06,2.54c-6.93,.02-13.46,5.21-14.73,12.35-2.59,15.14-5.14,30.27-7.63,45.41-.92,5.86,3.9,12.07,10.21,12.07h46.14c6.93,0,13.39-5.34,14.63-12.36,2.58-15.14,5.14-30.27,7.63-45.41,.92-5.85-3.75-12.06-10.21-12.06h-46.05Z"/>
  <path class="cls-6" d="M25.08,1.58c-7.92,0-14.68,5.7-15.99,13.49C6.93,27.99,3.65,47.37,1.47,60.33c-.56,3.37,.38,6.85,2.61,9.45,2.21,2.64,5.49,4.13,8.92,4.13H474.11c7.92,0,14.67-5.7,15.97-13.49,2.18-12.92,5.44-32.28,7.62-45.25,.57-3.38-.38-6.86-2.61-9.47-2.21-2.62-5.47-4.13-8.91-4.13H25.08Z"/>
  <path class="cls-4" d="M486.82,.31c4.34,.05,8.59,2.4,10.9,6.09,1.65,2.62,2.29,5.85,1.81,8.91-2.5,15.16-5.06,30.3-7.65,45.44-1.38,7.79-8.46,14.12-16.53,14.44-.19,.02-.4,.02-.59,.02-126.94,.33-334.96,.44-461.9,0-7.4-.08-13.95-7.17-12.71-15C2.65,45.05,5.21,29.91,7.8,14.77,9.2,6.82,16.63,.37,24.92,.31,151.86-.07,359.88-.13,486.82,.31M25.01,2.84c-6.92,.03-13.46,5.23-14.71,12.36-2.59,15.14-5.15,30.27-7.63,45.41-.94,5.86,3.88,12,10.21,12.07,126.93,.43,333.72,.33,460.65,0,6.93-.06,13.39-5.34,14.63-12.36,2.59-15.14,5.15-30.27,7.65-45.41,.91-5.85-3.77-12-10.23-12.07-126.9-.43-333.65,0-460.57,0"/>
  <path class="cls-10" d="M256.82,4.6l-12.28,66.43c51.93,0,142.87,.16,194.8,0,6.89-.05,13.31-5.27,14.6-12.27,2.48-14.01,4.93-28.03,7.32-42.06,.97-5.88-3.83-12.06-10.2-12.11-17.26-.06-38.84-.1-61.86-.1-46.06,0-97.88,.1-132.38,.1"/>
  <g>
    <path d="M275.78,20.27c-2.24,0-4.15,.67-5.73,2.03-1.57,1.35-2.56,3.18-2.96,5.48l-1.16,6.59c-.35,2.05,.05,3.78,1.24,5.2,1.19,1.4,2.96,2.38,5.3,2.94l9.62,2.19c.56,.14,.92,.32,1.08,.51,.16,.21,.21,.59,.14,1.14l-.72,4.29c-.22,1.41-1.03,2.13-2.42,2.13h-8.32c-.57,0-.95-.11-1.13-.33-.14-.21-.17-.64-.08-1.25l.67-3.8h-7.7l-.83,4.78c-.4,2.35,0,4.26,1.21,5.77,1.26,1.54,3.01,2.3,5.28,2.3h12.15c2.23,0,4.15-.68,5.73-2.02,1.57-1.37,2.56-3.19,2.96-5.5l1.26-7.04c.4-2.05,0-3.77-1.19-5.16-1.22-1.38-3.01-2.37-5.39-2.95l-9.64-2.21c-.54-.14-.89-.3-1.05-.52-.17-.19-.22-.57-.14-1.11l.65-3.84c.22-1.43,1.03-2.14,2.42-2.14h7.71c.54,0,.89,.11,1.07,.33,.16,.22,.19,.64,.08,1.25l-.6,3.35h7.7l.76-4.34c.41-2.35-.02-4.27-1.27-5.77-1.19-1.53-2.94-2.3-5.22-2.3h-11.48Z"/>
    <path d="M298.68,20.43l-6.92,39.54h7.92l2.42-13.93h12.26c2.27,0,4.2-.7,5.77-2.03,1.57-1.37,2.54-3.19,2.91-5.5l1.81-9.99c.37-2.32-.08-4.23-1.32-5.77s-2.99-2.32-5.23-2.32h-19.63Zm6.6,7.47h10.23c.59,0,.97,.13,1.13,.35,.17,.21,.21,.62,.08,1.25l-1.21,6.93c-.29,1.43-1.08,2.14-2.42,2.14h-9.67l1.86-10.67Z"/>
    <path d="M359.59,20.43l-6.93,39.54h7.92l2.59-14.65h6.15l3.63,14.65h8.29l-3.83-14.87c3.69-.89,5.92-3.32,6.65-7.31l1.64-9.28c.41-2.35-.02-4.27-1.26-5.77-1.24-1.54-3.01-2.32-5.28-2.32h-19.56Zm6.58,7.47h10.18c.59,0,.97,.13,1.13,.35,.16,.21,.19,.62,.08,1.25l-1.1,6.32c-.29,1.41-1.1,2.13-2.42,2.13h-9.62l1.75-10.06Z"/>
    <path d="M387.43,20.43l-1.27,7.37h10.05l-5.65,32.17h7.9l5.66-32.17h10.07l1.26-7.37h-28.02Z"/>
    <path d="M345.76,20.27l-1.3,7.47h1.46c.54,0,.91,.11,1.08,.33,.16,.22,.17,.64,.08,1.25l-3.75,21.32c-.24,1.41-1.02,2.13-2.35,2.13h-.87l-1.3,7.47h3.39c2.24,0,4.14-.68,5.71-2.02,1.57-1.37,2.58-3.19,2.99-5.5l4.28-24.39c.4-2.35-.02-4.27-1.27-5.77-1.21-1.53-2.94-2.3-5.22-2.3h-2.91Zm-10.11,0c-2.23,0-4.14,.67-5.73,2.03-1.57,1.35-2.56,3.18-2.96,5.48l-4.28,24.39c-.43,2.35,0,4.26,1.19,5.77,1.29,1.54,3.05,2.3,5.28,2.3h3.53l1.3-7.47h-2.02c-.59,0-.99-.11-1.13-.33-.17-.21-.21-.64-.1-1.25l3.74-21.3c.3-1.43,1.1-2.14,2.42-2.14h1.46l1.3-7.47h-4.02Z"/>
  </g>
  <g>
    <path class="cls-17" d="M274.53,19.02c-2.24,0-4.15,.67-5.73,2.03-1.57,1.35-2.56,3.18-2.96,5.48l-1.16,6.59c-.35,2.05,.05,3.78,1.24,5.2,1.19,1.4,2.96,2.38,5.3,2.94l9.62,2.19c.56,.14,.92,.32,1.08,.51,.16,.21,.21,.59,.14,1.14l-.72,4.29c-.22,1.41-1.03,2.13-2.42,2.13h-8.32c-.57,0-.95-.11-1.13-.33-.14-.21-.17-.64-.08-1.25l.67-3.8h-7.7l-.83,4.78c-.4,2.35,0,4.26,1.21,5.77,1.26,1.54,3.01,2.3,5.28,2.3h12.15c2.23,0,4.15-.68,5.73-2.02,1.57-1.37,2.56-3.19,2.96-5.5l1.26-7.04c.4-2.05,0-3.77-1.19-5.16-1.22-1.38-3.01-2.37-5.39-2.95l-9.64-2.21c-.54-.14-.89-.3-1.05-.52-.17-.19-.22-.57-.14-1.11l.65-3.84c.22-1.43,1.03-2.14,2.42-2.14h7.71c.54,0,.89,.11,1.07,.33,.16,.22,.19,.64,.08,1.25l-.6,3.35h7.7l.76-4.34c.41-2.35-.02-4.27-1.27-5.77-1.19-1.53-2.94-2.3-5.22-2.3h-11.48Z"/>
    <path class="cls-13" d="M297.43,19.18l-6.92,39.54h7.92l2.42-13.93h12.26c2.27,0,4.2-.7,5.77-2.03,1.57-1.37,2.54-3.19,2.91-5.5l1.81-9.99c.37-2.32-.08-4.23-1.32-5.77s-2.99-2.32-5.23-2.32h-19.63Zm6.6,7.47h10.23c.59,0,.97,.13,1.13,.35,.17,.21,.21,.62,.08,1.25l-1.21,6.93c-.29,1.43-1.08,2.14-2.42,2.14h-9.67l1.86-10.67Z"/>
    <path class="cls-16" d="M358.34,19.18l-6.93,39.54h7.92l2.59-14.65h6.15l3.63,14.65h8.29l-3.83-14.87c3.69-.89,5.92-3.32,6.65-7.31l1.64-9.28c.41-2.35-.02-4.27-1.26-5.77-1.24-1.54-3.01-2.32-5.28-2.32h-19.56Zm6.58,7.47h10.18c.59,0,.97,.13,1.13,.35,.16,.21,.19,.62,.08,1.25l-1.1,6.32c-.29,1.41-1.1,2.13-2.42,2.13h-9.62l1.75-10.06Z"/>
    <path class="cls-7" d="M386.18,19.18l-1.27,7.37h10.05l-5.65,32.17h7.9l5.66-32.17h10.07l1.26-7.37h-28.02Z"/>
    <path class="cls-1" d="M344.51,19.02l-1.3,7.47h1.46c.54,0,.91,.11,1.08,.33,.16,.22,.17,.64,.08,1.25l-3.75,21.32c-.24,1.41-1.02,2.13-2.35,2.13h-.87l-1.3,7.47h3.39c2.24,0,4.14-.68,5.71-2.02,1.57-1.37,2.58-3.19,2.99-5.5l4.28-24.39c.4-2.35-.02-4.27-1.27-5.77-1.21-1.53-2.94-2.3-5.22-2.3h-2.91Zm-10.11,0c-2.23,0-4.14,.67-5.73,2.03-1.57,1.35-2.56,3.18-2.96,5.48l-4.28,24.39c-.43,2.35,0,4.26,1.19,5.77,1.29,1.54,3.05,2.3,5.28,2.3h3.53l1.3-7.47h-2.02c-.59,0-.99-.11-1.13-.33-.17-.21-.21-.64-.1-1.25l3.74-21.3c.3-1.43,1.1-2.14,2.42-2.14h1.46l1.3-7.47h-4.02Z"/>
  </g>
  <g>
    <path d="M36.11,20.43l-6.92,39.54h7.9l2.43-13.93h12.25c2.27,0,4.21-.7,5.79-2.03,1.57-1.37,2.54-3.19,2.89-5.5l1.83-9.99c.37-2.32-.08-4.23-1.32-5.77-1.26-1.54-2.99-2.32-5.23-2.32h-19.63Zm6.6,7.47h10.23c.59,0,.95,.13,1.13,.35,.16,.21,.19,.62,.08,1.25l-1.21,6.93c-.29,1.43-1.1,2.14-2.42,2.14h-9.69l1.88-10.67Z"/>
    <path d="M66.01,20.43l-6.92,39.54h7.92l2.58-14.65h6.15l3.63,14.65h8.3l-3.85-14.87c3.71-.89,5.93-3.32,6.66-7.31l1.64-9.28c.4-2.35-.02-4.27-1.26-5.77-1.24-1.54-3.01-2.32-5.28-2.32h-19.58Zm6.6,7.47h10.16c.59,0,.99,.13,1.13,.35,.17,.21,.21,.62,.1,1.25l-1.1,6.32c-.29,1.41-1.11,2.13-2.43,2.13h-9.61l1.75-10.06Z"/>
    <path d="M97.34,20.43l-6.9,39.54h25.45l1.32-7.47h-17.54l1.53-9.01h14.19l1.32-7.47h-14.19l1.43-8.13h17.54l1.32-7.45v-.02h-25.46Z"/>
    <path d="M153.8,20.43l-13.95,23.4-5.73-23.4h-8.46l-6.93,39.54h7.47l4.74-26.36,4.93,20.05h5.5l11.77-20.05-4.72,26.36h7.47l6.92-39.54h-9.02Z"/>
    <path d="M167.47,20.43l-6.93,39.54h7.92l6.92-39.52v-.02h-7.9Z"/>
    <path d="M180.04,20.43l-6.92,39.54h25.45l1.34-7.47h-17.54l1.53-9.01h14.19l1.32-7.47h-14.19l1.43-8.13h17.54l1.32-7.47h-25.46Z"/>
    <path d="M208.35,20.43l-6.93,39.54h7.92l2.58-14.65h6.15l3.64,14.65h8.3l-3.86-14.87c3.72-.89,5.92-3.32,6.66-7.31l1.64-9.28c.41-2.35-.02-4.27-1.26-5.77-1.24-1.54-3.01-2.32-5.28-2.32h-19.56Zm6.6,7.47h10.16c.59,0,.95,.13,1.13,.35,.16,.21,.19,.62,.08,1.25l-1.1,6.32c-.3,1.41-1.1,2.13-2.42,2.13h-9.62l1.77-10.06Z"/>
  </g>
  <g>
    <path class="cls-9" d="M34.86,19.18l-6.92,39.54h7.9l2.43-13.93h12.25c2.27,0,4.21-.7,5.79-2.03,1.57-1.37,2.54-3.19,2.89-5.5l1.83-9.99c.37-2.32-.08-4.23-1.32-5.77-1.26-1.54-2.99-2.32-5.23-2.32h-19.63Zm6.6,7.47h10.23c.59,0,.95,.13,1.13,.35,.16,.21,.19,.62,.08,1.25l-1.21,6.93c-.29,1.43-1.1,2.14-2.42,2.14h-9.69l1.88-10.67Z"/>
    <path class="cls-2" d="M64.76,19.18l-6.92,39.54h7.92l2.58-14.65h6.15l3.63,14.65h8.3l-3.85-14.87c3.71-.89,5.93-3.32,6.66-7.31l1.64-9.28c.4-2.35-.02-4.27-1.26-5.77-1.24-1.54-3.01-2.32-5.28-2.32h-19.58Zm6.6,7.47h10.16c.59,0,.99,.13,1.13,.35,.17,.21,.21,.62,.1,1.25l-1.1,6.32c-.29,1.41-1.11,2.13-2.43,2.13h-9.61l1.75-10.06Z"/>
    <path class="cls-11" d="M96.09,19.18l-6.9,39.54h25.45l1.32-7.47h-17.54l1.53-9.01h14.19l1.32-7.47h-14.19l1.43-8.13h17.54l1.32-7.45v-.02h-25.46Z"/>
    <path class="cls-18" d="M152.55,19.18l-13.95,23.4-5.73-23.4h-8.46l-6.93,39.54h7.47l4.74-26.36,4.93,20.05h5.5l11.77-20.05-4.72,26.36h7.47l6.92-39.54h-9.02Z"/>
    <path class="cls-14" d="M166.22,19.18l-6.93,39.54h7.92l6.92-39.52v-.02h-7.9Z"/>
    <path class="cls-8" d="M178.79,19.18l-6.92,39.54h25.45l1.34-7.47h-17.54l1.53-9.01h14.19l1.32-7.47h-14.19l1.43-8.13h17.54l1.32-7.47h-25.46Z"/>
    <path class="cls-12" d="M207.1,19.18l-6.93,39.54h7.92l2.58-14.65h6.15l3.64,14.65h8.3l-3.86-14.87c3.72-.89,5.92-3.32,6.66-7.31l1.64-9.28c.41-2.35-.02-4.27-1.26-5.77-1.24-1.54-3.01-2.32-5.28-2.32h-19.56Zm6.6,7.47h10.16c.59,0,.95,.13,1.13,.35,.16,.21,.19,.62,.08,1.25l-1.1,6.32c-.3,1.41-1.1,2.13-2.42,2.13h-9.62l1.77-10.06Z"/>
  </g>
  <path class="cls-5" d="M449.67,5.86c3.34,.03,6.58,1.86,8.32,4.69,1.24,2.03,1.7,4.5,1.29,6.85-2.75,15.28-5.58,30.57-8.43,45.85-1.07,5.54-6.25,9.98-12.02,10.06-126.97,1.06-297.24,.4-424.22,0-5.68-.06-10.64-5.61-9.61-11.52,2.75-15.3,5.58-30.58,8.43-45.87,1.08-5.56,6.25-10.01,12.09-10.06,126.96-.38,297.19-.46,424.15,0M25.59,8.4c-4.55,0-8.8,3.42-9.67,7.99-2.86,15.28-5.79,30.55-8.45,45.87-.67,4.08,2.62,8.44,7.09,8.52,126.97,1.32,297.24,1.06,424.22,0,4.49-.06,8.67-3.45,9.56-7.94,2.94-15.27,5.68-30.58,8.43-45.88,.72-4.13-2.56-8.5-7.13-8.55-126.92-.48-297.13,0-424.06,0"/>
  <path class="cls-3" d="M448.42,4.36c3.34,.03,6.59,1.86,8.32,4.69,1.24,2.03,1.7,4.5,1.29,6.85-2.75,15.28-5.58,30.57-8.43,45.85-1.07,5.54-6.25,9.98-12.03,10.06-126.97,1.06-297.24,.4-424.22,0-5.68-.06-10.64-5.61-9.61-11.52,2.75-15.3,5.58-30.58,8.43-45.87,1.08-5.56,6.25-10.01,12.09-10.06,126.96-.38,297.19-.46,424.15,0M24.34,6.91c-4.55,0-8.8,3.42-9.67,7.99-2.86,15.28-5.79,30.55-8.45,45.87-.67,4.08,2.62,8.44,7.09,8.52,126.97,1.32,297.24,1.06,424.22,0,4.49-.06,8.67-3.45,9.56-7.94,2.94-15.27,5.68-30.58,8.43-45.88,.72-4.13-2.56-8.5-7.13-8.55-126.92-.48-297.12,0-424.06,0"/>
  <path class="cls-3" d="M473.42,71.19h-43.25c-6.52,0-10.86-5.34-9.64-11.85l7.94-42.58c1.22-6.51,7.55-11.85,14.08-11.85h43.25c6.52,0,10.86,5.34,9.64,11.85l-7.94,42.58c-1.22,6.51-7.55,11.85-14.08,11.85"/>
  <path class="cls-5" d="M441.5,5.6c-5.85,0-11.02,4.5-12.09,10.06-2.86,15.28-5.68,30.57-8.45,45.85,0,3.35,4.38,9.01,9.58,9.01-4.45,0-7.76-4.43-7.08-8.52,2.64-15.32,5.58-30.58,8.43-45.87,.89-4.58,5.12-7.99,9.67-8.01h46.13c4.56,0,7.84,4.43,7.13,8.56l.76,.08c0-6.3-5.77-11.17-7.87-11.17h-46.2Z"/>
  <path class="cls-3" d="M486.41,4.36c3.34,.03,6.59,1.86,8.32,4.69,1.24,2.03,1.7,4.5,1.29,6.85-2.75,15.28-5.58,30.57-8.43,45.85-1.07,5.54-6.25,10.06-12.03,10.06h-46.27c-5.68,0-10.64-5.61-9.62-11.53,2.77-15.28,5.58-30.57,8.45-45.85,1.07-5.56,6.24-10.06,12.09-10.06h46.21Zm-46.14,2.53c-4.55,.02-8.78,3.43-9.67,8.01-2.85,15.28-5.79,30.55-8.43,45.87-.68,4.08,2.62,8.52,7.08,8.52h46.28c4.49,0,8.65-3.45,9.56-7.96,2.94-15.25,5.68-30.57,8.43-45.87,.72-4.13-2.56-8.56-7.13-8.56h-46.13Z"/>
  <path d="M456.25,30.75l-.45,2.26h-7.94l.83-4.46c.4-2.24,1.42-4.05,3.04-5.45,1.69-1.48,3.61-2.21,5.79-2.21h10.97c2.21,0,3.93,.83,5.19,2.48,1.32,1.62,1.8,3.53,1.43,5.74l-1.16,6.39c-.59,3.53-3.71,6.23-9.37,8.1l-9.94,3.3c-.87,.33-1.43,.6-1.67,.79-.24,.21-.41,.62-.52,1.24l-.72,4.35h19.25l-1.32,7.5h-27.2l2.26-13.06c.62-3.53,3.77-6.23,9.43-8.1l9.99-3.3c.84-.33,1.38-.59,1.59-.79,.22-.21,.4-.62,.51-1.24l.72-4.08c.14-.73,.11-1.24-.08-1.51-.21-.27-.65-.41-1.35-.41h-6.46c-1.54,0-2.48,.83-2.82,2.48"/>
  <path class="cls-15" d="M455,29.5l-.45,2.26h-7.94l.83-4.46c.4-2.24,1.42-4.05,3.04-5.45,1.69-1.48,3.61-2.21,5.79-2.21h10.97c2.21,0,3.93,.83,5.19,2.48,1.32,1.62,1.8,3.53,1.43,5.74l-1.16,6.39c-.59,3.53-3.71,6.23-9.37,8.1l-9.94,3.3c-.87,.33-1.43,.6-1.67,.79-.24,.21-.41,.62-.52,1.24l-.72,4.35h19.25l-1.32,7.5h-27.2l2.26-13.06c.62-3.53,3.77-6.23,9.43-8.1l9.99-3.3c.84-.33,1.38-.59,1.59-.79,.22-.21,.4-.62,.51-1.24l.72-4.08c.14-.73,.11-1.24-.08-1.51-.21-.27-.65-.41-1.35-.41h-6.46c-1.54,0-2.48,.83-2.82,2.48"/>
</svg>