<?xml version="1.0" encoding="UTF-8" standalone="no"?>
<!-- Created with Inkscape (http://www.inkscape.org/) -->

<svg
   xmlns:dc="http://purl.org/dc/elements/1.1/"
   xmlns:cc="http://creativecommons.org/ns#"
   xmlns:rdf="http://www.w3.org/1999/02/22-rdf-syntax-ns#"
   xmlns:svg="http://www.w3.org/2000/svg"
   xmlns="http://www.w3.org/2000/svg"
   xmlns:sodipodi="http://sodipodi.sourceforge.net/DTD/sodipodi-0.dtd"
   xmlns:inkscape="http://www.inkscape.org/namespaces/inkscape"
   version="1.1"
   id="svg2"
   width="252"
   height="57"
   viewBox="0 0 252 57"
   sodipodi:docname="ČT_Sport_(2013).svg"
   inkscape:version="0.92.5 (2060ec1f9f, 2020-04-08)">
  <metadata
     id="metadata8">
    <rdf:RDF>
      <cc:Work
         rdf:about="">
        <dc:format>image/svg+xml</dc:format>
        <dc:type
           rdf:resource="http://purl.org/dc/dcmitype/StillImage" />
        <dc:title></dc:title>
      </cc:Work>
    </rdf:RDF>
  </metadata>
  <defs
     id="defs6" />
  <sodipodi:namedview
     pagecolor="#ffffff"
     bordercolor="#666666"
     borderopacity="1"
     objecttolerance="10"
     gridtolerance="10"
     guidetolerance="10"
     inkscape:pageopacity="0"
     inkscape:pageshadow="2"
     inkscape:window-width="1920"
     inkscape:window-height="1046"
     id="namedview4"
     showgrid="false"
     inkscape:pagecheckerboard="true"
     inkscape:zoom="2.8284271"
     inkscape:cx="39.04189"
     inkscape:cy="56.239889"
     inkscape:window-x="-11"
     inkscape:window-y="-11"
     inkscape:window-maximized="1"
     inkscape:current-layer="svg2" />
  <path
     inkscape:connector-curvature="0"
     style="clip-rule:evenodd;fill:#33cc00;fill-rule:evenodd;stroke-width:4.0629549"
     d="M 21.275504,0.7558676 C 26.890508,0.3089425 32.964629,0.0895429 37.892992,0.0123467 V 7.3094138 C 35.55273,7.3947371 32.944313,7.5531911 30.498413,7.8132202 21.893073,8.731449 20.284142,10.596345 19.244027,18.864458 c -0.434737,3.449449 -0.564751,7.102046 -0.564751,9.592638 0,2.482465 0.130014,6.143188 0.564751,9.580448 1.040115,8.264051 2.649046,10.13301 11.258448,11.051238 2.445901,0.26003 5.054318,0.418484 7.39458,0.503807 v 7.30113 C 32.96869,56.816523 26.894572,56.593061 21.283631,56.146135 5.8403368,54.910997 2.9597015,52.404154 1.0866793,41.316349 0.29846595,36.700832 0.07094045,31.788719 0.07094045,28.453033 c 0,-3.335686 0.2275255,-8.2478 1.00761285,-12.867379 C 2.9556387,4.4978486 5.8362739,1.9910062 21.275504,0.7558676 M 84.16599,28.453033 c 0,3.335686 -0.227526,8.247799 -1.007614,12.867379 -1.873021,11.087805 -4.753656,13.594648 -20.19695,14.829787 -5.610941,0.446924 -11.685059,0.666324 -16.613424,0.747583 v -7.301131 c 2.3362,-0.08532 4.944617,-0.239714 7.386452,-0.503805 8.613467,-0.918228 10.218333,-2.787188 11.25845,-11.051238 0.434736,-3.433198 0.56475,-7.097984 0.56475,-9.58045 0,-2.490591 -0.130014,-6.143188 -0.56475,-9.592637 C 63.952787,10.600407 62.347921,8.735511 53.734454,7.8132202 51.292619,7.5531911 48.680138,7.3947361 46.348002,7.3134773 V 0.0123467 c 4.928365,0.077197 11.002483,0.2965958 16.613424,0.7435209 15.443294,1.2351386 18.323929,3.741981 20.19695,14.8297864 0.780088,4.619579 1.007614,9.531693 1.007614,12.867379 m 15.439233,-5.615005 c 0,-8.129973 6.898887,-10.653068 14.525057,-10.653068 4.03857,0 8.24374,0.78415 11.6688,2.299632 l -1.4586,6.785136 c -4.71302,-1.344838 -8.30062,-1.738946 -10.54337,-1.738946 -3.30725,0 -4.03857,0.897913 -4.03857,2.019289 0,3.307246 15.47985,0.503808 15.47985,11.607863 0,7.683049 -6.95577,10.65307 -14.52913,10.65307 -4.59926,0 -9.36509,-0.784151 -12.786104,-2.299634 l 1.458597,-6.785134 c 4.713037,1.344838 8.300617,1.738945 11.664737,1.738945 3.14067,0 4.03857,-0.61757 4.03857,-2.019289 0,-3.307247 -15.479837,-0.503807 -15.479837,-11.607864"
     id="path831" />
  <path
     inkscape:connector-curvature="0"
     style="clip-rule:evenodd;opacity:1;fill:#33cc00;fill-rule:evenodd;stroke-width:4.0629549"
     d="m 132.4217,13.025991 h 9.53576 l 0.33722,2.466215 c 2.74656,-2.18587 6.00099,-3.307246 9.02789,-3.307246 6.33821,0 12.05885,4.542383 12.05885,13.793733 0,12.001969 -8.58097,17.832311 -15.98367,17.832311 -3.03096,0 -5.55406,-0.560688 -7.90651,-1.905527 l -1.23513,11.664745 h -10.09646 z m 7.91058,21.139556 c 1.45859,0.950732 3.14065,1.458602 4.76585,1.458602 3.92481,0 7.57333,-2.636858 7.57333,-8.694725 0,-4.542383 -2.69373,-6.561672 -6.00098,-6.561672 -1.62518,0 -3.421,0.503806 -5.04619,1.4586 z M 185.65454,12.18496 c 9.53576,0 15.19951,5.887222 15.19951,14.187839 0,10.039564 -7.4027,17.442268 -18.56363,17.442268 -9.5317,0 -15.19953,-5.887222 -15.19953,-14.187839 0,-10.043626 7.45959,-17.442268 18.56365,-17.442268 m -2.5231,23.776413 c 3.872,0 7.01266,-3.815114 7.01266,-8.971004 0,-4.095459 -2.13305,-6.955779 -5.32652,-6.955779 -3.87201,0 -7.00861,3.815115 -7.00861,8.975067 -0.004,4.091396 2.12493,6.951716 5.32247,6.951716"
     id="path833" />
  <path
     inkscape:connector-curvature="0"
     style="clip-rule:evenodd;fill:#33cc00;fill-rule:evenodd;stroke-width:4.0629549"
     d="m 228.28307,21.606953 c -0.9548,-0.113763 -1.85271,-0.166581 -2.63686,-0.166581 -3.9817,0 -6.50886,1.401719 -9.31229,4.599265 l -1.73895,16.930334 h -10.09645 l 3.14066,-29.948042 h 9.53576 l 0.22347,4.428621 c 2.01522,-3.193483 6.89889,-5.549996 11.88821,-5.212772 z m 15.27671,-8.580962 h 8.41438 l -0.78415,7.288943 h -8.41439 l -1.23512,12.058851 c -0.33725,3.421007 3.58758,3.701352 8.30061,2.917202 v 7.122359 c -8.74755,2.746559 -19.68502,2.072108 -18.56364,-8.41438 l 3.0269,-28.1522163 h 10.03955 z"
     id="path835" />
</svg>
