<?xml version="1.0" encoding="UTF-8"?>
<svg id="Calque_2" data-name="Calque 2" xmlns="http://www.w3.org/2000/svg" viewBox="0 0 134 48.33">
  <defs>
    <style>
      .cls-1 {
        fill: #87141c;
      }

      .cls-2 {
        fill: #fff;
      }
    </style>
  </defs>
  <g id="Calque_1-2" data-name="Calque 1">
    <g>
      <g>
        <path class="cls-2" d="M69.41,10.46v4.54c0,1.67-.08,2.89-.25,3.67s-.51,1.51-1.05,2.18-1.23,1.17-2.07,1.5-1.81.48-2.9.48c-1.22,0-2.25-.14-3.1-.41s-1.5-.69-1.97-1.24-.8-1.23-1-2.01-.3-1.97-.3-3.54v-4.75c0-1.72.18-3.07.55-4.04s1.02-1.75,1.97-2.33,2.16-.88,3.63-.88c1.24,0,2.3.19,3.19.57s1.57.87,2.05,1.48.81,1.23.99,1.87.27,1.62.27,2.94ZM63.9,9.06c0-.95-.05-1.55-.15-1.8s-.31-.37-.64-.37-.55.12-.66.37-.16.85-.16,1.8v8.38c0,.88.05,1.45.16,1.71s.32.4.64.4.54-.12.65-.36.16-.76.16-1.57v-8.56Z"/>
        <path class="cls-2" d="M76.84,3.94l-.1,1.71c.4-.68.89-1.19,1.47-1.54.58-.34,1.24-.51,2-.51.95,0,1.72.23,2.32.69s.99,1.03,1.16,1.73.26,1.85.26,3.47v13h-5.52v-12.85c0-1.28-.04-2.06-.12-2.33s-.31-.42-.68-.42-.64.16-.74.48-.15,1.18-.15,2.58v12.54h-5.52V3.94h5.61Z"/>
        <path class="cls-2" d="M98.34,13.55h-7.14v4.01c0,.84.06,1.38.18,1.62s.35.36.68.36c.42,0,.7-.16.84-.48s.21-.94.21-1.87v-2.45h5.23v1.37c0,1.15-.07,2.03-.21,2.64s-.47,1.27-.99,1.97-1.18,1.22-1.97,1.57-1.8.52-3,.52-2.19-.17-3.09-.52-1.59-.82-2.08-1.42-.84-1.26-1.03-1.99-.29-1.77-.29-3.15v-5.41c0-1.62.21-2.9.64-3.84s1.13-1.65,2.1-2.15,2.09-.75,3.36-.75c1.55,0,2.82.3,3.83.9s1.71,1.4,2.12,2.39.61,2.39.61,4.19v2.46ZM92.81,10.53v-1.36c0-.96-.05-1.58-.15-1.86s-.3-.42-.61-.42c-.38,0-.62.12-.71.36s-.14.88-.14,1.92v1.36h1.61Z"/>
      </g>
      <g>
        <path class="cls-2" d="M104.49,22V5.25h2.13v6.88h8.37v-6.88h2.13v16.75h-2.13v-7.9h-8.37v7.9h-2.13Z"/>
        <path class="cls-2" d="M120.68,22V5.25h5.55c1.25,0,2.21.08,2.87.24.92.22,1.71.62,2.36,1.2.85.75,1.48,1.7,1.9,2.86s.63,2.49.63,3.98c0,1.27-.14,2.4-.43,3.38s-.65,1.8-1.1,2.44-.94,1.15-1.47,1.52-1.17.65-1.92.84-1.61.29-2.59.29h-5.81ZM122.81,20.03h3.44c1.06,0,1.89-.1,2.5-.31s1.09-.5,1.45-.87c.51-.53.9-1.23,1.18-2.12s.42-1.96.42-3.23c0-1.75-.28-3.1-.83-4.04s-1.22-1.57-2.01-1.89c-.57-.23-1.49-.34-2.76-.34h-3.38v12.8Z"/>
      </g>
      <polygon class="cls-1" points="49.45 0 49.45 48.33 29.67 48.33 29.67 19.55 0 19.55 0 0 49.45 0"/>
    </g>
  </g>
</svg>