<?xml version="1.0" encoding="UTF-8"?>
<svg id="Calque_2" data-name="Calque 2" xmlns="http://www.w3.org/2000/svg" viewBox="0 0 149.88 48.33">
  <defs>
    <style>
      .cls-1 {
        fill: #87141c;
      }

      .cls-2 {
        fill: #fff;
      }
    </style>
  </defs>
  <g id="Calque_1-2" data-name="Calque 1">
    <g>
      <g>
        <path class="cls-2" d="M63.22,2.8v2.74h1.43v2.75h-1.43v9.31c0,1.14.06,1.78.18,1.91s.61.2,1.47.2v2.81h-2.14c-1.21,0-2.07-.05-2.58-.15s-.97-.33-1.36-.69-.64-.78-.73-1.25-.14-1.57-.14-3.3v-8.84h-1.14v-2.75h1.14v-2.74h5.31Z"/>
        <path class="cls-2" d="M71.11,1.3v4.78c.45-.42.95-.74,1.47-.95.53-.21,1.09-.31,1.7-.31.93,0,1.72.24,2.37.71s1.05,1.02,1.19,1.63.22,1.74.22,3.38v11.99h-5.3v-12.24c0-1.01-.05-1.66-.15-1.95s-.33-.43-.68-.43c-.32,0-.54.15-.66.45s-.17.89-.17,1.77v12.41h-5.3V1.3h5.3Z"/>
        <path class="cls-2" d="M85.18,5.12l-.21,2.29c.77-1.64,1.88-2.51,3.34-2.6v6.12c-.97,0-1.68.13-2.14.39s-.73.63-.84,1.09-.16,1.54-.16,3.23v6.87h-5.3V5.12h5.3Z"/>
        <path class="cls-2" d="M101.48,14.13h-6.86v3.76c0,.79.06,1.29.17,1.52s.33.34.66.34c.4,0,.67-.15.81-.45s.2-.88.2-1.75v-2.29h5.02v1.28c0,1.07-.07,1.9-.2,2.48s-.45,1.19-.95,1.85-1.13,1.15-1.89,1.47-1.72.49-2.88.49-2.11-.16-2.96-.49-1.52-.77-2-1.33-.81-1.18-.99-1.86-.28-1.66-.28-2.96v-5.07c0-1.52.21-2.72.62-3.6s1.08-1.55,2.02-2.02,2.01-.7,3.22-.7c1.49,0,2.71.28,3.68.85s1.64,1.31,2.03,2.24.58,2.24.58,3.93v2.31ZM96.18,11.3v-1.27c0-.9-.05-1.48-.14-1.74s-.29-.39-.59-.39c-.37,0-.59.11-.68.33s-.13.82-.13,1.8v1.27h1.55Z"/>
        <path class="cls-2" d="M115.21,14.13h-6.86v3.76c0,.79.06,1.29.17,1.52s.33.34.66.34c.4,0,.67-.15.81-.45s.2-.88.2-1.75v-2.29h5.02v1.28c0,1.07-.07,1.9-.2,2.48s-.45,1.19-.95,1.85-1.13,1.15-1.89,1.47-1.72.49-2.88.49-2.11-.16-2.96-.49-1.52-.77-2-1.33-.81-1.18-.99-1.86-.28-1.66-.28-2.96v-5.07c0-1.52.21-2.72.62-3.6s1.08-1.55,2.02-2.02,2.01-.7,3.22-.7c1.49,0,2.71.28,3.68.85s1.64,1.31,2.03,2.24.58,2.24.58,3.93v2.31ZM109.9,11.3v-1.27c0-.9-.05-1.48-.14-1.74s-.29-.39-.59-.39c-.37,0-.59.11-.68.33s-.13.82-.13,1.8v1.27h1.55Z"/>
      </g>
      <g>
        <path class="cls-2" d="M120.37,21.86V5.11h2.13v6.88h8.37v-6.88h2.13v16.75h-2.13v-7.9h-8.37v7.9h-2.13Z"/>
        <path class="cls-2" d="M136.56,21.86V5.11h5.55c1.25,0,2.21.08,2.87.24.92.22,1.71.62,2.36,1.2.85.75,1.48,1.7,1.9,2.86s.63,2.49.63,3.98c0,1.27-.14,2.4-.43,3.38s-.65,1.8-1.1,2.44-.94,1.15-1.47,1.52-1.17.65-1.92.84-1.61.29-2.59.29h-5.81ZM138.69,19.88h3.44c1.06,0,1.89-.1,2.5-.31s1.09-.5,1.45-.87c.51-.53.9-1.23,1.18-2.12s.42-1.96.42-3.23c0-1.75-.28-3.1-.83-4.04s-1.22-1.57-2.01-1.89c-.57-.23-1.49-.34-2.76-.34h-3.38v12.8Z"/>
      </g>
      <polygon class="cls-1" points="49.45 0 49.45 48.33 29.67 48.33 29.67 19.55 0 19.55 0 0 49.45 0"/>
    </g>
  </g>
</svg>