<?xml version="1.0" encoding="UTF-8"?>
<svg id="Calque_2" data-name="Calque 2" xmlns="http://www.w3.org/2000/svg" viewBox="0 0 134 48.33">
  <defs>
    <style>
      .cls-1 {
        fill: #87141c;
      }

      .cls-2 {
        fill: #fff;
      }
    </style>
  </defs>
  <g id="Calque_1-2" data-name="Calque 1">
    <g>
      <g>
        <path class="cls-2" d="M63.39,2.77v2.81h1.47v2.83h-1.47v9.55c0,1.18.06,1.83.18,1.96s.63.2,1.51.2v2.88h-2.19c-1.24,0-2.12-.05-2.65-.15s-1-.34-1.4-.71-.65-.8-.75-1.28-.15-1.61-.15-3.38v-9.07h-1.17v-2.83h1.17v-2.81h5.45Z"/>
        <path class="cls-2" d="M83.63,5.16l-2.17,17.85h-5.9c-.32-2.18-.7-5.06-1.13-8.62-.15,1.57-.35,3.15-.61,4.75l-.6,3.87h-5.91l-2.3-17.85h4.68c.04.47.43,3.87,1.19,10.23.06-.65.47-4.06,1.22-10.23h4.5l1.1,10.23c.17-2.99.59-6.4,1.25-10.23h4.68Z"/>
        <path class="cls-2" d="M96.8,11.43v4.37c0,1.61-.08,2.78-.24,3.53s-.51,1.45-1.04,2.1-1.21,1.13-2.04,1.44-1.78.46-2.86.46c-1.2,0-2.22-.13-3.05-.4s-1.48-.66-1.94-1.2-.79-1.18-.99-1.94-.3-1.89-.3-3.41v-4.57c0-1.66.18-2.96.54-3.89s1-1.68,1.94-2.25,2.13-.85,3.58-.85c1.22,0,2.27.18,3.14.54s1.55.84,2.02,1.42.8,1.18.98,1.8.26,1.56.26,2.83ZM91.36,10.08c0-.91-.05-1.49-.15-1.73s-.31-.36-.63-.36-.54.12-.65.36-.16.81-.16,1.73v8.06c0,.84.05,1.39.16,1.65s.32.38.63.38.54-.12.64-.35.15-.74.15-1.51v-8.23Z"/>
      </g>
      <g>
        <path class="cls-2" d="M104.49,22V5.25h2.13v6.88h8.37v-6.88h2.13v16.75h-2.13v-7.9h-8.37v7.9h-2.13Z"/>
        <path class="cls-2" d="M120.68,22V5.25h5.55c1.25,0,2.21.08,2.87.24.92.22,1.71.62,2.36,1.2.85.75,1.48,1.7,1.9,2.86s.63,2.49.63,3.98c0,1.27-.14,2.4-.43,3.38s-.65,1.8-1.1,2.44-.94,1.15-1.47,1.52-1.17.65-1.92.84-1.61.29-2.59.29h-5.81ZM122.81,20.03h3.44c1.06,0,1.89-.1,2.5-.31s1.09-.5,1.45-.87c.51-.53.9-1.23,1.18-2.12s.42-1.96.42-3.23c0-1.75-.28-3.1-.83-4.04s-1.22-1.57-2.01-1.89c-.57-.23-1.49-.34-2.76-.34h-3.38v12.8Z"/>
      </g>
      <polygon class="cls-1" points="49.45 0 49.45 48.33 29.67 48.33 29.67 19.55 0 19.55 0 0 49.45 0"/>
    </g>
  </g>
</svg>