<svg width="91" height="31" viewBox="0 0 91 31" fill="none" xmlns="http://www.w3.org/2000/svg">
<path d="M75.1419 22.5042C70.6864 22.5042 67.6886 19.5158 67.6886 15.2086C67.6886 10.8159 70.6829 7.86507 75.1419 7.86507C79.5037 7.86507 82.0091 10.8478 82.762 15.3988L89.9525 13.8624C89.2168 6.30139 83.3983 0.968018 75.1419 0.968018C66.2583 0.968018 60.0708 7.10885 60.0708 15.204C60.0708 23.2992 66.2686 29.1701 75.1419 29.1701H90.0245V22.5042H75.1419ZM19.3405 12.1142H10.1678C9.67699 12.1022 9.21031 11.8993 8.86742 11.549C8.52453 11.1986 8.3326 10.7285 8.3326 10.2391C8.3326 9.74959 8.52453 9.2795 8.86742 8.92916C9.21031 8.57881 9.67699 8.37596 10.1678 8.3639H28.4012V1.72423H10.6077C4.48306 1.72423 0.971191 4.81401 0.971191 10.202C0.971191 15.4022 4.19516 18.7584 9.91993 18.7584H19.9597C20.4506 18.7705 20.9172 18.9734 21.2601 19.3237C21.603 19.6741 21.7949 20.1441 21.7949 20.6336C21.7949 21.1231 21.603 21.5932 21.2601 21.9435C20.9172 22.2939 20.4506 22.4967 19.9597 22.5088H1.65551V29.1644H19.3405C25.7599 29.1644 29.4408 26.0404 29.4408 20.592C29.4408 15.204 25.7599 12.1142 19.3405 12.1142ZM48.86 12.1142H39.6919C39.2011 12.1022 38.7344 11.8993 38.3915 11.549C38.0486 11.1986 37.8567 10.7285 37.8567 10.2391C37.8567 9.74959 38.0486 9.2795 38.3915 8.92916C38.7344 8.57881 39.2011 8.37596 39.6919 8.3639H57.9219V1.72423H40.1272C34.0026 1.72423 30.4907 4.81401 30.4907 10.202C30.4907 15.4022 33.7147 18.7584 39.4395 18.7584H49.4792C49.9701 18.7705 50.4368 18.9734 50.7797 19.3237C51.1226 19.6741 51.3145 20.1441 51.3145 20.6336C51.3145 21.1231 51.1226 21.5932 50.7797 21.9435C50.4368 22.2939 49.9701 22.4967 49.4792 22.5088H31.1751V29.1644H48.86C55.2783 29.1644 58.9604 26.0404 58.9604 20.592C58.9604 15.204 55.2783 12.1142 48.86 12.1142Z" fill="white"/>
</svg>
