<svg xmlns="http://www.w3.org/2000/svg" width="511.9519" height="160" viewBox="54 37 51.19519 16">
  <path d="M98.9387 39.643c.537 0 1.0396.211 1.4193.5908.364.3644.564.8477.564 1.3579 0 .2455-.046.4833-.134.7058-.61 1.5383-.184 3.2952 1.066 4.3769.441.3798.698.9322.702 1.5114.004.5294-.203 1.0319-.587 1.4193-.395.399-.92.6215-1.473.6215h-5.424V39.6468h3.8744M98.9387 37H94.535c-1.17 0-2.1175.9475-2.1175 2.1136v13.7521h8.0705c2.59 0 4.73-2.1174 4.707-4.7067-.011-1.3964-.637-2.6431-1.619-3.4908-.399-.3453-.533-.9053-.337-1.3963.207-.5179.318-1.0818.322-1.6725.012-2.5433-2.079-4.5994-4.6261-4.5994h.0038Z" fill="#0e72ff"/>
  <path d="M61.5185 41.3809h-2.643v11.485h2.643v-11.485Z" fill="#000041"/>
  <path d="M71.4462 53c-1.0741 0-2.0101-.6521-2.386-1.661l-4.327-11.696H54V37h12.5744l4.8679 13.1652 4.2312-11.439C76.0571 37.6943 77.0544 37 78.1554 37h7.2769c1.1776 0 2.3323.4833 3.1724 1.3234.8362.8363 1.2927 1.941 1.2888 3.1034-.0038 1.776-1.0664 3.368-2.7005 4.0546l-6.4982 2.7504v1.9909h8.7538v2.643H78.048v-4.6339c0-1.0664.6329-2.0215 1.6149-2.4358l6.502-2.7504c.6598-.2762 1.0856-.9169 1.0856-1.6265 0-.4565-.1841-.89-.5178-1.2275-.3453-.3491-.8209-.5486-1.3004-.5486h-7.2769l-4.3271 11.696c-.3721 1.0089-1.308 1.661-2.386 1.661h.0039Z" fill="#000041"/>
</svg>
