<svg xmlns="http://www.w3.org/2000/svg" viewBox="0 0 256 256"><path fill="#f0281e" d="M128 256.00001c70.69227 0 128.00001-57.30774 128.00001-128.00001C256.00001 57.307522 198.69227 0 128 0 57.307522 0 0 57.307522 0 128c0 70.69227 57.307522 128.00001 128 128.00001Z"/><path fill="#fff" d="M111.616 118.016s-9.67669 17.1264-15.97429 28.2624c-4.5824 8.1152-6.553601 11.6992-11.392001 11.6992-3.4048 0-6.8096-1.7408-6.8096-8.0384 0-6.3232.128-31.9232.128-31.9232H57.856108v33.4592c0 19.71201 14.464001 26.18881 26.265601 26.18881 10.726401 0 17.740801-4.8896 25.267091-17.97121 3.2512-5.6064 23.9872-41.6768 23.9872-41.6768ZM124.416 177.15201h77.56801V157.44H135.6032Z"/><path fill="#fff" d="M182.27201 78.592002H44.031895v19.712001H182.27201c5.4528 0 9.984 4.275197 9.984 9.727997s-4.5312 9.984-9.984 9.984H157.44l-11.4432 19.712h36.27521c16.3584 0 29.696-13.3376 29.696-29.696 0-16.358397-13.3376-29.439998-29.696-29.439998Z"/></svg>