<?xml version="1.0" encoding="UTF-8" standalone="no"?>
<!-- Created with Inkscape (http://www.inkscape.org/) -->

<svg
   xmlns:dc="http://purl.org/dc/elements/1.1/"
   xmlns:cc="http://creativecommons.org/ns#"
   xmlns:rdf="http://www.w3.org/1999/02/22-rdf-syntax-ns#"
   xmlns:svg="http://www.w3.org/2000/svg"
   xmlns="http://www.w3.org/2000/svg"
   xmlns:sodipodi="http://sodipodi.sourceforge.net/DTD/sodipodi-0.dtd"
   xmlns:inkscape="http://www.inkscape.org/namespaces/inkscape"
   width="189.12257mm"
   height="121.42292mm"
   viewBox="0 0 189.12257 121.42292"
   version="1.1"
   id="svg111107"
   inkscape:version="0.92.4 (5da689c313, 2019-01-14)"
   sodipodi:docname="Canal+MotoGP.svg">
  <defs
     id="defs111101">
    <clipPath
       clipPathUnits="userSpaceOnUse"
       id="clipPath99859">
      <path
         d="m 43.898,554.818 h 20.54 v 12.474 h -20.54 z"
         id="path99857"
         inkscape:connector-curvature="0" />
    </clipPath>
    <linearGradient
       x1="0"
       y1="0"
       x2="1"
       y2="0"
       gradientUnits="userSpaceOnUse"
       gradientTransform="matrix(-189.10275,0,0,189.10275,253.30921,188.8677)"
       spreadMethod="pad"
       id="linearGradient99849">
      <stop
         style="stop-opacity:1;stop-color:#b0d04a"
         offset="0"
         id="stop99843" />
      <stop
         style="stop-opacity:1;stop-color:#47ae5d"
         offset="0.5"
         id="stop99845" />
      <stop
         style="stop-opacity:1;stop-color:#32a35a"
         offset="1"
         id="stop99847" />
    </linearGradient>
    <clipPath
       clipPathUnits="userSpaceOnUse"
       id="clipPath99825">
      <path
         d="m 43.898,554.818 h 20.54 v 12.474 h -20.54 z"
         id="path99823"
         inkscape:connector-curvature="0" />
    </clipPath>
  </defs>
  <sodipodi:namedview
     id="base"
     pagecolor="#ffffff"
     bordercolor="#666666"
     borderopacity="1.0"
     inkscape:pageopacity="0.0"
     inkscape:pageshadow="2"
     inkscape:zoom="0.35"
     inkscape:cx="157.39695"
     inkscape:cy="291.42061"
     inkscape:document-units="mm"
     inkscape:current-layer="layer1"
     showgrid="false"
     fit-margin-top="0"
     fit-margin-left="0"
     fit-margin-right="0"
     fit-margin-bottom="0"
     inkscape:window-width="1920"
     inkscape:window-height="1017"
     inkscape:window-x="-8"
     inkscape:window-y="-8"
     inkscape:window-maximized="1" />
  <metadata
     id="metadata111104">
    <rdf:RDF>
      <cc:Work
         rdf:about="">
        <dc:format>image/svg+xml</dc:format>
        <dc:type
           rdf:resource="http://purl.org/dc/dcmitype/StillImage" />
        <dc:title></dc:title>
      </cc:Work>
    </rdf:RDF>
  </metadata>
  <g
     inkscape:label="Calque 1"
     inkscape:groupmode="layer"
     id="layer1"
     transform="translate(-64.188723,-104.51545)">
    <path
       d="M 64.188723,151.7961 H 253.31128 V 104.51545 H 64.188723 Z"
       style="fill:#0c0e10;fill-opacity:1;fill-rule:nonzero;stroke:none;stroke-width:10.79220104"
       id="path99817"
       inkscape:connector-curvature="0" />
    <path
       inkscape:connector-curvature="0"
       id="path99829"
       style="fill:#ffffff;fill-opacity:1;fill-rule:nonzero;stroke:none;stroke-width:10.792202"
       d="m 94.151132,140.74257 c -0.04317,0.32377 -0.19426,0.56119 -0.19426,0.56119 0,0 -0.161883,0.16189 -0.453272,0.22664 -3.809647,1.56487 -8.072567,1.04684 -8.072567,1.04684 -6.896217,-0.75545 -11.277851,-4.9752 -12.69163,-10.43605 -2.06131,-8.1697 2.050519,-13.9867 3.043401,-15.21701 2.428246,-2.9031 6.227101,-4.9752 9.928826,-5.46085 4.726985,-0.67991 8.245242,0.44248 9.680605,0.91733 0,0 1.597246,0.51803 2.795181,1.31665 0.593571,0.41011 0.669116,0.5612 0.669116,0.5612 0,0 0.03238,0.0755 -0.118714,0.71228 l -1.122389,5.86017 c -0.04317,0.23743 -0.19426,0.35614 -0.19426,0.35614 0,0 -0.08634,0.0324 -0.625948,-0.32377 -3.593803,-2.54696 -7.781177,-2.22319 -7.781177,-2.22319 -3.194492,0.20505 -6.896217,1.86705 -8.018606,6.09759 -0.982091,3.7449 0.05396,6.88543 2.277154,8.76327 1.521701,1.30586 3.874401,1.98577 6.335023,1.86705 2.719635,-0.19426 4.867283,-1.27348 4.7054,-1.19793 0,0 0.118714,-0.0324 0.248221,-0.0755 0.550402,-0.29139 0.669116,-0.24822 0.669116,-0.24822 0,0 0.118714,0.12951 0.04317,0.48565 z m 20.397258,-19.87924 c 0,0 -0.0432,0 -0.0755,0.0755 l -3.97153,9.04386 c -0.0863,0.12951 -0.054,0.20506 -0.054,0.20506 0,0 0.054,0.0432 0.23743,0.0432 l 5.86016,0.0432 c 0.0432,0 0.0756,-0.0432 0.0756,-0.0432 0,0 0.0432,-0.0432 0,-0.1511 l -2.02894,-9.14099 c 0,-0.0755 -0.0432,-0.0755 -0.0432,-0.0755 m 66.1562,-0.10792 c 0,0 -0.0324,0 -0.0755,0.15109 l -3.98233,9.01149 c -0.0863,0.26981 -0.0432,0.31298 -0.0432,0.31298 0,0 0.11871,0.0755 0.20505,0.0755 l 5.90333,-0.0324 h 0.0755 c 0,0 0.0324,-0.0432 0,-0.16188 l -1.99656,-9.24892 c -0.0324,-0.10792 -0.0863,-0.10792 -0.0863,-0.10792 m -54.03655,20.99083 -7.09048,0.0324 c -0.16188,0 -0.2806,-0.0755 -0.2806,-0.0755 0,0 -0.0432,-0.0324 -0.0863,-0.32377 l -1.1116,-4.57589 c 0,-0.11872 -0.0755,-0.16189 -0.0755,-0.16189 h -0.11871 -9.99358 c -0.20505,0 -0.31297,0.16189 -0.31297,0.16189 0,0 -0.17268,0.11871 -0.29139,0.39931 l -1.98577,4.26292 c -0.0863,0.15109 -0.11871,0.20505 -0.11871,0.20505 0,0 -0.12951,0.0755 -0.24822,0.0755 h -8.256038 c -0.226637,0.0324 -0.269805,-0.0755 -0.269805,-0.0755 0,0 -0.04317,-0.1403 0.04317,-0.29139 l 14.299663,-28.76122 c 0.0756,-0.15109 0.19426,-0.19426 0.19426,-0.19426 h 0.2806 9.1302 c 0.15109,0 0.26981,0.11872 0.26981,0.11872 0,0 0.054,0.0324 0.0863,0.16188 l 6.14076,28.82597 c 0,0.1403 -0.0863,0.17268 -0.0863,0.17268 0,0 -0.0324,0.0432 -0.11871,0.0432 m 31.88016,0.0755 h -7.29553 -0.22663 c 0,0 -0.054,-0.0432 -0.0863,-0.0755 L 140.81674,123.7773 c -0.0863,-0.0863 -0.11871,-0.0863 -0.11871,-0.0863 0,0 -0.0755,0 -0.0755,0.11872 l -2.50379,17.65604 c -0.054,0.20505 -0.0863,0.23743 -0.0863,0.23743 0,0 -0.0863,0.0432 -0.20506,0.0432 h -7.26315 c -0.10792,0 -0.18347,-0.0755 -0.18347,-0.0755 0,0 -0.16188,-0.16188 -0.1295,-0.32377 l 3.99311,-28.56696 c 0.0324,-0.16188 0.11872,-0.20505 0.11872,-0.20505 0,0 0.11871,-0.10792 0.23743,-0.10792 h 8.09415 c 0.11871,0 0.19426,0.0756 0.19426,0.0756 0,0 0.0755,0.0324 0.11871,0.16188 l 9.1302,16.00483 c 0.15109,0.33456 0.26981,0.29139 0.26981,0.29139 0,0 0.1295,0 0.20505,-0.36693 l 2.30953,-15.92929 c 0,-0.12951 0.0863,-0.16188 0.0863,-0.16188 0,0 0.0432,-0.0756 0.15109,-0.0756 l 7.61929,0.0756 c 0.16189,0 0.19426,0.0324 0.19426,0.0324 0,0 0.0432,0.0432 0.0432,0.12951 l -4.10103,28.80439 c -0.0432,0.16188 -0.11872,0.2698 -0.11872,0.2698 0,0 -0.0432,0.0432 -0.24822,0.0432 m 34.15732,0.0324 h -7.29553 c -0.15109,0.0971 -0.2806,-0.0756 -0.2806,-0.0756 0,0 -0.0324,-0.0324 -0.0755,-0.2698 l -0.94971,-4.50035 c -0.0755,-0.24822 -0.16189,-0.36694 -0.16189,-0.36694 0,0 -0.20505,-0.11871 -0.44248,-0.11871 h -9.48634 c -0.19426,0 -0.31298,0.11871 -0.31298,0.11871 0,0 -0.16188,0.16189 -0.24822,0.39931 l -2.14765,4.5759 c -0.0432,0.1295 -0.11871,0.16188 -0.11871,0.16188 0,0 -0.16188,0.0432 -0.24822,0.0432 h -8.21287 c -0.18346,0.0324 -0.2698,-0.0755 -0.2698,-0.0755 0,0 -0.0324,-0.0755 0.0863,-0.23742 l 14.46155,-28.89073 c 0.0755,-0.0432 0.16188,-0.15109 0.16188,-0.15109 0,0 0.0755,-0.0432 0.31297,-0.0432 h 8.96832 c 0.20506,0 0.32377,0.11872 0.32377,0.11872 0,0 0.0432,0.0324 0.0755,0.16188 l 6.01126,28.99865 c 0,0.0755 -0.0324,0.11871 -0.0324,0.11871 0,0 0,0.0324 -0.11871,0.0324 m 20.92608,-0.4209 c -0.0432,0.23743 -0.0755,0.31297 -0.0755,0.31297 0,0 -0.054,0.0755 -0.24822,0.0755 H 196.8929 c -0.48565,0 -0.60437,-0.11871 -0.60437,-0.11871 0,0 -0.0755,-0.17268 -0.0324,-0.51803 l 4.06866,-28.28636 c 0.0324,-0.35614 0.11871,-0.47486 0.11871,-0.47486 h 0.43169 7.45741 c 0.20505,0 0.2806,0.0432 0.2806,0.0432 0,0 0.0324,0.10792 0,0.26981 l -3.07578,22.11322 c -0.0324,0.24822 0.0863,0.2698 0.0863,0.2698 0,0 0.0863,0.054 0.38852,0.054 h 8.13732 c 0.16188,0 0.23742,0.0755 0.23742,0.0755 0,0 0.0432,0.0432 0.0432,0.23743 z m 31.59957,-11.2023 c 0,0 -0.0324,0.0755 -0.15109,0.0755 h -10.19863 c -0.17268,0 -0.24822,0.0863 -0.24822,0.0863 0,0 -0.10793,0.0324 -0.10793,0.23743 v 10.87854 c 0,0.16188 -0.0863,0.19426 -0.0863,0.19426 0,0 -0.0432,0.0755 -0.17268,0.0755 h -8.08336 c -0.12951,0 -0.20505,-0.0755 -0.20505,-0.0755 0,0 -0.0216,-0.0324 -0.0216,-0.23743 v -10.87854 c 0,-0.11872 -0.12951,-0.19426 -0.12951,-0.19426 0,0 -0.0432,-0.0863 -0.15109,-0.0863 H 215.229 c -0.20506,0 -0.24822,-0.0324 -0.24822,-0.0324 0,0 -0.0755,-0.0863 -0.0755,-0.32376 V 121.986 c 0,-0.0863 0.0755,-0.20505 0.0755,-0.20505 0,0 0.0432,-0.0324 0.11871,-0.0324 h 10.68428 c 0.0863,0 0.0863,-0.0432 0.0863,-0.0432 0,0 0.0863,-0.0432 0.0863,-0.11872 v -9.52951 c 0,-0.10792 0.0216,-0.19426 0.0216,-0.19426 0,0 0.0755,-0.0432 0.32377,-0.0432 h 7.93226 c 0.16189,0 0.20506,0.0432 0.20506,0.0432 0,0 0.0863,0.0863 0.0863,0.23743 v 9.56189 h 10.34973 c 0.28059,0 0.35614,0.0432 0.35614,0.0432 0,0 0.1295,0.0432 0.1295,0.28059 v 8.05099 c 0,0.0755 -0.1295,0.19426 -0.1295,0.19426" />
    <path
       d="m 64.199534,151.79594 0.107922,74.14243 189.003834,-22.33986 v -51.80257 z"
       style="fill:url(#linearGradient99849);stroke:none;stroke-width:10.792202"
       id="path99851"
       inkscape:connector-curvature="0" />
    <path
       inkscape:connector-curvature="0"
       id="path99863"
       style="fill:#2d934f;fill-opacity:1;fill-rule:nonzero;stroke:none;stroke-width:10.792202"
       d="m 64.28803,218.99575 189.01463,-17.96902 v -2.38507 L 64.28803,216.61067 Z" />
    <path
       inkscape:connector-curvature="0"
       id="path99867"
       style="fill:#2d934f;fill-opacity:1;fill-rule:nonzero;stroke:none;stroke-width:10.792202"
       d="M 64.208168,159.45733 253.29834,157.90325 V 156.0362 L 64.208168,157.59028 Z" />
    <path
       inkscape:connector-curvature="0"
       id="path99871"
       style="fill:#2d934f;fill-opacity:1;fill-rule:nonzero;stroke:none;stroke-width:10.792202"
       d="M 64.276159,209.91087 253.30158,194.86654 v -2.30953 L 64.276159,207.60134 Z" />
    <path
       inkscape:connector-curvature="0"
       id="path99875"
       style="fill:#2d934f;fill-opacity:1;fill-rule:nonzero;stroke:none;stroke-width:10.792202"
       d="M 64.264287,201.10336 253.3005,188.70312 v -2.23399 L 64.264287,198.86937 Z" />
    <path
       inkscape:connector-curvature="0"
       id="path99879"
       style="fill:#2d934f;fill-opacity:1;fill-rule:nonzero;stroke:none;stroke-width:10.792202"
       d="M 64.252416,192.55162 253.29942,182.54725 v -2.16923 L 64.252416,190.38239 Z" />
    <path
       inkscape:connector-curvature="0"
       id="path99883"
       style="fill:#2d934f;fill-opacity:1;fill-rule:nonzero;stroke:none;stroke-width:10.792202"
       d="m 64.240544,183.7182 189.057796,-7.32791 v -2.09368 l -189.057796,7.3387 z" />
    <path
       inkscape:connector-curvature="0"
       id="path99887"
       style="fill:#2d934f;fill-opacity:1;fill-rule:nonzero;stroke:none;stroke-width:10.792202"
       d="m 64.229752,175.13084 189.068588,-4.91045 v -2.00735 L 64.229752,173.1127 Z" />
    <path
       inkscape:connector-curvature="0"
       id="path99891"
       style="fill:#2d934f;fill-opacity:1;fill-rule:nonzero;stroke:none;stroke-width:10.792202"
       d="m 64.21896,167.70797 189.07938,-3.64776 v -1.9426 l -189.07938,3.64776 z" />
    <path
       inkscape:connector-curvature="0"
       id="path99895"
       style="fill:#ffffff;fill-opacity:1;fill-rule:nonzero;stroke:none;stroke-width:10.792202"
       d="m 97.020779,190.79033 -0.312974,-11.61241 v -0.86338 c 0,-0.48564 0,-0.92812 0.03238,-1.41377 0.04317,-0.89576 0.107922,-1.48933 0.280597,-2.87073 -0.205052,0.51803 -0.34535,0.93892 -0.453272,1.20873 -0.377728,0.90654 -0.895753,2.11527 -1.381402,3.0434 l -6.356607,12.50816 h -3.453505 l -2.244778,-10.01516 c -0.205052,-0.93893 -0.34535,-1.76992 -0.485649,-2.493 -0.205052,-1.31665 -0.345351,-2.30953 -0.582779,-4.66223 -0.140299,0.78783 -0.280597,1.3814 -0.34535,1.75913 -0.38852,1.80229 -0.690701,2.97864 -1.036052,4.18737 l -3.323998,11.22389 h -6.766711 l 8.191282,-25.91208 h 6.486113 l 1.974973,8.74169 c 0.140299,0.58278 0.280597,1.34902 0.453272,2.27715 0.345351,1.86705 0.442481,2.52538 0.690701,4.53273 0.205052,-0.59358 0.377727,-1.04685 0.474857,-1.31665 0.07555,-0.1403 0.172676,-0.4209 0.38852,-0.86338 0.269805,-0.6907 0.518025,-1.14397 0.615155,-1.3814 l 6.119179,-11.99014 h 6.777499 l 0.82021,25.91208 z" />
    <path
       inkscape:connector-curvature="0"
       id="path99899"
       style="fill:#ffffff;fill-opacity:1;fill-rule:nonzero;stroke:none;stroke-width:10.792202"
       d="m 121.81478,170.16211 c -4.38163,0 -7.70563,3.38875 -7.70563,7.84593 0,4.31688 3.07578,7.45741 7.25236,7.45741 4.32767,0 7.53295,-3.28083 7.53295,-7.73801 0,-4.39242 -3.00023,-7.56533 -7.07968,-7.56533 m -0.37773,21.53044 c -8.19128,0 -14.02986,-5.60115 -14.02986,-13.51183 0,-8.15891 6.18393,-14.23492 14.54789,-14.23492 8.11573,0 13.65213,5.38531 13.65213,13.29599 0,8.43951 -5.91412,14.45076 -14.17016,14.45076" />
    <path
       inkscape:connector-curvature="0"
       id="path99903"
       style="fill:#ffffff;fill-opacity:1;fill-rule:nonzero;stroke:none;stroke-width:10.792202"
       d="m 154.34464,170.57653 h -5.46085 l -2.48221,20.21379 h -6.57245 l 2.52537,-20.21379 h -5.60115 l 0.70149,-5.69828 h 17.5805 z" />
    <path
       inkscape:connector-curvature="0"
       id="path99907"
       style="fill:#ffffff;fill-opacity:1;fill-rule:nonzero;stroke:none;stroke-width:10.792202"
       d="m 169.42998,170.16211 c -4.38163,0 -7.70563,3.38875 -7.70563,7.84593 0,4.31688 3.07578,7.45741 7.26315,7.45741 4.31688,0 7.52216,-3.28083 7.52216,-7.73801 0,-4.39242 -3.00023,-7.56533 -7.07968,-7.56533 m -0.37773,21.53044 c -8.19128,0 -14.02986,-5.60115 -14.02986,-13.51183 0,-8.15891 6.18393,-14.23492 14.54789,-14.23492 8.12653,0 13.65213,5.38531 13.65213,13.29599 0,8.43951 -5.91412,14.45076 -14.17016,14.45076" />
    <path
       inkscape:connector-curvature="0"
       id="path99911"
       style="fill:#ffffff;fill-opacity:1;fill-rule:nonzero;stroke:none;stroke-width:10.792202"
       d="m 220.97677,176.41727 c 0,2.24478 -0.17268,4.14421 -0.5504,5.66591 -0.72308,3.0434 -2.28795,5.42847 -4.62986,7.15523 -2.24477,1.6512 -4.94283,2.4822 -8.08336,2.4822 -4.07945,0 -7.39265,-1.27348 -9.99358,-3.79885 -2.55775,-2.52538 -3.83123,-5.83858 -3.83123,-9.95041 0,-4.14421 1.27348,-7.50058 3.8744,-10.05834 2.59013,-2.54695 6.01126,-3.83123 10.22022,-3.83123 3.49667,0 6.29185,0.9713 8.47188,2.93548 0.78783,0.72308 1.55407,1.69438 2.27715,2.83835 0.23743,0.4101 0.5504,0.92813 0.86338,1.5217 l -6.38899,2.65488 c -0.51802,-1.13318 -1.07922,-2.00735 -1.69437,-2.6225 -1.00368,-1.00368 -2.27716,-1.5217 -3.79886,-1.5217 -1.5217,0 -2.83835,0.44248 -3.98232,1.3814 -1.03605,0.86338 -1.7915,2.03973 -2.27715,3.48588 -0.34535,1.00368 -0.51803,2.11527 -0.51803,3.28083 0,2.38508 0.65833,4.36005 1.9426,5.88175 1.30585,1.5217 3.00023,2.27716 5.03996,2.27716 2.18002,0 3.65855,-0.79863 4.52193,-2.35271 0.31297,-0.5504 0.5504,-1.27347 0.73387,-2.2124 h -5.5364 v -5.21263 z" />
    <path
       inkscape:connector-curvature="0"
       id="path99915"
       style="fill:#ffffff;fill-opacity:1;fill-rule:nonzero;stroke:none;stroke-width:10.792202"
       d="m 234.22852,176.76155 c 2.44983,0 3.70173,-1.06843 3.70173,-3.21608 0,-2.16923 -1.21952,-3.24845 -3.66935,-3.24845 h -2.24478 v 6.46453 z m 1.75913,-11.88221 c 2.7628,0 4.91045,0.72307 6.46453,2.16923 1.69437,1.59724 2.52537,3.7341 2.52537,6.43215 0,5.80621 -2.9031,8.70931 -8.74168,8.70931 h -4.21975 v 8.60138 h -6.73434 v -25.91207 z" />
  </g>
</svg>
