<svg id="Calque_2" data-name="Calque 2" xmlns="http://www.w3.org/2000/svg" viewBox="0 0 189.02 184.562"><defs><style>.cls-1{fill:#9b1e1e;}.cls-2{fill:#fff;}</style></defs><title>logo-8montblanc</title><path class="cls-1" d="M93.52,0c-47.6,0-57.1,46.947-42.039,71.682A23.556,23.556,0,0,0,53.5,74.267a4.158,4.158,0,0,1,1.94-1.006,5.414,5.414,0,0,1,.973-.041h3.637c1.043,0,2.09.03,3.133,0a6.913,6.913,0,0,0,1.259-.305,8.825,8.825,0,0,1,2.546-.227A6.914,6.914,0,0,1,70,73.605a7.583,7.583,0,0,1,.763.508l.443.346,1.106-.788,1.16-8.631,8.333-.007C69.635,53.4,73.365,27.165,93.869,27.165c19.717,0,23.031,21.732,14.913,33.4,0,0,4.525,0,6.787.035a28.245,28.245,0,0,1,4.3.228A8.893,8.893,0,0,1,124,62.65a8.047,8.047,0,0,1,1.693,1.914l.578-4.552h12.27s-1.647,8.357-.863,6.827C149.053,44.637,142.122,0,93.52,0Z"/><path class="cls-1" d="M93.288,73.817a24.622,24.622,0,0,1-8.146-4.944l-.613,4.945h2.463l-.95,7.256h1.729V77.185H99.939v4.073h3.415l2-15.628A36.633,36.633,0,0,1,93.288,73.817Zm10.232,7.035c.012-.081.025-.162.034-.244C103.551,80.628,103.529,80.794,103.52,80.851Z"/><path class="cls-1" d="M93.831,181.562c-31.937,0-46.251-14-52.636-25.735-10.416-19.148-5.865-42.6.49-52.424a3.9,3.9,0,0,1,.959-1.142,3.415,3.415,0,0,1,1.056-.556c.14-.058.268-.113.395-.17a9.158,9.158,0,0,0,.894-.457,9.255,9.255,0,0,0,1.94-1.565L53,93.27l-.922,8.488h25.9L80.223,84.35h6.445v6.33H90.91V94.8h6.143V90.8l4.3,0q.306,0,.615,0l3.323.055L104,101.7h9.828a12.309,12.309,0,0,0,4.259-.75,4.566,4.566,0,0,0,.918-.457l5.5-4.4-.507,5.612,6.288-.016.592-6.058,5.092,5.329a5.051,5.051,0,0,0,.845.6,5.546,5.546,0,0,0,2.709.723,4.61,4.61,0,0,0,.864-.08,5.662,5.662,0,0,0,.567-.2l.176-.068.208-.055a7.878,7.878,0,0,1,1.739-.232,3.381,3.381,0,0,1,3.069,1.652c9.2,16.074,9.344,37.285.358,52.781-9.526,16.429-28.227,25.477-52.653,25.477Zm-.492-79.63a19.976,19.976,0,0,0-1.968.647,28.539,28.539,0,0,0-5.118,2.735,40.89,40.89,0,0,0-3.4,2.512,30.836,30.836,0,0,0-3.232,2.951,28.916,28.916,0,0,0-4.377,6.677,20.564,20.564,0,0,0-2.1,14.449,23.075,23.075,0,0,0,2.313,6.661,13.838,13.838,0,0,0,1.607,2.39,14.992,14.992,0,0,0,2.266,2.014,27.108,27.108,0,0,0,5.97,3.639,22.311,22.311,0,0,0,6.438,1.573,35.852,35.852,0,0,0,3.754.224,18.35,18.35,0,0,0,3.451-.3,21.747,21.747,0,0,0,6.771-2.55,20.688,20.688,0,0,0,5.8-4.823,17.5,17.5,0,0,0,2.884-5.718,24.719,24.719,0,0,0,1.165-7.537,19.685,19.685,0,0,0-1.5-7.5,24.5,24.5,0,0,0-3.91-6.437c-.619-.736-1.317-1.484-2.2-2.357l-.492-.5c-.451-.457-.877-.888-1.294-1.24-.6-.5-1.216-.981-1.833-1.46-.334-.259-.668-.517-1-.779l-.035.293-4.081-2.777A30.413,30.413,0,0,0,93.339,101.932Z"/><path class="cls-2" d="M83.669,87.351V93.68H87.91V97.8h12.143V93.813h.133c.388,0,.774,0,1.161,0,.19,0,.38,0,.57,0l-1.007,8.437a36.076,36.076,0,0,0-7.392-3.431,19.412,19.412,0,0,0-3.259.976,31.658,31.658,0,0,0-5.658,3.017,43.67,43.67,0,0,0-3.646,2.7,33.3,33.3,0,0,0-3.549,3.25,32.113,32.113,0,0,0-4.845,7.362A23.539,23.539,0,0,0,70.2,132.472,26.141,26.141,0,0,0,72.823,140a16.882,16.882,0,0,0,1.96,2.9,17.61,17.61,0,0,0,2.715,2.443,30.11,30.11,0,0,0,6.637,4.029,25.52,25.52,0,0,0,7.292,1.793,39.03,39.03,0,0,0,4.067.241,21.5,21.5,0,0,0,4.012-.348,24.9,24.9,0,0,0,7.7-2.9,23.591,23.591,0,0,0,6.646-5.543,20.482,20.482,0,0,0,3.408-6.7,27.847,27.847,0,0,0,1.3-8.449,22.566,22.566,0,0,0-1.729-8.635,27.51,27.51,0,0,0-4.389-7.224c-.75-.89-1.553-1.734-2.379-2.554-.641-.636-1.273-1.315-1.963-1.9-1.014-.857-2.078-1.637-3.115-2.466h8.833a15.462,15.462,0,0,0,5.37-.963,6.592,6.592,0,0,0,1.681-.9l-.168,1.882L133,104.682l.219-2.249.651.681a8.067,8.067,0,0,0,1.448,1.056,8.558,8.558,0,0,0,4.2,1.118,7.584,7.584,0,0,0,1.431-.134,6.567,6.567,0,0,0,1.109-.358,5.17,5.17,0,0,1,1.016-.143c.219,0,.4.036.466.143,15.238,26.623,6.435,73.767-49.692,73.767h-.013c-63.167-.008-60.908-56.095-49.628-73.529a1.768,1.768,0,0,1,.29-.409,1.193,1.193,0,0,1,.268-.11c.191-.079.38-.16.568-.244a11.441,11.441,0,0,0,3.749-2.664l-.342,3.152H80.615l2.246-17.407h.808m6-6H77.585l-.675,5.232L75.339,98.757H55.424l1.5-13.824L44.778,97.422A5.495,5.495,0,0,1,42.867,98.8q-.115.052-.231.1a6.429,6.429,0,0,0-1.847,1,6.894,6.894,0,0,0-1.669,1.94c-3.954,6.15-6.516,15.145-7.033,24.7-.422,7.81.358,19.479,6.473,30.72,6.773,12.452,21.861,27.3,55.271,27.3,25.557,0,45.179-9.579,55.264-26.971,9.5-16.391,9.363-38.805-.35-55.776a6.41,6.41,0,0,0-5.673-3.162,10.7,10.7,0,0,0-2.459.319l-.371.092-.357.139-.2.078c-.054.005-.111.008-.17.008a2.56,2.56,0,0,1-1.216-.326,2.142,2.142,0,0,1-.273-.185l-.469-.49-9.04-9.456-.961,9.865h-.285l.835-9.33-10.838,8.669c-.054.025-.146.065-.295.124a9.481,9.481,0,0,1-3.221.536h-6.373l.5-4.172.788-6.6-6.647-.109q-.335-.005-.669,0l-.614,0-.548,0h-.116L94.053,87.8v4H93.91V87.68H89.669V81.351ZM95.493,145.4a32.766,32.766,0,0,1-3.44-.208,19.393,19.393,0,0,1-5.584-1.352,24.233,24.233,0,0,1-5.3-3.248,13.013,13.013,0,0,1-1.819-1.588,10.993,10.993,0,0,1-1.254-1.875,21.459,21.459,0,0,1-2.259-12.186,19.833,19.833,0,0,1,2.1-6.157,26.015,26.015,0,0,1,3.91-5.993,28.38,28.38,0,0,1,2.917-2.651,37.851,37.851,0,0,1,3.144-2.327,25.5,25.5,0,0,1,4.579-2.453c.221-.088.481-.181.742-.267a24.727,24.727,0,0,1,4.309,2.112l6.827,4.645c.285.254.615.588.962.94.173.176.346.35.52.523.8.8,1.462,1.5,2.017,2.162a21.5,21.5,0,0,1,3.432,5.651,16.679,16.679,0,0,1,1.273,6.359,21.731,21.731,0,0,1-1.025,6.622,14.573,14.573,0,0,1-2.361,4.742,17.666,17.666,0,0,1-4.958,4.1,18.792,18.792,0,0,1-5.837,2.205,15.457,15.457,0,0,1-2.893.243Z"/><path class="cls-1" d="M96.564,94.367V90.231h4.415V84.8H96.551V80.658H91.4v4.18H87.055c0,1.819,0,3.54,0,5.4h4.363v4.131Z"/><path class="cls-1" d="M186.757,77.255c-3.341-1.09-6.894.152-9.345,3.276a18.214,18.214,0,0,0-3.648,11.261,11.61,11.61,0,0,0,1.729,6.635,6.917,6.917,0,0,0,8.968,2.771,3.051,3.051,0,0,0,2.21-2.841c.467-4.2.512-4.506.621-5.368-1.236.459-2.254.907-3.313,1.215-1.966.573-3.552-.263-3.895-2.281a10.523,10.523,0,0,1,.134-4.105c.937-3.916,3.722-4.969,7.148-2.861a9.318,9.318,0,0,0,.953.439c.22-1.721.437-3.277.613-4.837C189.191,78.26,189,77.986,186.757,77.255Z"/><path class="cls-1" d="M164.79,101.31H170.2c.054-.09.106-.139.113-.193.661-5.37,1.37-10.734,1.95-16.112a10.093,10.093,0,0,0-1.082-5.943,3.977,3.977,0,0,0-4.619-2.115,11.435,11.435,0,0,0-4.732,2.833l.271-2.436c-.7,0-3.376,0-4.377-.016-.781-.011-1.049.2-1.145,1.01L153.7,101.344c1.719,0,3.35.054,4.978,0,.178-.006.453-.451.492-.713l1.912-13.4a6.16,6.16,0,0,1,2-3.591c1.058-.93,2.268-.776,2.811.512a6.958,6.958,0,0,1,.593,3.123Z"/><path class="cls-1" d="M148.235,77.417c-.2,0-.473.371-.522.6-.148.682-.206,1.383-.327,2.292-.439-.637-.72-1.079-1.035-1.495a4.263,4.263,0,0,0-5.407-1.566,8.306,8.306,0,0,0-3.514,2.65,18.779,18.779,0,0,0-4.106,12.234,12.654,12.654,0,0,0,1.958,7.419,4.9,4.9,0,0,0,7.505.932,14.914,14.914,0,0,0,1.321-1.427c.312-.36.59-.75,1.057-1.35l-.406,3.6h5.335l3.029-23.88S148.574,77.415,148.235,77.417Zm-7.383,7.994c1.406-1.611,3.8-1.738,4.848.679a8,8,0,0,1-2.111,8.473c-1.6,1.277-3.761.974-4.477-1.119A9.407,9.407,0,0,1,140.852,85.411Z"/><polygon class="cls-1" points="124.576 101.293 129.84 101.293 134.552 64.127 129.286 64.127 124.576 101.293"/><path class="cls-1" d="M109.09,64.716c-1.553,12.246-4.634,36.5-4.634,36.5s7.92.082,10.493,0a8.5,8.5,0,0,0,6.654-3.774,14.266,14.266,0,0,0,2.568-10.013,7.1,7.1,0,0,0-3.624-6.007c-.044-.025-.058-.1-.117-.217a11.571,11.571,0,0,0,3.638-9.451c-.258-4.955-2.219-6.91-6.685-7.034Zm4.859,6.783a.723.723,0,0,1,.393-.509,3.036,3.036,0,0,1,3.855,2.82,5.4,5.4,0,0,1-1.012,3.4c-.984,1.4-2.1,1.837-4.156,1.6C113.335,76.336,113.627,73.915,113.949,71.5Zm-1.743,13.744a30.219,30.219,0,0,1,3.269.023,2.956,2.956,0,0,1,2.653,2.8,12.281,12.281,0,0,1-.266,3.745,4.147,4.147,0,0,1-4,3.288,26.625,26.625,0,0,1-2.912.014Z"/><path class="cls-1" d="M77.563,101.311l2.217-17.4h2.452l.827-6.566h-2.44l1.01-8.185H76.454c-.354,2.73-.7,5.427-1.061,8.2H73.939s-.5.132-.545.446c-.276,2.01-.52,4.025-.776,6.1l1.938.093-2.184,17.319Z"/><path class="cls-1" d="M52.613,101.316h5.221L59.6,88.343a7.5,7.5,0,0,1,2.2-4.6c1.232-1.139,2.616-.9,3.182.643a8.165,8.165,0,0,1,.463,3.068l-1.705,13.854h5.2c.053-.087.105-.136.112-.19.669-5.4,1.395-10.791,1.969-16.2A9.754,9.754,0,0,0,69.85,79a3.9,3.9,0,0,0-3.03-2.2,6.192,6.192,0,0,0-4.582,1.656c-.518.411-.995.874-1.609,1.418.1-.924.174-1.687.262-2.54-.763,0-4.2,0-4.444,0-.708-.011-.865.249-.944.888Z"/><path class="cls-1" d="M47.547,98.147a18.045,18.045,0,0,0,3.716-11.235,12.534,12.534,0,0,0-1.491-6.342,6.757,6.757,0,0,0-7.9-3.531,9.365,9.365,0,0,0-5.175,3.4,17.142,17.142,0,0,0-3.664,9.455,14.252,14.252,0,0,0,1.514,8.539,6.2,6.2,0,0,0,5.394,3.388A8.725,8.725,0,0,0,47.547,98.147ZM40.3,84.779c2.022-2.13,4.043-2.094,5.2.83,1.124,2.845.508,6.982-2.022,8.917-1.841,1.408-3.357,1.083-4.44-.794C37.819,91.625,38.12,87.074,40.3,84.779Z"/><path class="cls-1" d="M30.669,64.68c-.743-.02-4.451-.01-5.148,0a1.217,1.217,0,0,0-1.383.957L17.093,85.657,15.078,65.826c-.086-.959-.42-1.15-1.3-1.155-1.495-.008-3.1.01-4.64,0-1.078-.007-1.351.254-1.558,1.243L0,101.373H4.918c.733,0,1.021-.2,1.166-.909l4.907-23.337L13.46,99.643c.18,1.727.219,1.737,1.991,1.742.895,0,1.179-.217,1.451-1,0,0,7.708-23.216,7.808-23.214v24.146h5.959Z"/></svg>