<?xml version="1.0" encoding="UTF-8"?>
<svg width="1000" height="286.0118103" viewBox="0 0 1000 286.0118103" xmlns="http://www.w3.org/2000/svg">
	<defs>
		<clipPath id="k">
			<path d="m397 18h38.160156v44h-38.160156z" />
		</clipPath>
		<clipPath id="j">
			<path d="m8 0h91v124.460938h-91z" />
		</clipPath>
		<clipPath id="i">
			<path d="m0 0h108v124.460938h-108z" />
		</clipPath>
		<clipPath id="h">
			<path d="m8 65h46v59.460938h-46z" />
		</clipPath>
		<clipPath id="g">
			<path d="m53.636719 124.460938-45.125-41.203125c6.6875-5.4375 12.390625-11.292969 17.246094-17.292969 22.449218 30.113281 27.402343 51.835937 27.878906 58.496094z" />
		</clipPath>
		<clipPath id="f">
			<path d="m53.636719 124.460938-45.125-41.203125c6.6875-5.4375 12.390625-11.292969 17.246094-17.292969 22.449218 30.113281 27.402343 51.835937 27.878906 58.496094" />
		</clipPath>
		<linearGradient id="b" x1="-1.089277983" x2="2.48583889" gradientTransform="matrix(-16.5503 9.55529 -9.55529 -16.5503 44.7865 92.2745)" gradientUnits="userSpaceOnUse">
			<stop stop-color="#4468bc" offset="0" />
			<stop stop-color="#4468bc" offset=".25" />
			<stop stop-color="#4468bc" offset=".3125" />
			<stop stop-color="#446bbc" offset=".316406" />
			<stop stop-color="#446bbc" offset=".320313" />
			<stop stop-color="#426bbc" offset=".324219" />
			<stop stop-color="#426bbc" offset=".328125" />
			<stop stop-color="#426bbc" offset=".332031" />
			<stop stop-color="#426dbc" offset=".335938" />
			<stop stop-color="#426dbc" offset=".339844" />
			<stop stop-color="#426dbf" offset=".34375" />
			<stop stop-color="#426dbf" offset=".347656" />
			<stop stop-color="#3f6dbf" offset=".351563" />
			<stop stop-color="#3f70bf" offset=".355469" />
			<stop stop-color="#3f70bf" offset=".359375" />
			<stop stop-color="#3f70bf" offset=".363281" />
			<stop stop-color="#3f72c1" offset=".367188" />
			<stop stop-color="#3f72c1" offset=".371094" />
			<stop stop-color="#3f72c1" offset=".375" />
			<stop stop-color="#3f72c1" offset=".378906" />
			<stop stop-color="#3f72c1" offset=".382813" />
			<stop stop-color="#3d75c1" offset=".386719" />
			<stop stop-color="#3d75c1" offset=".390625" />
			<stop stop-color="#3d75c1" offset=".394531" />
			<stop stop-color="#3d75c4" offset=".398438" />
			<stop stop-color="#3d75c4" offset=".402344" />
			<stop stop-color="#3d77c4" offset=".40625" />
			<stop stop-color="#3d77c4" offset=".410156" />
			<stop stop-color="#3d77c4" offset=".414063" />
			<stop stop-color="#3d77c4" offset=".417969" />
			<stop stop-color="#3a77c4" offset=".421875" />
			<stop stop-color="#3a7ac6" offset=".425781" />
			<stop stop-color="#3a7ac6" offset=".429688" />
			<stop stop-color="#3a7ac6" offset=".433594" />
			<stop stop-color="#3a7ac6" offset=".4375" />
			<stop stop-color="#3a7cc6" offset=".441406" />
			<stop stop-color="#3a7cc6" offset=".445312" />
			<stop stop-color="#387cc6" offset=".449219" />
			<stop stop-color="#387cc9" offset=".453125" />
			<stop stop-color="#387cc9" offset=".457031" />
			<stop stop-color="#387fc9" offset=".460938" />
			<stop stop-color="#387fc9" offset=".464844" />
			<stop stop-color="#387fc9" offset=".46875" />
			<stop stop-color="#387fc9" offset=".472656" />
			<stop stop-color="#387fc9" offset=".476563" />
			<stop stop-color="#3882cc" offset=".480469" />
			<stop stop-color="#3882cc" offset=".484375" />
			<stop stop-color="#3582cc" offset=".488281" />
			<stop stop-color="#3582cc" offset=".492188" />
			<stop stop-color="#3582cc" offset=".496094" />
			<stop stop-color="#3582cc" offset=".5" />
			<stop stop-color="#3584cc" offset=".503906" />
			<stop stop-color="#3584cc" offset=".507813" />
			<stop stop-color="#3584ce" offset=".511719" />
			<stop stop-color="#3584ce" offset=".515625" />
			<stop stop-color="#3584ce" offset=".519531" />
			<stop stop-color="#3387ce" offset=".523438" />
			<stop stop-color="#3387ce" offset=".527344" />
			<stop stop-color="#3387ce" offset=".53125" />
			<stop stop-color="#3387ce" offset=".535156" />
			<stop stop-color="#3387d1" offset=".539063" />
			<stop stop-color="#3389d1" offset=".542969" />
			<stop stop-color="#3389d1" offset=".546875" />
			<stop stop-color="#3389d1" offset=".550781" />
			<stop stop-color="#3089d1" offset=".554688" />
			<stop stop-color="#3089d1" offset=".558594" />
			<stop stop-color="#3089d1" offset=".5625" />
			<stop stop-color="#308cd1" offset=".566406" />
			<stop stop-color="#308cd1" offset=".570313" />
			<stop stop-color="#308cd3" offset=".574219" />
			<stop stop-color="#308cd3" offset=".578125" />
			<stop stop-color="#308cd3" offset=".59375" />
			<stop stop-color="#308cd3" offset=".625" />
			<stop stop-color="#308cd3" offset=".75" />
			<stop stop-color="#308cd3" offset="1" />
		</linearGradient>
		<clipPath id="e">
			<path d="m53 0h55v66h-55z" />
		</clipPath>
		<clipPath id="d">
			<path d="m53.636719 0c0.4375 6.070313 5.003906 37.28125 27.875 65.964844 6.839844-9.171875 15.308594-18.460938 25.757812-27.273438z" />
		</clipPath>
		<clipPath id="c">
			<path d="m53.636719 0c0.4375 6.070313 5.003906 37.28125 27.875 65.964844 6.839844-9.171875 15.308594-18.460938 25.757812-27.273438l-53.632812-38.691406" />
		</clipPath>
		<linearGradient id="a" x1="-.8422939777" x2="2.173531055" gradientTransform="matrix(22.6636,-13.9428,13.9428,22.6636,61.8307,36.5156)" gradientUnits="userSpaceOnUse">
			<stop stop-color="#42a8e2" offset="0" />
			<stop stop-color="#42a8e2" offset=".25" />
			<stop stop-color="#42a8e2" offset=".28125" />
			<stop stop-color="#42a8e2" offset=".289063" />
			<stop stop-color="#42aae2" offset=".292969" />
			<stop stop-color="#44aae2" offset=".296875" />
			<stop stop-color="#44aae2" offset=".304688" />
			<stop stop-color="#44aae5" offset=".308594" />
			<stop stop-color="#44aae5" offset=".3125" />
			<stop stop-color="#44ade5" offset=".320313" />
			<stop stop-color="#44ade5" offset=".324219" />
			<stop stop-color="#44ade5" offset=".328125" />
			<stop stop-color="#44ade5" offset=".335938" />
			<stop stop-color="#44ade5" offset=".339844" />
			<stop stop-color="#44afe5" offset=".34375" />
			<stop stop-color="#44afe5" offset=".351563" />
			<stop stop-color="#47afe5" offset=".355469" />
			<stop stop-color="#47afe8" offset=".359375" />
			<stop stop-color="#47afe8" offset=".367188" />
			<stop stop-color="#47afe8" offset=".371094" />
			<stop stop-color="#47afe8" offset=".375" />
			<stop stop-color="#47b2e8" offset=".382813" />
			<stop stop-color="#47b2e8" offset=".386719" />
			<stop stop-color="#47b2e8" offset=".390625" />
			<stop stop-color="#47b2e8" offset=".398438" />
			<stop stop-color="#47b2e8" offset=".40625" />
			<stop stop-color="#47b5e8" offset=".414063" />
			<stop stop-color="#49b5ea" offset=".417969" />
			<stop stop-color="#49b5ea" offset=".421875" />
			<stop stop-color="#49b5ea" offset=".429688" />
			<stop stop-color="#49b5ea" offset=".433594" />
			<stop stop-color="#49b5ea" offset=".4375" />
			<stop stop-color="#49b5ea" offset=".445313" />
			<stop stop-color="#49b7ea" offset=".453125" />
			<stop stop-color="#49b7ea" offset=".46875" />
			<stop stop-color="#49b7ea" offset=".472656" />
			<stop stop-color="#49b7ea" offset=".476563" />
			<stop stop-color="#49b7ea" offset=".484375" />
			<stop stop-color="#49b7ea" offset=".488281" />
			<stop stop-color="#49b7ea" offset=".492188" />
			<stop stop-color="#49b7ea" offset=".5" />
			<stop stop-color="#4cbaed" offset=".503906" />
			<stop stop-color="#4cbaed" offset=".507813" />
			<stop stop-color="#4cbaed" offset=".515625" />
			<stop stop-color="#4cbaed" offset=".519531" />
			<stop stop-color="#4cbaed" offset=".523438" />
			<stop stop-color="#4cbaed" offset=".53125" />
			<stop stop-color="#4cbaed" offset=".535156" />
			<stop stop-color="#4cbaed" offset=".539063" />
			<stop stop-color="#4cbaed" offset=".546875" />
			<stop stop-color="#4cbaed" offset=".5625" />
			<stop stop-color="#4cbced" offset=".566406" />
			<stop stop-color="#4cbced" offset=".570313" />
			<stop stop-color="#4cbced" offset=".578125" />
			<stop stop-color="#4cbced" offset=".59375" />
			<stop stop-color="#4cbced" offset=".609375" />
			<stop stop-color="#4cbced" offset=".625" />
			<stop stop-color="#4cbced" offset=".75" />
			<stop stop-color="#4cbced" offset="1" />
		</linearGradient>
	</defs>
	<g transform="translate(-90.99135057 -64.45261482)">
		<g transform="matrix(2.298004508 0 0 2.298004508 90.99135057 64.45261482)">
			<g fill="#423f3f">
				<path d="m163.972656 26.523438h12.324219v34.613281h8.257813v-34.613281h12.234375v-7.757813h-32.816407v7.757813" />
				<path d="m205.359375 61.136719h8.421875v-42.371094h-8.421875v42.371094" />
				<path d="m254.105469 46.441406-20.71875-27.675781h-8.027344v42.371094h8.25v-27.605469l20.726563 27.605469h8.019531v-42.371094h-8.25v27.675781" />
				<path d="m296.140625 46.851563h7.894531c-1.367187 4.734375-5.320312 7.429687-10.9375 7.429687-9.464843 0-13.777343-7.371094-13.777343-14.210937 0-7.007813 4.652343-14.449219 13.273437-14.449219 4.863281 0 8.886719 2.484375 9.777344 6.035156l0.3125 1.195313h8.207031l-0.269531-1.816407c-1.164063-7.632812-8.792969-13.167968-18.140625-13.167968-13.976563 0-21.519531 11.464843-21.519531 22.257812 0 10.886719 7.542968 21.90625 21.964843 21.90625 10.167969 0 17.710938-5.800781 19.785157-15.179687h4.476562v-7.75h-21.046875v7.75" />
			</g>
			<g clip-path="url(#k)">
				<path d="m426.023438 18.769531-8.414063 16.683594-10.464844-16.683594h-9.664062l15.828125 25.300782-8.597656 17.066406h9.144531l21.304687-42.367188h-9.136718" fill="#423f3f" />
			</g>
			<g fill="#423f3f">
				<path d="m340.519531 39.300781h-8.113281v-12.78125h8.042969c3.488281 0 6.347656 2.871094 6.347656 6.390625 0 3.496094-2.820312 6.359375-6.277344 6.390625zm7.128907 5.761719c4.273437-2.546875 6.898437-7.152344 6.898437-12.152344 0-7.738281-6.289062-14.089843-14.015625-14.140625h-16.363281v42.308594h8.238281v-14.007812h6.855469l6.429687 14.070312h9.292969l-7.335937-16.078125" />
				<path d="m374.867188 44.746094 4.460937-13.46875 4.464844 13.46875zm8.238281-25.617188-0.125-0.359375h-7.3125l-14.648438 42.371094h8.980469l3.132813-9.453125h12.394531l3.136719 9.453125h8.972656l-14.53125-42.011719" />
				<path d="m148.355469 36.785156-7.636719-1.773437c-3.148437-0.753906-4.710937-2.183594-4.710937-4.578125 0-3 2.660156-4.90625 6.613281-4.90625 4.363281 0 6.753906 2.179687 7.710937 4.980469h8.671875c-1.371093-7.101563-6.898437-12.152344-16.453125-12.152344-8.804687 0-15.074218 5.324219-15.074218 12.902344 0 6.886718 4.636718 10.089843 10.640625 11.460937l7.503906 1.703125c3.625 0.824219 5.113281 2.183594 5.113281 4.707031 0 3.347657-2.796875 5.253907-7.015625 5.253907-4.097656 0-7.171875-1.703125-8.320312-5.386719h-9.015625c1.429687 7.984375 8.050781 12.621094 17.394531 12.621094 8.875 0 15.5625-4.910157 15.5625-13.035157 0-6.339843-4.160156-10.234375-10.984375-11.796875" />
			</g>
			<g clip-path="url(#j)">
				<path d="m53.636719 0c0.4375 6.066406 5.003906 37.277344 27.875 65.964844 4.855469 6 10.558594 11.855469 17.246094 17.292969l-45.121094 41.203125-45.125-41.203125c6.6875-5.4375 12.390625-11.292969 17.246094-17.292969 22.871093-28.6875 27.4375-59.898438 27.875-65.964844" fill="#308cd4" />
			</g>
			<g clip-path="url(#i)">
				<path d="m107.269531 38.691406-53.632812-38.691406h-0.003906l-53.632813 38.691406c10.453125 8.8125 18.914063 18.101563 25.757813 27.273438 22.445312 30.113281 27.402343 51.839844 27.875 58.496094v-0.011719c0 0.003906 0.003906 0.007812 0.003906 0.011719 0.46875-6.65625 5.425781-28.382813 27.875-58.496094h-0.003906c6.84375-9.171875 15.308593-18.460938 25.761718-27.273438" fill="#4cbdee" />
			</g>
			<g clip-path="url(#h)">
				<g clip-path="url(#g)">
					<g clip-path="url(#f)">
						<path d="m78.964844 109.835938-36.609375-63.40625-59.171875 34.160156 36.609375 63.40625z" fill="url(#b)" />
					</g>
				</g>
			</g>
			<g clip-path="url(#e)">
				<g clip-path="url(#d)">
					<g clip-path="url(#c)">
						<path d="m24.195313 18.113281 44.164062 71.789063 68.351563-42.046875-44.167969-71.792969z" fill="url(#a)" />
					</g>
				</g>
			</g>
			<g fill="#308cd4">
				<path d="m155.421875 105.789063h-5.914062v-16.25l-5.65625 16.25h-4.492188l-5.839844-16.25v16.25h-5.917968v-26.210938h7.003906l7 18.234375 6.925781-18.234375h6.890625v26.210938" />
				<path d="m161.339844 79.578125h6.066406v17.222656c0 2.398438 1.644531 4.421875 4.117188 4.421875 2.472656 0 4.15625-2.023437 4.15625-4.421875v-17.222656h6.066406v17.261719c0 5.390625-3.929688 9.625-10.222656 9.625-6.253907 0-10.183594-4.234375-10.183594-9.625v-17.261719" />
				<path d="m192.632813 97.101563c0 2.84375 1.757812 4.53125 4.15625 4.53125 2.019531 0 3.480468-1.238282 3.480468-3.070313 0-2.058594-1.757812-2.808594-4.082031-3.671875-4.640625-1.722656-8.875-3.292969-8.875-8.386719 0-5.203125 4.421875-7.601562 9.25-7.601562 6.140625 0 9.285156 3.894531 9.285156 8.351562h-6.066406c0-2.320312-1.160156-3.78125-3.292969-3.78125-1.683593 0-3.144531 0.933594-3.144531 2.65625 0 1.6875 1.382813 2.660157 3.742188 3.484375 4.644531 1.609375 9.210937 3.257813 9.210937 8.613282 0 5.089843-4.078125 8.238281-9.695312 8.238281-5.84375 0-10.035157-3.371094-10.035157-9.363281h6.066407" />
				<path d="m211.640625 79.578125h6.140625v26.210938h-6.140625v-26.210938" />
				<path d="m249.914063 96.390625c-1.011719 5.542969-5.769532 10.074219-13.105469 10.074219-8.761719 0-14.042969-6.441406-14.042969-13.78125 0-7.191406 5.015625-13.78125 13.964844-13.78125 7.679687 0 12.433594 4.832031 13.144531 10.859375h-6.328125c-0.5625-3.070313-2.882812-5.390625-6.738281-5.390625-5.019531 0-7.863281 3.96875-7.863281 8.3125 0 4.605469 3.183593 8.3125 7.9375 8.3125 3.519531 0 5.839843-2.023438 6.589843-4.605469h6.441407" />
			</g>
		</g>
	</g>
</svg>
