<svg xmlns="http://www.w3.org/2000/svg" xmlns:xlink="http://www.w3.org/1999/xlink" viewBox="0 0 142.84 100.63"><defs><style>.cls-1{fill:url(#linear-gradient);}.cls-2{fill:url(#linear-gradient-2);}.cls-3{fill:url(#linear-gradient-4);}.cls-4{fill:url(#linear-gradient-5);}.cls-5{fill:url(#linear-gradient-6);}.cls-6{fill:url(#linear-gradient-7);}.cls-7{fill:url(#linear-gradient-8);}.cls-8{fill:url(#linear-gradient-9);}.cls-9{fill:url(#linear-gradient-10);}.cls-10{fill:url(#linear-gradient-11);}.cls-11{fill:url(#linear-gradient-12);}.cls-12{fill:url(#linear-gradient-13);}.cls-13{fill:url(#linear-gradient-14);}.cls-14{fill:url(#linear-gradient-15);}.cls-15{fill:url(#linear-gradient-16);}.cls-16{fill:url(#linear-gradient-17);}.cls-17{fill:url(#linear-gradient-18);}.cls-18{fill:url(#linear-gradient-19);}</style><linearGradient id="linear-gradient" x1="-80.03" y1="-818.78" x2="-79.03" y2="-818.78" gradientTransform="matrix(35.74, 1.6, 1.6, -35.74, 4248.98, -29126.75)" gradientUnits="userSpaceOnUse"><stop offset="0" stop-color="#846226"/><stop offset="0.2" stop-color="#ca912c"/><stop offset="0.28" stop-color="#efab2a"/><stop offset="0.46" stop-color="#b2802c"/><stop offset="0.53" stop-color="#e6a42c"/><stop offset="0.7" stop-color="#f6d990"/><stop offset="0.81" stop-color="#efab2a"/><stop offset="1" stop-color="#846226"/></linearGradient><linearGradient id="linear-gradient-2" x1="-80.23" y1="-816.6" x2="-79.23" y2="-816.6" gradientTransform="matrix(69.1, 0, 0, -69.1, 5624.1, -56420.02)" gradientUnits="userSpaceOnUse"><stop offset="0" stop-color="#f5cf6f"/><stop offset="0.28" stop-color="#efab2a"/><stop offset="0.75" stop-color="#f6d990"/><stop offset="0.83" stop-color="#f0b543"/><stop offset="0.9" stop-color="#efab2a"/><stop offset="1" stop-color="#3e2f18"/></linearGradient><linearGradient id="linear-gradient-4" x1="24.72" y1="11.13" x2="192.59" y2="119.66" gradientUnits="userSpaceOnUse"><stop offset="0" stop-color="#846226"/><stop offset="0.08" stop-color="#ca912c"/><stop offset="0.17" stop-color="#f5cf6f"/><stop offset="0.28" stop-color="#efab2a"/><stop offset="0.39" stop-color="#dd9e28"/><stop offset="0.46" stop-color="#b2802c"/><stop offset="0.53" stop-color="#e6a42c"/><stop offset="0.75" stop-color="#f6d990"/><stop offset="0.83" stop-color="#f0b543"/><stop offset="0.9" stop-color="#efab2a"/><stop offset="1" stop-color="#3e2f18"/></linearGradient><linearGradient id="linear-gradient-5" x1="179.1" y1="116.88" x2="-30.86" y2="89.16" gradientUnits="userSpaceOnUse"><stop offset="0" stop-color="#efab2a"/><stop offset="0.58" stop-color="#f6d990"/><stop offset="1" stop-color="#f0b543"/></linearGradient><linearGradient id="linear-gradient-6" x1="179.23" y1="115.86" x2="-30.72" y2="88.15" xlink:href="#linear-gradient-5"/><linearGradient id="linear-gradient-7" x1="179.44" y1="114.28" x2="-30.51" y2="86.56" xlink:href="#linear-gradient-5"/><linearGradient id="linear-gradient-8" x1="179.64" y1="112.75" x2="-30.31" y2="85.03" xlink:href="#linear-gradient-5"/><linearGradient id="linear-gradient-9" x1="179.83" y1="111.32" x2="-30.12" y2="83.61" xlink:href="#linear-gradient-5"/><linearGradient id="linear-gradient-10" x1="180.1" y1="109.32" x2="-29.86" y2="81.6" xlink:href="#linear-gradient-5"/><linearGradient id="linear-gradient-11" x1="180.4" y1="107.01" x2="-29.55" y2="79.29" xlink:href="#linear-gradient-5"/><linearGradient id="linear-gradient-12" x1="180.65" y1="105.15" x2="-29.31" y2="77.43" xlink:href="#linear-gradient-5"/><linearGradient id="linear-gradient-13" x1="180.9" y1="103.26" x2="-29.06" y2="75.55" xlink:href="#linear-gradient-5"/><linearGradient id="linear-gradient-14" x1="181.1" y1="101.73" x2="-28.86" y2="74.01" xlink:href="#linear-gradient-5"/><linearGradient id="linear-gradient-15" x1="181.24" y1="100.65" x2="-28.71" y2="72.93" xlink:href="#linear-gradient-5"/><linearGradient id="linear-gradient-16" x1="76.2" y1="45.77" x2="103.21" y2="45.77" xlink:href="#linear-gradient-4"/><linearGradient id="linear-gradient-17" x1="-79.78" y1="-814.95" x2="-78.78" y2="-814.95" gradientTransform="matrix(163.47, 105.68, 105.68, -163.47, 99191.45, -124780.6)" xlink:href="#linear-gradient-4"/><linearGradient id="linear-gradient-18" x1="36.17" y1="37.19" x2="80.67" y2="37.19" xlink:href="#linear-gradient-4"/><linearGradient id="linear-gradient-19" x1="-79.78" y1="-814.94" x2="-78.78" y2="-814.94" gradientTransform="matrix(166.19, 107.44, 107.44, -166.19, 100839.19, -126853.15)" xlink:href="#linear-gradient-4"/></defs><g id="Layer_2" data-name="Layer 2"><g id="assets"><rect class="cls-1" x="84.5" y="0.81" width="30.41" height="11.94" rx="2.33"/><rect class="cls-2" x="84.5" width="30.41" height="11.94" rx="2.33"/><rect class="cls-2" x="84.5" width="30.41" height="11.94" rx="2.33"/><path d="M89,3h3c1.65,0,2.14,1,2,2a2.4,2.4,0,0,1-2.59,2H89.8l-.33,2.28H88Zm1,3H91.1c.66,0,1.29-.14,1.41-1s-.47-1-1.13-1H90.25Z"/><polygon points="94.18 9.29 95.11 2.94 96.53 2.94 95.77 8.11 99.16 8.11 98.99 9.29 94.18 9.29"/><path d="M105.41,6.93a2.87,2.87,0,0,1-3.19,2.56c-1.79,0-2.7-.82-2.44-2.56l.57-4h1.45l-.57,4c-.1.69,0,1.38,1.15,1.38A1.37,1.37,0,0,0,104,6.93l.57-4H106Z"/><path d="M107.59,7.44c0,.84.78,1,1.32,1s1.3-.14,1.4-.79c.2-1.36-3.85-.5-3.51-2.87a2.59,2.59,0,0,1,2.75-1.92c1.37,0,2.57.58,2.35,2.05l-1.38-.2c-.08-.74-.74-.76-1.19-.76s-1,.18-1.1.72.23.58,1.82,1c.48.12,1.91.42,1.69,1.85-.18,1.17-1.23,2.05-3,2.05-1.47,0-2.73-.7-2.48-2.27Z"/><path class="cls-3" d="M38.24,19.87a.25.25,0,0,1,0-.07C38.09,19.84,38.12,19.86,38.24,19.87Z"/><path class="cls-4" d="M6.18,95.68c0,1.56,0,2.85.09,3.53.05.47.15.83.65.9.24,0,.61.06.76.06s.14,0,.14.1-.08.13-.27.13c-.93,0-2-.05-2.08-.05s-1.15.05-1.65.05c-.19,0-.27,0-.27-.13s0-.1.13-.1a3,3,0,0,0,.51-.06c.34-.07.42-.43.49-.9.08-.68.08-2,.08-3.53V88.79c-.82,0-1.67,0-2.5,0-1,0-1.45.13-1.72.52a2.51,2.51,0,0,0-.29.51c0,.13-.1.16-.17.16S0,90,0,89.86s.34-1.56.37-1.69.1-.31.17-.31a3.3,3.3,0,0,0,.74.19c.49,0,1.14.09,1.34.09H9a6.72,6.72,0,0,0,1.2-.09c.25,0,.41-.08.47-.08s.09.1.09.2c0,.49-.05,1.61-.05,1.79s-.05.21-.12.21-.12,0-.14-.28c0-.06,0-.11,0-.17-.05-.49-.46-.87-2.08-.9-.71,0-1.42,0-2.13,0Z"/><path class="cls-5" d="M14.25,92.81c0-2.54,0-3,0-3.52s-.17-.81-.73-.93a3.45,3.45,0,0,0-.57,0c-.07,0-.14,0-.14-.09s.09-.13.27-.13c.76,0,1.83,0,1.91,0s1.47,0,2,0a5.37,5.37,0,0,1,3.1.71A2.84,2.84,0,0,1,21.21,91a5,5,0,0,1-2,3.76c1.38,1.71,2.53,3.16,3.51,4.17a3.48,3.48,0,0,0,2.06,1.17,4.12,4.12,0,0,0,.66,0c.08,0,.15,0,.15.1s-.1.13-.4.13H24a3.53,3.53,0,0,1-1.81-.31,8.47,8.47,0,0,1-2.28-2.39c-.71-.9-1.5-2-1.84-2.41a.27.27,0,0,0-.22-.1l-2.08,0c-.08,0-.12,0-.12.13v.39c0,1.56,0,2.85.09,3.53.05.47.15.83.66.9.23,0,.6.06.76.06s.13,0,.13.1-.08.13-.27.13c-.93,0-2-.05-2.08-.05s-1.08.05-1.58.05c-.19,0-.27,0-.27-.13s0-.1.13-.1a3,3,0,0,0,.51-.06c.34-.07.42-.43.49-.9.08-.68.08-2,.08-3.53Zm1.35,1.42a.22.22,0,0,0,.12.19,4.72,4.72,0,0,0,1.77.26,2.26,2.26,0,0,0,1.27-.31,2.92,2.92,0,0,0,1-2.5c0-2-1.11-3.26-2.92-3.26a5.13,5.13,0,0,0-1.13.1.18.18,0,0,0-.14.19Z"/><path class="cls-6" d="M27,92.81c0-2.54,0-3,0-3.52s-.2-.83-.57-.91a2.34,2.34,0,0,0-.53-.07c-.07,0-.13,0-.13-.09s.08-.13.27-.13c.56,0,1.62,0,1.7,0s1.15,0,1.66,0c.18,0,.27,0,.27.13s-.07.09-.14.09a3,3,0,0,0-.42,0c-.45.09-.59.36-.62.93s0,1,0,3.52v2.87c0,1.56,0,2.85.09,3.53.05.47.15.83.66.9.23,0,.59.06.69.06s.2,0,.2.1-.07.13-.25.13c-.93,0-2-.05-2.1-.05s-1.14.05-1.65.05c-.19,0-.27,0-.27-.13s0-.1.18-.1a1.85,1.85,0,0,0,.44,0c.34-.06.44-.44.51-.91.08-.68.08-2,.08-3.53Z"/><path class="cls-7" d="M38,95.68c0,1.56,0,2.85.09,3.53,0,.47.15.83.65.9.24,0,.61.06.76.06s.14,0,.14.1-.08.13-.27.13c-.93,0-2-.05-2.08-.05s-1.15.05-1.65.05c-.19,0-.27,0-.27-.13s0-.1.13-.1a3,3,0,0,0,.51-.06c.34-.07.42-.43.49-.9.08-.68.08-2,.08-3.53V88.79c-.83,0-1.67,0-2.5,0-1,0-1.45.13-1.72.52a2.51,2.51,0,0,0-.29.51c0,.13-.1.16-.17.16s-.08-.05-.08-.15.34-1.56.37-1.69.1-.31.17-.31a3.3,3.3,0,0,0,.74.19c.49,0,1.14.09,1.34.09h6.33a6.72,6.72,0,0,0,1.2-.09c.25,0,.41-.08.47-.08s.09.1.09.2c0,.49,0,1.61,0,1.79s-.05.21-.12.21-.12,0-.14-.28c0-.06,0-.11,0-.17,0-.49-.46-.87-2.08-.9-.71,0-1.42,0-2.13,0Z"/><path class="cls-8" d="M43.84,94.23a6.41,6.41,0,0,1,6.65-6.37c3.8,0,6.64,2.31,6.64,6.11a6.5,6.5,0,0,1-6.74,6.66A6.2,6.2,0,0,1,43.84,94.23Zm11.67.19c0-3.91-2.47-6-5.14-6s-4.93,1.79-4.93,5.36c0,3.8,2.36,6.24,5.41,6.24C52.36,100,55.51,99.16,55.51,94.42Z"/><path class="cls-9" d="M60.49,95.6c0-5.88,0-3.77,0-6.93,0-.63,0-.81.19-.81s.42.36.59.52,2.77,2.9,5.37,5.59c1.67,1.72,3.51,3.71,4,4.25l-.18-8.28c0-1.06-.14-1.41-.66-1.54a3.38,3.38,0,0,0-.73-.09c-.18,0-.23,0-.23-.11s.13-.11.33-.11c.76,0,1.58,0,1.76,0s.74,0,1.44,0c.18,0,.3,0,.3.11s-.07.1-.19.11l-.43.07c-.48.1-.6.34-.6,1.47l0,9.51c0,1.07,0,1.15-.15,1.15s-.34-.18-1.23-1c-.19-.16-2.62-2.56-4.41-4.41-2-2-3.87-4.09-4.41-4.68l.22,7.8c0,1.34.2,1.76.66,1.89a3.37,3.37,0,0,0,.84.1c.09,0,.14,0,.14.1s-.1.13-.31.13c-1,0-1.63-.05-1.79-.05s-.86.05-1.62.05c-.17,0-.27,0-.27-.13s.05-.1.14-.1a2.22,2.22,0,0,0,.69-.1c.42-.11.51-.58.51-2.06Z"/><path class="cls-10" d="M82.52,92.81c0-2.54,0-3,0-3.52s-.17-.81-.73-.93a3.45,3.45,0,0,0-.57,0c-.07,0-.14,0-.14-.09s.09-.13.27-.13c.76,0,1.78,0,1.91,0,.37,0,1.35,0,2.13,0,2.11,0,2.87.68,3.14.93a2.91,2.91,0,0,1,.84,2.13c0,2.12-1.75,3.68-4.15,3.68a2.06,2.06,0,0,1-.35,0c-.09,0-.19,0-.19-.11s.1-.15.46-.15A2.74,2.74,0,0,0,88,91.77a3.28,3.28,0,0,0-1-2.38,3,3,0,0,0-2.31-.81,2.32,2.32,0,0,0-.73.09c-.1,0-.13.15-.13.31v6.7c0,1.56,0,2.85.08,3.53.05.47.15.83.66.9.24,0,.61.06.76.06s.13,0,.13.1-.08.13-.27.13c-.92,0-2-.05-2.07-.05s-1.12.05-1.62.05c-.19,0-.27,0-.27-.13s0-.1.13-.1a3,3,0,0,0,.51-.06c.34-.07.42-.43.49-.9.08-.68.08-2,.08-3.53Z"/><path class="cls-11" d="M91.44,94.23a6.41,6.41,0,0,1,6.65-6.37c3.8,0,6.64,2.31,6.64,6.11A6.5,6.5,0,0,1,98,100.63,6.2,6.2,0,0,1,91.44,94.23Zm11.67.19c0-3.91-2.47-6-5.14-6S93,90.2,93,93.77c0,3.8,2.37,6.24,5.41,6.24C100,100,103.11,99.16,103.11,94.42Z"/><path class="cls-12" d="M109.91,93.85c.52-.49,2.82-2.82,3.85-3.84s1.08-1.17,1.08-1.37a.33.33,0,0,0-.22-.31c-.11,0-.15-.08-.15-.15s.1-.09.25-.09c.49,0,.44,0,1,0s1.52,0,1.79,0,.29,0,.29.11,0,.1-.19.11a3.3,3.3,0,0,0-.86.2,5.33,5.33,0,0,0-1.76,1.3c-1.48,1.39-3.41,3.23-3.85,3.7,1.06,1.12,4.14,4.14,4.93,4.85,1.39,1.26,2,1.62,2.79,1.76a1.94,1.94,0,0,0,.49,0c.13,0,.24,0,.24.12s-.07.11-.26.11H118.1a3.41,3.41,0,0,1-2.65-.78A64.73,64.73,0,0,1,109.91,94v1.68c0,1.56,0,2.85.09,3.53,0,.47.15.83.65.9l.68.06c.15,0,.2.07.2.12s-.06.11-.25.11c-.93,0-2-.05-2.08-.05s-1.08.05-1.59.05c-.18,0-.27,0-.27-.11s0-.12.19-.12a1.91,1.91,0,0,0,.44,0c.34-.06.44-.44.51-.91.08-.68.08-2,.08-3.53V92.81c0-2.54,0-3,0-3.52s-.21-.83-.58-.91a2.92,2.92,0,0,0-.61-.07c-.13,0-.18,0-.18-.09s.08-.13.27-.13c.56,0,1.69,0,1.77,0s1.15,0,1.66,0c.18,0,.27,0,.27.11s0,.1-.19.11l-.37,0c-.46.05-.59.37-.63.94s0,1,0,3.52Z"/><path class="cls-13" d="M121.61,92.81c0-2.54,0-3,0-3.52s-.17-.81-.73-.93c-.12,0-.33,0-.49,0s-.22,0-.22-.09.09-.13.27-.13c.39,0,.85,0,1.91,0,.12,0,3.48,0,3.87,0A3,3,0,0,0,127,88a.36.36,0,0,1,.18-.06s.07.06.07.14a6.73,6.73,0,0,0-.13.77c0,.24,0,.55-.07,1,0,.16-.07.27-.14.27s-.13-.08-.13-.21a1.6,1.6,0,0,0-.09-.54c-.12-.37-.47-.53-1.21-.6-.29,0-2.13,0-2.32,0s-.1,0-.1.16v4.5c0,.11,0,.16.1.16s2.3,0,2.69,0,.67-.08.84-.28.14-.16.21-.16.08,0,.08.13-.08.38-.14.91,0,.88-.06,1.11,0,.24-.12.24-.12-.13-.12-.26a1.41,1.41,0,0,0-.07-.45c-.06-.25-.27-.47-.88-.54-.45,0-2.12-.08-2.41-.08a.11.11,0,0,0-.12.11v1.44c0,.55,0,2.44,0,2.78,0,.67.14,1,.56,1.19a4.31,4.31,0,0,0,1.4.15,5.81,5.81,0,0,0,1.52-.15c.54-.16.73-.5.86-1.2,0-.18.07-.25.15-.25s.11.13.11.25-.14,1.23-.22,1.58-.26.42-.92.42c-1.25,0-1.8,0-2.46,0s-1.45-.05-2.11-.05c-.41,0-.81.07-1.25.05-.19,0-.27,0-.27-.13s.08-.08.18-.1a1.42,1.42,0,0,0,.39,0c.36-.08.58-.31.61-1.53,0-.63,0-1.46,0-2.91Z"/><path class="cls-14" d="M131.54,92.81c0-2.54,0-3,0-3.52s-.17-.81-.73-.93a3.45,3.45,0,0,0-.57,0c-.07,0-.14,0-.14-.09s.09-.13.27-.13c.76,0,1.83,0,1.91,0s1.47,0,2,0a5.32,5.32,0,0,1,3.09.71A2.82,2.82,0,0,1,138.5,91a5,5,0,0,1-2,3.76C137.84,96.49,139,97.94,140,99a3.48,3.48,0,0,0,2.06,1.17,4.12,4.12,0,0,0,.66,0c.08,0,.15,0,.15.1s-.1.13-.4.13h-1.2a3.53,3.53,0,0,1-1.81-.31,8.47,8.47,0,0,1-2.28-2.39c-.71-.9-1.5-2-1.84-2.41a.27.27,0,0,0-.22-.1l-2.08,0c-.08,0-.12,0-.12.13v.39c0,1.56,0,2.85.09,3.53.05.47.15.83.66.9.23,0,.6.06.76.06s.13,0,.13.1-.08.13-.27.13c-.93,0-2-.05-2.08-.05s-1.08.05-1.58.05c-.19,0-.27,0-.27-.13s0-.1.13-.1a3,3,0,0,0,.51-.06c.34-.07.42-.43.49-.9.08-.68.08-2,.08-3.53Zm1.35,1.42a.22.22,0,0,0,.12.19,4.72,4.72,0,0,0,1.77.26,2.26,2.26,0,0,0,1.27-.31,2.92,2.92,0,0,0,1-2.5c0-2-1.11-3.26-2.92-3.26a5.13,5.13,0,0,0-1.13.1.18.18,0,0,0-.14.19Z"/><path class="cls-15" d="M103.21,18.13s-3.79,2.22-4,13.47.32,10.54,0,18.3-2.07,27.18-23,23.29c0,0,6.59-1.71,8.94-11.53s2.51-14.19,2.36-20.24S85.62,15.2,103.21,18.13Z"/><path class="cls-16" d="M99.61,18.48a13.11,13.11,0,0,0-1.7.14,9.84,9.84,0,0,0-4.75,2.14c-2.1,1.73-3.81,5.11-4.67,10a23.63,23.63,0,0,0-.24,3.81c0,1.2,0,1.07,0,2.52C88.48,44,88.94,69.33,79.4,73c.4,0,.85.07,1.34.08h.53a15.3,15.3,0,0,0,13.82-7.87C95.23,65,98,60,98.45,50.93c0-.26,0-.52,0-.78s0-.33,0-.53v-.13c0-.29,0-.6,0-.92,0-.1,0-.21,0-.33,0-1.23.07-2.56.06-4.07s0-2.91,0-4.15c0-.15,0-.27,0-.38,0-.89-1.14-17.75,2.92-21.1-.35,0-.82-.07-1.33-.07C100,18.47,99.83,18.49,99.61,18.48Z"/><path class="cls-17" d="M80.56,46.81a35.31,35.31,0,0,1-1.14,12.7,15.26,15.26,0,0,1-5.73,9c-2.85,2.25-5.78,4.56-14,5-5.88.35-13-3.53-16-9.51,0,0-2-2.75-2.9-8.78a94.88,94.88,0,0,1-.66-16.66c.09-5.21.77-17.22-3.95-20.33a11.63,11.63,0,0,1,9,.68c5.1,2.35,5.95,8,6.12,8.66s2.06,10.21,2.89,14.67S55.35,55,61.82,53.73,64,41.47,62.81,32s-.56-15.23.63-20.5,6-12.66,15.5-10.16c0,0-4.67,4-3.94,14.15s1.37,12.5,2.43,16S80.27,40.91,80.56,46.81Z"/><path class="cls-18" d="M79.61,52.65a51.76,51.76,0,0,0-2.83-20.42c0-.11-.55-1.95-1.15-4.89-.22-1.08-.46-2.3-.66-3.63a59.53,59.53,0,0,1-.81-10.47c.12-4.9,1.16-9.6,3.3-11.56a14.13,14.13,0,0,0-2.31-.2,10,10,0,0,0-5.76,1.77,13.08,13.08,0,0,0-3.87,4.47,17.89,17.89,0,0,0-1.79,5.68,50.14,50.14,0,0,0-.79,10.19,89,89,0,0,0,.79,10.21C63.91,34.61,67.46,50,65.3,52a4.89,4.89,0,0,1-4.6,2.57,8.07,8.07,0,0,1-1.78-.21A5.07,5.07,0,0,1,57,53.23a4.89,4.89,0,0,1-1.29-1.77c-.09-.14-1.47-2.22-2.56-10.24-.13-.76-2.5-15.17-4.17-17.4a10.31,10.31,0,0,0-9.28-5.41c-.6,0-1.23.05-1.47,0,.55,1.12,3.46,5.88,2.5,21.44,0,.9-.71,18.15,3.55,23.83a17.22,17.22,0,0,0,15.37,9.1A22.85,22.85,0,0,0,65.54,72l.64-.18a15.92,15.92,0,0,0,2.43-1c3.37-1.6,9.08-5.39,10.23-13A30.6,30.6,0,0,0,79.61,52.65Z"/></g></g></svg>