<?xml version="1.0" encoding="UTF-8" standalone="no"?>
<!-- Created with Inkscape (http://www.inkscape.org/) -->

<svg
   xmlns:dc="http://purl.org/dc/elements/1.1/"
   xmlns:cc="http://creativecommons.org/ns#"
   xmlns:rdf="http://www.w3.org/1999/02/22-rdf-syntax-ns#"
   xmlns:svg="http://www.w3.org/2000/svg"
   xmlns="http://www.w3.org/2000/svg"
   xmlns:sodipodi="http://sodipodi.sourceforge.net/DTD/sodipodi-0.dtd"
   xmlns:inkscape="http://www.inkscape.org/namespaces/inkscape"
   width="971.72229"
   height="284.92285"
   viewBox="0 0 971.72227 284.92286"
   version="1.1"
   id="svg87"
   inkscape:version="0.92.4 (5da689c313, 2019-01-14)"
   sodipodi:docname="ACC_Network_ESPN_logo.svg">
  <defs
     id="defs81">
    <style
       id="style812"
       type="text/css">.cls-1{fill:#a5a8a9;}.cls-2{fill:#013ca6;}</style>
  </defs>
  <sodipodi:namedview
     id="base"
     pagecolor="#ffffff"
     bordercolor="#666666"
     borderopacity="1.0"
     inkscape:pageopacity="0.0"
     inkscape:pageshadow="2"
     inkscape:zoom="0.35"
     inkscape:cx="252"
     inkscape:cy="73.889991"
     inkscape:document-units="px"
     inkscape:current-layer="layer1"
     showgrid="false"
     inkscape:window-width="1600"
     inkscape:window-height="837"
     inkscape:window-x="-8"
     inkscape:window-y="-8"
     inkscape:window-maximized="1"
     units="px"
     fit-margin-top="0"
     fit-margin-left="0"
     fit-margin-right="0"
     fit-margin-bottom="0" />
  <metadata
     id="metadata84">
    <rdf:RDF>
      <cc:Work
         rdf:about="">
        <dc:format>image/svg+xml</dc:format>
        <dc:type
           rdf:resource="http://purl.org/dc/dcmitype/StillImage" />
        <dc:title></dc:title>
      </cc:Work>
    </rdf:RDF>
  </metadata>
  <g
     inkscape:label="Layer 1"
     inkscape:groupmode="layer"
     id="layer1"
     transform="translate(341.28571,-391.48679)">
    <g
       data-name="Layer 2"
       id="Layer_2"
       transform="matrix(1.9280204,0,0,1.9280204,-341.28571,391.48679)">
      <g
         data-name="Layer 1"
         id="Layer_1-2">
        <path
           id="path818"
           d="m 438.37,119.68 c 0.54,-4.37 -1.32,-8.32 -8.06,-8.32 h -53.65 c -5.5,0 -9.13,2.9 -9.65,7.23 -0.18,1.59 -0.37,3 -0.37,3 h 71.49 c 0,0 0.13,-1.06 0.24,-1.9"
           class="cls-1"
           inkscape:connector-curvature="0"
           style="fill:#a5a8a9" />
        <path
           id="path820"
           d="m 403.9,125.47 -2.73,22.3 h 12.11 L 415,133.92 h 15.22 c 4.32,0 6.64,-2.32 7.07,-5.44 0.22,-1.57 0.37,-3 0.37,-3 z"
           class="cls-1"
           inkscape:connector-curvature="0"
           style="fill:#a5a8a9" />
        <polygon
           id="polygon822"
           points="333.03,111.36 331.78,121.58 364.2,121.58 365.45,111.36 "
           class="cls-1"
           style="fill:#a5a8a9" />
        <polygon
           id="polygon824"
           points="362.17,138.1 341.87,138.1 342.39,133.92 362.68,133.92 363.71,125.47 331.3,125.47 328.56,147.77 360.98,147.77 "
           class="cls-1"
           style="fill:#a5a8a9" />
        <path
           id="path826"
           d="m 468.29,111.36 h -26.44 l -1.25,10.22 h 35.14 c 0,0 0.05,-0.37 0.2,-1.58 0.86,-6.7 -3.47,-8.64 -7.65,-8.64"
           class="cls-1"
           inkscape:connector-curvature="0"
           style="fill:#a5a8a9" />
        <polygon
           id="polygon828"
           points="449.5,147.77 452.24,125.47 440.11,125.47 437.38,147.78 "
           class="cls-1"
           style="fill:#a5a8a9" />
        <polygon
           id="polygon830"
           points="472.53,147.77 475.27,125.47 463.15,125.47 460.41,147.78 "
           class="cls-1"
           style="fill:#a5a8a9" />
        <path
           id="path832"
           d="m 392.8,125.48 h -26.63 c -0.89,5.82 2,8.45 6.15,8.45 h 16.4 l -0.51,4.18 h -23.59 l -1.19,9.67 h 26.73 c 0.86,-0.06 6.86,-0.22 8.91,-5.13 0.66,-1.6 1.25,-7.32 1.41,-8.52 0.95,-7 -3.88,-8.64 -7.68,-8.64"
           class="cls-1"
           inkscape:connector-curvature="0"
           style="fill:#a5a8a9" />
        <polygon
           id="polygon834"
           points="406.36,84.01 425.11,27.27 453.74,84.01 476.29,84.01 504,0 481.98,0 463.22,56.53 434.33,0.18 405.68,19.08 384.33,84.01 "
           class="cls-2"
           style="fill:#013ca6" />
        <path
           id="path836"
           d="m 221.27,54.15 9.2,-28 a 11.46,11.46 0 0 1 10.75,-6.61 h 37.61 L 308.4,0 h -64.9 c -4.56,0 -27.61,0.55 -33.43,18.22 L 196.63,59.08 C 192.68,74.42 203,84 217.14,84 h 59.78 l 6.42,-19.51 h -50.45 c -7.91,0 -13.56,-3.13 -11.62,-10.36"
           class="cls-2"
           inkscape:connector-curvature="0"
           style="fill:#013ca6" />
        <path
           id="path838"
           d="M 165,0 56.58,84 H 88.67 L 106.41,70.41 159.85,57.2 152,84 h 24.82 L 200.28,0 Z m -3.76,52.56 H 129.7 l 40.67,-31.37 z"
           class="cls-2"
           inkscape:connector-curvature="0"
           style="fill:#013ca6" />
        <path
           id="path840"
           d="m 317.57,54.15 9.2,-28 a 11.46,11.46 0 0 1 10.76,-6.61 h 37.59 L 404.71,0 H 339.8 c -4.56,0 -27.61,0.55 -33.42,18.22 L 292.94,59.08 C 289,74.42 299.32,84 313.44,84 h 59.78 l 6.43,-19.51 h -50.46 c -7.91,0 -13.55,-3.13 -11.62,-10.36"
           class="cls-2"
           inkscape:connector-curvature="0"
           style="fill:#013ca6" />
        <polygon
           id="polygon842"
           points="370.26,97.18 39.57,97.18 0,127.85 "
           class="cls-1"
           style="fill:#a5a8a9" />
      </g>
    </g>
  </g>
</svg>
