<?xml version="1.0" encoding="UTF-8" standalone="no"?>
<!-- Created with Inkscape (http://www.inkscape.org/) -->

<svg
   width="264.58334mm"
   height="45.79327mm"
   viewBox="0 0 264.58334 45.79327"
   version="1.1"
   id="svg1"
   inkscape:version="1.3 (0e150ed6c4, 2023-07-21)"
   sodipodi:docname="BeIN Sports 2017.svg"
   xmlns:inkscape="http://www.inkscape.org/namespaces/inkscape"
   xmlns:sodipodi="http://sodipodi.sourceforge.net/DTD/sodipodi-0.dtd"
   xmlns="http://www.w3.org/2000/svg"
   xmlns:svg="http://www.w3.org/2000/svg">
  <sodipodi:namedview
     id="namedview1"
     pagecolor="#ffffff"
     bordercolor="#999999"
     borderopacity="1"
     inkscape:showpageshadow="2"
     inkscape:pageopacity="0"
     inkscape:pagecheckerboard="0"
     inkscape:deskcolor="#d1d1d1"
     inkscape:document-units="mm"
     inkscape:zoom="0.4894542"
     inkscape:cx="430.07089"
     inkscape:cy="99.089967"
     inkscape:window-width="1920"
     inkscape:window-height="991"
     inkscape:window-x="-9"
     inkscape:window-y="-9"
     inkscape:window-maximized="1"
     inkscape:current-layer="layer1" />
  <defs
     id="defs1">
    <clipPath
       clipPathUnits="userSpaceOnUse"
       id="clipPath25">
      <path
         d="M 16,65 H 120 V 83 H 16 Z"
         id="path25" />
    </clipPath>
    <clipPath
       clipPathUnits="userSpaceOnUse"
       id="clipPath26">
      <path
         d="M 16,65 H 120 V 83 H 16 Z"
         id="path26" />
    </clipPath>
  </defs>
  <g
     inkscape:label="Layer 1"
     inkscape:groupmode="layer"
     id="layer1"
     transform="translate(27.428473,-125.53457)">
    <path
       d="M 120,83 V 69.55128 c 0,-1.12297 -0.4723,-2.25263 -1.2966,-3.09883 C 117.8,65.52477 116.5447,65 115.169,65 H 20.82985 c -2.98356,0 -4.82987,2.40829 -4.82987,4.65194 V 83 Z"
       style="fill:#ffffff;fill-opacity:1;fill-rule:nonzero;stroke:none"
       transform="matrix(2.5440705,0,0,-2.5440705,-68.133601,336.69242)"
       clip-path="none"
       id="path28" />
    <path
       d="m 114.778,72.10874 c 0,1.54363 -1.3367,2.54147 -3.406,2.54147 -0.8317,0 -1.4319,0.17533 -1.7838,0.52167 -0.2969,0.29451 -0.2981,0.60411 -0.2981,0.62629 -10e-4,0.0067 -0.0465,0.7031 0.4459,1.22054 0.3577,0.37773 0.9109,0.56849 1.644,0.56849 0.697,0 1.2279,-0.18961 1.5798,-0.5626 0.5354,-0.56877 0.4723,-1.3841 0.4712,-1.4009 0,-0.31913 0.2683,-0.57889 0.595,-0.57889 0.3267,0 0.5915,0.25976 0.5915,0.57889 0,3.08756 -3.1114,3.12317 -3.2455,3.12317 h -0.0137 c -3.1653,0 -3.2576,-2.62928 -3.2576,-2.9291 0,-0.87391 0.6907,-2.35329 3.2793,-2.35329 0.8719,0 1.4984,-0.1848 1.8607,-0.55025 0.3055,-0.30657 0.3279,-0.65012 0.3255,-0.80492 0.006,-0.15903 -0.009,-0.71071 -0.4339,-1.14006 -0.3697,-0.37356 -0.9532,-0.56318 -1.7334,-0.56318 h -0.0131 c -0.7017,0.0022 -1.2416,0.19407 -1.6039,0.571 -0.4105,0.42662 -0.4918,0.99482 -0.4763,1.26937 0,0.31914 -0.27,0.57862 -0.6019,0.57862 -0.3313,0 -0.6019,-0.25948 -0.6019,-0.57611 -0.0201,-0.78947 0.2723,-1.5279 0.8214,-2.08016 0.6076,-0.60769 1.4744,-0.94256 2.4453,-0.94256 2.517,0 3.4095,1.55262 3.4095,2.88251 m -7.3566,5.85734 c 0,0.32954 -0.2717,0.59763 -0.6076,0.59763 h -5.4478 c -0.3336,0 -0.6076,-0.26809 -0.6076,-0.59763 0,-0.32983 0.274,-0.59792 0.6076,-0.59792 h 2.1123 l 0.002,-7.36393 c 0,-0.3279 0.2734,-0.59462 0.6099,-0.59462 0.3377,0 0.6116,0.26672 0.6116,0.59462 v 7.36393 h 2.1123 c 0.3359,0 0.6076,0.26809 0.6076,0.59792 m -9.41955,-5.42319 c 1.249,0.48155 2.07675,1.66339 2.07675,2.98604 0,1.77468 -1.47144,3.21851 -3.28106,3.21851 -1.92944,0 -3.27764,-1.32458 -3.27764,-3.22102 l 0.0063,-5.52586 c 0,-0.32818 0.27338,-0.59484 0.61044,-0.59484 0.33707,0 0.60987,0.26666 0.60987,0.59484 v 2.31431 h 1.94096 l 1.61754,-2.58246 c 0.08145,-0.13936 0.21329,-0.24002 0.37265,-0.28181 0.16105,-0.04322 0.32614,-0.02248 0.46943,0.05772 0.1433,0.08107 0.24645,0.21202 0.28945,0.36969 0.04242,0.15508 0.02179,0.3172 -0.06185,0.45655 l -1.37285,2.20833 z m -5.41978,1.44269 c 0,2.62533 -2.18133,4.76186 -4.86402,4.76186 -2.68143,0 -4.86371,-2.13653 -4.86371,-4.76186 0,-2.62424 2.18228,-4.75913 4.86371,-4.75913 2.68269,0 4.86402,2.13489 4.86402,4.75913 M 81.916,75.54739 c 0,1.7644 -1.46508,3.20005 -3.26502,3.20005 -1.9191,0 -3.25871,-1.31675 -3.25871,-3.20114 l 0.0069,-5.54466 c 0,-0.32811 0.27228,-0.59512 0.6059,-0.59512 0.33589,0 0.60876,0.26701 0.60876,0.59512 v 2.34941 h 2.03715 c 1.79994,0 3.26502,1.43372 3.26502,3.19634 m -7.76987,-3.43837 c 0,1.54364 -1.33674,2.54119 -3.40552,2.54119 -0.83283,0 -1.43243,0.1759 -1.7838,0.52167 -0.2981,0.29502 -0.29921,0.60468 -0.29921,0.62629 0,0.007 -0.04585,0.7031 0.44595,1.22054 0.35996,0.37773 0.91194,0.56878 1.64396,0.56878 0.6982,0 1.22956,-0.18933 1.58093,-0.56289 0.53422,-0.56819 0.47229,-1.3841 0.4706,-1.40061 0,-0.31942 0.26766,-0.57861 0.59555,-0.57861 0.32672,0 0.5927,0.25919 0.5927,0.57861 0,3.08784 -3.11424,3.12345 -3.24668,3.12345 h -0.01548 c -3.16464,0 -3.25585,-2.62985 -3.25585,-2.92939 0,-0.87419 0.69072,-2.35299 3.27823,-2.35299 0.87355,0 1.49897,-0.18538 1.86179,-0.55026 0.30493,-0.30714 0.329,-0.65069 0.32445,-0.80549 0.0057,-0.15874 -0.0086,-0.71071 -0.43333,-1.14006 -0.37031,-0.37327 -0.95331,-0.56289 -1.7334,-0.56289 H 70.7544 c -0.70164,0.0019 -1.24158,0.19436 -1.60389,0.57071 -0.41037,0.42662 -0.49291,0.9954 -0.47743,1.26966 0,0.31914 -0.26883,0.57883 -0.60135,0.57883 -0.33076,0 -0.60245,-0.25969 -0.60245,-0.57632 -0.01886,-0.78919 0.27228,-1.5279 0.82257,-2.07988 0.60648,-0.60797 1.47373,-0.94291 2.44421,-0.94291 2.51641,0 3.41007,1.55289 3.41007,2.88257 M 62.40498,82.3266 H 16.68673 V 70.13799 c 0,-1.10446 0.46598,-2.21566 1.2771,-3.04886 0.88962,-0.91319 2.12549,-1.41606 3.48051,-1.41606 h 36.19034 c 2.94637,0 4.7703,2.29385 4.7703,4.47863 z M 120,82.99998 V 69.55126 c 0,-1.12298 -0.4724,-2.25263 -1.2966,-3.09876 -0.9034,-0.92776 -2.1587,-1.45252 -3.5344,-1.45252 H 20.82986 c -2.98357,0 -4.82989,2.40828 -4.82989,4.65194 V 82.99998 Z M 96.78602,77.58634 c -1.22207,0 -2.04405,-0.82566 -2.04405,-2.05461 l 0.004,-2.0381 h 2.04002 c 1.15449,0 2.09343,0.91598 2.09343,2.0409 0,1.13138 -0.93894,2.05181 -2.09343,2.05181 m -18.1459,0.0056 c -1.21466,0 -2.0315,-0.82035 -2.0315,-2.04169 l 0.0046,-2.02517 h 2.02688 c 1.14811,0 2.08132,0.90945 2.08132,2.02768 0,1.12435 -0.93321,2.03918 -2.08132,2.03918 m 9.07793,0 c -2.03144,0 -3.68456,-1.61794 -3.68456,-3.60636 0,-1.98791 1.65312,-3.60442 3.68456,-3.60442 2.03152,0 3.68238,1.61651 3.68238,3.60442 0,1.98842 -1.65086,3.60636 -3.68238,3.60636 M 21.9063,73.94545 c 0,-2.08183 1.71968,-3.77494 3.83424,-3.77494 2.11515,0 3.8365,1.69311 3.8365,3.77494 0,2.08067 -1.72135,3.77408 -3.8365,3.77408 -2.11456,0 -3.83424,-1.69341 -3.83424,-3.77408 m -0.92058,-0.16801 v 7.51679 c 0,0.24489 0.20294,0.4437 0.45284,0.4437 0.2499,0 0.45402,-0.19881 0.45402,-0.4437 v -4.58855 c 0.47288,0.61337 1.71506,1.88611 3.86117,1.88611 2.29336,0 4.76912,-1.77612 4.76912,-4.64606 0,-2.27424 -1.91571,-4.70945 -4.76803,-4.70945 -2.9457,0 -4.76912,2.35753 -4.76912,4.54116 m 21.40495,-4.54116 h 0.0057 c 0.50501,0.0022 0.88676,0.39826 0.91427,0.75302 v 0.0039 7.82529 c -0.02751,0.35512 -0.40926,0.75029 -0.91427,0.7528 h -0.0057 c -0.51015,-0.0025 -0.88568,-0.39015 -0.91487,-0.76062 v -7.82164 c 0.02919,-0.36264 0.40472,-0.75056 0.91487,-0.75279 m 2.67569,0 h 0.0034 c 0.48786,0.002 0.8988,0.37586 0.8988,0.81784 v 5.63212 c -0.0034,0.0415 -0.06184,1.01441 1.1281,1.11931 0.68725,0.03841 1.03635,-0.66692 1.04443,-0.68293 0.13757,-0.21956 3.34756,-5.18116 3.68801,-5.68761 0.26942,-0.40278 1.12008,-1.19873 2.37598,-1.19873 0.38116,0 0.79732,0.07324 1.24731,0.25187 1.85203,0.73757 1.76318,2.56896 1.76267,2.58189 v 5.77154 c -0.03097,0.36006 -0.40127,0.74518 -0.90687,0.74712 h -0.0023 c -0.49753,-0.0019 -0.877,-0.39632 -0.90628,-0.75889 v -5.76565 c 0,-0.15818 -0.10719,-0.66047 -0.58748,-0.88405 -1.00086,-0.46639 -1.51673,0.34614 -1.53852,0.38175 L 49.59983,77.2251 C 49.1168,78.0452 47.74791,79.02846 45.95149,78.37439 44.1894,77.66654 44.1459,75.85984 44.1459,75.84024 v -5.88541 c 0.02979,-0.3447 0.38916,-0.71653 0.92051,-0.71855 m -13.98639,4.67779 c 0,2.57823 2.14501,4.67628 4.77948,4.67628 2.63623,0 4.78059,-2.09805 4.78059,-4.67628 0,-0.22437 -0.14558,-0.45016 -0.47172,-0.45016 h -4.97493 c -0.25908,0 -0.47001,0.2067 -0.47001,0.46051 0,0.25437 0.21093,0.46107 0.46773,0.46107 l 4.48196,-5.7e-4 c -0.23905,1.88409 -1.85549,3.28945 -3.81362,3.28945 -2.11742,0 -3.84222,-1.68723 -3.84222,-3.7603 0,-2.07371 1.7248,-3.76065 3.84222,-3.76065 1.35047,0 2.57716,0.67389 3.28336,1.80218 0.06992,0.10576 0.17654,0.17504 0.2998,0.19887 0.12327,0.02384 0.24763,-0.0011 0.35019,-0.06899 0.2133,-0.13972 0.27405,-0.42267 0.13471,-0.63046 -0.87986,-1.38941 -2.40055,-2.21874 -4.06806,-2.21874 -2.63447,0 -4.77948,2.09841 -4.77948,4.67779"
       style="fill:#5c2d91;fill-opacity:1;fill-rule:nonzero;stroke:none"
       transform="matrix(2.5440705,0,0,-2.5440705,-68.133601,336.69242)"
       clip-path="none"
       id="path29" />
  </g>
</svg>
