<?xml version="1.0" encoding="UTF-8" standalone="no"?>
<svg
   width="1000"
   height="349.69858"
   viewBox="0 0 1000 349.69858"
   version="1.1"
   id="svg2"
   xmlns="http://www.w3.org/2000/svg"
   xmlns:svg="http://www.w3.org/2000/svg">
  <defs
     id="defs2">
    <filter
       id="Ellipse_34"
       x="0"
       y="0"
       width="261"
       height="261"
       filterUnits="userSpaceOnUse">
      <feOffset
         dy="2"
         input="SourceAlpha"
         id="feOffset1" />
      <feGaussianBlur
         stdDeviation="7.5"
         result="blur"
         id="feGaussianBlur1" />
      <feFlood
         flood-opacity="0.102"
         id="feFlood1" />
      <feComposite
         operator="in"
         in2="blur"
         id="feComposite1" />
      <feComposite
         in="SourceGraphic"
         id="feComposite2" />
    </filter>
  </defs>
  <path
     style="mix-blend-mode:normal;fill:#0078ff;fill-opacity:1;stroke-width:6.06062;filter:url(#filter24)"
     d="m 61.780264,109.5643 c 19.062418,-8.81818 39.149086,-14.163631 58.836966,-16.557573 2.16242,-0.284863 3.01576,1.193942 2.78848,2.903033 -2.50363,15.13333 -4.21091,30.49697 -4.83697,46.03636 -0.1703,1.76364 -1.08121,2.95758 -3.07272,3.29697 -10.98182,2.16364 -21.623027,5.52121 -33.401218,10.86667 10.583641,18.38182 23.386668,35.22424 37.498188,49.33333 1.59333,1.70909 2.5606,3.47273 3.01575,6.32121 3.69879,23.61212 10.07212,47.45455 18.60728,70.04243 0.51212,1.25454 0.51212,2.16363 -0.22786,2.84848 -0.79637,0.7394 -2.04849,0.7394 -3.24303,0 C 52.391774,232.75824 0.95177302,139.55218 0.041473,41.794608 c 0,-2.333332 0.79636,-4.096971 2.7884799,-5.236365 C 48.123894,11.182486 99.108141,-0.9932715 150.32026,0.08551551 c 2.27636,0.06061002 3.07273,2.04848499 2.21939,3.87272779 -7.05576,14.6242427 -12.97394,29.5878787 -17.58303,44.4969697 -0.51212,1.763637 -1.59333,2.618181 -3.52788,2.727273 -27.36969,1.424244 -53.999996,7.569699 -78.411507,17.696969 1.764238,13.884847 4.779999,27.48485 8.763031,40.630305"
     id="path23" />
  <path
     style="mix-blend-mode:normal;fill:#0078ff;fill-opacity:1;stroke-width:6.06062;filter:url(#filter24)"
     d="m 156.2948,51.358253 c -1.70666,-0.175748 -2.84485,-1.709095 -2.33272,-3.418186 5.34848,-15.587877 11.55091,-30.32727 18.5503,-43.9818161 0.79636,-1.5939399 2.21879,-2.2787878 4.09697,-2.0484848 38.52242,4.3212043 74.99697,16.4969629 107.54727,34.6484769 1.98788,1.084849 2.84243,2.848486 2.78788,5.236365 -0.68485,92.521212 -47.00303,181.121212 -125.01636,234.666662 -1.4794,1.02424 -3.41394,0.45455 -4.04,-1.25454 -5.69031,-15.24849 -10.2994,-30.66667 -13.5994,-45.57576 -0.45515,-1.99394 0,-3.52727 1.53637,-4.72727 47.22909,-37.21212 80.34606,-92.74546 88.25515,-155.909094 -24.0697,-9.903027 -50.07394,-16.103029 -77.72849,-17.581818"
     id="path22" />
  <path
     style="mix-blend-mode:normal;fill:#0078ff;fill-opacity:1;stroke-width:6.06062;filter:url(#filter24)"
     d="m 356.07783,41.624919 c 0,-0.969698 0.68485,-1.648486 1.64849,-1.648486 h 74.48486 c 0.91514,0 1.65452,0.963636 1.30908,1.818183 l -6.70908,18.436362 c -0.39999,1.024244 -1.13942,1.539394 -2.22425,1.539394 h -45.57574 v 19.969697 h 38.01211 c 0.90909,0 1.64848,0.969698 1.30908,1.824242 l -6.54547,18.090909 c -0.39998,1.1394 -1.13937,1.59394 -2.21816,1.59394 h -30.50302 v 33.51515 c 0,0.9697 -0.62427,1.64849 -1.6485,1.64849 h -19.69091 c -0.96364,0 -1.64849,-0.67879 -1.64849,-1.64849 z"
     id="path21" />
  <path
     style="mix-blend-mode:normal;fill:#0078ff;fill-opacity:1;stroke-width:6.06062;filter:url(#filter24)"
     d="M 483.14451,96.194608 471.41724,62.224909 459.64148,96.194608 Z M 456.1142,41.509757 c 0.39998,-1.024241 1.13941,-1.533332 2.2182,-1.533332 h 26.39996 c 1.13942,0 1.82427,0.454545 2.22426,1.533332 l 34.5394,95.084853 c 0.3394,0.85454 -0.39999,1.81818 -1.30908,1.81818 h -20.88488 c -1.13937,0 -1.76364,-0.50909 -2.16362,-1.58788 l -6.6,-19.17576 h -38.18181 l -6.6,19.17576 c -0.3394,1.02424 -1.02425,1.58788 -2.16363,1.58788 h -20.60001 c -0.90909,0 -1.64848,-0.96364 -1.30303,-1.81818 l 34.5394,-95.084853 z"
     id="path19" />
  <path
     style="mix-blend-mode:normal;fill:#0078ff;fill-opacity:1;stroke-width:6.06062;filter:url(#filter24)"
     d="m 531.10815,41.624911 c 0,-0.969698 0.63027,-1.648486 1.65453,-1.648486 h 22.92729 c 1.19392,0 1.87877,0.399999 2.50303,1.424243 l 34.26059,58.266668 V 41.624911 c 0,-0.969698 0.6788,-1.648486 1.64848,-1.648486 H 613.393 c 0.96363,0 1.64848,0.624242 1.64848,1.648486 V 136.7643 c 0,0.9697 -0.62426,1.64849 -1.64848,1.64849 h -22.64852 c -1.19391,0 -1.87876,-0.39394 -2.50303,-1.41818 L 553.70209,78.267333 v 58.557577 c 0,0.96364 -0.68485,1.64848 -1.65456,1.64848 h -19.28485 c -0.96968,0 -1.65453,-0.68484 -1.65453,-1.64848 z"
     id="path18" />
  <path
     style="mix-blend-mode:normal;fill:#0078ff;fill-opacity:1;stroke-width:6.06062;filter:url(#filter24)"
     d="m 671.03541,116.62491 c 15.6424,0 27.42425,-11.83636 27.42425,-27.430305 0,-15.587875 -11.83638,-27.424241 -27.42425,-27.424241 h -35.00002 c -0.96362,0 -1.64847,-0.630304 -1.64847,-1.654545 V 41.624911 c 0,-0.969698 0.68485,-1.648486 1.64847,-1.648486 h 35.00002 c 28.78787,0 50.41213,21.109093 50.41213,49.21818 0,28.109095 -21.56364,49.218185 -50.41213,49.218185 h -35.00002 c -0.96362,0 -1.64847,-0.67879 -1.64847,-1.64849 V 90.788545 c 0,-6.145455 1.99392,-10.981818 5.46062,-14.454546 3.1333,-3.127272 8.08483,-5.236362 12.46666,-5.236362 h 3.41212 c 0.96971,0 1.64848,0.630305 1.64848,1.654545 v 43.927278 h 13.66061 z"
     id="path17" />
  <path
     style="mix-blend-mode:normal;fill:#0078ff;fill-opacity:1;stroke-width:6.06062;filter:url(#filter24)"
     d="m 735.56268,99.552181 v -57.92727 c 0,-0.969698 0.62422,-1.648486 1.64848,-1.648486 h 19.68487 c 0.96968,0 1.65453,0.624242 1.65453,1.648486 v 57.92727 c 0,11.151519 7.79395,18.890909 18.89091,18.890909 11.09696,0 18.89091,-7.73939 18.89091,-18.890909 v -57.92727 c 0,-0.969698 0.62423,-1.648486 1.64848,-1.648486 h 19.69092 c 0.96363,0 1.64848,0.624242 1.64848,1.648486 v 57.92727 c 0,24.127279 -17.07273,40.684849 -41.87879,40.684849 -24.81211,0 -41.87879,-16.55757 -41.87879,-40.684849 z"
     id="path16" />
  <path
     style="mix-blend-mode:normal;fill:#0078ff;fill-opacity:1;stroke-width:6.06062;filter:url(#filter24)"
     d="m 905.30209,78.04309 c 0.96363,0 1.64848,0.684851 1.64848,1.648486 v 18.266669 c 0,0.969694 -0.62426,1.648483 -1.64848,1.648483 h -43.53335 v 17.072732 h 46.14546 c 0.96968,0 1.65453,0.62424 1.65453,1.64848 v 18.49697 c 0,0.96364 -0.68485,1.64848 -1.65453,1.64848 h -67.48486 c -0.96363,0 -1.64848,-0.68484 -1.64848,-1.64848 V 41.624911 c 0,-0.969698 0.62426,-1.648486 1.64848,-1.648486 h 67.48486 c 0.96968,0 1.65453,0.624242 1.65453,1.648486 v 18.490908 c 0,0.969699 -0.68485,1.654545 -1.65453,1.654545 H 861.76874 V 78.04309 Z"
     id="path15" />
  <path
     style="mix-blend-mode:normal;fill:#0078ff;fill-opacity:1;stroke-width:6.06062;filter:url(#filter24)"
     d="m 951.73238,116.62491 h 45.3515 c 0.96366,0 1.64851,0.62424 1.64851,1.64848 v 18.49091 c 0,0.9697 -0.68485,1.64849 -1.64851,1.64849 h -66.6909 c -0.96968,0 -1.64848,-0.67879 -1.64848,-1.64849 V 41.624911 c 0,-0.969698 0.62423,-1.648486 1.64848,-1.648486 h 19.69092 c 0.96363,0 1.64848,0.624242 1.64848,1.648486 z"
     id="path1" />
  <path
     d="m 396.193,209.77036 c 0,11.32728 -10.07274,15.76364 -19.29092,15.76364 -14.50909,0 -20.87879,-7.9697 -22.24849,-16.95758 h 8.42424 c 1.53334,5.97576 5.52122,9.10303 13.7697,9.10303 6.9394,0 10.92729,-2.72727 10.92729,-7.56969 0,-4.83637 -4.21213,-5.63031 -13.83032,-7.73334 -10.07273,-2.22424 -17.92121,-5.01212 -17.92121,-14.73939 0,-10.29697 9.10303,-15.70303 19,-15.70303 13.03031,0 19.00608,6.70909 20.48486,14.96364 h -8.41818 c -1.47878,-4.26667 -5.00606,-7.11516 -12.00608,-7.11516 -7,0 -10.75757,3.13334 -10.75757,7.62425 0,3.70303 2.96363,4.89697 11.55151,6.71515 13.0909,2.90303 20.26063,5.63636 20.26063,15.59394"
     fill="#4272b8"
     id="path2"
     style="fill:#0078ff;fill-opacity:1;stroke-width:6.06062" />
  <path
     d="m 423.10815,199.07339 c 6.83029,0 10.01817,-3.92727 10.01817,-9.15757 0,-5.23637 -3.18788,-9.10909 -10.01817,-9.10909 h -12.57577 v 18.26666 z m -20.93942,25.55152 v -51.78182 h 21.22424 c 11.32729,0 18.21215,6.8303 18.21215,17.01212 0,10.18788 -6.88486,17.24243 -18.21215,17.24243 h -12.86059 v 17.52727 z"
     fill="#4272b8"
     id="path3"
     style="fill:#0078ff;fill-opacity:1;stroke-width:6.06062" />
  <path
     d="m 453.67179,198.734 c 0,10.81212 7.90908,18.77576 18.43635,18.77576 10.52122,0 18.32122,-7.96364 18.32122,-18.77576 0,-10.81212 -7.90912,-18.78182 -18.32122,-18.78182 -10.4182,0 -18.43635,7.9697 -18.43635,18.78182 z m 45.29091,0 c -0.0544,15.24848 -11.66668,26.8 -26.85456,26.8 -15.19393,0 -26.86061,-11.55152 -26.86061,-26.8 0,-15.24849 11.66668,-26.8 26.86061,-26.8 15.18788,0 26.79998,11.55151 26.85456,26.8 z"
     fill="#4272b8"
     id="path4"
     style="fill:#0078ff;fill-opacity:1;stroke-width:6.06062" />
  <path
     d="m 525.59299,197.934 c 6.88486,0 10.06666,-3.52727 10.06666,-8.58788 0,-5.06667 -3.24242,-8.47879 -10.06666,-8.47879 H 513.47178 V 197.934 Z m -20.48485,-25.09091 h 21.39394 c 11.26666,0 17.58183,6.65455 17.58183,16.44242 0,8.59394 -4.8364,14.05455 -13.03034,15.59394 l 15.47879,19.74546 H 536.22933 L 521.49602,205.334 h -8.08487 v 19.29091 h -8.3636 v -51.78182 z"
     fill="#4272b8"
     id="path5"
     style="fill:#0078ff;fill-opacity:1;stroke-width:6.06062" />
  <path
     d="m 585.56268,180.80673 h -15.8182 v 43.81818 h -8.3636 v -43.81818 h -15.75761 v -7.96364 h 39.93941 z"
     fill="#4272b8"
     id="path6"
     style="fill:#0078ff;fill-opacity:1;stroke-width:6.06062" />
  <path
     d="m 628.47177,209.77036 c 0,11.32728 -10.07271,15.76364 -19.2909,15.76364 -14.50912,0 -20.88484,-7.9697 -22.24849,-16.95758 h 8.41818 c 1.5394,5.97576 5.52121,9.10303 13.77577,9.10303 6.93936,0 10.92121,-2.72727 10.92121,-7.56969 0,-4.83637 -4.21213,-5.63031 -13.82427,-7.73334 -10.0727,-2.22424 -17.92724,-5.01212 -17.92724,-14.73939 0,-10.29697 9.10303,-15.70303 19.00604,-15.70303 13.03029,0 19.00607,6.70909 20.48485,14.96364 h -8.41818 c -1.48487,-4.26667 -5.01211,-7.11516 -12.00605,-7.11516 -7.00003,0 -10.75759,3.13334 -10.75759,7.62425 0,3.70303 2.95759,4.89697 11.55152,6.71515 13.08483,2.90303 20.25456,5.63636 20.25456,15.59394"
     fill="#4272b8"
     id="path7"
     style="fill:#0078ff;fill-opacity:1;stroke-width:6.06062" />
  <path
     d="m 687.70815,212.84309 -0.73943,-18.32121 v -21.67879 h 8.36365 v 51.78182 h -9.90301 l -25.89093,-40.00606 0.80001,18.32727 v 21.67879 h -8.36969 v -51.78182 h 9.84847 z"
     fill="#4272b8"
     id="path8"
     style="fill:#0078ff;fill-opacity:1;stroke-width:6.06062" />
  <path
     d="m 735.73238,180.80673 h -25.43637 v 13.4303 h 23.61819 v 7.9697 h -23.61819 v 14.44848 h 25.43637 v 7.9697 h -33.80001 v -51.78182 h 33.80001 z"
     fill="#4272b8"
     id="path9"
     style="fill:#0078ff;fill-opacity:1;stroke-width:6.06062" />
  <path
     d="m 778.80512,180.80673 h -15.81819 v 43.81818 h -8.36364 v -43.81818 h -15.76365 v -7.96364 h 39.94548 z"
     fill="#4272b8"
     id="path10"
     style="fill:#0078ff;fill-opacity:1;stroke-width:6.06062" />
  <path
     d="m 838.55057,224.62491 h -10.41214 l -4.95152,-18.72121 -5.00606,-23.10303 -1.36362,-0.0546 -4.95152,23.15759 -4.95152,18.72121 h -10.52727 l -13.76969,-51.78181 h 8.59393 l 6.6,24.75152 3.92727,18.21212 3.92122,-18.21212 6.49092,-24.75152 H 822.793 l 6.53938,24.75152 3.98181,18.38181 3.92727,-18.38181 6.49092,-24.75152 h 8.58788 z"
     fill="#4272b8"
     id="path11"
     style="fill:#0078ff;fill-opacity:1;stroke-width:6.06062" />
  <path
     d="m 860.97481,198.734 c 0,10.81212 7.90908,18.77576 18.43635,18.77576 10.52727,0 18.32122,-7.96364 18.32122,-18.77576 0,-10.81212 -7.90908,-18.78182 -18.32122,-18.78182 -10.41816,0 -18.43635,7.9697 -18.43635,18.78182 z m 45.29091,0 c -0.0544,15.24848 -11.66668,26.8 -26.85456,26.8 -15.19393,0 -26.86061,-11.55152 -26.86061,-26.8 0,-15.24849 11.66668,-26.8 26.86061,-26.8 15.18788,0 26.80002,11.55151 26.85456,26.8 z"
     fill="#4272b8"
     id="path12"
     style="fill:#0078ff;fill-opacity:1;stroke-width:6.06062" />
  <path
     d="m 932.89601,197.934 c 6.88486,0 10.07274,-3.52727 10.07274,-8.58788 0,-5.06667 -3.24242,-8.47879 -10.07274,-8.47879 H 920.7748 V 197.934 Z m -20.48485,-25.09091 h 21.39394 c 11.26666,0 17.64242,6.65455 17.64242,16.44242 0,8.59394 -4.83636,14.05455 -13.0303,15.59394 l 15.47879,19.74546 H 943.59298 L 928.85358,205.334 h -8.07878 v 19.29091 h -8.36364 z"
     fill="#4272b8"
     id="path13"
     style="fill:#0078ff;fill-opacity:1;stroke-width:6.06062" />
  <path
     d="m 975.85964,198.04915 23.44244,26.57576 h -10.58789 l -21.84847,-24.69697 v 24.69697 h -8.36364 v -51.78182 h 8.36364 v 23.61212 l 20.93938,-23.61212 h 10.47273 z"
     fill="#4272b8"
     id="path14"
     style="fill:#0078ff;fill-opacity:1;stroke-width:6.06062" />
  <path
     d="M 998.73239,258.98854 H 356.07783 v 6.3697 h 642.65456 z"
     fill="#4272b8"
     id="path20"
     style="fill:#0078ff;fill-opacity:1;stroke-width:6.06062" />
  <path
     style="font-size:70.0667px;line-height:0.9;font-family:Stolzl;-inkscape-font-specification:Stolzl;letter-spacing:0px;word-spacing:0px;fill:#0078ff;fill-opacity:1;stroke-width:5;stroke-linecap:round;stroke-linejoin:round;paint-order:markers stroke fill"
     d="m 1000.0135,299.80098 h -37.83583 v 7.5672 h 14.92417 v 41.47949 h 7.91747 v -41.47949 h 14.99429 z"
     id="path29" />
  <path
     style="font-size:70.0667px;line-height:0.9;font-family:Stolzl;-inkscape-font-specification:Stolzl;letter-spacing:0px;word-spacing:0px;fill:#0078ff;fill-opacity:1;stroke-width:5;stroke-linecap:round;stroke-linejoin:round;paint-order:markers stroke fill"
     d="m 941.98927,319.98019 c -8.12774,-1.75167 -10.9304,-2.87274 -10.9304,-6.37607 0,-4.27407 3.5734,-7.21687 10.15967,-7.21687 6.58627,0 9.94947,2.66253 11.3508,6.7264 h 7.98761 c -1.40134,-7.7774 -7.07674,-14.15347 -19.40848,-14.15347 -9.38894,0 -18.00714,5.11487 -18.00714,14.85414 0,9.17874 7.42707,11.84127 16.95614,13.94327 9.10867,2.03194 13.10247,2.80267 13.10247,7.35701 0,4.55433 -3.7836,7.1468 -10.36987,7.1468 -7.7774,0 -11.561,-2.9428 -13.03241,-8.6182 h -7.9876 c 1.33127,8.47807 7.357,16.04527 21.09008,16.04527 8.75834,0 18.28741,-4.204 18.28741,-14.92421 0,-9.459 -6.79647,-12.05147 -19.19828,-14.78407 z"
     id="path28" />
  <path
     style="font-size:70.0667px;line-height:0.9;font-family:Stolzl;-inkscape-font-specification:Stolzl;letter-spacing:0px;word-spacing:0px;fill:#0078ff;fill-opacity:1;stroke-width:5;stroke-linecap:round;stroke-linejoin:round;paint-order:markers stroke fill"
     d="m 919.54803,299.80098 h -32.02048 v 49.04669 h 32.02048 v -7.5672 h -24.10294 v -13.66301 h 22.35127 v -7.5672 h -22.35127 v -12.68208 h 24.10294 z"
     id="path27" />
  <path
     style="font-size:70.0667px;line-height:0.9;font-family:Stolzl;-inkscape-font-specification:Stolzl;letter-spacing:0px;word-spacing:0px;fill:#0078ff;fill-opacity:1;stroke-width:5;stroke-linecap:round;stroke-linejoin:round;paint-order:markers stroke fill"
     d="m 883.105,299.80098 h -8.12773 l -6.16587,23.47234 -3.71354,17.37655 -3.7836,-17.37655 -6.16587,-23.47234 h -10.08961 l -6.16587,23.47234 -3.71353,17.23641 -3.71354,-17.23641 -6.23593,-23.47234 h -8.12774 l 13.03241,49.04669 h 9.94947 l 4.69447,-17.72688 4.69447,-21.93087 1.2612,0.0701 4.76453,21.86081 4.69447,17.72688 h 9.87941 z"
     id="path26" />
</svg>
