<?xml version="1.0" encoding="UTF-8" standalone="no"?>
<svg
   width="1000"
   height="349.67194"
   viewBox="0 0 1000 349.67194"
   fill="none"
   version="1.1"
   id="svg22"
   xmlns="http://www.w3.org/2000/svg"
   xmlns:svg="http://www.w3.org/2000/svg"><defs
   id="defs1" />
<path
   d="m 951.69091,116.60525 h 45.35151 c 0.96364,0 1.64849,0.62424 1.64849,1.64848 v 18.49091 c 0,0.9697 -0.68485,1.64849 -1.64849,1.64849 h -66.6909 c -0.9697,0 -1.64849,-0.67879 -1.64849,-1.64849 V 41.60525 c 0,-0.969697 0.62424,-1.648485 1.64849,-1.648485 h 19.6909 c 0.96364,0 1.64849,0.624242 1.64849,1.648485 z m -46.4303,-38.581818 c 0.96363,0 1.64848,0.684849 1.64848,1.648485 v 18.266667 c 0,0.969697 -0.62424,1.648485 -1.64848,1.648485 H 861.72727 V 116.6598 h 46.14546 c 0.96969,0 1.65454,0.62424 1.65454,1.64848 v 18.49697 c 0,0.96364 -0.68485,1.64848 -1.65454,1.64848 h -67.48485 c -0.96364,0 -1.64849,-0.68484 -1.64849,-1.64848 v -95.2 c 0,-0.969697 0.62425,-1.648485 1.64849,-1.648485 h 67.48485 c 0.96969,0 1.65454,0.624242 1.65454,1.648485 v 18.490909 c 0,0.969697 -0.68485,1.654546 -1.65454,1.654546 H 861.72727 V 78.023432 Z M 735.52121,99.532523 V 41.60525 c 0,-0.969697 0.62424,-1.648485 1.64849,-1.648485 h 19.68485 c 0.96969,0 1.65454,0.624242 1.65454,1.648485 v 57.927273 c 0,11.151517 7.79394,18.890907 18.89091,18.890907 11.09697,0 18.89091,-7.73939 18.89091,-18.890907 V 41.60525 c 0,-0.969697 0.62424,-1.648485 1.64848,-1.648485 h 19.69091 c 0.96364,0 1.64849,0.624242 1.64849,1.648485 v 57.927273 c 0,24.127277 -17.07273,40.684847 -41.87879,40.684847 -24.81212,0 -41.87879,-16.55757 -41.87879,-40.684847 z m -64.52727,17.072727 c 15.64242,0 27.42424,-11.83636 27.42424,-27.430303 0,-15.587878 -11.83636,-27.424242 -27.42424,-27.424242 h -35 c -0.96364,0 -1.64849,-0.630303 -1.64849,-1.654546 V 41.60525 c 0,-0.969697 0.68485,-1.648485 1.64849,-1.648485 h 35 c 28.78788,0 50.41212,21.109091 50.41212,49.218182 0,28.109093 -21.56364,49.218183 -50.41212,49.218183 h -35 c -0.96364,0 -1.64849,-0.67879 -1.64849,-1.64849 V 90.768887 c 0,-6.145455 1.99394,-10.981818 5.46061,-14.454546 3.13333,-3.127272 8.08485,-5.236363 12.46667,-5.236363 h 3.41212 c 0.9697,0 1.64848,0.630303 1.64848,1.654545 V 116.6598 h 13.66061 z m -139.92727,-75 c 0,-0.969697 0.6303,-1.648485 1.65454,-1.648485 h 22.92727 c 1.19394,0 1.87879,0.4 2.50304,1.424242 l 34.2606,58.266668 V 41.60525 c 0,-0.969697 0.67879,-1.648485 1.64849,-1.648485 h 19.29091 c 0.96363,0 1.64848,0.624242 1.64848,1.648485 v 95.13939 c 0,0.9697 -0.62424,1.64849 -1.64848,1.64849 h -22.64849 c -1.19394,0 -1.87879,-0.39394 -2.50303,-1.41818 L 553.66061,78.247675 v 58.557575 c 0,0.96364 -0.68485,1.64848 -1.65455,1.64848 h -19.28485 c -0.96969,0 -1.65454,-0.68484 -1.65454,-1.64848 z M 483.10303,96.174947 471.37576,62.20525 459.6,96.174947 Z m -27.0303,-54.684849 c 0.4,-1.024242 1.13939,-1.533333 2.21818,-1.533333 h 26.4 c 1.13939,0 1.82424,0.454545 2.22424,1.533333 l 34.5394,95.084852 c 0.33939,0.85454 -0.4,1.81818 -1.3091,1.81818 h -20.88484 c -1.1394,0 -1.76364,-0.50909 -2.16364,-1.58788 l -6.6,-19.17576 h -38.18182 l -6.6,19.17576 c -0.33939,1.02424 -1.02424,1.58788 -2.16364,1.58788 h -20.59999 c -0.9091,0 -1.64849,-0.96364 -1.30304,-1.81818 l 34.5394,-95.084852 z M 356.03636,41.60525 c 0,-0.969697 0.68485,-1.648485 1.64849,-1.648485 h 74.48485 c 0.91515,0 1.65454,0.963636 1.30909,1.818182 l -6.70909,18.436364 c -0.4,1.024242 -1.1394,1.539394 -2.22425,1.539394 H 378.9697 v 19.969697 h 38.01212 c 0.90909,0 1.64848,0.969697 1.30909,1.824242 l -6.54546,18.090906 c -0.39999,1.1394 -1.13939,1.59394 -2.21818,1.59394 h -30.50303 v 33.51515 c 0,0.9697 -0.62424,1.64849 -1.64848,1.64849 h -19.69091 c -0.96364,0 -1.64849,-0.67879 -1.64849,-1.64849 z m -199.78303,9.733334 c -1.70666,-0.175758 -2.84485,-1.709092 -2.33272,-3.418183 5.34848,-15.587878 11.55091,-30.327272 18.5503,-43.9818175 0.79636,-1.59394 2.21879,-2.278788 4.09697,-2.048485 38.52242,4.321212 74.99697,16.4969705 107.54727,34.6484845 1.98788,1.084849 2.84243,2.848485 2.78788,5.236364 C 286.21818,134.29616 239.9,222.89616 161.88667,276.44161 c -1.4794,1.02424 -3.41394,0.45455 -4.04,-1.25454 -5.69031,-15.24849 -10.2994,-30.66667 -13.5994,-45.57576 -0.45515,-1.99394 0,-3.52727 1.53637,-4.72727 47.22909,-37.21212 80.34606,-92.74546 88.25515,-155.909093 -24.0697,-9.90303 -50.07394,-16.10303 -77.72849,-17.581818 M 61.73879,109.54464 c 19.06242,-8.81818 39.14909,-14.163632 58.83697,-16.557571 2.16242,-0.284849 3.01576,1.193939 2.78848,2.90303 -2.50363,15.133331 -4.21091,30.496971 -4.83697,46.036361 -0.1703,1.76364 -1.08121,2.95758 -3.07272,3.29697 -10.98182,2.16364 -21.62303,5.52121 -33.40122,10.86667 10.58364,18.38182 23.38667,35.22424 37.49819,49.33333 1.59333,1.70909 2.5606,3.47273 3.01575,6.32121 3.69879,23.61212 10.07212,47.45455 18.60728,70.04243 0.51212,1.25454 0.51212,2.16363 -0.22788,2.84848 -0.79637,0.7394 -2.04849,0.7394 -3.24303,0 C 52.3503,232.73858 0.9103,139.53252 0,41.774947 0,39.441614 0.79636,37.677977 2.78848,36.538583 48.08242,11.162826 99.06667,-1.0129315 150.27879,0.06585551 c 2.27636,0.06061 3.07273,2.04848499 2.21939,3.87272799 -7.05576,14.6242425 -12.97394,29.5878785 -17.58303,44.4969695 -0.51212,1.763637 -1.59333,2.618182 -3.52788,2.727273 -27.36969,1.424243 -54,7.569697 -78.41151,17.69697 1.76424,13.884848 4.78,27.484848 8.76303,40.630304"
   fill="#4272b8"
   id="path1"
   style="mix-blend-mode:normal;fill:#0078ff;fill-opacity:1;stroke-width:6.06061;filter:url(#filter24)" />
<path
   d="m 396.15152,209.7507 c 0,11.32728 -10.07273,15.76364 -19.29091,15.76364 -14.50909,0 -20.87879,-7.9697 -22.24849,-16.95758 h 8.42424 c 1.53334,5.97576 5.52122,9.10303 13.7697,9.10303 6.93939,0 10.92727,-2.72727 10.92727,-7.56969 0,-4.83637 -4.21212,-5.63031 -13.8303,-7.73334 -10.07273,-2.22424 -17.92121,-5.01212 -17.92121,-14.73939 0,-10.29697 9.10303,-15.70303 19,-15.70303 13.0303,0 19.00606,6.70909 20.48485,14.96364 h -8.41818 c -1.47879,-4.26667 -5.00607,-7.11516 -12.00607,-7.11516 -7,0 -10.75757,3.13334 -10.75757,7.62425 0,3.70303 2.96363,4.89697 11.55151,6.71515 13.09091,2.90303 20.26061,5.63636 20.26061,15.59394"
   fill="#4272b8"
   id="path2"
   style="fill:#0078ff;fill-opacity:1;stroke-width:6.06061" />
<path
   d="m 423.06667,199.05373 c 6.8303,0 10.01818,-3.92727 10.01818,-9.15757 0,-5.23637 -3.18788,-9.10909 -10.01818,-9.10909 h -12.57576 v 18.26666 z m -20.9394,25.55152 v -51.78182 h 21.22424 c 11.32728,0 18.21213,6.8303 18.21213,17.01212 0,10.18788 -6.88485,17.24243 -18.21213,17.24243 h -12.8606 v 17.52727 z"
   fill="#4272b8"
   id="path3"
   style="fill:#0078ff;fill-opacity:1;stroke-width:6.06061" />
<path
   d="m 453.6303,198.71434 c 0,10.81212 7.90909,18.77576 18.43637,18.77576 10.52121,0 18.32121,-7.96364 18.32121,-18.77576 0,-10.81212 -7.90909,-18.78182 -18.32121,-18.78182 -10.41819,0 -18.43637,7.9697 -18.43637,18.78182 z m 45.29091,0 c -0.0545,15.24848 -11.66666,26.8 -26.85454,26.8 -15.19394,0 -26.86061,-11.55152 -26.86061,-26.8 0,-15.24849 11.66667,-26.8 26.86061,-26.8 15.18788,0 26.8,11.55151 26.85454,26.8 z"
   fill="#4272b8"
   id="path4"
   style="fill:#0078ff;fill-opacity:1;stroke-width:6.06061" />
<path
   d="m 525.55152,197.91434 c 6.88484,0 10.06666,-3.52727 10.06666,-8.58788 0,-5.06667 -3.24242,-8.47879 -10.06666,-8.47879 H 513.4303 v 17.06667 z m -20.48485,-25.09091 h 21.39394 c 11.26666,0 17.58181,6.65455 17.58181,16.44242 0,8.59394 -4.83636,14.05455 -13.0303,15.59394 l 15.47879,19.74546 h -10.30303 l -14.73333,-19.29091 h -8.08485 v 19.29091 h -8.36364 v -51.78182 z"
   fill="#4272b8"
   id="path5"
   style="fill:#0078ff;fill-opacity:1;stroke-width:6.06061" />
<path
   d="m 585.52121,180.78707 h -15.81818 v 43.81818 h -8.36364 v -43.81818 h -15.75757 v -7.96364 h 39.93939 z"
   fill="#4272b8"
   id="path6"
   style="fill:#0078ff;fill-opacity:1;stroke-width:6.06061" />
<path
   d="m 628.4303,209.7507 c 0,11.32728 -10.07272,15.76364 -19.29091,15.76364 -14.50909,0 -20.88484,-7.9697 -22.24848,-16.95758 h 8.41818 c 1.53939,5.97576 5.52121,9.10303 13.77576,9.10303 6.93939,0 10.92121,-2.72727 10.92121,-7.56969 0,-4.83637 -4.21212,-5.63031 -13.82424,-7.73334 -10.07273,-2.22424 -17.92727,-5.01212 -17.92727,-14.73939 0,-10.29697 9.10303,-15.70303 19.00606,-15.70303 13.0303,0 19.00606,6.70909 20.48484,14.96364 h -8.41818 c -1.48485,-4.26667 -5.01212,-7.11516 -12.00606,-7.11516 -7,0 -10.75757,3.13334 -10.75757,7.62425 0,3.70303 2.95757,4.89697 11.55151,6.71515 13.08485,2.90303 20.25455,5.63636 20.25455,15.59394"
   fill="#4272b8"
   id="path7"
   style="fill:#0078ff;fill-opacity:1;stroke-width:6.06061" />
&quot; /&gt;
  <path
   d="m 687.66667,212.82343 -0.7394,-18.32121 v -21.67879 h 8.36364 v 51.78182 h -9.90303 l -25.89091,-40.00606 0.8,18.32727 v 21.67879 h -8.3697 v -51.78182 h 9.84849 z"
   fill="#4272b8"
   id="path8"
   style="fill:#0078ff;fill-opacity:1;stroke-width:6.06061" />
<path
   d="m 735.69091,180.78707 h -25.43636 v 13.4303 h 23.61818 v 7.9697 h -23.61818 v 14.44848 h 25.43636 v 7.9697 h -33.8 v -51.78182 h 33.8 z"
   fill="#4272b8"
   id="path9"
   style="fill:#0078ff;fill-opacity:1;stroke-width:6.06061" />
<path
   d="m 778.76364,180.78707 h -15.81819 v 43.81818 h -8.36363 v -43.81818 h -15.76364 v -7.96364 h 39.94546 z"
   fill="#4272b8"
   id="path10"
   style="fill:#0078ff;fill-opacity:1;stroke-width:6.06061" />
<path
   d="m 838.50909,224.60525 h -10.41212 l -4.95152,-18.72121 -5.00606,-23.10303 -1.36363,-0.0546 -4.95152,23.15758 -4.95151,18.72121 h -10.52728 l -13.76969,-51.78182 h 8.59394 l 6.6,24.75152 3.92727,18.21212 3.92121,-18.21212 6.49091,-24.75152 h 10.64243 l 6.53939,24.75152 3.98182,18.38181 3.92727,-18.38181 6.49091,-24.75152 h 8.58788 z"
   fill="#4272b8"
   id="path11"
   style="fill:#0078ff;fill-opacity:1;stroke-width:6.06061" />
<path
   d="m 860.93333,198.71434 c 0,10.81212 7.90909,18.77576 18.43637,18.77576 10.52727,0 18.32121,-7.96364 18.32121,-18.77576 0,-10.81212 -7.90909,-18.78182 -18.32121,-18.78182 -10.41818,0 -18.43637,7.9697 -18.43637,18.78182 z m 45.29091,0 c -0.0545,15.24848 -11.66666,26.8 -26.85454,26.8 -15.19394,0 -26.86061,-11.55152 -26.86061,-26.8 0,-15.24849 11.66667,-26.8 26.86061,-26.8 15.18788,0 26.8,11.55151 26.85454,26.8 z"
   fill="#4272b8"
   id="path12"
   style="fill:#0078ff;fill-opacity:1;stroke-width:6.06061" />
<path
   d="m 932.85455,197.91434 c 6.88484,0 10.07272,-3.52727 10.07272,-8.58788 0,-5.06667 -3.24242,-8.47879 -10.07272,-8.47879 h -12.12122 v 17.06667 z M 912.3697,172.82343 h 21.39394 c 11.26666,0 17.64242,6.65455 17.64242,16.44242 0,8.59394 -4.83636,14.05455 -13.0303,15.59394 l 15.47879,19.74546 h -10.30303 l -14.7394,-19.29091 h -8.07879 v 19.29091 h -8.36363 z"
   fill="#4272b8"
   id="path13"
   style="fill:#0078ff;fill-opacity:1;stroke-width:6.06061" />
<path
   d="m 975.81818,198.02949 23.44243,26.57576 h -10.58788 l -21.84849,-24.69697 v 24.69697 h -8.36363 v -51.78182 h 8.36363 v 23.61212 l 20.9394,-23.61212 h 10.47272 z"
   fill="#4272b8"
   id="path14"
   style="fill:#0078ff;fill-opacity:1;stroke-width:6.06061" />
<path
   d="m 810.97576,334.76282 c 0,10.69697 -9.56364,14.9091 -18.26667,14.9091 -13.71515,0 -19.74545,-7.5697 -21.11515,-16.04849 h 7.9697 c 1.47878,5.69091 5.23636,8.64849 13.0303,8.64849 6.6,0 10.35758,-2.61819 10.35758,-7.1697 0,-4.55152 -3.98182,-5.34546 -13.09091,-7.3394 -9.50303,-2.10303 -16.95758,-4.77575 -16.95758,-13.93939 0,-9.73333 8.59394,-14.85455 17.98182,-14.85455 12.35151,0 17.98182,6.37576 19.40606,14.1697 h -7.9697 c -1.41818,-4.03636 -4.77576,-6.71515 -11.32121,-6.71515 -6.54545,0 -10.18788,2.96364 -10.18788,7.2303 0,3.52728 2.79394,4.60606 10.92727,6.3697 12.40606,2.73333 19.17576,5.29091 19.17576,14.79394"
   fill="#4272b8"
   id="path15"
   style="fill:#0078ff;fill-opacity:1;stroke-width:6.06061" />
<path
   d="m 821.95152,324.29616 c 0,10.24242 7.50909,17.81212 17.46666,17.81212 9.95758,0 17.35758,-7.5697 17.35758,-17.81212 0,-10.24243 -7.50909,-17.81212 -17.35758,-17.81212 -9.84242,0 -17.46666,7.56969 -17.46666,17.81212 z m 42.90303,0 c -0.0546,14.45454 -11.09697,25.37576 -25.43637,25.37576 -14.33939,0 -25.4303,-10.92122 -25.4303,-25.37576 0,-14.45455 11.09091,-25.37576 25.4303,-25.37576 14.3394,0 25.38182,10.92121 25.43637,25.37576 z"
   fill="#4272b8"
   id="path16"
   style="fill:#0078ff;fill-opacity:1;stroke-width:6.06061" />
<path
   d="m 868.78788,324.29616 c 0,-14.50909 10.69697,-25.37576 25.32121,-25.37576 11.32121,0 20.3697,6.88485 23.44243,17.01212 h -8.47879 c -2.61818,-5.74545 -8.1394,-9.44848 -15.07879,-9.44848 -10.01818,0 -17.24242,7.56969 -17.24242,17.81212 0,10.24242 7.22424,17.81212 17.24242,17.81212 6.93939,0 12.46061,-3.70303 15.07879,-9.44849 h 8.47879 c -3.07273,10.18788 -12.12122,17.01213 -23.44243,17.01213 -14.5697,0 -25.32121,-10.86667 -25.32121,-25.37576 z"
   fill="#4272b8"
   id="path17"
   style="fill:#0078ff;fill-opacity:1;stroke-width:6.06061" />
<path
   d="m 949.07273,328.16282 -7.79394,-20.59394 -7.79394,20.59394 h 15.53333 z m -12.86061,-28.39394 h 10.07273 l 19.00606,49.04849 h -8.42424 l -4.94546,-13.2 h -21.28485 l -5.00606,13.2 h -8.42424 z"
   fill="#4272b8"
   id="path18"
   style="fill:#0078ff;fill-opacity:1;stroke-width:6.06061" />
<path
   d="M 977.63636,341.25373 H 1000 v 7.56364 h -30.27273 v -49.04849 h 7.90909 z"
   fill="#4272b8"
   id="path19"
   style="fill:#0078ff;fill-opacity:1;stroke-width:6.06061" />
<path
   d="M 998.69091,258.96888 H 356.03636 v 6.3697 h 642.65455 z"
   fill="#4272b8"
   id="path20"
   style="fill:#0078ff;fill-opacity:1;stroke-width:6.06061" />
</svg>
