<?xml version="1.0" encoding="UTF-8" standalone="no"?>
<svg
   width="1000"
   height="349.85828"
   viewBox="0 0 1000 349.85828"
   version="1.1"
   id="svg2"
   xmlns="http://www.w3.org/2000/svg"
   xmlns:svg="http://www.w3.org/2000/svg">
  <defs
     id="defs2">
    <filter
       id="Ellipse_34"
       x="0"
       y="0"
       width="261"
       height="261"
       filterUnits="userSpaceOnUse">
      <feOffset
         dy="2"
         input="SourceAlpha"
         id="feOffset1" />
      <feGaussianBlur
         stdDeviation="7.5"
         result="blur"
         id="feGaussianBlur1" />
      <feFlood
         flood-opacity="0.102"
         id="feFlood1" />
      <feComposite
         operator="in"
         in2="blur"
         id="feComposite1" />
      <feComposite
         in="SourceGraphic"
         id="feComposite2" />
    </filter>
  </defs>
  <path
     style="mix-blend-mode:normal;fill:#0078ff;fill-opacity:1;stroke-width:6.06103;filter:url(#filter24)"
     d="m 61.743068,109.55223 c 19.063742,-8.81879 39.151802,-14.164612 58.841052,-16.558717 2.16257,-0.284869 3.01596,1.194022 2.78867,2.903231 -2.5038,15.134376 -4.2112,30.499086 -4.83731,46.039556 -0.17031,1.76376 -1.08128,2.95778 -3.07293,3.29719 -10.98258,2.16379 -21.624527,5.5216 -33.403534,10.86743 10.584374,18.38309 23.388294,35.22668 37.500784,49.33675 1.59345,1.7092 2.56078,3.47297 3.01596,6.32164 3.69905,23.61376 10.07282,47.45784 18.60857,70.04729 0.51216,1.25462 0.51216,2.16378 -0.22789,2.84868 -0.79643,0.73945 -2.04863,0.73945 -3.24326,0 C 52.353928,232.75471 0.91036308,139.54219 0,41.777842 0,39.444347 0.79641519,37.680588 2.7886732,36.541115 48.085752,11.1636 99.073535,-1.0130017 150.2892,0.06586007 152.56572,0.12647427 153.36215,2.114487 152.50875,3.9388564 145.4525,18.564112 139.53391,33.528785 134.9245,48.43891 c -0.51216,1.763759 -1.59344,2.618363 -3.52812,2.727462 -27.37159,1.424341 -54.003747,7.570221 -78.416949,17.698196 1.764362,13.88581 4.780331,27.486753 8.763637,40.633122"
     id="path30" />
  <path
     style="mix-blend-mode:normal;fill:#0078ff;fill-opacity:1;stroke-width:6.06103;filter:url(#filter24)"
     d="m 156.26416,51.342142 c -1.70678,-0.17577 -2.84505,-1.709211 -2.33288,-3.41842 5.34885,-15.588958 11.55171,-30.329374 18.55158,-43.9848656 0.79642,-1.5940504 2.21895,-2.2789459 4.09726,-2.0486269 38.52509,4.3215114 75.00216,16.4981135 107.55472,34.6508855 1.98802,1.084924 2.84263,2.848683 2.78807,5.236727 -0.6849,92.527628 -47.00628,181.133768 -125.02502,234.682928 -1.4795,1.02431 -3.41418,0.45458 -4.04028,-1.25463 -5.69071,-15.24955 -10.30011,-30.66879 -13.60034,-45.57892 -0.45519,-1.99408 0,-3.52751 1.53647,-4.7276 47.23237,-37.21469 80.35163,-92.75188 88.26127,-155.919893 C 209.98364,59.076011 183.9776,52.875581 156.32113,51.396691"
     id="path29" />
  <path
     style="mix-blend-mode:normal;fill:#0078ff;fill-opacity:1;stroke-width:6.06103;filter:url(#filter24)"
     d="m 356.06103,41.608133 c 0,-0.969764 0.6849,-1.648599 1.64861,-1.648599 h 74.49001 c 0.91521,0 1.65465,0.963703 1.30918,1.818308 l -6.70955,18.437642 c -0.40003,1.024313 -1.13948,1.5395 -2.22441,1.5395 h -45.57891 v 19.971081 h 38.01476 c 0.90915,0 1.64859,0.969764 1.30918,1.824369 l -6.54592,18.092156 c -0.40001,1.13948 -1.13947,1.59405 -2.21833,1.59405 h -30.50514 v 33.51748 c 0,0.96976 -0.62429,1.6486 -1.6486,1.6486 h -19.69227 c -0.96371,0 -1.64861,-0.67884 -1.64861,-1.6486 z"
     id="path28" />
  <path
     style="mix-blend-mode:normal;fill:#0078ff;fill-opacity:1;stroke-width:6.06103;filter:url(#filter24)"
     d="M 483.13651,96.181612 471.40843,62.209561 459.63185,96.181612 Z M 456.10434,41.492973 c 0.40002,-1.024313 1.13946,-1.533439 2.21833,-1.533439 h 26.40183 c 1.13947,0 1.82437,0.454577 2.22439,1.533439 l 34.5418,95.091437 c 0.33941,0.8546 -0.40003,1.81831 -1.30919,1.81831 h -20.88629 c -1.13948,0 -1.76376,-0.50912 -2.16379,-1.58799 l -6.60046,-19.17709 H 452.3465 l -6.60046,19.17709 c -0.33942,1.02431 -1.02431,1.58799 -2.16379,1.58799 h -20.60142 c -0.90916,0 -1.6486,-0.96371 -1.30313,-1.81831 l 34.54179,-95.091437 z"
     id="path27" />
  <path
     style="mix-blend-mode:normal;fill:#0078ff;fill-opacity:1;stroke-width:6.06103;filter:url(#filter24)"
     d="m 531.10347,41.608133 c 0,-0.969764 0.63035,-1.648599 1.65466,-1.648599 h 22.92886 c 1.19402,0 1.87892,0.400028 2.50321,1.424341 l 34.26297,58.270706 V 41.608133 c 0,-0.969764 0.67884,-1.648599 1.64861,-1.648599 h 19.29225 c 0.96369,0 1.64859,0.624285 1.64859,1.648599 v 95.145987 c 0,0.96976 -0.62428,1.6486 -1.64859,1.6486 h -22.65006 c -1.19403,0 -1.87892,-0.39397 -2.50321,-1.41828 L 553.69898,78.253098 v 58.561632 c 0,0.96371 -0.6849,1.64859 -1.65467,1.64859 h -19.28618 c -0.96976,0 -1.65466,-0.68488 -1.65466,-1.64859 z"
     id="path26" />
  <path
     style="mix-blend-mode:normal;fill:#0078ff;fill-opacity:1;stroke-width:6.06103;filter:url(#filter24)"
     d="m 671.04044,116.61333 c 15.6435,0 27.42614,-11.83718 27.42614,-27.432203 0,-15.588958 -11.83718,-27.426143 -27.42614,-27.426143 h -35.00243 c -0.9637,0 -1.6486,-0.630346 -1.6486,-1.65466 V 41.608133 c 0,-0.969764 0.6849,-1.648599 1.6486,-1.648599 h 35.00243 c 28.78987,0 50.41561,21.110554 50.41561,49.221593 0,28.111043 -21.56513,49.221593 -50.41561,49.221593 h -35.00243 c -0.9637,0 -1.6486,-0.67884 -1.6486,-1.6486 V 90.775177 c 0,-6.145881 1.99408,-10.982579 5.46099,-14.455547 3.13355,-3.127489 8.08541,-5.236726 12.46753,-5.236726 h 3.41236 c 0.96977,0 1.64859,0.630346 1.64859,1.654659 v 43.930317 h 13.66156 z"
     id="path25" />
  <path
     style="mix-blend-mode:normal;fill:#0078ff;fill-opacity:1;stroke-width:6.06103;filter:url(#filter24)"
     d="M 735.57218,99.539421 V 41.608133 c 0,-0.969764 0.62428,-1.648599 1.64861,-1.648599 H 756.907 c 0.96976,0 1.65465,0.624285 1.65465,1.648599 v 57.931288 c 0,11.152289 7.79448,18.892219 18.89222,18.892219 11.09774,0 18.89222,-7.73993 18.89222,-18.892219 V 41.608133 c 0,-0.969764 0.62429,-1.648599 1.6486,-1.648599 h 19.69227 c 0.96371,0 1.64861,0.624285 1.64861,1.648599 v 57.931288 c 0,24.128949 -17.07392,40.687669 -41.8817,40.687669 -24.81384,0 -41.88169,-16.55872 -41.88169,-40.687669 z"
     id="path24" />
  <path
     style="mix-blend-mode:normal;fill:#0078ff;fill-opacity:1;stroke-width:6.06103;filter:url(#filter24)"
     d="m 905.32334,78.028839 c 0.9637,0 1.6486,0.684896 1.6486,1.648599 v 18.267933 c 0,0.969764 -0.62428,1.648599 -1.6486,1.648599 h -43.53635 v 17.07391 h 46.14866 c 0.96975,0 1.65465,0.62429 1.65465,1.6486 v 18.49825 c 0,0.96371 -0.6849,1.64859 -1.65465,1.64859 h -67.48953 c -0.96371,0 -1.64861,-0.68488 -1.64861,-1.64859 V 41.608133 c 0,-0.969764 0.6243,-1.648599 1.64861,-1.648599 h 67.48953 c 0.96975,0 1.65465,0.624285 1.65465,1.648599 v 18.492191 c 0,0.969764 -0.6849,1.65466 -1.65465,1.65466 h -46.14866 v 16.273855 z"
     id="path23" />
  <path
     style="mix-blend-mode:normal;fill:#0078ff;fill-opacity:1;stroke-width:6.06103;filter:url(#filter24)"
     d="m 951.75686,116.61333 h 45.35466 c 0.9637,0 1.6486,0.62428 1.6486,1.64859 v 18.4922 c 0,0.96976 -0.6849,1.6486 -1.6486,1.6486 h -66.69553 c -0.96976,0 -1.6486,-0.67884 -1.6486,-1.6486 V 41.608133 c 0,-0.969764 0.62428,-1.648599 1.6486,-1.648599 h 19.69227 c 0.9637,0 1.6486,0.624285 1.6486,1.648599 z"
     id="path1" />
  <path
     d="m 396.17897,209.76524 c 0,11.32806 -10.07342,15.76473 -19.29224,15.76473 -14.5101,0 -20.88024,-7.97025 -22.25004,-16.95876 h 8.42483 c 1.53344,5.97618 5.5216,9.10366 13.77065,9.10366 6.93987,0 10.92803,-2.72746 10.92803,-7.57021 0,-4.83671 -4.21241,-5.6307 -13.83126,-7.73388 -10.07343,-2.22439 -17.92245,-5.01246 -17.92245,-14.74041 0,-10.29768 9.10366,-15.70412 19.00132,-15.70412 13.0312,0 19.00737,6.70956 20.48627,14.96468 h -8.41877 c -1.47889,-4.26697 -5.00641,-7.11565 -12.0069,-7.11565 -7.00048,0 -10.75832,3.13355 -10.75832,7.62478 0,3.70328 2.96384,4.89731 11.55232,6.71561 13.09181,2.90323 20.26201,5.63675 20.26201,15.59502"
     fill="#4272b8"
     id="path2"
     style="fill:#0078ff;fill-opacity:1;stroke-width:6.06103" />
  <path
     d="m 423.09599,199.06752 c 6.83077,0 10.01887,-3.92754 10.01887,-9.1582 0,-5.23673 -3.1881,-9.10972 -10.01887,-9.10972 h -12.57663 v 18.26792 z m -20.94085,25.5533 v -51.78541 h 21.22571 c 11.32806,0 18.21339,6.83077 18.21339,17.0133 0,10.18858 -6.88533,17.24362 -18.21339,17.24362 h -12.86149 v 17.52849 z"
     fill="#4272b8"
     id="path3"
     style="fill:#0078ff;fill-opacity:1;stroke-width:6.06103" />
  <path
     d="m 453.66174,198.72811 c 0,10.81287 7.90963,18.77706 18.43764,18.77706 10.52194,0 18.32248,-7.96419 18.32248,-18.77706 0,-10.81287 -7.90963,-18.78312 -18.32248,-18.78312 -10.41891,0 -18.43764,7.97025 -18.43764,18.78312 z m 45.29405,0 c -0.0545,15.24954 -11.66747,26.80186 -26.85641,26.80186 -15.19499,0 -26.86247,-11.55232 -26.86247,-26.80186 0,-15.24955 11.66748,-26.80186 26.86247,-26.80186 15.18894,0 26.80186,11.55231 26.85641,26.80186 z"
     fill="#4272b8"
     id="path4"
     style="fill:#0078ff;fill-opacity:1;stroke-width:6.06103" />
  <path
     d="m 525.58794,197.92806 c 6.88532,0 10.06736,-3.52752 10.06736,-8.58848 0,-5.06702 -3.24265,-8.47938 -10.06736,-8.47938 h -12.12206 v 17.06786 z m -20.48627,-25.09265 h 21.39542 c 11.26744,0 17.58303,6.65501 17.58303,16.44356 0,8.59453 -4.83669,14.05552 -13.0312,15.59502 l 15.47986,19.74683 h -10.30374 l -14.73435,-19.29225 h -8.08541 v 19.29225 h -8.36422 v -51.78541 z"
     fill="#4272b8"
     id="path5"
     style="fill:#0078ff;fill-opacity:1;stroke-width:6.06103" />
  <path
     d="m 585.56179,180.7996 h -15.81928 v 43.82122 h -8.36422 V 180.7996 h -15.75866 v -7.96419 h 39.94216 z"
     fill="#4272b8"
     id="path6"
     style="fill:#0078ff;fill-opacity:1;stroke-width:6.06103" />
  <path
     d="m 628.47385,209.76524 c 0,11.32806 -10.07342,15.76473 -19.29225,15.76473 -14.51009,0 -20.88628,-7.97025 -22.25002,-16.95876 h 8.41876 c 1.5395,5.97618 5.5216,9.10366 13.77672,9.10366 6.93987,0 10.92197,-2.72746 10.92197,-7.57021 0,-4.83671 -4.21242,-5.6307 -13.8252,-7.73388 -10.07343,-2.22439 -17.92851,-5.01246 -17.92851,-14.74041 0,-10.29768 9.10366,-15.70412 19.00737,-15.70412 13.03121,0 19.00738,6.70956 20.48626,14.96468 h -8.41876 c -1.48495,-4.26697 -5.01247,-7.11565 -12.00689,-7.11565 -7.00049,0 -10.75832,3.13355 -10.75832,7.62478 0,3.70328 2.95778,4.89731 11.55231,6.71561 13.08576,2.90323 20.25596,5.63675 20.25596,15.59502"
     fill="#4272b8"
     id="path7"
     style="fill:#0078ff;fill-opacity:1;stroke-width:6.06103" />
  <path
     d="m 687.71433,212.83818 -0.73946,-18.32248 v -21.68029 h 8.36422 v 51.78541 h -9.90371 l -25.89271,-40.00884 0.80006,18.32854 v 21.6803 h -8.37028 v -51.78541 h 9.84917 z"
     fill="#4272b8"
     id="path8"
     style="fill:#0078ff;fill-opacity:1;stroke-width:6.06103" />
  <path
     d="m 735.74189,180.7996 h -25.43812 v 13.43123 h 23.61982 v 7.97025 h -23.61982 v 14.44948 h 25.43812 v 7.97026 h -33.80234 v -51.78541 h 33.80234 z"
     fill="#4272b8"
     id="path9"
     style="fill:#0078ff;fill-opacity:1;stroke-width:6.06103" />
  <path
     d="m 778.81761,180.7996 h -15.81929 v 43.82122 h -8.36421 V 180.7996 h -15.76473 v -7.96419 h 39.94823 z"
     fill="#4272b8"
     id="path10"
     style="fill:#0078ff;fill-opacity:1;stroke-width:6.06103" />
  <path
     d="m 838.5672,224.62082 h -10.41284 l -4.95187,-18.72251 -5.0064,-23.10463 -1.36373,-0.0546 -4.95186,23.15919 -4.95185,18.72251 h -10.52801 l -13.77065,-51.78541 h 8.59454 l 6.60046,24.75323 3.92754,18.21338 3.92148,-18.21338 6.49136,-24.75323 h 10.64317 l 6.53984,24.75323 3.9821,18.38309 3.92754,-18.38309 6.49136,-24.75323 h 8.58847 z"
     fill="#4272b8"
     id="path11"
     style="fill:#0078ff;fill-opacity:1;stroke-width:6.06103" />
  <path
     d="m 860.99299,198.72811 c 0,10.81287 7.90964,18.77706 18.43765,18.77706 10.528,0 18.32248,-7.96419 18.32248,-18.77706 0,-10.81287 -7.90964,-18.78312 -18.32248,-18.78312 -10.4189,0 -18.43765,7.97025 -18.43765,18.78312 z m 45.29405,0 c -0.0545,15.24954 -11.66747,26.80186 -26.8564,26.80186 -15.19499,0 -26.86247,-11.55232 -26.86247,-26.80186 0,-15.24955 11.66748,-26.80186 26.86247,-26.80186 15.18893,0 26.80186,11.55231 26.8564,26.80186 z"
     fill="#4272b8"
     id="path12"
     style="fill:#0078ff;fill-opacity:1;stroke-width:6.06103" />
  <path
     d="m 932.9192,197.92806 c 6.88531,0 10.07341,-3.52752 10.07341,-8.58848 0,-5.06702 -3.24264,-8.47938 -10.07341,-8.47938 h -12.12206 v 17.06786 z m -20.48627,-25.09265 h 21.39542 c 11.26744,0 17.64364,6.65501 17.64364,16.44356 0,8.59453 -4.83669,14.05552 -13.0312,15.59502 l 15.47986,19.74683 h -10.30374 l -14.74042,-19.29225 h -8.07935 v 19.29225 h -8.36421 z"
     fill="#4272b8"
     id="path13"
     style="fill:#0078ff;fill-opacity:1;stroke-width:6.06103" />
  <path
     d="m 975.8858,198.04321 23.44406,26.57761 h -10.58861 l -21.85001,-24.69869 v 24.69869 h -8.36421 v -51.78541 h 8.36421 v 23.61375 l 20.94085,-23.61375 h 10.47345 z"
     fill="#4272b8"
     id="path14"
     style="fill:#0078ff;fill-opacity:1;stroke-width:6.06103" />
  <path
     d="M 998.76012,258.98683 H 356.06103 v 6.37014 h 642.69909 z"
     fill="#4272b8"
     id="path20"
     style="fill:#0078ff;fill-opacity:1;stroke-width:6.06103" />
  <path
     style="font-size:70.0667px;line-height:0.9;font-family:Stolzl;-inkscape-font-specification:Stolzl;letter-spacing:0px;word-spacing:0px;fill:#0078ff;stroke-width:5;stroke-linecap:round;stroke-linejoin:round;paint-order:markers stroke fill;fill-opacity:1"
     d="m 951.91122,348.84683 h 8.408 l 4.97474,-13.17254 h 21.30024 l 4.9748,13.17254 h 8.408 l -18.9881,-49.04669 h -10.08961 z m 16.25547,-20.66968 7.77741,-20.59961 7.7774,20.59961 z"
     id="path36" />
  <path
     style="font-size:70.0667px;line-height:0.9;font-family:Stolzl;-inkscape-font-specification:Stolzl;letter-spacing:0px;word-spacing:0px;fill:#0078ff;stroke-width:5;stroke-linecap:round;stroke-linejoin:round;paint-order:markers stroke fill;fill-opacity:1"
     d="m 910.27336,348.84683 h 17.16634 c 14.22354,0 25.08388,-10.36987 25.08388,-24.52334 0,-14.22354 -10.79027,-24.52335 -25.08388,-24.52335 h -17.16634 z m 7.91753,-7.5672 v -33.91229 h 9.31887 c 9.87941,0 17.09628,7.00667 17.09628,16.95615 0,10.01953 -7.21687,16.95614 -17.09628,16.95614 z"
     id="path35" />
  <path
     style="font-size:70.0667px;line-height:0.9;font-family:Stolzl;-inkscape-font-specification:Stolzl;letter-spacing:0px;word-spacing:0px;fill:#0078ff;stroke-width:5;stroke-linecap:round;stroke-linejoin:round;paint-order:markers stroke fill;fill-opacity:1"
     d="m 894.40038,348.84683 h 7.91753 v -49.04669 h -7.91753 z"
     id="path34" />
  <path
     style="font-size:70.0667px;line-height:0.9;font-family:Stolzl;-inkscape-font-specification:Stolzl;letter-spacing:0px;word-spacing:0px;fill:#0078ff;stroke-width:5;stroke-linecap:round;stroke-linejoin:round;paint-order:markers stroke fill;fill-opacity:1"
     d="m 851.60145,348.84683 h 7.91754 v -18.28741 h 7.63727 l 13.94327,18.28741 h 9.73927 l -14.64394,-18.70781 c 7.77741,-1.4714 12.33174,-6.65633 12.33174,-14.78407 0,-9.24881 -6.02574,-15.55481 -16.67587,-15.55481 h -20.24928 z m 7.91754,-25.29408 v -16.18541 h 11.49094 c 6.44613,0 9.52907,3.29314 9.52907,8.05767 0,4.76454 -3.01287,8.12774 -9.52907,8.12774 z"
     id="path33" />
  <path
     style="font-size:70.0667px;line-height:0.9;font-family:Stolzl;-inkscape-font-specification:Stolzl;letter-spacing:0px;word-spacing:0px;fill:#0078ff;stroke-width:5;stroke-linecap:round;stroke-linejoin:round;paint-order:markers stroke fill;fill-opacity:1"
     d="m 820.29433,298.95934 c -14.36367,0 -25.43421,10.9304 -25.43421,25.36415 0,14.43374 11.07054,25.36414 25.43421,25.36414 14.36368,0 25.36415,-10.9304 25.43422,-25.36414 -0.0701,-14.43375 -11.07054,-25.36415 -25.43422,-25.36415 z m 0,7.5672 c 9.87941,0 17.37655,7.56721 17.37655,17.79695 0,10.22973 -7.49714,17.79694 -17.37655,17.79694 -9.94947,0 -17.44661,-7.56721 -17.44661,-17.79694 0,-10.22974 7.49714,-17.79695 17.44661,-17.79695 z"
     id="path32" />
  <path
     style="font-size:70.0667px;line-height:0.9;font-family:Stolzl;-inkscape-font-specification:Stolzl;letter-spacing:0px;word-spacing:0px;fill:#0078ff;stroke-width:5;stroke-linecap:round;stroke-linejoin:round;paint-order:markers stroke fill;fill-opacity:1"
     d="m 772.52893,299.80014 h -7.91753 v 49.04669 h 30.26881 v -7.5672 h -22.35128 z"
     id="path31" />
  <path
     style="font-size:70.0667px;line-height:0.9;font-family:Stolzl;-inkscape-font-specification:Stolzl;letter-spacing:0px;word-spacing:0px;fill:#0078ff;stroke-width:5;stroke-linecap:round;stroke-linejoin:round;paint-order:markers stroke fill;fill-opacity:1"
     d="m 759.50845,299.80014 h -32.02049 v 49.04669 h 7.91754 v -20.87988 h 22.35128 v -7.5672 H 735.4055 v -13.03241 h 24.10295 z"
     id="text30" />
</svg>
