<?xml version="1.0" encoding="UTF-8" standalone="no"?>
<!-- Created with Inkscape (http://www.inkscape.org/) -->

<svg
   width="264.3877mm"
   height="92.267937mm"
   viewBox="0 0 264.3877 92.267937"
   version="1.1"
   id="svg1"
   xml:space="preserve"
   xmlns="http://www.w3.org/2000/svg"
   xmlns:svg="http://www.w3.org/2000/svg"><defs
     id="defs1"><filter
       id="Ellipse_34"
       x="0"
       y="0"
       width="261"
       height="261"
       filterUnits="userSpaceOnUse"><feOffset
         dy="2"
         input="SourceAlpha"
         id="feOffset1" /><feGaussianBlur
         stdDeviation="7.5"
         result="blur"
         id="feGaussianBlur1" /><feFlood
         flood-opacity="0.102"
         id="feFlood1" /><feComposite
         operator="in"
         in2="blur"
         id="feComposite1" /><feComposite
         in="SourceGraphic"
         id="feComposite2" /></filter></defs><path
     style="mix-blend-mode:normal;fill:#0078ff;fill-opacity:1;stroke-width:1.60354;filter:url(#filter24)"
     d="m 16.335055,28.983686 c 5.043598,-2.333144 10.358196,-3.747461 15.567281,-4.380858 0.57214,-0.07537 0.79792,0.315897 0.737785,0.768094 -0.662418,4.004027 -1.114136,8.06899 -1.279781,12.180453 -0.04506,0.46663 -0.28607,0.782527 -0.812991,0.872324 -2.905606,0.572463 -5.721093,1.46082 -8.837406,2.875139 2.800255,4.863524 6.187723,9.319747 9.921396,13.052777 0.421569,0.452197 0.677492,0.918827 0.797917,1.672487 0.978639,6.247373 2.664915,12.555683 4.923177,18.532059 0.135498,0.331931 0.135498,0.572461 -0.06029,0.753661 -0.210706,0.195633 -0.541996,0.195633 -0.858051,0 C 13.851017,61.578749 0.24085021,36.917979 0,11.052955 0,10.435594 0.21070358,9.9689646 0.73778532,9.6675 12.721807,2.9534977 26.211389,-0.26800479 39.761263,0.01742427 40.36355,0.03346067 40.574256,0.55941925 40.348476,1.0420835 38.48164,4.9114143 36.915788,8.870543 35.6963,12.81524 c -0.135499,0.466629 -0.421569,0.692727 -0.933419,0.721591 -7.241563,0.376831 -14.287499,2.002816 -20.746378,4.682323 0.466788,3.673699 1.264708,7.272033 2.318552,10.750101"
     id="path23" /><path
     style="mix-blend-mode:normal;fill:#0078ff;fill-opacity:1;stroke-width:1.60354;filter:url(#filter24)"
     d="m 41.342026,13.583336 c -0.451553,-0.0465 -0.7527,-0.452198 -0.617198,-0.904395 1.415118,-4.1242924 3.056178,-8.0240903 4.9081,-11.6368555 0.210703,-0.42172992 0.587055,-0.60292928 1.08399,-0.54199494 C 56.909308,1.6434092 66.559866,4.8649119 75.172132,9.6675 c 0.52596,0.2870329 0.75206,0.753662 0.737627,1.385455 -0.1812,24.47957 -12.436218,47.921653 -33.077245,62.088887 -0.391424,0.270997 -0.903271,0.120266 -1.068916,-0.331931 -1.505562,-4.034496 -2.72505,-8.113889 -3.598175,-12.058586 -0.120425,-0.527563 0,-0.933257 0.406498,-1.250757 C 51.067951,49.654862 59.830149,34.961666 61.922762,18.249621 55.554321,15.629445 48.674033,13.989028 41.3571,13.597765"
     id="path22" /><path
     style="mix-blend-mode:normal;fill:#0078ff;fill-opacity:1;stroke-width:1.60354;filter:url(#filter24)"
     d="m 94.201286,11.008058 c 0,-0.256566 0.1812,-0.436162 0.436163,-0.436162 H 114.3449 c 0.24213,0 0.43776,0.254962 0.34636,0.481061 l -1.77511,4.877954 c -0.10583,0.270998 -0.30147,0.407298 -0.5885,0.407298 h -12.05858 v 5.283649 h 10.05737 c 0.24053,0 0.43616,0.256566 0.34636,0.482664 l -1.73182,4.786552 c -0.10583,0.301467 -0.30146,0.42173 -0.58689,0.42173 h -8.07059 v 8.86755 c 0,0.256567 -0.16517,0.436163 -0.436165,0.436163 h -5.209886 c -0.254963,0 -0.436163,-0.179596 -0.436163,-0.436163 z"
     id="path21" /><path
     style="mix-blend-mode:normal;fill:#0078ff;fill-opacity:1;stroke-width:1.60354;filter:url(#filter24)"
     d="m 127.82101,25.446288 -3.10284,-8.987816 -3.11567,8.987816 z m -7.15177,-14.4687 c 0.10583,-0.270997 0.30147,-0.405694 0.5869,-0.405694 h 6.98499 c 0.30147,0 0.48267,0.120265 0.5885,0.405694 l 9.13855,25.157867 c 0.0898,0.226097 -0.10583,0.48106 -0.34636,0.48106 h -5.52579 c -0.30146,0 -0.46663,-0.134697 -0.57246,-0.420126 l -1.74625,-5.073587 h -10.10227 l -1.74625,5.073587 c -0.0898,0.270996 -0.271,0.420126 -0.57246,0.420126 h -5.45042 c -0.24053,0 -0.43616,-0.254963 -0.34476,-0.48106 l 9.13855,-25.157867 z"
     id="path19" /><path
     style="mix-blend-mode:normal;fill:#0078ff;fill-opacity:1;stroke-width:1.60354;filter:url(#filter24)"
     d="m 140.51139,11.008056 c 0,-0.256566 0.16676,-0.436162 0.43776,-0.436162 h 6.06618 c 0.31589,0 0.49709,0.105833 0.66226,0.376831 l 9.06478,15.416389 V 11.008056 c 0,-0.256566 0.1796,-0.436162 0.43616,-0.436162 h 5.10406 c 0.25496,0 0.43616,0.165164 0.43616,0.436162 v 25.172296 c 0,0.256567 -0.16517,0.436163 -0.43616,0.436163 h -5.99242 c -0.31589,0 -0.49709,-0.10423 -0.66226,-0.375227 L 146.48937,20.70303 v 15.493359 c 0,0.254963 -0.1812,0.43616 -0.43777,0.43616 h -5.10245 c -0.25656,0 -0.43776,-0.181197 -0.43776,-0.43616 z"
     id="path18" /><path
     style="mix-blend-mode:normal;fill:#0078ff;fill-opacity:1;stroke-width:1.60354;filter:url(#filter24)"
     d="m 177.53381,30.851805 c 4.13872,0 7.256,-3.131703 7.256,-7.257601 0,-4.124292 -3.13171,-7.255997 -7.256,-7.255997 h -9.26042 c -0.25496,0 -0.43616,-0.166768 -0.43616,-0.437765 v -4.892386 c 0,-0.256566 0.1812,-0.436162 0.43616,-0.436162 h 9.26042 c 7.61679,0 13.33821,5.585114 13.33821,13.02231 0,7.437198 -5.70538,13.022311 -13.33821,13.022311 h -9.26042 c -0.25496,0 -0.43616,-0.179596 -0.43616,-0.436163 V 24.015934 c 0,-1.625985 0.52756,-2.905606 1.44479,-3.824432 0.82902,-0.827424 2.13911,-1.385454 3.29847,-1.385454 h 0.90279 c 0.25657,0 0.43616,0.166768 0.43616,0.437765 v 11.622425 h 3.61437 z"
     id="path17" /><path
     style="mix-blend-mode:normal;fill:#0078ff;fill-opacity:1;stroke-width:1.60354;filter:url(#filter24)"
     d="m 194.60665,26.334646 v -15.32659 c 0,-0.256566 0.16516,-0.436162 0.43616,-0.436162 h 5.20829 c 0.25656,0 0.43776,0.165164 0.43776,0.436162 v 15.32659 c 0,2.950506 2.06215,4.998219 4.99822,4.998219 2.93607,0 4.99822,-2.047713 4.99822,-4.998219 v -15.32659 c 0,-0.256566 0.16516,-0.436162 0.43616,-0.436162 h 5.20989 c 0.25496,0 0.43616,0.165164 0.43616,0.436162 v 15.32659 c 0,6.383676 -4.51716,10.764533 -11.08043,10.764533 -6.56487,0 -11.08043,-4.380857 -11.08043,-10.764533 z"
     id="path16" /><path
     style="mix-blend-mode:normal;fill:#0078ff;fill-opacity:1;stroke-width:1.60354;filter:url(#filter24)"
     d="m 239.51687,20.643699 c 0.25496,0 0.43616,0.1812 0.43616,0.436162 v 4.833056 c 0,0.256565 -0.16517,0.436161 -0.43616,0.436161 h -11.5182 v 4.51716 h 12.20932 c 0.25656,0 0.43776,0.165164 0.43776,0.436161 v 4.89399 c 0,0.254963 -0.1812,0.43616 -0.43776,0.43616 h -17.85537 c -0.25496,0 -0.43616,-0.181197 -0.43616,-0.43616 V 11.008056 c 0,-0.256566 0.16517,-0.436162 0.43616,-0.436162 h 17.85537 c 0.25656,0 0.43776,0.165164 0.43776,0.436162 v 4.892386 c 0,0.256566 -0.1812,0.437765 -0.43776,0.437765 h -12.20932 v 4.305492 z"
     id="path15" /><path
     style="mix-blend-mode:normal;fill:#0078ff;fill-opacity:1;stroke-width:1.60354;filter:url(#filter24)"
     d="m 251.80155,30.851805 h 11.99925 c 0.25497,0 0.43617,0.165164 0.43617,0.436161 v 4.892386 c 0,0.256567 -0.1812,0.436163 -0.43617,0.436163 h -17.6453 c -0.25656,0 -0.43616,-0.179596 -0.43616,-0.436163 V 11.008056 c 0,-0.256566 0.16516,-0.436162 0.43616,-0.436162 h 5.20989 c 0.25496,0 0.43616,0.165164 0.43616,0.436162 z"
     id="path1" /><path
     d="m 104.81509,55.496539 c 0,2.997009 -2.66508,4.170796 -5.104055,4.170796 -3.838863,0 -5.52418,-2.10865 -5.886579,-4.486693 h 2.228913 c 0.405696,1.581087 1.460823,2.40851 3.643233,2.40851 1.836048,0 2.891178,-0.72159 2.891178,-2.002814 0,-1.279623 -1.11446,-1.489686 -3.659271,-2.046113 -2.665077,-0.588496 -4.741654,-1.326123 -4.741654,-3.899796 0,-2.724407 2.40851,-4.15476 5.027084,-4.15476 3.447601,0 5.028691,1.775113 5.419951,3.959129 h -2.22731 c -0.39126,-1.12889 -1.32452,-1.882552 -3.176608,-1.882552 -1.852083,0 -2.846273,0.829029 -2.846273,2.017249 0,0.97976 0.784127,1.295657 3.056337,1.776717 3.463634,0.768093 5.360624,1.491287 5.360624,4.125896"
     fill="#4272b8"
     id="path2"
     style="fill:#0078ff;fill-opacity:1;stroke-width:1.60354" /><path
     d="m 111.93639,52.666299 c 1.80718,0 2.65064,-1.03909 2.65064,-2.422941 0,-1.385456 -0.84346,-2.410113 -2.65064,-2.410113 h -3.32734 v 4.833054 z m -5.54022,6.760506 V 45.726199 h 5.61558 c 2.99701,0 4.81863,1.807183 4.81863,4.501123 0,2.695543 -1.82162,4.56206 -4.81863,4.56206 h -3.4027 v 4.637423 z"
     fill="#4272b8"
     id="path3"
     style="fill:#0078ff;fill-opacity:1;stroke-width:1.60354" /><path
     d="m 120.02302,52.576502 c 0,2.860707 2.09261,4.967753 4.87795,4.967753 2.78374,0 4.84749,-2.107046 4.84749,-4.967753 0,-2.860707 -2.09262,-4.969357 -4.84749,-4.969357 -2.75648,0 -4.87795,2.10865 -4.87795,4.969357 z m 11.98322,0 c -0.0144,4.034493 -3.08681,7.090833 -7.10527,7.090833 -4.02006,0 -7.10687,-3.05634 -7.10687,-7.090833 0,-4.034496 3.08681,-7.090833 7.10687,-7.090833 4.01846,0 7.09083,3.056337 7.10527,7.090833 z"
     fill="#4272b8"
     id="path4"
     style="fill:#0078ff;fill-opacity:1;stroke-width:1.60354" /><path
     d="m 139.05217,52.364835 c 1.82162,0 2.66347,-0.933257 2.66347,-2.27221 0,-1.340556 -0.85789,-2.243346 -2.66347,-2.243346 h -3.20707 v 4.515556 z m -5.41995,-6.638636 h 5.66048 c 2.98097,0 4.65186,1.760683 4.65186,4.35039 0,2.273813 -1.27963,3.718599 -3.44761,4.125896 l 4.09543,5.22432 h -2.72601 l -3.89819,-5.104053 h -2.13912 v 5.104053 h -2.21287 V 45.726199 Z"
     fill="#4272b8"
     id="path5"
     style="fill:#0078ff;fill-opacity:1;stroke-width:1.60354" /><path
     d="m 154.91915,47.833245 h -4.18523 v 11.59356 h -2.21287 v -11.59356 h -4.1692 v -2.107046 h 10.5673 z"
     fill="#4272b8"
     id="path6"
     style="fill:#0078ff;fill-opacity:1;stroke-width:1.60354" /><path
     d="m 166.27218,55.496539 c 0,2.997009 -2.66507,4.170796 -5.10405,4.170796 -3.83887,0 -5.52578,-2.10865 -5.88658,-4.486693 h 2.22731 c 0.4073,1.581087 1.46082,2.40851 3.64484,2.40851 1.83604,0 2.88957,-0.72159 2.88957,-2.002814 0,-1.279623 -1.11446,-1.489686 -3.65767,-2.046113 -2.66507,-0.588496 -4.74325,-1.326123 -4.74325,-3.899796 0,-2.724407 2.40851,-4.15476 5.02868,-4.15476 3.4476,0 5.02869,1.775113 5.41995,3.959129 h -2.22731 c -0.39287,-1.12889 -1.32612,-1.882552 -3.1766,-1.882552 -1.85209,0 -2.84628,0.829029 -2.84628,2.017249 0,0.97976 0.78253,1.295657 3.05634,1.776717 3.46203,0.768093 5.35902,1.491287 5.35902,4.125896"
     fill="#4272b8"
     id="path7"
     style="fill:#0078ff;fill-opacity:1;stroke-width:1.60354" /><path
     d="m 181.94514,56.309532 -0.19564,-4.847487 v -5.735846 h 2.21288 v 13.700606 h -2.62017 l -6.85031,-10.584937 0.21167,4.849091 v 5.735846 h -2.21448 V 45.726199 h 2.60574 z"
     fill="#4272b8"
     id="path8"
     style="fill:#0078ff;fill-opacity:1;stroke-width:1.60354" /><path
     d="m 194.65155,47.833245 h -6.73004 v 3.553433 h 6.24898 v 2.10865 h -6.24898 v 3.822827 h 6.73004 v 2.10865 h -8.94292 V 45.726199 h 8.94292 z"
     fill="#4272b8"
     id="path9"
     style="fill:#0078ff;fill-opacity:1;stroke-width:1.60354" /><path
     d="m 206.04788,47.833245 h -4.18523 v 11.59356 h -2.21288 v -11.59356 h -4.1708 v -2.107046 h 10.56891 z"
     fill="#4272b8"
     id="path10"
     style="fill:#0078ff;fill-opacity:1;stroke-width:1.60354" /><path
     d="m 221.85553,59.426805 h -2.75488 l -1.31009,-4.95332 -1.32452,-6.112677 -0.36079,-0.01445 -1.31009,6.12711 -1.31009,4.95332 h -2.78534 L 207.0565,45.726185 h 2.27381 l 1.74625,6.54884 1.03909,4.818623 1.03749,-4.818623 1.71739,-6.54884 h 2.81581 l 1.73021,6.54884 1.05352,4.86352 1.03909,-4.86352 1.71739,-6.54884 h 2.27221 z"
     fill="#4272b8"
     id="path11"
     style="fill:#0078ff;fill-opacity:1;stroke-width:1.60354" /><path
     d="m 227.78861,52.576502 c 0,2.860707 2.09261,4.967753 4.87795,4.967753 2.78534,0 4.84749,-2.107046 4.84749,-4.967753 0,-2.860707 -2.09261,-4.969357 -4.84749,-4.969357 -2.75647,0 -4.87795,2.10865 -4.87795,4.969357 z m 11.98322,0 c -0.0144,4.034493 -3.08681,7.090833 -7.10527,7.090833 -4.02006,0 -7.10687,-3.05634 -7.10687,-7.090833 0,-4.034496 3.08681,-7.090833 7.10687,-7.090833 4.01846,0 7.09084,3.056337 7.10527,7.090833 z"
     fill="#4272b8"
     id="path12"
     style="fill:#0078ff;fill-opacity:1;stroke-width:1.60354" /><path
     d="m 246.81776,52.364835 c 1.82162,0 2.66508,-0.933257 2.66508,-2.27221 0,-1.340556 -0.85789,-2.243346 -2.66508,-2.243346 h -3.20707 v 4.515556 z m -5.41995,-6.638636 h 5.66048 c 2.98097,0 4.66789,1.760683 4.66789,4.35039 0,2.273813 -1.27962,3.718599 -3.4476,4.125896 l 4.09543,5.22432 H 249.648 l -3.8998,-5.104053 h -2.13751 v 5.104053 h -2.21288 z"
     fill="#4272b8"
     id="path13"
     style="fill:#0078ff;fill-opacity:1;stroke-width:1.60354" /><path
     d="m 258.18522,52.395302 6.20248,7.031503 h -2.80138 l -5.78074,-6.534407 v 6.534407 H 253.5927 V 45.726199 h 2.21288 v 6.247373 l 5.54021,-6.247373 h 2.77091 z"
     fill="#4272b8"
     id="path14"
     style="fill:#0078ff;fill-opacity:1;stroke-width:1.60354" /><path
     d="M 264.23697,68.518849 H 94.201286 v 1.685316 H 264.23697 Z"
     fill="#4272b8"
     id="path20"
     style="fill:#0078ff;fill-opacity:1;stroke-width:1.60354" /><path
     style="font-size:18.5385px;line-height:0.9;font-family:Stolzl;-inkscape-font-specification:Stolzl;letter-spacing:0px;word-spacing:0px;opacity:1;fill:#0078ff;fill-opacity:1;stroke-width:1.29055;stroke-linecap:round;stroke-linejoin:round;paint-order:markers stroke fill"
     d="m 258.35671,84.599936 c -2.09782,-0.452123 -2.82122,-0.741481 -2.82122,-1.645725 0,-1.10318 0.92233,-1.862746 2.62231,-1.862746 1.69998,0 2.56805,0.687227 2.92974,1.73615 h 2.0617 c -0.3617,-2.007422 -1.82658,-3.653148 -5.00953,-3.653148 -2.42337,0 -4.64782,1.320197 -4.64782,3.833999 0,2.36912 1.91701,3.056346 4.37653,3.598893 2.35106,0.524463 3.3819,0.723397 3.3819,1.898915 0,1.175519 -0.97659,1.844659 -2.67657,1.844659 -2.00742,0 -2.98401,-0.759565 -3.3638,-2.224442 h -2.06168 c 0.34362,2.188273 1.89893,4.141443 5.44356,4.141443 2.26061,0 4.72016,-1.085095 4.72016,-3.852085 0,-2.441461 -1.75423,-3.110602 -4.95528,-3.815913 z"
     id="path32" /><path
     style="font-size:18.5385px;line-height:0.9;font-family:Stolzl;-inkscape-font-specification:Stolzl;letter-spacing:0px;word-spacing:0px;opacity:1;fill:#0078ff;fill-opacity:1;stroke-width:1.29055;stroke-linecap:round;stroke-linejoin:round;paint-order:markers stroke fill"
     d="m 243.45335,79.391485 h -2.40529 v 12.65943 h 2.04359 v -5.298876 l -0.19894,-4.485055 6.32972,9.783931 h 2.42338 v -12.65943 h -2.0436 v 5.298876 l 0.18085,4.485053 z"
     id="path31" /><path
     style="font-size:18.5385px;line-height:0.9;font-family:Stolzl;-inkscape-font-specification:Stolzl;letter-spacing:0px;word-spacing:0px;opacity:1;fill:#0078ff;fill-opacity:1;stroke-width:1.29055;stroke-linecap:round;stroke-linejoin:round;paint-order:markers stroke fill"
     d="m 227.33856,92.050915 h 2.17019 l 1.28403,-3.399962 h 5.4978 l 1.28404,3.399962 h 2.17019 l -4.90102,-12.65943 h -2.60422 z m 4.19571,-5.335046 2.00741,-5.31696 2.00742,5.31696 z"
     id="path30" /><path
     style="font-size:18.5385px;line-height:0.9;font-family:Stolzl;-inkscape-font-specification:Stolzl;letter-spacing:0px;word-spacing:0px;opacity:1;fill:#0078ff;fill-opacity:1;stroke-width:1.29055;stroke-linecap:round;stroke-linejoin:round;paint-order:markers stroke fill"
     d="m 226.6823,79.391485 h -8.26482 v 12.65943 h 8.26482 v -1.95317 h -6.22122 V 86.57119 h 5.76908 v -1.95317 h -5.76908 v -3.273365 h 6.22122 z"
     id="path29" /><path
     style="font-size:18.5385px;line-height:0.9;font-family:Stolzl;-inkscape-font-specification:Stolzl;letter-spacing:0px;word-spacing:0px;opacity:1;fill:#0078ff;fill-opacity:1;stroke-width:1.29055;stroke-linecap:round;stroke-linejoin:round;paint-order:markers stroke fill"
     d="m 211.29993,79.391485 h -2.0436 v 12.65943 h 7.81267 v -1.95317 h -5.76907 z"
     id="path28" /><path
     style="font-size:18.5385px;line-height:0.9;font-family:Stolzl;-inkscape-font-specification:Stolzl;letter-spacing:0px;word-spacing:0px;opacity:1;fill:#0078ff;fill-opacity:1;stroke-width:1.29055;stroke-linecap:round;stroke-linejoin:round;paint-order:markers stroke fill"
     d="m 197.90568,92.050915 h 2.0436 v -4.720159 h 1.97126 l 3.59889,4.720159 h 2.51379 l -3.77973,-4.828668 c 2.00742,-0.379784 3.18293,-1.718066 3.18293,-3.815915 0,-2.387206 -1.55528,-4.014847 -4.3042,-4.014847 h -5.22654 z m 2.0436,-6.52865 v -4.17761 h 2.96592 c 1.66382,0 2.45954,0.84999 2.45954,2.079762 0,1.229773 -0.77764,2.097848 -2.45954,2.097848 z"
     id="path27" /><path
     style="font-size:18.5385px;line-height:0.9;font-family:Stolzl;-inkscape-font-specification:Stolzl;letter-spacing:0px;word-spacing:0px;opacity:1;fill:#0078ff;fill-opacity:1;stroke-width:1.29055;stroke-linecap:round;stroke-linejoin:round;paint-order:markers stroke fill"
     d="m 189.59308,79.174467 c -3.7074,0 -6.56481,2.821244 -6.56481,6.546732 0,3.72549 2.85741,6.546735 6.56481,6.546735 3.70741,0 6.54674,-2.821245 6.56483,-6.546735 -0.018,-3.725488 -2.85742,-6.546732 -6.56483,-6.546732 z m 0,1.953169 c 2.54998,0 4.48505,1.953168 4.48505,4.593563 0,2.640396 -1.93507,4.593565 -4.48505,4.593565 -2.56806,0 -4.50315,-1.953169 -4.50315,-4.593565 0,-2.640395 1.93509,-4.593563 4.50315,-4.593563 z"
     id="path26" /><path
     style="font-size:18.5385px;line-height:0.9;font-family:Stolzl;-inkscape-font-specification:Stolzl;letter-spacing:0px;word-spacing:0px;opacity:1;fill:#0078ff;fill-opacity:1;stroke-width:1.29055;stroke-linecap:round;stroke-linejoin:round;paint-order:markers stroke fill"
     d="m 177.38999,79.391485 h -2.09785 l -1.59148,6.058441 -0.9585,4.485056 -0.97658,-4.485056 -1.59146,-6.058441 h -2.60423 l -1.59148,6.058441 -0.95849,4.448885 -0.95851,-4.448885 -1.60955,-6.058441 H 160.354 l 3.3638,12.65943 h 2.56806 l 1.21169,-4.57548 1.21167,-5.660574 0.32554,0.01809 1.22978,5.642489 1.21168,4.57548 h 2.54998 z"
     id="path25" /><path
     style="font-size:18.5385px;line-height:0.9;font-family:Stolzl;-inkscape-font-specification:Stolzl;letter-spacing:0px;word-spacing:0px;opacity:1;fill:#0078ff;fill-opacity:1;stroke-width:1.29055;stroke-linecap:round;stroke-linejoin:round;paint-order:markers stroke fill"
     d="m 159.654,79.391485 h -8.2648 v 12.65943 h 8.2648 v -1.95317 h -6.2212 V 86.57119 h 5.76907 v -1.95317 h -5.76907 v -3.273365 h 6.2212 z"
     id="path24" /><path
     style="font-size:18.5385px;line-height:0.9;font-family:Stolzl;-inkscape-font-specification:Stolzl;letter-spacing:0px;word-spacing:0px;opacity:1;fill:#0078ff;fill-opacity:1;stroke-width:1.29055;stroke-linecap:round;stroke-linejoin:round;paint-order:markers stroke fill"
     d="m 140.94149,79.391485 h -2.4053 v 12.65943 h 2.04361 v -5.298876 l -0.19893,-4.485055 6.32971,9.783931 h 2.42337 v -12.65943 h -2.0436 v 5.298876 l 0.18086,4.485053 z"
     id="text1" /></svg>
