<?xml version="1.0" encoding="utf-8"?>
<!-- Generator: Adobe Illustrator 16.0.0, SVG Export Plug-In . SVG Version: 6.00 Build 0)  -->
<!DOCTYPE svg PUBLIC "-//W3C//DTD SVG 1.1//EN" "http://www.w3.org/Graphics/SVG/1.1/DTD/svg11.dtd">
<svg version="1.1" id="Layer_1" xmlns="http://www.w3.org/2000/svg" xmlns:xlink="http://www.w3.org/1999/xlink" x="0px" y="0px"
	 width="1000px" height="160.352px" viewBox="0 0 1000 160.352" enable-background="new 0 0 1000 160.352" xml:space="preserve">
<g>
	<rect x="8.487" y="13.557" fill="#FFFFFF" width="977.854" height="133.606"/>
	<polygon fill="#293F76" points="40.948,133.466 40.948,27.329 104.855,27.329 106.824,56.372 71.046,56.372 71.046,70.208 
		100.192,70.208 100.192,99.15 70.843,99.15 70.843,133.466 	"/>
	<polygon fill="#293F76" points="288.049,133.313 256.096,78.251 285.139,27.493 253.135,27.493 239.858,50.363 226.823,27.493 
		193.727,27.493 223.342,78.594 191.961,133.391 224.117,133.365 239.464,106.545 254.978,133.313 	"/>
	<path fill="#293F76" d="M106.011,80.551c0-28.497,22.64-51.597,50.553-51.597c27.952,0,50.592,23.1,50.592,51.597
		c0,28.483-22.64,51.595-50.592,51.595C128.651,132.146,106.011,109.034,106.011,80.551 M165.673,101.729V59.345
		c0-4.839-4.218-9.185-8.944-9.185c-4.739,0-8.588,4.346-8.588,9.185v42.258c0,4.827,3.849,8.766,8.588,8.766
		C161.455,110.368,165.673,106.57,165.673,101.729"/>
	<polygon fill="#293F76" points="350.405,47.656 350.405,113.05 366.514,113.05 370.834,108.87 370.834,51.824 366.514,47.656 	"/>
	<polygon fill="#293F76" points="607.072,47.656 602.752,51.824 602.752,108.87 607.072,113.05 619.51,113.05 623.982,108.87 
		623.982,51.824 619.51,47.656 	"/>
	<polygon fill="#293F76" points="516.422,46.259 516.422,78.657 533.179,78.657 537.156,74.77 537.156,50.134 533.179,46.259 	"/>
	<polygon fill="#293F76" points="691.268,46.106 691.268,73.537 709.118,73.537 713.134,69.814 713.134,49.854 709.118,46.106 	"/>
	<path fill="#293F76" d="M0,160.338h999.962V0H0V160.338z M297.59,147.175H20.392V13.557H297.59V147.175z M398.1,118.945
		l-15.297,14.877h-59.586h-0.076V26.936v-0.026h59.663L398.1,41.761V118.945z M473.847,133.721v0.102h-62.737h-0.101V26.986
		l0.025-0.077h62.497v21.828h-35.257v19.539h31.75v21.865h-31.75v21.828h35.574V133.721z M564.446,83.142l-15.298,14.877h-32.74
		v35.804H489.22h-0.077V26.936v-0.026h60.005l15.298,14.852V83.142z M651.094,118.945l-15.322,14.877h-44.963l-15.334-14.877V41.761
		l15.334-14.852h44.963l15.322,14.852V118.945z M714.557,133.822L702.118,92.9h-10.851v40.922H664.08h-0.077V26.909h61.403
		l15.018,14.547v36.108l-12.285,11.918l14.178,44.34H714.557z M819.729,49.829h-22.944v83.993h-27.139V49.829h-22.983v-22.92h72.99
		h0.076V49.829z M892.452,133.822h-62.763h-0.076V26.909h62.496v21.828h-35.231v19.539h31.725v21.865h-31.725v21.828h35.574V133.822
		z M979.773,119.25l-15.018,14.572h-59.738h-0.076v-12.413l8.297-8.221h35.752l3.519-3.404V93.991l-2.732-2.629h-31.749
		l-12.591-12.096V41.456l14.992-14.547h59.015v10.824l-10.367,9.606h-32.855l-3.519,3.43v15.462l2.706,2.643h31.75l12.615,12.108
		V119.25z"/>
	<rect y="0.051" fill="none" width="1000" height="160.301"/>
</g>
</svg>
