<?xml version="1.0" encoding="utf-8"?>
<!-- Generator: Adobe Illustrator 26.2.1, SVG Export Plug-In . SVG Version: 6.00 Build 0)  -->
<svg version="1.1" id="Layer_1" xmlns="http://www.w3.org/2000/svg" xmlns:xlink="http://www.w3.org/1999/xlink" x="0px" y="0px"
	 viewBox="0 0 1141 137" style="enable-background:new 0 0 1141 137;" xml:space="preserve">
<style type="text/css">
	.st0{fill:#1B87C8;}
	.st1{fill:#FFFFFF;}
	.st2{fill:#6361AA;}
	.st3{fill:#C7224C;}
	.st4{fill:#F16F26;}
	.st5{fill:#1AAF4B;}
	.st6{fill:#FAB516;}
</style>
<g>
	<g>
		<g>
			<path class="st0" d="M903.6,122.4c-4.1,0-8.3-3-9.7-7.1l-5.6-15.7H849l-8.2,22.8h-16c-5.3,0-6.3-3.1-4.4-8.2l37.8-101.7h12.1
				c5.6,0,10.5,3.5,12.4,8.5l37.7,101.4H903.6z M868.8,44.4l-13.2,36.7h26.2L868.8,44.4z"/>
			<path class="st0" d="M1009,40.4c-3,2.3-6.6,2.8-10-0.4c-3-3-8.5-9.5-18-9.5c-8.1,0-13.1,4.4-13.1,10.6c0,19.1,52.1,14,52.1,50
				c0,21.6-18.9,32.6-37.7,32.6c-19.3,0-34.7-11-41.7-23.5l10-8.7c2.5-2.1,6.8-1.9,9.7,1.1c4.7,4.9,11.2,11.9,21.6,11.9
				c9.3,0,15.9-5.5,15.9-12.9c0-20.8-52.1-13.6-52.1-49.4c0-21.4,18.6-30.7,34.7-30.7c16.5,0,29.7,9.1,37.7,21.8L1009,40.4z"/>
			<path class="st0" d="M1117,40.4c-3,2.3-6.6,2.8-10-0.4c-3-3-8.5-9.5-18-9.5c-8.1,0-13.1,4.4-13.1,10.6c0,19.1,52.1,14,52.1,50
				c0,21.6-18.9,32.6-37.7,32.6c-19.3,0-34.7-11-41.7-23.5l10-8.7c2.5-2.1,6.8-1.9,9.7,1.1c4.7,4.9,11.2,11.9,21.6,11.9
				c9.3,0,15.9-5.5,15.9-12.9c0-20.8-52.1-13.6-52.1-49.4c0-21.4,18.6-30.7,34.7-30.7c16.5,0,29.7,9.1,37.7,21.8L1117,40.4z"/>
			<path class="st0" d="M736.9,122.4c-4.1,0-7.1-3-7.1-7.1V12.5H776c20.4,0,35.9,15.5,35.9,36.6c0,21-15.5,36.6-35.9,36.6h-23.5
				v36.7L736.9,122.4L736.9,122.4z M773.5,64.9c8.6,0,15.2-6.6,15.2-15.9c0-9.3-6.6-15.9-15.2-15.9h-21v31.7L773.5,64.9L773.5,64.9z
				"/>
		</g>
		<path class="st1" d="M283,78.8l7.1-16.2c0.8-1.7,3-3.1,5-3.1H340c0,0,0.6,3.1,0.6,8c0,31.1-25.1,56.2-56.3,56.2S228,98.6,228,67.5
			s25-56.2,56.7-56.2c19,0,32.6,8.9,39.1,14.6l-8,13.8c-0.3,0.6-3,3.5-6.3,1.3c-6.1-4.1-14.8-9.1-25.3-9.1c-18.5,0-33,16-33,35.6
			s14.3,35.6,33.4,35.6c15.4,0,28.1-10.2,32.6-24.3L283,78.8L283,78.8z"/>
		<path class="st1" d="M420.9,123.7c-31.2,0-56.3-25.1-56.3-56.2s25.1-56.2,56.3-56.2s56.3,25.1,56.3,56.2
			C477.3,98.6,452.2,123.7,420.9,123.7z M454.1,67.5c0-19.6-14.4-35.6-33.1-35.6c-18.7,0-33.1,16-33.1,35.6s14.4,35.6,33.1,35.6
			C439.6,103.1,454.1,87.1,454.1,67.5z"/>
		<path class="st1" d="M521.1,122.4c-7.2,0-12.9-5.6-12.9-12.9v-97h15.5c4.1,0,7.1,3,7.1,7.1v82.1h41.7c2,0,4.2,1.3,5,3l8.3,17.7
			L521.1,122.4L521.1,122.4z"/>
		<path class="st1" d="M619.3,122.4v-97c0-7.1,5.8-12.9,12.9-12.9H697l-8.3,17.7c-0.8,1.7-3,3-5,3h-42v26.1h48.9l-7.2,16.2
			c-0.8,1.7-3,3-5,3h-36.6v37.2c0,3.8-3.1,6.7-6.9,6.7H619.3z"/>
	</g>
	<g>
		<g>
			<path class="st1" d="M107.8,19.4c2.7-4.5,7.3-9.2,12.3-11.2c8.5-3.9,19.8-2.2,26.8,3.9c6.7,6.1,10.1,14.4,8.5,23.7
				c1.7-0.3,3.3-1.4,5-2c10.4-2.9,21.4,0.3,28,9.2c5,6.3,6.3,16.2,3.3,23.9c-1.5,3.9-4,7.4-7.3,10.3l0.3,0.3
				c9.7,0.5,19.2,8,22.1,17.2c3.2,9.3,0.4,19.2-6.4,26c-5.5,5.5-12.7,7.4-20.6,7.2h-144c-11.8,0.3-21-5-25.9-15.5
				c-3.8-9-2-20.6,5.3-27.4c4.5-4.8,10.2-6.7,16.4-7.7c-6.9-6.4-10.3-15.3-8.4-24.7c1.4-7.7,7.9-15.4,15.4-18.1
				c6.6-2.6,15.6-2.2,21.6,1.4l0.2-0.3C58.6,25.2,63.2,15.7,71.8,10c7.7-5.2,20.1-5.1,27.6,0.5C102.9,12.5,105.7,16.1,107.8,19.4"/>
			<path class="st2" d="M148.5,23.3c3.1,6.2,1.3,14.4-2,20l-25,56.2l-0.2,0.2l-9.1-57c-0.7-5.5,5.2-7.8,8.6-10.4
				c-0.2-0.8-1.1-0.8-1.6-1.1l-8.4-0.1l-0.2-0.3c0-7.1,3.9-13.6,10.3-17c6.7-3.9,16.2-2.8,22.1,2.2C145.4,18,147.4,20.5,148.5,23.3"
				/>
			<path class="st3" d="M102.5,21.3c2,3.8,3.2,8.1,2.5,12.8L94.8,99.4c0,0.1,0,0.2-0.1,0.2l-2.6-5.2l-25.5-57
				c-2.4-7.4-0.2-15,5.2-20.3c5.4-5.5,14.3-7,21.3-4C96.7,14.7,100.3,17.7,102.5,21.3"/>
			<path class="st0" d="M185.5,48.8c3.4,5.9,2.7,14.7-1.1,20.1c-2.4,3.8-6.3,5.7-9.6,8.2l-52.9,36.3h-0.1l0.6-1.7l28-63.3
				c4.2-7.5,12.2-11.3,20.7-10.1C176.9,39.4,182.6,43.2,185.5,48.8"/>
			<path class="st4" d="M65.3,48.5l29.2,65H94L35.2,73c-6-5-8.4-12.6-6.4-20.2c1.5-5.7,6.3-11.1,11.9-13.2
				C50,36.1,60.4,39.7,65.3,48.5"/>
			<path class="st5" d="M200.8,94.7c2.9,6.2,1.8,14.7-2.4,19.9c-4.1,5.1-9.7,7.8-16.2,7.6l-62.7,0.1L172,85.8
				c5.2-3.3,12.9-3.9,18.5-1.2C194.8,86.2,198.9,90.4,200.8,94.7"/>
			<path class="st6" d="M15.1,94.7c-2.9,6.2-1.8,14.7,2.4,19.9c4.2,5.1,9.7,7.8,16.2,7.6l62.7,0.1L43.9,85.8
				c-5.1-3.3-12.9-3.9-18.5-1.2C21.1,86.2,17,90.4,15.1,94.7"/>
		</g>
	</g>
</g>
</svg>
