<?xml version="1.0" encoding="UTF-8" standalone="no"?>
<!-- Created with Inkscape (http://www.inkscape.org/) -->

<svg
   width="382.99417"
   height="395"
   id="svg2"
   version="1.1"
   sodipodi:docname="MLB_Network.svg"
   inkscape:version="1.1.2 (b8e25be833, 2022-02-05)"
   xmlns:inkscape="http://www.inkscape.org/namespaces/inkscape"
   xmlns:sodipodi="http://sodipodi.sourceforge.net/DTD/sodipodi-0.dtd"
   xmlns="http://www.w3.org/2000/svg"
   xmlns:svg="http://www.w3.org/2000/svg">
  <defs
     id="defs149" />
  <sodipodi:namedview
     id="namedview147"
     pagecolor="#ffffff"
     bordercolor="#111111"
     borderopacity="1"
     inkscape:pageshadow="0"
     inkscape:pageopacity="0"
     inkscape:pagecheckerboard="1"
     showgrid="false"
     inkscape:zoom="1.0911392"
     inkscape:cx="191.08469"
     inkscape:cy="197.5"
     inkscape:window-width="1128"
     inkscape:window-height="682"
     inkscape:window-x="-6"
     inkscape:window-y="-6"
     inkscape:window-maximized="1"
     inkscape:current-layer="layer1" />
  <g
     inkscape:label="Layer 1"
     inkscape:groupmode="layer"
     id="layer1"
     transform="translate(-532.0772,48.131147)">
    <path
       id="path28053-7"
       d="M 915.07138,156.49571 721.39451,346.86885 532.0772,156.49571 V -48.131147 H 915.07138 V 156.49571"
       style="fill:#c11e24;fill-rule:nonzero;stroke:none"
       clip-path="none" />
    <path
       id="path28055-4"
       d="M 907.62947,155.16741 721.46263,338.16676 539.53614,155.16741 V -41.506659 H 907.62947 V 155.16741"
       style="fill:#ffffff;fill-rule:nonzero;stroke:none"
       clip-path="none" />
    <path
       id="path28057-0"
       d="M 897.99076,152.69812 721.56481,326.10985 549.15783,152.69812 V -33.673074 H 897.99076 V 152.69812"
       style="fill:#191c40;fill-rule:nonzero;stroke:none"
       clip-path="none" />
    <path
       id="path28059-9"
       d="m 784.40378,252.89989 -63.29877,62.24294 -61.86829,-62.24294 h 125.16706"
       style="fill:#ffffff;fill-rule:nonzero;stroke:none"
       clip-path="none" />
    <path
       id="path28061-4"
       d="M 773.02805,257.3446 721.58184,307.90528 671.32769,257.3446 H 773.02805"
       style="fill:#c11e24;fill-rule:nonzero;stroke:none"
       clip-path="none" />
    <path
       id="path28063-8"
       d="m 684.09984,75.70761 h -40.1897 l 0.13624,-50.816123 -20.09485,38.112092 -19.90752,-38.112092 -0.0851,50.816123 h -40.12158 l 0.0681,-94.990729 h 40.15564 l 19.94158,38.214269 20.04376,-38.214269 h 40.07049 l -0.017,94.990729"
       style="fill:#ffffff;fill-rule:nonzero;stroke:none"
       clip-path="none" />
    <path
       id="path28065-8"
       d="m 778.39236,75.70761 h -86.42488 l -0.20435,-94.871523 40.42811,-0.119206 -0.0341,74.657468 h 46.30329 l -0.0681,20.333261"
       style="fill:#ffffff;fill-rule:nonzero;stroke:none"
       clip-path="none" />
    <path
       id="path28067-2"
       d="M 845.38653,10.092823 845.04594,7.5724526 C 843.92199,3.2810105 839.64758,1.152319 832.27379,1.152319 h -5.79004 l -0.0681,17.898038 h 5.79004 c 8.75318,0 13.12977,-2.997197 13.18085,-8.957534 m -0.0851,33.667385 -0.4598,-3.967881 c -1.36236,-5.0748 -5.56866,-7.62923 -12.63591,-7.62923 h -5.79004 l 0.034,23.211252 h 5.75599 c 8.77021,0 13.12977,-3.865704 13.09571,-11.614141 m 40.24078,6.879931 c -0.0511,16.723 -8.83833,25.084501 -26.36171,25.084501 H 786.26 l 0.0851,-94.99073 h 72.92045 c 14.25372,0 22.70037,4.972623 25.32292,14.9178702 0.59603,2.2649277 0.88553,4.7512394 0.8685,7.4929941 0,14.9519287 -6.42013,22.4278937 -19.27743,22.4278937 9.58763,0 15.58202,4.615003 18.03428,13.862039 0.85147,3.184522 1.27721,6.91399 1.3283,11.205432"
       style="fill:#ffffff;fill-rule:nonzero;stroke:none"
       clip-path="none" />
    <path
       id="path28069-4"
       d="M 602.32402,111.63992 H 590.89721 L 578.3805,99.71925 c -1.6178,-1.515628 -3.23561,-3.371847 -4.87044,-5.568657 0.73227,1.737013 1.10692,3.218582 1.10692,4.427679 V 111.63992 H 563.22422 V 84.682173 h 13.266 l 10.66049,9.877129 c 2.12869,1.958396 3.72947,3.678379 4.81936,5.176978 -0.71524,-2.316017 -1.07286,-4.666092 -1.07286,-7.084286 v -7.969821 h 11.42681 v 26.957747"
       style="fill:#ffffff;fill-rule:nonzero;stroke:none"
       clip-path="none" />
    <path
       id="path28071-5"
       d="m 644.71053,105.18573 v 6.45419 H 610.31087 V 84.682173 h 34.39966 v 6.21578 h -20.63979 v 3.916792 h 16.68894 v 5.977365 h -16.68894 v 4.39362 h 20.63979"
       style="fill:#ffffff;fill-rule:nonzero;stroke:none"
       clip-path="none" />
    <path
       id="path28073-5"
       d="M 673.16688,91.136366 V 111.63992 H 659.88384 V 91.136366 h -9.48545 v -6.454193 h 32.27097 v 6.454193 h -9.50248"
       style="fill:#ffffff;fill-rule:nonzero;stroke:none"
       clip-path="none" />
    <path
       id="path28075-1"
       d="M 748.33523,84.665144 736.2102,111.62289 h -11.80146 l -6.4031,-14.866778 -6.02846,14.866778 H 699.68186 L 687.52277,84.665144 h 13.21492 l 6.38607,15.513906 6.24984,-15.513906 h 11.01811 l 6.79478,15.547966 6.40311,-15.547966 h 10.74563"
       style="fill:#ffffff;fill-rule:nonzero;stroke:none"
       clip-path="none" />
    <path
       id="path28077-7"
       d="m 771.39322,105.93503 c 2.3671,0 4.07006,-0.61306 5.10886,-1.83919 1.0388,-1.2091 1.56671,-3.43997 1.56671,-6.692606 0,-4.666092 -2.14572,-7.016167 -6.4031,-7.016167 -4.59797,0 -6.89696,2.673636 -6.89696,8.020909 0,5.006684 2.19681,7.527054 6.62449,7.527054 m 0.0681,6.13063 c -6.43717,0 -11.68226,-1.26018 -15.73529,-3.78056 -4.05303,-2.52037 -6.07954,-5.87518 -6.07954,-10.098508 0,-4.035999 1.94136,-7.356757 5.8241,-9.979305 3.8657,-2.622548 9.24703,-3.950852 16.12696,-3.950852 6.36905,0 11.54603,1.243156 15.56499,3.729468 4.00194,2.469282 6.01143,5.773011 6.01143,9.911187 0,4.27441 -2.02651,7.71438 -6.06251,10.28584 -4.05303,2.58849 -9.26407,3.88273 -15.65014,3.88273"
       style="fill:#ffffff;fill-rule:nonzero;stroke:none"
       clip-path="none" />
    <path
       id="path28079-1"
       d="m 813.1326,95.564044 h 6.01143 c 1.75404,0 3.16749,-0.221384 4.25738,-0.664151 l 1.58375,-1.907308 c 0,-1.719983 -1.78811,-2.588489 -5.38134,-2.588489 h -6.47122 z m 26.68528,16.075876 h -15.56499 l -6.67558,-10.30286 h -4.44471 v 10.30286 H 799.1173 V 84.682173 h 23.85837 c 5.29618,0 9.36624,0.73227 12.29532,2.179781 2.92908,1.44751 4.37659,3.371847 4.37659,5.755981 0,1.532658 -0.52791,2.92908 -1.6178,4.121147 -1.05583,1.192067 -3.23561,2.247898 -6.50528,3.133434 l 8.29338,11.767404"
       style="fill:#ffffff;fill-rule:nonzero;stroke:none"
       clip-path="none" />
    <path
       id="path28081-1"
       d="m 887.68789,111.63992 h -15.36064 l -7.9017,-10.18366 -4.73421,3.96788 v 6.21578 H 846.44237 V 84.682173 h 13.24897 V 95.819487 L 872.2932,84.682173 h 12.61888 l -11.56305,9.860099 14.33886,17.097648"
       style="fill:#ffffff;fill-rule:nonzero;stroke:none"
       clip-path="none" />
    <path
       id="path28083-5"
       d="m 653.3445,242.29049 -4.27441,-3.76352 -6.02845,-7.37379 -6.48826,-97.20457 75.98578,-11.22246 v -2.80987 l 21.55938,0.017 80.71998,11.6482 1.48157,89.74564 -25.15261,24.86311 -126.81893,0.13624 -10.98405,-4.036"
       style="fill:#ffffff;fill-rule:nonzero;stroke:none"
       clip-path="none" />
    <path
       id="path28085-2"
       d="m 897.90561,152.52783 0.13624,-32.59453 H 733.70686 l 35.38737,59.1606 3.23561,0.40871 1.87325,2.67363 v 2.55443 l 2.29899,0.40871 2.00948,2.80988 v 2.41819 l 2.28196,0.40871 2.28196,2.5374 v 5.51757 c 0,0 4.97262,4.56391 9.38327,6.30092 3.1164,1.2091 3.49105,6.18172 5.26212,8.85536 2.4182,3.76353 5.63678,5.3643 4.97263,7.51002 -1.61781,5.79004 -7.51003,15.44579 -13.02759,15.99073 0,0 -13.67472,0.017 -21.74672,0.017 l 0.10218,8.8213 34.24639,0.20436 95.63785,-94.00302"
       style="fill:#c21e24;fill-rule:nonzero;stroke:none"
       clip-path="none" />
    <path
       id="path28087-7"
       d="m 712.53916,119.74598 h -83.71718 l -0.6301,105.88963 17.55745,20.63979 h 18.8006 c -2.23086,-3.72946 -4.75124,-7.95279 -5.53459,-9.23 l -10.6094,0.017 c -0.017,-26.32766 8.99159,-40.97306 19.60099,-43.79996 1.48157,-0.25544 0.80039,-7.52705 -1.08989,-9.67277 l -6.18172,-0.11921 -0.39168,-1.73701 4.97262,-10.76267 -0.69821,-2.96314 -18.39189,0.017 15.17331,-10.6094 c 0.78336,-27.92843 29.41,-30.09118 46.71201,-18.56219 10.20069,6.84588 11.03513,20.26515 10.21772,29.68248 l -2.67364,0.11921 c 0,0 -1.75404,10.23474 2.8269,10.21771 h 20.12891 c 8.20823,-0.2895 16.12697,5.21104 16.12697,5.21104 l 2.00948,-6.96508 -44.20866,-57.37249"
       style="fill:#191c41;fill-rule:nonzero;stroke:none"
       clip-path="none" />
  </g>
</svg>
