<?xml version="1.0" encoding="UTF-8" standalone="no"?>
<!-- Generator: Adobe Illustrator 27.0.0, SVG Export Plug-In . SVG Version: 6.00 Build 0)  -->

<svg
   version="1.1"
   id="Layer_1"
   x="0px"
   y="0px"
   viewBox="0 0 1000 518.9281"
   xml:space="preserve"
   width="1000"
   height="518.9281"
   xmlns="http://www.w3.org/2000/svg"
   xmlns:svg="http://www.w3.org/2000/svg"><defs
   id="defs5" />
<style
   type="text/css"
   id="style1">
	.st0{fill:#092D74;}
	.st1{fill:#FFFFFF;}
</style>

<path
   style="baseline-shift:baseline;display:inline;overflow:visible;vector-effect:none;fill:#1d376c;fill-opacity:1;stroke-width:1.83824;enable-background:accumulate;stop-color:#000000;stop-opacity:1"
   d="M 259.45686,0 C 116.37965,0 0,116.39829 0,259.44608 c 0,143.07537 116.37965,259.482 259.45686,259.482 59.06985,0 116.96501,-20.52965 162.99259,-57.81825 l 3.65492,-2.94763 H 1000 V 65.242994 H 431.26364 l -3.70879,-3.17024 C 380.65044,22.04886 320.95318,0 259.45686,0 Z"
   id="path39" /><path
   id="path59"
   style="baseline-shift:baseline;display:inline;overflow:visible;vector-effect:none;fill:#fed13f;fill-opacity:1;stroke-width:1.83824;enable-background:accumulate;stop-color:#000000;stop-opacity:1"
   d="m 259.45686,18.396728 c -132.9228,0 -241.05655,108.137072 -241.05655,241.070892 0,132.90993 108.13375,241.05298 241.05655,241.05298 54.88235,0 108.65818,-19.07342 151.42104,-53.69658 l 8.70649,-7.04777 h 562.0189 V 83.625354 H 424.49592 l -8.87164,-7.56118 C 372.03789,38.865644 316.57083,18.396728 259.45686,18.396728 Z m -0.004,9.672261 c 54.81617,0 108.0499,19.660275 149.88078,55.362485 l 11.59311,9.86974 h 550.9895 V 430.08603 H 416.14847 l -11.36691,9.20553 c -41.0386,33.23713 -92.66836,51.54599 -145.32829,51.54599 -127.58823,0 -231.3771,-103.80173 -231.3771,-231.37709 0,-127.59927 103.78887,-231.391471 231.3771,-231.391471 z" /><path
   id="path52"
   style="baseline-shift:baseline;display:inline;overflow:visible;vector-effect:none;fill:#fed13f;fill-opacity:1;stroke-width:1.83824;enable-background:accumulate;stop-color:#000000;stop-opacity:1"
   d="m 782.04346,297.37046 c -17.70221,0 -25.87532,11.30161 -25.87532,25.19316 v 50.66636 c 0,13.88787 8.17311,25.19316 25.87532,25.19316 17.70404,0 25.87531,-11.30529 25.87531,-25.19316 v -50.66636 c 0,-13.89155 -8.16943,-25.19316 -25.87531,-25.19316 z m 0,14.70588 c 6.80698,0 8.99012,3.54731 8.99012,10.89658 v 49.84417 c 0,7.35478 -2.18314,10.89658 -8.99012,10.89658 -6.80883,0 -8.98653,-3.54364 -8.98653,-10.89658 v -49.84417 c 0,-7.34927 2.17586,-10.89658 8.98653,-10.89658 z" /><path
   id="path57"
   style="baseline-shift:baseline;display:inline;overflow:visible;vector-effect:none;fill:#fed13f;fill-opacity:1;stroke-width:1.83824;enable-background:accumulate;stop-color:#000000;stop-opacity:1"
   d="m 818.80097,298.73119 v 98.33123 h 16.88879 v -40.31193 c 2.99449,0 6.53353,-0.14083 8.71368,-0.41288 l 11.98443,40.72481 h 17.16524 L 859.24934,352.5247 c 5.72242,-2.58456 11.8516,-8.98974 11.8516,-24.78386 0,-20.97059 -9.67022,-29.00965 -28.60037,-29.00965 z m 16.88879,13.89447 h 5.98864 c 9.125,0 12.53015,3.40195 12.53015,15.11518 0,11.7114 -3.40515,15.11517 -12.53015,15.11517 h -5.98864 z" /><path
   style="baseline-shift:baseline;display:inline;overflow:visible;vector-effect:none;fill:#fed13f;fill-opacity:1;stroke-width:1.83824;enable-background:accumulate;stop-color:#000000;stop-opacity:1"
   d="m 880.61882,298.73154 h 16.88879 v 36.36259 h 0.27287 l 17.70378,-36.36259 h 16.88879 l -18.25311,36.63904 20.56526,61.69219 h -17.16165 v -0.004 l -13.75087,-45.75482 h -0.27285 l -5.99222,10.89298 v 34.86544 h -16.88879 z"
   id="path58" /><path
   style="baseline-shift:baseline;display:inline;overflow:visible;vector-effect:none;fill:#fed13f;fill-opacity:1;stroke-width:1.83824;enable-background:accumulate;stop-color:#000000;stop-opacity:1"
   d="m 662.61919,298.73154 h 15.80094 l 10.34724,62.64721 h 0.27645 l 11.02942,-62.64721 h 13.89088 l 11.4423,62.64721 h 0.26928 l 9.39941,-62.64721 h 15.79733 l -17.29808,98.33123 h -14.16375 l -12.25728,-64.96296 h -0.27287 l -11.43871,64.96296 H 681.2816 Z"
   id="path56" /><path
   style="baseline-shift:baseline;display:inline;overflow:visible;vector-effect:none;fill:#fed13f;fill-opacity:1;stroke-width:1.83824;enable-background:accumulate;stop-color:#000000;stop-opacity:1"
   d="m 608.56,298.73154 h 49.57491 v 14.70588 h -16.34305 v 83.62175 H 624.90307 V 313.43742 H 608.56 Z"
   id="path55" /><path
   style="baseline-shift:baseline;display:inline;overflow:visible;vector-effect:none;fill:#fed13f;fill-opacity:1;stroke-width:1.83824;enable-background:accumulate;stop-color:#000000;stop-opacity:1"
   d="m 554.64441,298.73154 h 45.21629 v 14.70588 h -28.3275 v 25.33677 h 21.79314 v 14.70588 H 571.5332 v 28.87322 h 30.23395 v 14.70588 h -0.004 -47.11913 z"
   id="path54" /><path
   style="baseline-shift:baseline;display:inline;overflow:visible;vector-effect:none;fill:#fed13f;fill-opacity:1;stroke-width:1.83824;enable-background:accumulate;stop-color:#000000;stop-opacity:1"
   d="m 492.00439,298.73154 h 15.66449 l 20.56526,56.2421 h 0.27286 v -56.2421 h 15.25162 v 98.32763 H 529.05274 L 507.52886,335.6395 h -0.26926 v 61.41932 h -15.25521 z"
   id="path53" /><path
   style="baseline-shift:baseline;display:inline;overflow:visible;vector-effect:none;fill:#fed13f;fill-opacity:1;stroke-width:1.83824;enable-background:accumulate;stop-color:#000000;stop-opacity:1"
   d="m 490.90217,259.56851 h 439.92704 v 15.60345 H 490.90217 Z"
   id="path51" /><path
   style="baseline-shift:baseline;display:inline;overflow:visible;vector-effect:none;fill:#ffffff;fill-opacity:1;stroke-width:1.83824;enable-background:accumulate;stop-color:#000000;stop-opacity:1"
   d="m 716.73585,169.70321 h 100.69722 c 0,0 -0.47136,4.29896 -1.11658,8.99013 -1.28493,9.2978 -8.20708,16.22458 -21.08943,16.22458 h -45.41017 l -5.09823,41.3172 -36.15076,0.004 z"
   id="path50" /><path
   style="baseline-shift:baseline;display:inline;overflow:visible;vector-effect:none;fill:#ffffff;fill-opacity:1;stroke-width:1.83824;enable-background:accumulate;stop-color:#000000;stop-opacity:1"
   d="m 604.14033,169.70321 c 12.35294,0 73.18888,0.0184 79.44623,0.0184 11.34743,0 25.75296,4.96237 22.93127,25.77119 -0.48346,3.58456 -2.23524,20.64754 -4.21502,25.40857 -6.09926,14.66544 -24.02553,15.1466 -26.58619,15.33777 -3.11213,0.0202 -79.74063,0 -79.74063,0 l 3.54721,-28.86961 70.3879,-0.004 1.5223,-12.46553 c 0,0 -42.23364,0.0184 -48.93584,0.0184 -12.31618,0.002 -21.00796,-7.8489 -18.35723,-25.21471 z"
   id="path49" /><path
   style="baseline-shift:baseline;display:inline;overflow:visible;vector-effect:none;fill:#ffffff;fill-opacity:1;stroke-width:1.83824;enable-background:accumulate;stop-color:#000000;stop-opacity:1"
   d="m 500.11847,169.70321 h 96.70124 l -3.09844,25.21829 h -60.53969 l -1.53305,12.44399 60.55765,0.004 -3.558,28.86961 h -96.71559 z"
   id="path48" /><path
   style="baseline-shift:baseline;display:inline;overflow:visible;vector-effect:none;fill:#ffffff;fill-opacity:1;stroke-width:1.83824;enable-background:accumulate;stop-color:#000000;stop-opacity:1"
   d="m 893.49366,169.69218 36.1723,0.0184 -8.17872,66.51036 -36.1723,0.0184 z"
   id="path47" /><path
   style="baseline-shift:baseline;display:inline;overflow:visible;vector-effect:none;fill:#ffffff;fill-opacity:1;stroke-width:1.83824;enable-background:accumulate;stop-color:#000000;stop-opacity:1"
   d="m 824.77165,169.69218 36.17949,0.0184 -8.17511,66.51036 -36.17232,0.0184 z"
   id="path46" /><path
   style="baseline-shift:baseline;display:inline;overflow:visible;vector-effect:none;fill:#ffffff;fill-opacity:1;stroke-width:1.83824;enable-background:accumulate;stop-color:#000000;stop-opacity:1"
   d="m 829.95246,127.59588 h 78.88256 c 12.46323,0 25.38055,5.7889 22.82356,25.79992 -0.45772,3.5864 -0.58882,4.68894 -0.58882,4.68894 h -104.8548 z"
   id="path45" /><path
   style="baseline-shift:baseline;display:inline;overflow:visible;vector-effect:none;fill:#ffffff;fill-opacity:1;stroke-width:1.83824;enable-background:accumulate;stop-color:#000000;stop-opacity:1"
   d="m 505.27774,127.59588 h 96.70842 l -3.73033,30.48886 h -96.72636 z"
   id="path44" /><path
   style="baseline-shift:baseline;display:inline;overflow:visible;vector-effect:none;fill:#ffffff;fill-opacity:1;stroke-width:1.83824;enable-background:accumulate;stop-color:#000000;stop-opacity:1"
   d="m 635.44061,127.5922 c 8.64154,0.0129 160.07726,0.004 160.07726,0.004 20.11029,0 25.64728,11.79963 24.04066,24.81617 -0.31066,2.5239 -0.71447,5.67269 -0.71447,5.67269 H 605.55851 c 0,-0.002 0.53789,-4.19686 1.10223,-8.95421 1.52573,-12.91728 12.38281,-21.55846 28.77987,-21.53824 z"
   id="path43" /><path
   style="baseline-shift:baseline;display:inline;overflow:visible;vector-effect:none;fill:#ffffff;fill-opacity:1;stroke-width:1.83824;enable-background:accumulate;stop-color:#000000;stop-opacity:1"
   d="m 336.20318,73.407354 c 55.60846,23.29963 98.65028,70.748876 115.98116,129.182696 l -39.96366,30.1334 c -4.38235,-24.87498 -14.69004,-47.73562 -29.38305,-67.08121 v 188.16421 c 14.69301,-19.34927 25.0007,-42.20807 29.38305,-67.08123 l 39.96366,30.12981 c -17.32905,58.43199 -60.3727,105.87756 -115.98116,129.1827 z"
   id="path42" /><path
   style="baseline-shift:baseline;display:inline;overflow:visible;vector-effect:none;fill:#ffffff;fill-opacity:1;stroke-width:1.83824;enable-background:accumulate;stop-color:#000000;stop-opacity:1"
   d="M 193.2409,68.007534 V 195.76489 H 158.03079 V 148.0318 c -16.03125,14.44669 -28.93474,32.27457 -37.56893,52.36097 l 72.78262,78.37633 V 450.91338 C 137.53493,431.93176 92.68443,389.24788 70.74693,334.95376 l 39.0984,-26.60773 c 7.38603,22.35294 19.67524,42.48347 35.59068,59.12869 V 302.14915 L 62.55385,208.70792 C 79.658634,142.75571 129.3034,89.786944 193.2409,68.007534 Z"
   id="path41" /><path
   style="baseline-shift:baseline;display:inline;overflow:visible;vector-effect:none;fill:#ffffff;fill-opacity:1;stroke-width:1.83824;enable-background:accumulate;stop-color:#000000;stop-opacity:1"
   d="m 258.30077,57.258164 c 18.90625,0 37.19736,2.61454 54.58338,7.48219 V 144.3661 c -11.92647,-5.68382 -24.86672,-9.55612 -38.48805,-11.29509 v 89.49547 h 31.66289 v 73.7628 H 274.3961 v 104.67888 c 13.48897,-1.51471 26.3943,-4.91555 38.48805,-9.95232 V 454.159 c -17.38603,4.87684 -35.67713,7.49296 -54.58338,7.49296 -14.63787,0 -28.91331,-1.57849 -42.67434,-4.54173 V 61.799894 c 13.76103,-2.96875 28.03647,-4.54173 42.67434,-4.54173 z"
   id="path40" />
</svg>
